<svg width="1170" height="230" viewBox="0 0 1170 230" fill="none" xmlns="http://www.w3.org/2000/svg">
<path d="M0 8C0 3.6 3.6 0 8 0H1162C1166.4 0 1170 3.6 1170 8V222C1170 226.4 1166.4 230 1162 230H8C3.6 230 0 226.4 0 222V8Z" fill="#005FFD"/>
<mask id="mask0_16_708" style="mask-type:luminance" maskUnits="userSpaceOnUse" x="0" y="0" width="1170" height="230">
<path d="M0 8C0 3.58 3.58 0 8 0H1162C1166.42 0 1170 3.58 1170 8V222C1170 226.42 1166.42 230 1162 230H8C3.58 230 0 226.42 0 222V8Z" fill="white"/>
</mask>
<g mask="url(#mask0_16_708)">
<path d="M331.8 -5.5C331.8 -5.5 334.3 44.4996 268.6 64.0996C191.5 66.8996 172.2 39.1002 131.8 62.2002C131.8 62.2002 53.3 152.3 -41.5 64.7002L-43 -13H330.8L331.8 -5.5Z" fill="#FF5219"/>
</g>
</svg>
