<svg width="653" height="137" viewBox="0 0 653 137" fill="none" xmlns="http://www.w3.org/2000/svg">
<path d="M47 5.49927H34.9V28.5992L4.40002 3.19922V50.9993H16.5V27.8993L47 53.2993V5.49927ZM71.5 51.5992C75.5 51.5992 78.8666 50.866 81.6 49.3993C84.4 47.866 86.6 45.5659 88.2 42.4993L78 40.3993C77.3333 41.5326 76.4334 42.3993 75.3 42.9993C74.1667 43.5993 72.7666 43.8993 71.1 43.8993C69.7666 43.8993 68.6333 43.5993 67.7 42.9993C66.8333 42.3326 66.1666 41.4327 65.7 40.2993C65.2333 39.0993 65 37.6659 65 35.9993C65 34.0659 65.2333 32.4993 65.7 31.2993C66.1 30.0326 66.7333 29.0993 67.6 28.4993C68.4666 27.8993 69.5667 27.5992 70.9 27.5992C71.9 27.5992 72.7667 27.8326 73.5 28.2993C74.3 28.6993 74.9 29.3326 75.3 30.1992C75.7001 31.0659 75.9 32.0993 75.9 33.2993C75.9 33.6326 75.8333 33.9993 75.7 34.3993C75.5 34.866 75.3 35.2659 75.1 35.5992L77.5 32.5992H59.9V38.3993H87.8C87.8 37.9993 87.8 37.5659 87.8 37.0992C87.8667 36.5659 87.9 36.0326 87.9 35.4993C87.9 32.2326 87.2334 29.4993 85.9 27.2993C84.6334 25.0326 82.7667 23.3326 80.3 22.1992C77.8334 20.9992 74.7666 20.3993 71.1 20.3993C67.5 20.3993 64.4 21.0326 61.8 22.2993C59.2001 23.566 57.2001 25.3659 55.8 27.6992C54.4 30.0326 53.7 32.7993 53.7 35.9993C53.7 39.1993 54.4334 41.966 55.9 44.2993C57.3 46.6326 59.3333 48.4326 62 49.6992C64.6667 50.9659 67.8333 51.5992 71.5 51.5992ZM103.6 53.1992H92.8C93.0667 55.8659 93.8 58.2327 95 60.2993C96.2667 62.2993 98.1 63.8659 100.5 64.9993C102.9 66.1326 106.1 66.6992 110.1 66.6992C113.3 66.6992 116.167 66.1659 118.7 65.0992C121.233 64.0326 123.267 62.2993 124.8 59.8993C126.333 57.4326 127.1 54.2327 127.1 50.2993V21.0992H116.4V50.2993C116.4 51.966 116.1 53.3659 115.5 54.4993C114.9 55.6326 114.1 56.4992 113.1 57.0992C112.1 57.6326 110.9 57.8993 109.5 57.8993C108.5 57.8993 107.567 57.7659 106.7 57.4993C105.833 57.1659 105.133 56.6659 104.6 55.9993C104.067 55.2659 103.733 54.3326 103.6 53.1992ZM92.1 35.4993C92.1 38.8993 92.7666 41.7326 94.1 43.9993C95.5 46.1993 97.2667 47.8659 99.4 48.9993C101.6 50.0659 103.867 50.5992 106.2 50.5992C108.667 50.5992 110.9 49.9993 112.9 48.7993C114.833 47.666 116.367 45.9659 117.5 43.6992C118.633 41.4326 119.2 38.6993 119.2 35.4993C119.2 32.2326 118.633 29.4993 117.5 27.2993C116.367 25.0326 114.833 23.3326 112.9 22.1992C110.9 20.9992 108.667 20.3993 106.2 20.3993C103.867 20.3993 101.6 20.9659 99.4 22.0992C97.2667 23.1659 95.5 24.8326 94.1 27.0992C92.7666 29.2992 92.1 32.0993 92.1 35.4993ZM104 35.4993C104 34.1659 104.267 33.0326 104.8 32.0992C105.333 31.1659 106.1 30.4659 107.1 29.9993C108.033 29.5326 109.067 29.2993 110.2 29.2993C110.933 29.2993 111.667 29.4326 112.4 29.6992C113.133 29.8992 113.8 30.266 114.4 30.7993C115 31.266 115.467 31.8992 115.8 32.6992C116.2 33.4992 116.4 34.4326 116.4 35.4993C116.4 36.9659 116.1 38.1326 115.5 38.9993C114.833 39.9326 114.033 40.6326 113.1 41.0992C112.167 41.4992 111.2 41.6992 110.2 41.6992C109.067 41.6992 108.033 41.4659 107.1 40.9993C106.1 40.5326 105.333 39.8326 104.8 38.8993C104.267 37.966 104 36.8326 104 35.4993ZM143.3 41.5992C143.3 40.9326 143.433 40.4326 143.7 40.0992C143.967 39.6326 144.4 39.2992 145 39.0992C145.6 38.8992 146.4 38.7993 147.4 38.7993C148.8 38.7993 150.167 38.966 151.5 39.2993C152.767 39.6993 153.833 40.2659 154.7 40.9993V36.2993C154.167 35.6993 153.333 35.1659 152.2 34.6992C151.133 34.1659 149.833 33.7326 148.3 33.3993C146.9 33.1326 145.367 32.9993 143.7 32.9993C139.9 32.9993 137 33.7993 135 35.3993C133 37.066 132 39.3326 132 42.1992C132 44.2659 132.5 45.9993 133.5 47.3993C134.5 48.7993 135.8 49.8659 137.4 50.5992C139 51.2659 140.767 51.5992 142.7 51.5992C144.7 51.5992 146.533 51.2659 148.2 50.5992C149.867 49.8659 151.167 48.8326 152.1 47.4993C153.1 46.1659 153.6 44.5659 153.6 42.6992L152.6 38.7993C152.6 40.1326 152.3 41.2326 151.7 42.0992C151.167 42.9659 150.467 43.6326 149.6 44.0992C148.733 44.4992 147.833 44.6992 146.9 44.6992C146.233 44.6992 145.633 44.566 145.1 44.2993C144.567 44.0993 144.1 43.766 143.7 43.2993C143.433 42.8326 143.3 42.2659 143.3 41.5992ZM134.2 23.4993L137.8 30.8993C138.2 30.6993 138.9 30.3993 139.9 29.9993C140.9 29.5993 142.033 29.2326 143.3 28.8993C144.7 28.6326 146 28.4993 147.2 28.4993C148.133 28.4993 148.933 28.5993 149.6 28.7993C150.333 28.9993 150.9 29.2992 151.3 29.6992C151.767 30.0326 152.067 30.4659 152.2 30.9993C152.467 31.4659 152.6 32.0326 152.6 32.6992V50.9993H163.3V29.9993C163.3 27.9326 162.633 26.1659 161.3 24.6992C160.1 23.1659 158.367 22.0326 156.1 21.2993C153.967 20.566 151.533 20.1992 148.8 20.1992C146 20.1992 143.333 20.566 140.8 21.2993C138.333 21.966 136.133 22.6993 134.2 23.4993ZM196.8 34.2993L188.3 40.5992C189.3 42.8659 190.767 44.9327 192.7 46.7993C194.633 48.5993 196.933 50.0326 199.6 51.0992C202.267 52.1659 205.167 52.6992 208.3 52.6992C210.5 52.6992 212.667 52.3993 214.8 51.7993C216.933 51.1326 218.8 50.1993 220.4 48.9993C222.133 47.7326 223.467 46.166 224.4 44.2993C225.4 42.4327 225.9 40.266 225.9 37.7993C225.9 35.9993 225.6 34.366 225 32.8993C224.467 31.4326 223.667 30.1326 222.6 28.9993C221.6 27.8659 220.367 26.8659 218.9 25.9993C217.567 25.1326 216.033 24.3993 214.3 23.7993C212.367 23.1327 210.633 22.4993 209.1 21.8993C207.633 21.2993 206.467 20.6659 205.6 19.9993C204.8 19.3326 204.4 18.4993 204.4 17.4993C204.4 16.6326 204.767 15.9326 205.5 15.3993C206.233 14.866 207.233 14.5992 208.5 14.5992C209.5 14.5992 210.467 14.7992 211.4 15.1992C212.333 15.5992 213.233 16.166 214.1 16.8993C214.967 17.6326 215.7 18.5326 216.3 19.5992L225.8 14.2993C225 12.766 223.833 11.2326 222.3 9.69922C220.767 8.16589 218.833 6.89929 216.5 5.89929C214.167 4.83263 211.4 4.29932 208.2 4.29932C205.133 4.29932 202.333 4.83263 199.8 5.89929C197.333 6.89929 195.333 8.39929 193.8 10.3993C192.267 12.3326 191.5 14.7326 191.5 17.5992C191.5 19.8659 191.9 21.8326 192.7 23.4993C193.567 25.0993 194.633 26.4659 195.9 27.5992C197.233 28.7326 198.6 29.666 200 30.3993C201.333 31.1326 202.567 31.6992 203.7 32.0992C206.033 32.9659 207.833 33.6993 209.1 34.2993C210.367 34.8993 211.267 35.5326 211.8 36.1992C212.333 36.7326 212.6 37.4327 212.6 38.2993C212.6 39.4993 212.133 40.4326 211.2 41.0992C210.267 41.6992 209.133 41.9993 207.8 41.9993C206.333 41.9993 204.933 41.6992 203.6 41.0992C202.267 40.4992 201.033 39.6326 199.9 38.4993C198.767 37.2993 197.733 35.8993 196.8 34.2993ZM231.1 10.1992C231.1 11.9326 231.7 13.3326 232.9 14.3993C234.167 15.466 235.667 15.9993 237.4 15.9993C239.2 15.9993 240.7 15.466 241.9 14.3993C243.167 13.3326 243.8 11.9326 243.8 10.1992C243.8 8.46589 243.167 7.06593 241.9 5.99927C240.7 4.9326 239.2 4.39929 237.4 4.39929C235.667 4.39929 234.167 4.9326 232.9 5.99927C231.7 7.06593 231.1 8.46589 231.1 10.1992ZM242.8 21.0992H232V50.9993H242.8V21.0992ZM250.5 31.1992H262.4L247.5 50.9993H278.4V40.7993H266.9L280.8 21.0992H250.5V31.1992ZM314 41.5992C314 40.9326 314.133 40.3993 314.4 39.9993C314.6 39.5993 315.033 39.2659 315.7 38.9993C316.3 38.7993 317.1 38.6992 318.1 38.6992C319.5 38.6992 320.867 38.8993 322.2 39.2993C323.467 39.6993 324.533 40.2659 325.4 40.9993V36.1992C324.867 35.5992 324.033 35.0659 322.9 34.5992C321.767 34.0659 320.467 33.666 319 33.3993C317.6 33.066 316.067 32.8993 314.4 32.8993C310.6 32.8993 307.667 33.7326 305.6 35.3993C303.667 37.066 302.7 39.3326 302.7 42.1992C302.7 44.1992 303.2 45.9326 304.2 47.3993C305.133 48.7326 306.433 49.7659 308.1 50.4993C309.7 51.2326 311.467 51.5992 313.4 51.5992C315.4 51.5992 317.2 51.2326 318.8 50.4993C320.533 49.8326 321.867 48.8326 322.8 47.4993C323.8 46.1659 324.3 44.5326 324.3 42.5992L323.3 38.6992C323.3 40.0326 323 41.1659 322.4 42.0992C321.867 42.9659 321.167 43.5993 320.3 43.9993C319.433 44.3993 318.533 44.5992 317.6 44.5992C316.933 44.5992 316.333 44.4993 315.8 44.2993C315.2 44.0326 314.733 43.6993 314.4 43.2993C314.133 42.8326 314 42.2659 314 41.5992ZM304.9 23.4993L308.5 30.8993C308.9 30.6326 309.6 30.2993 310.6 29.8993C311.6 29.566 312.733 29.2326 314 28.8993C315.333 28.566 316.633 28.3993 317.9 28.3993C318.833 28.3993 319.633 28.5326 320.3 28.7993C321.033 28.9326 321.6 29.1992 322 29.5992C322.467 29.9326 322.767 30.366 322.9 30.8993C323.167 31.4326 323.3 32.0326 323.3 32.6992V50.8993H334V29.9993C334 27.8659 333.333 26.0659 332 24.5992C330.8 23.1326 329.067 22.0326 326.8 21.2993C324.667 20.4993 322.233 20.0992 319.5 20.0992C316.7 20.0992 314.033 20.4659 311.5 21.1992C309.033 21.9326 306.833 22.6993 304.9 23.4993ZM353.7 65.1992L373.2 20.9993H361.9L352.3 45.0992L358.2 45.1992L348.5 20.9993H336.3L349.7 49.0992L342.6 65.1992H353.7ZM395.5 32.6992V50.8993H407.2V31.5992C407.2 27.9992 406.4 25.2326 404.8 23.2993C403.133 21.2993 400.333 20.2993 396.4 20.2993C394.133 20.2993 392.233 20.7993 390.7 21.7993C389.233 22.666 388.1 23.8993 387.3 25.4993V20.9993H376V50.8993H387.3V32.6992C387.3 31.6326 387.467 30.7326 387.8 29.9993C388.2 29.2659 388.733 28.7326 389.4 28.3993C390.067 28.066 390.833 27.8993 391.7 27.8993C393.167 27.8993 394.167 28.3326 394.7 29.1992C395.233 29.9992 395.5 31.1659 395.5 32.6992ZM423.5 41.5992C423.5 40.9326 423.633 40.3993 423.9 39.9993C424.167 39.5993 424.6 39.2659 425.2 38.9993C425.8 38.7993 426.6 38.6992 427.6 38.6992C429.067 38.6992 430.433 38.8993 431.7 39.2993C433.033 39.6993 434.133 40.2659 435 40.9993V36.1992C434.4 35.5992 433.533 35.0659 432.4 34.5992C431.333 34.0659 430.067 33.666 428.6 33.3993C427.2 33.066 425.667 32.8993 424 32.8993C420.2 32.8993 417.267 33.7326 415.2 35.3993C413.2 37.066 412.2 39.3326 412.2 42.1992C412.2 44.1992 412.7 45.9326 413.7 47.3993C414.7 48.7326 416 49.7659 417.6 50.4993C419.267 51.2326 421.067 51.5992 423 51.5992C424.933 51.5992 426.733 51.2326 428.4 50.4993C430.133 49.8326 431.467 48.8326 432.4 47.4993C433.4 46.1659 433.9 44.5326 433.9 42.5992L432.8 38.6992C432.8 40.0326 432.533 41.1659 432 42.0992C431.467 42.9659 430.767 43.5993 429.9 43.9993C429.033 44.3993 428.133 44.5992 427.2 44.5992C426.533 44.5992 425.933 44.4993 425.4 44.2993C424.8 44.0326 424.333 43.6993 424 43.2993C423.667 42.8326 423.5 42.2659 423.5 41.5992ZM414.5 23.4993L418.1 30.8993C418.5 30.6326 419.2 30.2993 420.2 29.8993C421.2 29.566 422.333 29.2326 423.6 28.8993C424.933 28.566 426.233 28.3993 427.5 28.3993C428.433 28.3993 429.233 28.5326 429.9 28.7993C430.633 28.9326 431.2 29.1992 431.6 29.5992C432.067 29.9326 432.367 30.366 432.5 30.8993C432.7 31.4326 432.8 32.0326 432.8 32.6992V50.8993H443.6V29.9993C443.6 27.8659 442.933 26.0659 441.6 24.5992C440.333 23.1326 438.6 22.0326 436.4 21.2993C434.267 20.4993 431.833 20.0992 429.1 20.0992C426.233 20.0992 423.567 20.4659 421.1 21.1992C418.633 21.9326 416.433 22.6993 414.5 23.4993ZM470 32.6992V50.8993H481.7V31.5992C481.7 27.9992 480.867 25.2326 479.2 23.2993C477.6 21.2993 474.833 20.2993 470.9 20.2993C468.633 20.2993 466.733 20.7993 465.2 21.7993C463.733 22.666 462.6 23.8993 461.8 25.4993V20.9993H450.5V50.8993H461.8V32.6992C461.8 31.6326 461.967 30.7326 462.3 29.9993C462.7 29.2659 463.2 28.7326 463.8 28.3993C464.533 28.066 465.333 27.8993 466.2 27.8993C467.667 27.8993 468.667 28.3326 469.2 29.1992C469.733 29.9992 470 31.1659 470 32.6992ZM519.5 50.8993V0.199219H508.3V50.8993H519.5ZM543.7 35.9993C543.7 32.5993 543.033 29.7326 541.7 27.3993C540.367 25.1326 538.633 23.3992 536.5 22.1992C534.367 20.9992 532.1 20.3993 529.7 20.3993C527.233 20.3993 525 21.0326 523 22.2993C521.067 23.566 519.5 25.3659 518.3 27.6992C517.167 29.9659 516.6 32.7326 516.6 35.9993C516.6 39.1993 517.167 41.966 518.3 44.2993C519.5 46.6326 521.067 48.4326 523 49.6992C525 50.9659 527.233 51.5992 529.7 51.5992C532.1 51.5992 534.367 50.9993 536.5 49.7993C538.633 48.5993 540.367 46.8659 541.7 44.5992C543.033 42.2659 543.7 39.3993 543.7 35.9993ZM531.9 35.9993C531.9 37.2659 531.633 38.4326 531.1 39.4993C530.5 40.5659 529.733 41.366 528.8 41.8993C527.867 42.4326 526.8 42.6992 525.6 42.6992C524.6 42.6992 523.633 42.4659 522.7 41.9993C521.767 41.3993 521 40.5992 520.4 39.5992C519.8 38.5992 519.5 37.3993 519.5 35.9993C519.5 34.5326 519.8 33.2993 520.4 32.2993C521 31.366 521.767 30.6326 522.7 30.0992C523.633 29.4992 524.6 29.1992 525.6 29.1992C526.8 29.1992 527.867 29.4992 528.8 30.0992C529.733 30.6326 530.5 31.4326 531.1 32.4993C531.633 33.4993 531.9 34.6659 531.9 35.9993ZM548.6 10.1992C548.6 11.8659 549.2 13.2326 550.4 14.2993C551.667 15.4326 553.167 15.9993 554.9 15.9993C556.633 15.9993 558.1 15.4326 559.3 14.2993C560.567 13.2326 561.2 11.8659 561.2 10.1992C561.2 8.46589 560.567 7.06593 559.3 5.99927C558.1 4.86593 556.633 4.29932 554.9 4.29932C553.167 4.29932 551.667 4.86593 550.4 5.99927C549.2 7.06593 548.6 8.46589 548.6 10.1992ZM560.3 20.9993H549.5V50.8993H560.3V20.9993ZM568 31.1992H579.9L565 50.8993H595.9V40.7993H584.4L598.2 20.9993H568V31.1992ZM622.2 32.7993V50.9993H634V31.5992C634 28.0659 633.167 25.3326 631.5 23.3993C629.833 21.3993 627.067 20.3993 623.2 20.3993C620.867 20.3993 618.967 20.866 617.5 21.7993C615.967 22.7326 614.8 23.9659 614 25.4993V21.0992H602.8V50.9993H614V32.7993C614 31.7326 614.167 30.8326 614.5 30.0992C614.9 29.3659 615.433 28.7993 616.1 28.3993C616.767 28.066 617.533 27.8993 618.4 27.8993C619.867 27.8993 620.867 28.3326 621.4 29.1992C621.933 30.0659 622.2 31.266 622.2 32.7993ZM640.3 10.1992C640.3 11.9326 640.933 13.3326 642.2 14.3993C643.4 15.466 644.867 15.9993 646.6 15.9993C648.4 15.9993 649.9 15.466 651.1 14.3993C652.367 13.3326 653 11.9326 653 10.1992C653 8.46589 652.367 7.06593 651.1 5.99927C649.9 4.9326 648.4 4.39929 646.6 4.39929C644.867 4.39929 643.4 4.9326 642.2 5.99927C640.933 7.06593 640.3 8.46589 640.3 10.1992ZM652 21.0992H641.2V50.9993H652V21.0992ZM21.5 91.0992H0V100.199H21.5V91.0992ZM16.1 80.6992H5.40002V120.999H16.1V80.6992ZM34.6 111.599C34.6 110.999 34.7333 110.499 35 110.099C35.2667 109.633 35.7 109.299 36.3 109.099C36.9 108.899 37.7 108.799 38.7 108.799C40.1 108.799 41.4667 108.999 42.8 109.399C44.0667 109.733 45.1333 110.299 46 111.099V106.299C45.4667 105.699 44.6333 105.166 43.5 104.699C42.4333 104.166 41.1667 103.733 39.7 103.399C38.2333 103.133 36.7 102.999 35.1 102.999C31.2333 102.999 28.3 103.833 26.3 105.499C24.3 107.099 23.3 109.333 23.3 112.199C23.3 114.266 23.8 115.999 24.8 117.399C25.8 118.799 27.1 119.866 28.7 120.599C30.3667 121.266 32.1333 121.599 34 121.599C36 121.599 37.8333 121.266 39.5 120.599C41.1667 119.933 42.4667 118.933 43.4 117.599C44.4 116.199 44.9 114.566 44.9 112.699L43.9 108.799C43.9 110.133 43.6333 111.266 43.1 112.199C42.5666 113.066 41.8667 113.699 41 114.099C40.1333 114.499 39.2 114.699 38.2 114.699C37.6 114.699 37 114.599 36.4 114.399C35.8667 114.133 35.4333 113.766 35.1 113.299C34.7666 112.833 34.6 112.266 34.6 111.599ZM25.6 93.5992L29.1 100.899C29.5 100.699 30.2 100.399 31.2 99.9993C32.2 99.5993 33.3667 99.2659 34.7 98.9993C36.0333 98.6659 37.3333 98.4993 38.6 98.4993C39.4666 98.4993 40.2667 98.5993 41 98.7993C41.6667 98.9993 42.2333 99.2992 42.7 99.6992C43.1 100.033 43.4 100.466 43.6 100.999C43.8 101.533 43.9 102.099 43.9 102.699V120.999H54.6V100.099C54.6 97.9659 53.9666 96.1659 52.7 94.6992C51.4333 93.2326 49.7 92.1326 47.5 91.3993C45.3 90.5993 42.8333 90.1992 40.1 90.1992C37.3 90.1992 34.6333 90.566 32.1 91.2993C29.6333 91.966 27.4666 92.7326 25.6 93.5992ZM81 102.799V120.999H92.8V101.599C92.8 98.0659 91.9667 95.3326 90.3 93.3993C88.6334 91.3993 85.8667 90.3993 82 90.3993C79.6667 90.3993 77.7667 90.866 76.3 91.7993C74.8334 92.7327 73.6667 93.9659 72.8 95.4993V91.0992H61.6V120.999H72.8V102.799C72.8 101.733 72.9667 100.833 73.3 100.099C73.7001 99.3659 74.2334 98.7993 74.9 98.3993C75.5667 98.066 76.3333 97.8993 77.2 97.8993C78.7333 97.8993 79.7333 98.3326 80.2 99.1992C80.7333 100.066 81 101.266 81 102.799ZM111.2 70.2993H99.9V120.999H111.2V70.2993ZM127.4 111.599C127.4 110.999 127.533 110.499 127.8 110.099C128.067 109.633 128.5 109.299 129.1 109.099C129.7 108.899 130.5 108.799 131.5 108.799C132.967 108.799 134.333 108.999 135.6 109.399C136.933 109.733 138.033 110.299 138.9 111.099V106.299C138.3 105.699 137.433 105.166 136.3 104.699C135.233 104.166 133.967 103.733 132.5 103.399C131.033 103.133 129.5 102.999 127.9 102.999C124.1 102.999 121.167 103.833 119.1 105.499C117.1 107.099 116.1 109.333 116.1 112.199C116.1 114.266 116.6 115.999 117.6 117.399C118.6 118.799 119.9 119.866 121.5 120.599C123.167 121.266 124.933 121.599 126.8 121.599C128.8 121.599 130.633 121.266 132.3 120.599C133.967 119.933 135.3 118.933 136.3 117.599C137.3 116.199 137.8 114.566 137.8 112.699L136.7 108.799C136.7 110.133 136.433 111.266 135.9 112.199C135.367 113.066 134.667 113.699 133.8 114.099C132.933 114.499 132.033 114.699 131.1 114.699C130.433 114.699 129.8 114.599 129.2 114.399C128.667 114.133 128.233 113.766 127.9 113.299C127.567 112.833 127.4 112.266 127.4 111.599ZM118.4 93.5992L122 100.899C122.333 100.699 123 100.399 124 99.9993C125 99.5993 126.167 99.2659 127.5 98.9993C128.833 98.6659 130.133 98.4993 131.4 98.4993C132.333 98.4993 133.133 98.5993 133.8 98.7993C134.467 98.9993 135.033 99.2992 135.5 99.6992C135.9 100.033 136.2 100.466 136.4 100.999C136.6 101.533 136.7 102.099 136.7 102.699V120.999H147.4V100.099C147.4 97.9659 146.767 96.1659 145.5 94.6992C144.233 93.2326 142.5 92.1326 140.3 91.3993C138.1 90.5993 135.633 90.1992 132.9 90.1992C130.1 90.1992 127.467 90.566 125 91.2993C122.467 91.966 120.267 92.7326 118.4 93.5992ZM156.1 109.599L152 117.299C153.533 118.299 155.167 119.199 156.9 119.999C158.567 120.733 160.367 121.333 162.3 121.799C164.233 122.199 166.267 122.399 168.4 122.399C172.133 122.399 175 121.599 177 119.999C179.067 118.399 180.1 115.899 180.1 112.499C180.1 110.699 179.667 109.233 178.8 108.099C178.067 106.966 177.033 106.033 175.7 105.299C174.433 104.566 173.067 103.933 171.6 103.399C170 102.799 168.667 102.333 167.6 101.999C166.533 101.599 165.767 101.233 165.3 100.899C164.767 100.499 164.5 99.9993 164.5 99.3993C164.5 98.9993 164.667 98.6327 165 98.2993C165.4 98.0326 166 97.8993 166.8 97.8993C168.133 97.8993 169.633 98.2659 171.3 98.9993C173.033 99.7326 174.6 100.733 176 101.999L179.3 94.4993C177.967 93.6993 176.6 93.0326 175.2 92.4993C173.8 91.8993 172.333 91.3993 170.8 90.9993C169.267 90.5993 167.6 90.3993 165.8 90.3993C163.533 90.3993 161.533 90.7659 159.8 91.4993C158.067 92.1659 156.7 93.1326 155.7 94.3993C154.7 95.666 154.2 97.2326 154.2 99.0992C154.2 101.033 154.6 102.633 155.4 103.899C156.2 105.099 157.267 106.066 158.6 106.799C159.867 107.533 161.233 108.133 162.7 108.599C164.433 109.133 165.733 109.599 166.6 109.999C167.467 110.399 168.067 110.799 168.4 111.199C168.733 111.533 168.9 111.966 168.9 112.499C168.9 113.099 168.7 113.566 168.3 113.899C167.9 114.233 167.3 114.399 166.5 114.399C165.967 114.399 165.233 114.299 164.3 114.099C163.3 113.899 162.133 113.433 160.8 112.699C159.467 112.033 157.9 110.999 156.1 109.599ZM196.3 120.999V70.2993H185.1V120.999H196.3ZM204.5 102.799V120.999H215.7V101.099C215.7 98.6992 215.367 96.6659 214.7 94.9993C214.1 93.3326 213.067 92.0659 211.6 91.1992C210.067 90.3326 208 89.8993 205.4 89.8993C202.8 89.8993 200.7 90.4659 199.1 91.5992C197.567 92.7992 196.433 94.366 195.7 96.2993C194.967 98.2327 194.6 100.399 194.6 102.799H196.3C196.3 101.733 196.467 100.833 196.8 100.099C197.2 99.3659 197.733 98.8326 198.4 98.4993C199.067 98.0993 199.833 97.8993 200.7 97.8993C202.167 97.8993 203.167 98.3326 203.7 99.1992C204.233 100.066 204.5 101.266 204.5 102.799ZM222 80.1992C222 81.9325 222.6 83.3326 223.8 84.3993C225.067 85.466 226.567 85.9993 228.3 85.9993C230.1 85.9993 231.6 85.466 232.8 84.3993C234.067 83.3326 234.7 81.9325 234.7 80.1992C234.7 78.4659 234.067 77.0659 232.8 75.9993C231.6 74.9326 230.1 74.3993 228.3 74.3993C226.567 74.3993 225.067 74.9326 223.8 75.9993C222.6 77.0659 222 78.4659 222 80.1992ZM233.7 91.0992H222.9V120.999H233.7V91.0992ZM260.5 102.799V120.999H272.3V101.599C272.3 98.0659 271.467 95.3326 269.8 93.3993C268.133 91.3993 265.367 90.3993 261.5 90.3993C259.167 90.3993 257.267 90.866 255.8 91.7993C254.267 92.7327 253.1 93.9659 252.3 95.4993V91.0992H241.1V120.999H252.3V102.799C252.3 101.733 252.467 100.833 252.8 100.099C253.2 99.3659 253.733 98.7993 254.4 98.3993C255.067 98.066 255.833 97.8993 256.7 97.8993C258.167 97.8993 259.167 98.3326 259.7 99.1992C260.233 100.066 260.5 101.266 260.5 102.799ZM289.3 123.199H278.5C278.833 125.866 279.6 128.233 280.8 130.299C282 132.299 283.8 133.866 286.2 134.999C288.667 136.133 291.9 136.699 295.9 136.699C299.1 136.699 301.933 136.166 304.4 135.099C307 134.033 309.033 132.299 310.5 129.899C312.033 127.499 312.8 124.299 312.8 120.299V91.0992H302.1V120.299C302.1 121.966 301.8 123.366 301.2 124.499C300.6 125.633 299.8 126.499 298.8 127.099C297.8 127.699 296.633 127.999 295.3 127.999C294.233 127.999 293.267 127.833 292.4 127.499C291.533 127.166 290.833 126.666 290.3 125.999C289.833 125.333 289.5 124.399 289.3 123.199ZM277.9 105.499C277.9 108.899 278.567 111.733 279.9 113.999C281.233 116.199 282.967 117.866 285.1 118.999C287.3 120.066 289.567 120.599 291.9 120.599C294.433 120.599 296.667 120.033 298.6 118.899C300.533 117.699 302.067 115.966 303.2 113.699C304.4 111.433 305 108.699 305 105.499C305 102.299 304.4 99.566 303.2 97.2993C302.067 95.0993 300.533 93.3992 298.6 92.1992C296.667 90.9992 294.433 90.3993 291.9 90.3993C289.567 90.3993 287.3 90.9659 285.1 92.0992C282.967 93.2326 281.233 94.8992 279.9 97.0992C278.567 99.2992 277.9 102.099 277.9 105.499ZM289.7 105.499C289.7 104.166 289.967 103.033 290.5 102.099C291.1 101.166 291.867 100.466 292.8 99.9993C293.733 99.5326 294.767 99.2993 295.9 99.2993C296.633 99.2993 297.367 99.4325 298.1 99.6992C298.833 99.8992 299.5 100.266 300.1 100.799C300.767 101.333 301.267 101.966 301.6 102.699C301.933 103.499 302.1 104.433 302.1 105.499C302.1 106.966 301.8 108.133 301.2 108.999C300.6 109.933 299.8 110.633 298.8 111.099C297.867 111.566 296.9 111.799 295.9 111.799C294.767 111.799 293.733 111.566 292.8 111.099C291.867 110.566 291.1 109.833 290.5 108.899C289.967 107.966 289.7 106.833 289.7 105.499ZM319.1 80.1992C319.1 81.9325 319.7 83.3326 320.9 84.3993C322.167 85.466 323.667 85.9993 325.4 85.9993C327.133 85.9993 328.633 85.466 329.9 84.3993C331.1 83.3326 331.7 81.9325 331.7 80.1992C331.7 78.4659 331.1 77.0659 329.9 75.9993C328.633 74.9326 327.133 74.3993 325.4 74.3993C323.667 74.3993 322.167 74.9326 320.9 75.9993C319.7 77.0659 319.1 78.4659 319.1 80.1992ZM330.8 91.0992H320V120.999H330.8V91.0992ZM338.5 101.199H350.4L335.5 120.999H366.4V110.899H354.9L368.7 91.0992H338.5V101.199ZM403.4 70.2993H392.7V120.999H403.4V70.2993ZM427.5 91.0992H414.2L401.5 103.399L415.8 120.999H428.8L414.8 103.399L427.5 91.0992ZM448.2 121.699C452.2 121.699 455.567 120.933 458.3 119.399C461.1 117.866 463.3 115.566 464.9 112.499L454.7 110.499C454.1 111.633 453.2 112.499 452 113.099C450.867 113.633 449.5 113.899 447.9 113.899C446.5 113.899 445.367 113.599 444.5 112.999C443.567 112.333 442.867 111.433 442.4 110.299C441.933 109.099 441.7 107.666 441.7 105.999C441.7 104.066 441.933 102.499 442.4 101.299C442.8 100.033 443.433 99.0993 444.3 98.4993C445.167 97.8993 446.267 97.5992 447.6 97.5992C448.667 97.5992 449.567 97.8326 450.3 98.2993C451.033 98.766 451.6 99.4326 452 100.299C452.467 101.099 452.7 102.099 452.7 103.299C452.7 103.633 452.6 103.999 452.4 104.399C452.2 104.866 452 105.266 451.8 105.599L454.2 102.599H436.6V108.399H464.5C464.567 107.999 464.6 107.566 464.6 107.099C464.6 106.566 464.6 106.033 464.6 105.499C464.6 102.299 463.967 99.566 462.7 97.2993C461.367 95.0993 459.467 93.3992 457 92.1992C454.533 91.0659 451.5 90.4993 447.9 90.4993C444.233 90.4993 441.1 91.0993 438.5 92.2993C435.9 93.566 433.9 95.3659 432.5 97.6992C431.1 100.033 430.4 102.833 430.4 106.099C430.4 109.299 431.133 112.066 432.6 114.399C434 116.666 436.033 118.466 438.7 119.799C441.367 121.066 444.533 121.699 448.2 121.699ZM481.4 120.999V91.0992H470.4V120.999H481.4ZM489.9 102.599L494.6 92.8993C494.133 92.166 493.4 91.5659 492.4 91.0992C491.4 90.5659 490.367 90.2993 489.3 90.2993C487.567 90.2993 485.9 90.8659 484.3 91.9993C482.7 93.0659 481.433 94.5326 480.5 96.3993C479.567 98.266 479.1 100.399 479.1 102.799L481.4 107.299C481.4 105.833 481.6 104.633 482 103.699C482.4 102.766 482.967 102.066 483.7 101.599C484.5 101.133 485.333 100.899 486.2 100.899C487.067 100.899 487.767 101.066 488.3 101.399C488.9 101.666 489.433 102.066 489.9 102.599ZM507.7 111.599C507.7 110.999 507.833 110.499 508.1 110.099C508.3 109.633 508.733 109.299 509.4 109.099C510 108.899 510.8 108.799 511.8 108.799C513.2 108.799 514.567 108.999 515.9 109.399C517.167 109.799 518.233 110.366 519.1 111.099V106.299C518.567 105.699 517.733 105.166 516.6 104.699C515.467 104.166 514.167 103.766 512.7 103.499C511.3 103.166 509.767 102.999 508.1 102.999C504.3 102.999 501.367 103.833 499.3 105.499C497.367 107.099 496.4 109.333 496.4 112.199C496.4 114.266 496.9 115.999 497.9 117.399C498.833 118.799 500.133 119.866 501.8 120.599C503.4 121.333 505.167 121.699 507.1 121.699C509.1 121.699 510.9 121.333 512.5 120.599C514.233 119.933 515.567 118.933 516.5 117.599C517.5 116.199 518 114.566 518 112.699L517 108.799C517 110.133 516.7 111.266 516.1 112.199C515.567 113.066 514.867 113.699 514 114.099C513.133 114.499 512.233 114.699 511.3 114.699C510.633 114.699 510.033 114.599 509.5 114.399C508.9 114.133 508.433 113.766 508.1 113.299C507.833 112.833 507.7 112.266 507.7 111.599ZM498.6 93.5992L502.2 100.899C502.6 100.699 503.3 100.399 504.3 99.9993C505.3 99.5993 506.433 99.2659 507.7 98.9993C509.033 98.6659 510.333 98.4993 511.6 98.4993C512.533 98.4993 513.333 98.5993 514 98.7993C514.733 98.9993 515.3 99.2992 515.7 99.6992C516.167 100.033 516.467 100.466 516.6 100.999C516.867 101.533 517 102.099 517 102.699V120.999H527.7V100.099C527.7 97.9659 527.033 96.1659 525.7 94.6992C524.5 93.2326 522.767 92.1326 520.5 91.3993C518.367 90.5993 515.933 90.1992 513.2 90.1992C510.4 90.1992 507.733 90.566 505.2 91.2993C502.733 91.966 500.533 92.7326 498.6 93.5992ZM545.3 70.2993H534.6V120.999H545.3V70.2993ZM569.4 91.0992H556.1L543.4 103.499L557.7 120.999H570.7L556.7 103.499L569.4 91.0992ZM598.7 88.4993C598.7 89.4326 598.3 90.4659 597.5 91.5992C596.767 92.6659 595.567 93.5993 593.9 94.3993C592.233 95.266 590.1 95.6992 587.5 95.6992H585.3L586.6 107.299H595.7L596 102.499C598.333 102.033 600.567 101.233 602.7 100.099C604.767 98.8992 606.5 97.3326 607.9 95.3993C609.233 93.466 609.9 91.1659 609.9 88.4993C609.9 86.0993 609.4 84.0326 608.4 82.2993C607.467 80.4993 606.167 78.9993 604.5 77.7993C602.9 76.5326 601.067 75.5993 599 74.9993C596.933 74.3326 594.8 73.9993 592.6 73.9993C590.067 73.9993 587.733 74.3659 585.6 75.0992C583.4 75.6992 581.367 76.6659 579.5 77.9993C577.633 79.2659 575.833 80.8326 574.1 82.6992L581.5 88.9993C582.767 87.1326 584.367 85.7327 586.3 84.7993C588.167 83.7993 590.067 83.2993 592 83.2993C593.4 83.2993 594.6 83.5326 595.6 83.9993C596.6 84.3993 597.367 84.9659 597.9 85.6992C598.433 86.4325 598.7 87.3659 598.7 88.4993ZM584.3 116.799C584.3 118.333 584.933 119.733 586.2 120.999C587.533 122.133 589.2 122.699 591.2 122.699C593.267 122.699 594.933 122.133 596.2 120.999C597.4 119.733 598 118.333 598 116.799C598 115.199 597.4 113.799 596.2 112.599C594.933 111.399 593.267 110.799 591.2 110.799C589.2 110.799 587.533 111.399 586.2 112.599C584.933 113.799 584.3 115.199 584.3 116.799Z" fill="#202020"/>
</svg>
