<svg width="518" height="16" viewBox="0 0 518 16" fill="none" xmlns="http://www.w3.org/2000/svg">
<path d="M9.09961 1.30005V12H7.19958L2.49963 4.3999V12H0.599609V1.30005H2.49963L7.29968 8.8999V1.30005H9.09961ZM10.6996 8.1001V8C10.6996 7.2 10.8663 6.4999 11.1996 5.8999C11.5329 5.23324 11.9663 4.73324 12.4996 4.3999C13.033 4.06657 13.6663 3.8999 14.3997 3.8999C15.4663 3.8999 16.333 4.26667 16.9996 5C17.6663 5.66667 18.0329 6.56662 18.0996 7.69995V8.1001C18.0996 8.9001 17.9663 9.59995 17.6996 10.2C17.3663 10.8 16.933 11.2668 16.3997 11.6001C15.7997 11.9334 15.133 12.1001 14.3997 12.1001C13.333 12.1001 12.4663 11.7333 11.7997 11C11.0663 10.2667 10.6996 9.3001 10.6996 8.1001ZM12.4996 8.1001C12.4996 8.9001 12.6663 9.53333 12.9996 10C13.333 10.4667 13.7997 10.7 14.3997 10.7C14.9997 10.7 15.4663 10.4667 15.7997 10C16.133 9.53333 16.2997 8.86667 16.2997 8C16.2997 7.2 16.133 6.56676 15.7997 6.1001C15.4663 5.63343 14.9997 5.3999 14.3997 5.3999C13.8663 5.3999 13.3996 5.63343 12.9996 6.1001C12.6663 6.5001 12.4996 7.16676 12.4996 8.1001ZM21.4996 0.699951V12H19.6996V0.699951H21.4996ZM26.8997 8C26.8997 6.73333 27.1663 5.73333 27.6996 5C28.2996 4.26667 29.0663 3.8999 29.9996 3.8999C30.8663 3.8999 31.533 4.20005 31.9996 4.80005V0.699951H33.7997V12H32.1996L32.0996 11.2C31.5663 11.8 30.8663 12.1001 29.9996 12.1001C29.0663 12.1001 28.2996 11.7333 27.6996 11C27.1663 10.2667 26.8997 9.26667 26.8997 8ZM28.6996 8.1001C28.6996 8.9001 28.8329 9.53333 29.0996 10C29.4329 10.4667 29.8663 10.7 30.3997 10.7C31.133 10.7 31.6663 10.3666 31.9996 9.69995V6.30005C31.6663 5.70005 31.1663 5.3999 30.4996 5.3999C29.8996 5.3999 29.4329 5.63343 29.0996 6.1001C28.8329 6.56676 28.6996 7.23343 28.6996 8.1001ZM42.1996 12H40.3997C40.333 11.8667 40.2663 11.6334 40.1996 11.3C39.6663 11.8334 38.9663 12.1001 38.0996 12.1001C37.2996 12.1001 36.6663 11.9 36.1996 11.5C35.6663 11.0333 35.3997 10.4667 35.3997 9.80005C35.3997 8.93338 35.733 8.26672 36.3997 7.80005C36.9997 7.40005 37.8996 7.19995 39.0996 7.19995H40.0996V6.6001C40.0996 6.2001 39.9997 5.89995 39.7997 5.69995C39.5997 5.43328 39.2663 5.30005 38.7997 5.30005C38.333 5.30005 37.9997 5.4001 37.7997 5.6001C37.533 5.8001 37.3997 6.06657 37.3997 6.3999H35.5996C35.5996 5.93324 35.733 5.5001 35.9996 5.1001C36.333 4.76676 36.7329 4.50005 37.1996 4.30005C37.6663 4.03338 38.233 3.8999 38.8997 3.8999C39.7663 3.8999 40.4996 4.13343 41.0996 4.6001C41.6329 5.06676 41.8997 5.73343 41.8997 6.6001V10.2C41.8997 10.8666 41.9996 11.4332 42.1996 11.8999V12ZM38.4996 10.7C38.833 10.7 39.133 10.5999 39.3997 10.3999C39.733 10.2666 39.9663 10.0333 40.0996 9.69995V8.30005H39.1996C38.5329 8.30005 38.0329 8.4001 37.6996 8.6001C37.3663 8.8001 37.1996 9.13343 37.1996 9.6001C37.1996 9.93343 37.2996 10.1999 37.4996 10.3999C37.7663 10.5999 38.0996 10.7 38.4996 10.7ZM47.8997 4V5.69995C47.6997 5.63328 47.4663 5.6001 47.1996 5.6001C46.3996 5.6001 45.8663 5.93343 45.5996 6.6001V12H43.7997V4.1001H45.4996V4.8999C45.9663 4.23324 46.5663 3.8999 47.2997 3.8999C47.5663 3.8999 47.7663 3.93333 47.8997 4ZM55.3997 12H53.5996C53.5329 11.8 53.4663 11.5333 53.3997 11.2C52.7997 11.8 52.0997 12.1001 51.2997 12.1001C50.4997 12.1001 49.833 11.8666 49.2997 11.3999C48.833 10.9999 48.5996 10.4667 48.5996 9.80005C48.5996 8.93338 48.8996 8.26672 49.4996 7.80005C50.1663 7.33338 51.0662 7.1001 52.1996 7.1001H53.2997V6.6001C53.2997 6.2001 53.1996 5.86676 52.9996 5.6001C52.733 5.4001 52.3663 5.30005 51.8997 5.30005C51.4997 5.30005 51.1663 5.4001 50.8997 5.6001C50.633 5.8001 50.4996 6.03338 50.4996 6.30005H48.7997C48.7997 5.90005 48.9329 5.5001 49.1996 5.1001C49.4663 4.7001 49.8663 4.39995 50.3997 4.19995C50.8663 3.99995 51.3996 3.8999 51.9996 3.8999C52.933 3.8999 53.6663 4.13343 54.1996 4.6001C54.7996 5.06676 55.0996 5.73343 55.0996 6.6001V10.1001C55.0996 10.8334 55.1997 11.4332 55.3997 11.8999V12ZM51.5996 10.7C51.9329 10.7 52.2663 10.5999 52.5996 10.3999C52.9329 10.2666 53.1663 10.0333 53.2997 9.69995V8.19995H52.3997C51.733 8.19995 51.233 8.33343 50.8997 8.6001C50.5663 8.8001 50.3997 9.1 50.3997 9.5C50.3997 9.9 50.4996 10.1999 50.6996 10.3999C50.9663 10.5999 51.2663 10.7 51.5996 10.7ZM56.9996 4H58.7997V12.7C58.7997 13.5 58.5996 14.1 58.1996 14.5C57.7996 14.9667 57.1997 15.2 56.3997 15.2C56.0663 15.2 55.7663 15.1333 55.4996 15V13.6001C55.6996 13.6668 55.8996 13.7 56.0996 13.7C56.6996 13.7 56.9996 13.3666 56.9996 12.7V4ZM56.8997 2C56.8997 1.73333 56.9663 1.50005 57.0996 1.30005C57.2996 1.10005 57.5663 1 57.8997 1C58.233 1 58.4663 1.10005 58.5996 1.30005C58.7996 1.50005 58.8997 1.73333 58.8997 2C58.8997 2.26667 58.7996 2.46676 58.5996 2.6001C58.4663 2.8001 58.233 2.8999 57.8997 2.8999C57.5663 2.8999 57.2996 2.8001 57.0996 2.6001C56.9663 2.46676 56.8997 2.26667 56.8997 2ZM67.2997 11.8999H65.3997C65.333 11.7666 65.2663 11.5333 65.1996 11.2C64.6663 11.8 63.9996 12.1001 63.1996 12.1001C62.3996 12.1001 61.7329 11.8666 61.1996 11.3999C60.7329 10.9332 60.4996 10.3666 60.4996 9.69995C60.4996 8.89995 60.7997 8.26672 61.3997 7.80005C61.9997 7.33338 62.8996 7.1001 64.0996 7.1001H65.1996V6.6001C65.1996 6.2001 65.0664 5.86676 64.7997 5.6001C64.5997 5.33343 64.2663 5.19995 63.7997 5.19995C63.3997 5.19995 63.0663 5.3 62.7997 5.5C62.533 5.7 62.3997 5.96672 62.3997 6.30005H60.5996C60.5996 5.90005 60.7663 5.5001 61.0996 5.1001C61.3663 4.7001 61.7329 4.39995 62.1996 4.19995C62.7329 3.99995 63.2997 3.8999 63.8997 3.8999C64.833 3.8999 65.5663 4.13343 66.0996 4.6001C66.6329 5.06676 66.933 5.7 66.9996 6.5V10.1001C66.9996 10.8334 67.0997 11.4 67.2997 11.8V11.8999ZM63.4996 10.6001C63.833 10.6001 64.1663 10.5332 64.4996 10.3999C64.833 10.1999 65.0663 9.96662 65.1996 9.69995V8.19995H64.1996C63.5329 8.19995 63.0329 8.3 62.6996 8.5C62.3663 8.76667 62.1996 9.1 62.1996 9.5C62.1996 9.83333 62.3329 10.1 62.5996 10.3C62.7996 10.5 63.0996 10.6001 63.4996 10.6001ZM68.4996 7.8999C68.4996 6.6999 68.7663 5.73333 69.2997 5C69.8997 4.2 70.6663 3.80005 71.5996 3.80005C72.4663 3.80005 73.1663 4.09995 73.6996 4.69995V0.699951H75.3997V11.8999H73.7997L73.6996 11.1001C73.1663 11.7668 72.4663 12.1001 71.5996 12.1001C70.6663 12.1001 69.933 11.6999 69.3997 10.8999C68.7997 10.1666 68.4996 9.16657 68.4996 7.8999ZM70.2997 8.1001C70.2997 8.9001 70.4329 9.4999 70.6996 9.8999C71.0329 10.3666 71.4996 10.6001 72.0996 10.6001C72.8329 10.6001 73.3662 10.2668 73.6996 9.6001V6.30005C73.3662 5.63338 72.8329 5.30005 72.0996 5.30005C71.4996 5.30005 71.0329 5.53333 70.6996 6C70.4329 6.46667 70.2997 7.16676 70.2997 8.1001ZM83.7997 11.8999H81.9996C81.933 11.7666 81.8663 11.5333 81.7997 11.2C81.2663 11.8 80.5663 12.1001 79.6996 12.1001C78.9663 12.1001 78.333 11.8666 77.7997 11.3999C77.2663 10.9332 76.9996 10.3666 76.9996 9.69995C76.9996 8.83328 77.333 8.20005 77.9996 7.80005C78.5996 7.33338 79.4996 7.1001 80.6996 7.1001H81.7997V6.6001C81.7997 6.13343 81.6663 5.8001 81.3997 5.6001C81.1997 5.33343 80.8663 5.19995 80.3997 5.19995C79.9997 5.19995 79.6663 5.3 79.3997 5.5C79.133 5.7 78.9996 5.96672 78.9996 6.30005H77.1996C77.1996 5.83338 77.3329 5.43343 77.5996 5.1001C77.9329 4.7001 78.333 4.39995 78.7997 4.19995C79.333 3.93328 79.8996 3.80005 80.4996 3.80005C81.433 3.80005 82.1663 4.06676 82.6996 4.6001C83.2329 5.0001 83.4996 5.63333 83.4996 6.5V10.1001C83.4996 10.8334 83.5997 11.4 83.7997 11.8V11.8999ZM80.0996 10.6001C80.4329 10.6001 80.7663 10.5332 81.0996 10.3999C81.3663 10.1999 81.5997 9.96662 81.7997 9.69995V8.19995H80.7997C80.133 8.19995 79.633 8.3 79.2997 8.5C78.9663 8.76667 78.7997 9.1 78.7997 9.5C78.7997 9.83333 78.9329 10.1 79.1996 10.3C79.3996 10.5 79.6996 10.6001 80.0996 10.6001ZM85.3997 4H87.0996V4.8999C87.6996 4.16657 88.4663 3.80005 89.3997 3.80005C91.0663 3.80005 91.8997 4.76662 91.8997 6.69995V11.8999H90.1996V6.80005C90.1996 6.26672 90.0664 5.86676 89.7997 5.6001C89.5997 5.4001 89.2663 5.30005 88.7997 5.30005C88.0664 5.30005 87.5329 5.63338 87.1996 6.30005V11.8999H85.3997V4ZM104.4 7.8999V8C104.4 9.26667 104.133 10.2667 103.6 11C103.066 11.7333 102.333 12.1001 101.4 12.1001C100.466 12.1001 99.7329 11.7668 99.1996 11.1001L99.0996 11.8999H97.4996V0.699951H99.2997V4.80005C99.7663 4.13338 100.433 3.80005 101.3 3.80005C102.3 3.80005 103.066 4.16657 103.6 4.8999C104.133 5.63324 104.4 6.63324 104.4 7.8999ZM102.7 8.1001V7.8999C102.7 7.03324 102.533 6.4 102.2 6C101.933 5.53333 101.5 5.30005 100.9 5.30005C100.1 5.30005 99.5664 5.63338 99.2997 6.30005V9.6001C99.5664 10.2668 100.1 10.6001 100.9 10.6001C101.433 10.6001 101.866 10.4 102.2 10C102.466 9.6 102.633 8.96676 102.7 8.1001ZM105.6 8V7.8999C105.6 7.0999 105.766 6.40005 106.1 5.80005C106.366 5.20005 106.8 4.73324 107.4 4.3999C107.933 3.9999 108.566 3.80005 109.3 3.80005C110.366 3.80005 111.233 4.16657 111.9 4.8999C112.566 5.56657 112.933 6.46676 113 7.6001V8C113 8.8 112.833 9.5001 112.5 10.1001C112.233 10.7668 111.8 11.2668 111.2 11.6001C110.666 11.9334 110.033 12.1001 109.3 12.1001C108.166 12.1001 107.266 11.7333 106.6 11C105.933 10.2 105.6 9.2 105.6 8ZM107.4 8C107.4 8.86667 107.566 9.53333 107.9 10C108.233 10.4 108.7 10.6001 109.3 10.6001C109.9 10.6001 110.366 10.3666 110.7 9.8999C111.033 9.43324 111.2 8.76657 111.2 7.8999C111.2 7.0999 111.033 6.46667 110.7 6C110.366 5.53333 109.9 5.30005 109.3 5.30005C108.7 5.30005 108.233 5.53333 107.9 6C107.566 6.46667 107.4 7.13333 107.4 8ZM118.9 9.80005C118.9 9.46672 118.766 9.2 118.5 9C118.233 8.86667 117.8 8.73343 117.2 8.6001C116.6 8.46676 116.1 8.3001 115.7 8.1001C114.833 7.7001 114.4 7.10005 114.4 6.30005C114.4 5.56672 114.666 4.96667 115.2 4.5C115.8 4.03333 116.533 3.80005 117.4 3.80005C118.4 3.80005 119.166 4.06676 119.7 4.6001C120.3 5.06676 120.6 5.66657 120.6 6.3999H118.8C118.8 6.06657 118.666 5.76667 118.4 5.5C118.2 5.3 117.866 5.19995 117.4 5.19995C117.066 5.19995 116.766 5.3 116.5 5.5C116.233 5.63333 116.1 5.86662 116.1 6.19995C116.1 6.46662 116.233 6.66672 116.5 6.80005C116.7 6.93338 117.133 7.10005 117.8 7.30005C118.533 7.43338 119.1 7.60005 119.5 7.80005C119.9 8.00005 120.2 8.26676 120.4 8.6001C120.6 8.86676 120.7 9.23328 120.7 9.69995C120.7 10.3666 120.4 10.9332 119.8 11.3999C119.2 11.8666 118.433 12.1001 117.5 12.1001C116.833 12.1001 116.233 11.9666 115.7 11.7C115.233 11.5 114.833 11.1666 114.5 10.7C114.233 10.3 114.1 9.86657 114.1 9.3999H115.8C115.866 9.86657 116.033 10.1999 116.3 10.3999C116.633 10.5999 117.033 10.7 117.5 10.7C117.966 10.7 118.333 10.6333 118.6 10.5C118.8 10.3 118.9 10.0667 118.9 9.80005ZM124 0.699951V4.8999C124.533 4.16657 125.266 3.80005 126.2 3.80005C127.866 3.80005 128.7 4.76662 128.7 6.69995V11.8999H127V6.80005C127 6.26672 126.866 5.89995 126.6 5.69995C126.4 5.43328 126.066 5.30005 125.6 5.30005C124.866 5.30005 124.333 5.63338 124 6.30005V11.8999H122.2V0.699951H124ZM132.5 0.699951V11.8999H130.7V0.699951H132.5ZM141 11.8999H139.1C139.033 11.7666 138.966 11.5333 138.9 11.2C138.366 11.8 137.7 12.1001 136.9 12.1001C136.1 12.1001 135.433 11.8666 134.9 11.3999C134.433 10.9332 134.2 10.3666 134.2 9.69995C134.2 8.83328 134.5 8.20005 135.1 7.80005C135.7 7.33338 136.6 7.1001 137.8 7.1001H138.9V6.6001C138.9 6.13343 138.766 5.8001 138.5 5.6001C138.3 5.33343 137.966 5.19995 137.5 5.19995C137.1 5.19995 136.766 5.3 136.5 5.5C136.233 5.7 136.1 5.96672 136.1 6.30005H134.3C134.3 5.83338 134.466 5.43343 134.8 5.1001C135.066 4.7001 135.433 4.39995 135.9 4.19995C136.433 3.93328 137 3.80005 137.6 3.80005C138.533 3.80005 139.266 4.06676 139.8 4.6001C140.333 5.0001 140.633 5.63333 140.7 6.5V10.1001C140.7 10.8334 140.8 11.4 141 11.8V11.8999ZM137.2 10.6001C137.533 10.6001 137.866 10.5332 138.2 10.3999C138.533 10.1999 138.766 9.96662 138.9 9.69995V8.19995H137.9C137.233 8.19995 136.733 8.3 136.4 8.5C136.066 8.76667 135.9 9.1 135.9 9.5C135.9 9.83333 136.033 10.1 136.3 10.3C136.5 10.5 136.8 10.6001 137.2 10.6001ZM149.5 7.8999V8C149.5 9.26667 149.233 10.2667 148.7 11C148.1 11.6667 147.333 12 146.4 12C145.466 12 144.733 11.6667 144.2 11L144.1 11.8999H142.5V0.600098H144.3V4.69995C144.833 4.09995 145.533 3.80005 146.4 3.80005C147.333 3.80005 148.1 4.16657 148.7 4.8999C149.233 5.63324 149.5 6.63324 149.5 7.8999ZM147.7 8.1001V7.8999C147.7 7.03324 147.566 6.36657 147.3 5.8999C146.966 5.4999 146.5 5.30005 145.9 5.30005C145.166 5.30005 144.633 5.63338 144.3 6.30005V9.6001C144.633 10.2668 145.166 10.6001 145.9 10.6001C146.5 10.6001 146.933 10.4 147.2 10C147.533 9.53333 147.7 8.9001 147.7 8.1001ZM156.8 1.19995V11.8999H155V1.19995H156.8ZM158.9 4H160.5L160.6 4.8999C161.2 4.16657 161.966 3.80005 162.9 3.80005C164.566 3.80005 165.4 4.76662 165.4 6.69995V11.8999H163.6V6.80005C163.6 6.26672 163.5 5.86676 163.3 5.6001C163.1 5.4001 162.766 5.30005 162.3 5.30005C161.566 5.30005 161.033 5.63338 160.7 6.30005V11.8999H158.9V4ZM166.9 7.8999C166.9 6.6999 167.2 5.73333 167.8 5C168.4 4.2 169.166 3.80005 170.1 3.80005C171.033 3.80005 171.733 4.13338 172.2 4.80005L172.3 4H173.9V11.7C173.9 12.7 173.566 13.5001 172.9 14.1001C172.3 14.7001 171.433 15 170.3 15C169.766 15 169.2 14.9 168.6 14.7C168.066 14.4333 167.666 14.1 167.4 13.7L168.2 12.7C168.733 13.3 169.4 13.6001 170.2 13.6001C170.8 13.6001 171.266 13.4666 171.6 13.2C171.933 12.8666 172.1 12.3666 172.1 11.7V11.2C171.633 11.8 170.966 12.1001 170.1 12.1001C169.166 12.1001 168.4 11.7333 167.8 11C167.2 10.2667 166.9 9.23324 166.9 7.8999ZM168.7 8.1001C168.7 8.83343 168.866 9.43324 169.2 9.8999C169.533 10.3666 169.966 10.6001 170.5 10.6001C171.233 10.6001 171.766 10.3 172.1 9.69995V6.19995C171.766 5.59995 171.266 5.30005 170.6 5.30005C170 5.30005 169.533 5.53333 169.2 6C168.866 6.46667 168.7 7.16676 168.7 8.1001ZM177.6 0.699951V11.8999H175.9V0.699951H177.6ZM181.4 4V11.8999H179.6V4H181.4ZM179.5 1.8999C179.5 1.63324 179.6 1.43338 179.8 1.30005C179.933 1.10005 180.166 1 180.5 1C180.833 1 181.1 1.10005 181.3 1.30005C181.433 1.43338 181.5 1.63324 181.5 1.8999C181.5 2.16657 181.433 2.4001 181.3 2.6001C181.1 2.8001 180.833 2.8999 180.5 2.8999C180.166 2.8999 179.933 2.8001 179.8 2.6001C179.6 2.4001 179.5 2.16657 179.5 1.8999ZM189.3 5.1001L185.2 10.5H189.5V11.8999H183V10.8L187.1 5.3999H183.1V4H189.3V5.1001ZM199.5 11.8999L199.4 11.1001C198.866 11.7001 198.133 12 197.2 12C196.333 12 195.666 11.7667 195.2 11.3C194.8 10.7667 194.6 10.0334 194.6 9.1001V4H196.4V9.1001C196.4 10.1001 196.8 10.6001 197.6 10.6001C198.466 10.6001 199.066 10.3 199.4 9.69995V4H201.1V11.8999H199.5ZM207.5 9.69995C207.5 9.43328 207.366 9.2 207.1 9C206.833 8.86667 206.4 8.73343 205.8 8.6001C205.2 8.46676 204.7 8.3001 204.3 8.1001C203.366 7.63343 202.9 6.99995 202.9 6.19995C202.9 5.53328 203.2 4.96667 203.8 4.5C204.4 4.03333 205.133 3.80005 206 3.80005C206.933 3.80005 207.7 4.03333 208.3 4.5C208.9 4.96667 209.2 5.56672 209.2 6.30005H207.4C207.4 5.96672 207.266 5.7 207 5.5C206.733 5.3 206.4 5.19995 206 5.19995C205.6 5.19995 205.266 5.26657 205 5.3999C204.8 5.5999 204.7 5.86662 204.7 6.19995C204.7 6.46662 204.8 6.66672 205 6.80005C205.266 6.93338 205.733 7.06662 206.4 7.19995C207.133 7.39995 207.666 7.60005 208 7.80005C208.466 8.00005 208.766 8.26676 208.9 8.6001C209.1 8.86676 209.2 9.2001 209.2 9.6001C209.2 10.3334 208.9 10.9332 208.3 11.3999C207.766 11.7999 207 12 206 12C205.333 12 204.766 11.9 204.3 11.7C203.766 11.4333 203.366 11.1 203.1 10.7C202.833 10.3 202.7 9.86657 202.7 9.3999H204.4C204.4 9.7999 204.566 10.1332 204.9 10.3999C205.166 10.5999 205.533 10.7 206 10.7C206.466 10.7 206.833 10.5999 207.1 10.3999C207.366 10.2666 207.5 10.0333 207.5 9.69995ZM211.2 2H213V4H214.4V5.30005H213V9.69995C213 10.0333 213.066 10.2666 213.2 10.3999C213.333 10.5332 213.533 10.6001 213.8 10.6001C214 10.6001 214.233 10.5667 214.5 10.5V11.8999C214.033 11.9666 213.633 12 213.3 12C211.9 12 211.2 11.2667 211.2 9.80005V5.30005H209.9V4H211.2V2ZM215.2 7.8999V7.80005C215.2 7.00005 215.366 6.29995 215.7 5.69995C215.966 5.09995 216.4 4.63338 217 4.30005C217.533 3.90005 218.166 3.69995 218.9 3.69995C219.966 3.69995 220.833 4.06672 221.5 4.80005C222.166 5.46672 222.533 6.36667 222.6 7.5V7.8999C222.6 8.6999 222.433 9.4 222.1 10C221.833 10.6667 221.4 11.1667 220.8 11.5C220.266 11.8333 219.633 12 218.9 12C217.766 12 216.866 11.6332 216.2 10.8999C215.533 10.0999 215.2 9.0999 215.2 7.8999ZM217 7.8999C217 8.76657 217.166 9.43324 217.5 9.8999C217.833 10.2999 218.3 10.5 218.9 10.5C219.5 10.5 219.966 10.2667 220.3 9.80005C220.633 9.33338 220.8 8.66672 220.8 7.80005C220.8 7.00005 220.633 6.36657 220.3 5.8999C219.966 5.43324 219.5 5.19995 218.9 5.19995C218.3 5.19995 217.833 5.43324 217.5 5.8999C217.166 6.36657 217 7.03324 217 7.8999ZM229.9 5L225.9 10.3999H230.1V11.8H223.7V10.7L227.7 5.30005H223.7V3.8999H229.9V5ZM233.4 0.5V11.8H231.6V0.5H233.4ZM241.9 11.8H240.1C240.033 11.6667 239.966 11.4334 239.9 11.1001C239.3 11.6334 238.6 11.8999 237.8 11.8999C237 11.8999 236.366 11.7 235.9 11.3C235.366 10.8334 235.1 10.2668 235.1 9.6001C235.1 8.73343 235.4 8.06676 236 7.6001C236.666 7.13343 237.566 6.8999 238.7 6.8999H239.8V6.3999C239.8 5.9999 239.7 5.66657 239.5 5.3999C239.233 5.1999 238.866 5.1001 238.4 5.1001C238 5.1001 237.666 5.1999 237.4 5.3999C237.2 5.5999 237.1 5.86662 237.1 6.19995H235.3C235.3 5.73328 235.433 5.2999 235.7 4.8999C235.966 4.56657 236.366 4.26667 236.9 4C237.366 3.8 237.9 3.69995 238.5 3.69995C239.433 3.69995 240.2 3.93324 240.8 4.3999C241.333 4.86657 241.6 5.53324 241.6 6.3999V10C241.6 10.6667 241.7 11.2333 241.9 11.7V11.8ZM238.1 10.5C238.5 10.5 238.833 10.4 239.1 10.2C239.433 10.0666 239.666 9.83333 239.8 9.5V8H238.9C238.233 8 237.733 8.13324 237.4 8.3999C237.066 8.5999 236.9 8.93324 236.9 9.3999C236.9 9.73324 237 9.99995 237.2 10.2C237.466 10.4 237.766 10.5 238.1 10.5ZM247.6 3.80005V5.5C247.4 5.43333 247.166 5.3999 246.9 5.3999C246.1 5.3999 245.566 5.70005 245.3 6.30005V11.8H243.5V3.80005H245.2V4.69995C245.666 4.03328 246.266 3.69995 247 3.69995C247.266 3.69995 247.466 3.73338 247.6 3.80005ZM248.3 7.69995C248.3 6.49995 248.566 5.53338 249.1 4.80005C249.7 4.06672 250.466 3.69995 251.4 3.69995C252.266 3.69995 252.933 4.0001 253.4 4.6001V0.5H255.2V11.8H253.6L253.5 10.8999C252.966 11.5666 252.266 11.8999 251.4 11.8999C250.466 11.8999 249.7 11.5334 249.1 10.8C248.566 10.0667 248.3 9.03328 248.3 7.69995ZM250.1 7.8999C250.1 8.6999 250.233 9.33338 250.5 9.80005C250.833 10.2667 251.266 10.5 251.8 10.5C252.533 10.5 253.066 10.1667 253.4 9.5V6.1001C253.133 5.5001 252.633 5.19995 251.9 5.19995C251.3 5.19995 250.833 5.40005 250.5 5.80005C250.233 6.26672 250.1 6.96657 250.1 7.8999ZM263.6 11.8H261.8C261.733 11.6 261.666 11.3333 261.6 11C261.066 11.6 260.366 11.8999 259.5 11.8999C258.7 11.8999 258.066 11.6666 257.6 11.2C257.066 10.8 256.8 10.2333 256.8 9.5C256.8 8.7 257.133 8.06676 257.8 7.6001C258.4 7.13343 259.3 6.8999 260.5 6.8999H261.6V6.3999C261.6 5.9999 261.466 5.66657 261.2 5.3999C261 5.1999 260.666 5.1001 260.2 5.1001C259.8 5.1001 259.466 5.1999 259.2 5.3999C258.933 5.5999 258.8 5.83343 258.8 6.1001H257C257 5.7001 257.133 5.2999 257.4 4.8999C257.733 4.4999 258.133 4.2 258.6 4C259.066 3.8 259.633 3.69995 260.3 3.69995C261.233 3.69995 261.966 3.93324 262.5 4.3999C263.033 4.86657 263.3 5.53324 263.3 6.3999V9.8999C263.3 10.6332 263.4 11.2001 263.6 11.6001V11.8ZM259.9 10.6001C260.233 10.6001 260.533 10.5 260.8 10.3C261.133 10.1 261.4 9.86676 261.6 9.6001V8.1001H260.6C259.933 8.1001 259.433 8.23333 259.1 8.5C258.766 8.7 258.6 8.9999 258.6 9.3999C258.6 9.7999 258.7 10.1 258.9 10.3C259.166 10.5 259.5 10.6001 259.9 10.6001ZM265.2 3.8999H266.8L266.9 4.80005C267.5 4.13338 268.266 3.80005 269.2 3.80005C270.866 3.80005 271.7 4.73343 271.7 6.6001V11.8H269.9V6.69995C269.9 6.23328 269.8 5.86676 269.6 5.6001C269.4 5.33343 269.066 5.19995 268.6 5.19995C267.866 5.19995 267.3 5.53328 266.9 6.19995V11.8H265.2V3.8999ZM276.9 7.8999V7.80005C276.9 7.06672 277.066 6.36662 277.4 5.69995C277.733 5.09995 278.166 4.63338 278.7 4.30005C279.233 3.96672 279.866 3.80005 280.6 3.80005C281.666 3.80005 282.533 4.13338 283.2 4.80005C283.866 5.53338 284.233 6.46676 284.3 7.6001V8C284.3 8.8 284.166 9.5001 283.9 10.1001C283.566 10.7001 283.133 11.1667 282.6 11.5C282 11.8333 281.333 12 280.6 12C279.533 12 278.633 11.6332 277.9 10.8999C277.233 10.1666 276.9 9.16657 276.9 7.8999ZM278.7 8C278.7 8.8 278.866 9.43324 279.2 9.8999C279.533 10.3666 280 10.6001 280.6 10.6001C281.2 10.6001 281.666 10.3666 282 9.8999C282.333 9.43324 282.5 8.73338 282.5 7.80005C282.5 7.00005 282.333 6.36657 282 5.8999C281.666 5.43324 281.2 5.19995 280.6 5.19995C280 5.19995 279.533 5.43324 279.2 5.8999C278.866 6.36657 278.7 7.06667 278.7 8ZM286.2 0.600098V1.5L286 4.3999H284.9V0.600098H286.2ZM291.8 3.8999V5.6001C291.533 5.53343 291.3 5.5 291.1 5.5C290.233 5.5 289.666 5.7999 289.4 6.3999V11.8999H287.6V3.8999H289.3L289.4 4.80005C289.8 4.13338 290.4 3.80005 291.2 3.80005C291.466 3.80005 291.666 3.83324 291.8 3.8999ZM292.5 7.80005C292.5 6.60005 292.766 5.63324 293.3 4.8999C293.9 4.16657 294.666 3.80005 295.6 3.80005C296.533 3.80005 297.266 4.09995 297.8 4.69995L297.9 3.8999H299.5V11.6001C299.5 12.6668 299.166 13.5001 298.5 14.1001C297.833 14.7001 296.966 15 295.9 15C295.3 15 294.733 14.8668 294.2 14.6001C293.6 14.4001 293.166 14.1 292.9 13.7L293.7 12.6001C294.3 13.2668 295 13.6001 295.8 13.6001C296.4 13.6001 296.866 13.4334 297.2 13.1001C297.533 12.7668 297.7 12.3 297.7 11.7V11.2C297.166 11.7333 296.466 12 295.6 12C294.666 12 293.9 11.6332 293.3 10.8999C292.766 10.1666 292.5 9.13338 292.5 7.80005ZM294.2 8C294.2 8.8 294.366 9.43324 294.7 9.8999C295.033 10.3666 295.5 10.6001 296.1 10.6001C296.833 10.6001 297.366 10.2668 297.7 9.6001V6.19995C297.366 5.59995 296.833 5.30005 296.1 5.30005C295.5 5.30005 295.033 5.4999 294.7 5.8999C294.366 6.36657 294.2 7.06667 294.2 8ZM307.8 11.8999H306C305.933 11.6999 305.866 11.4334 305.8 11.1001C305.266 11.7001 304.566 12 303.7 12C302.9 12 302.266 11.7667 301.8 11.3C301.266 10.9 301 10.3334 301 9.6001C301 8.8001 301.333 8.16662 302 7.69995C302.6 7.23328 303.5 7 304.7 7H305.8V6.5C305.8 6.1 305.666 5.76667 305.4 5.5C305.2 5.3 304.866 5.19995 304.4 5.19995C304 5.19995 303.666 5.3 303.4 5.5C303.133 5.7 303 5.93328 303 6.19995H301.2C301.2 5.79995 301.333 5.4 301.6 5C301.933 4.6 302.333 4.3001 302.8 4.1001C303.333 3.9001 303.9 3.80005 304.5 3.80005C305.433 3.80005 306.166 4.03333 306.7 4.5C307.233 4.96667 307.5 5.63333 307.5 6.5V10C307.5 10.7333 307.6 11.3 307.8 11.7V11.8999ZM304.1 10.7C304.433 10.7 304.766 10.5999 305.1 10.3999C305.366 10.1999 305.6 9.96662 305.8 9.69995V8.19995H304.8C304.133 8.19995 303.633 8.33343 303.3 8.6001C302.966 8.8001 302.8 9.1 302.8 9.5C302.8 9.9 302.9 10.1999 303.1 10.3999C303.366 10.5999 303.7 10.7 304.1 10.7ZM309.4 4H311.1V4.8999C311.7 4.23324 312.466 3.8999 313.4 3.8999C315.066 3.8999 315.9 4.83328 315.9 6.69995V11.8999H314.2V6.80005C314.2 6.33338 314.066 5.96662 313.8 5.69995C313.6 5.43328 313.266 5.30005 312.8 5.30005C312.066 5.30005 311.533 5.63338 311.2 6.30005V11.8999H309.4V4ZM319.6 4V12H317.9V4H319.6ZM317.7 2C317.7 1.73333 317.766 1.50005 317.9 1.30005C318.1 1.10005 318.366 1 318.7 1C319.033 1 319.266 1.10005 319.4 1.30005C319.6 1.50005 319.7 1.73333 319.7 2C319.7 2.26667 319.6 2.49995 319.4 2.69995C319.266 2.83328 319.033 2.8999 318.7 2.8999C318.366 2.8999 318.1 2.83328 317.9 2.69995C317.766 2.49995 317.7 2.26667 317.7 2ZM325.9 9.80005C325.9 9.46672 325.766 9.23343 325.5 9.1001C325.3 8.9001 324.866 8.73343 324.2 8.6001C323.6 8.53343 323.1 8.39995 322.7 8.19995C321.833 7.73328 321.4 7.10005 321.4 6.30005C321.4 5.63338 321.7 5.06676 322.3 4.6001C322.833 4.13343 323.566 3.8999 324.5 3.8999C325.433 3.8999 326.166 4.13343 326.7 4.6001C327.3 5.06676 327.6 5.66657 327.6 6.3999H325.8C325.8 6.06657 325.7 5.8001 325.5 5.6001C325.233 5.33343 324.9 5.19995 324.5 5.19995C324.1 5.19995 323.766 5.3 323.5 5.5C323.233 5.7 323.1 5.93328 323.1 6.19995C323.1 6.46662 323.233 6.6999 323.5 6.8999C323.7 7.03324 324.166 7.16672 324.9 7.30005C325.566 7.50005 326.1 7.6999 326.5 7.8999C326.9 8.0999 327.2 8.33343 327.4 8.6001C327.6 8.93343 327.7 9.29995 327.7 9.69995C327.7 10.4333 327.4 11.0333 326.8 11.5C326.2 11.9 325.433 12.1001 324.5 12.1001C323.833 12.1001 323.233 12 322.7 11.8C322.233 11.5334 321.866 11.2 321.6 10.8C321.266 10.4 321.1 9.96667 321.1 9.5H322.9C322.9 9.9 323.033 10.1999 323.3 10.3999C323.633 10.6666 324.033 10.8 324.5 10.8C324.966 10.8 325.333 10.7 325.6 10.5C325.8 10.3 325.9 10.0667 325.9 9.80005ZM331 0.699951V4.8999C331.6 4.23324 332.333 3.8999 333.2 3.8999C334.866 3.8999 335.733 4.86672 335.8 6.80005V12H334V6.8999C334 6.2999 333.866 5.89995 333.6 5.69995C333.4 5.49995 333.066 5.3999 332.6 5.3999C331.866 5.3999 331.333 5.70005 331 6.30005V12H329.2V0.699951H331ZM348.3 8V8.1001C348.3 9.3001 348 10.2667 347.4 11C346.866 11.7333 346.133 12.1001 345.2 12.1001C344.266 12.1001 343.533 11.7668 343 11.1001L342.9 12H341.3V0.699951H343.1V4.80005C343.633 4.20005 344.333 3.8999 345.2 3.8999C346.133 3.8999 346.866 4.26667 347.4 5C348 5.66667 348.3 6.66667 348.3 8ZM346.5 8.19995V7.8999C346.5 7.03324 346.333 6.4 346 6C345.733 5.6 345.3 5.3999 344.7 5.3999C343.966 5.3999 343.433 5.73324 343.1 6.3999V9.6001C343.433 10.3334 343.966 10.7 344.7 10.7C345.3 10.7 345.733 10.4667 346 10C346.333 9.6 346.5 8.99995 346.5 8.19995ZM354.6 12V11.2C354.066 11.8 353.3 12.1001 352.3 12.1001C351.433 12.1001 350.8 11.8666 350.4 11.3999C349.933 10.8666 349.7 10.1333 349.7 9.19995V4H351.5V9.19995C351.5 10.2 351.933 10.7 352.8 10.7C353.666 10.7 354.233 10.3666 354.5 9.69995V4H356.3V12H354.6ZM368.9 10.5V12H361.7V10.7L365.2 6.8999C365.733 6.2999 366.1 5.7999 366.3 5.3999C366.566 5.06657 366.7 4.70005 366.7 4.30005C366.7 3.76672 366.533 3.36676 366.2 3.1001C365.933 2.76676 365.566 2.6001 365.1 2.6001C364.5 2.6001 364.033 2.76676 363.7 3.1001C363.433 3.43343 363.3 3.93343 363.3 4.6001H361.5C361.5 3.93343 361.633 3.33338 361.9 2.80005C362.233 2.26672 362.666 1.86676 363.2 1.6001C363.733 1.33343 364.366 1.19995 365.1 1.19995C366.166 1.19995 366.966 1.43324 367.5 1.8999C368.166 2.43324 368.5 3.16676 368.5 4.1001C368.5 4.63343 368.333 5.20005 368 5.80005C367.666 6.33338 367.166 7.00005 366.5 7.80005L363.9 10.5H368.9ZM381.1 8V8.1001C381.1 9.3001 380.8 10.2667 380.2 11C379.666 11.7333 378.933 12.1001 378 12.1001C377.066 12.1001 376.333 11.7668 375.8 11.1001L375.7 12H374.1V0.699951H375.9V4.80005C376.433 4.20005 377.133 3.8999 378 3.8999C378.933 3.8999 379.666 4.26667 380.2 5C380.8 5.66667 381.1 6.66667 381.1 8ZM379.3 8.19995V7.8999C379.3 7.03324 379.133 6.4 378.8 6C378.533 5.6 378.1 5.3999 377.5 5.3999C376.766 5.3999 376.233 5.73324 375.9 6.3999V9.6001C376.233 10.3334 376.766 10.7 377.5 10.7C378.1 10.7 378.533 10.4667 378.8 10C379.133 9.6 379.3 8.99995 379.3 8.19995ZM389.1 12H387.3C387.233 11.8 387.166 11.5333 387.1 11.2C386.5 11.8 385.8 12.1001 385 12.1001C384.2 12.1001 383.566 11.8666 383.1 11.3999C382.566 10.9999 382.3 10.4333 382.3 9.69995C382.3 8.89995 382.633 8.26672 383.3 7.80005C383.9 7.33338 384.766 7.1001 385.9 7.1001H387V6.6001C387 6.2001 386.9 5.86676 386.7 5.6001C386.433 5.4001 386.066 5.30005 385.6 5.30005C385.2 5.30005 384.866 5.4001 384.6 5.6001C384.4 5.8001 384.3 6.03338 384.3 6.30005H382.5C382.5 5.90005 382.633 5.5001 382.9 5.1001C383.166 4.7001 383.566 4.39995 384.1 4.19995C384.566 3.99995 385.1 3.8999 385.7 3.8999C386.633 3.8999 387.4 4.13343 388 4.6001C388.533 5.06676 388.8 5.73343 388.8 6.6001V10.1001C388.8 10.8334 388.9 11.4 389.1 11.8V12ZM385.3 10.8C385.7 10.8 386.033 10.7 386.3 10.5C386.633 10.3 386.866 10.0667 387 9.80005V8.30005H386.1C385.433 8.30005 384.933 8.43328 384.6 8.69995C384.266 8.89995 384.1 9.2001 384.1 9.6001C384.1 10.0001 384.2 10.3 384.4 10.5C384.666 10.7 384.966 10.8 385.3 10.8ZM394.8 4.1001V5.69995C394.6 5.69995 394.366 5.69995 394.1 5.69995C393.3 5.69995 392.766 6.0001 392.5 6.6001V12H390.7V4.1001H392.4V5C392.866 4.33333 393.466 4 394.2 4C394.466 4 394.666 4.03343 394.8 4.1001ZM395.4 8.1001V8C395.4 7.2 395.533 6.4999 395.8 5.8999C396.133 5.2999 396.566 4.83333 397.1 4.5C397.633 4.16667 398.266 4 399 4C400.066 4 400.933 4.33333 401.6 5C402.266 5.66667 402.633 6.56662 402.7 7.69995V8.19995C402.7 8.93328 402.566 9.63338 402.3 10.3C401.966 10.9 401.533 11.3666 401 11.7C400.4 12.0333 399.733 12.2 399 12.2C397.933 12.2 397.066 11.8334 396.4 11.1001C395.733 10.3668 395.4 9.36676 395.4 8.1001ZM397.1 8.19995C397.1 8.99995 397.266 9.63343 397.6 10.1001C397.933 10.5668 398.4 10.8 399 10.8C399.6 10.8 400.066 10.5668 400.4 10.1001C400.8 9.63343 401 8.93333 401 8C401 7.2 400.8 6.56676 400.4 6.1001C400.066 5.63343 399.6 5.3999 399 5.3999C398.466 5.3999 398 5.63343 397.6 6.1001C397.266 6.56676 397.1 7.26662 397.1 8.19995ZM411.2 8.1001V8.19995C411.2 9.39995 410.933 10.3668 410.4 11.1001C409.8 11.8334 409.033 12.2 408.1 12.2C407.166 12.2 406.433 11.8666 405.9 11.2L405.8 12H404.2V0.800049H406V4.8999C406.533 4.2999 407.233 4 408.1 4C409.033 4 409.8 4.33333 410.4 5C410.933 5.73333 411.2 6.76676 411.2 8.1001ZM409.4 8.19995V8C409.4 7.13333 409.266 6.5001 409 6.1001C408.666 5.63343 408.2 5.3999 407.6 5.3999C406.866 5.3999 406.333 5.73324 406 6.3999V9.69995C406.333 10.3666 406.866 10.7 407.6 10.7C408.2 10.7 408.633 10.5001 408.9 10.1001C409.233 9.7001 409.4 9.06662 409.4 8.19995ZM419.2 12H417.4C417.333 11.8667 417.266 11.6334 417.2 11.3C416.666 11.9 415.966 12.2 415.1 12.2C414.3 12.2 413.666 11.9667 413.2 11.5C412.666 11.0333 412.4 10.4667 412.4 9.80005C412.4 9.00005 412.733 8.36657 413.4 7.8999C414 7.43324 414.9 7.19995 416.1 7.19995H417.1V6.69995C417.1 6.29995 417 5.96662 416.8 5.69995C416.6 5.43328 416.266 5.30005 415.8 5.30005C415.333 5.30005 415 5.4001 414.8 5.6001C414.533 5.8001 414.4 6.06657 414.4 6.3999H412.6C412.6 5.9999 412.733 5.59995 413 5.19995C413.333 4.79995 413.733 4.50005 414.2 4.30005C414.666 4.10005 415.233 4 415.9 4C416.766 4 417.5 4.23328 418.1 4.69995C418.633 5.16662 418.9 5.8001 418.9 6.6001V10.2C418.9 10.9333 419 11.4999 419.2 11.8999V12ZM415.5 10.7C415.833 10.7 416.133 10.6333 416.4 10.5C416.733 10.3 416.966 10.0667 417.1 9.80005V8.30005H416.2C415.533 8.30005 415.033 8.4001 414.7 8.6001C414.366 8.86676 414.2 9.2001 414.2 9.6001C414.2 9.93343 414.3 10.1999 414.5 10.3999C414.766 10.5999 415.1 10.7 415.5 10.7ZM424.9 4V5.69995C424.7 5.69995 424.466 5.69995 424.2 5.69995C423.4 5.69995 422.866 6.0001 422.6 6.6001V12H420.8V4.1001H422.5V5C422.966 4.26667 423.566 3.8999 424.3 3.8999C424.566 3.8999 424.766 3.93333 424.9 4ZM430.2 2.19995H432V4.1001H433.4V5.3999H432V9.80005C432 10.1334 432.066 10.3667 432.2 10.5C432.333 10.6333 432.533 10.7 432.8 10.7C433.066 10.7 433.3 10.6668 433.5 10.6001V12C433.1 12.1333 432.7 12.2 432.3 12.2C430.9 12.2 430.2 11.4332 430.2 9.8999V5.3999H428.9V4.1001H430.2V2.19995ZM438.3 12.2C437.166 12.2 436.233 11.8334 435.5 11.1001C434.833 10.4334 434.5 9.50005 434.5 8.30005V8.1001C434.5 7.3001 434.633 6.6 434.9 6C435.233 5.33333 435.666 4.83333 436.2 4.5C436.8 4.16667 437.433 4 438.1 4C439.166 4 440 4.33333 440.6 5C441.2 5.66667 441.5 6.63324 441.5 7.8999V8.6001H436.3C436.366 9.26676 436.566 9.79995 436.9 10.2C437.3 10.6 437.8 10.8 438.4 10.8C439.2 10.8 439.866 10.4667 440.4 9.80005L441.3 10.7C441.033 11.1666 440.633 11.5334 440.1 11.8C439.566 12.0667 438.966 12.2 438.3 12.2ZM438.1 5.3999C437.566 5.3999 437.166 5.56657 436.9 5.8999C436.566 6.23324 436.366 6.70005 436.3 7.30005H439.7V7.19995C439.633 6.59995 439.466 6.16657 439.2 5.8999C438.933 5.56657 438.566 5.3999 438.1 5.3999ZM448.8 5.19995L444.7 10.6001H449V12H442.5V10.8999L446.5 5.6001H442.6V4.1001H448.8V5.19995ZM453.8 8C453.8 6.8 454.066 5.83343 454.6 5.1001C455.2 4.3001 455.966 3.8999 456.9 3.8999C457.766 3.8999 458.433 4.20005 458.9 4.80005V0.800049H460.7V12H459.1L459 11.2C458.466 11.8666 457.766 12.2 456.9 12.2C455.966 12.2 455.2 11.8 454.6 11C454.066 10.2667 453.8 9.26667 453.8 8ZM455.6 8.1001C455.6 8.96676 455.733 9.6 456 10C456.333 10.4667 456.766 10.7 457.3 10.7C458.033 10.7 458.566 10.3666 458.9 9.69995V6.3999C458.633 5.73324 458.133 5.3999 457.4 5.3999C456.8 5.3999 456.333 5.63343 456 6.1001C455.733 6.56676 455.6 7.23343 455.6 8.1001ZM466.1 12.2C464.966 12.2 464.033 11.8334 463.3 11.1001C462.633 10.3668 462.3 9.43338 462.3 8.30005V8C462.3 7.26667 462.433 6.56657 462.7 5.8999C463.033 5.2999 463.466 4.83333 464 4.5C464.533 4.1 465.166 3.8999 465.9 3.8999C466.966 3.8999 467.8 4.26667 468.4 5C469 5.66667 469.3 6.63324 469.3 7.8999V8.6001H464.1C464.166 9.26676 464.366 9.79995 464.7 10.2C465.1 10.5333 465.6 10.7 466.2 10.7C467 10.7 467.666 10.4 468.2 9.80005L469.1 10.7C468.833 11.1666 468.433 11.5334 467.9 11.8C467.366 12.0667 466.766 12.2 466.1 12.2ZM465.9 5.3999C465.366 5.3999 464.966 5.56657 464.7 5.8999C464.366 6.23324 464.166 6.70005 464.1 7.30005H467.5V7.19995C467.433 6.59995 467.266 6.13338 467 5.80005C466.733 5.53338 466.366 5.3999 465.9 5.3999ZM470.6 4.1001H472.3L472.4 4.8999C472.933 4.23324 473.666 3.8999 474.6 3.8999C475.666 3.8999 476.4 4.33328 476.8 5.19995C477.4 4.33328 478.2 3.8999 479.2 3.8999C480.133 3.8999 480.8 4.16662 481.2 4.69995C481.6 5.16662 481.833 5.86672 481.9 6.80005V12H480.1V6.8999C480.1 6.36657 479.966 6.00005 479.7 5.80005C479.5 5.53338 479.166 5.3999 478.7 5.3999C478.233 5.3999 477.9 5.49995 477.7 5.69995C477.433 5.96662 477.233 6.26676 477.1 6.6001V12H475.4V6.80005C475.333 5.86672 474.833 5.3999 473.9 5.3999C473.233 5.3999 472.733 5.70005 472.4 6.30005V12H470.6V4.1001ZM490.2 12H488.4C488.333 11.8667 488.266 11.6334 488.2 11.3C487.666 11.9 486.966 12.2 486.1 12.2C485.3 12.2 484.666 11.9667 484.2 11.5C483.666 11.0333 483.4 10.4667 483.4 9.80005C483.4 9.00005 483.733 8.36657 484.4 7.8999C485 7.43324 485.9 7.19995 487.1 7.19995H488.2V6.69995C488.2 6.29995 488.066 5.96662 487.8 5.69995C487.6 5.43328 487.266 5.30005 486.8 5.30005C486.4 5.30005 486.066 5.4001 485.8 5.6001C485.533 5.8001 485.4 6.06657 485.4 6.3999H483.6C483.6 5.93324 483.733 5.53328 484 5.19995C484.333 4.79995 484.733 4.50005 485.2 4.30005C485.733 4.10005 486.3 4 486.9 4C487.833 4 488.566 4.23328 489.1 4.69995C489.633 5.16662 489.9 5.8001 489.9 6.6001V10.2C489.9 10.9333 490 11.4999 490.2 11.8999V12ZM486.5 10.7C486.833 10.7 487.166 10.6333 487.5 10.5C487.766 10.3 488 10.0667 488.2 9.80005V8.30005H487.2C486.533 8.30005 486.033 8.4001 485.7 8.6001C485.366 8.86676 485.2 9.2001 485.2 9.6001C485.2 9.93343 485.3 10.1999 485.5 10.3999C485.766 10.5999 486.1 10.7 486.5 10.7ZM496.7 12L494.4 8.6001L493.6 9.3999V12H491.8V0.800049H493.6V7.30005L494.1 6.6001L496.3 4.1001H498.5L495.5 7.3999L498.8 12H496.7ZM499.1 8C499.1 6.8 499.4 5.83343 500 5.1001C500.533 4.3001 501.266 3.8999 502.2 3.8999C503.066 3.8999 503.766 4.20005 504.3 4.80005V0.800049H506V12H504.4V11.2C503.866 11.8666 503.133 12.2 502.2 12.2C501.266 12.2 500.533 11.8 500 11C499.4 10.2667 499.1 9.26667 499.1 8ZM500.9 8.1001C500.9 8.96676 501.033 9.6 501.3 10C501.633 10.4667 502.1 10.7 502.7 10.7C503.433 10.7 503.966 10.3666 504.3 9.69995V6.3999C503.966 5.73324 503.433 5.3999 502.7 5.3999C502.1 5.3999 501.666 5.63343 501.4 6.1001C501.066 6.56676 500.9 7.23343 500.9 8.1001ZM509.8 4.1001V12H508V4.1001H509.8ZM507.9 2C507.9 1.73333 508 1.53324 508.2 1.3999C508.4 1.1999 508.633 1.1001 508.9 1.1001C509.233 1.1001 509.5 1.1999 509.7 1.3999C509.833 1.53324 509.9 1.73333 509.9 2C509.9 2.26667 509.833 2.49995 509.7 2.69995C509.5 2.89995 509.233 3 508.9 3C508.633 3 508.4 2.89995 508.2 2.69995C508 2.49995 507.9 2.26667 507.9 2ZM515.9 4V5.69995C515.7 5.69995 515.466 5.69995 515.2 5.69995C514.4 5.69995 513.833 6.0001 513.5 6.6001V12H511.8V4.1001H513.5V5C513.9 4.26667 514.5 3.8999 515.3 3.8999C515.566 3.8999 515.766 3.93333 515.9 4ZM516.9 10.1001C517.233 10.1001 517.466 10.1999 517.6 10.3999C517.8 10.5999 517.9 10.8334 517.9 11.1001C517.9 11.3668 517.8 11.6 517.6 11.8C517.466 12 517.233 12.1001 516.9 12.1001C516.566 12.1001 516.3 12 516.1 11.8C515.9 11.6667 515.8 11.4334 515.8 11.1001C515.8 10.8334 515.9 10.5999 516.1 10.3999C516.3 10.1999 516.566 10.1001 516.9 10.1001Z" fill="#202020"/>
</svg>
