<svg width="71" height="20" viewBox="0 0 71 20" fill="none" xmlns="http://www.w3.org/2000/svg">
<path d="M7.90039 0.599609H5.5004L5.6004 4.29956H7.80038L7.90039 0.599609ZM7.80038 15.6995H5.6004L5.40039 19.1995H7.90039L7.80038 15.6995ZM9.20041 7.09961L11.7004 5.69946C11.4337 5.16613 11.1004 4.66613 10.7004 4.19946C10.2337 3.7328 9.7004 3.36628 9.1004 3.09961C8.43374 2.83294 7.6004 2.69946 6.6004 2.69946C5.66707 2.69946 4.83374 2.86613 4.1004 3.19946C3.36707 3.5328 2.76705 3.99961 2.30038 4.59961C1.90038 5.19961 1.70041 5.83285 1.70041 6.49951C1.70041 7.16618 1.83374 7.7328 2.1004 8.19946C2.36707 8.7328 2.7004 9.16618 3.1004 9.49951C3.5004 9.83284 3.90038 10.0996 4.30038 10.2996C4.76705 10.5662 5.16706 10.7329 5.5004 10.7996C6.03373 11.0662 6.50039 11.2661 6.90039 11.3994C7.36706 11.5994 7.73373 11.8329 8.0004 12.0996C8.26706 12.3663 8.40039 12.6662 8.40039 12.9995C8.40039 13.3328 8.33374 13.5996 8.20041 13.7996C8.06708 13.9996 7.86707 14.1662 7.6004 14.2996C7.4004 14.3662 7.10041 14.3994 6.70041 14.3994C6.16708 14.3994 5.70038 14.2996 5.30038 14.0996C4.96705 13.8996 4.63372 13.6329 4.30038 13.2996C3.96705 12.8996 3.63372 12.4327 3.30038 11.8994L0.900391 13.5996C1.16706 14.1996 1.60041 14.7662 2.20041 15.2996C2.73374 15.8329 3.40041 16.2663 4.20041 16.5996C4.93374 16.9329 5.73374 17.0996 6.6004 17.0996C7.66707 17.0996 8.60039 16.9329 9.40039 16.5996C10.2004 16.2663 10.8337 15.7995 11.3004 15.1995C11.7004 14.5995 11.9004 13.8662 11.9004 12.9995C11.9004 12.3995 11.8004 11.8661 11.6004 11.3994C11.4671 10.9327 11.2337 10.5328 10.9004 10.1995C10.5671 9.79946 10.1671 9.49956 9.70041 9.29956C9.30041 9.03289 8.86706 8.79961 8.40039 8.59961C7.80039 8.39961 7.26705 8.23294 6.80038 8.09961C6.33372 7.89961 5.93374 7.66608 5.6004 7.39941C5.33374 7.19941 5.20041 6.89951 5.20041 6.49951C5.20041 6.23284 5.23372 5.99956 5.30038 5.79956C5.43372 5.59956 5.60038 5.46608 5.80038 5.39941C6.06705 5.26608 6.36708 5.19946 6.70041 5.19946C7.10041 5.19946 7.43374 5.26608 7.70041 5.39941C8.03374 5.59941 8.3004 5.83294 8.5004 6.09961C8.76706 6.36628 9.00041 6.69961 9.20041 7.09961ZM24.8004 12.3994C24.8004 11.4661 24.6004 10.6327 24.2004 9.89941C23.8004 9.23275 23.2671 8.73275 22.6004 8.39941C21.9337 7.99941 21.2337 7.79956 20.5004 7.79956C20.0337 7.79956 19.6004 7.86618 19.2004 7.99951C18.8004 8.06618 18.4337 8.16623 18.1004 8.29956L18.9004 5.79956H24.5004V2.89941H16.4004L14.4004 10.9995C14.8671 10.7328 15.3337 10.5327 15.8004 10.3994C16.2671 10.2661 16.7337 10.1995 17.2004 10.1995C17.6004 10.1328 18.0004 10.0996 18.4004 10.0996C18.8671 10.0996 19.3004 10.1662 19.7004 10.2996C20.1004 10.4329 20.4337 10.6327 20.7004 10.8994C20.9671 11.2327 21.1004 11.6329 21.1004 12.0996C21.1004 12.4996 20.9671 12.8661 20.7004 13.1995C20.5004 13.4661 20.2004 13.6994 19.8004 13.8994C19.4004 14.0327 18.9337 14.0996 18.4004 14.0996C18.0671 14.0996 17.6671 14.0327 17.2004 13.8994C16.8004 13.7661 16.4004 13.5994 16.0004 13.3994C15.6004 13.1327 15.2004 12.8663 14.8004 12.5996L13.5004 15.2996C13.9671 15.6329 14.4671 15.9328 15.0004 16.1995C15.5337 16.5328 16.1337 16.7661 16.8004 16.8994C17.4671 17.0994 18.2337 17.1995 19.1004 17.1995C19.7671 17.1995 20.4337 17.0994 21.1004 16.8994C21.7671 16.6994 22.3671 16.3995 22.9004 15.9995C23.5004 15.6662 23.9671 15.1996 24.3004 14.5996C24.6337 13.9996 24.8004 13.2661 24.8004 12.3994ZM29.6004 9.89941C29.6004 9.23275 29.6671 8.63294 29.8004 8.09961C29.9337 7.56628 30.1004 7.09946 30.3004 6.69946C30.5671 6.36613 30.8337 6.09941 31.1004 5.89941C31.4337 5.63275 31.8004 5.49951 32.2004 5.49951C32.6004 5.49951 32.9337 5.63275 33.2004 5.89941C33.5337 6.09941 33.8004 6.36613 34.0004 6.69946C34.2671 7.09946 34.4671 7.56628 34.6004 8.09961C34.6671 8.63294 34.7004 9.23275 34.7004 9.89941C34.7004 10.5661 34.6671 11.1661 34.6004 11.6995C34.4671 12.2328 34.2671 12.6996 34.0004 13.0996C33.8004 13.4329 33.5337 13.7328 33.2004 13.9995C32.9337 14.1995 32.6004 14.2996 32.2004 14.2996C31.8004 14.2996 31.4337 14.1995 31.1004 13.9995C30.8337 13.7328 30.5671 13.4329 30.3004 13.0996C30.1004 12.6996 29.9337 12.2328 29.8004 11.6995C29.6671 11.1661 29.6004 10.5661 29.6004 9.89941ZM26.4004 9.89941C26.4004 11.4327 26.6337 12.7329 27.1004 13.7996C27.5671 14.8662 28.2337 15.6996 29.1004 16.2996C30.0337 16.8996 31.0671 17.1995 32.2004 17.1995C33.4004 17.1995 34.4337 16.8996 35.3004 16.2996C36.167 15.6996 36.8337 14.8662 37.3004 13.7996C37.7671 12.7329 38.0004 11.4327 38.0004 9.89941C38.0004 8.36608 37.7671 7.06618 37.3004 5.99951C36.8337 4.93285 36.167 4.09951 35.3004 3.49951C34.4337 2.89951 33.4004 2.59961 32.2004 2.59961C31.0671 2.59961 30.0337 2.89951 29.1004 3.49951C28.2337 4.09951 27.5671 4.93285 27.1004 5.99951C26.6337 7.06618 26.4004 8.36608 26.4004 9.89941ZM40.1004 15.4995C40.1004 16.0328 40.3004 16.4662 40.7004 16.7996C41.0337 17.1996 41.4671 17.3994 42.0004 17.3994C42.6004 17.3994 43.0671 17.1996 43.4004 16.7996C43.7337 16.4662 43.9004 16.0328 43.9004 15.4995C43.9004 15.0328 43.7337 14.5995 43.4004 14.1995C43.0671 13.8661 42.6004 13.6995 42.0004 13.6995C41.4671 13.6995 41.0337 13.8661 40.7004 14.1995C40.3004 14.5995 40.1004 15.0328 40.1004 15.4995ZM49.3004 9.89941C49.3004 9.23275 49.3671 8.63294 49.5004 8.09961C49.6337 7.56628 49.8004 7.09946 50.0004 6.69946C50.2004 6.36613 50.4671 6.09941 50.8004 5.89941C51.1337 5.63275 51.5004 5.49951 51.9004 5.49951C52.2337 5.49951 52.5671 5.63275 52.9004 5.89941C53.2337 6.09941 53.5004 6.36613 53.7004 6.69946C53.9671 7.09946 54.1337 7.56628 54.2004 8.09961C54.3337 8.63294 54.4004 9.23275 54.4004 9.89941C54.4004 10.5661 54.3337 11.1661 54.2004 11.6995C54.1337 12.2328 53.9671 12.6996 53.7004 13.0996C53.5004 13.4329 53.2337 13.7328 52.9004 13.9995C52.5671 14.1995 52.2337 14.2996 51.9004 14.2996C51.5004 14.2996 51.1337 14.1995 50.8004 13.9995C50.4671 13.7328 50.2004 13.4329 50.0004 13.0996C49.8004 12.6996 49.6337 12.2328 49.5004 11.6995C49.3671 11.1661 49.3004 10.5661 49.3004 9.89941ZM46.0004 9.89941C46.0004 11.4327 46.2671 12.7329 46.8004 13.7996C47.2671 14.8662 47.9337 15.6996 48.8004 16.2996C49.667 16.8996 50.7004 17.1995 51.9004 17.1995C53.0337 17.1995 54.0337 16.8996 54.9004 16.2996C55.8337 15.6996 56.5337 14.8662 57.0004 13.7996C57.4671 12.7329 57.7004 11.4327 57.7004 9.89941C57.7004 8.36608 57.4671 7.06618 57.0004 5.99951C56.5337 4.93285 55.8337 4.09951 54.9004 3.49951C54.0337 2.89951 53.0337 2.59961 51.9004 2.59961C50.7004 2.59961 49.667 2.89951 48.8004 3.49951C47.9337 4.09951 47.2671 4.93285 46.8004 5.99951C46.2671 7.06618 46.0004 8.36608 46.0004 9.89941ZM62.5004 9.89941C62.5004 9.23275 62.5671 8.63294 62.7004 8.09961C62.8337 7.56628 63.0004 7.09946 63.2004 6.69946C63.4671 6.36613 63.7337 6.09941 64.0004 5.89941C64.3337 5.63275 64.7004 5.49951 65.1004 5.49951C65.5004 5.49951 65.8337 5.63275 66.1004 5.89941C66.4337 6.09941 66.7337 6.36613 67.0004 6.69946C67.2004 7.09946 67.3671 7.56628 67.5004 8.09961C67.6337 8.63294 67.7004 9.23275 67.7004 9.89941C67.7004 10.5661 67.6337 11.1661 67.5004 11.6995C67.3671 12.2328 67.2004 12.6996 67.0004 13.0996C66.7337 13.4329 66.4337 13.7328 66.1004 13.9995C65.8337 14.1995 65.5004 14.2996 65.1004 14.2996C64.7004 14.2996 64.3337 14.1995 64.0004 13.9995C63.7337 13.7328 63.4671 13.4329 63.2004 13.0996C63.0004 12.6996 62.8337 12.2328 62.7004 11.6995C62.5671 11.1661 62.5004 10.5661 62.5004 9.89941ZM59.3004 9.89941C59.3004 11.4327 59.5337 12.7329 60.0004 13.7996C60.4671 14.8662 61.1671 15.6996 62.1004 16.2996C62.9671 16.8996 63.9671 17.1995 65.1004 17.1995C66.3004 17.1995 67.3337 16.8996 68.2004 16.2996C69.0671 15.6996 69.7337 14.8662 70.2004 13.7996C70.6671 12.7329 70.9004 11.4327 70.9004 9.89941C70.9004 8.36608 70.6671 7.06618 70.2004 5.99951C69.7337 4.93285 69.0671 4.09951 68.2004 3.49951C67.3337 2.89951 66.3004 2.59961 65.1004 2.59961C63.9671 2.59961 62.9671 2.89951 62.1004 3.49951C61.1671 4.09951 60.4671 4.93285 60.0004 5.99951C59.5337 7.06618 59.3004 8.36608 59.3004 9.89941Z" fill="#FF5219"/>
</svg>
