<svg width="85" height="14" viewBox="0 0 85 14" fill="none" xmlns="http://www.w3.org/2000/svg">
<path d="M7.10034 4.69922V6.49902C7.10034 8.03236 6.83375 9.19902 6.30042 9.99902C5.76708 10.7324 4.93375 11.0986 3.80042 11.0986C2.66708 11.0986 1.80032 10.7324 1.20032 9.99902C0.666984 9.26569 0.400391 8.13197 0.400391 6.59863V4.79883C0.400391 3.26549 0.666984 2.09883 1.20032 1.29883C1.73365 0.565495 2.60041 0.199219 3.80042 0.199219C4.93375 0.199219 5.76708 0.565495 6.30042 1.29883C6.83375 2.03216 7.10034 3.16589 7.10034 4.69922ZM5.80042 6.79883V4.59863C5.80042 3.4653 5.63375 2.63197 5.30042 2.09863C4.96708 1.5653 4.46708 1.29883 3.80042 1.29883C3.06708 1.29883 2.53365 1.5653 2.20032 2.09863C1.93365 2.63197 1.76698 3.43236 1.70032 4.49902V6.69922C1.70032 7.83255 1.86698 8.66588 2.20032 9.19922C2.53365 9.73255 3.06708 9.99902 3.80042 9.99902C4.46708 9.99902 4.96708 9.76549 5.30042 9.29883C5.56708 8.76549 5.73375 7.93216 5.80042 6.79883ZM15.7003 0.298828V1.09863L11.3004 10.999H9.90039L14.3004 1.39941H8.50037V0.298828H15.7003ZM25.8004 7.89941V0.298828H27.2003V7.89941C27.2003 8.89941 26.9004 9.69883 26.3004 10.2988C25.7004 10.8322 24.8671 11.0986 23.8004 11.0986C22.8004 11.0986 22.0004 10.8322 21.4004 10.2988C20.8004 9.76549 20.5004 9.03197 20.5004 8.09863H21.9004C21.9004 8.69863 22.0671 9.16569 22.4004 9.49902C22.7337 9.83236 23.2004 9.99902 23.8004 9.99902C24.4004 9.99902 24.9004 9.79941 25.3004 9.39941C25.6337 9.06608 25.8004 8.56608 25.8004 7.89941ZM35.7003 10.999H34.3004C34.2337 10.8657 34.167 10.5992 34.1003 10.1992C33.5003 10.7992 32.7337 11.0986 31.8004 11.0986C31.0671 11.0986 30.4337 10.899 29.9004 10.499C29.4337 10.0324 29.2003 9.4655 29.2003 8.79883C29.2003 7.99883 29.5003 7.36608 30.1003 6.89941C30.767 6.43275 31.6671 6.19922 32.8004 6.19922H34.1003V5.59863C34.1003 5.13197 33.967 4.73275 33.7003 4.39941C33.367 4.13275 32.9337 3.99902 32.4004 3.99902C31.9337 3.99902 31.5337 4.13275 31.2003 4.39941C30.867 4.66608 30.7003 4.96549 30.7003 5.29883H29.3004C29.3004 4.89883 29.4671 4.49863 29.8004 4.09863C30.0671 3.7653 30.4337 3.49883 30.9004 3.29883C31.3671 3.03216 31.9004 2.89941 32.5004 2.89941C33.4337 2.89941 34.1337 3.13197 34.6003 3.59863C35.1337 4.0653 35.4004 4.69902 35.4004 5.49902V9.09863C35.4004 9.83197 35.5003 10.4327 35.7003 10.8994V10.999ZM32.0004 9.99902C32.467 9.99902 32.9004 9.8653 33.3004 9.59863C33.6337 9.39863 33.9003 9.13216 34.1003 8.79883V7.09863H33.0004C31.3337 7.09863 30.5004 7.59863 30.5004 8.59863C30.5004 8.99863 30.667 9.33197 31.0004 9.59863C31.267 9.8653 31.6004 9.99902 32.0004 9.99902ZM37.6003 3.09863H38.8004L38.9004 4.09863C39.5004 3.29863 40.3004 2.89941 41.3004 2.89941C42.9671 2.89941 43.8004 3.83255 43.8004 5.69922V10.999H42.4004V5.69922C42.4004 5.16589 42.267 4.76569 42.0004 4.49902C41.8004 4.23236 41.4004 4.09863 40.8004 4.09863C40.4004 4.09863 40.0336 4.19941 39.7003 4.39941C39.367 4.66608 39.1004 4.96549 38.9004 5.29883V10.999H37.6003V3.09863ZM45.8004 13.0986L45.0004 12.5986C45.467 11.932 45.7003 11.2653 45.7003 10.5986V9.39941H47.1003V10.499C47.1003 10.9657 46.967 11.4327 46.7003 11.8994C46.4337 12.4327 46.1337 12.832 45.8004 13.0986ZM59.3004 9.89941V10.999H52.4004V9.99902L56.0004 5.89941C56.6004 5.29941 57.0003 4.79941 57.2003 4.39941C57.4003 3.99941 57.5004 3.59922 57.5004 3.19922C57.5004 2.66589 57.3337 2.19883 57.0004 1.79883C56.667 1.46549 56.2003 1.29883 55.6003 1.29883C54.9337 1.29883 54.4337 1.49941 54.1003 1.89941C53.7003 2.29941 53.5004 2.83236 53.5004 3.49902H52.1003C52.1003 2.49902 52.4337 1.69863 53.1003 1.09863C53.7003 0.498633 54.5337 0.199219 55.6003 0.199219C56.6003 0.199219 57.4004 0.46569 58.0004 0.999023C58.6004 1.53236 58.9004 2.23197 58.9004 3.09863C58.9004 4.09863 58.2004 5.33216 56.8004 6.79883L54.0004 9.89941H59.3004ZM67.4004 4.69922V6.49902C67.4004 8.03236 67.1337 9.19902 66.6003 9.99902C66.067 10.799 65.2337 11.1992 64.1003 11.1992C62.9003 11.1992 62.0337 10.799 61.5004 9.99902C60.967 9.26569 60.7003 8.13197 60.7003 6.59863V4.79883C60.7003 3.26549 60.967 2.09883 61.5004 1.29883C62.0337 0.565495 62.867 0.199219 64.0004 0.199219C65.2004 0.199219 66.067 0.565495 66.6003 1.29883C67.1337 2.03216 67.4004 3.16589 67.4004 4.69922ZM66.1003 6.79883V4.59863C66.1003 3.4653 65.9337 2.63197 65.6003 2.09863C65.267 1.5653 64.7337 1.29883 64.0004 1.29883C63.3337 1.29883 62.8337 1.5653 62.5004 2.09863C62.167 2.63197 62.0004 3.43236 62.0004 4.49902V6.69922C62.0004 7.83255 62.167 8.66588 62.5004 9.19922C62.8337 9.73255 63.367 9.99902 64.1003 9.99902C64.767 9.99902 65.2337 9.76549 65.5004 9.29883C65.8337 8.76549 66.0337 7.93216 66.1003 6.79883ZM76.1003 9.89941V10.999H69.1003V9.99902L72.8004 5.89941C73.4004 5.29941 73.8004 4.79941 74.0004 4.39941C74.2004 3.99941 74.3004 3.59922 74.3004 3.19922C74.3004 2.66589 74.1338 2.19883 73.8004 1.79883C73.4671 1.46549 73.0004 1.29883 72.4004 1.29883C71.7337 1.29883 71.2337 1.49941 70.9004 1.89941C70.5004 2.29941 70.3004 2.83236 70.3004 3.49902H68.9004C68.9004 2.49902 69.2337 1.69863 69.9004 1.09863C70.5004 0.498633 71.3337 0.199219 72.4004 0.199219C73.4004 0.199219 74.2004 0.46569 74.8004 0.999023C75.3337 1.53236 75.6003 2.23197 75.6003 3.09863C75.6003 4.09863 74.9337 5.33216 73.6003 6.79883L70.8004 9.89941H76.1003ZM84.5004 9.89941V10.999H77.5004V9.99902L81.2003 5.89941C81.7337 5.29941 82.1004 4.79941 82.3004 4.39941C82.5004 3.99941 82.6003 3.59922 82.6003 3.19922C82.6003 2.66589 82.4337 2.19883 82.1003 1.79883C81.767 1.46549 81.3337 1.29883 80.8004 1.29883C80.1338 1.29883 79.6003 1.49941 79.2003 1.89941C78.867 2.29941 78.7003 2.83236 78.7003 3.49902H77.3004C77.3004 2.49902 77.6338 1.69863 78.3004 1.09863C78.9004 0.498633 79.7337 0.199219 80.8004 0.199219C81.8004 0.199219 82.567 0.46569 83.1003 0.999023C83.7003 1.53236 84.0004 2.23197 84.0004 3.09863C84.0004 4.09863 83.3337 5.33216 82.0004 6.79883L79.1003 9.89941H84.5004Z" fill="#777777"/>
</svg>
