<svg width="50" height="30" viewBox="0 0 50 30" fill="none" xmlns="http://www.w3.org/2000/svg">
<path d="M7.2002 15C7.2002 13.6667 7.33349 12.4666 7.60016 11.3999C7.86683 10.3332 8.20016 9.43353 8.60016 8.7002C9.06682 7.9002 9.60019 7.2999 10.2002 6.8999C10.8669 6.4999 11.6002 6.2998 12.4002 6.2998C13.1335 6.2998 13.8002 6.4999 14.4002 6.8999C15.0669 7.2999 15.6335 7.9002 16.1002 8.7002C16.5668 9.43353 16.9002 10.3332 17.1002 11.3999C17.3668 12.4666 17.5002 13.6667 17.5002 15C17.5002 16.3333 17.3668 17.5334 17.1002 18.6001C16.9002 19.6668 16.5668 20.5999 16.1002 21.3999C15.6335 22.1332 15.0669 22.7001 14.4002 23.1001C13.8002 23.5001 13.1335 23.7002 12.4002 23.7002C11.6002 23.7002 10.8669 23.5001 10.2002 23.1001C9.60019 22.7001 9.06682 22.1332 8.60016 21.3999C8.20016 20.5999 7.86683 19.6668 7.60016 18.6001C7.33349 17.5334 7.2002 16.3333 7.2002 15ZM0.700195 15C0.700195 18.0667 1.2002 20.6665 2.2002 22.7998C3.13353 24.9331 4.50017 26.5998 6.30017 27.7998C8.0335 28.9331 10.0669 29.5 12.4002 29.5C14.7335 29.5 16.7668 28.9331 18.5002 27.7998C20.3002 26.5998 21.6668 24.9331 22.6002 22.7998C23.5335 20.6665 24.0002 18.0667 24.0002 15C24.0002 11.9333 23.5335 9.33353 22.6002 7.2002C21.6668 5.06686 20.3002 3.4002 18.5002 2.2002C16.7668 1.06686 14.7335 0.5 12.4002 0.5C10.0669 0.5 8.0335 1.06686 6.30017 2.2002C4.50017 3.4002 3.13353 5.06686 2.2002 7.2002C1.2002 9.33353 0.700195 11.9333 0.700195 15ZM26.8002 1V7.2998H39.7001L28.8002 29H36.1002L49.6002 1H26.8002Z" fill="#0060FF"/>
</svg>
