<svg width="121" height="15" viewBox="0 0 121 15" fill="none" xmlns="http://www.w3.org/2000/svg">
<path d="M4.59998 1.29932V11.9995H3.30005V2.99951L0.5 3.99951V2.69971L4.40002 1.29932H4.59998ZM11.6 6.89941V7.99951H8V6.89941H11.6ZM14.3 0.699707V4.99951C14.9 4.26618 15.6666 3.89941 16.6 3.89941C18.2666 3.89941 19.1 4.86598 19.1 6.79932V11.9995H17.8V6.79932C17.8 6.19932 17.6667 5.76618 17.4 5.49951C17.1334 5.23284 16.7333 5.09961 16.2 5.09961C15.7333 5.09961 15.3333 5.19941 15 5.39941C14.6667 5.66608 14.4334 5.99941 14.3 6.39941V11.9995H12.9V0.699707H14.3ZM20.8 8.09961V7.99951C20.8 7.19951 20.9667 6.49941 21.3 5.89941C21.6334 5.23275 22.0666 4.73275 22.6 4.39941C23.1333 4.06608 23.7334 3.89941 24.4 3.89941C25.5334 3.89941 26.4333 4.26618 27.1 4.99951C27.7666 5.79951 28.1 6.79951 28.1 7.99951V8.09961C28.1 8.89961 27.9333 9.59971 27.6 10.1997C27.3333 10.7997 26.9 11.2663 26.3 11.5996C25.7667 11.9329 25.1667 12.0996 24.5 12.0996C23.3667 12.0996 22.4667 11.7328 21.8 10.9995C21.1334 10.2662 20.8 9.29961 20.8 8.09961ZM22.2 8.09961C22.2 8.96628 22.4 9.66637 22.8 10.1997C23.2 10.733 23.7667 10.9995 24.5 10.9995C25.1667 10.9995 25.7 10.733 26.1 10.1997C26.5 9.66637 26.7 8.93285 26.7 7.99951C26.7 7.13284 26.5 6.43275 26.1 5.89941C25.7 5.29941 25.1334 4.99951 24.4 4.99951C23.7334 4.99951 23.2 5.26598 22.8 5.79932C22.4 6.33265 22.2 7.09961 22.2 8.09961ZM34.7 11.9995V11.1997C34.1666 11.7997 33.3667 12.0996 32.3 12.0996C31.5 12.0996 30.8667 11.8661 30.4 11.3994C29.9334 10.9327 29.7 10.1997 29.7 9.19971V4.09961H31.1V9.19971C31.1 10.3997 31.6 10.9995 32.6 10.9995C33.6 10.9995 34.2666 10.5993 34.6 9.79932V4.09961H36V11.9995H34.7ZM41.8 3.99951V5.29932C41.6 5.23265 41.4 5.19971 41.2 5.19971C40.3333 5.19971 39.7334 5.59941 39.4 6.39941V11.9995H38V4.09961H39.3L39.4 4.99951C39.8 4.26618 40.4 3.89941 41.2 3.89941C41.4666 3.89941 41.6667 3.93285 41.8 3.99951ZM47 1.29932H48.8L52.3 9.99951L55.8 1.29932H57.6V11.9995H56.2V7.79932L56.4 3.39941L52.9 11.9995H51.8L48.3 3.39941L48.4 7.79932V11.9995H47V1.29932ZM63.2 12.0996C62.1333 12.0996 61.2666 11.7663 60.6 11.0996C59.9333 10.3663 59.6 9.39971 59.6 8.19971V7.99951C59.6 7.19951 59.7333 6.49941 60 5.89941C60.3333 5.23275 60.7667 4.73275 61.3 4.39941C61.8334 4.06608 62.4 3.89941 63 3.89941C64.0667 3.89941 64.8667 4.23275 65.4 4.89941C66 5.56608 66.3 6.53265 66.3 7.79932V8.39941H60.9C60.9 9.19941 61.1333 9.83265 61.6 10.2993C62.0666 10.766 62.6334 10.9995 63.3 10.9995C63.7667 10.9995 64.1667 10.8997 64.5 10.6997C64.8333 10.4997 65.1334 10.2327 65.4 9.89941L66.2 10.5996C65.5333 11.5996 64.5333 12.0996 63.2 12.0996ZM63 4.99951C62.4667 4.99951 62 5.19961 61.6 5.59961C61.2666 5.99961 61.0667 6.56598 61 7.29932H64.9V7.19971C64.9 6.46637 64.7334 5.93294 64.4 5.59961C64.0667 5.19961 63.6 4.99951 63 4.99951ZM67.9 3.99951H69.1L69.2 4.99951C69.7999 4.26618 70.5667 3.89941 71.5 3.89941C73.2333 3.89941 74.1 4.83304 74.1 6.69971V11.9995H72.7V6.69971C72.7 6.16637 72.5667 5.76618 72.3 5.49951C72.1001 5.16618 71.7 4.99951 71.1 4.99951C70.7 4.99951 70.3333 5.13275 70 5.39941C69.6667 5.59941 69.3999 5.89932 69.2 6.29932V11.9995H67.9V3.99951ZM76.6 1.99951H78V3.99951H79.4V4.99951H78V9.89941C78 10.2327 78.0666 10.4663 78.2 10.5996C78.3333 10.7996 78.5334 10.8994 78.8 10.8994C79 10.8994 79.2333 10.866 79.5 10.7993V11.8994C79.1 11.9661 78.7334 11.9995 78.4 11.9995C77.8 11.9995 77.3666 11.8328 77.1 11.4995C76.7666 11.0995 76.6 10.5661 76.6 9.89941V4.99951H75.2V3.99951H76.6V1.99951ZM80.5 7.89941V7.79932C80.5 6.99932 80.6667 6.29971 81 5.69971C81.2667 5.03304 81.7001 4.53304 82.3 4.19971C82.8334 3.86637 83.4333 3.69971 84.1 3.69971C85.1666 3.69971 86.0333 4.09941 86.7 4.89941C87.3666 5.63275 87.7 6.59932 87.7 7.79932V7.89941C87.7 8.69941 87.5667 9.39951 87.3 9.99951C86.9667 10.5995 86.5333 11.0661 86 11.3994C85.4667 11.7994 84.8333 11.9995 84.1 11.9995C83.0333 11.9995 82.1667 11.5993 81.5 10.7993C80.8333 10.066 80.5 9.09941 80.5 7.89941ZM81.9 7.89941C81.9 8.83275 82.1 9.53285 82.5 9.99951C82.9 10.5328 83.4333 10.7993 84.1 10.7993C84.8333 10.7993 85.4 10.5328 85.8 9.99951C86.2001 9.46618 86.4 8.73265 86.4 7.79932C86.4 6.93265 86.2001 6.23304 85.8 5.69971C85.3334 5.09971 84.7666 4.79932 84.1 4.79932C83.4333 4.79932 82.9 5.06628 82.5 5.59961C82.1 6.13294 81.9 6.89941 81.9 7.89941ZM93.3 3.79932V5.09961C93.1001 5.03294 92.8666 4.99951 92.6 4.99951C91.7333 4.99951 91.1334 5.39971 90.8 6.19971V11.7993H89.4V3.89941H90.8V4.79932C91.2001 4.06598 91.8333 3.69971 92.7 3.69971C92.9666 3.69971 93.1667 3.73265 93.3 3.79932ZM99.1 9.69971C99.1 9.36637 98.9666 9.09941 98.7 8.89941C98.4333 8.63275 97.9667 8.43265 97.3 8.29932C96.5667 8.16598 96 7.99932 95.6 7.79932C95.2 7.59932 94.8999 7.36628 94.7 7.09961C94.5666 6.76628 94.5 6.43294 94.5 6.09961C94.5 5.43294 94.7667 4.86608 95.3 4.39941C95.8334 3.93275 96.5334 3.69971 97.4 3.69971C98.2667 3.69971 99 3.93275 99.6 4.39941C100.133 4.86608 100.4 5.46637 100.4 6.19971H99C99 5.86637 98.8666 5.56598 98.6 5.29932C98.2666 4.96598 97.8667 4.79932 97.4 4.79932C96.8667 4.79932 96.4666 4.93304 96.2 5.19971C95.9333 5.39971 95.8 5.66618 95.8 5.99951C95.8 6.33285 95.9333 6.59932 96.2 6.79932C96.4666 6.93265 96.9333 7.06637 97.6 7.19971C98.2666 7.39971 98.7999 7.59932 99.2 7.79932C99.6666 7.99932 100 8.23284 100.2 8.49951C100.4 8.83284 100.5 9.19961 100.5 9.59961C100.5 10.3329 100.2 10.8993 99.6 11.2993C99.0666 11.766 98.3334 11.9995 97.4 11.9995C96.8 11.9995 96.2333 11.8663 95.7 11.5996C95.2333 11.3996 94.8666 11.0997 94.6 10.6997C94.3333 10.2997 94.2 9.86608 94.2 9.39941H95.5C95.5667 9.79941 95.7666 10.1662 96.1 10.4995C96.4333 10.6995 96.8667 10.7993 97.4 10.7993C97.9334 10.7993 98.3666 10.6995 98.7 10.4995C98.9666 10.2995 99.1 10.033 99.1 9.69971ZM103.6 0.599609V4.79932C104.2 4.06598 104.967 3.69971 105.9 3.69971C107.633 3.69971 108.5 4.66628 108.5 6.59961V11.7993H107.1V6.59961C107.1 5.99961 106.967 5.56598 106.7 5.29932C106.433 5.03265 106.033 4.89941 105.5 4.89941C105.1 4.89941 104.733 4.99971 104.4 5.19971C104.067 5.46637 103.8 5.79971 103.6 6.19971V11.7993H102.2V0.599609H103.6ZM112 3.89941V11.7993H110.7V3.89941H112ZM110.5 1.79932C110.5 1.59932 110.567 1.39971 110.7 1.19971C110.833 1.06637 111.033 0.999512 111.3 0.999512C111.567 0.999512 111.767 1.06637 111.9 1.19971C112.033 1.39971 112.1 1.59932 112.1 1.79932C112.1 1.99932 112.033 2.16598 111.9 2.29932C111.767 2.43265 111.567 2.49951 111.3 2.49951C111.033 2.49951 110.833 2.43265 110.7 2.29932C110.567 2.16598 110.5 1.99932 110.5 1.79932ZM120.8 7.79932V7.89941C120.8 9.09941 120.533 10.066 120 10.7993C119.467 11.5993 118.733 11.9995 117.8 11.9995C116.8 11.9995 116.033 11.6662 115.5 10.9995V14.8994H114.1V3.89941H115.4V4.79932C116 4.06598 116.767 3.69971 117.7 3.69971C118.7 3.69971 119.467 4.06598 120 4.79932C120.533 5.53265 120.8 6.53265 120.8 7.79932ZM119.5 7.79932C119.5 6.86598 119.3 6.16637 118.9 5.69971C118.5 5.16637 117.967 4.89941 117.3 4.89941C116.5 4.89941 115.9 5.26618 115.5 5.99951V9.79932C115.9 10.466 116.533 10.7993 117.4 10.7993C118 10.7993 118.5 10.5663 118.9 10.0996C119.3 9.56628 119.5 8.79932 119.5 7.79932Z" fill="#777777"/>
</svg>
