<svg width="132" height="15" viewBox="0 0 132 15" fill="none" xmlns="http://www.w3.org/2000/svg">
<path d="M4.69958 0.298828V10.999H3.39966V1.99902L0.599609 2.99902V1.69922L4.49963 0.298828H4.69958ZM15.3997 4.69922V6.49902C15.3997 8.03236 15.0996 9.19902 14.4996 9.99902C13.9663 10.7324 13.133 11.0991 11.9996 11.0991C10.8663 11.0991 10.033 10.7324 9.49963 9.99902C8.9663 9.26569 8.66628 8.13245 8.59961 6.59912V4.79883C8.59961 3.26549 8.86632 2.09883 9.39966 1.29883C9.99966 0.565495 10.8663 0.199219 11.9996 0.199219C13.133 0.199219 13.9663 0.565495 14.4996 1.29883C15.033 2.03216 15.333 3.16589 15.3997 4.69922ZM13.9996 6.79883V4.59912C13.9996 3.46579 13.833 2.63245 13.4996 2.09912C13.1663 1.56579 12.6663 1.29883 11.9996 1.29883C11.2663 1.29883 10.7663 1.56579 10.4996 2.09912C10.1663 2.63245 9.99963 3.43236 9.99963 4.49902V6.69922C9.99963 7.83255 10.1663 8.66588 10.4996 9.19922C10.833 9.73255 11.333 9.99902 11.9996 9.99902C12.6663 9.99902 13.1663 9.76549 13.4996 9.29883C13.833 8.76549 13.9996 7.93216 13.9996 6.79883ZM17.1996 10.2988C17.1996 10.0322 17.2663 9.83255 17.3997 9.69922C17.533 9.56589 17.733 9.49902 17.9996 9.49902C18.2663 9.49902 18.4996 9.56589 18.6996 9.69922C18.8329 9.83255 18.8997 10.0322 18.8997 10.2988C18.8997 10.4988 18.8329 10.6989 18.6996 10.8989C18.4996 11.0323 18.2663 11.0991 17.9996 11.0991C17.733 11.0991 17.533 11.0323 17.3997 10.8989C17.2663 10.6989 17.1996 10.4988 17.1996 10.2988ZM17.1996 3.79883C17.1996 3.59883 17.2663 3.39922 17.3997 3.19922C17.533 3.06589 17.733 2.99902 17.9996 2.99902C18.2663 2.99902 18.4996 3.06589 18.6996 3.19922C18.8329 3.39922 18.8997 3.59883 18.8997 3.79883C18.8997 4.06549 18.8329 4.26559 18.6996 4.39893C18.4996 4.53226 18.2663 4.59912 17.9996 4.59912C17.733 4.59912 17.533 4.53226 17.3997 4.39893C17.2663 4.26559 17.1996 4.06549 17.1996 3.79883ZM22.6996 6.09912V4.99902H23.6996C24.3663 4.99902 24.8663 4.83236 25.1996 4.49902C25.5996 4.16569 25.7997 3.73255 25.7997 3.19922C25.7997 1.93255 25.1663 1.29883 23.8997 1.29883C23.2997 1.29883 22.833 1.46549 22.4996 1.79883C22.1663 2.13216 21.9996 2.56579 21.9996 3.09912H20.5996C20.5996 2.29912 20.8996 1.59902 21.4996 0.999023C22.1663 0.46569 22.9663 0.199219 23.8997 0.199219C24.8997 0.199219 25.6997 0.46569 26.2997 0.999023C26.833 1.53236 27.0996 2.26589 27.0996 3.19922C27.0996 3.66589 26.9663 4.13245 26.6996 4.59912C26.3663 4.99912 25.9663 5.29902 25.4996 5.49902C26.033 5.69902 26.4663 6.03236 26.7997 6.49902C27.133 6.89902 27.2997 7.39902 27.2997 7.99902C27.2997 8.99902 26.9997 9.76549 26.3997 10.2988C25.733 10.8322 24.8997 11.0991 23.8997 11.0991C22.8997 11.0991 22.0996 10.8322 21.4996 10.2988C20.833 9.76549 20.4996 9.06589 20.4996 8.19922H21.8997C21.8997 8.73255 22.0663 9.16569 22.3997 9.49902C22.7997 9.83236 23.2997 9.99902 23.8997 9.99902C24.5663 9.99902 25.0663 9.83236 25.3997 9.49902C25.733 9.16569 25.8997 8.69912 25.8997 8.09912C25.8997 7.43245 25.733 6.93245 25.3997 6.59912C24.9997 6.26579 24.4329 6.09912 23.6996 6.09912H22.6996ZM35.8997 4.69922V6.49902C35.8997 8.03236 35.5996 9.19902 34.9996 9.99902C34.4663 10.7324 33.633 11.0991 32.4996 11.0991C31.3663 11.0991 30.533 10.7324 29.9996 9.99902C29.4663 9.26569 29.1663 8.13245 29.0996 6.59912V4.79883C29.0996 3.26549 29.3663 2.09883 29.8997 1.29883C30.4997 0.565495 31.3663 0.199219 32.4996 0.199219C33.633 0.199219 34.4663 0.565495 34.9996 1.29883C35.533 2.03216 35.833 3.16589 35.8997 4.69922ZM34.4996 6.79883V4.59912C34.4996 3.46579 34.333 2.63245 33.9996 2.09912C33.6663 1.56579 33.1663 1.29883 32.4996 1.29883C31.7663 1.29883 31.2663 1.56579 30.9996 2.09912C30.6663 2.63245 30.4996 3.43236 30.4996 4.49902V6.69922C30.4996 7.83255 30.6663 8.66588 30.9996 9.19922C31.333 9.73255 31.833 9.99902 32.4996 9.99902C33.1663 9.99902 33.6663 9.76549 33.9996 9.29883C34.333 8.76549 34.4996 7.93216 34.4996 6.79883ZM43.9996 10.999H42.5996C42.5329 10.8657 42.4663 10.5992 42.3997 10.1992C41.7997 10.7992 41.0662 11.0991 40.1996 11.0991C39.3996 11.0991 38.7663 10.899 38.2997 10.499C37.7663 10.0324 37.4996 9.4655 37.4996 8.79883C37.4996 7.99883 37.7997 7.36559 38.3997 6.89893C39.0663 6.43226 39.9663 6.19922 41.0996 6.19922H42.3997V5.59912C42.3997 5.13245 42.2663 4.73226 41.9996 4.39893C41.733 4.13226 41.2996 3.99902 40.6996 3.99902C40.2329 3.99902 39.833 4.13226 39.4996 4.39893C39.1663 4.66559 38.9996 4.96549 38.9996 5.29883H37.6996C37.6996 4.89883 37.8329 4.49912 38.0996 4.09912C38.3663 3.76579 38.7329 3.49883 39.1996 3.29883C39.6663 3.03216 40.1997 2.89893 40.7997 2.89893C41.733 2.89893 42.4663 3.13245 42.9996 3.59912C43.4663 4.06579 43.733 4.69902 43.7997 5.49902V9.09912C43.7997 9.83245 43.8663 10.4323 43.9996 10.8989V10.999ZM40.3997 9.99902C40.7997 9.99902 41.1996 9.86579 41.5996 9.59912C41.9996 9.39912 42.2663 9.13216 42.3997 8.79883V7.09912H41.2997C39.6997 7.09912 38.8997 7.59912 38.8997 8.59912C38.8997 8.99912 39.033 9.33245 39.2997 9.59912C39.5663 9.86579 39.933 9.99902 40.3997 9.99902ZM45.8997 3.09912H47.1996V3.89893C47.7996 3.23226 48.5996 2.89893 49.5996 2.89893C50.6663 2.89893 51.3997 3.33255 51.7997 4.19922C52.0663 3.79922 52.3997 3.49883 52.7997 3.29883C53.2663 3.03216 53.7663 2.89893 54.2997 2.89893C56.033 2.89893 56.933 3.83255 56.9996 5.69922V10.999H55.5996V5.79883C55.5996 5.19883 55.4663 4.76569 55.1996 4.49902C54.9996 4.23236 54.5663 4.09912 53.8997 4.09912C53.433 4.09912 53.0329 4.23236 52.6996 4.49902C52.3663 4.83236 52.1663 5.23255 52.0996 5.69922V10.999H50.7997V5.79883C50.7997 4.66549 50.2329 4.09912 49.0996 4.09912C48.1663 4.09912 47.5329 4.46589 47.1996 5.19922V10.999H45.8997V3.09912ZM69.9996 0.298828V1.49902H66.5996V10.999H65.1996V1.49902H61.7997V0.298828H69.9996ZM70.2997 7.09912V6.99902C70.2997 6.19902 70.4329 5.49893 70.6996 4.89893C71.0329 4.23226 71.4663 3.73226 71.9996 3.39893C72.533 3.06559 73.1663 2.89893 73.8997 2.89893C74.9663 2.89893 75.833 3.29912 76.4996 4.09912C77.1663 4.83245 77.4996 5.79902 77.4996 6.99902V7.09912C77.4996 7.89912 77.333 8.59922 76.9996 9.19922C76.733 9.79922 76.333 10.2658 75.7997 10.5991C75.2663 10.9991 74.633 11.1992 73.8997 11.1992C72.833 11.1992 71.9663 10.799 71.2997 9.99902C70.633 9.26569 70.2997 8.29912 70.2997 7.09912ZM71.5996 7.09912C71.5996 8.03245 71.7996 8.73255 72.1996 9.19922C72.6663 9.73255 73.233 9.99902 73.8997 9.99902C74.5663 9.99902 75.0996 9.73255 75.4996 9.19922C75.8996 8.66588 76.0996 7.93236 76.0996 6.99902C76.0996 6.13236 75.8996 5.43226 75.4996 4.89893C75.0996 4.29893 74.5663 3.99902 73.8997 3.99902C73.233 3.99902 72.6997 4.26549 72.2997 4.79883C71.833 5.33216 71.5996 6.09912 71.5996 7.09912ZM89.7997 9.89893V10.999H82.7997V9.99902L86.4996 5.89893C87.033 5.29893 87.3996 4.79893 87.5996 4.39893C87.7996 3.99893 87.8997 3.59922 87.8997 3.19922C87.8997 2.66589 87.733 2.19883 87.3997 1.79883C87.0663 1.46549 86.5996 1.29883 85.9996 1.29883C85.333 1.29883 84.833 1.49893 84.4996 1.89893C84.0996 2.29893 83.8997 2.83236 83.8997 3.49902H82.5996C82.5996 2.49902 82.8996 1.69912 83.4996 1.09912C84.1663 0.499121 84.9996 0.199219 85.9996 0.199219C86.9996 0.199219 87.7997 0.46569 88.3997 0.999023C88.9997 1.53236 89.2997 2.23245 89.2997 3.09912C89.2997 4.09912 88.633 5.33216 87.2997 6.79883L84.3997 9.89893H89.7997ZM91.2997 10.2988C91.2997 10.0322 91.3663 9.83255 91.4996 9.69922C91.633 9.56589 91.8662 9.49902 92.1996 9.49902C92.4663 9.49902 92.6664 9.56589 92.7997 9.69922C92.933 9.83255 92.9996 10.0322 92.9996 10.2988C92.9996 10.4988 92.933 10.6989 92.7997 10.8989C92.6664 11.0323 92.4663 11.0991 92.1996 11.0991C91.8662 11.0991 91.633 11.0323 91.4996 10.8989C91.3663 10.6989 91.2997 10.4988 91.2997 10.2988ZM91.2997 3.79883C91.2997 3.59883 91.3663 3.39922 91.4996 3.19922C91.6996 3.06589 91.9329 2.99902 92.1996 2.99902C92.4663 2.99902 92.6664 3.06589 92.7997 3.19922C92.933 3.39922 92.9996 3.59883 92.9996 3.79883C92.9996 4.06549 92.933 4.26559 92.7997 4.39893C92.6664 4.53226 92.4663 4.59912 92.1996 4.59912C91.9329 4.59912 91.6996 4.53226 91.4996 4.39893C91.3663 4.26559 91.2997 4.06549 91.2997 3.79883ZM96.7997 6.09912V4.99902H97.8997C98.4997 4.99902 98.9997 4.83236 99.3997 4.49902C99.733 4.16569 99.8997 3.73255 99.8997 3.19922C99.8997 1.93255 99.2663 1.29883 97.9996 1.29883C97.4663 1.29883 96.9996 1.46549 96.5996 1.79883C96.2663 2.13216 96.0996 2.56579 96.0996 3.09912H94.7997C94.7997 2.29912 95.0996 1.59902 95.6996 0.999023C96.2996 0.46569 97.0663 0.199219 97.9996 0.199219C99.0663 0.199219 99.8663 0.46569 100.4 0.999023C101 1.53236 101.3 2.26589 101.3 3.19922C101.3 3.66589 101.133 4.13245 100.8 4.59912C100.533 4.99912 100.133 5.29902 99.5996 5.49902C100.2 5.69902 100.633 6.03236 100.9 6.49902C101.233 6.89902 101.4 7.39902 101.4 7.99902C101.4 8.99902 101.1 9.76549 100.5 10.2988C99.8996 10.8988 99.0996 11.1992 98.0996 11.1992C97.0329 11.1992 96.1996 10.8988 95.5996 10.2988C94.9996 9.76549 94.6996 9.06589 94.6996 8.19922H95.9996C95.9996 8.73255 96.1996 9.16569 96.5996 9.49902C96.9329 9.83236 97.4329 9.99902 98.0996 9.99902C98.6996 9.99902 99.1996 9.83236 99.5996 9.49902C99.9329 9.16569 100.1 8.69912 100.1 8.09912C100.1 7.43245 99.8996 6.93245 99.4996 6.59912C99.0996 6.26579 98.5663 6.09912 97.8997 6.09912H96.7997ZM109.9 4.69922V6.49902C109.9 8.03236 109.633 9.19902 109.1 9.99902C108.566 10.799 107.7 11.1992 106.5 11.1992C105.366 11.1992 104.533 10.799 104 9.99902C103.466 9.26569 103.2 8.13245 103.2 6.59912V4.79883C103.2 3.26549 103.466 2.09883 104 1.29883C104.533 0.565495 105.366 0.199219 106.5 0.199219C107.633 0.199219 108.5 0.565495 109.1 1.29883C109.633 2.03216 109.9 3.16589 109.9 4.69922ZM108.5 6.79883V4.59912C108.5 3.46579 108.366 2.63245 108.1 2.09912C107.766 1.56579 107.233 1.29883 106.5 1.29883C105.833 1.29883 105.333 1.56579 105 2.09912C104.666 2.63245 104.5 3.43236 104.5 4.49902V6.69922C104.5 7.83255 104.666 8.66588 105 9.19922C105.333 9.73255 105.833 9.99902 106.5 9.99902C107.166 9.99902 107.666 9.76549 108 9.29883C108.333 8.76549 108.5 7.93216 108.5 6.79883ZM118.5 6.99902V7.09912C118.5 8.29912 118.2 9.26569 117.6 9.99902C117.066 10.799 116.333 11.1992 115.4 11.1992C114.466 11.1992 113.7 10.8659 113.1 10.1992V14.0991H111.8V3.09912H113L113.1 3.99902C113.633 3.26569 114.4 2.89893 115.4 2.89893C116.333 2.89893 117.066 3.26569 117.6 3.99902C118.2 4.73236 118.5 5.73236 118.5 6.99902ZM117.1 6.99902C117.1 6.06569 116.9 5.36559 116.5 4.89893C116.166 4.36559 115.666 4.09912 115 4.09912C114.133 4.09912 113.5 4.46589 113.1 5.19922V8.99902C113.5 9.66569 114.133 9.99902 115 9.99902C115.666 9.99902 116.166 9.76549 116.5 9.29883C116.9 8.76549 117.1 7.99902 117.1 6.99902ZM120.2 3.09912H121.5V3.99902C122.1 3.26569 122.866 2.89893 123.8 2.89893C124.933 2.89893 125.7 3.33255 126.1 4.19922C126.366 3.79922 126.7 3.49883 127.1 3.29883C127.566 3.03216 128.066 2.89893 128.6 2.89893C130.333 2.89893 131.233 3.83255 131.3 5.69922V10.999H129.9V5.79883C129.9 5.19883 129.766 4.76569 129.5 4.49902C129.3 4.23236 128.866 4.09912 128.2 4.09912C127.733 4.09912 127.333 4.23236 127 4.49902C126.666 4.83236 126.466 5.23255 126.4 5.69922V10.999H125V5.79883C125 4.66549 124.466 4.09912 123.4 4.09912C122.466 4.09912 121.833 4.46589 121.5 5.19922V10.999H120.2V3.09912Z" fill="#777777"/>
</svg>
