<svg width="43" height="30" viewBox="0 0 43 30" fill="none" xmlns="http://www.w3.org/2000/svg">
<path d="M0.799805 3.2002V9.1001L7.7998 7.3999V29H14.2998V0.5L0.799805 3.2002ZM42.5998 20C42.5998 18.0667 42.1998 16.4334 41.3998 15.1001C40.5998 13.7001 39.5665 12.6332 38.2999 11.8999C36.9665 11.2332 35.5665 10.8999 34.0998 10.8999C33.2331 10.8999 32.3665 10.9668 31.4998 11.1001C30.6998 11.2334 29.9331 11.4665 29.1998 11.7998L30.7999 6.7998H41.9998V1H25.8998L21.8998 17.1001C22.8998 16.6334 23.8331 16.3001 24.6998 16.1001C25.6331 15.8334 26.5332 15.6333 27.3998 15.5C28.2665 15.4333 29.0665 15.3999 29.7999 15.3999C30.7332 15.3999 31.5998 15.5331 32.3998 15.7998C33.2665 16.0665 33.9332 16.5001 34.3998 17.1001C34.9332 17.6334 35.1998 18.3665 35.1998 19.2998C35.1998 20.1665 34.9998 20.9 34.5998 21.5C34.1331 22.1667 33.4998 22.6332 32.6998 22.8999C31.8998 23.1666 30.9332 23.2998 29.7999 23.2998C29.1332 23.2998 28.3998 23.2 27.5998 23C26.7331 22.7333 25.8998 22.3666 25.0998 21.8999C24.2998 21.4999 23.4998 20.9665 22.6998 20.2998L20.0998 25.8999C20.9665 26.4999 21.9331 27.1002 22.9998 27.7002C24.0665 28.2335 25.2998 28.6667 26.6998 29C28.0331 29.3333 29.5665 29.5 31.2999 29.5C32.6332 29.5 33.9665 29.3333 35.2999 29C36.6332 28.6 37.8665 28.0331 38.9998 27.2998C40.1332 26.4998 40.9998 25.4998 41.5998 24.2998C42.2665 23.0998 42.5998 21.6667 42.5998 20Z" fill="#0060FF"/>
</svg>
