<svg width="85" height="12" viewBox="0 0 85 12" fill="none" xmlns="http://www.w3.org/2000/svg">
<path d="M7.19958 9.89893V10.999H0.299683V9.99902L3.99963 5.89893C4.53297 5.29893 4.89961 4.79893 5.09961 4.39893C5.29961 3.99893 5.39966 3.59922 5.39966 3.19922C5.39966 2.66589 5.23299 2.19883 4.89966 1.79883C4.56632 1.46549 4.09963 1.29883 3.49963 1.29883C2.83297 1.29883 2.33297 1.49893 1.99963 1.89893C1.59963 2.29893 1.39966 2.83236 1.39966 3.49902H0.0996094C0.0996094 2.49902 0.399634 1.69912 0.999634 1.09912C1.6663 0.499121 2.49963 0.199219 3.49963 0.199219C4.49963 0.199219 5.29966 0.46569 5.89966 0.999023C6.49966 1.46569 6.79968 2.13236 6.79968 2.99902C6.79968 4.06569 6.13302 5.33216 4.79968 6.79883L1.89966 9.89893H7.19958ZM15.2997 4.69922V6.49902C15.2997 8.03236 15.033 9.19902 14.4996 9.99902C13.9663 10.7324 13.133 11.0991 11.9996 11.0991C10.8663 11.0991 9.99966 10.7324 9.39966 9.99902C8.86632 9.26569 8.59961 8.13245 8.59961 6.59912V4.79883C8.59961 3.26549 8.86632 2.09883 9.39966 1.29883C9.93299 0.565495 10.7663 0.199219 11.8997 0.199219C13.0997 0.199219 13.9663 0.565495 14.4996 1.29883C15.033 2.03216 15.2997 3.16589 15.2997 4.69922ZM13.9996 6.79883V4.59912C13.9996 3.46579 13.833 2.63245 13.4996 2.09912C13.1663 1.56579 12.633 1.29883 11.8997 1.29883C11.233 1.29883 10.733 1.56579 10.3997 2.09912C10.133 2.63245 9.96632 3.43236 9.89966 4.49902V6.69922C9.89966 7.83255 10.0663 8.66588 10.3997 9.19922C10.733 9.73255 11.2663 9.99902 11.9996 9.99902C12.6663 9.99902 13.133 9.76549 13.3997 9.29883C13.733 8.76549 13.933 7.93216 13.9996 6.79883ZM17.0996 10.2988C17.0996 10.0322 17.1997 9.83255 17.3997 9.69922C17.533 9.56589 17.733 9.49902 17.9996 9.49902C18.2663 9.49902 18.4663 9.56589 18.5996 9.69922C18.7329 9.83255 18.7997 10.0322 18.7997 10.2988C18.7997 10.4988 18.7329 10.6989 18.5996 10.8989C18.4663 11.0323 18.2663 11.0991 17.9996 11.0991C17.733 11.0991 17.533 11.0323 17.3997 10.8989C17.1997 10.6989 17.0996 10.4988 17.0996 10.2988ZM17.1996 3.79883C17.1996 3.59883 17.2663 3.39922 17.3997 3.19922C17.533 3.06589 17.733 2.99902 17.9996 2.99902C18.2663 2.99902 18.4663 3.06589 18.5996 3.19922C18.7329 3.39922 18.7997 3.59883 18.7997 3.79883C18.7997 4.06549 18.7329 4.26559 18.5996 4.39893C18.4663 4.53226 18.2663 4.59912 17.9996 4.59912C17.733 4.59912 17.533 4.53226 17.3997 4.39893C17.2663 4.26559 17.1996 4.06549 17.1996 3.79883ZM27.3997 4.69922V6.49902C27.3997 8.03236 27.1329 9.19902 26.5996 9.99902C25.9996 10.7324 25.133 11.0991 23.9996 11.0991C22.8663 11.0991 22.033 10.7324 21.4996 9.99902C20.9663 9.26569 20.6663 8.13245 20.5996 6.59912V4.79883C20.5996 3.26549 20.8996 2.09883 21.4996 1.29883C22.033 0.565495 22.8663 0.199219 23.9996 0.199219C25.133 0.199219 25.9663 0.565495 26.4996 1.29883C27.0996 2.03216 27.3997 3.16589 27.3997 4.69922ZM25.9996 6.79883V4.59912C25.9996 3.46579 25.833 2.63245 25.4996 2.09912C25.233 1.56579 24.733 1.29883 23.9996 1.29883C23.333 1.29883 22.833 1.56579 22.4996 2.09912C22.1663 2.63245 21.9996 3.43236 21.9996 4.49902V6.69922C21.9996 7.83255 22.1663 8.66588 22.4996 9.19922C22.833 9.73255 23.333 9.99902 23.9996 9.99902C24.6663 9.99902 25.1663 9.76549 25.4996 9.29883C25.833 8.76549 25.9996 7.93216 25.9996 6.79883ZM35.7997 4.69922V6.49902C35.7997 8.03236 35.533 9.19902 34.9996 9.99902C34.4663 10.7324 33.5997 11.0991 32.3997 11.0991C31.2663 11.0991 30.433 10.7324 29.8997 9.99902C29.3663 9.26569 29.0996 8.13245 29.0996 6.59912V4.79883C29.0996 3.26549 29.3663 2.09883 29.8997 1.29883C30.433 0.565495 31.2663 0.199219 32.3997 0.199219C33.533 0.199219 34.3996 0.565495 34.9996 1.29883C35.533 2.03216 35.7997 3.16589 35.7997 4.69922ZM34.3997 6.79883V4.59912C34.3997 3.46579 34.2663 2.63245 33.9996 2.09912C33.6663 1.56579 33.133 1.29883 32.3997 1.29883C31.733 1.29883 31.233 1.56579 30.8997 2.09912C30.5663 2.63245 30.3997 3.43236 30.3997 4.49902V6.69922C30.3997 7.83255 30.5663 8.66588 30.8997 9.19922C31.233 9.73255 31.733 9.99902 32.3997 9.99902C33.0663 9.99902 33.5663 9.76549 33.8997 9.29883C34.233 8.76549 34.3997 7.93216 34.3997 6.79883ZM44.1996 5.89893V6.99902H40.5996V5.89893H44.1996ZM56.0996 9.89893V10.999H49.0996V9.99902L52.7997 5.89893C53.333 5.29893 53.6997 4.79893 53.8997 4.39893C54.1663 3.99893 54.2997 3.59922 54.2997 3.19922C54.2997 2.66589 54.133 2.19883 53.7997 1.79883C53.3997 1.46549 52.933 1.29883 52.3997 1.29883C51.733 1.29883 51.1997 1.49893 50.7997 1.89893C50.4664 2.29893 50.2997 2.83236 50.2997 3.49902H48.8997C48.8997 2.49902 49.233 1.69912 49.8997 1.09912C50.4997 0.499121 51.333 0.199219 52.3997 0.199219C53.3997 0.199219 54.1997 0.46569 54.7997 0.999023C55.333 1.46569 55.5996 2.13236 55.5996 2.99902C55.5996 4.06569 54.9329 5.33216 53.5996 6.79883L50.7997 9.89893H56.0996ZM61.8997 0.298828V10.999H60.5996V1.99902L57.7997 2.99902V1.69922L61.6996 0.298828H61.8997ZM65.9996 10.2988C65.9996 10.0322 66.0663 9.83255 66.1996 9.69922C66.3329 9.56589 66.533 9.49902 66.7997 9.49902C67.0664 9.49902 67.2996 9.56589 67.4996 9.69922C67.633 9.83255 67.6996 10.0322 67.6996 10.2988C67.6996 10.4988 67.633 10.6989 67.4996 10.8989C67.2996 11.0323 67.0664 11.0991 66.7997 11.0991C66.533 11.0991 66.3329 11.0323 66.1996 10.8989C66.0663 10.6989 65.9996 10.4988 65.9996 10.2988ZM65.9996 3.79883C65.9996 3.59883 66.0663 3.39922 66.1996 3.19922C66.3329 3.06589 66.533 2.99902 66.7997 2.99902C67.133 2.99902 67.3663 3.06589 67.4996 3.19922C67.633 3.39922 67.6996 3.59883 67.6996 3.79883C67.6996 4.06549 67.633 4.26559 67.4996 4.39893C67.3663 4.53226 67.133 4.59912 66.7997 4.59912C66.533 4.59912 66.3329 4.53226 66.1996 4.39893C66.0663 4.26559 65.9996 4.06549 65.9996 3.79883ZM71.4996 6.09912V4.99902H72.4996C73.1663 4.99902 73.6663 4.83236 73.9996 4.49902C74.3996 4.16569 74.5996 3.73255 74.5996 3.19922C74.5996 1.93255 73.9663 1.29883 72.6996 1.29883C72.0996 1.29883 71.633 1.46549 71.2997 1.79883C70.9663 2.13216 70.7997 2.56579 70.7997 3.09912H69.3997C69.3997 2.29912 69.733 1.59902 70.3997 0.999023C70.9997 0.46569 71.7663 0.199219 72.6996 0.199219C73.6996 0.199219 74.4996 0.46569 75.0996 0.999023C75.6329 1.53236 75.8997 2.26589 75.8997 3.19922C75.8997 3.66589 75.7663 4.13245 75.4996 4.59912C75.1663 4.99912 74.7663 5.29902 74.2997 5.49902C74.833 5.69902 75.2663 6.03236 75.5996 6.49902C75.9329 6.89902 76.0996 7.39902 76.0996 7.99902C76.0996 8.99902 75.7996 9.76549 75.1996 10.2988C74.5329 10.8322 73.6996 11.0991 72.6996 11.0991C71.6996 11.0991 70.8997 10.8322 70.2997 10.2988C69.633 9.76549 69.2997 9.06589 69.2997 8.19922H70.6996C70.6996 8.73255 70.8662 9.16569 71.1996 9.49902C71.5996 9.83236 72.0996 9.99902 72.6996 9.99902C73.3662 9.99902 73.8662 9.83236 74.1996 9.49902C74.5329 9.16569 74.6996 8.69912 74.6996 8.09912C74.6996 7.43245 74.5329 6.93245 74.1996 6.59912C73.7996 6.26579 73.233 6.09912 72.4996 6.09912H71.4996ZM84.6996 4.69922V6.49902C84.6996 8.03236 84.3997 9.19902 83.7997 9.99902C83.2663 10.7324 82.433 11.0991 81.2997 11.0991C80.1664 11.0991 79.333 10.7324 78.7997 9.99902C78.2663 9.26569 77.9663 8.13245 77.8997 6.59912V4.79883C77.8997 3.26549 78.1663 2.09883 78.6996 1.29883C79.2996 0.565495 80.1664 0.199219 81.2997 0.199219C82.433 0.199219 83.2663 0.565495 83.7997 1.29883C84.333 2.03216 84.6329 3.16589 84.6996 4.69922ZM83.2997 6.79883V4.59912C83.2997 3.46579 83.133 2.63245 82.7997 2.09912C82.4663 1.56579 81.9663 1.29883 81.2997 1.29883C80.633 1.29883 80.133 1.56579 79.7997 2.09912C79.4663 2.63245 79.2997 3.43236 79.2997 4.49902V6.69922C79.2997 7.83255 79.4663 8.66588 79.7997 9.19922C80.133 9.73255 80.633 9.99902 81.2997 9.99902C81.9663 9.99902 82.4663 9.76549 82.7997 9.29883C83.133 8.76549 83.2997 7.93216 83.2997 6.79883Z" fill="#777777"/>
</svg>
