<svg width="50" height="30" viewBox="0 0 50 30" fill="none" xmlns="http://www.w3.org/2000/svg">
<path d="M13.4004 16.1006L0.900391 29.0005H24.6003V22.8003H13.4004L20.0004 17.0005C21.2004 15.9338 22.1671 14.7672 22.9004 13.5005C23.6337 12.2338 24.0004 10.8336 24.0004 9.30029C24.0004 8.23363 23.7671 7.20068 23.3004 6.20068C22.8337 5.13402 22.1671 4.16696 21.3004 3.30029C20.4337 2.43363 19.3337 1.73402 18.0004 1.20068C16.667 0.66735 15.1337 0.400391 13.4004 0.400391C11.0004 0.400391 8.93371 0.900391 7.20038 1.90039C5.60038 2.90039 4.36703 4.23372 3.50037 5.90039C2.70037 7.56706 2.30035 9.40039 2.30035 11.4004H8.90039C8.90039 10.3337 9.06706 9.43402 9.40039 8.70068C9.73372 7.90068 10.2337 7.30039 10.9004 6.90039C11.5671 6.43372 12.3337 6.20068 13.2004 6.20068C13.8004 6.20068 14.3337 6.33392 14.8004 6.60059C15.3337 6.73392 15.7337 7.00039 16.0004 7.40039C16.3337 7.66706 16.6004 8.03382 16.8004 8.50049C16.9337 8.90049 17.0004 9.33363 17.0004 9.80029C17.0004 10.5336 16.867 11.2337 16.6003 11.9004C16.3337 12.5004 15.9004 13.1336 15.3004 13.8003C14.767 14.467 14.1337 15.2339 13.4004 16.1006ZM29.4004 7.80029C29.4004 9.06696 29.667 10.1673 30.2003 11.1006C30.8003 12.0339 31.5337 12.8338 32.4004 13.5005C33.3337 14.1005 34.367 14.5336 35.5004 14.8003C36.6337 15.1336 37.7671 15.3003 38.9004 15.3003C40.0337 15.3003 41.1671 15.1336 42.3004 14.8003C43.4338 14.5336 44.4338 14.1005 45.3004 13.5005C46.2337 12.8338 46.967 12.0339 47.5004 11.1006C48.1004 10.1673 48.4004 9.06696 48.4004 7.80029C48.4004 6.20029 47.9337 4.86696 47.0004 3.80029C46.2004 2.66696 45.067 1.80068 43.6003 1.20068C42.2003 0.66735 40.6337 0.400391 38.9004 0.400391C37.1671 0.400391 35.6003 0.66735 34.2003 1.20068C32.7337 1.80068 31.567 2.66696 30.7003 3.80029C29.8337 4.86696 29.4004 6.20029 29.4004 7.80029ZM35.8004 8.40039C35.8004 7.80039 35.9337 7.26696 36.2003 6.80029C36.467 6.26696 36.8337 5.86725 37.3004 5.60059C37.7671 5.33392 38.3004 5.20068 38.9004 5.20068C39.5004 5.20068 40.0337 5.33392 40.5004 5.60059C40.967 5.86725 41.3337 6.26696 41.6003 6.80029C41.867 7.26696 42.0004 7.80039 42.0004 8.40039C42.0004 9.06706 41.867 9.63392 41.6003 10.1006C41.3337 10.5673 40.967 10.934 40.5004 11.2007C40.0337 11.4674 39.5004 11.6006 38.9004 11.6006C38.3004 11.6006 37.7671 11.4674 37.3004 11.2007C36.8337 10.934 36.467 10.5673 36.2003 10.1006C35.9337 9.63392 35.8004 9.06706 35.8004 8.40039ZM28.4004 21.4004C28.4004 22.6671 28.7004 23.8003 29.3004 24.8003C29.8337 25.867 30.6003 26.7337 31.6003 27.4004C32.6003 28.1337 33.7337 28.7006 35.0004 29.1006C36.2004 29.4339 37.5004 29.6006 38.9004 29.6006C40.3004 29.6006 41.6004 29.4339 42.8004 29.1006C44.0671 28.7006 45.2003 28.1337 46.2003 27.4004C47.2003 26.7337 47.967 25.867 48.5004 24.8003C49.1004 23.8003 49.4004 22.6671 49.4004 21.4004C49.4004 19.9337 49.0671 18.6673 48.4004 17.6006C47.7337 16.5339 46.8671 15.7006 45.8004 15.1006C44.8004 14.4339 43.6671 13.9339 42.4004 13.6006C41.2004 13.3339 40.0337 13.2007 38.9004 13.2007C37.7671 13.2007 36.5671 13.3339 35.3004 13.6006C34.1004 13.9339 32.9671 14.4339 31.9004 15.1006C30.9004 15.7006 30.0671 16.5339 29.4004 17.6006C28.7337 18.6673 28.4004 19.9337 28.4004 21.4004ZM35.2003 20.4004C35.2003 19.7337 35.3337 19.1005 35.6003 18.5005C36.0003 17.9672 36.467 17.534 37.0004 17.2007C37.6004 16.8673 38.2337 16.7007 38.9004 16.7007C39.5671 16.7007 40.2004 16.8673 40.8004 17.2007C41.3337 17.534 41.767 17.9672 42.1003 18.5005C42.4337 19.1005 42.6003 19.7337 42.6003 20.4004C42.6003 21.2004 42.4337 21.8671 42.1003 22.4004C41.767 23.0004 41.3337 23.434 40.8004 23.7007C40.2004 24.034 39.5671 24.2007 38.9004 24.2007C38.2337 24.2007 37.6004 24.034 37.0004 23.7007C36.467 23.434 36.0003 23.0004 35.6003 22.4004C35.3337 21.8671 35.2003 21.2004 35.2003 20.4004Z" fill="#0060FF"/>
</svg>
