<svg width="85" height="12" viewBox="0 0 85 12" fill="none" xmlns="http://www.w3.org/2000/svg">
<path d="M2.40027 6.09863V4.99902H3.40027C4.06694 4.99902 4.56694 4.83236 4.90027 4.49902C5.30027 4.16569 5.50024 3.73255 5.50024 3.19922C5.50024 1.93255 4.86689 1.29883 3.60022 1.29883C3.00022 1.29883 2.53353 1.46549 2.2002 1.79883C1.86686 2.13216 1.7002 2.5653 1.7002 3.09863H0.300293C0.300293 2.29863 0.633626 1.59902 1.30029 0.999023C1.90029 0.46569 2.66689 0.199219 3.60022 0.199219C4.60022 0.199219 5.40024 0.46569 6.00024 0.999023C6.53358 1.53236 6.80029 2.26589 6.80029 3.19922C6.80029 3.66589 6.66694 4.13197 6.40027 4.59863C6.06694 4.99863 5.66686 5.29902 5.2002 5.49902C5.73353 5.69902 6.16691 6.03236 6.50024 6.49902C6.83358 6.89902 7.00024 7.39902 7.00024 7.99902C7.00024 8.99902 6.70022 9.76549 6.10022 10.2988C5.43355 10.8322 4.60022 11.0986 3.60022 11.0986C2.60022 11.0986 1.8002 10.8322 1.2002 10.2988C0.533529 9.76549 0.200195 9.06589 0.200195 8.19922H1.60022C1.60022 8.73255 1.76689 9.16569 2.10022 9.49902C2.50022 9.83236 3.00022 9.99902 3.60022 9.99902C4.26689 9.99902 4.76689 9.83236 5.10022 9.49902C5.43355 9.16569 5.60022 8.69863 5.60022 8.09863C5.60022 7.43197 5.43355 6.93197 5.10022 6.59863C4.70022 6.2653 4.1336 6.09863 3.40027 6.09863H2.40027ZM19.4003 7.59863H20.8003C20.667 8.73197 20.2336 9.59922 19.5002 10.1992C18.8336 10.7992 17.9002 11.0986 16.7002 11.0986C15.4335 11.0986 14.4335 10.6655 13.7002 9.79883C12.9669 8.86549 12.6002 7.66589 12.6002 6.19922V5.09863C12.6002 4.1653 12.7669 3.29902 13.1002 2.49902C13.4336 1.76569 13.9336 1.19883 14.6002 0.798828C15.2669 0.398828 16.0336 0.199219 16.9003 0.199219C18.0336 0.199219 18.9336 0.498633 19.6002 1.09863C20.2669 1.7653 20.667 2.66549 20.8003 3.79883H19.4003C19.2669 2.93216 19.0002 2.29941 18.6002 1.89941C18.2002 1.49941 17.6336 1.29883 16.9003 1.29883C15.9669 1.29883 15.2335 1.63216 14.7002 2.29883C14.2335 2.96549 14.0002 3.93255 14.0002 5.19922V6.19922C14.0002 7.33255 14.2335 8.26569 14.7002 8.99902C15.1669 9.66569 15.8335 9.99902 16.7002 9.99902C17.5002 9.99902 18.1002 9.83236 18.5002 9.49902C18.9669 9.09902 19.2669 8.4653 19.4003 7.59863ZM22.1002 7.09863V6.99902C22.1002 6.19902 22.2669 5.49941 22.6002 4.89941C22.8669 4.23275 23.3003 3.73275 23.9003 3.39941C24.4336 3.06608 25.0335 2.89941 25.7002 2.89941C26.7669 2.89941 27.6336 3.26569 28.3003 3.99902C28.967 4.79902 29.3003 5.79902 29.3003 6.99902V7.09863C29.3003 7.89863 29.1669 8.59922 28.9003 9.19922C28.6336 9.79922 28.2002 10.2653 27.6002 10.5986C27.0669 10.932 26.4335 11.0986 25.7002 11.0986C24.6335 11.0986 23.7669 10.7324 23.1002 9.99902C22.4336 9.26569 22.1002 8.29863 22.1002 7.09863ZM23.5002 7.09863C23.5002 7.9653 23.7002 8.66588 24.1002 9.19922C24.5002 9.73255 25.0335 9.99902 25.7002 9.99902C26.4335 9.99902 27.0003 9.73255 27.4003 9.19922C27.8003 8.66588 28.0002 7.93236 28.0002 6.99902C28.0002 6.13236 27.8003 5.43275 27.4003 4.89941C27.0003 4.29941 26.4335 3.99902 25.7002 3.99902C25.0335 3.99902 24.5002 4.26549 24.1002 4.79883C23.7002 5.33216 23.5002 6.09863 23.5002 7.09863ZM31.0002 3.09863H32.3003L32.4003 3.99902C32.9336 3.26569 33.7002 2.89941 34.7002 2.89941C35.8335 2.89941 36.6002 3.33255 37.0002 4.19922C37.2669 3.79922 37.6002 3.49883 38.0002 3.29883C38.4002 3.03216 38.9002 2.89941 39.5002 2.89941C41.2336 2.89941 42.1002 3.83255 42.1002 5.69922V10.999H40.8003V5.79883C40.8003 5.19883 40.6669 4.76569 40.4003 4.49902C40.1336 4.23236 39.7002 4.09863 39.1002 4.09863C38.5669 4.09863 38.1336 4.23236 37.8003 4.49902C37.467 4.83236 37.3003 5.23255 37.3003 5.69922V10.999H35.9003V5.79883C35.9003 4.66549 35.3335 4.09863 34.2002 4.09863C33.3335 4.09863 32.7336 4.46589 32.4003 5.19922V10.999H31.0002V3.09863ZM44.2002 3.09863H45.5002V3.99902C46.1002 3.33236 46.9003 2.99902 47.9003 2.99902C48.9669 2.99902 49.7002 3.39922 50.1002 4.19922C50.3669 3.86589 50.7002 3.56549 51.1002 3.29883C51.5669 3.09883 52.0669 2.99902 52.6002 2.99902C54.4002 2.99902 55.3003 3.89922 55.3003 5.69922V10.999H53.9003V5.79883C53.9003 5.19883 53.8002 4.76569 53.6002 4.49902C53.3336 4.23236 52.8669 4.09863 52.2002 4.09863C51.7335 4.09863 51.3336 4.2653 51.0002 4.59863C50.6669 4.8653 50.4669 5.26549 50.4003 5.79883V10.999H49.1002V5.79883C49.1002 4.66549 48.5336 4.09863 47.4003 4.09863C46.4669 4.09863 45.8336 4.46589 45.5002 5.19922V10.999H44.2002V3.09863ZM60.6002 11.1992C59.5336 11.1992 58.6669 10.832 58.0002 10.0986C57.3336 9.43197 57.0002 8.49883 57.0002 7.29883V7.09863C57.0002 6.29863 57.1336 5.59902 57.4003 4.99902C57.7336 4.33236 58.1669 3.83236 58.7002 3.49902C59.2335 3.16569 59.8336 2.99902 60.5002 2.99902C61.5002 2.99902 62.3003 3.33236 62.9003 3.99902C63.4336 4.66569 63.7002 5.63275 63.7002 6.89941V7.49902H58.3003C58.367 8.23236 58.6002 8.86608 59.0002 9.39941C59.4669 9.86608 60.0335 10.0986 60.7002 10.0986C61.1669 10.0986 61.5669 9.99883 61.9003 9.79883C62.2336 9.59883 62.5336 9.33236 62.8003 8.99902L63.6002 9.69922C62.9336 10.6992 61.9336 11.1992 60.6002 11.1992ZM60.5002 4.09863C59.9002 4.09863 59.4336 4.29922 59.1002 4.69922C58.7002 5.09922 58.4669 5.66608 58.4003 6.39941H62.4003V6.29883C62.3336 5.56549 62.1336 5.03255 61.8003 4.69922C61.467 4.29922 61.0336 4.09863 60.5002 4.09863ZM65.3003 3.09863H66.6002V4.09863C67.2002 3.3653 68.0002 2.99902 69.0002 2.99902C70.6669 2.99902 71.5002 3.93216 71.5002 5.79883V10.999H70.2002V5.79883C70.2002 5.19883 70.067 4.76569 69.8003 4.49902C69.5336 4.23236 69.1336 4.09863 68.6002 4.09863C68.1336 4.09863 67.7336 4.23236 67.4003 4.49902C67.0669 4.69902 66.8002 4.99941 66.6002 5.39941V10.999H65.3003V3.09863ZM74.0002 1.19922H75.4003V3.09863H76.9003V4.19922H75.4003V9.09863C75.4003 9.43197 75.4669 9.66549 75.6002 9.79883C75.7336 9.99883 75.967 10.0986 76.3003 10.0986C76.4336 10.0986 76.6336 10.0657 76.9003 9.99902V11.0986C76.5669 11.1653 76.2336 11.1992 75.9003 11.1992C75.3003 11.1992 74.8336 11.0326 74.5002 10.6992C74.1669 10.2992 74.0002 9.7653 74.0002 9.09863V4.19922H72.6002V3.09863H74.0002V1.19922ZM83.1002 8.99902C83.1002 8.59902 82.9669 8.29863 82.7002 8.09863C82.3669 7.89863 81.8669 7.73197 81.2002 7.59863C80.5335 7.4653 80.0002 7.29863 79.6002 7.09863C79.2002 6.89863 78.9002 6.66608 78.7002 6.39941C78.5002 6.06608 78.4003 5.69883 78.4003 5.29883C78.4003 4.69883 78.6669 4.16589 79.2002 3.69922C79.7335 3.23255 80.4336 2.99902 81.3003 2.99902C82.2336 2.99902 82.9669 3.23255 83.5002 3.69922C84.1002 4.16589 84.4003 4.76569 84.4003 5.49902H83.0002C83.0002 5.09902 82.8336 4.76569 82.5002 4.49902C82.1669 4.23236 81.767 4.09863 81.3003 4.09863C80.8336 4.09863 80.4669 4.23236 80.2002 4.49902C79.9335 4.69902 79.8003 4.96549 79.8003 5.29883C79.8003 5.63216 79.9002 5.86569 80.1002 5.99902C80.3669 6.19902 80.8336 6.36569 81.5002 6.49902C82.2336 6.63236 82.8002 6.83197 83.2002 7.09863C83.6002 7.29863 83.9002 7.53216 84.1002 7.79883C84.3002 8.13216 84.4003 8.49941 84.4003 8.89941C84.4003 9.63275 84.1336 10.1986 83.6002 10.5986C83.0002 10.9986 82.2669 11.1992 81.4003 11.1992C80.7336 11.1992 80.1669 11.0994 79.7002 10.8994C79.2335 10.6994 78.8336 10.399 78.5002 9.99902C78.2336 9.59902 78.1002 9.16588 78.1002 8.69922H79.5002C79.5002 9.09922 79.6669 9.43255 80.0002 9.69922C80.3336 9.96589 80.8003 10.0986 81.4003 10.0986C81.8669 10.0986 82.2669 9.99883 82.6002 9.79883C82.9336 9.59883 83.1002 9.33236 83.1002 8.99902Z" fill="#777777"/>
</svg>
