<svg width="166" height="30" viewBox="0 0 166 30" fill="none" xmlns="http://www.w3.org/2000/svg">
<path d="M9.10001 12.3999V15.3999C11.3 15.3999 13.3 15.1334 15.1 14.6001C16.8333 14.0668 18.2333 13.2669 19.3 12.2002C20.3667 11.1335 20.9 9.8002 20.9 8.2002C20.9 6.8002 20.5 5.4998 19.7 4.2998C18.9667 3.16647 17.8667 2.23333 16.4 1.5C14.9333 0.833333 13.1667 0.5 11.1 0.5C9.10001 0.5 7.36666 0.866764 5.89999 1.6001C4.36666 2.4001 3.19999 3.46647 2.39999 4.7998C1.59999 6.06647 1.2 7.53353 1.2 9.2002H7.39999C7.39999 8.2002 7.73333 7.3998 8.39999 6.7998C9.13333 6.1998 10.0333 5.8999 11.1 5.8999C11.7667 5.8999 12.3333 6.0002 12.8 6.2002C13.2667 6.46686 13.6333 6.8002 13.9 7.2002C14.1 7.6002 14.2 8.06676 14.2 8.6001C14.2 9.13343 14.1 9.63343 13.9 10.1001C13.6333 10.5668 13.2667 10.9665 12.8 11.2998C12.3333 11.6331 11.7667 11.9001 11.1 12.1001C10.5 12.3001 9.83334 12.3999 9.10001 12.3999ZM10.7 29.6001C13.0333 29.6001 15 29.2668 16.6 28.6001C18.2667 27.8668 19.5333 26.9002 20.4 25.7002C21.2667 24.4335 21.7 22.9999 21.7 21.3999C21.7 19.9332 21.4 18.7002 20.8 17.7002C20.2 16.7002 19.3 15.8669 18.1 15.2002C16.9667 14.5335 15.6333 14.0665 14.1 13.7998C12.5667 13.4665 10.9 13.2998 9.10001 13.2998V16.7998C10.1 16.7998 10.9667 16.8667 11.7 17C12.4333 17.2 13.0333 17.4999 13.5 17.8999C14.0333 18.2332 14.4333 18.6334 14.7 19.1001C14.9 19.5668 15 20.1002 15 20.7002C15 21.5002 14.8333 22.1669 14.5 22.7002C14.1667 23.2335 13.7 23.5998 13.1 23.7998C12.5 24.0665 11.8 24.2002 11 24.2002C10.2667 24.2002 9.53334 24.0665 8.8 23.7998C8.13334 23.4665 7.6 22.9999 7.2 22.3999C6.8 21.7999 6.60001 21.0334 6.60001 20.1001H0C0 21.3668 0.23333 22.5669 0.699997 23.7002C1.23333 24.8335 1.93334 25.8665 2.8 26.7998C3.73334 27.6665 4.86666 28.3666 6.2 28.8999C7.53333 29.3666 9.03333 29.6001 10.7 29.6001ZM47.1 20C47.1 18.0667 46.7 16.4334 45.9 15.1001C45.1 13.7001 44.0333 12.6667 42.7 12C41.4333 11.2667 40.0667 10.8999 38.6 10.8999C37.7333 10.8999 36.8667 10.9668 36 11.1001C35.2 11.2334 34.4333 11.4665 33.7 11.7998L35.3 6.7998H46.5V1H30.3L26.4 17.2002C27.4 16.6669 28.3333 16.3001 29.2 16.1001C30.1333 15.8334 31.0333 15.6668 31.9 15.6001C32.7667 15.4668 33.5667 15.3999 34.3 15.3999C35.2333 15.3999 36.1 15.5331 36.9 15.7998C37.7 16.0665 38.3667 16.5001 38.9 17.1001C39.4333 17.6334 39.7 18.3665 39.7 19.2998C39.7 20.1665 39.5 20.9334 39.1 21.6001C38.6333 22.2001 38 22.6332 37.2 22.8999C36.4 23.2332 35.4333 23.3999 34.3 23.3999C33.6333 23.3999 32.9 23.2667 32.1 23C31.2333 22.7333 30.4 22.4 29.6 22C28.8 21.5333 28 20.9665 27.2 20.2998L24.6 25.8999C25.4667 26.4999 26.4333 27.1002 27.5 27.7002C28.5667 28.2335 29.7667 28.6667 31.1 29C32.5 29.3333 34.0667 29.5 35.8 29.5C37.1333 29.5 38.4667 29.3333 39.8 29C41.1333 28.6 42.3667 28.0331 43.5 27.2998C44.5667 26.4998 45.4333 25.4998 46.1 24.2998C46.7667 23.0998 47.1 21.6667 47.1 20ZM56.8 15C56.8 13.6667 56.9333 12.4666 57.2 11.3999C57.4 10.3332 57.7333 9.43353 58.2 8.7002C58.6667 7.9002 59.2 7.2999 59.8 6.8999C60.4667 6.4999 61.1667 6.2998 61.9 6.2998C62.7 6.2998 63.4 6.4999 64 6.8999C64.6667 7.2999 65.2333 7.9002 65.7 8.7002C66.1 9.43353 66.4333 10.3332 66.7 11.3999C66.9667 12.4666 67.1 13.6667 67.1 15C67.1 16.3333 66.9667 17.5334 66.7 18.6001C66.4333 19.6668 66.1 20.5999 65.7 21.3999C65.2333 22.1332 64.6667 22.7001 64 23.1001C63.4 23.5001 62.7 23.7002 61.9 23.7002C61.1667 23.7002 60.4667 23.5001 59.8 23.1001C59.2 22.7001 58.6667 22.1332 58.2 21.3999C57.7333 20.5999 57.4 19.6668 57.2 18.6001C56.9333 17.5334 56.8 16.3333 56.8 15ZM50.3 15C50.3 18.0667 50.7667 20.6665 51.7 22.7998C52.7 24.9331 54.1 26.5998 55.9 27.7998C57.6333 28.9331 59.6333 29.5 61.9 29.5C64.3 29.5 66.3667 28.9331 68.1 27.7998C69.8333 26.5998 71.1667 24.9331 72.1 22.7998C73.1 20.6665 73.6 18.0667 73.6 15C73.6 11.9333 73.1 9.33353 72.1 7.2002C71.1667 5.06686 69.8333 3.4002 68.1 2.2002C66.3667 1.06686 64.3 0.5 61.9 0.5C59.6333 0.5 57.6333 1.06686 55.9 2.2002C54.1 3.4002 52.7 5.06686 51.7 7.2002C50.7667 9.33353 50.3 11.9333 50.3 15ZM77.9 26.2998C77.9 27.2998 78.2333 28.1666 78.9 28.8999C79.6333 29.6332 80.5333 30 81.6 30C82.7333 30 83.6333 29.6332 84.3 28.8999C85.0333 28.1666 85.4 27.2998 85.4 26.2998C85.4 25.2998 85.0333 24.4335 84.3 23.7002C83.6333 22.9669 82.7333 22.6001 81.6 22.6001C80.5333 22.6001 79.6333 22.9669 78.9 23.7002C78.2333 24.4335 77.9 25.2998 77.9 26.2998ZM96.2 15C96.2 13.6667 96.3 12.4666 96.5 11.3999C96.7667 10.3332 97.1333 9.43353 97.6 8.7002C98.0667 7.9002 98.6 7.2999 99.2 6.8999C99.8 6.4999 100.5 6.2998 101.3 6.2998C102.1 6.2998 102.8 6.4999 103.4 6.8999C104 7.2999 104.533 7.9002 105 8.7002C105.467 9.43353 105.833 10.3332 106.1 11.3999C106.3 12.4666 106.4 13.6667 106.4 15C106.4 16.3333 106.3 17.5334 106.1 18.6001C105.833 19.6668 105.467 20.5999 105 21.3999C104.533 22.1332 104 22.7001 103.4 23.1001C102.8 23.5001 102.1 23.7002 101.3 23.7002C100.5 23.7002 99.8 23.5001 99.2 23.1001C98.6 22.7001 98.0667 22.1332 97.6 21.3999C97.1333 20.5999 96.7667 19.6668 96.5 18.6001C96.3 17.5334 96.2 16.3333 96.2 15ZM89.7 15C89.7 18.0667 90.1667 20.6665 91.1 22.7998C92.1 24.9331 93.4667 26.5998 95.2 27.7998C97 28.9331 99.0333 29.5 101.3 29.5C103.7 29.5 105.767 28.9331 107.5 27.7998C109.233 26.5998 110.567 24.9331 111.5 22.7998C112.433 20.6665 112.9 18.0667 112.9 15C112.9 11.9333 112.433 9.33353 111.5 7.2002C110.567 5.06686 109.233 3.4002 107.5 2.2002C105.767 1.06686 103.7 0.5 101.3 0.5C99.0333 0.5 97 1.06686 95.2 2.2002C93.4667 3.4002 92.1 5.06686 91.1 7.2002C90.1667 9.33353 89.7 11.9333 89.7 15ZM122.7 15C122.7 13.6667 122.8 12.4666 123 11.3999C123.267 10.3332 123.633 9.43353 124.1 8.7002C124.5 7.9002 125.033 7.2999 125.7 6.8999C126.3 6.4999 127 6.2998 127.8 6.2998C128.533 6.2998 129.233 6.4999 129.9 6.8999C130.5 7.2999 131.033 7.9002 131.5 8.7002C131.967 9.43353 132.3 10.3332 132.5 11.3999C132.767 12.4666 132.9 13.6667 132.9 15C132.9 16.3333 132.767 17.5334 132.5 18.6001C132.3 19.6668 131.967 20.5999 131.5 21.3999C131.033 22.1332 130.5 22.7001 129.9 23.1001C129.233 23.5001 128.533 23.7002 127.8 23.7002C127 23.7002 126.3 23.5001 125.7 23.1001C125.033 22.7001 124.5 22.1332 124.1 21.3999C123.633 20.5999 123.267 19.6668 123 18.6001C122.8 17.5334 122.7 16.3333 122.7 15ZM116.1 15C116.1 18.0667 116.6 20.6665 117.6 22.7998C118.6 24.9331 119.967 26.5998 121.7 27.7998C123.433 28.9331 125.467 29.5 127.8 29.5C130.133 29.5 132.167 28.9331 133.9 27.7998C135.7 26.5998 137.067 24.9331 138 22.7998C138.933 20.6665 139.4 18.0667 139.4 15C139.4 11.9333 138.933 9.33353 138 7.2002C137.067 5.06686 135.7 3.4002 133.9 2.2002C132.167 1.06686 130.133 0.5 127.8 0.5C125.467 0.5 123.433 1.06686 121.7 2.2002C119.967 3.4002 118.6 5.06686 117.6 7.2002C116.6 9.33353 116.1 11.9333 116.1 15ZM149.1 15C149.1 13.6667 149.233 12.4666 149.5 11.3999C149.767 10.3332 150.1 9.43353 150.5 8.7002C150.967 7.9002 151.5 7.2999 152.1 6.8999C152.767 6.4999 153.5 6.2998 154.3 6.2998C155.033 6.2998 155.7 6.4999 156.3 6.8999C156.967 7.2999 157.533 7.9002 158 8.7002C158.467 9.43353 158.8 10.3332 159 11.3999C159.267 12.4666 159.4 13.6667 159.4 15C159.4 16.3333 159.267 17.5334 159 18.6001C158.8 19.6668 158.467 20.5999 158 21.3999C157.533 22.1332 156.967 22.7001 156.3 23.1001C155.7 23.5001 155.033 23.7002 154.3 23.7002C153.5 23.7002 152.767 23.5001 152.1 23.1001C151.5 22.7001 150.967 22.1332 150.5 21.3999C150.1 20.5999 149.767 19.6668 149.5 18.6001C149.233 17.5334 149.1 16.3333 149.1 15ZM142.6 15C142.6 18.0667 143.1 20.6665 144.1 22.7998C145.033 24.9331 146.4 26.5998 148.2 27.7998C149.933 28.9331 151.967 29.5 154.3 29.5C156.633 29.5 158.667 28.9331 160.4 27.7998C162.2 26.5998 163.567 24.9331 164.5 22.7998C165.433 20.6665 165.9 18.0667 165.9 15C165.9 11.9333 165.433 9.33353 164.5 7.2002C163.567 5.06686 162.2 3.4002 160.4 2.2002C158.667 1.06686 156.633 0.5 154.3 0.5C151.967 0.5 149.933 1.06686 148.2 2.2002C146.4 3.4002 145.033 5.06686 144.1 7.2002C143.1 9.33353 142.6 11.9333 142.6 15Z" fill="#FF5219"/>
</svg>
