<svg width="54" height="15" viewBox="0 0 54 15" fill="none" xmlns="http://www.w3.org/2000/svg">
<path d="M8.19983 0.5H6.59979L0.299805 13.2998L1.99982 13.2002L8.19983 0.5ZM14.5998 0.5L8.59979 9H17.2998V7.5H15.0998L14.8998 7.6001H11.1998L13.8998 3.7002V8.2002L13.7998 8.3999V11H15.5998V0.5H14.5998ZM22.8998 7.6001C22.8998 8.33343 23.0665 8.96667 23.3998 9.5C23.7332 10.0333 24.1665 10.4335 24.6998 10.7002C25.2998 11.0335 25.9331 11.2002 26.5998 11.2002C27.3331 11.2002 27.9665 11.0335 28.4998 10.7002C29.0998 10.4335 29.5331 10.0333 29.7998 9.5C30.1331 8.96667 30.2998 8.33343 30.2998 7.6001C30.2998 6.86676 30.1331 6.23353 29.7998 5.7002C29.5331 5.16686 29.0998 4.76667 28.4998 4.5C27.9665 4.16667 27.3331 4 26.5998 4C25.9331 4 25.2998 4.16667 24.6998 4.5C24.1665 4.76667 23.7332 5.16686 23.3998 5.7002C23.0665 6.23353 22.8998 6.86676 22.8998 7.6001ZM24.5998 7.6001C24.5998 7.2001 24.6665 6.83333 24.7998 6.5C24.9998 6.16667 25.2665 5.9002 25.5998 5.7002C25.8665 5.5002 26.1998 5.3999 26.5998 5.3999C26.9998 5.3999 27.3665 5.5002 27.6998 5.7002C27.9665 5.9002 28.1998 6.16667 28.3998 6.5C28.5998 6.83333 28.6998 7.2001 28.6998 7.6001C28.6998 8.0001 28.5998 8.36686 28.3998 8.7002C28.1998 9.03353 27.9665 9.3 27.6998 9.5C27.3665 9.7 26.9998 9.7998 26.5998 9.7998C26.1998 9.7998 25.8665 9.7 25.5998 9.5C25.2665 9.3 24.9998 9.03353 24.7998 8.7002C24.6665 8.36686 24.5998 8.0001 24.5998 7.6001ZM33.2998 14.3999L37.7998 4.2002H35.9998L33.8998 9.6001H34.5998L32.3998 4.2002H30.5998L33.2998 10.2002L31.4998 14.3999H33.2998ZM39.7998 11.5H38.1998C38.1998 12.1 38.3665 12.6334 38.6998 13.1001C38.9665 13.5668 39.3665 13.9335 39.8998 14.2002C40.4332 14.4669 41.0665 14.6001 41.7998 14.6001C42.3998 14.6001 42.9998 14.4669 43.5998 14.2002C44.1331 13.9335 44.5665 13.5333 44.8998 13C45.2332 12.4 45.3998 11.6999 45.3998 10.8999V4.2002H43.7998V10.8999C43.7998 11.4332 43.6998 11.8669 43.4998 12.2002C43.2998 12.5335 43.0332 12.7666 42.6998 12.8999C42.4332 13.0999 42.1331 13.2002 41.7998 13.2002C41.3998 13.2002 41.0665 13.0999 40.7998 12.8999C40.4665 12.7666 40.2331 12.5999 40.0998 12.3999C39.8998 12.1332 39.7998 11.8333 39.7998 11.5ZM38.0998 7.6001C38.0998 8.33343 38.2332 8.96667 38.4998 9.5C38.8331 10.0333 39.2665 10.4335 39.7998 10.7002C40.2665 10.9669 40.7998 11.1001 41.3998 11.1001C41.9998 11.1001 42.4998 10.9669 42.8998 10.7002C43.3665 10.4335 43.7332 10.0333 43.9998 9.5C44.2665 8.96667 44.3998 8.33343 44.3998 7.6001C44.3998 6.8001 44.2665 6.16686 43.9998 5.7002C43.7332 5.16686 43.3665 4.73324 42.8998 4.3999C42.4998 4.13324 41.9998 4 41.3998 4C40.7998 4 40.2665 4.13324 39.7998 4.3999C39.2665 4.66657 38.8331 5.06676 38.4998 5.6001C38.2332 6.13343 38.0998 6.8001 38.0998 7.6001ZM39.6998 7.6001C39.6998 7.13343 39.7998 6.73324 39.9998 6.3999C40.1998 6.06657 40.4665 5.83353 40.7998 5.7002C41.1331 5.5002 41.4665 5.3999 41.7998 5.3999C42.0665 5.3999 42.2998 5.43333 42.4998 5.5C42.7665 5.63333 42.9998 5.8 43.1998 6C43.3332 6.13333 43.4665 6.33343 43.5998 6.6001C43.7331 6.86676 43.7998 7.2001 43.7998 7.6001C43.7998 8.06676 43.6998 8.43353 43.4998 8.7002C43.2998 9.03353 43.0332 9.3 42.6998 9.5C42.4332 9.63333 42.1331 9.7002 41.7998 9.7002C41.4665 9.7002 41.1331 9.63333 40.7998 9.5C40.4665 9.3 40.1998 9.03353 39.9998 8.7002C39.7998 8.36686 39.6998 8.0001 39.6998 7.6001ZM48.3998 8.8999C48.3998 8.6999 48.4665 8.53324 48.5998 8.3999C48.6665 8.1999 48.7998 8.06667 48.9998 8C49.1998 7.93333 49.4998 7.8999 49.8998 7.8999C50.2332 7.8999 50.5998 7.93333 50.9998 8C51.3331 8.13333 51.6665 8.3 51.9998 8.5V7.7002C51.8665 7.56686 51.6998 7.43314 51.4998 7.2998C51.2998 7.16647 51.0332 7.06667 50.6998 7C50.3665 6.86667 49.9665 6.7998 49.4998 6.7998C48.6332 6.7998 47.9665 6.9999 47.4998 7.3999C47.0331 7.7999 46.7998 8.33333 46.7998 9C46.7998 9.46667 46.8998 9.86686 47.0998 10.2002C47.2998 10.5335 47.5998 10.7666 47.9998 10.8999C48.3331 11.0999 48.7332 11.2002 49.1998 11.2002C49.5998 11.2002 49.9998 11.1333 50.3998 11C50.7332 10.8667 51.0331 10.6331 51.2998 10.2998C51.5665 10.0331 51.6998 9.66686 51.6998 9.2002L51.4998 8.2998C51.4998 8.63314 51.3998 8.93353 51.1998 9.2002C51.0665 9.46686 50.8665 9.66647 50.5998 9.7998C50.3331 9.93314 50.0332 10 49.6998 10C49.4332 10 49.1998 9.96657 48.9998 9.8999C48.7998 9.76657 48.6665 9.63333 48.5998 9.5C48.4665 9.3 48.3998 9.0999 48.3998 8.8999ZM47.1998 4.7998L47.8998 5.8999C48.0332 5.83324 48.1998 5.76686 48.3998 5.7002C48.5998 5.56686 48.8331 5.46657 49.0998 5.3999C49.3665 5.33324 49.6665 5.2998 49.9998 5.2998C50.1998 5.2998 50.3998 5.33324 50.5998 5.3999C50.7331 5.3999 50.8665 5.46676 50.9998 5.6001C51.1998 5.66676 51.3332 5.76657 51.3998 5.8999C51.4665 6.03324 51.4998 6.1999 51.4998 6.3999V11H53.0998V6.1001C53.0998 5.63343 52.9665 5.26667 52.6998 5C52.4332 4.66667 52.0998 4.4002 51.6998 4.2002C51.2332 4.06686 50.7332 4 50.1998 4C49.5332 4 48.9332 4.0998 48.3998 4.2998C47.9332 4.43314 47.5332 4.5998 47.1998 4.7998Z" fill="#202020"/>
</svg>
