<svg width="50" height="16" viewBox="0 0 50 16" fill="none" xmlns="http://www.w3.org/2000/svg">
<path d="M2.09961 6.8999L0.999634 6.69995L1.49963 1.30005H6.99963V2.6001H2.69965L2.29962 5.5C2.83295 5.16667 3.43294 5 4.09961 5C5.09961 5 5.86632 5.33333 6.39966 6C6.99966 6.66667 7.29962 7.53343 7.29962 8.6001C7.29962 9.66676 6.99966 10.5333 6.39966 11.2C5.79966 11.8 4.96632 12.1001 3.89966 12.1001C2.96632 12.1001 2.19961 11.8666 1.59961 11.3999C0.999609 10.8666 0.666276 10.1333 0.599609 9.19995H1.89966C1.96632 9.79995 2.1663 10.2668 2.49963 10.6001C2.83297 10.8668 3.29966 11 3.89966 11C4.56632 11 5.06632 10.7999 5.39966 10.3999C5.73299 9.9999 5.89966 9.4001 5.89966 8.6001C5.89966 7.86676 5.69962 7.2999 5.29962 6.8999C4.96629 6.4999 4.46629 6.30005 3.79962 6.30005C3.19962 6.30005 2.73299 6.4001 2.39966 6.6001L2.09961 6.8999ZM8.99963 11.3C8.99963 11.0334 9.06631 10.8333 9.19965 10.7C9.33298 10.5666 9.53296 10.5 9.79962 10.5C10.0663 10.5 10.2996 10.5666 10.4996 10.7C10.633 10.8333 10.6996 11.0334 10.6996 11.3C10.6996 11.5 10.633 11.6999 10.4996 11.8999C10.2996 12.0332 10.0663 12.1001 9.79962 12.1001C9.53296 12.1001 9.33298 12.0332 9.19965 11.8999C9.06631 11.6999 8.99963 11.5 8.99963 11.3ZM19.4996 5.69995V7.5C19.4996 9.03333 19.1996 10.2 18.5996 11C18.0663 11.8 17.2329 12.2 16.0996 12.2C14.9663 12.2 14.1329 11.8 13.5996 11C13.0663 10.2667 12.7663 9.13343 12.6996 7.6001V5.80005C12.6996 4.26672 12.9663 3.10005 13.4996 2.30005C14.0996 1.56672 14.9663 1.19995 16.0996 1.19995C17.2329 1.19995 18.0663 1.56672 18.5996 2.30005C19.1329 3.03338 19.433 4.16662 19.4996 5.69995ZM18.0996 7.80005V5.6001C18.0996 4.46676 17.9329 3.63343 17.5996 3.1001C17.2663 2.56676 16.7663 2.30005 16.0996 2.30005C15.4329 2.30005 14.9329 2.56676 14.5996 3.1001C14.2663 3.63343 14.0996 4.43333 14.0996 5.5V7.69995C14.0996 8.83328 14.2663 9.66662 14.5996 10.2C14.9329 10.7333 15.4329 11 16.0996 11C16.7663 11 17.2663 10.7667 17.5996 10.3C17.9329 9.76672 18.0996 8.93338 18.0996 7.80005ZM24.9996 7.69995C24.9996 6.56662 25.133 5.5 25.3997 4.5C25.733 3.5 26.1996 2.56662 26.7996 1.69995C27.333 0.899951 27.9329 0.333333 28.5996 0L28.8997 0.899902C28.1663 1.43324 27.5663 2.26657 27.0996 3.3999C26.6329 4.53324 26.3997 5.76676 26.3997 7.1001V7.80005C26.3997 9.66672 26.733 11.3 27.3997 12.7C27.7997 13.5 28.2997 14.1334 28.8997 14.6001L28.5996 15.3999C27.9329 15.0666 27.2996 14.4668 26.6996 13.6001C25.5663 11.9334 24.9996 9.96662 24.9996 7.69995ZM36.9996 10.8999V12H29.9996V11L33.6996 6.8999C34.233 6.2999 34.633 5.7999 34.8997 5.3999C35.0997 4.9999 35.1996 4.59995 35.1996 4.19995C35.1996 3.66662 35.033 3.20005 34.6996 2.80005C34.3663 2.46672 33.8996 2.30005 33.2996 2.30005C32.633 2.30005 32.0996 2.4999 31.6996 2.8999C31.3663 3.2999 31.1996 3.83333 31.1996 4.5H29.7996C29.7996 3.5 30.133 2.7001 30.7996 2.1001C31.3996 1.5001 32.233 1.19995 33.2996 1.19995C34.2996 1.19995 35.0996 1.46667 35.6996 2C36.233 2.53333 36.4996 3.23343 36.4996 4.1001C36.4996 5.1001 35.833 6.33338 34.4996 7.80005L31.6996 10.8999H36.9996ZM43.4996 12L40.7996 8.30005L39.8997 9.19995V12H38.5996V0.800049H39.8997V7.6001L40.5996 6.69995L43.0996 4.1001H44.6996L41.6996 7.3999L45.0996 12H43.4996ZM49.2996 7.80005C49.2996 8.86672 49.133 9.8999 48.7996 10.8999C48.533 11.8999 48.0996 12.8001 47.4996 13.6001C46.8996 14.4668 46.2996 15.0666 45.6996 15.3999L45.3997 14.6001C46.133 14.0668 46.733 13.1666 47.1996 11.8999C47.6663 10.6999 47.8997 9.36657 47.8997 7.8999V7.69995C47.8997 6.63328 47.7996 5.66672 47.5996 4.80005C47.3996 3.93338 47.0996 3.13324 46.6996 2.3999C46.2996 1.73324 45.8663 1.20005 45.3997 0.800049L45.6996 0C46.2996 0.333333 46.8996 0.933382 47.4996 1.80005C48.0996 2.60005 48.533 3.5 48.7996 4.5C49.133 5.5 49.2996 6.60005 49.2996 7.80005Z" fill="#777777"/>
</svg>
