<svg width="33" height="13" viewBox="0 0 33 13" fill="none" xmlns="http://www.w3.org/2000/svg">
<path d="M5.2998 1.29932H5.49982V2.49927H5.2998C4.23314 2.49927 3.3665 2.79917 2.69983 3.39917C2.09983 3.99917 1.73313 4.86593 1.59979 5.99927C2.19979 5.3326 2.96651 4.99927 3.89984 4.99927C4.83317 4.99927 5.59983 5.3326 6.19983 5.99927C6.73316 6.66593 6.99982 7.49927 6.99982 8.49927C6.99982 9.6326 6.69979 10.5326 6.09979 11.1992C5.49979 11.7992 4.69983 12.0994 3.69983 12.0994C2.69983 12.0994 1.8665 11.7326 1.19983 10.9993C0.599829 10.1993 0.299805 9.16584 0.299805 7.89917V7.39917C0.299805 5.46584 0.699817 3.96584 1.49982 2.89917C2.36648 1.89917 3.63314 1.36598 5.2998 1.29932ZM3.69983 6.09937C3.23316 6.09937 2.79984 6.26603 2.39984 6.59937C2.06651 6.86603 1.79979 7.19937 1.59979 7.59937V8.09937C1.59979 8.96603 1.79983 9.66588 2.19983 10.1992C2.59983 10.7326 3.09983 10.9993 3.69983 10.9993C4.29983 10.9993 4.76646 10.7992 5.09979 10.3992C5.49979 9.9325 5.69983 9.3327 5.69983 8.59937C5.69983 7.86603 5.49979 7.26598 5.09979 6.79932C4.76646 6.33265 4.29983 6.09937 3.69983 6.09937ZM15.2998 5.69922V7.49927C15.2998 9.0326 15.0332 10.1993 14.4998 10.9993C13.9665 11.7326 13.0998 12.0994 11.8998 12.0994C10.7665 12.0994 9.93318 11.7326 9.39984 10.9993C8.86651 10.2659 8.59979 9.1327 8.59979 7.59937V5.79932C8.59979 4.26598 8.86651 3.09932 9.39984 2.29932C9.93318 1.56598 10.7665 1.19922 11.8998 1.19922C13.0332 1.19922 13.8998 1.56598 14.4998 2.29932C15.0332 3.03265 15.2998 4.16589 15.2998 5.69922ZM13.8998 7.79932V5.59937C13.8998 4.46603 13.7665 3.6327 13.4998 3.09937C13.1665 2.56603 12.6332 2.29932 11.8998 2.29932C11.2332 2.29932 10.7332 2.56603 10.3998 3.09937C10.0665 3.6327 9.89984 4.4326 9.89984 5.49927V7.69922C9.89984 8.83255 10.0665 9.66588 10.3998 10.1992C10.7332 10.7326 11.2332 10.9993 11.8998 10.9993C12.5665 10.9993 13.0665 10.766 13.3998 10.2993C13.7332 9.76598 13.8998 8.93265 13.8998 7.79932ZM23.6998 5.69922V7.49927C23.6998 9.0326 23.4332 10.1993 22.8998 10.9993C22.3665 11.7326 21.5332 12.0994 20.3998 12.0994C19.2665 12.0994 18.3998 11.7326 17.7998 10.9993C17.2665 10.2659 16.9998 9.1327 16.9998 7.59937V5.79932C16.9998 4.26598 17.2665 3.09932 17.7998 2.29932C18.3331 1.56598 19.1665 1.19922 20.2998 1.19922C21.4998 1.19922 22.3665 1.56598 22.8998 2.29932C23.4332 3.03265 23.6998 4.16589 23.6998 5.69922ZM22.3998 7.79932V5.59937C22.3998 4.46603 22.2332 3.6327 21.8998 3.09937C21.5665 2.56603 21.0331 2.29932 20.2998 2.29932C19.6331 2.29932 19.1331 2.56603 18.7998 3.09937C18.5331 3.6327 18.3665 4.4326 18.2998 5.49927V7.69922C18.2998 8.83255 18.4665 9.66588 18.7998 10.1992C19.1331 10.7326 19.6665 10.9993 20.3998 10.9993C21.0665 10.9993 21.5331 10.766 21.7998 10.2993C22.1331 9.76598 22.3332 8.93265 22.3998 7.79932ZM30.5998 11.9993L27.7998 8.29932L26.9998 9.19922V11.9993H25.5998V0.699219H26.9998V7.59937L27.6998 6.69922L30.0998 4.09937H31.7998L28.6998 7.39917L32.1998 11.9993H30.5998Z" fill="#777777"/>
</svg>
