<svg width="216" height="15" viewBox="0 0 216 15" fill="none" xmlns="http://www.w3.org/2000/svg">
<path d="M4.69962 1.29922V11.9992H3.29959V2.99922L0.599609 3.99922V2.69922L4.4996 1.29922H4.69962ZM15.5996 10.8992V11.9992H8.59961V10.9992L12.2996 6.89922C12.8329 6.29922 13.1996 5.79922 13.3996 5.39922C13.6663 4.99922 13.7996 4.59922 13.7996 4.19922C13.7996 3.66589 13.6329 3.19922 13.2996 2.79922C12.9663 2.46588 12.4996 2.29922 11.8996 2.29922C11.2329 2.29922 10.6996 2.49922 10.2996 2.89922C9.96626 3.29922 9.79959 3.83255 9.79959 4.49922H8.3996C8.3996 3.49922 8.73293 2.69922 9.3996 2.09922C9.9996 1.49922 10.8329 1.19922 11.8996 1.19922C12.8996 1.19922 13.6996 1.46589 14.2996 1.99922C14.8329 2.46589 15.0996 3.13255 15.0996 3.99922C15.0996 5.06589 14.4329 6.33255 13.0996 7.79922L10.2996 10.8992H15.5996ZM21.8996 1.29922L17.3996 12.8992H16.1996L20.6996 1.29922H21.8996ZM30.0996 1.29922V2.09922L25.6996 11.9992H24.2996L28.6996 2.39922H22.8996V1.29922H30.0996ZM42.5996 11.9992L41.5996 9.19922H37.0996L36.0996 11.9992H34.6996L38.6996 1.29922H39.9996L44.0996 11.9992H42.5996ZM39.2996 3.09922L37.4996 8.09922H41.0996L39.2996 3.09922ZM51.4996 11.9992H50.0996C50.0329 11.8659 49.9663 11.5992 49.8996 11.1992C49.2996 11.7992 48.5663 12.0992 47.6996 12.0992C46.8996 12.0992 46.2663 11.8992 45.7996 11.4992C45.2663 11.0326 44.9996 10.4659 44.9996 9.79922C44.9996 8.99922 45.2996 8.36589 45.8996 7.89922C46.5663 7.43255 47.4663 7.19922 48.5996 7.19922H49.8996V6.59922C49.8996 6.13255 49.7663 5.73255 49.4996 5.39922C49.2329 5.13255 48.7996 4.99922 48.1996 4.99922C47.7329 4.99922 47.3329 5.13255 46.9996 5.39922C46.6663 5.59922 46.4996 5.89922 46.4996 6.29922H45.1996C45.1996 5.89922 45.3329 5.49922 45.5996 5.09922C45.8663 4.76589 46.2329 4.46589 46.6996 4.19922C47.2329 3.99922 47.7663 3.89922 48.2996 3.89922C49.2329 3.89922 49.9663 4.13255 50.4996 4.59922C50.9663 5.06589 51.2329 5.69922 51.2996 6.49922V10.0992C51.2996 10.8326 51.3663 11.4326 51.4996 11.8992V11.9992ZM47.8996 10.8992C48.2996 10.8992 48.6996 10.7992 49.0996 10.5992C49.4996 10.3992 49.7663 10.1326 49.8996 9.79922V8.09922H48.8996C47.2329 8.09922 46.3996 8.59922 46.3996 9.59922C46.3996 9.99922 46.5329 10.3326 46.7996 10.5992C47.0663 10.7992 47.4329 10.8992 47.8996 10.8992ZM60.0996 7.99922V8.09922C60.0996 9.29922 59.8329 10.2659 59.2996 10.9992C58.6996 11.7326 57.9329 12.0992 56.9996 12.0992C55.9996 12.0992 55.2329 11.7659 54.6996 11.0992L54.5996 11.9992H53.3996V0.699219H54.6996V4.89922C55.2996 4.23255 56.0663 3.89922 56.9996 3.89922C57.9996 3.89922 58.7663 4.26589 59.2996 4.99922C59.8329 5.73255 60.0996 6.73255 60.0996 7.99922ZM58.6996 7.89922C58.6996 7.03255 58.5329 6.33255 58.1996 5.79922C57.8663 5.26588 57.3663 4.99922 56.6996 4.99922C55.7663 4.99922 55.0996 5.43255 54.6996 6.29922V9.69922C55.1663 10.5659 55.8329 10.9992 56.6996 10.9992C57.3663 10.9992 57.8663 10.7326 58.1996 10.1992C58.5329 9.73255 58.6996 8.96589 58.6996 7.89922ZM61.4996 7.99922V7.89922C61.4996 7.16589 61.6329 6.46588 61.8996 5.79922C62.2329 5.19922 62.6663 4.73255 63.1996 4.39922C63.7329 4.06589 64.3329 3.89922 64.9996 3.89922C66.1329 3.89922 67.0329 4.26589 67.6996 4.99922C68.3663 5.73255 68.6996 6.73255 68.6996 7.99922V8.09922C68.6996 8.89922 68.5329 9.59922 68.1996 10.1992C67.9329 10.7992 67.5329 11.2659 66.9996 11.5992C66.3996 11.9326 65.7663 12.0992 65.0996 12.0992C64.0329 12.0992 63.1329 11.7326 62.3996 10.9992C61.7996 10.2659 61.4996 9.26589 61.4996 7.99922ZM62.7996 8.09922C62.7996 8.96589 62.9996 9.66589 63.3996 10.1992C63.7996 10.7326 64.3663 10.9992 65.0996 10.9992C65.7663 10.9992 66.2996 10.7326 66.6996 10.1992C67.0996 9.66589 67.2996 8.89922 67.2996 7.89922C67.2996 7.03255 67.0996 6.33255 66.6996 5.79922C66.2996 5.26588 65.7329 4.99922 64.9996 4.99922C64.3329 4.99922 63.7996 5.26588 63.3996 5.79922C62.9996 6.33255 62.7996 7.09922 62.7996 8.09922ZM70.7996 2.09922H72.1996V3.99922H73.6996V5.09922H72.1996V9.99922C72.1996 10.3326 72.2663 10.5659 72.3996 10.6992C72.5329 10.8992 72.7663 10.9992 73.0996 10.9992C73.2329 10.9992 73.4329 10.9659 73.6996 10.8992V11.9992C73.3663 12.0659 73.0329 12.0992 72.6996 12.0992C72.0996 12.0992 71.6329 11.9326 71.2996 11.5992C70.9663 11.1992 70.7996 10.6659 70.7996 9.99922V5.09922H69.3996V3.99922H70.7996V2.09922ZM75.1996 14.0992L74.4996 13.5992C74.8996 12.9326 75.1329 12.2659 75.1996 11.5992V10.3992H76.4996V11.3992C76.4996 11.9326 76.3663 12.4326 76.0996 12.8992C75.8996 13.4326 75.5996 13.8326 75.1996 14.0992ZM86.0996 7.79922H83.4996V11.9992H82.0996V1.29922H86.0996C87.2329 1.29922 88.1329 1.59922 88.7996 2.19922C89.4663 2.79922 89.7996 3.59922 89.7996 4.59922C89.7996 5.59922 89.4663 6.39922 88.7996 6.99922C88.1996 7.53255 87.2996 7.79922 86.0996 7.79922ZM83.4996 2.49922V6.69922H86.0996C86.8329 6.69922 87.3996 6.49922 87.7996 6.09922C88.1996 5.76589 88.3996 5.26589 88.3996 4.59922C88.3996 3.93255 88.1996 3.43255 87.7996 3.09922C87.3996 2.69922 86.8329 2.49922 86.0996 2.49922H83.4996ZM90.8996 7.99922C90.8996 7.19922 91.0663 6.49922 91.3996 5.89922C91.7329 5.23255 92.1663 4.73255 92.6996 4.39922C93.2329 4.06589 93.8329 3.89922 94.4996 3.89922C95.6329 3.89922 96.4996 4.26589 97.0996 4.99922C97.8329 5.79922 98.1996 6.79922 98.1996 7.99922V8.09922C98.1996 8.89922 98.0329 9.59922 97.6996 10.1992C97.4329 10.7992 96.9996 11.2659 96.3996 11.5992C95.8663 11.9326 95.2329 12.0992 94.4996 12.0992C93.4329 12.0992 92.5663 11.7326 91.8996 10.9992C91.2329 10.2659 90.8996 9.26589 90.8996 7.99922ZM92.2996 8.09922C92.2996 8.96589 92.4996 9.66589 92.8996 10.1992C93.2996 10.7326 93.8329 10.9992 94.4996 10.9992C95.2329 10.9992 95.7996 10.7326 96.1996 10.1992C96.5996 9.66589 96.7996 8.93255 96.7996 7.99922C96.7996 7.13255 96.5996 6.39922 96.1996 5.79922C95.7996 5.26588 95.2329 4.99922 94.4996 4.99922C93.8329 4.99922 93.2996 5.26588 92.8996 5.79922C92.4996 6.33255 92.2996 7.09922 92.2996 8.09922ZM99.4996 7.99922C99.4996 7.19922 99.6329 6.49922 99.8996 5.89922C100.233 5.23255 100.666 4.73255 101.2 4.39922C101.733 4.06589 102.366 3.89922 103.1 3.89922C104.166 3.89922 105.033 4.26589 105.7 4.99922C106.366 5.79922 106.7 6.79922 106.7 7.99922V8.09922C106.7 8.89922 106.566 9.59922 106.3 10.1992C105.966 10.7992 105.533 11.2659 105 11.5992C104.466 11.9326 103.833 12.0992 103.1 12.0992C102.033 12.0992 101.166 11.7326 100.5 10.9992C99.8329 10.2659 99.4996 9.26589 99.4996 7.99922ZM100.9 8.09922C100.9 8.96589 101.1 9.66589 101.5 10.1992C101.9 10.7326 102.433 10.9992 103.1 10.9992C103.766 10.9992 104.3 10.7326 104.7 10.1992C105.166 9.66589 105.4 8.93255 105.4 7.99922C105.4 7.13255 105.166 6.39922 104.7 5.79922C104.3 5.26588 103.766 4.99922 103.1 4.99922C102.433 4.99922 101.9 5.26588 101.5 5.79922C101.1 6.33255 100.9 7.09922 100.9 8.09922ZM112.2 3.99922V5.29922C112 5.23255 111.8 5.19922 111.6 5.19922C110.666 5.19922 110.066 5.59922 109.8 6.39922V11.9992H108.4V4.09922H109.7V4.99922C110.166 4.26589 110.8 3.89922 111.6 3.89922C111.866 3.89922 112.066 3.93255 112.2 3.99922ZM120.6 7.19922C119.333 6.86589 118.433 6.46589 117.9 5.99922C117.366 5.46589 117.1 4.83255 117.1 4.09922C117.1 3.23255 117.433 2.53255 118.1 1.99922C118.766 1.46589 119.633 1.19922 120.7 1.19922C121.433 1.19922 122.1 1.33255 122.7 1.59922C123.233 1.86589 123.666 2.26588 124 2.79922C124.333 3.26588 124.5 3.79922 124.5 4.39922H123.1C123.1 3.73255 122.9 3.23255 122.5 2.89922C122.033 2.49922 121.433 2.29922 120.7 2.29922C120.033 2.29922 119.5 2.46588 119.1 2.79922C118.7 3.13255 118.5 3.56589 118.5 4.09922C118.5 4.49922 118.7 4.86589 119.1 5.19922C119.433 5.46589 120.033 5.73255 120.9 5.99922C121.833 6.26589 122.533 6.53255 123 6.79922C123.533 7.13255 123.9 7.49922 124.1 7.89922C124.366 8.29922 124.5 8.76588 124.5 9.29922C124.5 10.1659 124.166 10.8659 123.5 11.3992C122.833 11.8659 121.933 12.0992 120.8 12.0992C120.066 12.0992 119.366 11.9659 118.7 11.6992C118.1 11.4326 117.633 11.0659 117.3 10.5992C116.966 10.0659 116.8 9.49922 116.8 8.89922H118.2C118.2 9.56589 118.433 10.0659 118.9 10.3992C119.366 10.7992 120 10.9992 120.8 10.9992C121.533 10.9992 122.1 10.8326 122.5 10.4992C122.9 10.2326 123.1 9.83255 123.1 9.29922C123.1 8.76588 122.9 8.36589 122.5 8.09922C122.166 7.83255 121.533 7.53255 120.6 7.19922ZM126.6 2.09922H127.9V4.09922H129.4V5.09922H127.9V9.99922C127.9 10.3326 127.966 10.5659 128.1 10.6992C128.233 10.8992 128.466 10.9992 128.8 10.9992C128.933 10.9992 129.133 10.9659 129.4 10.8992V11.9992C129.066 12.0659 128.733 12.0992 128.4 12.0992C127.8 12.0992 127.333 11.9326 127 11.5992C126.733 11.1992 126.6 10.6659 126.6 9.99922V5.09922H125.1V4.09922H126.6V2.09922ZM134.8 3.89922V5.19922C134.6 5.13255 134.4 5.09922 134.2 5.09922C133.266 5.09922 132.666 5.49922 132.4 6.29922V11.8992H131V3.99922H132.3V4.89922C132.766 4.16589 133.4 3.79922 134.2 3.79922C134.466 3.79922 134.666 3.83255 134.8 3.89922ZM139.2 12.0992C138.133 12.0992 137.266 11.7326 136.6 10.9992C135.933 10.2659 135.6 9.33255 135.6 8.19922V7.89922C135.6 7.09922 135.733 6.39922 136 5.79922C136.333 5.19922 136.766 4.73255 137.3 4.39922C137.833 3.99922 138.433 3.79922 139.1 3.79922C140.1 3.79922 140.9 4.16589 141.5 4.89922C142.033 5.56589 142.3 6.53255 142.3 7.79922V8.29922H136.9C136.966 9.09922 137.2 9.73255 137.6 10.1992C138.066 10.6659 138.633 10.8992 139.3 10.8992C139.766 10.8992 140.166 10.8326 140.5 10.6992C140.833 10.4992 141.133 10.2326 141.4 9.89922L142.2 10.4992C141.533 11.5659 140.533 12.0992 139.2 12.0992ZM139.1 4.99922C138.5 4.99922 138.033 5.19922 137.7 5.59922C137.3 5.93255 137.066 6.46589 137 7.19922H141V7.09922C140.933 6.43255 140.733 5.89922 140.4 5.49922C140.066 5.16589 139.633 4.99922 139.1 4.99922ZM147.2 12.0992C146.133 12.0992 145.233 11.7326 144.5 10.9992C143.833 10.2659 143.5 9.33255 143.5 8.19922V7.89922C143.5 7.09922 143.666 6.39922 144 5.79922C144.266 5.19922 144.666 4.73255 145.2 4.39922C145.8 3.99922 146.4 3.79922 147 3.79922C148 3.79922 148.8 4.16589 149.4 4.89922C150 5.56589 150.3 6.53255 150.3 7.79922V8.29922H144.9C144.9 9.09922 145.133 9.73255 145.6 10.1992C146 10.6659 146.533 10.8992 147.2 10.8992C147.733 10.8992 148.166 10.8326 148.5 10.6992C148.833 10.4992 149.1 10.2326 149.3 9.89922L150.2 10.4992C149.533 11.5659 148.533 12.0992 147.2 12.0992ZM147 4.99922C146.466 4.99922 146 5.19922 145.6 5.59922C145.266 5.93255 145.033 6.46589 144.9 7.19922H148.9V7.09922C148.833 6.43255 148.633 5.89922 148.3 5.49922C147.966 5.16589 147.533 4.99922 147 4.99922ZM152.3 2.09922H153.7V3.99922H155.1V4.99922H153.7V9.89922C153.7 10.2326 153.766 10.4992 153.9 10.6992C154.033 10.8326 154.233 10.8992 154.5 10.8992C154.7 10.8992 154.933 10.8659 155.2 10.7992V11.8992C154.8 12.0326 154.433 12.0992 154.1 12.0992C153.5 12.0992 153.066 11.8992 152.8 11.4992C152.466 11.1659 152.3 10.6326 152.3 9.89922V4.99922H150.9V3.99922H152.3V2.09922ZM156.7 14.0992L155.9 13.4992C156.366 12.8992 156.6 12.2326 156.6 11.4992V10.2992H158V11.3992C158 11.8659 157.866 12.3659 157.6 12.8992C157.333 13.3659 157.033 13.7659 156.7 14.0992ZM163.6 1.29922H165.4L168.9 9.99922L172.4 1.29922H174.2V11.8992H172.8V7.79922L172.9 3.29922L169.4 11.8992H168.4L164.9 3.29922L165 7.79922V11.8992H163.6V1.29922ZM181.4 11.9992V11.1992C180.866 11.7992 180.066 12.0992 179 12.0992C178.2 12.0992 177.566 11.8659 177.1 11.3992C176.7 10.9326 176.466 10.1992 176.4 9.19922V4.09922H177.8V9.19922C177.8 10.3992 178.3 10.9992 179.3 10.9992C180.3 10.9992 180.966 10.5992 181.3 9.79922V4.09922H182.7V11.9992H181.4ZM184.7 4.09922H186V4.89922C186.6 4.23255 187.4 3.89922 188.4 3.89922C189.533 3.89922 190.3 4.33255 190.7 5.19922C190.966 4.79922 191.3 4.49922 191.7 4.29922C192.1 4.03255 192.6 3.89922 193.2 3.89922C194.933 3.89922 195.8 4.83255 195.8 6.69922V11.9992H194.5V6.79922C194.5 6.19922 194.366 5.76589 194.1 5.49922C193.833 5.23255 193.4 5.09922 192.8 5.09922C192.266 5.09922 191.833 5.23255 191.5 5.49922C191.166 5.83255 191 6.23255 191 6.69922V11.9992H189.6V6.79922C189.6 5.66588 189.033 5.09922 187.9 5.09922C187.033 5.09922 186.433 5.46589 186.1 6.19922V11.9992H184.7V4.09922ZM204.6 7.99922V8.09922C204.6 9.36589 204.333 10.3659 203.8 11.0992C203.2 11.8326 202.433 12.1992 201.5 12.1992C200.5 12.1992 199.733 11.8326 199.2 11.0992L199.1 11.9992H197.9V0.799219H199.2V4.99922C199.8 4.26589 200.566 3.89922 201.5 3.89922C202.433 3.89922 203.2 4.26589 203.8 4.99922C204.333 5.73255 204.6 6.73255 204.6 7.99922ZM203.2 7.99922C203.2 7.06589 203.033 6.33255 202.7 5.79922C202.366 5.33255 201.866 5.09922 201.2 5.09922C200.266 5.09922 199.6 5.49922 199.2 6.29922V9.79922C199.666 10.5992 200.333 10.9992 201.2 10.9992C201.866 10.9992 202.366 10.7659 202.7 10.2992C203.033 9.76588 203.2 8.99922 203.2 7.99922ZM212.6 11.9992H211.2C211.133 11.8659 211.066 11.5992 211 11.1992C210.4 11.8659 209.633 12.1992 208.7 12.1992C207.966 12.1992 207.333 11.9659 206.8 11.4992C206.333 11.0326 206.1 10.4659 206.1 9.79922C206.1 8.99922 206.4 8.36589 207 7.89922C207.666 7.43255 208.566 7.19922 209.7 7.19922H211V6.59922C211 6.13255 210.866 5.76589 210.6 5.49922C210.266 5.16589 209.833 4.99922 209.3 4.99922C208.833 4.99922 208.433 5.13255 208.1 5.39922C207.766 5.66589 207.6 5.96588 207.6 6.29922H206.2C206.2 5.89922 206.366 5.49922 206.7 5.09922C206.966 4.76589 207.333 4.49922 207.8 4.29922C208.266 4.03255 208.8 3.89922 209.4 3.89922C210.333 3.89922 211.033 4.13255 211.5 4.59922C212.033 5.06589 212.3 5.69922 212.3 6.49922V10.1992C212.3 10.9326 212.4 11.4992 212.6 11.8992V11.9992ZM208.9 10.9992C209.366 10.9992 209.8 10.8659 210.2 10.5992C210.533 10.3992 210.8 10.1326 211 9.79922V8.19922H209.9C208.233 8.19922 207.4 8.66589 207.4 9.59922C207.4 9.99922 207.566 10.3326 207.9 10.5992C208.166 10.8659 208.5 10.9992 208.9 10.9992ZM215.9 4.09922V11.9992H214.6V4.09922H215.9ZM214.4 1.99922C214.4 1.73255 214.466 1.53255 214.6 1.39922C214.733 1.26589 214.933 1.19922 215.2 1.19922C215.466 1.19922 215.666 1.26589 215.8 1.39922C215.933 1.53255 216 1.73255 216 1.99922C216 2.19922 215.933 2.36589 215.8 2.49922C215.666 2.63255 215.466 2.69922 215.2 2.69922C214.933 2.69922 214.733 2.63255 214.6 2.49922C214.466 2.36589 214.4 2.19922 214.4 1.99922Z" fill="white"/>
</svg>
