<svg width="73" height="38" viewBox="0 0 73 38" fill="none" xmlns="http://www.w3.org/2000/svg">
<path d="M14.5004 0.300781H9.50037L9.80035 7.50098H14.3004L14.5004 0.300781ZM14.2004 30.6011H9.70038L9.50037 37.501H14.4004L14.2004 30.6011ZM17.0004 13.501L22.1003 10.6011C21.567 9.60107 20.867 8.63451 20.0004 7.70117C19.1337 6.83451 18.0337 6.10098 16.7003 5.50098C15.4337 4.96764 13.8337 4.70117 11.9004 4.70117C9.96706 4.70117 8.23371 5.03451 6.70038 5.70117C5.23371 6.43451 4.10035 7.36764 3.30035 8.50098C2.43369 9.63431 2.00037 10.9008 2.00037 12.3008C2.00037 13.6341 2.26702 14.8008 2.80035 15.8008C3.33369 16.7341 3.96705 17.5674 4.70038 18.3008C5.50038 18.9674 6.33371 19.5343 7.20038 20.001C8.06705 20.401 8.86701 20.7343 9.60034 21.001C10.667 21.401 11.6337 21.8012 12.5004 22.2012C13.367 22.5345 14.067 22.9676 14.6003 23.501C15.1337 23.9676 15.4004 24.5674 15.4004 25.3008C15.4004 25.9008 15.267 26.4342 15.0004 26.9009C14.7337 27.3009 14.3671 27.6008 13.9004 27.8008C13.3671 28.0008 12.7004 28.1011 11.9004 28.1011C10.9671 28.1011 10.1004 27.901 9.30035 27.501C8.50035 27.1676 7.76701 26.6342 7.10034 25.9009C6.43368 25.1009 5.76701 24.1677 5.10034 23.1011L0.400391 26.4009C1.00039 27.6675 1.86703 28.8342 3.00037 29.9009C4.1337 30.9675 5.43372 31.8343 6.90039 32.501C8.43372 33.1676 10.0337 33.501 11.7004 33.501C13.967 33.501 15.9004 33.1676 17.5004 32.501C19.1004 31.901 20.3337 30.9678 21.2003 29.7012C22.067 28.5012 22.5004 27.0341 22.5004 25.3008C22.5004 24.0341 22.3004 22.9677 21.9004 22.1011C21.5004 21.1677 20.9671 20.3344 20.3004 19.6011C19.6337 18.9344 18.9003 18.3675 18.1003 17.9009C17.2337 17.3675 16.3004 16.9344 15.3004 16.6011C14.2337 16.1344 13.2004 15.7342 12.2004 15.4009C11.2004 15.0675 10.4004 14.6344 9.80035 14.1011C9.20035 13.6344 8.90039 13.0012 8.90039 12.2012C8.90039 11.7345 9.03369 11.3009 9.30035 10.9009C9.50035 10.5675 9.83369 10.2676 10.3004 10.001C10.767 9.80098 11.367 9.70117 12.1003 9.70117C12.8337 9.70117 13.5003 9.83441 14.1003 10.1011C14.6337 10.4344 15.167 10.901 15.7004 11.501C16.167 12.101 16.6004 12.7676 17.0004 13.501ZM25.1003 5.10107V11.4009H38.1003L27.1003 33.1011H34.5004L48.0004 5.10107H25.1003ZM66.1003 14.9009C66.1003 15.8342 65.8671 16.6675 65.4004 17.4009C65.0004 18.1342 64.4671 18.7011 63.8004 19.1011C63.0671 19.5011 62.2671 19.7012 61.4004 19.7012C60.4671 19.7012 59.667 19.5011 59.0004 19.1011C58.267 18.7011 57.7004 18.1342 57.3004 17.4009C56.9004 16.6675 56.7003 15.8342 56.7003 14.9009C56.7003 13.9675 56.9004 13.1676 57.3004 12.501C57.7004 11.7676 58.267 11.2008 59.0004 10.8008C59.667 10.4008 60.4671 10.2012 61.4004 10.2012C62.2671 10.2012 63.0671 10.4008 63.8004 10.8008C64.4671 11.2008 65.0004 11.7676 65.4004 12.501C65.8671 13.1676 66.1003 13.9675 66.1003 14.9009ZM52.9004 33.001H61.4004L69.5004 22.7012C70.4337 21.5678 71.2004 20.3677 71.8004 19.1011C72.4671 17.8344 72.8004 16.4342 72.8004 14.9009C72.8004 12.6342 72.267 10.7011 71.2003 9.10107C70.2003 7.56774 68.8337 6.43451 67.1003 5.70117C65.367 4.90117 63.4671 4.50098 61.4004 4.50098C59.2671 4.50098 57.3337 4.90117 55.6003 5.70117C53.9337 6.43451 52.567 7.56774 51.5004 9.10107C50.5004 10.7011 50.0004 12.6342 50.0004 14.9009C50.0004 16.3675 50.2671 17.6345 50.8004 18.7012C51.2671 19.8345 51.9337 20.8011 52.8004 21.6011C53.6004 22.4011 54.5004 23.0009 55.5004 23.4009C56.567 23.8009 57.6003 24.001 58.6003 24.001C59.667 24.001 60.5337 23.9012 61.2003 23.7012C61.867 23.4345 62.5671 22.9674 63.3004 22.3008L62.0004 22.9009L52.9004 33.001Z" fill="#FF5219"/>
</svg>
