<svg width="169" height="30" viewBox="0 0 169 30" fill="none" xmlns="http://www.w3.org/2000/svg">
<path d="M16.0996 10.8003C16.0996 11.7336 15.8996 12.567 15.4996 13.3003C15.0996 14.0336 14.533 14.6005 13.7996 15.0005C13.133 15.4005 12.3663 15.6006 11.4996 15.6006C10.5663 15.6006 9.73297 15.4005 8.99963 15.0005C8.33297 14.6005 7.76629 14.0336 7.29962 13.3003C6.89962 12.567 6.69965 11.7336 6.69965 10.8003C6.69965 9.86696 6.89962 9.06706 7.29962 8.40039C7.76629 7.66706 8.33297 7.10068 8.99963 6.70068C9.73297 6.30068 10.5663 6.10059 11.4996 6.10059C12.3663 6.10059 13.133 6.30068 13.7996 6.70068C14.533 7.10068 15.0996 7.66706 15.4996 8.40039C15.8996 9.06706 16.0996 9.86696 16.0996 10.8003ZM2.89966 28.9004H11.4996L19.5996 18.6006C20.4663 17.4673 21.233 16.2672 21.8997 15.0005C22.4997 13.7338 22.7996 12.3336 22.7996 10.8003C22.7996 8.53363 22.2996 6.60049 21.2996 5.00049C20.233 3.46715 18.8329 2.33392 17.0996 1.60059C15.4329 0.800586 13.5663 0.400391 11.4996 0.400391C9.3663 0.400391 7.43298 0.800586 5.69965 1.60059C3.96631 2.33392 2.59961 3.46715 1.59961 5.00049C0.599609 6.60049 0.0996094 8.53363 0.0996094 10.8003C0.0996094 12.267 0.332955 13.5339 0.799622 14.6006C1.33295 15.7339 1.99962 16.7005 2.79962 17.5005C3.66629 18.3005 4.59961 18.9003 5.59961 19.3003C6.59961 19.7003 7.63298 19.9004 8.69965 19.9004C9.69965 19.9004 10.533 19.8006 11.1996 19.6006C11.933 19.3339 12.6663 18.8674 13.3997 18.2007L11.9996 18.8003L2.89966 28.9004ZM32.8997 15.0005C32.8997 13.6672 33.033 12.4671 33.2996 11.4004C33.4996 10.3337 33.833 9.43402 34.2996 8.70068C34.7663 7.90068 35.2997 7.30039 35.8997 6.90039C36.5663 6.50039 37.2663 6.30029 37.9996 6.30029C38.7996 6.30029 39.4996 6.50039 40.0996 6.90039C40.7663 7.30039 41.333 7.90068 41.7996 8.70068C42.1996 9.43402 42.533 10.3337 42.7996 11.4004C43.0663 12.4671 43.1996 13.6672 43.1996 15.0005C43.1996 16.2672 43.0663 17.4673 42.7996 18.6006C42.533 19.6673 42.1996 20.567 41.7996 21.3003C41.333 22.1003 40.7663 22.7006 40.0996 23.1006C39.4996 23.5006 38.7996 23.7007 37.9996 23.7007C37.2663 23.7007 36.5663 23.5006 35.8997 23.1006C35.2997 22.7006 34.7663 22.1003 34.2996 21.3003C33.833 20.567 33.4996 19.6673 33.2996 18.6006C33.033 17.4673 32.8997 16.2672 32.8997 15.0005ZM26.3997 15.0005C26.3997 18.0005 26.8663 20.6003 27.7996 22.8003C28.7996 24.9336 30.1996 26.6003 31.9996 27.8003C33.733 28.9336 35.733 29.5005 37.9996 29.5005C40.3996 29.5005 42.4663 28.9336 44.1996 27.8003C45.933 26.6003 47.2663 24.9336 48.1996 22.8003C49.1996 20.6003 49.6996 18.0005 49.6996 15.0005C49.6996 11.9338 49.1996 9.33402 48.1996 7.20068C47.2663 5.00068 45.933 3.33402 44.1996 2.20068C42.4663 1.06735 40.3996 0.500488 37.9996 0.500488C35.733 0.500488 33.733 1.06735 31.9996 2.20068C30.1996 3.33402 28.7996 5.00068 27.7996 7.20068C26.8663 9.33402 26.3997 11.9338 26.3997 15.0005ZM59.3997 15.0005C59.3997 13.6672 59.533 12.4671 59.7996 11.4004C59.9996 10.3337 60.333 9.43402 60.7996 8.70068C61.2663 7.90068 61.7997 7.30039 62.3997 6.90039C63.0663 6.50039 63.7663 6.30029 64.4996 6.30029C65.2996 6.30029 65.9996 6.50039 66.5996 6.90039C67.2663 7.30039 67.7996 7.90068 68.1996 8.70068C68.6663 9.43402 69.033 10.3337 69.2996 11.4004C69.4996 12.4671 69.5996 13.6672 69.5996 15.0005C69.5996 16.2672 69.4996 17.4673 69.2996 18.6006C69.033 19.6673 68.6663 20.567 68.1996 21.3003C67.7996 22.1003 67.2663 22.7006 66.5996 23.1006C65.9996 23.5006 65.2996 23.7007 64.4996 23.7007C63.7663 23.7007 63.0663 23.5006 62.3997 23.1006C61.7997 22.7006 61.2663 22.1003 60.7996 21.3003C60.333 20.567 59.9996 19.6673 59.7996 18.6006C59.533 17.4673 59.3997 16.2672 59.3997 15.0005ZM52.8997 15.0005C52.8997 18.0005 53.3663 20.6003 54.2996 22.8003C55.2996 24.9336 56.6663 26.6003 58.3997 27.8003C60.1997 28.9336 62.233 29.5005 64.4996 29.5005C66.8996 29.5005 68.9663 28.9336 70.6996 27.8003C72.433 26.6003 73.7663 24.9336 74.6996 22.8003C75.6996 20.6003 76.1996 18.0005 76.1996 15.0005C76.1996 11.9338 75.6996 9.33402 74.6996 7.20068C73.7663 5.00068 72.433 3.33402 70.6996 2.20068C68.9663 1.06735 66.8996 0.500488 64.4996 0.500488C62.233 0.500488 60.1997 1.06735 58.3997 2.20068C56.6663 3.33402 55.2996 5.00068 54.2996 7.20068C53.3663 9.33402 52.8997 11.9338 52.8997 15.0005ZM80.3997 26.3003C80.3997 27.3003 80.7663 28.1671 81.4996 28.9004C82.233 29.5671 83.133 29.9004 84.1996 29.9004C85.333 29.9004 86.233 29.5671 86.8997 28.9004C87.633 28.1671 87.9996 27.3003 87.9996 26.3003C87.9996 25.2336 87.633 24.3674 86.8997 23.7007C86.233 22.9674 85.333 22.6006 84.1996 22.6006C83.133 22.6006 82.233 22.9674 81.4996 23.7007C80.7663 24.3674 80.3997 25.2336 80.3997 26.3003ZM98.7996 15.0005C98.7996 13.6672 98.8996 12.4671 99.0996 11.4004C99.3663 10.3337 99.733 9.43402 100.2 8.70068C100.6 7.90068 101.133 7.30039 101.8 6.90039C102.4 6.50039 103.1 6.30029 103.9 6.30029C104.633 6.30029 105.333 6.50039 106 6.90039C106.6 7.30039 107.133 7.90068 107.6 8.70068C108.066 9.43402 108.4 10.3337 108.6 11.4004C108.866 12.4671 109 13.6672 109 15.0005C109 16.2672 108.866 17.4673 108.6 18.6006C108.4 19.6673 108.066 20.567 107.6 21.3003C107.133 22.1003 106.6 22.7006 106 23.1006C105.333 23.5006 104.633 23.7007 103.9 23.7007C103.1 23.7007 102.4 23.5006 101.8 23.1006C101.133 22.7006 100.6 22.1003 100.2 21.3003C99.733 20.567 99.3663 19.6673 99.0996 18.6006C98.8996 17.4673 98.7996 16.2672 98.7996 15.0005ZM92.1996 15.0005C92.1996 18.0005 92.6996 20.6003 93.6996 22.8003C94.6996 24.9336 96.0663 26.6003 97.7996 27.8003C99.533 28.9336 101.566 29.5005 103.9 29.5005C106.233 29.5005 108.266 28.9336 110 27.8003C111.8 26.6003 113.166 24.9336 114.1 22.8003C115.033 20.6003 115.5 18.0005 115.5 15.0005C115.5 11.9338 115.033 9.33402 114.1 7.20068C113.166 5.00068 111.8 3.33402 110 2.20068C108.266 1.06735 106.233 0.500488 103.9 0.500488C101.566 0.500488 99.533 1.06735 97.7996 2.20068C96.0663 3.33402 94.6996 5.00068 93.6996 7.20068C92.6996 9.33402 92.1996 11.9338 92.1996 15.0005ZM125.2 15.0005C125.2 13.6672 125.333 12.4671 125.6 11.4004C125.866 10.3337 126.2 9.43402 126.6 8.70068C127.066 7.90068 127.6 7.30039 128.2 6.90039C128.866 6.50039 129.6 6.30029 130.4 6.30029C131.133 6.30029 131.8 6.50039 132.4 6.90039C133.066 7.30039 133.633 7.90068 134.1 8.70068C134.566 9.43402 134.9 10.3337 135.1 11.4004C135.366 12.4671 135.5 13.6672 135.5 15.0005C135.5 16.2672 135.366 17.4673 135.1 18.6006C134.9 19.6673 134.566 20.567 134.1 21.3003C133.633 22.1003 133.066 22.7006 132.4 23.1006C131.8 23.5006 131.133 23.7007 130.4 23.7007C129.6 23.7007 128.866 23.5006 128.2 23.1006C127.6 22.7006 127.066 22.1003 126.6 21.3003C126.2 20.567 125.866 19.6673 125.6 18.6006C125.333 17.4673 125.2 16.2672 125.2 15.0005ZM118.7 15.0005C118.7 18.0005 119.2 20.6003 120.2 22.8003C121.133 24.9336 122.5 26.6003 124.3 27.8003C126.033 28.9336 128.066 29.5005 130.4 29.5005C132.733 29.5005 134.766 28.9336 136.5 27.8003C138.3 26.6003 139.666 24.9336 140.6 22.8003C141.533 20.6003 142 18.0005 142 15.0005C142 11.9338 141.533 9.33402 140.6 7.20068C139.666 5.00068 138.3 3.33402 136.5 2.20068C134.766 1.06735 132.733 0.500488 130.4 0.500488C128.066 0.500488 126.033 1.06735 124.3 2.20068C122.5 3.33402 121.133 5.00068 120.2 7.20068C119.2 9.33402 118.7 11.9338 118.7 15.0005ZM151.7 15.0005C151.7 13.6672 151.833 12.4671 152.1 11.4004C152.3 10.3337 152.633 9.43402 153.1 8.70068C153.566 7.90068 154.1 7.30039 154.7 6.90039C155.366 6.50039 156.066 6.30029 156.8 6.30029C157.6 6.30029 158.3 6.50039 158.9 6.90039C159.566 7.30039 160.133 7.90068 160.6 8.70068C161 9.43402 161.333 10.3337 161.6 11.4004C161.866 12.4671 162 13.6672 162 15.0005C162 16.2672 161.866 17.4673 161.6 18.6006C161.333 19.6673 161 20.567 160.6 21.3003C160.133 22.1003 159.566 22.7006 158.9 23.1006C158.3 23.5006 157.6 23.7007 156.8 23.7007C156.066 23.7007 155.366 23.5006 154.7 23.1006C154.1 22.7006 153.566 22.1003 153.1 21.3003C152.633 20.567 152.3 19.6673 152.1 18.6006C151.833 17.4673 151.7 16.2672 151.7 15.0005ZM145.2 15.0005C145.2 18.0005 145.666 20.6003 146.6 22.8003C147.6 24.9336 149 26.6003 150.8 27.8003C152.533 28.9336 154.533 29.5005 156.8 29.5005C159.2 29.5005 161.266 28.9336 163 27.8003C164.733 26.6003 166.066 24.9336 167 22.8003C168 20.6003 168.5 18.0005 168.5 15.0005C168.5 11.9338 168 9.33402 167 7.20068C166.066 5.00068 164.733 3.33402 163 2.20068C161.266 1.06735 159.2 0.500488 156.8 0.500488C154.533 0.500488 152.533 1.06735 150.8 2.20068C149 3.33402 147.6 5.00068 146.6 7.20068C145.666 9.33402 145.2 11.9338 145.2 15.0005Z" fill="#FF5219"/>
</svg>
