<svg width="89" height="13" viewBox="0 0 89 13" fill="none" xmlns="http://www.w3.org/2000/svg">
<path d="M8.50018 11.9992L7.60016 9.49921H3.50018L2.7002 11.9992H0.700195L4.80017 1.29919H6.40021L10.5002 11.9992H8.50018ZM5.50018 3.59918L4.00018 7.99921H7.10016L5.50018 3.59918ZM11.5002 0.799194V1.69922L11.3002 4.59918H10.2002V0.799194H11.5002ZM20.4002 2.49921L14.9002 10.4992H20.6002V11.9992H12.6002V10.7992L18.2002 2.89923H12.7002V1.39923H20.4002V2.49921ZM30.5002 6.29919V6.89923C30.5002 7.9659 30.3002 8.89922 29.9002 9.69922C29.5669 10.4326 29.0669 11.0325 28.4002 11.4992C27.7335 11.8992 26.9668 12.0992 26.1002 12.0992C25.2335 12.0992 24.4668 11.8992 23.8002 11.4992C23.1335 11.0325 22.6002 10.4326 22.2002 9.69922C21.8002 8.89922 21.6002 7.99921 21.6002 6.99921V6.39923C21.6002 5.33256 21.8002 4.39918 22.2002 3.59918C22.5335 2.79918 23.0668 2.19919 23.8002 1.79919C24.4668 1.33253 25.2335 1.09918 26.1002 1.09918C26.9668 1.09918 27.7335 1.33253 28.4002 1.79919C29.0669 2.19919 29.5669 2.79918 29.9002 3.59918C30.3002 4.33252 30.5002 5.23253 30.5002 6.29919ZM28.6002 6.89923V6.29919C28.6002 5.16586 28.4002 4.26585 28.0002 3.59918C27.5335 2.99918 26.9002 2.69922 26.1002 2.69922C25.3002 2.69922 24.6669 2.99918 24.2002 3.59918C23.7335 4.26585 23.5002 5.16586 23.5002 6.29919V6.89923C23.5002 8.09923 23.7335 8.99918 24.2002 9.59918C24.6669 10.2658 25.3002 10.5992 26.1002 10.5992C26.9002 10.5992 27.5335 10.2658 28.0002 9.59918C28.4002 8.99918 28.6002 8.09923 28.6002 6.89923ZM40.0002 11.9992H36.1002V1.29919H39.7002C40.9002 1.29919 41.8335 1.53254 42.5002 1.99921C43.1002 2.46587 43.4002 3.19922 43.4002 4.19922C43.4002 4.66589 43.2668 5.09921 43.0002 5.49921C42.7335 5.89921 42.3669 6.19923 41.9002 6.39923C42.4335 6.53256 42.8669 6.83253 43.2002 7.29919C43.5335 7.69919 43.7002 8.19919 43.7002 8.79919C43.7002 9.79919 43.3669 10.5658 42.7002 11.0992C42.1002 11.6992 41.2002 11.9992 40.0002 11.9992ZM40.1002 7.09918H37.9002V10.4992H40.0002C40.6002 10.4992 41.0335 10.3325 41.3002 9.99921C41.6335 9.73254 41.8002 9.33253 41.8002 8.79919C41.8002 7.73253 41.2335 7.16585 40.1002 7.09918ZM37.9002 2.79919V5.79919H39.7002C40.3002 5.79919 40.7668 5.6659 41.1002 5.39923C41.4335 5.13256 41.6002 4.76586 41.6002 4.29919C41.6002 3.76586 41.4335 3.36585 41.1002 3.09918C40.8335 2.89918 40.3669 2.79919 39.7002 2.79919H37.9002ZM54.0002 6.29919V6.89923C54.0002 7.9659 53.8335 8.89922 53.5002 9.69922C53.1668 10.4326 52.6668 11.0325 52.0002 11.4992C51.2668 11.8992 50.4668 12.0992 49.6002 12.0992C48.7335 12.0992 47.9668 11.8992 47.3002 11.4992C46.6335 11.0325 46.1335 10.4326 45.8002 9.69922C45.4002 8.89922 45.2002 7.99921 45.2002 6.99921V6.39923C45.2002 5.33256 45.3669 4.39918 45.7002 3.59918C46.1002 2.79918 46.6335 2.19919 47.3002 1.79919C47.9668 1.33253 48.7335 1.09918 49.6002 1.09918C50.4668 1.09918 51.2335 1.33253 51.9002 1.79919C52.5669 2.19919 53.1002 2.79918 53.5002 3.59918C53.8335 4.33252 54.0002 5.23253 54.0002 6.29919ZM52.2002 6.89923V6.29919C52.2002 5.16586 51.9668 4.26585 51.5002 3.59918C51.1002 2.99918 50.4668 2.69922 49.6002 2.69922C48.8002 2.69922 48.1669 2.99918 47.7002 3.59918C47.3002 4.26585 47.1002 5.16586 47.1002 6.29919V6.89923C47.1002 8.09923 47.3002 8.99918 47.7002 9.59918C48.1669 10.2658 48.8002 10.5992 49.6002 10.5992C50.4668 10.5992 51.1002 10.2658 51.5002 9.59918C51.9668 8.99918 52.2002 8.09923 52.2002 6.89923ZM56.8002 0.699219V1.59918L56.6002 4.49921H55.4002V0.699219H56.8002ZM60.3002 1.29919V10.4992H65.2002V11.9992H58.5002V1.29919H60.3002ZM68.5002 1.29919V11.9992H66.6002V1.29919H68.5002ZM76.4002 9.19922C76.4002 8.73255 76.2335 8.36585 75.9002 8.09918C75.5669 7.83252 74.9668 7.59923 74.1002 7.39923C73.2335 7.13256 72.5668 6.83254 72.1002 6.49921C71.1002 5.89921 70.6002 5.09918 70.6002 4.09918C70.6002 3.23252 70.9669 2.53254 71.7002 1.99921C72.3669 1.39921 73.2669 1.09918 74.4002 1.09918C75.1335 1.09918 75.8002 1.26585 76.4002 1.59918C76.9335 1.86585 77.3669 2.23255 77.7002 2.69922C78.0335 3.23255 78.2002 3.79923 78.2002 4.39923H76.4002C76.4002 3.8659 76.2335 3.43252 75.9002 3.09918C75.5002 2.76585 75.0002 2.59918 74.4002 2.59918C73.8002 2.59918 73.3335 2.73254 73.0002 2.99921C72.6668 3.26587 72.5002 3.63252 72.5002 4.09918C72.5002 4.49918 72.6668 4.83252 73.0002 5.09918C73.3335 5.36585 73.9335 5.59919 74.8002 5.79919C75.6002 6.06586 76.2668 6.36589 76.8002 6.69922C77.2668 6.96589 77.6335 7.33253 77.9002 7.79919C78.1002 8.19919 78.2002 8.66589 78.2002 9.19922C78.2002 10.0659 77.8669 10.7659 77.2002 11.2992C76.5335 11.8325 75.6335 12.0992 74.5002 12.0992C73.7002 12.0992 72.9668 11.9659 72.3002 11.6992C71.7002 11.3659 71.2002 10.9659 70.8002 10.4992C70.4668 9.96587 70.3002 9.36589 70.3002 8.69922H72.1002C72.1002 9.29922 72.3002 9.76585 72.7002 10.0992C73.1002 10.4325 73.7002 10.5992 74.5002 10.5992C75.1002 10.5992 75.5669 10.4659 75.9002 10.1992C76.2335 9.93255 76.4002 9.59922 76.4002 9.19922ZM88.3002 1.29919V11.9992H86.5002V7.19922H81.7002V11.9992H79.9002V1.29919H81.7002V5.69922H86.5002V1.29919H88.3002Z" fill="white"/>
</svg>
