<svg width="325" height="25" viewBox="0 0 325 25" fill="none" xmlns="http://www.w3.org/2000/svg">
<path d="M13 18.9993L11.6 14.8992H4.70001L3.29999 18.9993H0L6.79999 1.19922H9.5L16.3 18.9993H13ZM8.09998 4.99927L5.5 12.3992H10.6L8.09998 4.99927ZM23.4 16.7993C24.1334 16.7993 24.7333 16.5992 25.2 16.1992C25.7333 15.7992 26 15.266 26 14.5994H28.8C28.8 15.3994 28.5666 16.1658 28.1 16.8992C27.5666 17.6325 26.9 18.1994 26.1 18.5994C25.3 18.9994 24.4 19.1992 23.4 19.1992C21.6 19.1992 20.1333 18.5992 19 17.3992C17.9333 16.1992 17.4 14.5659 17.4 12.4993V12.1992C17.4 10.1326 17.9333 8.49932 19 7.29932C20.0667 6.09932 21.5334 5.49927 23.4 5.49927C25 5.49927 26.3 5.96584 27.3 6.89917C28.3 7.8325 28.8 9.0326 28.8 10.4993H26C26 9.76593 25.7333 9.1327 25.2 8.59937C24.7333 8.1327 24.1334 7.89917 23.4 7.89917C22.4667 7.89917 21.7333 8.26593 21.2 8.99927C20.6667 9.66593 20.4 10.6994 20.4 12.0994V12.5994C20.4 13.9994 20.6667 15.066 21.2 15.7993C21.6667 16.466 22.4 16.7993 23.4 16.7993ZM42 18.9993H39C38.8667 18.7326 38.7333 18.2992 38.6 17.6992C37.6666 18.6992 36.5 19.1992 35.1 19.1992C33.8333 19.1992 32.7667 18.8327 31.9 18.0994C31.0334 17.2994 30.6 16.366 30.6 15.2993C30.6 13.8993 31.1333 12.7993 32.2 11.9993C33.2667 11.2659 34.7667 10.8992 36.7 10.8992H38.5V9.99927C38.5 9.3326 38.3 8.79917 37.9 8.39917C37.5667 7.99917 37 7.79932 36.2 7.79932C35.5333 7.79932 34.9667 7.96598 34.5 8.29932C34.1 8.63265 33.9 9.06603 33.9 9.59937H30.9C30.9 8.86603 31.1333 8.16593 31.6 7.49927C32.1333 6.89927 32.8 6.4327 33.6 6.09937C34.4 5.69937 35.3334 5.49927 36.4 5.49927C37.9334 5.49927 39.1666 5.89922 40.1 6.69922C40.9666 7.49922 41.4333 8.59927 41.5 9.99927V15.8992C41.5 17.0992 41.6667 18.066 42 18.7993V18.9993ZM35.7 16.7993C36.3 16.7993 36.8333 16.6658 37.3 16.3992C37.8333 16.1325 38.2333 15.766 38.5 15.2993V12.7993H36.9C35.8334 12.7993 35 12.966 34.4 13.2993C33.8667 13.6993 33.6 14.2659 33.6 14.9993C33.6 15.5326 33.8 15.966 34.2 16.2993C34.5333 16.6327 35.0333 16.7993 35.7 16.7993ZM44 12.2993C44 10.2326 44.5 8.59917 45.5 7.39917C46.4333 6.1325 47.6667 5.49927 49.2 5.49927C50.6 5.49927 51.7333 5.99927 52.6 6.99927V0.199219H55.6V18.9993H52.9L52.8 17.5994C51.8667 18.666 50.6667 19.1992 49.2 19.1992C47.6667 19.1992 46.4333 18.566 45.5 17.2993C44.5 16.0993 44 14.4326 44 12.2993ZM47 12.4993C47 13.8326 47.2667 14.8992 47.8 15.6992C48.3333 16.4326 49.0667 16.7993 50 16.7993C51.2 16.7993 52.0666 16.2659 52.6 15.1992V9.49927C52.0666 8.4326 51.2 7.89917 50 7.89917C49.0667 7.89917 48.3333 8.29937 47.8 9.09937C47.2667 9.8327 47 10.9659 47 12.4993ZM64.5 19.1992C62.6333 19.1992 61.1 18.5992 59.9 17.3992C58.7667 16.2658 58.2 14.6992 58.2 12.6992V12.2993C58.2 11.0326 58.4667 9.86598 59 8.79932C59.4667 7.73265 60.1666 6.9325 61.1 6.39917C62.0333 5.79917 63.0667 5.49927 64.2 5.49927C66 5.49927 67.3667 6.06589 68.3 7.19922C69.3 8.39922 69.8 10.0327 69.8 12.0994V13.2993H61.2C61.2667 14.366 61.6333 15.2325 62.3 15.8992C62.9 16.4992 63.7 16.7993 64.7 16.7993C66.0333 16.7993 67.1333 16.2659 68 15.1992L69.6 16.6992C69.0666 17.4992 68.3667 18.1327 67.5 18.5994C66.6333 18.9994 65.6333 19.1992 64.5 19.1992ZM64.2 7.89917C63.3333 7.89917 62.6667 8.16589 62.2 8.69922C61.6667 9.29922 61.3333 10.0994 61.2 11.0994H66.9V10.8992C66.8334 9.89917 66.5666 9.16588 66.1 8.69922C65.6333 8.16589 65 7.89917 64.2 7.89917ZM72.1 5.79932H74.9L75 7.09937C75.9333 6.0327 77.2 5.49927 78.8 5.49927C80.5333 5.49927 81.7334 6.16593 82.4 7.49927C83.4 6.16593 84.7667 5.49927 86.5 5.49927C87.9667 5.49927 89.0333 5.89922 89.7 6.69922C90.4333 7.49922 90.8 8.69932 90.8 10.2993V18.9993H87.9V10.3992C87.9 9.5325 87.7 8.89927 87.3 8.49927C86.9667 8.09927 86.3667 7.89917 85.5 7.89917C84.8333 7.89917 84.2667 8.09927 83.8 8.49927C83.4 8.8326 83.1 9.29917 82.9 9.89917L83 18.9993H80V10.2993C79.9333 8.69932 79.1333 7.89917 77.6 7.89917C76.4 7.89917 75.5666 8.39917 75.1 9.39917V18.9993H72.1V5.79932ZM97 5.79932V18.9993H94.1V5.79932H97ZM93.8 2.29932C93.8 1.89932 93.9333 1.53255 94.2 1.19922C94.5333 0.865885 94.9667 0.699219 95.5 0.699219C96.0333 0.699219 96.4333 0.865885 96.7 1.19922C97.0333 1.53255 97.2 1.89932 97.2 2.29932C97.2 2.76598 97.0333 3.16593 96.7 3.49927C96.4333 3.76593 96.0333 3.89917 95.5 3.89917C94.9667 3.89917 94.5333 3.76593 94.2 3.49927C93.9333 3.16593 93.8 2.76598 93.8 2.29932ZM105.6 16.7993C106.333 16.7993 106.967 16.5992 107.5 16.1992C107.967 15.7992 108.2 15.266 108.2 14.5994H111C111 15.3994 110.767 16.1658 110.3 16.8992C109.767 17.6325 109.1 18.1994 108.3 18.5994C107.5 18.9994 106.633 19.1992 105.7 19.1992C103.833 19.1992 102.367 18.5992 101.3 17.3992C100.167 16.1992 99.6 14.5659 99.6 12.4993V12.1992C99.6 10.1326 100.133 8.49932 101.2 7.29932C102.333 6.09932 103.8 5.49927 105.6 5.49927C107.2 5.49927 108.5 5.96584 109.5 6.89917C110.5 7.8325 111 9.0326 111 10.4993H108.2C108.2 9.76593 107.967 9.1327 107.5 8.59937C106.967 8.1327 106.333 7.89917 105.6 7.89917C104.667 7.89917 103.933 8.26593 103.4 8.99927C102.867 9.66593 102.6 10.6994 102.6 12.0994V12.5994C102.6 13.9994 102.867 15.066 103.4 15.7993C103.867 16.466 104.6 16.7993 105.6 16.7993ZM123 1.19922V18.9993H120V1.19922H123ZM137.2 8.59937V10.9993H129.9V16.4993H138.4V18.9993H126.8V1.19922H138.3V3.69922H129.9V8.59937H137.2ZM144 1.19922V16.4993H152.1V18.9993H140.9V1.19922H144ZM164.8 1.19922V3.69922H159.2V18.9993H156.2V3.69922H150.7V1.19922H164.8ZM176.2 14.3992C176.2 13.5992 175.933 12.9994 175.4 12.5994C174.867 12.1994 173.867 11.766 172.4 11.2993C171 10.8993 169.867 10.4325 169 9.89917C167.4 8.8325 166.6 7.49917 166.6 5.89917C166.6 4.4325 167.167 3.23265 168.3 2.29932C169.5 1.43265 171.033 0.999268 172.9 0.999268C174.1 0.999268 175.2 1.19937 176.2 1.59937C177.133 2.06603 177.9 2.7327 178.5 3.59937C179.033 4.46603 179.3 5.39917 179.3 6.39917H176.2C176.2 5.46584 175.9 4.73255 175.3 4.19922C174.767 3.66589 173.933 3.39917 172.8 3.39917C171.8 3.39917 171.033 3.6327 170.5 4.09937C169.9 4.49937 169.6 5.09917 169.6 5.89917C169.6 6.56584 169.933 7.09927 170.6 7.49927C171.2 7.96593 172.167 8.39932 173.5 8.79932C174.9 9.19932 176.033 9.66588 176.9 10.1992C177.7 10.7326 178.3 11.3326 178.7 11.9993C179.1 12.6659 179.3 13.4658 179.3 14.3992C179.3 15.8658 178.733 17.0325 177.6 17.8992C176.467 18.7658 174.933 19.1992 173 19.1992C171.667 19.1992 170.467 18.9659 169.4 18.4993C168.333 18.0326 167.5 17.3659 166.9 16.4993C166.3 15.6993 166 14.7327 166 13.5994H169.1C169.1 14.5994 169.433 15.3658 170.1 15.8992C170.767 16.4992 171.733 16.7993 173 16.7993C174.067 16.7993 174.867 16.566 175.4 16.0994C175.933 15.6994 176.2 15.1325 176.2 14.3992ZM198.6 8.59937V10.9993H191.3V16.4993H199.8V18.9993H188.2V1.19922H199.8V3.69922H191.3V8.59937H198.6ZM202 5.79932H204.8L204.9 7.29932C205.9 6.09932 207.2 5.49927 208.8 5.49927C211.533 5.49927 212.933 7.06589 213 10.1992V18.9993H210V10.3992C210 9.59917 209.8 8.99936 209.4 8.59937C209.067 8.19937 208.5 7.99927 207.7 7.99927C206.5 7.99927 205.6 8.5327 205 9.59937V18.9993H202V5.79932ZM215.5 12.2993C215.5 10.2326 215.967 8.59917 216.9 7.39917C217.9 6.1325 219.167 5.49927 220.7 5.49927C222.233 5.49927 223.433 6.0327 224.3 7.09937L224.4 5.79932H227.1V18.5994C227.1 20.3327 226.567 21.6992 225.5 22.6992C224.433 23.6992 222.967 24.1992 221.1 24.1992C220.167 24.1992 219.233 23.9994 218.3 23.5994C217.367 23.1994 216.667 22.6659 216.2 21.9993L217.6 20.1992C218.533 21.2659 219.667 21.7993 221 21.7993C221.933 21.7993 222.7 21.5326 223.3 20.9993C223.833 20.4659 224.1 19.6992 224.1 18.6992V17.7993C223.3 18.7326 222.167 19.1992 220.7 19.1992C219.167 19.1992 217.9 18.5992 216.9 17.3992C215.967 16.1325 215.5 14.4326 215.5 12.2993ZM218.4 12.4993C218.4 13.8326 218.667 14.8992 219.2 15.6992C219.733 16.4326 220.5 16.7993 221.5 16.7993C222.7 16.7993 223.567 16.2993 224.1 15.2993V9.49927C223.567 8.49927 222.7 7.99927 221.5 7.99927C220.5 7.99927 219.733 8.36603 219.2 9.09937C218.667 9.89937 218.4 11.0326 218.4 12.4993ZM233.3 0.199219V18.9993H230.3V0.199219H233.3ZM239.7 5.79932V18.9993H236.8V5.79932H239.7ZM236.5 2.29932C236.5 1.89932 236.633 1.53255 236.9 1.19922C237.233 0.932552 237.667 0.799316 238.2 0.799316C238.733 0.799316 239.133 0.932552 239.4 1.19922C239.733 1.53255 239.9 1.89932 239.9 2.29932C239.9 2.76598 239.733 3.16593 239.4 3.49927C239.133 3.76593 238.733 3.89917 238.2 3.89917C237.667 3.89917 237.233 3.76593 236.9 3.49927C236.633 3.16593 236.5 2.76598 236.5 2.29932ZM250.3 15.3992C250.3 14.8658 250.067 14.4659 249.6 14.1992C249.2 13.9326 248.5 13.6993 247.5 13.4993C246.5 13.2326 245.633 12.9327 244.9 12.5994C243.433 11.9327 242.7 10.8993 242.7 9.49927C242.7 8.36593 243.2 7.43255 244.2 6.69922C245.133 5.89922 246.333 5.49927 247.8 5.49927C249.4 5.49927 250.667 5.89922 251.6 6.69922C252.6 7.49922 253.1 8.49922 253.1 9.69922H250.1C250.1 9.16588 249.9 8.69932 249.5 8.29932C249.1 7.96598 248.533 7.79932 247.8 7.79932C247.2 7.79932 246.667 7.93255 246.2 8.19922C245.8 8.53255 245.6 8.9325 245.6 9.39917C245.6 9.86584 245.8 10.2326 246.2 10.4993C246.6 10.7659 247.367 10.9992 248.5 11.1992C249.7 11.4659 250.6 11.7992 251.2 12.1992C251.867 12.5326 252.367 12.9325 252.7 13.3992C253.033 13.9325 253.2 14.5326 253.2 15.1992C253.2 16.3992 252.7 17.366 251.7 18.0994C250.767 18.8327 249.5 19.1992 247.9 19.1992C246.767 19.1992 245.8 18.9994 245 18.5994C244.133 18.266 243.467 17.7326 243 16.9993C242.533 16.3326 242.3 15.5993 242.3 14.7993H245.2C245.2 15.5326 245.467 16.0658 246 16.3992C246.467 16.7992 247.1 16.9993 247.9 16.9993C248.7 16.9993 249.3 16.866 249.7 16.5994C250.1 16.266 250.3 15.8658 250.3 15.3992ZM258.7 0.199219V7.19922C259.7 6.06589 260.933 5.49927 262.4 5.49927C265.2 5.49927 266.633 7.1325 266.7 10.3992V18.9993H263.7V10.4993C263.7 9.56593 263.5 8.89927 263.1 8.49927C262.7 8.16593 262.133 7.99927 261.4 7.99927C260.2 7.99927 259.3 8.49927 258.7 9.49927V18.9993H255.7V0.199219H258.7ZM290.3 1.19922V18.9993H287.3V11.0994H279.3V18.9993H276.2V1.19922H279.3V8.59937H287.3V1.19922H290.3ZM299.4 19.1992C297.533 19.1992 296.033 18.6326 294.9 17.4993C293.7 16.2993 293.1 14.6992 293.1 12.6992V12.3992C293.1 11.0658 293.367 9.86598 293.9 8.79932C294.367 7.79932 295.067 6.99917 296 6.39917C296.933 5.79917 297.967 5.49927 299.1 5.49927C300.9 5.49927 302.3 6.09932 303.3 7.29932C304.233 8.43265 304.7 10.0327 304.7 12.0994V13.2993H296.1C296.167 14.4326 296.533 15.2992 297.2 15.8992C297.867 16.5658 298.667 16.8992 299.6 16.8992C300.933 16.8992 302.033 16.3326 302.9 15.1992L304.5 16.6992C303.967 17.4992 303.267 18.1327 302.4 18.5994C301.533 18.9994 300.533 19.1992 299.4 19.1992ZM299.1 7.89917C298.3 7.89917 297.633 8.19932 297.1 8.79932C296.633 9.33265 296.3 10.0994 296.1 11.0994H301.8V10.8992C301.733 9.89917 301.467 9.16588 301 8.69922C300.533 8.16589 299.9 7.89917 299.1 7.89917ZM310.2 0.199219V18.9993H307.2V0.199219H310.2ZM325 12.2993V12.4993C325 14.5659 324.533 16.1992 323.6 17.3992C322.667 18.5992 321.433 19.1992 319.9 19.1992C318.433 19.1992 317.267 18.7326 316.4 17.7993V24.0994H313.4V5.79932H316.2L316.3 7.09937C317.167 6.0327 318.367 5.49927 319.9 5.49927C321.5 5.49927 322.733 6.09932 323.6 7.29932C324.533 8.49932 325 10.166 325 12.2993ZM322.1 12.2993C322.1 10.966 321.833 9.89937 321.3 9.09937C320.767 8.36603 320 7.99927 319 7.99927C317.8 7.99927 316.933 8.49927 316.4 9.49927V15.2993C316.933 16.366 317.8 16.8992 319 16.8992C320 16.8992 320.767 16.4992 321.3 15.6992C321.833 14.9659 322.1 13.8326 322.1 12.2993Z" fill="#1D4281"/>
</svg>
