<svg width="105" height="13" viewBox="0 0 105 13" fill="none" xmlns="http://www.w3.org/2000/svg">
<path d="M8.59961 11.9993L7.59961 9.19922H3.09961L2.09961 11.9993H0.599609L4.69962 1.29932H5.8996L9.9996 11.9993H8.59961ZM5.3996 3.09937L3.59961 8.09937H7.19962L5.3996 3.09937ZM10.9996 8.09937V7.99927C10.9996 6.7326 11.2663 5.7326 11.7996 4.99927C12.3996 4.26593 13.1663 3.89917 14.0996 3.89917C15.0329 3.89917 15.7663 4.2325 16.2996 4.89917V0.699219H17.6996V11.9993H16.3996L16.2996 11.0994C15.7663 11.766 15.0329 12.0994 14.0996 12.0994C13.1663 12.0994 12.3996 11.7326 11.7996 10.9993C11.2663 10.2659 10.9996 9.29937 10.9996 8.09937ZM12.2996 8.09937C12.2996 9.0327 12.4996 9.73255 12.8996 10.1992C13.2329 10.7326 13.7329 10.9993 14.3996 10.9993C15.2663 10.9993 15.8996 10.5993 16.2996 9.79932V6.19922C15.8996 5.46589 15.2663 5.09937 14.3996 5.09937C13.7329 5.09937 13.2329 5.33265 12.8996 5.79932C12.4996 6.33265 12.2996 7.09937 12.2996 8.09937ZM23.5996 3.99927V5.29932C23.3996 5.23265 23.1663 5.19922 22.8996 5.19922C22.0329 5.19922 21.4329 5.59917 21.0996 6.39917V11.9993H19.7996V4.09937H21.0996V4.99927C21.5663 4.26593 22.1996 3.89917 22.9996 3.89917C23.2663 3.89917 23.4663 3.9326 23.5996 3.99927ZM26.2996 4.09937V11.9993H24.9996V4.09937H26.2996ZM24.7996 1.99927C24.7996 1.7326 24.8663 1.5325 24.9996 1.39917C25.1329 1.26584 25.3329 1.19922 25.5996 1.19922C25.8663 1.19922 26.0663 1.26584 26.1996 1.39917C26.3329 1.5325 26.3996 1.7326 26.3996 1.99927C26.3996 2.19927 26.3329 2.36593 26.1996 2.49927C26.0663 2.6326 25.8663 2.69922 25.5996 2.69922C25.3329 2.69922 25.1329 2.6326 24.9996 2.49927C24.8663 2.36593 24.7996 2.19927 24.7996 1.99927ZM34.6996 11.9993H33.2996C33.2329 11.8659 33.1663 11.5992 33.0996 11.1992C32.4996 11.7992 31.7663 12.0994 30.8996 12.0994C30.0996 12.0994 29.4329 11.8993 28.8996 11.4993C28.4329 11.0326 28.1996 10.466 28.1996 9.79932C28.1996 8.99932 28.4996 8.36584 29.0996 7.89917C29.7663 7.4325 30.6663 7.19922 31.7996 7.19922H33.0996V6.59937C33.0996 6.1327 32.9663 5.7325 32.6996 5.39917C32.3663 5.1325 31.9329 4.99927 31.3996 4.99927C30.9329 4.99927 30.5329 5.1325 30.1996 5.39917C29.8663 5.59917 29.6996 5.89932 29.6996 6.29932H28.3996C28.3996 5.89932 28.5329 5.49937 28.7996 5.09937C29.0663 4.76603 29.4329 4.46589 29.8996 4.19922C30.3663 3.99922 30.8996 3.89917 31.4996 3.89917C32.4329 3.89917 33.1329 4.1327 33.5996 4.59937C34.1329 5.06603 34.4329 5.69927 34.4996 6.49927V10.0994C34.4996 10.8327 34.5663 11.4325 34.6996 11.8992V11.9993ZM31.0996 10.8992C31.4996 10.8992 31.8996 10.7994 32.2996 10.5994C32.6329 10.3994 32.8996 10.1326 33.0996 9.79932V8.09937H31.9996C30.3329 8.09937 29.4996 8.59937 29.4996 9.59937C29.4996 9.99936 29.6663 10.3327 29.9996 10.5994C30.2663 10.7994 30.6329 10.8992 31.0996 10.8992ZM36.5996 3.99927H37.8996V4.99927C38.4996 4.26593 39.2996 3.89917 40.2996 3.89917C41.9663 3.89917 42.7996 4.83255 42.7996 6.69922V11.9993H41.4996V6.69922C41.4329 6.16589 41.2996 5.76593 41.0996 5.49927C40.8329 5.16593 40.4329 4.99927 39.8996 4.99927C39.4329 4.99927 39.0329 5.1325 38.6996 5.39917C38.3663 5.66584 38.0996 5.96598 37.8996 6.29932V11.9993H36.5996V3.99927ZM52.4996 11.8992H48.7996V1.19922H52.2996C53.4329 1.19922 54.2996 1.4325 54.8996 1.89917C55.4996 2.4325 55.7996 3.16603 55.7996 4.09937C55.7996 4.56603 55.6329 4.99917 55.2996 5.39917C55.0329 5.79917 54.6663 6.09932 54.1996 6.29932C54.7329 6.43265 55.1663 6.73255 55.4996 7.19922C55.8329 7.66589 55.9996 8.19932 55.9996 8.79932C55.9996 9.79932 55.6996 10.566 55.0996 11.0994C54.4996 11.6327 53.6329 11.8992 52.4996 11.8992ZM52.4996 6.89917H50.1996V10.6992H52.4996C53.1663 10.6992 53.6996 10.5326 54.0996 10.1992C54.4329 9.86589 54.5996 9.39932 54.5996 8.79932C54.5996 7.53265 53.8996 6.89917 52.4996 6.89917ZM50.1996 2.39917V5.79932H52.2996C52.8996 5.79932 53.3996 5.63265 53.7996 5.29932C54.1329 5.03265 54.2996 4.6327 54.2996 4.09937C54.2996 3.49937 54.1329 3.06598 53.7996 2.79932C53.4663 2.53265 52.9663 2.39917 52.2996 2.39917H50.1996ZM61.1996 11.9993C60.1329 11.9993 59.2662 11.6659 58.5996 10.9993C57.8662 10.2659 57.4996 9.33255 57.4996 8.19922V7.89917C57.4996 7.09917 57.6663 6.39932 57.9996 5.79932C58.2663 5.19932 58.6663 4.7325 59.1996 4.39917C59.7996 3.99917 60.3996 3.79932 60.9996 3.79932C62.0663 3.79932 62.8663 4.13265 63.3996 4.79932C63.9996 5.53265 64.2996 6.53265 64.2996 7.79932V8.29932H58.8996C58.8996 9.09932 59.1329 9.73255 59.5996 10.1992C59.9996 10.6659 60.5329 10.8992 61.1996 10.8992C61.7329 10.8992 62.1663 10.7994 62.4996 10.5994C62.8329 10.3994 63.0996 10.1658 63.2996 9.89917L64.1996 10.4993C63.5329 11.4993 62.5329 11.9993 61.1996 11.9993ZM60.9996 4.89917C60.4663 4.89917 59.9996 5.09927 59.5996 5.49927C59.2662 5.89927 59.033 6.46589 58.8996 7.19922H62.8996V7.09937C62.8996 6.4327 62.733 5.89927 62.3996 5.49927C62.0663 5.09927 61.5996 4.89917 60.9996 4.89917ZM65.7996 3.99927H67.0996L67.1996 4.99927C67.7996 4.19927 68.5663 3.79932 69.4996 3.79932C71.1663 3.79932 72.0329 4.76589 72.0996 6.69922V11.8992H70.6996V6.69922C70.6996 6.09922 70.5663 5.66584 70.2996 5.39917C70.0329 5.1325 69.6329 4.99927 69.0996 4.99927C68.6996 4.99927 68.3329 5.09932 67.9996 5.29932C67.6663 5.56598 67.3996 5.86589 67.1996 6.19922V11.8992H65.7996V3.99927ZM77.3996 12.0994C76.333 12.0994 75.4663 11.7326 74.7996 10.9993C74.1329 10.3326 73.7996 9.39922 73.7996 8.19922V7.89917C73.7996 7.09917 73.9329 6.39932 74.1996 5.79932C74.533 5.19932 74.9663 4.7325 75.4996 4.39917C76.0329 3.99917 76.5996 3.79932 77.1996 3.79932C78.2663 3.79932 79.0662 4.16584 79.5996 4.89917C80.1996 5.56584 80.4996 6.53265 80.4996 7.79932V8.29932H75.0996C75.0996 9.09932 75.3329 9.73255 75.7996 10.1992C76.2663 10.7326 76.8329 10.9993 77.4996 10.9993C77.9663 10.9993 78.3663 10.8992 78.6996 10.6992C79.033 10.4992 79.3329 10.2325 79.5996 9.89917L80.3996 10.4993C79.733 11.5659 78.733 12.0994 77.3996 12.0994ZM77.1996 4.99927C76.6663 4.99927 76.233 5.19937 75.8996 5.59937C75.4996 5.99937 75.2663 6.53255 75.1996 7.19922H79.0996V7.09937C79.0996 6.4327 78.9329 5.89927 78.5996 5.49927C78.2662 5.16593 77.7996 4.99927 77.1996 4.99927ZM81.6996 7.99927V7.89917C81.6996 6.69917 81.9996 5.7326 82.5996 4.99927C83.1996 4.19927 83.9663 3.79932 84.8996 3.79932C85.7663 3.79932 86.4996 4.13265 87.0996 4.79932V0.699219H88.3996V11.8992H87.1996L87.0996 11.0994C86.5662 11.766 85.7996 12.0994 84.7996 12.0994C83.9329 12.0994 83.1996 11.6992 82.5996 10.8992C81.9996 10.1658 81.6996 9.19927 81.6996 7.99927ZM83.0996 7.99927C83.0996 8.9326 83.2662 9.66588 83.5996 10.1992C83.9996 10.6659 84.533 10.8992 85.1996 10.8992C86.0663 10.8992 86.6996 10.5326 87.0996 9.79932V6.09937C86.6329 5.36603 85.9996 4.99927 85.1996 4.99927C84.533 4.99927 83.9996 5.26598 83.5996 5.79932C83.2662 6.26598 83.0996 6.99927 83.0996 7.99927ZM93.7996 12.0994C92.7329 12.0994 91.8663 11.7326 91.1996 10.9993C90.533 10.3326 90.1996 9.39922 90.1996 8.19922V7.89917C90.1996 7.09917 90.3329 6.39932 90.5996 5.79932C90.9329 5.19932 91.3663 4.7325 91.8996 4.39917C92.433 3.99917 92.9996 3.79932 93.5996 3.79932C94.6662 3.79932 95.4663 4.16584 95.9996 4.89917C96.5996 5.56584 96.8996 6.53265 96.8996 7.79932V8.29932H91.4996C91.5663 9.09932 91.7996 9.73255 92.1996 10.1992C92.6663 10.7326 93.233 10.9993 93.8996 10.9993C94.3663 10.9993 94.7662 10.8992 95.0996 10.6992C95.4329 10.4992 95.7329 10.2325 95.9996 9.89917L96.7996 10.4993C96.1329 11.5659 95.1329 12.0994 93.7996 12.0994ZM93.5996 4.99927C93.0662 4.99927 92.6329 5.19937 92.2996 5.59937C91.8996 5.99937 91.6662 6.53255 91.5996 7.19922H95.4996V7.09937C95.4996 6.4327 95.3329 5.89927 94.9996 5.49927C94.6663 5.16593 94.1996 4.99927 93.5996 4.99927ZM103.4 11.8992L100.7 8.29932L99.7996 9.09937V11.8992H98.4996V0.699219H99.7996V7.49927L100.5 6.59937L103 3.99927H104.7L101.6 7.29932L105 11.8992H103.4Z" fill="#777777"/>
</svg>
