<svg width="39" height="16" viewBox="0 0 39 16" fill="none" xmlns="http://www.w3.org/2000/svg">
<path d="M3.49976 7.80078L3.19971 9.30078H8.69971L8.39978 7.80078H3.49976ZM4.2998 8.30078L5.89978 4.50078L7.59973 8.40078V8.80078L8.99976 12.0008H11.0997L5.89978 0.90078L0.799805 12.0008H2.7998L4.19971 8.70078L4.2998 8.30078ZM13.7998 0.300781H12.1997V12.0008H13.7998V0.300781ZM15.3998 8.50078C15.3998 9.23411 15.5331 9.86745 15.7998 10.4008C16.1331 10.9341 16.5997 11.3674 17.1997 11.7008C17.733 11.9674 18.3664 12.1008 19.0997 12.1008C19.7664 12.1008 20.3998 11.9674 20.9998 11.7008C21.5331 11.3674 21.9665 10.9341 22.2998 10.4008C22.6331 9.86745 22.7998 9.23411 22.7998 8.50078C22.7998 7.83411 22.6331 7.23411 22.2998 6.70078C21.9665 6.16744 21.5331 5.73411 20.9998 5.40078C20.3998 5.06745 19.7664 4.90078 19.0997 4.90078C18.3664 4.90078 17.733 5.06745 17.1997 5.40078C16.5997 5.73411 16.1331 6.16744 15.7998 6.70078C15.5331 7.23411 15.3998 7.83411 15.3998 8.50078ZM16.9998 8.50078C16.9998 8.10078 17.0998 7.73411 17.2998 7.40078C17.4998 7.06745 17.7331 6.80078 17.9998 6.60078C18.3331 6.46744 18.6997 6.40078 19.0997 6.40078C19.4997 6.40078 19.8331 6.46744 20.0997 6.60078C20.4331 6.80078 20.6998 7.06745 20.8998 7.40078C21.0331 7.73411 21.0997 8.10078 21.0997 8.50078C21.0997 8.96744 21.0331 9.36744 20.8998 9.70078C20.6998 10.0341 20.4331 10.2674 20.0997 10.4008C19.8331 10.6008 19.4997 10.7008 19.0997 10.7008C18.6997 10.7008 18.3331 10.6008 17.9998 10.4008C17.7331 10.2674 17.4998 10.0341 17.2998 9.70078C17.0998 9.36744 16.9998 8.96744 16.9998 8.50078ZM29.4998 5.10078V15.3008H31.1997V5.10078H29.4998ZM23.7998 8.50078C23.7998 9.30078 23.933 9.96744 24.1997 10.5008C24.533 11.0341 24.9331 11.4674 25.3998 11.8008C25.9331 12.0674 26.4997 12.2008 27.0997 12.2008C27.6997 12.2008 28.1997 12.0341 28.5997 11.7008C29.0664 11.4341 29.3997 11.0341 29.5997 10.5008C29.8664 9.96744 29.9998 9.30078 29.9998 8.50078C29.9998 7.76744 29.8664 7.13411 29.5997 6.60078C29.3997 6.06744 29.0664 5.63411 28.5997 5.30078C28.1997 5.03411 27.6997 4.90078 27.0997 4.90078C26.4997 4.90078 25.9331 5.03411 25.3998 5.30078C24.9331 5.63411 24.533 6.06744 24.1997 6.60078C23.933 7.13411 23.7998 7.76744 23.7998 8.50078ZM25.3998 8.50078C25.3998 8.10078 25.4997 7.73411 25.6997 7.40078C25.8997 7.06745 26.1664 6.80078 26.4998 6.60078C26.7664 6.46744 27.0998 6.40078 27.4998 6.40078C27.8331 6.40078 28.1331 6.46744 28.3998 6.60078C28.7331 6.80078 28.9997 7.06745 29.1997 7.40078C29.3997 7.66745 29.4998 8.03411 29.4998 8.50078C29.4998 8.96744 29.3997 9.36744 29.1997 9.70078C28.9997 10.0341 28.7331 10.3008 28.3998 10.5008C28.1331 10.6341 27.8331 10.7008 27.4998 10.7008C27.0998 10.7008 26.7664 10.6008 26.4998 10.4008C26.1664 10.2674 25.8997 10.0341 25.6997 9.70078C25.4997 9.36744 25.3998 8.96744 25.3998 8.50078ZM34.0997 9.80078C34.0997 9.60078 34.1665 9.43411 34.2998 9.30078C34.3665 9.16745 34.5331 9.03411 34.7998 8.90078C34.9998 8.83411 35.2664 8.80078 35.5997 8.80078C35.9997 8.80078 36.3664 8.86744 36.6997 9.00078C37.033 9.06744 37.3664 9.20078 37.6997 9.40078V8.60078C37.633 8.53411 37.4664 8.43411 37.1997 8.30078C36.9997 8.10078 36.7331 7.96745 36.3998 7.90078C36.0664 7.76745 35.6664 7.70078 35.1997 7.70078C34.333 7.70078 33.6664 7.90078 33.1997 8.30078C32.733 8.70078 32.4998 9.23411 32.4998 9.90078C32.4998 10.3674 32.5998 10.7674 32.7998 11.1008C33.0665 11.4341 33.3664 11.7008 33.6997 11.9008C34.0997 12.0341 34.4998 12.1008 34.8998 12.1008C35.2998 12.1008 35.6997 12.0341 36.0997 11.9008C36.4997 11.7674 36.7998 11.5674 36.9998 11.3008C37.2664 10.9674 37.3998 10.5674 37.3998 10.1008L37.1997 9.20078C37.1997 9.60077 37.1331 9.90078 36.9998 10.1008C36.7998 10.3674 36.5665 10.5674 36.2998 10.7008C36.0331 10.8341 35.7331 10.9008 35.3998 10.9008C35.1331 10.9008 34.8997 10.8674 34.6997 10.8008C34.5664 10.7341 34.4331 10.6008 34.2998 10.4008C34.1665 10.2674 34.0997 10.0674 34.0997 9.80078ZM32.9998 5.80078L33.5997 6.90078C33.7331 6.83411 33.8997 6.73411 34.0997 6.60078C34.2997 6.53411 34.5331 6.46745 34.7998 6.40078C35.0665 6.26745 35.3664 6.20078 35.6997 6.20078C35.8997 6.20078 36.0998 6.23411 36.2998 6.30078C36.4998 6.36745 36.6665 6.43411 36.7998 6.50078C36.9331 6.56744 37.0331 6.66745 37.0997 6.80078C37.1664 7.00078 37.1997 7.20078 37.1997 7.40078V12.0008H38.7998V7.10078C38.7998 6.63411 38.6664 6.23411 38.3998 5.90078C38.1331 5.56745 37.7998 5.33411 37.3998 5.20078C36.9331 5.00078 36.4331 4.90078 35.8998 4.90078C35.2331 4.90078 34.6664 5.00078 34.1997 5.20078C33.6664 5.40077 33.2664 5.60078 32.9998 5.80078Z" fill="#202020"/>
</svg>
