<svg width="309" height="61" viewBox="0 0 309 61" fill="none" xmlns="http://www.w3.org/2000/svg">
<path d="M5.60016 13.3994L5.30017 16.5996H14.5002L14.2002 13.3994H5.60016ZM7.50018 14.5996L9.90021 8.89941L12.4002 14.5996L12.2002 15.6995L14.3002 19.9995H19.1002L9.90021 1.39941L0.700195 19.9995H5.50018L7.7002 15.4995L7.50018 14.5996ZM28.1002 12.9995V19.9995H32.0002V12.5996C32.0002 11.2663 31.6668 10.1994 31.0002 9.39941C30.3335 8.66608 29.3002 8.29956 27.9002 8.29956C27.0335 8.29956 26.3002 8.46623 25.7002 8.79956C25.1669 9.13289 24.7335 9.63289 24.4002 10.2996V8.49951H20.6002V19.9995H24.4002V12.9995C24.4002 12.5328 24.4668 12.1661 24.6002 11.8994C24.8002 11.5661 25.0335 11.3328 25.3002 11.1995C25.6335 10.9995 26.0002 10.8994 26.4002 10.8994C27.0002 10.8994 27.4335 11.0995 27.7002 11.4995C27.9669 11.8328 28.1002 12.3328 28.1002 12.9995ZM38.2002 20.7996H34.5002C34.6335 21.8662 34.9335 22.7996 35.4002 23.5996C35.8669 24.3329 36.5335 24.8996 37.4002 25.2996C38.3335 25.7662 39.5335 25.9995 41.0002 25.9995C42.1335 25.9995 43.2002 25.7994 44.2002 25.3994C45.1335 24.9327 45.8669 24.2329 46.4002 23.2996C47.0002 22.4329 47.3002 21.2662 47.3002 19.7996V8.49951H43.7002V19.7996C43.7002 20.4662 43.5668 21.0663 43.3002 21.5996C43.0335 22.0663 42.7002 22.3996 42.3002 22.5996C41.8335 22.8663 41.3335 22.9995 40.8002 22.9995C40.3335 22.9995 39.9002 22.9329 39.5002 22.7996C39.1002 22.5996 38.8002 22.3328 38.6002 21.9995C38.4002 21.7328 38.2669 21.3329 38.2002 20.7996ZM34.3002 14.0996C34.3002 15.4329 34.5668 16.4996 35.1002 17.2996C35.6335 18.2329 36.3002 18.8996 37.1002 19.2996C37.9668 19.7662 38.8668 19.9995 39.8002 19.9995C40.7335 19.9995 41.5668 19.7662 42.3002 19.2996C43.0335 18.8329 43.6335 18.1662 44.1002 17.2996C44.5002 16.4329 44.7002 15.3663 44.7002 14.0996C44.7002 12.8996 44.5002 11.8662 44.1002 10.9995C43.6335 10.1328 43.0335 9.46618 42.3002 8.99951C41.5668 8.53285 40.7335 8.29956 39.8002 8.29956C38.8668 8.29956 37.9668 8.49941 37.1002 8.89941C36.3002 9.36608 35.6335 10.0327 35.1002 10.8994C34.5668 11.7661 34.3002 12.8329 34.3002 14.0996ZM38.3002 14.0996C38.3002 13.4996 38.4002 12.9996 38.6002 12.5996C38.8668 12.1996 39.2002 11.8995 39.6002 11.6995C40.0668 11.4328 40.5335 11.2996 41.0002 11.2996C41.3335 11.2996 41.6669 11.3662 42.0002 11.4995C42.2668 11.6328 42.5335 11.7995 42.8002 11.9995C43.0668 12.2662 43.2669 12.5661 43.4002 12.8994C43.6002 13.2327 43.7002 13.6329 43.7002 14.0996C43.7002 14.7663 43.5668 15.2995 43.3002 15.6995C43.0335 16.0995 42.7002 16.3996 42.3002 16.5996C41.9002 16.7996 41.4669 16.8994 41.0002 16.8994C40.5335 16.8994 40.0668 16.7996 39.6002 16.5996C39.2002 16.3996 38.8668 16.0995 38.6002 15.6995C38.4002 15.2328 38.3002 14.6996 38.3002 14.0996ZM54.0002 0.499512H50.2002V19.9995H54.0002V0.499512ZM56.7002 4.19946C56.7002 4.79946 56.9335 5.29946 57.4002 5.69946C57.8002 6.09946 58.3002 6.29956 58.9002 6.29956C59.5669 6.29956 60.1002 6.09946 60.5002 5.69946C60.9002 5.29946 61.1002 4.79946 61.1002 4.19946C61.1002 3.59946 60.9002 3.13289 60.5002 2.79956C60.1002 2.39956 59.5669 2.19946 58.9002 2.19946C58.3002 2.19946 57.8002 2.39956 57.4002 2.79956C56.9335 3.13289 56.7002 3.59946 56.7002 4.19946ZM60.8002 8.49951H57.1002V19.9995H60.8002V8.49951ZM68.1002 25.4995L75.6002 8.49951H71.8002L68.1002 17.6995L70.0002 17.7996L66.3002 8.49951H62.2002L67.1002 19.0996L64.3002 25.4995H68.1002ZM79.8002 16.3994C79.8002 16.1327 79.8669 15.8995 80.0002 15.6995C80.1335 15.4995 80.3335 15.3662 80.6002 15.2996C80.8668 15.1662 81.2335 15.0996 81.7002 15.0996C82.3002 15.0996 82.8335 15.1994 83.3002 15.3994C83.8335 15.5327 84.3002 15.7663 84.7002 16.0996V14.3994C84.5002 14.1994 84.2002 13.9996 83.8002 13.7996C83.4002 13.5996 82.9335 13.4329 82.4002 13.2996C81.8669 13.1662 81.2335 13.0996 80.5002 13.0996C79.1002 13.0996 78.0002 13.3995 77.2002 13.9995C76.4002 14.6662 76.0002 15.5329 76.0002 16.5996C76.0002 17.3996 76.2002 18.0663 76.6002 18.5996C76.9335 19.1996 77.4335 19.6327 78.1002 19.8994C78.7002 20.1661 79.3668 20.2996 80.1002 20.2996C80.8335 20.2996 81.5335 20.1661 82.2002 19.8994C82.8002 19.6327 83.3002 19.2662 83.7002 18.7996C84.1002 18.2662 84.3002 17.6327 84.3002 16.8994L83.9002 15.3994C83.9002 15.9327 83.8002 16.3661 83.6002 16.6995C83.3335 17.0995 83.0335 17.3996 82.7002 17.5996C82.3002 17.7329 81.9002 17.7996 81.5002 17.7996C81.1668 17.7996 80.8668 17.7661 80.6002 17.6995C80.4002 17.5661 80.2002 17.3995 80.0002 17.1995C79.8669 16.9995 79.8002 16.7327 79.8002 16.3994ZM76.9002 9.49951L78.1002 12.0996C78.3002 11.9663 78.5669 11.8328 78.9002 11.6995C79.3002 11.4995 79.7335 11.3662 80.2002 11.2996C80.7335 11.1662 81.2335 11.0996 81.7002 11.0996C82.1002 11.0996 82.4335 11.1328 82.7002 11.1995C82.9669 11.2661 83.2002 11.3662 83.4002 11.4995C83.5335 11.6328 83.6668 11.8329 83.8002 12.0996C83.8668 12.2329 83.9002 12.4662 83.9002 12.7996V19.9995H87.5002V11.8994C87.5002 11.0994 87.2668 10.4327 86.8002 9.89941C86.3335 9.36608 85.7002 8.96613 84.9002 8.69946C84.1002 8.36613 83.2002 8.19946 82.2002 8.19946C81.1335 8.19946 80.1335 8.33294 79.2002 8.59961C78.2669 8.93294 77.5002 9.23285 76.9002 9.49951ZM97.8002 12.9995V19.9995H101.8V12.5996C101.8 11.2663 101.467 10.1994 100.8 9.39941C100.134 8.66608 99.1002 8.29956 97.7002 8.29956C96.8335 8.29956 96.1002 8.46623 95.5002 8.79956C94.9669 9.13289 94.5335 9.63289 94.2002 10.2996V8.49951H90.4002V19.9995H94.2002V12.9995C94.2002 12.5328 94.2669 12.1661 94.4002 11.8994C94.6002 11.5661 94.8335 11.3328 95.1002 11.1995C95.4335 10.9995 95.8002 10.8994 96.2002 10.8994C96.8002 10.8994 97.2002 11.0995 97.4002 11.4995C97.6669 11.8328 97.8002 12.3328 97.8002 12.9995ZM104.5 4.19946C104.5 4.79946 104.734 5.29946 105.2 5.69946C105.6 6.09946 106.1 6.29956 106.7 6.29956C107.3 6.29956 107.834 6.09946 108.3 5.69946C108.7 5.29946 108.9 4.79946 108.9 4.19946C108.9 3.59946 108.7 3.13289 108.3 2.79956C107.834 2.39956 107.3 2.19946 106.7 2.19946C106.1 2.19946 105.6 2.39956 105.2 2.79956C104.734 3.13289 104.5 3.59946 104.5 4.19946ZM108.5 8.49951H104.9V19.9995H108.5V8.49951ZM119.1 12.9995V19.9995H123V12.5996C123 11.2663 122.7 10.1994 122.1 9.39941C121.433 8.66608 120.367 8.29956 118.9 8.29956C118.1 8.29956 117.4 8.46623 116.8 8.79956C116.2 9.13289 115.734 9.63289 115.4 10.2996V8.49951H111.6V19.9995H115.4V12.9995C115.4 12.5328 115.5 12.1661 115.7 11.8994C115.834 11.5661 116.067 11.3328 116.4 11.1995C116.667 10.9995 117 10.8994 117.4 10.8994C118 10.8994 118.434 11.0995 118.7 11.4995C118.967 11.8328 119.1 12.3328 119.1 12.9995ZM129.2 20.7996H125.6C125.667 21.8662 125.934 22.7996 126.4 23.5996C126.867 24.3329 127.567 24.8996 128.5 25.2996C129.434 25.7662 130.6 25.9995 132 25.9995C133.2 25.9995 134.267 25.7994 135.2 25.3994C136.134 24.9327 136.9 24.2329 137.5 23.2996C138.1 22.4329 138.4 21.2662 138.4 19.7996V8.49951H134.7V19.7996C134.7 20.4662 134.567 21.0663 134.3 21.5996C134.1 22.0663 133.767 22.3996 133.3 22.5996C132.9 22.8663 132.434 22.9995 131.9 22.9995C131.367 22.9995 130.933 22.9329 130.6 22.7996C130.2 22.5996 129.867 22.3328 129.6 21.9995C129.4 21.7328 129.267 21.3329 129.2 20.7996ZM125.3 14.0996C125.3 15.4329 125.567 16.4996 126.1 17.2996C126.633 18.2329 127.334 18.8996 128.2 19.2996C129 19.7662 129.867 19.9995 130.8 19.9995C131.8 19.9995 132.667 19.7662 133.4 19.2996C134.134 18.8329 134.7 18.1662 135.1 17.2996C135.567 16.4329 135.8 15.3663 135.8 14.0996C135.8 12.8996 135.567 11.8662 135.1 10.9995C134.7 10.1328 134.134 9.46618 133.4 8.99951C132.667 8.53285 131.8 8.29956 130.8 8.29956C129.867 8.29956 129 8.49941 128.2 8.89941C127.334 9.36608 126.633 10.0327 126.1 10.8994C125.567 11.7661 125.3 12.8329 125.3 14.0996ZM129.3 14.0996C129.3 13.4996 129.434 12.9996 129.7 12.5996C129.967 12.1996 130.3 11.8995 130.7 11.6995C131.1 11.4328 131.567 11.2996 132.1 11.2996C132.367 11.2996 132.667 11.3662 133 11.4995C133.334 11.6328 133.634 11.7995 133.9 11.9995C134.167 12.2662 134.367 12.5661 134.5 12.8994C134.634 13.2327 134.7 13.6329 134.7 14.0996C134.7 14.7663 134.567 15.2995 134.3 15.6995C134.034 16.0995 133.7 16.3996 133.3 16.5996C132.9 16.7996 132.5 16.8994 132.1 16.8994C131.567 16.8994 131.1 16.7996 130.7 16.5996C130.3 16.3996 129.967 16.0995 129.7 15.6995C129.434 15.2328 129.3 14.6996 129.3 14.0996ZM153.4 2.49951H149.1V19.9995H153.4V2.49951ZM151.8 2.49951V5.99951H155.2C156.067 5.99951 156.734 6.19961 157.2 6.59961C157.667 6.99961 157.9 7.56623 157.9 8.29956C157.9 8.96623 157.667 9.49941 157.2 9.89941C156.734 10.2994 156.067 10.4995 155.2 10.4995H151.8V13.9995H155.2C156.667 13.9995 157.9 13.7662 158.9 13.2996C159.967 12.8329 160.734 12.1662 161.2 11.2996C161.734 10.4329 162 9.43289 162 8.29956C162 7.09956 161.734 6.06613 161.2 5.19946C160.734 4.3328 159.967 3.66613 158.9 3.19946C157.9 2.7328 156.667 2.49951 155.2 2.49951H151.8ZM169.5 20.2996C170.967 20.2996 172.2 19.9994 173.2 19.3994C174.2 18.8661 175 18.0327 175.6 16.8994L172.3 16.0996C171.967 16.5663 171.567 16.9328 171.1 17.1995C170.633 17.4661 170.067 17.5996 169.4 17.5996C168.8 17.5996 168.3 17.4661 167.9 17.1995C167.5 16.9328 167.2 16.5328 167 15.9995C166.8 15.5328 166.7 14.9328 166.7 14.1995C166.767 13.4661 166.867 12.8329 167 12.2996C167.2 11.8329 167.5 11.4661 167.9 11.1995C168.3 10.9328 168.767 10.7996 169.3 10.7996C169.767 10.7996 170.167 10.8996 170.5 11.0996C170.834 11.2996 171.1 11.5995 171.3 11.9995C171.5 12.3328 171.6 12.7662 171.6 13.2996C171.6 13.3662 171.567 13.4995 171.5 13.6995C171.434 13.8995 171.367 14.0329 171.3 14.0996L172.2 12.9995H165.1V15.0996H175.6C175.6 14.9663 175.6 14.8328 175.6 14.6995C175.6 14.4995 175.6 14.2996 175.6 14.0996C175.6 12.8996 175.367 11.8662 174.9 10.9995C174.434 10.1328 173.734 9.46618 172.8 8.99951C171.867 8.53285 170.734 8.29956 169.4 8.29956C168.067 8.29956 166.9 8.53285 165.9 8.99951C164.967 9.46618 164.234 10.1663 163.7 11.0996C163.167 11.9663 162.9 13.0329 162.9 14.2996C162.9 15.4996 163.167 16.5662 163.7 17.4995C164.234 18.3662 165 19.0663 166 19.5996C167 20.0663 168.167 20.2996 169.5 20.2996ZM181.7 19.9995V8.49951H177.9V19.9995H181.7ZM185.1 12.3994L186.7 9.19946C186.5 8.9328 186.2 8.69951 185.8 8.49951C185.4 8.36618 185 8.29956 184.6 8.29956C184 8.29956 183.4 8.49941 182.8 8.89941C182.2 9.29941 181.734 9.86628 181.4 10.5996C181 11.3329 180.8 12.1328 180.8 12.9995L181.7 14.2996C181.7 13.7662 181.8 13.3328 182 12.9995C182.134 12.5995 182.333 12.2996 182.6 12.0996C182.867 11.8996 183.2 11.7996 183.6 11.7996C183.933 11.7996 184.2 11.8662 184.4 11.9995C184.667 12.0662 184.9 12.1994 185.1 12.3994ZM195.1 8.49951H187.3V11.6995H195.1V8.49951ZM194.7 4.09961L196.2 1.29956C196.067 1.16623 195.834 0.999561 195.5 0.799561C195.234 0.599561 194.9 0.432894 194.5 0.299561C194.1 0.166227 193.6 0.0996094 193 0.0996094C192.067 0.0996094 191.267 0.266276 190.6 0.599609C190 0.932943 189.534 1.39951 189.2 1.99951C188.867 2.59951 188.7 3.3328 188.7 4.19946V19.9995H192.3V5.09961C192.3 4.76628 192.367 4.46613 192.5 4.19946C192.567 3.9328 192.7 3.73294 192.9 3.59961C193.1 3.53294 193.3 3.49951 193.5 3.49951C193.767 3.49951 193.967 3.53294 194.1 3.59961C194.3 3.73294 194.5 3.89961 194.7 4.09961ZM202.7 20.1995C204.167 20.1995 205.434 19.9327 206.5 19.3994C207.5 18.7994 208.3 17.9329 208.9 16.7996L205.5 15.9995C205.234 16.4662 204.867 16.8329 204.4 17.0996C203.934 17.3663 203.367 17.4995 202.7 17.4995C202.1 17.4995 201.6 17.3663 201.2 17.0996C200.8 16.8329 200.5 16.4662 200.3 15.9995C200.1 15.4662 200 14.8329 200 14.0996C200 13.3663 200.1 12.7662 200.3 12.2996C200.5 11.7662 200.8 11.3663 201.2 11.0996C201.6 10.8329 202.067 10.6995 202.6 10.6995C203.067 10.6995 203.467 10.7995 203.8 10.9995C204.133 11.1995 204.4 11.4994 204.6 11.8994C204.733 12.2327 204.8 12.6661 204.8 13.1995C204.8 13.3328 204.767 13.4663 204.7 13.5996C204.7 13.7996 204.634 13.9663 204.5 14.0996L205.4 12.8994H198.3V14.9995H208.8C208.867 14.8662 208.9 14.7329 208.9 14.5996C208.9 14.3996 208.9 14.1995 208.9 13.9995C208.9 12.7995 208.667 11.7661 208.2 10.8994C207.667 10.0327 206.967 9.36608 206.1 8.89941C205.167 8.43275 204.034 8.19946 202.7 8.19946C201.367 8.19946 200.2 8.43275 199.2 8.89941C198.267 9.36608 197.534 10.0662 197 10.9995C196.467 11.9328 196.2 12.9995 196.2 14.1995C196.2 15.3995 196.467 16.4661 197 17.3994C197.534 18.2661 198.3 18.9662 199.3 19.4995C200.234 19.9662 201.367 20.1995 202.7 20.1995ZM214.4 14.1995C214.4 13.6661 214.534 13.1661 214.8 12.6995C215.067 12.2328 215.434 11.8663 215.9 11.5996C216.367 11.3329 216.867 11.1995 217.4 11.1995C217.867 11.1995 218.3 11.2661 218.7 11.3994C219.167 11.5327 219.567 11.7328 219.9 11.9995C220.3 12.2662 220.6 12.5661 220.8 12.8994V9.19946C220.4 8.9328 219.9 8.69951 219.3 8.49951C218.7 8.29951 217.967 8.19946 217.1 8.19946C215.833 8.19946 214.7 8.46618 213.7 8.99951C212.7 9.46618 211.9 10.1663 211.3 11.0996C210.767 11.9663 210.5 12.9995 210.5 14.1995C210.5 15.3995 210.767 16.4661 211.3 17.3994C211.9 18.2661 212.7 18.9662 213.7 19.4995C214.7 19.9662 215.833 20.1995 217.1 20.1995C217.967 20.1995 218.7 20.0994 219.3 19.8994C219.9 19.6994 220.4 19.4329 220.8 19.0996V15.4995C220.6 15.8328 220.3 16.1327 219.9 16.3994C219.567 16.6661 219.2 16.8662 218.8 16.9995C218.334 17.1328 217.867 17.1995 217.4 17.1995C216.867 17.1995 216.367 17.0662 215.9 16.7996C215.434 16.5996 215.067 16.2662 214.8 15.7996C214.534 15.3329 214.4 14.7995 214.4 14.1995ZM229.9 8.49951H222.2V11.5996H229.9V8.49951ZM227.9 4.49951H224.2V19.9995H227.9V4.49951ZM235.3 0.499512H231.5V19.9995H235.3V0.499512ZM242.5 25.4995L250 8.49951H246.2L242.5 17.6995H244.4L240.7 8.49951H236.6L241.5 18.9995L238.7 25.4995H242.5ZM261.1 13.7996L258.1 15.8994C258.5 16.7661 259.067 17.5662 259.8 18.2996C260.534 18.9662 261.367 19.4994 262.3 19.8994C263.3 20.2994 264.367 20.4995 265.5 20.4995C266.3 20.4995 267.1 20.3995 267.9 20.1995C268.7 19.9328 269.4 19.5663 270 19.0996C270.6 18.6329 271.067 18.0661 271.4 17.3994C271.8 16.6661 272 15.8662 272 14.9995C272 14.2662 271.867 13.5995 271.6 12.9995C271.4 12.4662 271.067 11.9662 270.6 11.4995C270.2 11.0995 269.733 10.7327 269.2 10.3994C268.667 10.1327 268.1 9.86628 267.5 9.59961C266.7 9.33294 266 9.06623 265.4 8.79956C264.867 8.59956 264.434 8.33284 264.1 7.99951C263.767 7.66618 263.6 7.33285 263.6 6.99951C263.6 6.59951 263.767 6.26618 264.1 5.99951C264.434 5.73284 264.9 5.59961 265.5 5.59961C265.967 5.59961 266.367 5.69941 266.7 5.89941C267.1 6.03275 267.467 6.26628 267.8 6.59961C268.134 6.86628 268.433 7.2328 268.7 7.69946L271.9 5.89941C271.634 5.29941 271.2 4.69961 270.6 4.09961C270.067 3.49961 269.367 3.0328 268.5 2.69946C267.634 2.29946 266.6 2.09961 265.4 2.09961C264.267 2.09961 263.234 2.29946 262.3 2.69946C261.434 3.09946 260.7 3.66608 260.1 4.39941C259.567 5.13275 259.3 5.99951 259.3 6.99951C259.3 7.93285 259.467 8.69956 259.8 9.29956C260.134 9.89956 260.534 10.3996 261 10.7996C261.467 11.2662 261.967 11.6327 262.5 11.8994C263.1 12.1661 263.6 12.3662 264 12.4995C264.867 12.8328 265.534 13.0996 266 13.2996C266.534 13.5662 266.933 13.8329 267.2 14.0996C267.4 14.3663 267.5 14.7328 267.5 15.1995C267.5 15.7328 267.3 16.1662 266.9 16.4995C266.5 16.7662 266 16.8994 265.4 16.8994C264.8 16.8994 264.233 16.7662 263.7 16.4995C263.167 16.2995 262.7 15.9662 262.3 15.4995C261.834 15.0328 261.434 14.4662 261.1 13.7996ZM274.4 25.4995H278.2V8.49951H274.4V25.4995ZM287.6 14.1995C287.6 12.8661 287.334 11.7661 286.8 10.8994C286.267 9.96608 285.567 9.26623 284.7 8.79956C283.9 8.33289 283.033 8.09961 282.1 8.09961C281.1 8.09961 280.234 8.36608 279.5 8.89941C278.767 9.36608 278.2 10.0662 277.8 10.9995C277.467 11.9328 277.3 12.9995 277.3 14.1995C277.3 15.4661 277.467 16.5662 277.8 17.4995C278.2 18.4328 278.767 19.1329 279.5 19.5996C280.234 20.1329 281.1 20.3994 282.1 20.3994C283.033 20.3994 283.9 20.1661 284.7 19.6995C285.567 19.2328 286.267 18.5329 286.8 17.5996C287.334 16.6663 287.6 15.5328 287.6 14.1995ZM283.6 14.1995C283.6 14.7995 283.467 15.3329 283.2 15.7996C282.933 16.1996 282.6 16.4995 282.2 16.6995C281.8 16.8995 281.334 16.9995 280.8 16.9995C280.4 16.9995 280 16.8995 279.6 16.6995C279.2 16.4995 278.867 16.1996 278.6 15.7996C278.333 15.3996 278.2 14.8661 278.2 14.1995C278.2 13.5995 278.333 13.0995 278.6 12.6995C278.867 12.2328 279.2 11.9329 279.6 11.7996C280 11.5329 280.4 11.3994 280.8 11.3994C281.334 11.3994 281.8 11.5329 282.2 11.7996C282.6 11.9996 282.933 12.2995 283.2 12.6995C283.467 13.0995 283.6 13.5995 283.6 14.1995ZM289.2 14.1995C289.2 15.3995 289.467 16.4661 290 17.3994C290.6 18.2661 291.4 18.9662 292.4 19.4995C293.4 19.9662 294.5 20.1995 295.7 20.1995C296.967 20.1995 298.1 19.9662 299.1 19.4995C300.1 18.9662 300.867 18.2661 301.4 17.3994C302 16.4661 302.3 15.3995 302.3 14.1995C302.3 12.9995 302 11.9328 301.4 10.9995C300.867 10.1328 300.1 9.46618 299.1 8.99951C298.1 8.46618 296.967 8.19946 295.7 8.19946C294.5 8.19946 293.4 8.46618 292.4 8.99951C291.4 9.46618 290.6 10.1328 290 10.9995C289.467 11.9328 289.2 12.9995 289.2 14.1995ZM293 14.1995C293 13.5995 293.134 13.0995 293.4 12.6995C293.667 12.2328 294 11.8995 294.4 11.6995C294.8 11.4328 295.233 11.2996 295.7 11.2996C296.233 11.2996 296.7 11.4328 297.1 11.6995C297.5 11.8995 297.8 12.2328 298 12.6995C298.267 13.0995 298.4 13.5995 298.4 14.1995C298.4 14.7995 298.267 15.3329 298 15.7996C297.8 16.1996 297.5 16.5329 297.1 16.7996C296.7 16.9996 296.233 17.0996 295.7 17.0996C295.233 17.0996 294.8 16.9996 294.4 16.7996C294 16.5329 293.667 16.1996 293.4 15.7996C293.134 15.3329 293 14.7995 293 14.1995ZM303.2 12.3994V15.6995H308.5V12.3994H303.2ZM5.90021 35.4995H2.30017V54.9995H5.90021V35.4995ZM14.6002 43.4995H10.1002L5.2002 48.1995L10.7002 54.9995H15.1002L9.7002 48.1995L14.6002 43.4995ZM22.2002 55.2996C23.6669 55.2996 24.9002 54.9994 25.9002 54.3994C26.9669 53.8661 27.8002 53.0327 28.4002 51.8994L25.0002 51.0996C24.7335 51.5663 24.3669 51.9328 23.9002 52.1995C23.4335 52.4661 22.8669 52.5996 22.2002 52.5996C21.6002 52.5996 21.1002 52.4661 20.7002 52.1995C20.3002 51.9328 20.0002 51.5328 19.8002 50.9995C19.6002 50.5328 19.5002 49.9328 19.5002 49.1995C19.5002 48.4661 19.6002 47.8329 19.8002 47.2996C20.0002 46.8329 20.3002 46.4661 20.7002 46.1995C21.0335 45.9328 21.5002 45.7996 22.1002 45.7996C22.5668 45.7996 22.9668 45.8996 23.3002 46.0996C23.6335 46.2996 23.8668 46.5995 24.0002 46.9995C24.2002 47.3328 24.3002 47.7328 24.3002 48.1995C24.3002 48.3328 24.2669 48.4995 24.2002 48.6995C24.1335 48.8995 24.0669 49.0329 24.0002 49.0996L24.9002 47.9995H17.8002V50.0996H28.3002C28.3668 49.9663 28.4002 49.8328 28.4002 49.6995C28.4002 49.4995 28.4002 49.2996 28.4002 49.0996C28.4002 47.8329 28.1335 46.7995 27.6002 45.9995C27.1335 45.1328 26.4335 44.4662 25.5002 43.9995C24.6335 43.5328 23.5335 43.2996 22.2002 43.2996C20.8669 43.2996 19.7002 43.5328 18.7002 43.9995C17.7002 44.4662 16.9669 45.1663 16.5002 46.0996C15.9668 46.9663 15.7002 48.0329 15.7002 49.2996C15.7002 50.4996 15.9668 51.5662 16.5002 52.4995C17.0335 53.3662 17.7669 54.0663 18.7002 54.5996C19.7002 55.0663 20.8669 55.2996 22.2002 55.2996ZM38.2002 47.9995V54.9995H42.1002V47.5996C42.1002 46.2663 41.7668 45.1994 41.1002 44.3994C40.4335 43.5994 39.4002 43.1995 38.0002 43.1995C37.1335 43.1995 36.4002 43.3996 35.8002 43.7996C35.2668 44.1329 34.8335 44.5995 34.5002 45.1995V43.4995H30.7002V54.9995H34.5002V47.9995C34.5002 47.5328 34.5669 47.1661 34.7002 46.8994C34.9002 46.5661 35.1335 46.3328 35.4002 46.1995C35.7335 45.9995 36.1002 45.8994 36.5002 45.8994C37.1002 45.8994 37.5335 46.0995 37.8002 46.4995C38.0668 46.8328 38.2002 47.3328 38.2002 47.9995ZM52.5002 60.4995H56.3002V43.4995H52.5002V60.4995ZM65.7002 49.2996C65.7002 47.8996 65.4335 46.7661 64.9002 45.8994C64.3669 44.9661 63.7002 44.2662 62.9002 43.7996C62.1002 43.3329 61.2002 43.0996 60.2002 43.0996C59.2002 43.0996 58.3335 43.3661 57.6002 43.8994C56.9335 44.4327 56.4002 45.1328 56.0002 45.9995C55.6002 46.9328 55.4002 48.0329 55.4002 49.2996C55.4002 50.4996 55.6002 51.5662 56.0002 52.4995C56.4002 53.4328 56.9335 54.1661 57.6002 54.6995C58.3335 55.1661 59.2002 55.3994 60.2002 55.3994C61.2002 55.3994 62.1002 55.1661 62.9002 54.6995C63.7002 54.2328 64.3669 53.5661 64.9002 52.6995C65.4335 51.7661 65.7002 50.6329 65.7002 49.2996ZM61.7002 49.2996C61.7002 49.8996 61.6002 50.3996 61.4002 50.7996C61.1335 51.1996 60.8002 51.4995 60.4002 51.6995C59.9335 51.9661 59.4669 52.0996 59.0002 52.0996C58.5335 52.0996 58.1002 51.9996 57.7002 51.7996C57.3002 51.5996 56.9669 51.2662 56.7002 50.7996C56.4335 50.3996 56.3002 49.8996 56.3002 49.2996C56.3002 48.6329 56.4335 48.0995 56.7002 47.6995C56.9669 47.2995 57.3002 46.9996 57.7002 46.7996C58.1002 46.5996 58.5335 46.4995 59.0002 46.4995C59.4669 46.4995 59.9335 46.5996 60.4002 46.7996C60.8002 46.9996 61.1335 47.2995 61.4002 47.6995C61.6002 48.1661 61.7002 48.6996 61.7002 49.2996ZM71.8002 35.4995H68.0002V54.9995H71.8002V35.4995ZM77.7002 51.3994C77.7002 51.1327 77.7669 50.8995 77.9002 50.6995C78.0335 50.4995 78.2335 50.3662 78.5002 50.2996C78.7669 50.1662 79.1002 50.0996 79.5002 50.0996C80.1002 50.0996 80.6669 50.1994 81.2002 50.3994C81.7335 50.5327 82.2002 50.7663 82.6002 51.0996V49.3994C82.4002 49.1994 82.1002 48.9661 81.7002 48.6995C81.3002 48.5661 80.8002 48.3995 80.2002 48.1995C79.6669 48.1328 79.0669 48.0996 78.4002 48.0996C76.9335 48.0996 75.8002 48.3995 75.0002 48.9995C74.2669 49.6662 73.9002 50.5329 73.9002 51.5996C73.9002 52.3996 74.0669 53.0663 74.4002 53.5996C74.8002 54.1996 75.3002 54.6327 75.9002 54.8994C76.5669 55.1661 77.2669 55.2996 78.0002 55.2996C78.7335 55.2996 79.4002 55.1661 80.0002 54.8994C80.6668 54.6327 81.2002 54.2328 81.6002 53.6995C82.0002 53.2328 82.2002 52.6327 82.2002 51.8994L81.8002 50.3994C81.8002 50.9327 81.6669 51.3661 81.4002 51.6995C81.2002 52.0995 80.9002 52.3996 80.5002 52.5996C80.1668 52.7329 79.7668 52.7996 79.3002 52.7996C79.0335 52.7996 78.7669 52.7661 78.5002 52.6995C78.2335 52.5661 78.0335 52.3995 77.9002 52.1995C77.7669 51.9995 77.7002 51.7327 77.7002 51.3994ZM74.7002 44.4995L76.0002 47.0996C76.1335 46.9663 76.4002 46.8328 76.8002 46.6995C77.1335 46.4995 77.5668 46.3328 78.1002 46.1995C78.5668 46.1328 79.0668 46.0996 79.6002 46.0996C79.9335 46.0996 80.2335 46.1328 80.5002 46.1995C80.7669 46.2661 81.0002 46.3662 81.2002 46.4995C81.4002 46.6328 81.5335 46.8329 81.6002 47.0996C81.7335 47.2329 81.8002 47.4662 81.8002 47.7996V54.9995H85.4002V46.8994C85.4002 46.0994 85.1669 45.4327 84.7002 44.8994C84.2335 44.3661 83.6002 43.9661 82.8002 43.6995C82.0002 43.3661 81.1002 43.1995 80.1002 43.1995C78.9668 43.1995 77.9668 43.3329 77.1002 43.5996C76.1668 43.9329 75.3669 44.2328 74.7002 44.4995ZM94.6002 43.4995H86.9002V46.6995H94.6002V43.4995ZM92.5002 39.4995H88.9002V54.9995H92.5002V39.4995ZM103 43.4995H95.1002V46.5996H103V43.4995ZM102.6 39.0996L104.1 36.2996C103.9 36.1662 103.667 35.9996 103.4 35.7996C103.134 35.5996 102.8 35.4329 102.4 35.2996C102 35.1662 101.5 35.0996 100.9 35.0996C99.9669 35.0996 99.1668 35.2663 98.5002 35.5996C97.9002 35.9329 97.4335 36.3995 97.1002 36.9995C96.7668 37.5995 96.6002 38.3328 96.6002 39.1995V54.9995H100.2V40.1995C100.2 39.7995 100.267 39.4661 100.4 39.1995C100.467 38.9328 100.6 38.7661 100.8 38.6995C100.934 38.5661 101.134 38.4995 101.4 38.4995C101.6 38.4995 101.8 38.5329 102 38.5996C102.2 38.7329 102.4 38.8996 102.6 39.0996ZM104.1 49.1995C104.1 50.3995 104.367 51.4661 104.9 52.3994C105.5 53.2661 106.3 53.9662 107.3 54.4995C108.3 54.9662 109.434 55.1995 110.7 55.1995C111.9 55.1995 113 54.9662 114 54.4995C115 53.9662 115.8 53.2661 116.4 52.3994C116.934 51.4661 117.2 50.3995 117.2 49.1995C117.2 47.9995 116.934 46.9328 116.4 45.9995C115.8 45.1328 115 44.4327 114 43.8994C113 43.4327 111.9 43.1995 110.7 43.1995C109.434 43.1995 108.3 43.4327 107.3 43.8994C106.3 44.4327 105.5 45.1328 104.9 45.9995C104.367 46.9328 104.1 47.9995 104.1 49.1995ZM108 49.1995C108 48.5995 108.1 48.0995 108.3 47.6995C108.567 47.2328 108.9 46.8995 109.3 46.6995C109.7 46.4328 110.167 46.2996 110.7 46.2996C111.167 46.2996 111.6 46.4328 112 46.6995C112.4 46.8995 112.734 47.2328 113 47.6995C113.2 48.0995 113.3 48.5995 113.3 49.1995C113.3 49.7995 113.2 50.3329 113 50.7996C112.734 51.1996 112.4 51.5329 112 51.7996C111.6 51.9996 111.167 52.0996 110.7 52.0996C110.167 52.0996 109.7 51.9996 109.3 51.7996C108.9 51.5329 108.567 51.1996 108.3 50.7996C108.1 50.3329 108 49.7995 108 49.1995ZM123.2 54.9995V43.4995H119.5V54.9995H123.2ZM126.5 47.3994L128.1 44.1995C127.9 43.8661 127.634 43.5994 127.3 43.3994C126.9 43.2661 126.5 43.1995 126.1 43.1995C125.433 43.1995 124.8 43.3996 124.2 43.7996C123.667 44.1996 123.2 44.7662 122.8 45.4995C122.467 46.2328 122.3 47.0662 122.3 47.9995L123.2 49.2996C123.2 48.7662 123.267 48.2994 123.4 47.8994C123.534 47.4994 123.767 47.1995 124.1 46.9995C124.367 46.7995 124.667 46.6995 125 46.6995C125.334 46.6995 125.634 46.7661 125.9 46.8994C126.1 47.0327 126.3 47.1994 126.5 47.3994ZM147.3 54.9995V47.5996C147.3 46.6663 147.167 45.8661 146.9 45.1995C146.7 44.5328 146.334 44.0328 145.8 43.6995C145.267 43.3661 144.567 43.1995 143.7 43.1995C142.9 43.1995 142.2 43.3661 141.6 43.6995C140.933 44.0328 140.4 44.4996 140 45.0996C139.8 44.4996 139.434 44.0328 138.9 43.6995C138.367 43.3661 137.634 43.1995 136.7 43.1995C135.9 43.1995 135.234 43.3661 134.7 43.6995C134.167 44.0995 133.734 44.5995 133.4 45.1995V43.4995H129.7V54.9995H133.4V47.9995C133.4 47.5328 133.467 47.1329 133.6 46.7996C133.733 46.4662 133.934 46.2329 134.2 46.0996C134.467 45.9663 134.767 45.8994 135.1 45.8994C135.633 45.8994 136 46.0661 136.2 46.3994C136.4 46.7327 136.5 47.2662 136.5 47.9995V54.9995H140.3V47.9995C140.3 47.5328 140.367 47.1329 140.5 46.7996C140.7 46.4662 140.9 46.2329 141.1 46.0996C141.367 45.9663 141.667 45.8994 142 45.8994C142.534 45.8994 142.9 46.0661 143.1 46.3994C143.367 46.7327 143.5 47.2662 143.5 47.9995V54.9995H147.3ZM153.2 51.3994C153.2 51.0661 153.267 50.8328 153.4 50.6995C153.534 50.4995 153.734 50.3328 154 50.1995C154.267 50.1328 154.6 50.0996 155 50.0996C155.6 50.0996 156.167 50.1662 156.7 50.2996C157.234 50.4329 157.7 50.6662 158.1 50.9995V49.2996C157.9 49.0996 157.6 48.8995 157.2 48.6995C156.8 48.4995 156.3 48.3328 155.7 48.1995C155.167 48.0661 154.567 47.9995 153.9 47.9995C152.434 47.9995 151.3 48.3328 150.5 48.9995C149.767 49.5995 149.4 50.4663 149.4 51.5996C149.4 52.3996 149.567 53.0663 149.9 53.5996C150.3 54.1329 150.8 54.5329 151.4 54.7996C152.067 55.0662 152.767 55.1995 153.5 55.1995C154.234 55.1995 154.9 55.0994 155.5 54.8994C156.167 54.5661 156.7 54.1661 157.1 53.6995C157.5 53.1661 157.7 52.5329 157.7 51.7996L157.3 50.2996C157.3 50.8329 157.167 51.2995 156.9 51.6995C156.7 52.0328 156.4 52.2995 156 52.4995C155.667 52.6995 155.267 52.7996 154.8 52.7996C154.534 52.7996 154.267 52.7329 154 52.5996C153.734 52.4663 153.534 52.3328 153.4 52.1995C153.267 51.9328 153.2 51.6661 153.2 51.3994ZM150.2 44.4995L151.5 46.9995C151.634 46.9328 151.9 46.7996 152.3 46.5996C152.633 46.4663 153.067 46.3328 153.6 46.1995C154.067 46.0661 154.567 45.9995 155.1 45.9995C155.433 45.9995 155.734 46.0329 156 46.0996C156.267 46.1663 156.5 46.2661 156.7 46.3994C156.9 46.5994 157.033 46.7995 157.1 46.9995C157.233 47.1995 157.3 47.4328 157.3 47.6995V54.9995H160.9V46.8994C160.9 46.0994 160.667 45.4327 160.2 44.8994C159.734 44.2994 159.1 43.8663 158.3 43.5996C157.5 43.3329 156.6 43.1995 155.6 43.1995C154.467 43.1995 153.467 43.3329 152.6 43.5996C151.667 43.8663 150.867 44.1662 150.2 44.4995ZM164.3 50.7996L162.8 53.2996C163.267 53.6996 163.8 54.0661 164.4 54.3994C165 54.7327 165.667 54.9995 166.4 55.1995C167.134 55.3328 167.9 55.3994 168.7 55.3994C170.1 55.3994 171.167 55.0995 171.9 54.4995C172.634 53.8995 173 52.9661 173 51.6995C173 51.0328 172.867 50.4662 172.6 49.9995C172.267 49.5995 171.834 49.2327 171.3 48.8994C170.834 48.6327 170.3 48.3995 169.7 48.1995C169.1 47.9995 168.6 47.8328 168.2 47.6995C167.867 47.4995 167.567 47.3328 167.3 47.1995C167.1 46.9995 167 46.7662 167 46.4995C167 46.2995 167.1 46.1328 167.3 45.9995C167.5 45.8662 167.767 45.7996 168.1 45.7996C168.633 45.7996 169.2 45.9662 169.8 46.2996C170.4 46.5662 170.934 46.9327 171.4 47.3994L172.8 44.8994C172.334 44.5661 171.834 44.2662 171.3 43.9995C170.834 43.7995 170.3 43.5994 169.7 43.3994C169.167 43.2661 168.567 43.1995 167.9 43.1995C167.034 43.1995 166.267 43.3329 165.6 43.5996C165 43.8663 164.5 44.2328 164.1 44.6995C163.767 45.1661 163.6 45.7662 163.6 46.4995C163.6 47.2328 163.734 47.8329 164 48.2996C164.334 48.7662 164.734 49.1327 165.2 49.3994C165.734 49.6661 166.267 49.8996 166.8 50.0996C167.4 50.2996 167.9 50.4663 168.3 50.5996C168.633 50.7996 168.867 50.9995 169 51.1995C169.2 51.3328 169.3 51.5329 169.3 51.7996C169.3 52.0662 169.2 52.2661 169 52.3994C168.8 52.5994 168.5 52.6995 168.1 52.6995C167.833 52.6995 167.534 52.6328 167.2 52.4995C166.8 52.4328 166.367 52.2327 165.9 51.8994C165.434 51.6327 164.9 51.2662 164.3 50.7996ZM174.9 39.1995C174.9 39.7328 175.1 40.1996 175.5 40.5996C175.967 40.9996 176.5 41.1995 177.1 41.1995C177.7 41.1995 178.2 40.9996 178.6 40.5996C179.067 40.1996 179.3 39.7328 179.3 39.1995C179.3 38.5995 179.067 38.0995 178.6 37.6995C178.2 37.2995 177.7 37.0996 177.1 37.0996C176.5 37.0996 175.967 37.2995 175.5 37.6995C175.1 38.0995 174.9 38.5995 174.9 39.1995ZM178.9 43.4995H175.3V54.9995H178.9V43.4995ZM196.2 35.4995H192.8C191.8 37.3662 191.034 39.3327 190.5 41.3994C189.967 43.4661 189.7 45.5661 189.7 47.6995C189.7 49.8328 189.967 51.9328 190.5 53.9995C191.034 56.1328 191.8 58.1328 192.8 59.9995H196.2C195.334 58.1328 194.667 56.1328 194.2 53.9995C193.734 51.9328 193.5 49.8328 193.5 47.6995C193.5 45.5661 193.734 43.4661 194.2 41.3994C194.667 39.3327 195.334 37.3662 196.2 35.4995ZM201.5 48.3994L201.2 51.5996H210.4L210.1 48.3994H201.5ZM203.4 49.4995L205.8 43.8994L208.3 49.5996L208.1 50.6995L210.2 54.9995H215L205.8 36.3994L196.6 54.9995H201.4L203.6 50.4995L203.4 49.4995ZM216.7 38.7996V42.4995L221 41.3994V54.8994H225.1V37.0996L216.7 38.7996ZM227.9 47.2996V50.5996H233.2V47.2996H227.9ZM238.7 46.1995C238.7 45.0661 238.967 44.1327 239.5 43.3994C239.967 42.5994 240.6 41.9996 241.4 41.5996C242.2 41.1996 243.067 40.9995 244 40.9995C244.8 40.9995 245.533 41.1327 246.2 41.3994C246.8 41.5994 247.367 41.8661 247.9 42.1995C248.367 42.5328 248.8 42.8996 249.2 43.2996V38.7996C248.533 38.2662 247.767 37.8328 246.9 37.4995C246.1 37.1662 245.033 36.9995 243.7 36.9995C242.3 36.9995 241.034 37.2328 239.9 37.6995C238.7 38.0995 237.667 38.6995 236.8 39.4995C235.934 40.3662 235.267 41.3327 234.8 42.3994C234.334 43.5327 234.1 44.7995 234.1 46.1995C234.1 47.5328 234.334 48.7661 234.8 49.8994C235.267 51.0327 235.934 51.9996 236.8 52.7996C237.667 53.5996 238.7 54.2328 239.9 54.6995C241.034 55.0995 242.3 55.2996 243.7 55.2996C245.033 55.2996 246.1 55.1329 246.9 54.7996C247.767 54.5329 248.533 54.0995 249.2 53.4995V48.9995C248.8 49.3995 248.367 49.7663 247.9 50.0996C247.367 50.4329 246.8 50.7328 246.2 50.9995C245.533 51.1995 244.8 51.2996 244 51.2996C243.067 51.2996 242.2 51.0995 241.4 50.6995C240.6 50.2995 239.967 49.6994 239.5 48.8994C238.967 48.1661 238.7 47.2661 238.7 46.1995ZM259.1 46.7996L251.3 54.8994H266.1V50.9995H259.1L263.2 47.3994C263.933 46.7327 264.534 45.9995 265 45.1995C265.467 44.3995 265.7 43.5329 265.7 42.5996C265.7 41.9329 265.567 41.2663 265.3 40.5996C265.034 39.9996 264.6 39.4327 264 38.8994C263.467 38.2994 262.8 37.8663 262 37.5996C261.134 37.2663 260.167 37.0996 259.1 37.0996C257.567 37.0996 256.3 37.3995 255.3 37.9995C254.234 38.5995 253.434 39.4328 252.9 40.4995C252.434 41.4995 252.2 42.6327 252.2 43.8994H256.3C256.3 43.2327 256.4 42.6661 256.6 42.1995C256.8 41.7328 257.1 41.3663 257.5 41.0996C257.967 40.8329 258.467 40.6995 259 40.6995C259.4 40.6995 259.734 40.7661 260 40.8994C260.334 41.0327 260.6 41.1994 260.8 41.3994C261 41.5994 261.133 41.8329 261.2 42.0996C261.333 42.3663 261.4 42.6327 261.4 42.8994C261.4 43.3661 261.3 43.7995 261.1 44.1995C260.9 44.5995 260.634 44.9994 260.3 45.3994C259.967 45.8661 259.567 46.3329 259.1 46.7996ZM267.6 59.8994H271C272 58.0327 272.767 56.0662 273.3 53.9995C273.767 51.8662 274 49.7661 274 47.6995C274 45.5661 273.767 43.4329 273.3 41.2996C272.767 39.2329 272 37.2661 271 35.3994H267.6C268.467 37.2661 269.133 39.2329 269.6 41.2996C270.067 43.4329 270.3 45.5661 270.3 47.6995C270.3 49.7661 270.067 51.8662 269.6 53.9995C269.133 56.0662 268.467 58.0327 267.6 59.8994Z" fill="#202020"/>
</svg>
