<svg width="307" height="61" viewBox="0 0 307 61" fill="none" xmlns="http://www.w3.org/2000/svg">
<path d="M5.60019 13.3999L5.30017 16.6001H14.5002L14.2002 13.3999H5.60019ZM7.50018 14.6001L9.90018 8.8999L12.4002 14.6001L12.2002 15.7L14.3002 20H19.1002L9.90018 1.3999L0.700195 20H5.50018L7.7002 15.5L7.50018 14.6001ZM28.1002 13V20H32.0002V12.6001C32.0002 11.2668 31.6668 10.1999 31.0002 9.3999C30.3335 8.66657 29.3002 8.30005 27.9002 8.30005C27.0335 8.30005 26.3002 8.46672 25.7002 8.80005C25.1669 9.13338 24.7335 9.63338 24.4002 10.3V8.5H20.6002V20H24.4002V13C24.4002 12.5333 24.4669 12.1666 24.6002 11.8999C24.8002 11.5666 25.0335 11.3333 25.3002 11.2C25.6335 11 26.0002 10.8999 26.4002 10.8999C27.0002 10.8999 27.4335 11.1 27.7002 11.5C27.9669 11.8333 28.1002 12.3333 28.1002 13ZM38.2002 20.8H34.5002C34.6335 21.8667 34.9335 22.8001 35.4002 23.6001C35.8668 24.3334 36.5335 24.9 37.4002 25.3C38.3335 25.7667 39.5335 26 41.0002 26C42.1335 26 43.2002 25.7999 44.2002 25.3999C45.1335 24.9332 45.8668 24.2334 46.4002 23.3C47.0002 22.4334 47.3002 21.2667 47.3002 19.8V8.5H43.7002V19.8C43.7002 20.4667 43.5668 21.0668 43.3002 21.6001C43.0335 22.0668 42.7002 22.4001 42.3002 22.6001C41.8335 22.8668 41.3335 23 40.8002 23C40.3335 23 39.9002 22.9334 39.5002 22.8C39.1002 22.6 38.8002 22.3333 38.6002 22C38.4002 21.7333 38.2669 21.3334 38.2002 20.8ZM34.3002 14.1001C34.3002 15.4334 34.5669 16.5 35.1002 17.3C35.6335 18.2334 36.3002 18.9 37.1002 19.3C37.9669 19.7667 38.8668 20 39.8002 20C40.7335 20 41.5668 19.7667 42.3002 19.3C43.0335 18.8334 43.6335 18.1667 44.1002 17.3C44.5002 16.4334 44.7002 15.3668 44.7002 14.1001C44.7002 12.9001 44.5002 11.8667 44.1002 11C43.6335 10.1333 43.0335 9.46667 42.3002 9C41.5668 8.53333 40.7335 8.30005 39.8002 8.30005C38.8668 8.30005 37.9669 8.4999 37.1002 8.8999C36.3002 9.36657 35.6335 10.0332 35.1002 10.8999C34.5669 11.7666 34.3002 12.8334 34.3002 14.1001ZM38.3002 14.1001C38.3002 13.5001 38.4002 13.0001 38.6002 12.6001C38.8669 12.2001 39.2002 11.9 39.6002 11.7C40.0669 11.4333 40.5335 11.3 41.0002 11.3C41.3335 11.3 41.6669 11.3667 42.0002 11.5C42.2668 11.6333 42.5335 11.8 42.8002 12C43.0668 12.2667 43.2668 12.5666 43.4002 12.8999C43.6002 13.2332 43.7002 13.6334 43.7002 14.1001C43.7002 14.7668 43.5668 15.3 43.3002 15.7C43.0335 16.1 42.7002 16.4001 42.3002 16.6001C41.9002 16.8001 41.4669 16.8999 41.0002 16.8999C40.5335 16.8999 40.0669 16.8001 39.6002 16.6001C39.2002 16.4001 38.8669 16.1 38.6002 15.7C38.4002 15.2333 38.3002 14.7001 38.3002 14.1001ZM54.0002 0.5H50.2002V20H54.0002V0.5ZM56.7002 4.19995C56.7002 4.79995 56.9335 5.29995 57.4002 5.69995C57.8002 6.09995 58.3002 6.30005 58.9002 6.30005C59.5668 6.30005 60.1002 6.09995 60.5002 5.69995C60.9002 5.29995 61.1002 4.79995 61.1002 4.19995C61.1002 3.59995 60.9002 3.13338 60.5002 2.80005C60.1002 2.40005 59.5668 2.19995 58.9002 2.19995C58.3002 2.19995 57.8002 2.40005 57.4002 2.80005C56.9335 3.13338 56.7002 3.59995 56.7002 4.19995ZM60.8002 8.5H57.1002V20H60.8002V8.5ZM68.1002 25.5L75.6002 8.5H71.8002L68.1002 17.7L70.0002 17.8L66.3002 8.5H62.2002L67.1002 19.1001L64.3002 25.5H68.1002ZM79.8002 16.3999C79.8002 16.1332 79.8669 15.9 80.0002 15.7C80.1335 15.5 80.3335 15.3667 80.6002 15.3C80.8669 15.1667 81.2335 15.1001 81.7002 15.1001C82.3002 15.1001 82.8335 15.1999 83.3002 15.3999C83.8335 15.5332 84.3002 15.7668 84.7002 16.1001V14.3999C84.5002 14.1999 84.2002 14 83.8002 13.8C83.4002 13.6 82.9335 13.4334 82.4002 13.3C81.8668 13.1667 81.2335 13.1001 80.5002 13.1001C79.1002 13.1001 78.0002 13.4 77.2002 14C76.4002 14.6667 76.0002 15.5334 76.0002 16.6001C76.0002 17.4001 76.2002 18.0668 76.6002 18.6001C76.9335 19.2001 77.4335 19.6332 78.1002 19.8999C78.7002 20.1666 79.3669 20.3 80.1002 20.3C80.8335 20.3 81.5335 20.1666 82.2002 19.8999C82.8002 19.6332 83.3002 19.2667 83.7002 18.8C84.1002 18.2667 84.3002 17.6332 84.3002 16.8999L83.9002 15.3999C83.9002 15.9332 83.8002 16.3666 83.6002 16.7C83.3335 17.1 83.0335 17.4001 82.7002 17.6001C82.3002 17.7334 81.9002 17.8 81.5002 17.8C81.1668 17.8 80.8669 17.7666 80.6002 17.7C80.4002 17.5666 80.2002 17.4 80.0002 17.2C79.8669 17 79.8002 16.7332 79.8002 16.3999ZM76.9002 9.5L78.1002 12.1001C78.3002 11.9668 78.5668 11.8333 78.9002 11.7C79.3002 11.5 79.7335 11.3667 80.2002 11.3C80.7335 11.1667 81.2335 11.1001 81.7002 11.1001C82.1002 11.1001 82.4335 11.1333 82.7002 11.2C82.9669 11.2666 83.2002 11.3667 83.4002 11.5C83.5335 11.6333 83.6668 11.8334 83.8002 12.1001C83.8668 12.2334 83.9002 12.4667 83.9002 12.8V20H87.5002V11.8999C87.5002 11.0999 87.2668 10.4332 86.8002 9.8999C86.3335 9.36657 85.7002 8.96662 84.9002 8.69995C84.1002 8.36662 83.2002 8.19995 82.2002 8.19995C81.1335 8.19995 80.1335 8.33343 79.2002 8.6001C78.2669 8.93343 77.5002 9.23333 76.9002 9.5ZM94.2002 0.5H90.4002V20H94.2002V0.5ZM96.9002 4.19995C96.9002 4.79995 97.1002 5.29995 97.5002 5.69995C97.9669 6.09995 98.5002 6.30005 99.1002 6.30005C99.7002 6.30005 100.2 6.09995 100.6 5.69995C101.067 5.29995 101.3 4.79995 101.3 4.19995C101.3 3.59995 101.067 3.13338 100.6 2.80005C100.2 2.40005 99.7002 2.19995 99.1002 2.19995C98.5002 2.19995 97.9669 2.40005 97.5002 2.80005C97.1002 3.13338 96.9002 3.59995 96.9002 4.19995ZM100.9 8.5H97.3002V20H100.9V8.5ZM107.6 0.5H104V20H107.6V0.5ZM116.3 8.5H111.8L106.9 13.3L112.4 20H116.8L111.4 13.3L116.3 8.5ZM129.9 15.5V8.5H125.9V15.8999C125.9 17.2332 126.234 18.3001 126.9 19.1001C127.567 19.9001 128.633 20.3 130.1 20.3C130.9 20.3 131.6 20.1 132.2 19.7C132.734 19.3666 133.2 18.9 133.6 18.3V20H137.3V8.5H133.6V15.5C133.6 15.9667 133.5 16.3334 133.3 16.6001C133.167 16.9334 132.933 17.1999 132.6 17.3999C132.333 17.5332 132 17.6001 131.6 17.6001C130.933 17.6001 130.5 17.4 130.3 17C130.034 16.6667 129.9 16.1667 129.9 15.5ZM140.9 15.8L139.4 18.3C139.867 18.7 140.4 19.0666 141 19.3999C141.6 19.7332 142.267 20 143 20.2C143.734 20.4 144.5 20.5 145.3 20.5C146.7 20.5 147.767 20.1667 148.5 19.5C149.234 18.9 149.6 17.9666 149.6 16.7C149.6 16.0333 149.467 15.4667 149.2 15C148.867 14.6 148.434 14.2332 147.9 13.8999C147.434 13.6332 146.9 13.4 146.3 13.2C145.7 13 145.2 12.8333 144.8 12.7C144.467 12.5 144.167 12.3333 143.9 12.2C143.7 12 143.6 11.7667 143.6 11.5C143.6 11.3 143.7 11.1333 143.9 11C144.1 10.8667 144.367 10.8 144.7 10.8C145.234 10.8 145.8 10.9667 146.4 11.3C147 11.5667 147.534 11.9332 148 12.3999L149.4 9.8999C148.934 9.56657 148.434 9.26667 147.9 9C147.434 8.8 146.9 8.63333 146.3 8.5C145.767 8.3 145.167 8.19995 144.5 8.19995C143.634 8.19995 142.867 8.33343 142.2 8.6001C141.6 8.86676 141.1 9.23328 140.7 9.69995C140.367 10.1666 140.2 10.7667 140.2 11.5C140.2 12.2333 140.333 12.8334 140.6 13.3C140.933 13.7667 141.334 14.1332 141.8 14.3999C142.334 14.6666 142.867 14.9001 143.4 15.1001C144 15.3001 144.5 15.4668 144.9 15.6001C145.234 15.8001 145.467 16 145.6 16.2C145.8 16.3333 145.9 16.5334 145.9 16.8C145.9 17.0667 145.8 17.2666 145.6 17.3999C145.4 17.5999 145.1 17.7 144.7 17.7C144.434 17.7 144.133 17.6333 143.8 17.5C143.4 17.4333 142.967 17.2667 142.5 17C142.034 16.6667 141.5 16.2667 140.9 15.8ZM158.1 8.5H150.4V11.6001H158.1V8.5ZM156 4.5H152.4V20H156V4.5ZM159 14.3C159 15.5 159.267 16.5332 159.8 17.3999C160.4 18.3332 161.2 19.0333 162.2 19.5C163.2 20.0333 164.333 20.3 165.6 20.3C166.8 20.3 167.9 20.0333 168.9 19.5C169.9 19.0333 170.7 18.3332 171.3 17.3999C171.834 16.5332 172.1 15.5 172.1 14.3C172.1 13.0334 171.834 11.9668 171.3 11.1001C170.7 10.1668 169.9 9.46667 168.9 9C167.9 8.46667 166.8 8.19995 165.6 8.19995C164.333 8.19995 163.2 8.46667 162.2 9C161.2 9.46667 160.4 10.1668 159.8 11.1001C159.267 11.9668 159 13.0334 159 14.3ZM162.9 14.3C162.9 13.6334 163 13.1 163.2 12.7C163.467 12.3 163.8 11.9666 164.2 11.7C164.6 11.4333 165.067 11.3 165.6 11.3C166.067 11.3 166.5 11.4333 166.9 11.7C167.3 11.9666 167.634 12.3 167.9 12.7C168.1 13.1 168.2 13.6334 168.2 14.3C168.2 14.9 168.1 15.4 167.9 15.8C167.634 16.2 167.3 16.5334 166.9 16.8C166.5 17 166.067 17.1001 165.6 17.1001C165.067 17.1001 164.6 17 164.2 16.8C163.8 16.5334 163.467 16.2 163.2 15.8C163 15.4 162.9 14.9 162.9 14.3ZM174 11.8999H179L172.9 20H184.4V16.6001H179.5L185.2 8.5H174V11.8999ZM196.9 13.8L193.9 15.8999C194.3 16.7666 194.867 17.5333 195.6 18.2C196.333 18.9333 197.167 19.4999 198.1 19.8999C199.1 20.2999 200.167 20.5 201.3 20.5C202.1 20.5 202.9 20.4 203.7 20.2C204.434 19.9333 205.1 19.5668 205.7 19.1001C206.367 18.6334 206.867 18.0666 207.2 17.3999C207.534 16.6666 207.7 15.8667 207.7 15C207.7 14.2667 207.6 13.6 207.4 13C207.134 12.4667 206.8 11.9667 206.4 11.5C206 11.1 205.534 10.7332 205 10.3999C204.467 10.1332 203.9 9.86676 203.3 9.6001C202.5 9.33343 201.8 9.06672 201.2 8.80005C200.6 8.53338 200.167 8.26667 199.9 8C199.567 7.66667 199.4 7.2999 199.4 6.8999C199.4 6.56657 199.567 6.26667 199.9 6C200.234 5.73333 200.7 5.6001 201.3 5.6001C201.7 5.6001 202.1 5.6999 202.5 5.8999C202.9 6.03324 203.267 6.26676 203.6 6.6001C203.933 6.86676 204.234 7.23328 204.5 7.69995L207.7 5.8999C207.367 5.2999 206.934 4.7001 206.4 4.1001C205.8 3.5001 205.067 3.03328 204.2 2.69995C203.4 2.29995 202.4 2.1001 201.2 2.1001C200.067 2.1001 199.033 2.29995 198.1 2.69995C197.167 3.09995 196.434 3.66657 195.9 4.3999C195.367 5.13324 195.1 6 195.1 7C195.1 7.86667 195.267 8.63338 195.6 9.30005C195.933 9.90005 196.334 10.4 196.8 10.8C197.267 11.2 197.767 11.5334 198.3 11.8C198.834 12.1334 199.334 12.3667 199.8 12.5C200.6 12.7667 201.267 13.0334 201.8 13.3C202.334 13.5667 202.7 13.8334 202.9 14.1001C203.167 14.3668 203.3 14.7333 203.3 15.2C203.3 15.7333 203.1 16.1667 202.7 16.5C202.3 16.7667 201.8 16.8999 201.2 16.8999C200.6 16.8999 200.034 16.7667 199.5 16.5C198.967 16.3 198.467 15.9667 198 15.5C197.6 15.0333 197.234 14.4667 196.9 13.8ZM213.1 16.3999C213.1 16.0666 213.167 15.8333 213.3 15.7C213.434 15.5 213.634 15.3333 213.9 15.2C214.167 15.1333 214.534 15.1001 215 15.1001C215.6 15.1001 216.133 15.1667 216.6 15.3C217.133 15.4334 217.6 15.6667 218 16V14.3C217.8 14.1 217.5 13.9 217.1 13.7C216.7 13.5 216.234 13.3333 215.7 13.2C215.167 13.0666 214.534 13 213.8 13C212.4 13 211.3 13.3333 210.5 14C209.7 14.6 209.3 15.4668 209.3 16.6001C209.3 17.3334 209.5 18.0001 209.9 18.6001C210.234 19.1334 210.734 19.5334 211.4 19.8C212 20.0667 212.667 20.2 213.4 20.2C214.134 20.2 214.834 20.0667 215.5 19.8C216.1 19.5334 216.6 19.1666 217 18.7C217.4 18.1666 217.6 17.5334 217.6 16.8L217.2 15.3C217.2 15.8334 217.1 16.3 216.9 16.7C216.634 17.0333 216.334 17.3 216 17.5C215.6 17.7 215.2 17.8 214.8 17.8C214.467 17.8 214.167 17.7334 213.9 17.6001C213.7 17.4668 213.5 17.3333 213.3 17.2C213.167 16.9333 213.1 16.6666 213.1 16.3999ZM210.2 9.5L211.4 12C211.6 11.8667 211.867 11.7334 212.2 11.6001C212.6 11.4668 213.034 11.3333 213.5 11.2C214.034 11.0666 214.534 11 215 11C215.4 11 215.734 11.0334 216 11.1001C216.267 11.1668 216.5 11.2666 216.7 11.3999C216.834 11.5999 216.967 11.8 217.1 12C217.167 12.2 217.2 12.4333 217.2 12.7V20H220.8V11.8999C220.8 11.0999 220.567 10.4 220.1 9.80005C219.633 9.26672 219 8.86676 218.2 8.6001C217.4 8.33343 216.5 8.19995 215.5 8.19995C214.434 8.19995 213.434 8.33343 212.5 8.6001C211.567 8.86676 210.8 9.16667 210.2 9.5ZM241.2 20V12.6001C241.2 11.6668 241.1 10.8666 240.9 10.2C240.634 9.53328 240.234 9.03328 239.7 8.69995C239.167 8.36662 238.467 8.19995 237.6 8.19995C236.8 8.19995 236.1 8.36662 235.5 8.69995C234.9 9.03328 234.367 9.5001 233.9 10.1001C233.7 9.5001 233.334 9.03328 232.8 8.69995C232.267 8.36662 231.533 8.19995 230.6 8.19995C229.867 8.19995 229.2 8.36662 228.6 8.69995C228.067 9.09995 227.633 9.59995 227.3 10.2V8.5H223.7V20H227.3V13C227.3 12.5333 227.367 12.1334 227.5 11.8C227.634 11.4667 227.833 11.2334 228.1 11.1001C228.367 10.9001 228.667 10.8 229 10.8C229.534 10.8 229.9 10.9999 230.1 11.3999C230.367 11.7332 230.5 12.2667 230.5 13V20H234.3V13C234.3 12.5333 234.367 12.1334 234.5 11.8C234.634 11.4667 234.833 11.2334 235.1 11.1001C235.367 10.9001 235.667 10.8 236 10.8C236.467 10.8 236.833 10.9999 237.1 11.3999C237.3 11.7332 237.4 12.2667 237.4 13V20H241.2ZM247.1 16.3999C247.1 16.0666 247.167 15.8333 247.3 15.7C247.434 15.5 247.634 15.3333 247.9 15.2C248.167 15.1333 248.534 15.1001 249 15.1001C249.534 15.1001 250.067 15.1667 250.6 15.3C251.133 15.4334 251.6 15.6667 252 16V14.3C251.8 14.1 251.5 13.9 251.1 13.7C250.7 13.5 250.234 13.3333 249.7 13.2C249.1 13.0666 248.467 13 247.8 13C246.334 13 245.234 13.3333 244.5 14C243.7 14.6 243.3 15.4668 243.3 16.6001C243.3 17.3334 243.467 18.0001 243.8 18.6001C244.2 19.1334 244.7 19.5334 245.3 19.8C245.967 20.0667 246.667 20.2 247.4 20.2C248.134 20.2 248.8 20.0667 249.4 19.8C250.067 19.5334 250.6 19.1666 251 18.7C251.4 18.1666 251.6 17.5334 251.6 16.8L251.2 15.3C251.2 15.8334 251.067 16.3 250.8 16.7C250.6 17.0333 250.3 17.3 249.9 17.5C249.567 17.7 249.167 17.8 248.7 17.8C248.434 17.8 248.167 17.7334 247.9 17.6001C247.634 17.4668 247.434 17.3333 247.3 17.2C247.167 16.9333 247.1 16.6666 247.1 16.3999ZM244.1 9.5L245.4 12C245.6 11.8667 245.867 11.7334 246.2 11.6001C246.6 11.4668 247.034 11.3333 247.5 11.2C247.967 11.0666 248.467 11 249 11C249.334 11 249.634 11.0334 249.9 11.1001C250.234 11.1668 250.467 11.2666 250.6 11.3999C250.8 11.5999 250.934 11.8 251 12C251.134 12.2 251.2 12.4333 251.2 12.7V20H254.8V11.8999C254.8 11.0999 254.567 10.4 254.1 9.80005C253.633 9.26672 253 8.86676 252.2 8.6001C251.4 8.33343 250.5 8.19995 249.5 8.19995C248.434 8.19995 247.434 8.33343 246.5 8.6001C245.567 8.86676 244.767 9.16667 244.1 9.5ZM265.1 13V20H269V12.6001C269 11.2001 268.7 10.1 268.1 9.30005C267.434 8.56672 266.367 8.19995 264.9 8.19995C264.1 8.19995 263.4 8.36662 262.8 8.69995C262.2 9.09995 261.734 9.59995 261.4 10.2V8.5H257.6V20H261.4V13C261.4 12.5333 261.5 12.1334 261.7 11.8C261.834 11.4667 262.067 11.2334 262.4 11.1001C262.667 10.9001 263 10.8 263.4 10.8C264 10.8 264.434 10.9999 264.7 11.3999C264.967 11.7332 265.1 12.2667 265.1 13ZM278.4 8.5H270.7V11.6001H278.4V8.5ZM276.3 4.5H272.7V20H276.3V4.5ZM282.9 16.3999C282.9 16.1332 282.967 15.9 283.1 15.7C283.233 15.5 283.434 15.3333 283.7 15.2C283.967 15.1333 284.333 15.1001 284.8 15.1001C285.333 15.1001 285.867 15.1667 286.4 15.3C286.934 15.5 287.4 15.7333 287.8 16V14.3C287.6 14.1 287.3 13.9 286.9 13.7C286.5 13.5 286.034 13.3333 285.5 13.2C284.9 13.0666 284.267 13 283.6 13C282.133 13 281.034 13.3333 280.3 14C279.5 14.6 279.1 15.4668 279.1 16.6001C279.1 17.4001 279.267 18.0668 279.6 18.6001C280 19.1334 280.5 19.5334 281.1 19.8C281.767 20.0667 282.467 20.2 283.2 20.2C283.934 20.2 284.6 20.0999 285.2 19.8999C285.867 19.6332 286.4 19.2333 286.8 18.7C287.2 18.1666 287.4 17.5334 287.4 16.8L287 15.3C287 15.8334 286.867 16.3 286.6 16.7C286.4 17.0333 286.1 17.3 285.7 17.5C285.367 17.7 284.967 17.8 284.5 17.8C284.234 17.8 283.967 17.7334 283.7 17.6001C283.434 17.5334 283.233 17.4 283.1 17.2C282.967 16.9333 282.9 16.6666 282.9 16.3999ZM279.9 9.5L281.2 12C281.4 11.9333 281.667 11.8333 282 11.7C282.4 11.5 282.833 11.3333 283.3 11.2C283.767 11.1333 284.267 11.1001 284.8 11.1001C285.134 11.1001 285.434 11.1333 285.7 11.2C286.034 11.2 286.267 11.3 286.4 11.5C286.6 11.6333 286.733 11.8 286.8 12C286.934 12.2 287 12.4333 287 12.7V20H290.6V11.8999C290.6 11.0999 290.367 10.4332 289.9 9.8999C289.434 9.36657 288.8 8.93343 288 8.6001C287.2 8.33343 286.3 8.19995 285.3 8.19995C284.233 8.19995 283.233 8.33343 282.3 8.6001C281.367 8.86676 280.567 9.16667 279.9 9.5ZM6.90018 37.5H2.60019V55H6.90018V37.5ZM5.40018 55H8.80017C10.7335 55 12.4002 54.6332 13.8002 53.8999C15.2002 53.1666 16.3002 52.1666 17.1002 50.8999C17.8335 49.5666 18.2002 48 18.2002 46.2C18.2002 44.4666 17.8335 42.9334 17.1002 41.6001C16.3002 40.3334 15.2002 39.3334 13.8002 38.6001C12.4002 37.8668 10.7335 37.5 8.80017 37.5H5.40018V41.2H8.7002C9.36686 41.2 10.0002 41.3 10.6002 41.5C11.2669 41.6333 11.8335 41.9 12.3002 42.3C12.7668 42.7001 13.1335 43.2332 13.4002 43.8999C13.6668 44.4999 13.8002 45.2666 13.8002 46.2C13.8002 47.2 13.6668 48.0333 13.4002 48.7C13.1335 49.2999 12.7668 49.7999 12.3002 50.2C11.8335 50.5333 11.2669 50.8 10.6002 51C10.0002 51.1333 9.36686 51.2 8.7002 51.2H5.40018V55ZM24.5002 50.5V43.5H20.5002V51C20.5002 52.3333 20.8335 53.4 21.5002 54.2C22.1668 54.9333 23.2335 55.3 24.7002 55.3C25.5002 55.3 26.2002 55.1334 26.8002 54.8C27.3335 54.4 27.8002 53.9 28.2002 53.3V55H31.9002V43.5H28.2002V50.5C28.2002 50.9667 28.1002 51.3666 27.9002 51.7C27.7668 52.0333 27.5335 52.2666 27.2002 52.3999C26.9335 52.5999 26.6002 52.7 26.2002 52.7C25.5335 52.7 25.1002 52.5001 24.9002 52.1001C24.6335 51.7001 24.5002 51.1667 24.5002 50.5ZM47.0002 37.5H42.8002V55H47.0002V37.5ZM45.4002 37.5V41H48.9002C49.7002 41 50.3668 41.2001 50.9002 41.6001C51.3668 42.0001 51.6002 42.5667 51.6002 43.3C51.6002 44.0334 51.3668 44.5666 50.9002 44.8999C50.3668 45.2999 49.7002 45.5 48.9002 45.5H45.4002V49H48.9002C50.3668 49 51.6002 48.7667 52.6002 48.3C53.6002 47.8334 54.3668 47.1667 54.9002 46.3C55.4335 45.4334 55.7002 44.4334 55.7002 43.3C55.7002 42.1 55.4335 41.0666 54.9002 40.2C54.3668 39.3333 53.6002 38.6666 52.6002 38.2C51.6002 37.7333 50.3668 37.5 48.9002 37.5H45.4002ZM61.7002 35.5H57.9002V55H61.7002V35.5ZM64.0002 49.3C64.0002 50.5 64.2668 51.5332 64.8002 52.3999C65.4002 53.3332 66.2002 54.0333 67.2002 54.5C68.2002 55.0333 69.3335 55.3 70.6002 55.3C71.8002 55.3 72.9002 55.0333 73.9002 54.5C74.9002 54.0333 75.7002 53.3332 76.3002 52.3999C76.8335 51.5332 77.1002 50.5 77.1002 49.3C77.1002 48.1 76.8335 47.0334 76.3002 46.1001C75.7002 45.2334 74.9002 44.5333 73.9002 44C72.9002 43.5333 71.8002 43.3 70.6002 43.3C69.3335 43.3 68.2002 43.5333 67.2002 44C66.2002 44.5333 65.4002 45.2334 64.8002 46.1001C64.2668 47.0334 64.0002 48.1 64.0002 49.3ZM67.9002 49.3C67.9002 48.7001 68.0002 48.1666 68.2002 47.7C68.4669 47.2999 68.8002 46.9666 69.2002 46.7C69.6002 46.5 70.0669 46.3999 70.6002 46.3999C71.0669 46.3999 71.5002 46.5 71.9002 46.7C72.3002 46.9666 72.6335 47.2999 72.9002 47.7C73.1002 48.1666 73.2002 48.7001 73.2002 49.3C73.2002 49.9 73.1002 50.4332 72.9002 50.8999C72.6335 51.2999 72.3002 51.6 71.9002 51.8C71.5002 52.0667 71.0669 52.2 70.6002 52.2C70.0669 52.2 69.6002 52.0667 69.2002 51.8C68.8002 51.6 68.4669 51.2999 68.2002 50.8999C68.0002 50.4332 67.9002 49.9 67.9002 49.3ZM78.7002 49.3C78.7002 50.5 79.0002 51.5332 79.6002 52.3999C80.1335 53.3332 80.9002 54.0333 81.9002 54.5C82.9002 55.0333 84.0335 55.3 85.3002 55.3C86.5668 55.3 87.6669 55.0333 88.6002 54.5C89.6002 54.0333 90.4002 53.3332 91.0002 52.3999C91.6002 51.5332 91.9002 50.5 91.9002 49.3C91.9002 48.1 91.6002 47.0334 91.0002 46.1001C90.4002 45.2334 89.6002 44.5333 88.6002 44C87.6669 43.5333 86.5668 43.3 85.3002 43.3C84.0335 43.3 82.9002 43.5333 81.9002 44C80.9002 44.5333 80.1335 45.2334 79.6002 46.1001C79.0002 47.0334 78.7002 48.1 78.7002 49.3ZM82.6002 49.3C82.6002 48.7001 82.7335 48.1666 83.0002 47.7C83.2002 47.2999 83.5002 46.9666 83.9002 46.7C84.3002 46.5 84.7668 46.3999 85.3002 46.3999C85.7668 46.3999 86.2002 46.5 86.6002 46.7C87.0002 46.9666 87.3335 47.2999 87.6002 47.7C87.8669 48.1666 88.0002 48.7001 88.0002 49.3C88.0002 49.9 87.8669 50.4332 87.6002 50.8999C87.3335 51.2999 87.0002 51.6 86.6002 51.8C86.2002 52.0667 85.7668 52.2 85.3002 52.2C84.7668 52.2 84.3002 52.0667 83.9002 51.8C83.5002 51.6 83.2002 51.2999 83.0002 50.8999C82.7335 50.4332 82.6002 49.9 82.6002 49.3ZM98.0002 60.5L105.5 43.5H101.6L98.0002 52.7L99.9002 52.8L96.2002 43.5H92.0002L97.0002 54.1001L94.2002 60.5H98.0002ZM118 55V35.5H114.2V55H118ZM127.4 49.3C127.4 48.0334 127.133 46.9333 126.6 46C126.133 45.1333 125.467 44.4667 124.6 44C123.8 43.5333 122.934 43.3 122 43.3C121 43.3 120.134 43.5333 119.4 44C118.667 44.4667 118.067 45.1668 117.6 46.1001C117.2 46.9668 117 48.0334 117 49.3C117 50.5 117.2 51.5667 117.6 52.5C118.067 53.4333 118.667 54.1334 119.4 54.6001C120.134 55.0668 121 55.3 122 55.3C122.934 55.3 123.8 55.0668 124.6 54.6001C125.467 54.1334 126.133 53.4668 126.6 52.6001C127.133 51.6668 127.4 50.5667 127.4 49.3ZM123.5 49.3C123.5 49.9 123.367 50.4332 123.1 50.8999C122.833 51.2999 122.5 51.6332 122.1 51.8999C121.7 52.0999 121.234 52.2 120.7 52.2C120.3 52.2 119.867 52.0999 119.4 51.8999C119 51.6332 118.667 51.2999 118.4 50.8999C118.134 50.4332 118 49.9 118 49.3C118 48.7001 118.134 48.1666 118.4 47.7C118.667 47.2333 119 46.9 119.4 46.7C119.867 46.5 120.3 46.3999 120.7 46.3999C121.234 46.3999 121.7 46.5 122.1 46.7C122.5 46.9666 122.833 47.2999 123.1 47.7C123.367 48.1666 123.5 48.7001 123.5 49.3ZM129.5 39.2C129.5 39.7999 129.7 40.2999 130.1 40.7C130.567 41.1 131.1 41.3 131.7 41.3C132.3 41.3 132.8 41.1 133.2 40.7C133.667 40.2999 133.9 39.7999 133.9 39.2C133.9 38.6 133.667 38.1334 133.2 37.8C132.8 37.4 132.3 37.2 131.7 37.2C131.1 37.2 130.567 37.4 130.1 37.8C129.7 38.1334 129.5 38.6 129.5 39.2ZM133.5 43.5H129.9V55H133.5V43.5ZM140.4 35.5H136.6V55H140.4V35.5ZM146.3 51.5C146.3 51.1667 146.367 50.9 146.5 50.7C146.634 50.5666 146.833 50.4334 147.1 50.3C147.367 50.1667 147.734 50.1001 148.2 50.1001C148.734 50.1001 149.267 50.1999 149.8 50.3999C150.334 50.5332 150.8 50.7668 151.2 51.1001V49.3999C151 49.1999 150.7 49 150.3 48.8C149.9 48.6 149.434 48.4334 148.9 48.3C148.3 48.1667 147.667 48.1001 147 48.1001C145.534 48.1001 144.434 48.4 143.7 49C142.9 49.6667 142.5 50.5334 142.5 51.6001C142.5 52.4001 142.667 53.0668 143 53.6001C143.4 54.2001 143.9 54.6332 144.5 54.8999C145.167 55.1666 145.867 55.3 146.6 55.3C147.333 55.3 148 55.1666 148.6 54.8999C149.267 54.6332 149.8 54.2667 150.2 53.8C150.6 53.2667 150.8 52.6332 150.8 51.8999L150.4 50.3999C150.4 50.9332 150.267 51.3666 150 51.7C149.8 52.1 149.5 52.4001 149.1 52.6001C148.767 52.8001 148.367 52.8999 147.9 52.8999C147.634 52.8999 147.367 52.8333 147.1 52.7C146.833 52.5666 146.634 52.4 146.5 52.2C146.367 52 146.3 51.7667 146.3 51.5ZM143.3 44.5L144.6 47.1001C144.8 46.9668 145.067 46.8333 145.4 46.7C145.8 46.5666 146.234 46.4334 146.7 46.3C147.167 46.1667 147.667 46.1001 148.2 46.1001C148.534 46.1001 148.833 46.1333 149.1 46.2C149.433 46.2666 149.667 46.3667 149.8 46.5C150 46.6333 150.134 46.8334 150.2 47.1001C150.334 47.3001 150.4 47.5334 150.4 47.8V55H154V47C154 46.1333 153.767 45.4332 153.3 44.8999C152.834 44.3666 152.2 43.9666 151.4 43.7C150.6 43.3666 149.7 43.2 148.7 43.2C147.634 43.2 146.634 43.3334 145.7 43.6001C144.767 43.9334 143.967 44.2333 143.3 44.5ZM164.3 48V55H168.2V47.6001C168.2 46.2668 167.9 45.1999 167.3 44.3999C166.633 43.6666 165.567 43.3 164.1 43.3C163.3 43.3 162.6 43.4667 162 43.8C161.4 44.1334 160.933 44.6334 160.6 45.3V43.5H156.8V55H160.6V48C160.6 47.6 160.7 47.2332 160.9 46.8999C161.034 46.5666 161.267 46.3333 161.6 46.2C161.867 46 162.2 45.8999 162.6 45.8999C163.2 45.8999 163.634 46.1 163.9 46.5C164.167 46.8333 164.3 47.3333 164.3 48ZM181 48.8999L178.1 51C178.5 51.8667 179.034 52.6334 179.7 53.3C180.434 54.0334 181.3 54.6 182.3 55C183.234 55.4 184.267 55.6001 185.4 55.6001C186.267 55.6001 187.067 55.4666 187.8 55.2C188.6 55 189.3 54.6666 189.9 54.2C190.5 53.7333 190.967 53.1667 191.3 52.5C191.7 51.7667 191.9 50.9668 191.9 50.1001C191.9 49.3668 191.767 48.7001 191.5 48.1001C191.3 47.5668 191 47.0668 190.6 46.6001C190.2 46.2001 189.734 45.8333 189.2 45.5C188.667 45.1667 188.067 44.9 187.4 44.7C186.6 44.4333 185.9 44.1666 185.3 43.8999C184.767 43.6332 184.334 43.3668 184 43.1001C183.734 42.7668 183.6 42.4 183.6 42C183.6 41.6667 183.734 41.3668 184 41.1001C184.334 40.8334 184.8 40.7 185.4 40.7C185.867 40.7 186.3 40.8 186.7 41C187.1 41.1333 187.434 41.3666 187.7 41.7C188.034 41.9666 188.333 42.2999 188.6 42.7L191.8 41C191.534 40.3333 191.1 39.7333 190.5 39.2C189.967 38.6 189.267 38.1 188.4 37.7C187.534 37.2999 186.534 37.1001 185.4 37.1001C184.267 37.1001 183.234 37.2999 182.3 37.7C181.367 38.1 180.633 38.7 180.1 39.5C179.567 40.2333 179.3 41.1001 179.3 42.1001C179.3 42.9668 179.434 43.7332 179.7 44.3999C180.034 44.9332 180.434 45.4332 180.9 45.8999C181.434 46.2999 181.967 46.6332 182.5 46.8999C183.034 47.1666 183.5 47.3667 183.9 47.5C184.767 47.8333 185.467 48.1332 186 48.3999C186.467 48.6666 186.833 48.9333 187.1 49.2C187.3 49.4666 187.4 49.8334 187.4 50.3C187.4 50.8334 187.2 51.2333 186.8 51.5C186.4 51.8333 185.9 52 185.3 52C184.7 52 184.133 51.8668 183.6 51.6001C183.133 51.3334 182.667 50.9667 182.2 50.5C181.734 50.1 181.334 49.5666 181 48.8999ZM198.9 37.5H194.7V55H198.9V37.5ZM197.4 37.5V41H200.8C201.667 41 202.334 41.2001 202.8 41.6001C203.267 42.0001 203.5 42.5667 203.5 43.3C203.5 44.0334 203.267 44.5666 202.8 44.8999C202.334 45.2999 201.667 45.5 200.8 45.5H197.4V49H200.8C202.267 49 203.5 48.7667 204.5 48.3C205.5 47.8334 206.267 47.1667 206.8 46.3C207.334 45.4334 207.6 44.4334 207.6 43.3C207.6 42.1 207.334 41.0666 206.8 40.2C206.267 39.3333 205.5 38.6666 204.5 38.2C203.5 37.7333 202.267 37.5 200.8 37.5H197.4ZM213.1 51.6001V55H221.9V51.6001H213.1ZM213.1 37.5V41H222V37.5H213.1ZM213.1 44.1001V47.5H221.4V44.1001H213.1ZM214.3 37.5H210.3V55H214.3V37.5ZM228.4 48.5L228.1 51.7H237.4L237.1 48.5H228.4ZM230.2 49.6001L232.7 44L235.1 49.6001L235 50.7L237.1 55H241.9L232.7 36.5L223.5 55H228.2L230.4 50.5L230.2 49.6001ZM248.1 37.6001H243.7V55.1001H248.1V37.6001ZM259 37.6001H254L246.9 45.8999L254.2 55.1001H259.4L251.9 45.8L259 37.6001ZM265.5 37.6001H261.2V55.1001H265.5V37.6001ZM285.3 37.6001H281.3V47.3999L269.2 36.7V55.1001H273.2V45.2L285.3 55.8999V37.6001ZM297.7 45.6001V48.8H302.4C302.2 49.2667 301.967 49.7001 301.7 50.1001C301.5 50.5001 301.2 50.8334 300.8 51.1001C300.467 51.4334 300.034 51.6667 299.5 51.8C298.967 51.9334 298.4 52 297.8 52C296.733 52 295.8 51.7667 295 51.3C294.2 50.8334 293.567 50.1999 293.1 49.3999C292.7 48.5332 292.5 47.5332 292.5 46.3999C292.5 45.1999 292.734 44.2333 293.2 43.5C293.667 42.6333 294.3 42.0001 295.1 41.6001C295.9 41.1334 296.8 40.8999 297.8 40.8999C298.8 40.8999 299.634 41.1334 300.3 41.6001C300.967 42.0668 301.5 42.6334 301.9 43.3L305.7 41.3999C305.1 40.5999 304.434 39.8666 303.7 39.2C302.967 38.6 302.1 38.1334 301.1 37.8C300.1 37.4 299 37.2 297.8 37.2C296.4 37.2 295.1 37.4332 293.9 37.8999C292.7 38.3666 291.667 38.9666 290.8 39.7C289.934 40.5666 289.267 41.5334 288.8 42.6001C288.267 43.7334 288 44.9999 288 46.3999C288 47.7999 288.234 49.0666 288.7 50.2C289.234 51.3333 289.9 52.3001 290.7 53.1001C291.567 53.9668 292.6 54.6334 293.8 55.1001C294.934 55.5001 296.2 55.7 297.6 55.7C299.067 55.7 300.4 55.4332 301.6 54.8999C302.733 54.3666 303.667 53.6333 304.4 52.7C305.2 51.7666 305.767 50.7 306.1 49.5C306.5 48.3 306.667 47.0001 306.6 45.6001H297.7Z" fill="#202020"/>
</svg>
