<svg width="69" height="16" viewBox="0 0 69 16" fill="none" xmlns="http://www.w3.org/2000/svg">
<path d="M2.79999 7.80029L2.5 9.30029H8L7.70001 7.80029H2.79999ZM3.5 8.30029L5.20001 4.50049L6.90002 8.40039V8.80029L8.29999 12.0005H10.3L5.20001 0.900391L0 12.0005H2L3.5 8.70068V8.30029ZM11.3 15.3003H12.9V5.10059H11.3V15.3003ZM18.6 8.50049C18.6 7.76715 18.4667 7.13392 18.2 6.60059C17.8667 6.06725 17.4667 5.63363 17 5.30029C16.4667 5.03363 15.9 4.90039 15.3 4.90039C14.7 4.90039 14.2 5.03363 13.8 5.30029C13.3333 5.63363 13 6.06725 12.8 6.60059C12.5333 7.13392 12.4 7.76715 12.4 8.50049C12.4 9.30049 12.5333 9.96715 12.8 10.5005C13 11.0338 13.3333 11.434 13.8 11.7007C14.2 12.034 14.7 12.2007 15.3 12.2007C15.9 12.2007 16.4667 12.067 17 11.8003C17.4667 11.467 17.8667 11.0338 18.2 10.5005C18.4667 9.96715 18.6 9.30049 18.6 8.50049ZM17 8.50049C17 8.96715 16.9 9.36735 16.7 9.70068C16.5 10.034 16.2334 10.2671 15.9 10.4004C15.6334 10.6004 15.3 10.7007 14.9 10.7007C14.5667 10.7007 14.2667 10.6338 14 10.5005C13.6667 10.3005 13.4 10.034 13.2 9.70068C13 9.36735 12.9 8.96715 12.9 8.50049C12.9 8.03382 13 7.66706 13.2 7.40039C13.4 7.06706 13.6667 6.80059 14 6.60059C14.2667 6.46725 14.5667 6.40039 14.9 6.40039C15.3 6.40039 15.6334 6.46725 15.9 6.60059C16.2334 6.80059 16.5 7.06706 16.7 7.40039C16.9 7.66706 17 8.03382 17 8.50049ZM21.8 12.0005V5.10059H20.2V12.0005H21.8ZM23.8 6.80029L24.6 5.50049C24.4666 5.30049 24.3 5.13382 24.1 5.00049C23.8333 4.93382 23.6 4.90039 23.4 4.90039C23 4.90039 22.6334 5.03363 22.3 5.30029C22.0334 5.56696 21.8 5.90029 21.6 6.30029C21.4 6.76696 21.3 7.26696 21.3 7.80029L21.8 8.10059C21.8 7.76725 21.8334 7.50029 21.9 7.30029C21.9667 7.03363 22.1 6.83402 22.3 6.70068C22.4334 6.56735 22.6334 6.50049 22.9 6.50049C23.1 6.50049 23.2667 6.50049 23.4 6.50049C23.5334 6.56715 23.6667 6.66696 23.8 6.80029ZM27.5 10.8003L25.9 10.3003L24.6 14.2007L25.8 14.6006L27.5 10.8003ZM38.1 6.80029L33.3 11.9004H41.3V10.3003H36.7L39.7 7.40039C40.1666 7.00039 40.5334 6.53382 40.8 6.00049C41.0667 5.46715 41.2 4.93372 41.2 4.40039C41.2 4.06706 41.1 3.70029 40.9 3.30029C40.7667 2.96696 40.5667 2.63363 40.3 2.30029C39.9667 1.96696 39.6 1.73392 39.2 1.60059C38.7333 1.40059 38.2 1.30029 37.6 1.30029C36.8 1.30029 36.1 1.46696 35.5 1.80029C34.9667 2.13363 34.5667 2.60068 34.3 3.20068C33.9667 3.73402 33.8 4.36725 33.8 5.10059H35.6C35.6 4.70059 35.6667 4.30039 35.8 3.90039C36 3.56706 36.2333 3.30059 36.5 3.10059C36.7667 2.96725 37.1 2.90039 37.5 2.90039C37.8333 2.90039 38.1 2.93382 38.3 3.00049C38.5 3.06715 38.7 3.20039 38.9 3.40039C39.0334 3.53372 39.1333 3.70039 39.2 3.90039C39.2666 4.10039 39.3 4.30049 39.3 4.50049C39.3 4.76715 39.2666 5.03363 39.2 5.30029C39.0666 5.56696 38.9334 5.80049 38.8 6.00049C38.6 6.26716 38.3666 6.53363 38.1 6.80029ZM44.4 6.70068C44.4 6.16735 44.4333 5.63392 44.5 5.10059C44.6333 4.63392 44.8 4.23372 45 3.90039C45.2 3.56706 45.4667 3.33402 45.8 3.20068C46.0667 3.00068 46.3666 2.90039 46.7 2.90039C47.1 2.90039 47.4333 3.00068 47.7 3.20068C47.9666 3.33402 48.2 3.56706 48.4 3.90039C48.6 4.23372 48.7667 4.63392 48.9 5.10059C49.0334 5.63392 49.1 6.16735 49.1 6.70068C49.1 7.23402 49.0334 7.73402 48.9 8.20068C48.7667 8.66735 48.6 9.10049 48.4 9.50049C48.2 9.83382 47.9666 10.0674 47.7 10.2007C47.4333 10.4007 47.1 10.5005 46.7 10.5005C46.3666 10.5005 46.0667 10.4007 45.8 10.2007C45.4667 10.0674 45.2 9.83382 45 9.50049C44.8 9.10049 44.6333 8.66735 44.5 8.20068C44.4333 7.73402 44.4 7.23402 44.4 6.70068ZM42.6 6.70068C42.6 7.76735 42.7666 8.70049 43.1 9.50049C43.5 10.3672 44 11.0004 44.6 11.4004C45.2 11.8671 45.9 12.1006 46.7 12.1006C47.5666 12.1006 48.3 11.8671 48.9 11.4004C49.5 11.0004 49.9667 10.3672 50.3 9.50049C50.6334 8.70049 50.8 7.76735 50.8 6.70068C50.8 5.63402 50.6334 4.66696 50.3 3.80029C49.9667 3.00029 49.5 2.40049 48.9 2.00049C48.3 1.53382 47.5666 1.30029 46.7 1.30029C45.9 1.30029 45.2 1.53382 44.6 2.00049C44 2.40049 43.5 3.00029 43.1 3.80029C42.7666 4.66696 42.6 5.63402 42.6 6.70068ZM56.6 6.80029L51.7 11.9004H59.7V10.3003H55.2L58.1 7.40039C58.5666 7.00039 58.9333 6.53382 59.2 6.00049C59.4666 5.46715 59.6 4.93372 59.6 4.40039C59.6 4.06706 59.5334 3.70029 59.4 3.30029C59.2 2.96696 58.9666 2.63363 58.7 2.30029C58.4333 1.96696 58.0666 1.73392 57.6 1.60059C57.1333 1.40059 56.6 1.30029 56 1.30029C55.2 1.30029 54.5333 1.46696 54 1.80029C53.4 2.13363 52.9666 2.60068 52.7 3.20068C52.4333 3.73402 52.3 4.36725 52.3 5.10059H54C54 4.70059 54.1 4.30039 54.3 3.90039C54.4334 3.56706 54.6334 3.30059 54.9 3.10059C55.2334 2.96725 55.6 2.90039 56 2.90039C56.2667 2.90039 56.5 2.93382 56.7 3.00049C56.9666 3.06715 57.1667 3.20039 57.3 3.40039C57.4334 3.53372 57.5333 3.70039 57.6 3.90039C57.7333 4.10039 57.8 4.30049 57.8 4.50049C57.8 4.76715 57.7333 5.03363 57.6 5.30029C57.5333 5.56696 57.4 5.80049 57.2 6.00049C57 6.26716 56.8 6.53363 56.6 6.80029ZM64.4 5.90039V6.80029C65.1334 6.80029 65.8 6.70049 66.4 6.50049C66.9334 6.23382 67.3666 5.90049 67.7 5.50049C68.0333 5.10049 68.2 4.63392 68.2 4.10059C68.2 3.56725 68.0667 3.10068 67.8 2.70068C67.6001 2.30068 67.2333 1.96735 66.7 1.70068C66.2333 1.43402 65.6667 1.30029 65 1.30029C64.3333 1.30029 63.7667 1.43402 63.3 1.70068C62.8334 1.90068 62.4333 2.23402 62.1 2.70068C61.8333 3.16735 61.7 3.66735 61.7 4.20068H63.4C63.4 3.80068 63.5667 3.46735 63.9 3.20068C64.1667 2.93402 64.5333 2.80029 65 2.80029C65.3333 2.80029 65.6001 2.86715 65.8 3.00049C66 3.06715 66.1667 3.23382 66.3 3.50049C66.3667 3.70049 66.4 3.93402 66.4 4.20068C66.4 4.40068 66.3667 4.60029 66.3 4.80029C66.2334 5.00029 66.1 5.20039 65.9 5.40039C65.7 5.53372 65.5 5.63402 65.3 5.70068C65.0334 5.83402 64.7334 5.90039 64.4 5.90039ZM64.9 12.1006C65.6334 12.1006 66.2667 11.9674 66.8 11.7007C67.3334 11.5007 67.7666 11.1673 68.1 10.7007C68.3666 10.234 68.5 9.70059 68.5 9.10059C68.5 8.56725 68.3999 8.13363 68.2 7.80029C68 7.40029 67.7001 7.10039 67.3 6.90039C66.9667 6.63372 66.5333 6.43363 66 6.30029C65.5333 6.23363 65 6.20068 64.4 6.20068V7.20068C64.7334 7.20068 65.0667 7.23363 65.4 7.30029C65.6667 7.36696 65.9 7.46725 66.1 7.60059C66.3 7.80059 66.4666 8.00068 66.6 8.20068C66.6666 8.40068 66.7 8.63372 66.7 8.90039C66.7 9.30039 66.6333 9.60029 66.5 9.80029C66.3667 10.067 66.1667 10.2671 65.9 10.4004C65.6334 10.5337 65.3333 10.6006 65 10.6006C64.6 10.6006 64.2667 10.5337 64 10.4004C63.7333 10.2671 63.5 10.067 63.3 9.80029C63.1667 9.53363 63.1 9.23372 63.1 8.90039H61.3C61.3 9.36706 61.3667 9.80068 61.5 10.2007C61.7 10.534 61.9667 10.8674 62.3 11.2007C62.5667 11.4674 62.9334 11.7004 63.4 11.9004C63.8667 12.0337 64.3667 12.1006 64.9 12.1006Z" fill="#0060FF"/>
</svg>
