<svg width="124" height="13" viewBox="0 0 124 13" fill="none" xmlns="http://www.w3.org/2000/svg">
<path d="M8.50024 10.9992L7.60022 8.49922H3.50024L2.7002 10.9992H0.700195L4.80029 0.299225H6.40027L10.5002 10.9992H8.50024ZM5.50024 2.59922L4.00024 6.99922H7.10022L5.50024 2.59922ZM17.6002 10.9992L15.5002 6.89922H13.4003V10.9992H11.5002V0.399223H15.3003C16.5003 0.399223 17.4336 0.665885 18.1002 1.19922C18.7669 1.73255 19.1002 2.53255 19.1002 3.59922C19.1002 4.33255 18.9336 4.93256 18.6002 5.39922C18.2669 5.86589 17.8002 6.23255 17.2002 6.49922L19.6002 10.8992V10.9992H17.6002ZM13.4003 1.89922V5.39922H15.3003C15.9003 5.39922 16.3669 5.26589 16.7002 4.99922C17.1002 4.66589 17.3003 4.23255 17.3003 3.69922C17.3003 3.09922 17.1336 2.63256 16.8003 2.29922C16.467 2.03256 15.967 1.89922 15.3003 1.89922H13.4003ZM22.9003 0.399223V10.9992H21.0002V0.399223H22.9003ZM32.5002 1.49922L27.0002 9.49922H32.7002V10.9992H24.7002V9.79922L30.2002 1.89922H24.8003V0.399223H32.5002V1.49922ZM41.2002 10.9992L40.3003 8.49922H36.2002L35.3003 10.9992H33.4003L37.4003 0.299225H39.1002L43.1002 10.9992H41.2002ZM38.3003 2.59922L36.7002 6.99922H39.8003L38.3003 2.59922ZM56.6002 5.29922V5.89922C56.6002 6.89922 56.4336 7.79922 56.1002 8.59922C55.8336 9.33255 55.4003 9.89923 54.8003 10.2992L56.6002 11.6992L55.4003 12.7992L53.2002 10.9992C52.8669 11.0659 52.5335 11.0992 52.2002 11.0992C51.3335 11.0992 50.5669 10.8992 49.9003 10.4992C49.2336 10.0992 48.7003 9.49922 48.3003 8.69922C47.967 7.89922 47.8003 6.99922 47.8003 5.99922V5.39922C47.8003 4.33256 47.967 3.39922 48.3003 2.59922C48.7003 1.79922 49.2336 1.19922 49.9003 0.799225C50.5669 0.399225 51.3335 0.199219 52.2002 0.199219C53.0669 0.199219 53.8336 0.399225 54.5002 0.799225C55.1669 1.19922 55.7002 1.79922 56.1002 2.59922C56.4336 3.39922 56.6002 4.29922 56.6002 5.29922ZM54.8003 5.89922V5.39922C54.8003 4.19922 54.5669 3.26589 54.1002 2.59922C53.6336 1.99922 53.0002 1.69922 52.2002 1.69922C51.4002 1.69922 50.767 1.99922 50.3003 2.59922C49.8336 3.26589 49.6002 4.16589 49.6002 5.29922V5.89922C49.6002 7.09922 49.8336 7.99922 50.3003 8.59922C50.767 9.26589 51.4002 9.59922 52.2002 9.59922C53.0002 9.59922 53.6336 9.29922 54.1002 8.69922C54.5669 8.03255 54.8003 7.09922 54.8003 5.89922ZM67.0002 5.29922V5.89922C67.0002 6.96589 66.8336 7.89922 66.5002 8.69922C66.1002 9.49922 65.5669 10.0992 64.9003 10.4992C64.2336 10.8992 63.4669 11.0992 62.6002 11.0992C61.7336 11.0992 60.967 10.8992 60.3003 10.4992C59.6336 10.0992 59.1002 9.49922 58.7002 8.69922C58.3669 7.89922 58.2002 6.99922 58.2002 5.99922V5.39922C58.2002 4.33256 58.3669 3.39922 58.7002 2.59922C59.1002 1.79922 59.6336 1.19922 60.3003 0.799225C60.967 0.399225 61.7336 0.199219 62.6002 0.199219C63.4669 0.199219 64.2336 0.399225 64.9003 0.799225C65.5669 1.19922 66.1002 1.79922 66.5002 2.59922C66.8336 3.39922 67.0002 4.29922 67.0002 5.29922ZM65.2002 5.89922V5.39922C65.2002 4.19922 64.9669 3.26589 64.5002 2.59922C64.0336 1.99922 63.4002 1.69922 62.6002 1.69922C61.8002 1.69922 61.1669 1.99922 60.7002 2.59922C60.2335 3.26589 60.0002 4.16589 60.0002 5.29922V5.89922C60.0002 7.09922 60.2335 7.99922 60.7002 8.59922C61.1669 9.26589 61.8002 9.59922 62.6002 9.59922C63.4002 9.59922 64.0336 9.29922 64.5002 8.69922C64.9669 8.03255 65.2002 7.09922 65.2002 5.89922ZM70.7002 0.299225V9.49922H75.6002V10.9992H68.9003V0.299225H70.7002ZM80.0002 10.9992H76.9003V0.299225H80.1002C81.0336 0.299225 81.8669 0.499223 82.6002 0.899223C83.3335 1.36589 83.9003 1.96589 84.3003 2.69922C84.7003 3.49922 84.9003 4.39922 84.9003 5.39922V5.89922C84.9003 6.89922 84.7003 7.79922 84.3003 8.59922C83.9003 9.33255 83.3335 9.93256 82.6002 10.3992C81.8002 10.7992 80.9336 10.9992 80.0002 10.9992ZM80.1002 1.79922H78.8003V9.49922H80.0002C80.9336 9.49922 81.6669 9.19922 82.2002 8.59922C82.7335 7.99922 83.0002 7.13256 83.0002 5.99922V5.39922C83.0002 4.19922 82.767 3.29922 82.3003 2.69922C81.767 2.09922 81.0336 1.79922 80.1002 1.79922ZM88.7002 0.299225V10.9992H86.8003V0.299225H88.7002ZM97.1002 10.9992L94.9003 6.89922H92.9003V10.9992H91.0002V0.299225H94.8003C96.0003 0.299225 96.9336 0.565887 97.6002 1.09922C98.2669 1.69922 98.6002 2.49922 98.6002 3.49922C98.6002 4.23256 98.4336 4.83256 98.1002 5.29922C97.7669 5.76589 97.3002 6.13256 96.7002 6.39922L99.1002 10.8992V10.9992H97.1002ZM92.9003 1.79922V5.39922H94.8003C95.4003 5.39922 95.8669 5.23256 96.2002 4.89922C96.5335 4.56589 96.7002 4.13255 96.7002 3.59922C96.7002 3.06589 96.567 2.63256 96.3003 2.29922C95.967 1.96589 95.467 1.79922 94.8003 1.79922H92.9003ZM102.4 0.299225V10.9992H100.5V0.299225H102.4ZM113.2 0.299225V10.9992H111.3L106.6 3.39922V10.9992H104.7V0.299225H106.6L111.3 7.89922V0.299225H113.2ZM123.6 5.49922V9.59922C123.2 10.0659 122.667 10.4326 122 10.6992C121.334 10.9659 120.567 11.0992 119.7 11.0992C118.767 11.0992 117.967 10.8992 117.3 10.4992C116.567 10.0992 116.034 9.53256 115.7 8.79922C115.3 7.99922 115.1 7.09922 115.1 6.09922V5.29922C115.1 3.69922 115.5 2.43256 116.3 1.49922C117.034 0.632555 118.1 0.199219 119.5 0.199219C120.7 0.199219 121.634 0.465888 122.3 0.999222C123.034 1.59922 123.467 2.46589 123.6 3.59922H121.8C121.6 2.33255 120.834 1.69922 119.5 1.69922C118.7 1.69922 118.067 1.99922 117.6 2.59922C117.2 3.13255 117 3.99922 117 5.19922V5.99922C117 7.13256 117.234 8.03255 117.7 8.69922C118.167 9.29922 118.834 9.59922 119.7 9.59922C120.634 9.59922 121.3 9.39922 121.7 8.99922V6.89922H119.5V5.49922H123.6Z" fill="white"/>
</svg>
