<svg width="44" height="16" viewBox="0 0 44 16" fill="none" xmlns="http://www.w3.org/2000/svg">
<path d="M3.49982 7.80039L3.19983 9.30039H8.69983L8.39984 7.80039H3.49982ZM4.2998 8.30039L5.89984 4.50039L7.59979 8.40039V8.80039L8.99982 12.0004H11.0998L5.89984 0.900391L0.799805 12.0004H2.7998L4.19983 8.70039L4.2998 8.30039ZM12.4998 9.70039L11.5998 10.7004C11.7998 10.9671 12.0331 11.2004 12.2998 11.4004C12.6331 11.6671 12.9665 11.8671 13.2998 12.0004C13.6998 12.1337 14.1665 12.2004 14.6998 12.2004C15.4332 12.2004 15.9998 12.0004 16.3998 11.6004C16.8665 11.2004 17.0998 10.6671 17.0998 10.0004C17.0998 9.60039 16.9998 9.26706 16.7998 9.00039C16.5998 8.73372 16.3665 8.53372 16.0998 8.40039C15.7665 8.20039 15.3998 8.03372 14.9998 7.90039C14.7332 7.76706 14.4665 7.66705 14.1998 7.60039C13.9998 7.46705 13.8332 7.33372 13.6998 7.20039C13.5665 7.06705 13.4998 6.93373 13.4998 6.80039C13.4998 6.60039 13.5665 6.46706 13.6998 6.40039C13.8332 6.26706 14.0331 6.20039 14.2998 6.20039C14.6331 6.20039 14.9665 6.30039 15.2998 6.50039C15.6331 6.63372 15.8998 6.83372 16.0998 7.10039L16.9998 6.20039C16.7998 5.93372 16.5665 5.70039 16.2998 5.50039C16.0331 5.36706 15.7332 5.23372 15.3998 5.10039C15.0665 4.96705 14.6998 4.90039 14.2998 4.90039C13.8998 4.90039 13.5332 4.96705 13.1998 5.10039C12.7998 5.23372 12.4998 5.46706 12.2998 5.80039C12.0998 6.06706 11.9998 6.40039 11.9998 6.80039C11.9998 7.20039 12.0998 7.53373 12.2998 7.80039C12.4998 8.06706 12.7332 8.30039 12.9998 8.50039C13.3331 8.63372 13.6332 8.76706 13.8998 8.90039C14.2332 9.03372 14.4998 9.13372 14.6998 9.20039C14.9665 9.33372 15.1665 9.46705 15.2998 9.60039C15.4331 9.73372 15.4998 9.90039 15.4998 10.1004C15.4998 10.3671 15.3998 10.5671 15.1998 10.7004C15.0665 10.8337 14.8331 10.9004 14.4998 10.9004C14.2998 10.9004 14.0998 10.8337 13.8998 10.7004C13.6332 10.6337 13.3998 10.5004 13.1998 10.3004C12.9998 10.1671 12.7665 9.96705 12.4998 9.70039ZM17.9998 8.50039C17.9998 9.23372 18.1665 9.86706 18.4998 10.4004C18.8332 10.9337 19.2665 11.3671 19.7998 11.7004C20.3998 11.9671 21.0332 12.1004 21.6998 12.1004C22.4332 12.1004 23.0998 11.9671 23.6998 11.7004C24.2332 11.3671 24.6665 10.9337 24.9998 10.4004C25.3332 9.86706 25.4998 9.23372 25.4998 8.50039C25.4998 7.83372 25.3332 7.23372 24.9998 6.70039C24.6665 6.16705 24.2332 5.73372 23.6998 5.40039C23.0998 5.06706 22.4332 4.90039 21.6998 4.90039C21.0332 4.90039 20.3998 5.06706 19.7998 5.40039C19.2665 5.73372 18.8332 6.16705 18.4998 6.70039C18.1665 7.23372 17.9998 7.83372 17.9998 8.50039ZM19.6998 8.50039C19.6998 8.10039 19.7998 7.73372 19.9998 7.40039C20.1332 7.06706 20.3665 6.80039 20.6998 6.60039C21.0332 6.46705 21.3665 6.40039 21.6998 6.40039C22.0998 6.40039 22.4665 6.46705 22.7998 6.60039C23.1331 6.80039 23.3665 7.06706 23.4998 7.40039C23.6998 7.73372 23.7998 8.10039 23.7998 8.50039C23.7998 8.96706 23.6998 9.36705 23.4998 9.70039C23.3665 10.0337 23.1331 10.2671 22.7998 10.4004C22.4665 10.6004 22.0998 10.7004 21.6998 10.7004C21.3665 10.7004 21.0332 10.6004 20.6998 10.4004C20.3665 10.2671 20.1332 10.0337 19.9998 9.70039C19.7998 9.36705 19.6998 8.96706 19.6998 8.50039ZM27.2998 9.70039L26.3998 10.7004C26.5998 10.9671 26.8331 11.2004 27.0998 11.4004C27.4331 11.6671 27.7998 11.8671 28.1998 12.0004C28.5998 12.1337 29.0331 12.2004 29.4998 12.2004C30.2332 12.2004 30.8331 12.0004 31.2998 11.6004C31.6998 11.2004 31.8998 10.6671 31.8998 10.0004C31.8998 9.60039 31.7998 9.26706 31.5998 9.00039C31.4665 8.73372 31.2332 8.53372 30.8998 8.40039C30.5665 8.20039 30.1998 8.03372 29.7998 7.90039C29.5331 7.76706 29.2998 7.66705 29.0998 7.60039C28.8331 7.46705 28.6332 7.33372 28.4998 7.20039C28.3665 7.06705 28.2998 6.93373 28.2998 6.80039C28.2998 6.60039 28.3665 6.46706 28.4998 6.40039C28.6998 6.26706 28.8998 6.20039 29.0998 6.20039C29.4331 6.20039 29.7665 6.30039 30.0998 6.50039C30.4331 6.63372 30.6998 6.83372 30.8998 7.10039L31.7998 6.20039C31.5998 5.93372 31.3665 5.70039 31.0998 5.50039C30.8331 5.36706 30.5332 5.23372 30.1998 5.10039C29.8665 4.96705 29.5332 4.90039 29.1998 4.90039C28.7332 4.90039 28.3332 5.00039 27.9998 5.20039C27.5998 5.26705 27.2998 5.46706 27.0998 5.80039C26.8998 6.06706 26.7998 6.40039 26.7998 6.80039C26.7998 7.20039 26.8998 7.53373 27.0998 7.80039C27.2998 8.06706 27.5331 8.30039 27.7998 8.50039C28.1331 8.63372 28.4665 8.76706 28.7998 8.90039C29.0665 9.03372 29.3331 9.13372 29.5998 9.20039C29.7998 9.33372 29.9665 9.46705 30.0998 9.60039C30.2331 9.73372 30.2998 9.90039 30.2998 10.1004C30.2998 10.3671 30.1998 10.5671 29.9998 10.7004C29.8665 10.8337 29.6665 10.9004 29.3998 10.9004C29.1332 10.9004 28.8998 10.8337 28.6998 10.7004C28.4332 10.6337 28.1998 10.5004 27.9998 10.3004C27.7998 10.1671 27.5665 9.96705 27.2998 9.70039ZM33.2998 2.30039C33.2998 2.63373 33.3998 2.90039 33.5998 3.10039C33.7998 3.23372 34.0331 3.30039 34.2998 3.30039C34.6331 3.30039 34.8998 3.23372 35.0998 3.10039C35.2998 2.90039 35.3998 2.63373 35.3998 2.30039C35.3998 2.03373 35.2998 1.80039 35.0998 1.60039C34.8998 1.46705 34.6331 1.40039 34.2998 1.40039C34.0331 1.40039 33.7998 1.46705 33.5998 1.60039C33.3998 1.80039 33.2998 2.03373 33.2998 2.30039ZM35.0998 5.10039H33.4998V12.0004H35.0998V5.10039ZM38.9998 15.3004L43.4998 5.10039H41.6998L39.5998 10.5004L40.2998 10.6004L38.0998 5.10039H36.2998L39.0998 11.2004L37.2998 15.3004H38.9998Z" fill="#202020"/>
</svg>
