<svg width="239" height="18" viewBox="0 0 239 18" fill="none" xmlns="http://www.w3.org/2000/svg">
<path d="M4.70038 11.2L4.40039 14H12.6003L12.3004 11.2H4.70038ZM6.30035 12.2L8.50037 7.30005L10.7004 12.2L10.5004 13.2L12.4004 17H16.6003L8.50037 0.599976L0.400391 17H4.60034L6.50037 13L6.30035 12.2ZM19.9004 11.6L17.3004 13.5C17.6337 14.2333 18.1337 14.9 18.8004 15.5C19.4004 16.1 20.1337 16.6 21.0004 17C21.867 17.3333 22.8004 17.5 23.8004 17.5C24.5337 17.5 25.2337 17.4 25.9004 17.2C26.5671 17 27.167 16.6666 27.7004 16.2C28.2337 15.8 28.667 15.3 29.0004 14.7C29.267 14.1 29.4004 13.4 29.4004 12.6C29.4004 12 29.3003 11.4334 29.1003 10.9C28.9003 10.4334 28.6337 9.99998 28.3004 9.59998C27.967 9.19998 27.567 8.86664 27.1003 8.59998C26.567 8.33331 26.0337 8.10002 25.5004 7.90002C24.8337 7.63336 24.2337 7.39995 23.7004 7.19995C23.167 6.99995 22.767 6.76667 22.5004 6.5C22.2337 6.23333 22.1003 5.93331 22.1003 5.59998C22.1003 5.19998 22.2337 4.89995 22.5004 4.69995C22.8337 4.49995 23.267 4.40002 23.8004 4.40002C24.1337 4.40002 24.5004 4.46664 24.9004 4.59998C25.2337 4.73331 25.5337 4.93328 25.8004 5.19995C26.067 5.46662 26.3337 5.79995 26.6003 6.19995L29.4004 4.59998C29.1337 4.06664 28.767 3.53333 28.3004 3C27.767 2.53333 27.1337 2.13338 26.4004 1.80005C25.6004 1.46672 24.7004 1.30005 23.7004 1.30005C22.7004 1.30005 21.8004 1.46672 21.0004 1.80005C20.2004 2.13338 19.5337 2.63338 19.0004 3.30005C18.5337 3.96672 18.3004 4.73331 18.3004 5.59998C18.3004 6.39998 18.467 7.06664 18.8004 7.59998C19.067 8.13331 19.4004 8.6 19.8004 9C20.267 9.33333 20.7337 9.63336 21.2004 9.90002C21.667 10.1 22.0671 10.2667 22.4004 10.4C23.2004 10.6667 23.8004 10.9333 24.2004 11.2C24.667 11.4 25.0004 11.6334 25.2004 11.9C25.4004 12.1 25.5004 12.4 25.5004 12.8C25.5004 13.2667 25.3337 13.6334 25.0004 13.9C24.667 14.1667 24.2337 14.3 23.7004 14.3C23.167 14.3 22.667 14.2 22.2004 14C21.7337 13.8 21.3004 13.5 20.9004 13.1C20.5004 12.6333 20.1671 12.1333 19.9004 11.6ZM33.6003 11.6L31.0004 13.5C31.4004 14.2333 31.9004 14.9 32.5004 15.5C33.167 16.1 33.9004 16.6 34.7004 17C35.567 17.3333 36.5004 17.5 37.5004 17.5C38.2337 17.5 38.9337 17.4 39.6003 17.2C40.267 17 40.8671 16.6666 41.4004 16.2C42.0004 15.8 42.4337 15.3 42.7004 14.7C43.0337 14.1 43.2004 13.4 43.2004 12.6C43.2004 12 43.1004 11.4334 42.9004 10.9C42.7004 10.4334 42.4004 9.99998 42.0004 9.59998C41.667 9.19998 41.267 8.86664 40.8004 8.59998C40.3337 8.33331 39.8337 8.10002 39.3004 7.90002C38.567 7.63336 37.9337 7.39995 37.4004 7.19995C36.9337 6.99995 36.567 6.76667 36.3004 6.5C36.0337 6.23333 35.9004 5.93331 35.9004 5.59998C35.9004 5.19998 36.0337 4.89995 36.3004 4.69995C36.567 4.49995 36.967 4.40002 37.5004 4.40002C37.9004 4.40002 38.267 4.46664 38.6003 4.59998C38.9337 4.73331 39.2337 4.93328 39.5004 5.19995C39.8337 5.46662 40.1004 5.79995 40.3004 6.19995L43.2004 4.59998C42.9337 4.06664 42.5337 3.53333 42.0004 3C41.5337 2.53333 40.9003 2.13338 40.1003 1.80005C39.367 1.46672 38.5004 1.30005 37.5004 1.30005C36.5004 1.30005 35.567 1.46672 34.7004 1.80005C33.9004 2.13338 33.267 2.63338 32.8004 3.30005C32.3337 3.96672 32.1003 4.73331 32.1003 5.59998C32.1003 6.39998 32.2337 7.06664 32.5004 7.59998C32.767 8.13331 33.1337 8.6 33.6003 9C34.0003 9.33333 34.4337 9.63336 34.9004 9.90002C35.3671 10.1 35.8004 10.2667 36.2004 10.4C36.9337 10.6667 37.5337 10.9333 38.0004 11.2C38.467 11.4 38.8004 11.6334 39.0004 11.9C39.2004 12.1 39.3004 12.4 39.3004 12.8C39.3004 13.2667 39.1337 13.6334 38.8004 13.9C38.4004 14.1667 37.9337 14.3 37.4004 14.3C36.8671 14.3 36.3671 14.2 35.9004 14C35.5004 13.8 35.1004 13.5 34.7004 13.1C34.3004 12.6333 33.9337 12.1333 33.6003 11.6ZM48.4004 11.2L48.1003 14H56.2003L56.0004 11.2H48.4004ZM50.0004 12.2L52.2003 7.30005L54.3004 12.3L54.2003 13.2L56.1003 17H60.3004L52.2003 0.599976L44.1003 17H48.3004L50.2003 13.1L50.0004 12.2ZM65.6003 1.5H61.9004V16.9H71.8004V13.7H65.6003V1.5ZM75.9004 9.19995C75.9004 8.33328 76.0671 7.53338 76.4004 6.80005C76.8004 6.13338 77.3004 5.59995 77.9004 5.19995C78.5671 4.79995 79.3336 4.59998 80.2003 4.59998C81.1337 4.59998 81.9004 4.79995 82.5004 5.19995C83.167 5.59995 83.667 6.13338 84.0004 6.80005C84.4004 7.53338 84.6003 8.33328 84.6003 9.19995C84.6003 10.1333 84.4004 10.9666 84.0004 11.7C83.667 12.3666 83.167 12.9 82.5004 13.3C81.8337 13.7 81.067 13.9 80.2003 13.9C79.3336 13.9 78.5671 13.7 77.9004 13.3C77.3004 12.9 76.8004 12.3666 76.4004 11.7C76.0671 10.9666 75.9004 10.1333 75.9004 9.19995ZM71.9004 9.19995C71.9004 10.4 72.1004 11.5 72.5004 12.5C72.967 13.5 73.5671 14.3666 74.3004 15.1C75.0337 15.8333 75.9004 16.4 76.9004 16.8C77.9004 17.2 79.0003 17.4 80.2003 17.4C81.4003 17.4 82.5337 17.2 83.6003 16.8C84.6003 16.4 85.467 15.8333 86.2003 15.1C86.9336 14.3666 87.5004 13.5 87.9004 12.5C88.3004 11.5 88.5004 10.4 88.5004 9.19995C88.5004 8.06662 88.3004 7 87.9004 6C87.5004 5 86.9336 4.13336 86.2003 3.40002C85.4003 2.73336 84.5004 2.20005 83.5004 1.80005C82.5004 1.40005 81.4003 1.19995 80.2003 1.19995C79.067 1.19995 78.0004 1.40005 77.0004 1.80005C75.9337 2.20005 75.0337 2.73336 74.3004 3.40002C73.5671 4.13336 73.0003 5 72.6003 6C72.1337 7 71.9004 8.06662 71.9004 9.19995ZM93.9004 16.9L94.8004 9.09998L99.0004 15.5L103.3 9.09998L104.2 16.9H108.1L105.6 0.800049L99.0004 10.2L92.5004 0.800049L90.0004 16.9H93.9004ZM114.1 1.5H110.4V11.9C110.4 12.8334 110.534 13.6667 110.8 14.4C111.134 15.1334 111.567 15.7333 112.1 16.2C112.7 16.6666 113.367 17 114.1 17.2C114.834 17.4666 115.634 17.6 116.5 17.6C117.367 17.6 118.2 17.4666 119 17.2C119.734 17 120.367 16.6666 120.9 16.2C121.5 15.7333 121.967 15.1334 122.3 14.4C122.567 13.6667 122.7 12.8334 122.7 11.9V1.5H119V11.6C119 12.4 118.8 13.0333 118.4 13.5C118 13.9667 117.367 14.2 116.5 14.2C115.7 14.2 115.1 13.9667 114.7 13.5C114.3 13.0333 114.1 12.4 114.1 11.6V1.5ZM135.2 11.1L134.9 13.9H143.1L142.8 11.1H135.2ZM136.8 12.1L139 7.19995L141.1 12.2L141 13.1L142.9 16.9H147.1L139 0.5L130.9 16.9H135.1L137 13L136.8 12.1ZM152.4 1.40002H148.7V16.8H158.6V13.6H152.4V1.40002ZM163.6 11L163.4 13.9H171.5L171.3 11H163.6ZM165.2 12.1L167.3 7.09998L169.5 12.1L169.4 13L171.2 16.8H175.4L167.3 0.5L159.2 16.8H163.4L165.3 12.9L165.2 12.1ZM188.5 1.5H184.2L181.2 7.19995L178.2 1.5H173.9L179.3 10.6V16.9H183.1V10.6L188.5 1.5ZM194 1.5H190.1V16.9H194V1.5ZM203.6 1.5H199.2L192.9 8.80005L199.4 16.9H203.9L197.3 8.69995L203.6 1.5ZM209.2 1.5H205.4V11.8C205.4 12.8 205.567 13.6667 205.9 14.4C206.234 15.0667 206.667 15.6333 207.2 16.1C207.8 16.5666 208.467 16.9333 209.2 17.2C209.934 17.4 210.734 17.5 211.6 17.5C212.467 17.5 213.267 17.4 214 17.2C214.8 16.9333 215.467 16.5666 216 16.1C216.6 15.6333 217.034 15.0667 217.3 14.4C217.634 13.6667 217.8 12.8 217.8 11.8V1.5H214.1V11.6C214.1 12.3333 213.9 12.9667 213.5 13.5C213.1 13.9667 212.467 14.2 211.6 14.2C210.8 14.2 210.2 13.9667 209.8 13.5C209.4 12.9667 209.2 12.3333 209.2 11.6V1.5ZM224 16.9L224.9 9L229.1 15.4L233.4 9L234.3 16.9H238.2L235.7 0.699951L229.1 10.1L222.6 0.699951L220.1 16.9H224Z" fill="#005DF7"/>
</svg>
