<svg width="62" height="16" viewBox="0 0 62 16" fill="none" xmlns="http://www.w3.org/2000/svg">
<path d="M8.60019 1.50049H7.00018L0.700195 14.3003L2.40018 14.2007L8.60019 1.50049ZM11.3002 5.80029V6.60059H13.1002C13.7669 6.60059 14.3668 6.53372 14.9002 6.40039C15.3668 6.20039 15.7335 5.90049 16.0002 5.50049C16.3335 5.16715 16.5002 4.73402 16.5002 4.20068C16.5002 3.60068 16.3335 3.10068 16.0002 2.70068C15.7335 2.30068 15.3668 2.00029 14.9002 1.80029C14.3668 1.60029 13.7669 1.50049 13.1002 1.50049H9.90018V12.0005H13.3002C14.0335 12.0005 14.7002 11.9007 15.3002 11.7007C15.8335 11.5007 16.2669 11.1673 16.6002 10.7007C16.9335 10.3007 17.1002 9.73382 17.1002 9.00049C17.1002 8.53382 17.0002 8.10068 16.8002 7.70068C16.6002 7.36735 16.3002 7.06696 15.9002 6.80029C15.5668 6.60029 15.1669 6.43363 14.7002 6.30029C14.3002 6.23363 13.8335 6.20068 13.3002 6.20068H11.3002V7.10059H13.2002C13.4669 7.10059 13.7335 7.13402 14.0002 7.20068C14.2668 7.26735 14.5002 7.40059 14.7002 7.60059C14.9002 7.73392 15.0335 7.90059 15.1002 8.10059C15.2335 8.30059 15.3002 8.53363 15.3002 8.80029C15.3002 9.20029 15.2002 9.53363 15.0002 9.80029C14.8002 10.067 14.5668 10.2671 14.3002 10.4004C13.9668 10.5337 13.6002 10.6006 13.2002 10.6006H11.7002V3.00049H13.0002C13.4668 3.00049 13.8669 3.13372 14.2002 3.40039C14.5335 3.60039 14.7002 3.93372 14.7002 4.40039C14.7002 4.66706 14.6002 4.90059 14.4002 5.10059C14.2668 5.30059 14.1002 5.46725 13.9002 5.60059C13.6335 5.73392 13.3335 5.80029 13.0002 5.80029H11.3002ZM18.8002 2.40039C18.8002 2.66706 18.9002 2.90059 19.1002 3.10059C19.3002 3.30059 19.5335 3.40039 19.8002 3.40039C20.0668 3.40039 20.3002 3.30059 20.5002 3.10059C20.7002 2.90059 20.8002 2.66706 20.8002 2.40039C20.8002 2.13372 20.7002 1.90068 20.5002 1.70068C20.3002 1.50068 20.0668 1.40039 19.8002 1.40039C19.5335 1.40039 19.3002 1.50068 19.1002 1.70068C18.9002 1.90068 18.8002 2.13372 18.8002 2.40039ZM20.6002 5.20068H19.0002V12.0005H20.6002V5.20068ZM24.4002 12.1006V5.20068H22.8002V12.1006H24.4002ZM26.5002 7.00049L27.3002 5.60059C27.1002 5.40059 26.9002 5.26735 26.7002 5.20068C26.5002 5.13402 26.2668 5.10059 26.0002 5.10059C25.6668 5.10059 25.3335 5.23382 25.0002 5.50049C24.6668 5.70049 24.4002 6.03382 24.2002 6.50049C24.0002 6.90049 23.9002 7.36706 23.9002 7.90039L24.4002 8.30029C24.4002 7.96696 24.4335 7.66706 24.5002 7.40039C24.6335 7.13372 24.7668 6.93363 24.9002 6.80029C25.1002 6.66696 25.3335 6.60059 25.6002 6.60059C25.8002 6.60059 25.9669 6.63402 26.1002 6.70068C26.2335 6.76735 26.3668 6.86716 26.5002 7.00049ZM34.5002 15.4004L39.0002 5.20068H37.3002L35.1002 10.7007H35.9002L33.7002 5.20068H31.8002L34.6002 11.3003L32.8002 15.4004H34.5002ZM39.9002 2.50049C39.9002 2.76715 40.0002 3.00068 40.2002 3.20068C40.4002 3.40068 40.6335 3.50049 40.9002 3.50049C41.2335 3.50049 41.5002 3.40068 41.7002 3.20068C41.9002 3.00068 42.0002 2.76715 42.0002 2.50049C42.0002 2.23382 41.9002 2.00029 41.7002 1.80029C41.5002 1.60029 41.2335 1.50049 40.9002 1.50049C40.6335 1.50049 40.4002 1.60029 40.2002 1.80029C40.0002 2.00029 39.9002 2.23382 39.9002 2.50049ZM41.7002 5.20068H40.1002V12.1006H41.7002V5.20068ZM45.6002 0.400391H44.0002V12.1006H45.6002V0.400391ZM49.3002 0.400391H47.7002V12.1006H49.3002V0.400391ZM51.3002 2.50049C51.3002 2.76715 51.4002 3.00068 51.6002 3.20068C51.8002 3.40068 52.0335 3.50049 52.3002 3.50049C52.5668 3.50049 52.8002 3.40068 53.0002 3.20068C53.2002 3.00068 53.3002 2.76715 53.3002 2.50049C53.3002 2.23382 53.2002 2.00029 53.0002 1.80029C52.8002 1.60029 52.5668 1.50049 52.3002 1.50049C52.0335 1.50049 51.8002 1.60029 51.6002 1.80029C51.4002 2.00029 51.3002 2.23382 51.3002 2.50049ZM53.1002 5.20068H51.5002V12.1006H53.1002V5.20068ZM56.9002 0.400391H55.3002V12.1006H56.9002V0.400391ZM61.4002 5.20068H59.4002L56.4002 8.10059L59.7002 12.1006H61.7002L58.4002 8.10059L61.4002 5.20068Z" fill="#202020"/>
</svg>
