<svg width="426" height="40" viewBox="0 0 426 40" fill="none" xmlns="http://www.w3.org/2000/svg">
<path d="M4.39999 11.999H0.700012V1.29883H4.20001C5.33335 1.29883 6.19999 1.56579 6.79999 2.09912C7.33332 2.56579 7.60001 3.26589 7.60001 4.19922C7.60001 4.66589 7.46668 5.09902 7.20001 5.49902C6.93335 5.89902 6.56667 6.19893 6.10001 6.39893C6.63334 6.53226 7.06666 6.83216 7.39999 7.29883C7.73333 7.76549 7.89999 8.29893 7.89999 8.89893C7.89999 9.89893 7.6 10.6659 7 11.1992C6.4 11.7326 5.53333 11.999 4.39999 11.999ZM4.39999 6.99902H2.10001V10.8989H4.39999C5.06666 10.8989 5.56666 10.6988 5.89999 10.2988C6.29999 9.9655 6.5 9.49893 6.5 8.89893C6.5 7.63226 5.79999 6.99902 4.39999 6.99902ZM2.10001 2.49902V5.89893H4.20001C4.80001 5.89893 5.30001 5.73226 5.70001 5.39893C6.03335 5.13226 6.20001 4.73255 6.20001 4.19922C6.20001 3.59922 6.03335 3.16559 5.70001 2.89893C5.36668 2.63226 4.86668 2.49902 4.20001 2.49902H2.10001ZM11.3 4.09912V11.999H9.89999V4.09912H11.3ZM9.79999 1.99902C9.79999 1.73236 9.86667 1.53226 10 1.39893C10.1333 1.26559 10.3333 1.19922 10.6 1.19922C10.8667 1.19922 11.0667 1.26559 11.2 1.39893C11.3333 1.53226 11.4 1.73236 11.4 1.99902C11.4 2.19902 11.3333 2.36569 11.2 2.49902C11.0667 2.63236 10.8667 2.69922 10.6 2.69922C10.3333 2.69922 10.1333 2.63236 10 2.49902C9.86667 2.36569 9.79999 2.19902 9.79999 1.99902ZM19.2 4.99902L14.7 10.8989H19.4V11.999H13.1V10.999L17.5 5.19922H13.2V4.09912H19.2V4.99902ZM24.3 7.99902V7.89893C24.3 7.09893 24.4333 6.39883 24.7 5.79883C25.0333 5.19883 25.4667 4.73226 26 4.39893C26.5333 4.06559 27.1333 3.89893 27.8 3.89893C28.9333 3.89893 29.8333 4.26569 30.5 4.99902C31.1667 5.73236 31.5 6.73236 31.5 7.99902V8.09912C31.5 8.83245 31.3333 9.49912 31 10.0991C30.7333 10.7658 30.3333 11.2658 29.8 11.5991C29.2 11.9325 28.5667 12.0991 27.9 12.0991C26.8333 12.0991 25.9333 11.7324 25.2 10.999C24.6 10.199 24.3 9.19902 24.3 7.99902ZM25.6 8.09912C25.6 8.96579 25.8 9.66588 26.2 10.1992C26.6 10.7326 27.1667 10.999 27.9 10.999C28.5667 10.999 29.1 10.7326 29.5 10.1992C29.9 9.66588 30.1 8.89893 30.1 7.89893C30.1 7.03226 29.9 6.33216 29.5 5.79883C29.1 5.26549 28.5333 4.99902 27.8 4.99902C27.1333 4.99902 26.6 5.26549 26.2 5.79883C25.8 6.33216 25.6 7.09912 25.6 8.09912ZM33 0.699219V1.49902L32.8 4.19922H31.9V0.699219H33ZM34 7.99902V7.89893C34 6.63226 34.3 5.66569 34.9 4.99902C35.4333 4.26569 36.2 3.89893 37.2 3.89893C38.1333 3.89893 38.8667 4.19883 39.4 4.79883L39.5 3.99902H40.7V14.999H39.4V11.1992C38.8 11.7992 38.0667 12.0991 37.2 12.0991C36.2 12.0991 35.4333 11.7324 34.9 10.999C34.3 10.2657 34 9.26569 34 7.99902ZM35.4 8.09912C35.4 8.96579 35.6 9.66588 36 10.1992C36.3333 10.7326 36.8333 10.999 37.5 10.999C38.3 10.999 38.9333 10.6323 39.4 9.89893V5.99902C38.9333 5.33236 38.3 4.99902 37.5 4.99902C36.8333 4.99902 36.3333 5.26549 36 5.79883C35.6 6.26549 35.4 7.03245 35.4 8.09912ZM47.8 11.8989V11.1992C47.2667 11.7992 46.5 12.0991 45.5 12.0991C44.6333 12.0991 43.9667 11.8656 43.5 11.3989C43.1 10.8656 42.9 10.1326 42.9 9.19922V3.99902H44.2V9.09912C44.2 10.2991 44.7 10.8989 45.7 10.8989C46.7 10.8989 47.3667 10.5322 47.7 9.79883V3.99902H49.1V11.8989H47.8ZM51.7 3.99902L53.8 10.0991L55.7 3.99902H57.1L54.3 11.8989H53.2L50.4 3.99902H51.7ZM61.4 10.999C61.8667 10.999 62.3 10.8324 62.7 10.499C63.0333 10.2324 63.2333 9.86559 63.3 9.39893H64.6C64.5333 9.86559 64.3666 10.2992 64.1 10.6992C63.8333 11.1659 63.4334 11.4992 62.9 11.6992C62.4334 11.9659 61.9334 12.0991 61.4 12.0991C60.3334 12.0991 59.4667 11.7324 58.8 10.999C58.2 10.2657 57.9 9.29912 57.9 8.09912V7.79883C57.9 7.06549 58.0333 6.39883 58.3 5.79883C58.5667 5.19883 58.9667 4.73226 59.5 4.39893C60.0333 4.06559 60.6667 3.89893 61.4 3.89893C62.2667 3.89893 63 4.16589 63.6 4.69922C64.2 5.23255 64.5333 5.89922 64.6 6.69922H63.3C63.2333 6.23255 63.0333 5.83236 62.7 5.49902C62.3667 5.16569 61.9334 4.99902 61.4 4.99902C60.7334 4.99902 60.2 5.23255 59.8 5.69922C59.4 6.23255 59.2 6.96559 59.2 7.89893V8.09912C59.2 9.03245 59.4 9.73255 59.8 10.1992C60.2 10.7326 60.7334 10.999 61.4 10.999ZM67.4 0.699219V4.99902C68 4.26569 68.8 3.89893 69.8 3.89893C71.4667 3.89893 72.3 4.83255 72.3 6.69922V11.8989H71V6.69922C71 6.09922 70.8666 5.66559 70.6 5.39893C70.3333 5.13226 69.9334 4.99902 69.4 4.99902C68.9334 4.99902 68.5333 5.13226 68.2 5.39893C67.8667 5.59893 67.6 5.89883 67.4 6.29883V11.8989H66.1V0.699219H67.4ZM75.8 3.99902V11.8989H74.4V3.99902H75.8ZM74.3 1.89893C74.3 1.69893 74.3667 1.53226 74.5 1.39893C74.6333 1.19893 74.8333 1.09912 75.1 1.09912C75.3666 1.09912 75.5667 1.19893 75.7 1.39893C75.8333 1.53226 75.9 1.69893 75.9 1.89893C75.9 2.09893 75.8333 2.29902 75.7 2.49902C75.5667 2.63236 75.3666 2.69922 75.1 2.69922C74.8333 2.69922 74.6333 2.63236 74.5 2.49902C74.3667 2.29902 74.3 2.09893 74.3 1.89893ZM77.7 7.89893C77.7 6.69893 77.9667 5.73236 78.5 4.99902C79.1 4.26569 79.8667 3.89893 80.8 3.89893C81.7333 3.89893 82.4667 4.23226 83 4.89893L83.1 3.99902H84.3V11.7988C84.3 12.7988 84 13.5992 83.4 14.1992C82.8 14.7992 82 15.0991 81 15.0991C80.4 15.0991 79.8333 14.9659 79.3 14.6992C78.7667 14.4326 78.3666 14.0992 78.1 13.6992L78.8 12.8989C79.3333 13.6323 80.0334 13.999 80.9 13.999C81.5667 13.999 82.0667 13.7989 82.4 13.3989C82.8 12.9989 83 12.4655 83 11.7988V11.0991C82.4667 11.7658 81.7333 12.0991 80.8 12.0991C79.8667 12.0991 79.1 11.7324 78.5 10.999C77.9667 10.199 77.7 9.16559 77.7 7.89893ZM79 8.09912C79 8.96579 79.2 9.66588 79.6 10.1992C79.9333 10.6659 80.4333 10.8989 81.1 10.8989C81.9666 10.8989 82.6 10.5322 83 9.79883V6.19922C82.6 5.39922 81.9666 4.99902 81.1 4.99902C80.4333 4.99902 79.9333 5.26549 79.6 5.79883C79.2 6.33216 79 7.09912 79 8.09912ZM92.7 11.8989H91.3C91.2333 11.7656 91.1666 11.4991 91.1 11.0991C90.4333 11.7658 89.6667 12.0991 88.8 12.0991C88.0667 12.0991 87.4334 11.8656 86.9 11.3989C86.4334 10.9989 86.2 10.4326 86.2 9.69922C86.2 8.89922 86.5 8.26549 87.1 7.79883C87.7 7.33216 88.6 7.09912 89.8 7.09912H91.1V6.49902C91.1 6.03236 90.9333 5.66559 90.6 5.39893C90.3333 5.13226 89.9334 4.99902 89.4 4.99902C88.9334 4.99902 88.5333 5.09883 88.2 5.29883C87.8667 5.5655 87.7 5.86589 87.7 6.19922H86.3C86.3 5.79922 86.4333 5.43245 86.7 5.09912C87.0333 4.69912 87.4334 4.39922 87.9 4.19922C88.3667 3.99922 88.9 3.89893 89.5 3.89893C90.3667 3.89893 91.0666 4.13245 91.6 4.59912C92.1333 4.99912 92.4 5.59893 92.4 6.39893V10.0991C92.4 10.8325 92.5 11.3988 92.7 11.7988V11.8989ZM89 10.8989C89.4667 10.8989 89.8667 10.7991 90.2 10.5991C90.6 10.3325 90.9 10.0326 91.1 9.69922V8.09912H90C88.3333 8.09912 87.5 8.56569 87.5 9.49902C87.5 9.96569 87.6334 10.299 87.9 10.499C88.2334 10.7657 88.6 10.8989 89 10.8989ZM99.7 3.99902V11.8989H98.4V3.99902H99.7ZM98.2 1.89893C98.2 1.69893 98.2667 1.49883 98.4 1.29883C98.5334 1.16549 98.7333 1.09912 99 1.09912C99.2667 1.09912 99.4666 1.16549 99.6 1.29883C99.7333 1.49883 99.8 1.69893 99.8 1.89893C99.8 2.09893 99.7333 2.26559 99.6 2.39893C99.4666 2.59893 99.2667 2.69922 99 2.69922C98.7333 2.69922 98.5334 2.59893 98.4 2.39893C98.2667 2.26559 98.2 2.09893 98.2 1.89893ZM101.8 3.99902H103.1L103.2 4.99902C103.8 4.26569 104.567 3.89893 105.5 3.89893C107.233 3.89893 108.1 4.83255 108.1 6.69922V11.8989H106.7V6.69922C106.7 6.09922 106.567 5.66559 106.3 5.39893C106.1 5.13226 105.7 4.99902 105.1 4.99902C104.7 4.99902 104.333 5.13226 104 5.39893C103.667 5.59893 103.4 5.89883 103.2 6.29883V11.8989H101.8V3.99902ZM109.8 7.89893C109.8 6.69893 110.1 5.73236 110.7 4.99902C111.233 4.26569 111.967 3.89893 112.9 3.89893C113.9 3.89893 114.667 4.23226 115.2 4.89893L115.3 3.99902H116.5V11.7988C116.5 12.7988 116.2 13.5992 115.6 14.1992C115 14.7992 114.167 15.0991 113.1 15.0991C112.567 15.0991 112.033 14.9659 111.5 14.6992C110.9 14.4326 110.467 14.0992 110.2 13.6992L110.9 12.8989C111.5 13.6323 112.2 13.999 113 13.999C113.667 13.999 114.2 13.7989 114.6 13.3989C114.933 12.9989 115.1 12.4655 115.1 11.7988V11.1992C114.567 11.7992 113.833 12.0991 112.9 12.0991C111.967 12.0991 111.233 11.7324 110.7 10.999C110.1 10.2657 109.8 9.23226 109.8 7.89893ZM111.2 8.09912C111.2 8.96579 111.367 9.66588 111.7 10.1992C112.1 10.6659 112.633 10.8989 113.3 10.8989C114.1 10.8989 114.7 10.5322 115.1 9.79883V6.19922C114.7 5.39922 114.1 4.99902 113.3 4.99902C112.633 4.99902 112.1 5.26549 111.7 5.79883C111.367 6.33216 111.2 7.09912 111.2 8.09912ZM120 0.699219V11.8989H118.7V0.699219H120ZM123.6 3.99902V11.8989H122.2V3.99902H123.6ZM122.2 1.89893C122.2 1.69893 122.267 1.53226 122.4 1.39893C122.533 1.19893 122.733 1.09912 123 1.09912C123.267 1.09912 123.467 1.19893 123.6 1.39893C123.733 1.53226 123.8 1.69893 123.8 1.89893C123.8 2.16559 123.733 2.36569 123.6 2.49902C123.467 2.63236 123.267 2.69922 123 2.69922C122.733 2.69922 122.533 2.63236 122.4 2.49902C122.267 2.36569 122.2 2.16559 122.2 1.89893ZM131.5 4.99902L127.1 10.7988H131.7V11.8989H125.4V10.999L129.8 5.09912H125.5V3.99902H131.5V4.99902ZM137.4 2.09912H138.8V4.09912H140.3V5.09912H138.8V9.99902C138.8 10.3324 138.867 10.5659 139 10.6992C139.133 10.8992 139.367 10.999 139.7 10.999C139.833 10.999 140.033 10.9656 140.3 10.8989V11.999C139.967 12.0657 139.633 12.0991 139.3 12.0991C138.7 12.0991 138.233 11.9325 137.9 11.5991C137.567 11.1991 137.4 10.6657 137.4 9.99902V5.09912H136V4.09912H137.4V2.09912ZM143.3 3.99902V11.8989H142V3.99902H143.3ZM141.8 1.89893C141.8 1.69893 141.867 1.49883 142 1.29883C142.133 1.16549 142.333 1.09912 142.6 1.09912C142.867 1.09912 143.067 1.16549 143.2 1.29883C143.333 1.49883 143.4 1.69893 143.4 1.89893C143.4 2.09893 143.333 2.26559 143.2 2.39893C143.067 2.53226 142.867 2.59912 142.6 2.59912C142.333 2.59912 142.133 2.53226 142 2.39893C141.867 2.26559 141.8 2.09893 141.8 1.89893ZM146.9 0.699219V11.8989H145.6V0.699219H146.9ZM150.5 3.99902V11.8989H149.1V3.99902H150.5ZM149.1 1.89893C149.1 1.69893 149.167 1.49883 149.3 1.29883C149.433 1.16549 149.633 1.09912 149.9 1.09912C150.167 1.09912 150.367 1.16549 150.5 1.29883C150.633 1.49883 150.7 1.69893 150.7 1.89893C150.7 2.09893 150.633 2.26559 150.5 2.39893C150.367 2.53226 150.167 2.59912 149.9 2.59912C149.633 2.59912 149.433 2.53226 149.3 2.39893C149.167 2.26559 149.1 2.09893 149.1 1.89893ZM152.7 13.999L151.9 13.499C152.367 12.8324 152.6 12.1657 152.6 11.499V10.2988H153.9V11.3989C153.9 11.8656 153.8 12.3322 153.6 12.7988C153.333 13.3322 153.033 13.7324 152.7 13.999ZM163.2 3.89893V5.19922C163 5.13255 162.767 5.09912 162.5 5.09912C161.633 5.09912 161.033 5.49883 160.7 6.29883V11.8989H159.4V3.99902H160.7V4.89893C161.167 4.16559 161.8 3.79883 162.6 3.79883C162.867 3.79883 163.067 3.83226 163.2 3.89893ZM169.4 11.8989L169.3 11.0991C168.767 11.7658 168 12.0991 167 12.0991C166.2 12.0991 165.567 11.8322 165.1 11.2988C164.633 10.8322 164.4 10.0991 164.4 9.09912V3.99902H165.8V9.09912C165.8 10.2991 166.267 10.8989 167.2 10.8989C168.267 10.8989 168.967 10.4992 169.3 9.69922V3.99902H170.7V11.8989H169.4ZM177.3 9.79883C177.3 9.4655 177.167 9.19902 176.9 8.99902C176.633 8.73236 176.167 8.53226 175.5 8.39893C174.767 8.26559 174.2 8.09893 173.8 7.89893C173.4 7.69893 173.1 7.46589 172.9 7.19922C172.7 6.86589 172.6 6.53255 172.6 6.19922C172.6 5.53255 172.9 4.96569 173.5 4.49902C174.033 4.03236 174.733 3.79883 175.6 3.79883C176.467 3.79883 177.2 4.03236 177.8 4.49902C178.333 4.96569 178.6 5.56549 178.6 6.29883H177.2C177.2 5.96549 177.067 5.66559 176.8 5.39893C176.467 5.06559 176.067 4.89893 175.6 4.89893C175.067 4.89893 174.667 5.03216 174.4 5.29883C174.133 5.49883 174 5.76579 174 6.09912C174 6.43245 174.133 6.69893 174.4 6.89893C174.667 7.03226 175.133 7.16549 175.8 7.29883C176.467 7.49883 177 7.69893 177.4 7.89893C177.867 8.09893 178.2 8.33245 178.4 8.59912C178.6 8.93245 178.7 9.29922 178.7 9.69922C178.7 10.4326 178.4 10.9989 177.8 11.3989C177.267 11.8656 176.533 12.0991 175.6 12.0991C175 12.0991 174.433 11.9659 173.9 11.6992C173.433 11.4992 173.067 11.1988 172.8 10.7988C172.533 10.3988 172.4 9.96569 172.4 9.49902H173.7C173.767 9.89902 173.967 10.2658 174.3 10.5991C174.633 10.7991 175.067 10.8989 175.6 10.8989C176.133 10.8989 176.567 10.7991 176.9 10.5991C177.167 10.3991 177.3 10.1322 177.3 9.79883ZM184.6 2.09912H186V3.99902H187.5V4.99902H186V9.89893C186 10.2323 186.067 10.4992 186.2 10.6992C186.333 10.8326 186.567 10.8989 186.9 10.8989C187.033 10.8989 187.233 10.8655 187.5 10.7988V11.8989C187.167 12.0323 186.833 12.0991 186.5 12.0991C185.9 12.0991 185.433 11.899 185.1 11.499C184.767 11.1657 184.6 10.6323 184.6 9.89893V4.99902H183.2V3.99902H184.6V2.09912ZM190.5 3.99902V11.8989H189.2V3.99902H190.5ZM189 1.89893C189 1.69893 189.067 1.49883 189.2 1.29883C189.333 1.16549 189.533 1.09912 189.8 1.09912C190.067 1.09912 190.267 1.16549 190.4 1.29883C190.533 1.49883 190.6 1.69893 190.6 1.89893C190.6 2.09893 190.533 2.26559 190.4 2.39893C190.267 2.59893 190.067 2.69922 189.8 2.69922C189.533 2.69922 189.333 2.59893 189.2 2.39893C189.067 2.26559 189 2.09893 189 1.89893ZM194.1 0.699219V11.8989H192.8V0.699219H194.1ZM197.7 3.99902V11.8989H196.3V3.99902H197.7ZM196.3 1.89893C196.3 1.69893 196.367 1.49883 196.5 1.29883C196.633 1.16549 196.833 1.09912 197.1 1.09912C197.367 1.09912 197.567 1.16549 197.7 1.29883C197.833 1.49883 197.9 1.69893 197.9 1.89893C197.9 2.09893 197.833 2.26559 197.7 2.39893C197.567 2.59893 197.367 2.69922 197.1 2.69922C196.833 2.69922 196.633 2.59893 196.5 2.39893C196.367 2.26559 196.3 2.09893 196.3 1.89893ZM204.2 3.99902L206.2 10.0991L208.2 3.99902H209.6L206.7 11.8989H205.7L202.8 3.99902H204.2ZM217.1 11.8989H215.7C215.633 11.7656 215.567 11.4991 215.5 11.0991C214.9 11.7658 214.133 12.0991 213.2 12.0991C212.467 12.0991 211.833 11.8656 211.3 11.3989C210.833 10.9323 210.6 10.3659 210.6 9.69922C210.6 8.89922 210.9 8.26549 211.5 7.79883C212.1 7.33216 213 7.09912 214.2 7.09912H215.5V6.49902C215.5 6.03236 215.333 5.66559 215 5.39893C214.733 5.06559 214.333 4.89893 213.8 4.89893C213.333 4.89893 212.933 5.03216 212.6 5.29883C212.267 5.5655 212.1 5.86589 212.1 6.19922H210.7C210.7 5.79922 210.833 5.43245 211.1 5.09912C211.433 4.69912 211.833 4.39922 212.3 4.19922C212.767 3.99922 213.3 3.89893 213.9 3.89893C214.767 3.89893 215.467 4.09902 216 4.49902C216.533 4.96569 216.8 5.59893 216.8 6.39893V10.0991C216.8 10.8325 216.9 11.3988 217.1 11.7988V11.8989ZM213.4 10.8989C213.867 10.8989 214.267 10.7657 214.6 10.499C215 10.299 215.3 10.0326 215.5 9.69922V8.09912H214.4C212.733 8.09912 211.9 8.56569 211.9 9.49902C211.9 9.96569 212.033 10.299 212.3 10.499C212.633 10.7657 213 10.8989 213.4 10.8989ZM224.4 1.19922V11.8989H223V1.19922H224.4ZM233 5.79883V6.99902H228.4V10.7988H233.7V11.8989H227V1.19922H233.7V2.39893H228.4V5.79883H233ZM236.9 1.19922V10.7988H241.9V11.8989H235.5V1.19922H236.9ZM248.9 1.19922V2.39893H245.4V11.8989H244V2.39893H240.6V1.19922H248.9ZM253.5 7.19922C252.3 6.79922 251.433 6.36559 250.9 5.89893C250.367 5.36559 250.1 4.73236 250.1 3.99902C250.1 3.13236 250.433 2.43226 251.1 1.89893C251.767 1.36559 252.633 1.09912 253.7 1.09912C254.433 1.09912 255.1 1.23236 255.7 1.49902C256.233 1.76569 256.667 2.16589 257 2.69922C257.333 3.16589 257.5 3.69883 257.5 4.29883H256C256 3.69883 255.8 3.19883 255.4 2.79883C255 2.46549 254.433 2.29883 253.7 2.29883C253.033 2.29883 252.5 2.43255 252.1 2.69922C251.7 3.03255 251.5 3.46569 251.5 3.99902C251.5 4.39902 251.667 4.76579 252 5.09912C252.4 5.36579 253.033 5.63226 253.9 5.89893C254.833 6.16559 255.533 6.43255 256 6.69922C256.533 7.03255 256.9 7.39883 257.1 7.79883C257.367 8.19883 257.5 8.66589 257.5 9.19922C257.5 10.0659 257.167 10.7655 256.5 11.2988C255.833 11.8322 254.933 12.0991 253.8 12.0991C253.067 12.0991 252.367 11.9325 251.7 11.5991C251.1 11.3325 250.6 10.9657 250.2 10.499C249.867 9.96569 249.7 9.39883 249.7 8.79883H251.1C251.1 9.4655 251.367 9.9655 251.9 10.2988C252.367 10.6988 253 10.8989 253.8 10.8989C254.533 10.8989 255.1 10.7657 255.5 10.499C255.9 10.1657 256.1 9.73255 256.1 9.19922C256.1 8.66589 255.9 8.26569 255.5 7.99902C255.167 7.73236 254.5 7.46589 253.5 7.19922ZM259.1 3.99902H260.4V4.99902C261 4.19902 261.8 3.79883 262.8 3.79883C264.467 3.79883 265.3 4.76589 265.3 6.69922V11.8989H263.9V6.69922C263.9 6.09922 263.8 5.66559 263.6 5.39893C263.333 5.13226 262.933 4.99902 262.4 4.99902C261.933 4.99902 261.533 5.09883 261.2 5.29883C260.867 5.5655 260.6 5.89883 260.4 6.29883V11.8989H259.1V3.99902ZM268.8 3.99902V11.8989H267.5V3.99902H268.8ZM267.3 1.89893C267.3 1.69893 267.367 1.53226 267.5 1.39893C267.633 1.19893 267.833 1.09912 268.1 1.09912C268.367 1.09912 268.567 1.19893 268.7 1.39893C268.833 1.53226 268.9 1.69893 268.9 1.89893C268.9 2.09893 268.833 2.29902 268.7 2.49902C268.567 2.63236 268.367 2.69922 268.1 2.69922C267.833 2.69922 267.633 2.63236 267.5 2.49902C267.367 2.29902 267.3 2.09893 267.3 1.89893ZM279.3 9.79883C279.3 9.4655 279.133 9.19902 278.8 8.99902C278.533 8.79902 278.067 8.63236 277.4 8.49902C276.733 8.29902 276.2 8.09893 275.8 7.89893C275.4 7.69893 275.1 7.46589 274.9 7.19922C274.7 6.93255 274.6 6.59922 274.6 6.19922C274.6 5.53255 274.867 4.96569 275.4 4.49902C275.933 4.09902 276.633 3.89893 277.5 3.89893C278.433 3.89893 279.167 4.13245 279.7 4.59912C280.233 5.06579 280.5 5.63216 280.5 6.29883H279.2C279.2 5.96549 279.033 5.66559 278.7 5.39893C278.367 5.13226 277.967 4.99902 277.5 4.99902C277.033 4.99902 276.667 5.09883 276.4 5.29883C276.067 5.49883 275.9 5.76579 275.9 6.09912C275.9 6.43245 276.033 6.69893 276.3 6.89893C276.567 7.03226 277.033 7.19893 277.7 7.39893C278.367 7.53226 278.933 7.69893 279.4 7.89893C279.8 8.09893 280.1 8.36589 280.3 8.69922C280.5 8.96589 280.6 9.29922 280.6 9.69922C280.6 10.4326 280.333 10.9989 279.8 11.3989C279.2 11.8656 278.467 12.0991 277.6 12.0991C276.933 12.0991 276.367 11.9659 275.9 11.6992C275.367 11.4992 274.967 11.1988 274.7 10.7988C274.433 10.3988 274.3 9.96569 274.3 9.49902H275.7C275.7 9.96569 275.867 10.3325 276.2 10.5991C276.533 10.8658 277 10.999 277.6 10.999C278.067 10.999 278.467 10.8992 278.8 10.6992C279.133 10.4992 279.3 10.1988 279.3 9.79883ZM283.7 0.699219V4.99902C284.3 4.26569 285.1 3.89893 286.1 3.89893C287.767 3.89893 288.6 4.83255 288.6 6.69922V11.8989H287.3V6.69922C287.3 6.09922 287.167 5.66559 286.9 5.39893C286.633 5.13226 286.233 4.99902 285.7 4.99902C285.233 4.99902 284.833 5.13226 284.5 5.39893C284.167 5.59893 283.9 5.89883 283.7 6.29883V11.8989H282.4V0.699219H283.7ZM295.5 11.8989V11.1992C294.967 11.7992 294.2 12.0991 293.2 12.0991C292.333 12.0991 291.667 11.8322 291.2 11.2988C290.8 10.8322 290.6 10.1326 290.6 9.19922V3.99902H291.9V9.09912C291.9 10.2991 292.4 10.8989 293.4 10.8989C294.4 10.8989 295.067 10.5322 295.4 9.79883V3.99902H296.8V11.8989H295.5ZM298.8 3.99902H300.1L300.2 4.99902C300.8 4.26569 301.567 3.89893 302.5 3.89893C304.233 3.89893 305.1 4.83255 305.1 6.69922V11.8989H303.7V6.69922C303.7 6.09922 303.567 5.66559 303.3 5.39893C303.033 5.13226 302.633 4.99902 302.1 4.99902C301.7 4.99902 301.333 5.13226 301 5.39893C300.667 5.59893 300.4 5.89883 300.2 6.29883V11.8989H298.8V3.99902ZM306.8 7.99902V7.89893C306.8 6.69893 307.1 5.73236 307.7 4.99902C308.233 4.26569 308.967 3.89893 309.9 3.89893C310.833 3.89893 311.567 4.19883 312.1 4.79883V0.699219H313.5V11.999H312.2V11.0991C311.667 11.7658 310.9 12.0991 309.9 12.0991C308.967 12.0991 308.233 11.7324 307.7 10.999C307.1 10.199 306.8 9.19902 306.8 7.99902ZM308.1 8.09912C308.1 8.96579 308.3 9.66588 308.7 10.1992C309.1 10.7326 309.6 10.999 310.2 10.999C311.067 10.999 311.7 10.5988 312.1 9.79883V6.19922C311.7 5.39922 311.1 4.99902 310.3 4.99902C309.633 4.99902 309.1 5.26549 308.7 5.79883C308.3 6.33216 308.1 7.09912 308.1 8.09912ZM321.9 11.999H320.5C320.433 11.799 320.367 11.4991 320.3 11.0991C319.633 11.7658 318.867 12.0991 318 12.0991C317.267 12.0991 316.633 11.8656 316.1 11.3989C315.633 10.9989 315.4 10.4655 315.4 9.79883C315.4 8.93216 315.7 8.26549 316.3 7.79883C316.9 7.39883 317.767 7.19922 318.9 7.19922H320.3V6.49902C320.3 6.03236 320.133 5.66559 319.8 5.39893C319.533 5.13226 319.133 4.99902 318.6 4.99902C318.133 4.99902 317.733 5.09883 317.4 5.29883C317.067 5.5655 316.9 5.86589 316.9 6.19922H315.5C315.5 5.79922 315.633 5.43245 315.9 5.09912C316.233 4.69912 316.633 4.39922 317.1 4.19922C317.567 3.99922 318.1 3.89893 318.7 3.89893C319.567 3.89893 320.267 4.13245 320.8 4.59912C321.333 5.06579 321.6 5.69902 321.6 6.49902V10.0991C321.6 10.8325 321.7 11.3988 321.9 11.7988V11.999ZM318.2 10.999C318.667 10.999 319.067 10.8992 319.4 10.6992C319.8 10.4326 320.1 10.1322 320.3 9.79883V8.19922H319.2C317.533 8.19922 316.7 8.69922 316.7 9.69922C316.7 10.0992 316.833 10.4326 317.1 10.6992C317.433 10.8992 317.8 10.999 318.2 10.999ZM324.2 4.09912L326.2 10.0991L328.1 4.09912H329.5L326.3 13.2988C325.833 14.5655 325.067 15.1992 324 15.1992H323.7L323.2 15.0991V13.999L323.6 14.0991C324.067 14.0991 324.433 13.9988 324.7 13.7988C324.9 13.5988 325.1 13.2655 325.3 12.7988L325.6 11.999L322.8 4.09912H324.2ZM334 8.09912V7.99902C334 7.19902 334.167 6.49893 334.5 5.89893C334.767 5.29893 335.167 4.83236 335.7 4.49902C336.3 4.16569 336.933 3.99902 337.6 3.99902C338.667 3.99902 339.533 4.36579 340.2 5.09912C340.867 5.83245 341.2 6.83245 341.2 8.09912V8.19922C341.2 8.93255 341.067 9.59922 340.8 10.1992C340.467 10.8659 340.033 11.3659 339.5 11.6992C338.967 12.0326 338.333 12.1992 337.6 12.1992C336.533 12.1992 335.667 11.8325 335 11.0991C334.333 10.2991 334 9.29912 334 8.09912ZM335.4 8.19922C335.4 9.06589 335.6 9.76549 336 10.2988C336.4 10.8322 336.933 11.0991 337.6 11.0991C338.267 11.0991 338.833 10.8322 339.3 10.2988C339.7 9.76549 339.9 8.99902 339.9 7.99902C339.9 7.13236 339.667 6.43226 339.2 5.89893C338.8 5.36559 338.267 5.09912 337.6 5.09912C336.933 5.09912 336.4 5.36559 336 5.89893C335.6 6.43226 335.4 7.19922 335.4 8.19922ZM342.7 0.798828V1.59912L342.6 4.29883H341.6L341.7 0.798828H342.7ZM348.3 4.09912V5.29883C348.1 5.29883 347.867 5.29883 347.6 5.29883C346.733 5.29883 346.133 5.66559 345.8 6.39893V11.999H344.4V4.09912H345.8V4.99902C346.267 4.33236 346.9 3.99902 347.7 3.99902C347.967 3.99902 348.167 4.03245 348.3 4.09912ZM349.1 7.99902C349.1 6.79902 349.367 5.83245 349.9 5.09912C350.5 4.36579 351.267 3.99902 352.2 3.99902C353.133 3.99902 353.867 4.33236 354.4 4.99902L354.5 4.09912H355.8V11.8989C355.8 12.8989 355.467 13.6988 354.8 14.2988C354.2 14.8988 353.4 15.1992 352.4 15.1992C351.8 15.1992 351.233 15.0655 350.7 14.7988C350.167 14.5322 349.767 14.1988 349.5 13.7988L350.2 12.999C350.733 13.7324 351.433 14.0991 352.3 14.0991C352.967 14.0991 353.467 13.899 353.8 13.499C354.2 13.099 354.4 12.5656 354.4 11.8989V11.2988C353.867 11.8988 353.133 12.1992 352.2 12.1992C351.267 12.1992 350.5 11.8325 349.9 11.0991C349.367 10.2991 349.1 9.26569 349.1 7.99902ZM350.4 8.19922C350.4 9.06589 350.6 9.76549 351 10.2988C351.333 10.7655 351.833 10.999 352.5 10.999C353.367 10.999 354 10.6323 354.4 9.89893V6.29883C354 5.49883 353.367 5.09912 352.5 5.09912C351.833 5.09912 351.333 5.36559 351 5.89893C350.6 6.43226 350.4 7.19922 350.4 8.19922ZM364.1 11.999H362.7C362.633 11.8657 362.567 11.5992 362.5 11.1992C361.9 11.8659 361.133 12.1992 360.2 12.1992C359.467 12.1992 358.833 11.9657 358.3 11.499C357.833 11.099 357.6 10.5322 357.6 9.79883C357.6 8.99883 357.9 8.36559 358.5 7.89893C359.167 7.43226 360.067 7.19922 361.2 7.19922H362.5V6.59912C362.5 6.13245 362.367 5.76569 362.1 5.49902C361.767 5.23236 361.333 5.09912 360.8 5.09912C360.333 5.09912 359.933 5.19893 359.6 5.39893C359.267 5.66559 359.1 5.96549 359.1 6.29883H357.7C357.7 5.89883 357.833 5.53255 358.1 5.19922C358.433 4.79922 358.833 4.49883 359.3 4.29883C359.767 4.09883 360.3 3.99902 360.9 3.99902C361.767 3.99902 362.467 4.23255 363 4.69922C363.533 5.09922 363.8 5.69902 363.8 6.49902V10.1992C363.8 10.9326 363.9 11.4989 364.1 11.8989V11.999ZM360.4 10.999C360.867 10.999 361.267 10.8992 361.6 10.6992C362 10.4326 362.3 10.1322 362.5 9.79883V8.19922H361.4C359.733 8.19922 358.9 8.66579 358.9 9.59912C358.9 10.0658 359.033 10.3991 359.3 10.5991C359.633 10.8658 360 10.999 360.4 10.999ZM366.4 2.19922H367.8V4.09912H369.3V5.09912H367.8V10.0991C367.8 10.3658 367.867 10.5988 368 10.7988C368.133 10.9322 368.367 10.999 368.7 10.999C368.833 10.999 369.033 10.9656 369.3 10.8989V11.999C368.967 12.1324 368.633 12.1992 368.3 12.1992C367.7 12.1992 367.233 11.9991 366.9 11.5991C366.567 11.2658 366.4 10.7658 366.4 10.0991V5.09912H365V4.09912H366.4V2.19922ZM377.2 11.999H375.7C375.633 11.8657 375.6 11.5992 375.6 11.1992C374.933 11.8659 374.167 12.1992 373.3 12.1992C372.5 12.1992 371.867 11.9657 371.4 11.499C370.867 11.099 370.6 10.5322 370.6 9.79883C370.6 8.99883 370.933 8.36559 371.6 7.89893C372.2 7.43226 373.067 7.19922 374.2 7.19922H375.5V6.59912C375.5 6.13245 375.367 5.76569 375.1 5.49902C374.833 5.23236 374.433 5.09912 373.9 5.09912C373.367 5.09912 372.933 5.19893 372.6 5.39893C372.333 5.66559 372.2 5.96549 372.2 6.29883H370.8C370.8 5.89883 370.933 5.53255 371.2 5.19922C371.467 4.79922 371.833 4.49883 372.3 4.29883C372.833 4.09883 373.367 3.99902 373.9 3.99902C374.833 3.99902 375.567 4.23255 376.1 4.69922C376.633 5.09922 376.9 5.69902 376.9 6.49902V10.1992C376.9 10.9326 377 11.4989 377.2 11.8989V11.999ZM373.5 10.999C373.9 10.999 374.3 10.8992 374.7 10.6992C375.1 10.4326 375.367 10.1322 375.5 9.79883V8.19922H374.5C372.833 8.19922 372 8.66579 372 9.59912C372 10.0658 372.133 10.3991 372.4 10.5991C372.667 10.8658 373.033 10.999 373.5 10.999ZM379.5 4.09912L381.5 9.99902L383.3 4.09912H384.8L381.6 13.1992C381.133 14.5326 380.367 15.1992 379.3 15.1992H379L378.5 15.0991V13.999H378.9C379.3 13.999 379.633 13.9322 379.9 13.7988C380.167 13.5988 380.4 13.2326 380.6 12.6992L380.9 11.8989L378 4.09912H379.5ZM387.5 0.798828V11.999H386.1V0.798828H387.5ZM391.2 4.09912V11.999H389.8V4.09912H391.2ZM389.8 1.99902C389.8 1.79902 389.867 1.59893 390 1.39893C390.133 1.26559 390.333 1.19922 390.6 1.19922C390.867 1.19922 391.067 1.26559 391.2 1.39893C391.333 1.59893 391.4 1.79902 391.4 1.99902C391.4 2.19902 391.333 2.36569 391.2 2.49902C391.067 2.69902 390.867 2.79883 390.6 2.79883C390.333 2.79883 390.133 2.69902 390 2.49902C389.867 2.36569 389.8 2.19902 389.8 1.99902ZM398.4 11.999L395.6 8.39893L394.8 9.19922V11.999H393.4V0.798828H394.8V7.59912L395.5 6.69922L397.9 4.09912H399.6L396.5 7.39893L400 11.999H398.4ZM406 11.999L403.2 8.39893L402.3 9.19922V11.999H401V0.798828H402.3V7.59912L403.1 6.69922L405.5 4.09912H407.2L404.1 7.39893L407.5 11.999H406ZM410.1 4.09912V11.999H408.8V4.09912H410.1ZM408.6 1.99902C408.6 1.79902 408.667 1.59893 408.8 1.39893C408.933 1.26559 409.133 1.19922 409.4 1.19922C409.667 1.19922 409.867 1.26559 410 1.39893C410.133 1.59893 410.2 1.79902 410.2 1.99902C410.2 2.19902 410.133 2.36569 410 2.49902C409.867 2.69902 409.667 2.79883 409.4 2.79883C409.133 2.79883 408.933 2.69902 408.8 2.49902C408.667 2.36569 408.6 2.19902 408.6 1.99902ZM412.2 14.1992L411.4 13.5991C411.867 12.9991 412.133 12.3325 412.2 11.5991V10.3989H413.5V11.499C413.5 11.9657 413.367 12.4657 413.1 12.999C412.9 13.4657 412.6 13.8659 412.2 14.1992ZM423.8 11.999V11.1992C423.267 11.8659 422.5 12.1992 421.5 12.1992C420.633 12.1992 420 11.9323 419.6 11.3989C419.133 10.9323 418.9 10.2322 418.9 9.29883V4.09912H420.2V9.19922C420.2 10.3992 420.7 10.999 421.7 10.999C422.767 10.999 423.467 10.6323 423.8 9.89893V4.09912H425.1V11.999H423.8ZM1.39999 24.7988V29.0991C1.99999 28.3658 2.76668 27.999 3.70001 27.999C5.43335 27.999 6.29999 28.9322 6.29999 30.7988V35.999H4.89999V30.7988C4.89999 30.1988 4.76667 29.7657 4.5 29.499C4.23333 29.2324 3.83332 29.0991 3.29999 29.0991C2.89999 29.0991 2.53335 29.2324 2.20001 29.499C1.86668 29.699 1.59999 29.9989 1.39999 30.3989V35.999H0V24.7988H1.39999ZM14.7 35.999H13.2C13.1333 35.8657 13.1 35.5992 13.1 35.1992C12.4333 35.8659 11.6667 36.1992 10.8 36.1992C9.99999 36.1992 9.36666 35.9657 8.89999 35.499C8.36666 35.0324 8.10001 34.4655 8.10001 33.7988C8.10001 32.9988 8.43334 32.3656 9.10001 31.8989C9.70001 31.4323 10.5667 31.1992 11.7 31.1992H13V30.5991C13 30.1325 12.8667 29.7657 12.6 29.499C12.3333 29.1657 11.9333 28.999 11.4 28.999C10.8667 28.999 10.4333 29.1323 10.1 29.3989C9.76667 29.6656 9.60001 29.9655 9.60001 30.2988H8.29999C8.29999 29.8988 8.43335 29.5326 8.70001 29.1992C8.96668 28.7992 9.33332 28.4988 9.79999 28.2988C10.3333 28.0988 10.8667 27.999 11.4 27.999C12.3333 27.999 13.0667 28.1991 13.6 28.5991C14.1333 29.0658 14.4 29.699 14.4 30.499V34.1992C14.4 34.9326 14.5 35.4989 14.7 35.8989V35.999ZM11 34.999C11.4 34.999 11.8 34.8658 12.2 34.5991C12.6 34.3991 12.8667 34.1322 13 33.7988V32.1992H12C10.3333 32.1992 9.5 32.6658 9.5 33.5991C9.5 34.0658 9.63333 34.3991 9.89999 34.5991C10.1667 34.8658 10.5333 34.999 11 34.999ZM17 28.0991L19 33.999L20.8 28.0991H22.3L19.1 37.1992C18.6333 38.5326 17.8667 39.1992 16.8 39.1992H16.5L16 39.0991V37.999H16.4C16.8 37.999 17.1333 37.8992 17.4 37.6992C17.6667 37.5659 17.9 37.2326 18.1 36.6992L18.4 35.8989L15.5 28.0991H17ZM23 32.0991V31.999C23 31.199 23.1667 30.4989 23.5 29.8989C23.8333 29.2323 24.2667 28.7323 24.8 28.3989C25.3333 28.0656 25.9333 27.8989 26.6 27.8989C27.7333 27.8989 28.6333 28.2991 29.3 29.0991C29.9667 29.8325 30.3 30.799 30.3 31.999V32.0991C30.3 32.8991 30.1333 33.5992 29.8 34.1992C29.5333 34.7992 29.1 35.2658 28.5 35.5991C27.9667 35.9991 27.3667 36.1992 26.7 36.1992C25.5667 36.1992 24.6667 35.799 24 34.999C23.3333 34.2657 23 33.2991 23 32.0991ZM24.4 32.0991C24.4 33.0325 24.6 33.7655 25 34.2988C25.4 34.7655 25.9667 34.999 26.7 34.999C27.3667 34.999 27.9 34.7326 28.3 34.1992C28.7 33.6659 28.9 32.9324 28.9 31.999C28.9 31.1324 28.7 30.4323 28.3 29.8989C27.9 29.3656 27.3333 29.0991 26.6 29.0991C25.9333 29.0991 25.4 29.3322 25 29.7988C24.6 30.3322 24.4 31.0991 24.4 32.0991ZM32.4 26.1992H33.8V28.0991H35.3V29.0991H33.8V33.999C33.8 34.3324 33.8667 34.5988 34 34.7988C34.1333 34.9322 34.3667 34.999 34.7 34.999C34.8333 34.999 35.0333 34.9656 35.3 34.8989V35.999C34.9667 36.1324 34.6333 36.1992 34.3 36.1992C33.7 36.1992 33.2333 35.9991 32.9 35.5991C32.5667 35.2658 32.4 34.7324 32.4 33.999V29.0991H31V28.0991H32.4V26.1992ZM38.3 28.0991V35.999H37V28.0991H38.3ZM36.8 25.999C36.8 25.799 36.8667 25.5989 37 25.3989C37.1333 25.2656 37.3333 25.1992 37.6 25.1992C37.8667 25.1992 38.0667 25.2656 38.2 25.3989C38.3333 25.5989 38.4 25.799 38.4 25.999C38.4 26.199 38.3333 26.3991 38.2 26.5991C38.0667 26.7325 37.8667 26.7988 37.6 26.7988C37.3333 26.7988 37.1333 26.7325 37 26.5991C36.8667 26.3991 36.8 26.199 36.8 25.999ZM40.1 32.0991V31.999C40.1 30.799 40.4 29.8325 41 29.0991C41.5333 28.3658 42.2667 27.999 43.2 27.999C44.1333 27.999 44.8667 28.2989 45.4 28.8989V24.7988H46.8V35.999H45.6L45.5 35.1992C44.9667 35.8659 44.2 36.1992 43.2 36.1992C42.3333 36.1992 41.6 35.799 41 34.999C40.4 34.2657 40.1 33.2991 40.1 32.0991ZM41.5 32.1992C41.5 33.0659 41.6667 33.7655 42 34.2988C42.4 34.7655 42.9333 34.999 43.6 34.999C44.4667 34.999 45.0667 34.6323 45.4 33.8989V30.1992C45 29.4659 44.4 29.0991 43.6 29.0991C42.9333 29.0991 42.4 29.3656 42 29.8989C41.6667 30.3656 41.5 31.1326 41.5 32.1992ZM55.2 35.999H53.8C53.7333 35.8657 53.6667 35.5992 53.6 35.1992C53 35.8659 52.2667 36.1992 51.4 36.1992C50.6 36.1992 49.9333 35.9657 49.4 35.499C48.9333 35.0324 48.7 34.4655 48.7 33.7988C48.7 32.9988 49 32.3656 49.6 31.8989C50.2667 31.4323 51.1667 31.1992 52.3 31.1992H53.6V30.5991C53.6 30.1325 53.4667 29.7657 53.2 29.499C52.8667 29.1657 52.4333 28.999 51.9 28.999C51.4333 28.999 51.0333 29.1323 50.7 29.3989C50.3667 29.6656 50.2 29.9655 50.2 30.2988H48.8C48.8 29.8988 48.9667 29.5326 49.3 29.1992C49.5667 28.7992 49.9333 28.4988 50.4 28.2988C50.8667 28.0988 51.4 27.999 52 27.999C52.9333 27.999 53.6333 28.1991 54.1 28.5991C54.6333 29.0658 54.9 29.699 54.9 30.499V34.1992C54.9 34.9326 55 35.4989 55.2 35.8989V35.999ZM51.6 34.999C52 34.999 52.4 34.8658 52.8 34.5991C53.1333 34.3991 53.4 34.1322 53.6 33.7988V32.1992H52.5C50.8333 32.1992 50 32.6658 50 33.5991C50 34.0658 50.1667 34.3991 50.5 34.5991C50.7667 34.8658 51.1333 34.999 51.6 34.999ZM62.1 24.7988V28.999C62.7 28.2657 63.5 27.8989 64.5 27.8989C66.1667 27.8989 67 28.8655 67 30.7988V35.999H65.7V30.7988C65.6333 30.1988 65.5 29.7657 65.3 29.499C65.0333 29.2324 64.6333 29.0991 64.1 29.0991C63.6333 29.0991 63.2334 29.1989 62.9 29.3989C62.5667 29.6656 62.3 29.9989 62.1 30.3989V35.999H60.8V24.7988H62.1ZM72.3 36.1992C71.2333 36.1992 70.3667 35.8325 69.7 35.0991C68.9667 34.3658 68.6 33.4322 68.6 32.2988V31.999C68.6 31.199 68.7666 30.4989 69.1 29.8989C69.3666 29.2989 69.7667 28.8324 70.3 28.499C70.9 28.099 71.5 27.8989 72.1 27.8989C73.1666 27.8989 73.9667 28.2657 74.5 28.999C75.1 29.6657 75.4 30.6323 75.4 31.8989V32.3989H70C70 33.1989 70.2333 33.8322 70.7 34.2988C71.1 34.8322 71.6333 35.0991 72.3 35.0991C72.8333 35.0991 73.2666 34.9988 73.6 34.7988C73.9333 34.5988 74.2 34.3324 74.4 33.999L75.3 34.5991C74.6333 35.6658 73.6333 36.1992 72.3 36.1992ZM72.1 29.0991C71.5666 29.0991 71.1 29.2992 70.7 29.6992C70.3667 30.0326 70.1333 30.5655 70 31.2988H74V31.1992C74 30.5326 73.8333 29.9991 73.5 29.5991C73.1667 29.2658 72.7 29.0991 72.1 29.0991ZM80.1 35.0991C80.5666 35.0991 81 34.9325 81.4 34.5991C81.7334 34.3325 81.9333 33.9657 82 33.499H83.3C83.2333 33.9657 83.0667 34.3988 82.8 34.7988C82.5333 35.1988 82.1333 35.5322 81.6 35.7988C81.1333 36.0655 80.6333 36.1992 80.1 36.1992C79.0333 36.1992 78.1667 35.8325 77.5 35.0991C76.9 34.3658 76.6 33.3658 76.6 32.0991V31.8989C76.6 31.0989 76.7333 30.3988 77 29.7988C77.2667 29.1988 77.6667 28.7323 78.2 28.3989C78.7333 28.0656 79.3666 27.8989 80.1 27.8989C80.9666 27.8989 81.7 28.1659 82.3 28.6992C82.9 29.2326 83.2333 29.9322 83.3 30.7988H82C81.9333 30.2655 81.7334 29.8658 81.4 29.5991C81.0667 29.2658 80.6333 29.0991 80.1 29.0991C79.4333 29.0991 78.9 29.3322 78.5 29.7988C78.1 30.2655 77.9 30.9656 77.9 31.8989V32.1992C77.9 33.1326 78.1 33.8322 78.5 34.2988C78.9 34.8322 79.4333 35.0991 80.1 35.0991ZM86.1 24.7988V28.999C86.7 28.2657 87.5 27.8989 88.5 27.8989C90.1667 27.8989 91 28.8655 91 30.7988V35.999H89.7V30.7988C89.7 30.1988 89.5667 29.7657 89.3 29.499C89.0333 29.2324 88.6333 29.0991 88.1 29.0991C87.6333 29.0991 87.2334 29.1989 86.9 29.3989C86.5667 29.6656 86.3 29.9989 86.1 30.3989V35.999H84.8V24.7988H86.1ZM96.4 32.0991V31.999C96.4 30.7324 96.6667 29.7324 97.2 28.999C97.8 28.2657 98.5667 27.8989 99.5 27.8989C100.433 27.8989 101.2 28.2323 101.8 28.8989V28.0991H103.1V39.0991H101.7V35.2988C101.167 35.8988 100.433 36.1992 99.5 36.1992C98.5667 36.1992 97.8 35.799 97.2 34.999C96.6667 34.2657 96.4 33.2991 96.4 32.0991ZM97.7 32.0991C97.7 33.0325 97.9 33.7655 98.3 34.2988C98.7 34.8322 99.2334 35.0991 99.9 35.0991C100.7 35.0991 101.3 34.7324 101.7 33.999V30.0991C101.3 29.4325 100.7 29.0991 99.9 29.0991C99.2334 29.0991 98.7 29.3322 98.3 29.7988C97.9 30.3322 97.7 31.0991 97.7 32.0991ZM111.5 35.999H110.1C110.033 35.8657 109.967 35.5992 109.9 35.1992C109.3 35.8659 108.567 36.1992 107.7 36.1992C106.9 36.1992 106.233 35.9657 105.7 35.499C105.233 35.0324 105 34.4655 105 33.7988C105 32.9988 105.3 32.3656 105.9 31.8989C106.567 31.4323 107.467 31.1992 108.6 31.1992H109.9V30.5991C109.9 30.1325 109.767 29.7657 109.5 29.499C109.233 29.1657 108.8 28.999 108.2 28.999C107.733 28.999 107.333 29.1323 107 29.3989C106.667 29.6656 106.5 29.9655 106.5 30.2988H105.2C105.2 29.8988 105.333 29.4991 105.6 29.0991C105.867 28.7658 106.233 28.4988 106.7 28.2988C107.167 28.0322 107.7 27.8989 108.3 27.8989C109.233 27.8989 109.967 28.1325 110.5 28.5991C110.967 29.0658 111.233 29.699 111.3 30.499V34.1992C111.3 34.8659 111.367 35.4323 111.5 35.8989V35.999ZM107.9 34.999C108.3 34.999 108.7 34.8658 109.1 34.5991C109.5 34.3991 109.767 34.1322 109.9 33.7988V32.0991H108.8C107.2 32.0991 106.4 32.5991 106.4 33.5991C106.4 33.9991 106.533 34.3325 106.8 34.5991C107.067 34.8658 107.433 34.999 107.9 34.999ZM116.6 34.999C117.067 34.999 117.467 34.8658 117.8 34.5991C118.2 34.3325 118.4 33.9657 118.4 33.499H119.7C119.7 33.9657 119.533 34.3988 119.2 34.7988C118.933 35.1988 118.567 35.5322 118.1 35.7988C117.633 35.9988 117.133 36.0991 116.6 36.0991C115.467 36.0991 114.6 35.7658 114 35.0991C113.333 34.3658 113 33.3658 113 32.0991V31.8989C113 31.0989 113.167 30.3988 113.5 29.7988C113.767 29.1988 114.167 28.7323 114.7 28.3989C115.233 28.0656 115.867 27.8989 116.6 27.8989C117.467 27.8989 118.2 28.1659 118.8 28.6992C119.4 29.2326 119.7 29.9322 119.7 30.7988H118.4C118.4 30.2655 118.2 29.8324 117.8 29.499C117.467 29.1657 117.067 28.999 116.6 28.999C115.867 28.999 115.333 29.2655 115 29.7988C114.6 30.2655 114.4 30.9656 114.4 31.8989V32.1992C114.4 33.1326 114.6 33.8322 115 34.2988C115.333 34.7655 115.867 34.999 116.6 34.999ZM122.6 24.6992V28.999C123.2 28.2657 123.967 27.8989 124.9 27.8989C126.633 27.8989 127.5 28.8655 127.5 30.7988V35.999H126.1V30.6992C126.1 30.1659 125.967 29.7657 125.7 29.499C125.433 29.2324 125.033 29.0991 124.5 29.0991C124.1 29.0991 123.733 29.1989 123.4 29.3989C123.067 29.6656 122.8 29.9655 122.6 30.2988V35.999H121.2V24.6992H122.6ZM129.2 32.0991V31.999C129.2 31.199 129.333 30.4989 129.6 29.8989C129.933 29.2323 130.367 28.7323 130.9 28.3989C131.433 28.0656 132.067 27.8989 132.8 27.8989C133.867 27.8989 134.733 28.2657 135.4 28.999C136.067 29.799 136.4 30.799 136.4 31.999V32.0991C136.4 32.8991 136.267 33.5992 136 34.1992C135.667 34.7992 135.233 35.2658 134.7 35.5991C134.167 35.9325 133.533 36.0991 132.8 36.0991C131.733 36.0991 130.867 35.7324 130.2 34.999C129.533 34.2657 129.2 33.2991 129.2 32.0991ZM130.6 32.0991C130.6 32.9658 130.8 33.6659 131.2 34.1992C131.6 34.7326 132.133 34.999 132.8 34.999C133.467 34.999 134 34.7326 134.4 34.1992C134.8 33.6659 135 32.9324 135 31.999C135 31.1324 134.8 30.3988 134.4 29.7988C134 29.2655 133.467 28.999 132.8 28.999C132.133 28.999 131.6 29.2655 131.2 29.7988C130.8 30.3322 130.6 31.0991 130.6 32.0991ZM138.1 28.0991H139.4V29.0991C140 28.2991 140.8 27.8989 141.8 27.8989C143.467 27.8989 144.3 28.8655 144.3 30.7988V35.999H143V30.6992C143 30.1659 142.867 29.7657 142.6 29.499C142.333 29.2324 141.933 29.0991 141.4 29.0991C140.933 29.0991 140.533 29.1989 140.2 29.3989C139.867 29.6656 139.633 29.9655 139.5 30.2988V35.999H138.1V28.0991ZM156.8 31.999V32.0991C156.8 33.3658 156.533 34.3658 156 35.0991C155.4 35.8325 154.633 36.1992 153.7 36.1992C152.7 36.1992 151.933 35.8325 151.4 35.0991L151.3 35.999H150.1V24.7988H151.4V28.999C152 28.2657 152.767 27.8989 153.7 27.8989C154.7 27.8989 155.467 28.2657 156 28.999C156.533 29.7324 156.8 30.7324 156.8 31.999ZM155.4 31.999C155.4 31.0657 155.233 30.3656 154.9 29.8989C154.567 29.3656 154.067 29.0991 153.4 29.0991C152.467 29.0991 151.8 29.4988 151.4 30.2988V33.7988C151.867 34.5988 152.533 34.999 153.4 34.999C154.067 34.999 154.567 34.7655 154.9 34.2988C155.233 33.7655 155.4 32.999 155.4 31.999ZM163.4 35.999V35.1992C162.867 35.8659 162.1 36.1992 161.1 36.1992C160.233 36.1992 159.567 35.9323 159.1 35.3989C158.7 34.9323 158.5 34.2322 158.5 33.2988V28.0991H159.8V33.1992C159.8 34.3992 160.3 34.999 161.3 34.999C162.367 34.999 163.067 34.6323 163.4 33.8989V28.0991H164.7V35.999H163.4ZM177.2 31.999V32.0991C177.2 33.3658 176.933 34.3658 176.4 35.0991C175.8 35.8325 175.033 36.1992 174.1 36.1992C173.1 36.1992 172.333 35.8325 171.8 35.0991L171.7 35.999H170.5V24.7988H171.8V28.999C172.4 28.2657 173.167 27.8989 174.1 27.8989C175.033 27.8989 175.8 28.2657 176.4 28.999C176.933 29.7324 177.2 30.7324 177.2 31.999ZM175.8 31.999C175.8 31.0657 175.633 30.3656 175.3 29.8989C174.967 29.3656 174.467 29.0991 173.8 29.0991C172.867 29.0991 172.2 29.4988 171.8 30.2988V33.7988C172.267 34.5988 172.933 34.999 173.8 34.999C174.4 34.999 174.9 34.7655 175.3 34.2988C175.633 33.7655 175.8 32.999 175.8 31.999ZM178.5 32.0991V31.999C178.5 31.199 178.667 30.4989 179 29.8989C179.333 29.2989 179.767 28.8324 180.3 28.499C180.833 28.099 181.433 27.8989 182.1 27.8989C183.167 27.8989 184.033 28.2991 184.7 29.0991C185.367 29.8325 185.7 30.799 185.7 31.999V32.0991C185.7 32.8991 185.567 33.5992 185.3 34.1992C185.033 34.7992 184.6 35.2992 184 35.6992C183.467 36.0326 182.833 36.1992 182.1 36.1992C181.033 36.1992 180.167 35.799 179.5 34.999C178.833 34.2657 178.5 33.2991 178.5 32.0991ZM179.9 32.0991C179.9 33.0325 180.1 33.7655 180.5 34.2988C180.9 34.8322 181.433 35.0991 182.1 35.0991C182.833 35.0991 183.4 34.8322 183.8 34.2988C184.2 33.6988 184.4 32.9324 184.4 31.999C184.4 31.1324 184.2 30.4323 183.8 29.8989C183.4 29.3656 182.833 29.0991 182.1 29.0991C181.433 29.0991 180.9 29.3656 180.5 29.8989C180.1 30.4323 179.9 31.1658 179.9 32.0991ZM187.3 24.7988V25.5991L187.1 28.2988H186.2V24.7988H187.3ZM189.7 28.0991L191.7 33.999L193.5 28.0991H195L191.8 37.1992C191.267 38.5326 190.467 39.1992 189.4 39.1992H189.2L188.7 39.0991V37.999H189C189.467 37.999 189.833 37.9322 190.1 37.7988C190.367 37.5988 190.567 37.2326 190.7 36.6992L191 35.8989L188.2 28.0991H189.7ZM197.7 28.0991V35.999H196.3V28.0991H197.7ZM196.2 25.999C196.2 25.799 196.267 25.5989 196.4 25.3989C196.533 25.2656 196.733 25.1992 197 25.1992C197.267 25.1992 197.467 25.2656 197.6 25.3989C197.733 25.5989 197.8 25.799 197.8 25.999C197.8 26.199 197.733 26.3657 197.6 26.499C197.467 26.699 197.267 26.7988 197 26.7988C196.733 26.7988 196.533 26.699 196.4 26.499C196.267 26.3657 196.2 26.199 196.2 25.999ZM203.1 35.0991C203.567 35.0991 203.967 34.9325 204.3 34.5991C204.7 34.3325 204.9 33.9657 204.9 33.499H206.2C206.2 33.9657 206.033 34.3988 205.7 34.7988C205.433 35.1988 205.067 35.5322 204.6 35.7988C204.133 36.0655 203.633 36.1992 203.1 36.1992C201.967 36.1992 201.1 35.8325 200.5 35.0991C199.833 34.3658 199.5 33.3658 199.5 32.0991V31.8989C199.5 31.0989 199.667 30.3988 200 29.7988C200.267 29.1988 200.667 28.7323 201.2 28.3989C201.733 28.0656 202.367 27.8989 203.1 27.8989C203.967 27.8989 204.7 28.1659 205.3 28.6992C205.833 29.2326 206.133 29.9322 206.2 30.7988H204.9C204.9 30.2655 204.7 29.8658 204.3 29.5991C203.967 29.2658 203.567 29.0991 203.1 29.0991C202.367 29.0991 201.8 29.3322 201.4 29.7988C201.067 30.2655 200.9 30.999 200.9 31.999V32.1992C200.9 33.1326 201.067 33.8322 201.4 34.2988C201.8 34.8322 202.367 35.0991 203.1 35.0991ZM209.1 24.7988V29.0991C209.7 28.2991 210.467 27.8989 211.4 27.8989C213.067 27.8989 213.933 28.8655 214 30.7988V35.999H212.6V30.7988C212.6 30.1988 212.467 29.7657 212.2 29.499C211.933 29.2324 211.533 29.0991 211 29.0991C210.6 29.0991 210.233 29.1989 209.9 29.3989C209.567 29.6656 209.3 29.9989 209.1 30.3989V35.999H207.7V24.7988H209.1ZM222.4 35.999H220.9C220.833 35.8657 220.767 35.5992 220.7 35.1992C220.1 35.8659 219.367 36.1992 218.5 36.1992C217.7 36.1992 217.067 35.9657 216.6 35.499C216.067 35.0324 215.8 34.4655 215.8 33.7988C215.8 32.9988 216.1 32.3656 216.7 31.8989C217.367 31.4323 218.267 31.1992 219.4 31.1992H220.7V30.5991C220.7 30.1325 220.567 29.7657 220.3 29.499C220.033 29.1657 219.6 28.999 219 28.999C218.533 28.999 218.133 29.1323 217.8 29.3989C217.467 29.6656 217.3 29.9655 217.3 30.2988H216C216 29.8988 216.133 29.4991 216.4 29.0991C216.667 28.7658 217.033 28.4988 217.5 28.2988C218.033 28.0322 218.567 27.8989 219.1 27.8989C220.033 27.8989 220.767 28.1325 221.3 28.5991C221.767 29.0658 222.033 29.699 222.1 30.499V34.1992C222.1 34.9326 222.2 35.4989 222.4 35.8989V35.999ZM218.7 34.999C219.1 34.999 219.5 34.8658 219.9 34.5991C220.3 34.3991 220.567 34.1322 220.7 33.7988V32.1992H219.7C218.033 32.1992 217.2 32.6658 217.2 33.5991C217.2 34.0658 217.333 34.3991 217.6 34.5991C217.867 34.8658 218.233 34.999 218.7 34.999ZM234.6 31.999V32.0991C234.6 33.2991 234.333 34.2657 233.8 34.999C233.2 35.7324 232.433 36.0991 231.5 36.0991C230.5 36.0991 229.733 35.7658 229.2 35.0991V35.999H227.9V24.7988H229.3V28.8989C229.833 28.2323 230.567 27.8989 231.5 27.8989C232.5 27.8989 233.267 28.2657 233.8 28.999C234.333 29.7324 234.6 30.7324 234.6 31.999ZM233.3 31.999C233.3 31.0657 233.1 30.3322 232.7 29.7988C232.367 29.3322 231.867 29.0991 231.2 29.0991C230.333 29.0991 229.7 29.4988 229.3 30.2988V33.7988C229.7 34.5988 230.333 34.999 231.2 34.999C231.867 34.999 232.367 34.7326 232.7 34.1992C233.1 33.7326 233.3 32.999 233.3 31.999ZM236 32.0991V31.999C236 31.199 236.133 30.4989 236.4 29.8989C236.733 29.2323 237.167 28.7323 237.7 28.3989C238.233 28.0656 238.867 27.8989 239.6 27.8989C240.667 27.8989 241.533 28.2991 242.2 29.0991C242.867 29.8325 243.2 30.799 243.2 31.999V32.0991C243.2 32.8991 243.033 33.5992 242.7 34.1992C242.433 34.7992 242.033 35.2658 241.5 35.5991C240.9 35.9325 240.267 36.0991 239.6 36.0991C238.533 36.0991 237.667 35.7324 237 34.999C236.333 34.2657 236 33.2991 236 32.0991ZM237.3 32.0991C237.3 32.9658 237.5 33.6659 237.9 34.1992C238.367 34.7326 238.933 34.999 239.6 34.999C240.267 34.999 240.8 34.7326 241.2 34.1992C241.6 33.6659 241.8 32.9324 241.8 31.999C241.8 31.1324 241.6 30.4323 241.2 29.8989C240.8 29.2989 240.267 28.999 239.6 28.999C238.933 28.999 238.367 29.2655 237.9 29.7988C237.5 30.3322 237.3 31.0991 237.3 32.0991ZM249.5 33.8989C249.5 33.5656 249.367 33.2657 249.1 32.999C248.833 32.799 248.333 32.6324 247.6 32.499C246.933 32.3657 246.4 32.199 246 31.999C245.6 31.799 245.3 31.5655 245.1 31.2988C244.9 30.9655 244.8 30.6322 244.8 30.2988C244.8 29.6322 245.067 29.0658 245.6 28.5991C246.2 28.1325 246.933 27.8989 247.8 27.8989C248.667 27.8989 249.367 28.1325 249.9 28.5991C250.5 29.0658 250.8 29.6656 250.8 30.3989H249.4C249.4 29.9989 249.233 29.6656 248.9 29.3989C248.633 29.1323 248.267 28.999 247.8 28.999C247.267 28.999 246.867 29.1323 246.6 29.3989C246.333 29.5989 246.2 29.8659 246.2 30.1992C246.2 30.5326 246.333 30.7656 246.6 30.8989C246.867 31.0989 247.333 31.2656 248 31.3989C248.667 31.5989 249.2 31.799 249.6 31.999C250 32.199 250.3 32.4326 250.5 32.6992C250.7 33.0326 250.8 33.3988 250.8 33.7988C250.8 34.5322 250.533 35.099 250 35.499C249.4 35.899 248.667 36.0991 247.8 36.0991C247.133 36.0991 246.567 35.9988 246.1 35.7988C245.633 35.5988 245.267 35.2989 245 34.8989C244.733 34.4989 244.6 34.0658 244.6 33.5991H245.9C245.9 33.9991 246.067 34.3325 246.4 34.5991C246.8 34.8658 247.267 34.999 247.8 34.999C248.333 34.999 248.733 34.8992 249 34.6992C249.333 34.4992 249.5 34.2323 249.5 33.8989ZM254 24.7988V28.999C254.6 28.2657 255.367 27.8989 256.3 27.8989C257.967 27.8989 258.8 28.8655 258.8 30.7988V35.999H257.5V30.7988C257.5 30.1988 257.367 29.7657 257.1 29.499C256.833 29.2324 256.433 29.0991 255.9 29.0991C255.433 29.0991 255.033 29.1989 254.7 29.3989C254.367 29.6656 254.133 29.9989 254 30.3989V35.999H252.6V24.7988H254ZM260.6 32.0991V31.999C260.6 30.7324 260.867 29.7324 261.4 28.999C262 28.2657 262.767 27.8989 263.7 27.8989C264.7 27.8989 265.467 28.2323 266 28.8989V28.0991H267.3V38.999H265.9V35.2988C265.367 35.8322 264.633 36.0991 263.7 36.0991C262.767 36.0991 262 35.7324 261.4 34.999C260.867 34.2657 260.6 33.2991 260.6 32.0991ZM261.9 32.0991C261.9 33.0325 262.1 33.7655 262.5 34.2988C262.9 34.7655 263.433 34.999 264.1 34.999C264.9 34.999 265.5 34.6657 265.9 33.999V30.0991C265.5 29.3658 264.9 28.999 264.1 28.999C263.433 28.999 262.9 29.2655 262.5 29.7988C262.1 30.3322 261.9 31.0991 261.9 32.0991ZM275.8 35.999H274.3C274.233 35.8657 274.167 35.5992 274.1 35.1992C273.5 35.7992 272.767 36.0991 271.9 36.0991C271.1 36.0991 270.467 35.899 270 35.499C269.467 35.0324 269.2 34.4655 269.2 33.7988C269.2 32.9988 269.533 32.3656 270.2 31.8989C270.8 31.4323 271.667 31.1992 272.8 31.1992H274.1V30.5991C274.1 30.1325 273.967 29.7323 273.7 29.3989C273.433 29.1323 273 28.999 272.4 28.999C271.933 28.999 271.533 29.1323 271.2 29.3989C270.867 29.6656 270.7 29.9655 270.7 30.2988H269.4C269.4 29.8988 269.533 29.4991 269.8 29.0991C270.067 28.7658 270.433 28.4988 270.9 28.2988C271.433 28.0322 271.967 27.8989 272.5 27.8989C273.433 27.8989 274.167 28.1325 274.7 28.5991C275.233 29.0658 275.5 29.699 275.5 30.499V34.0991C275.5 34.8325 275.6 35.4323 275.8 35.8989V35.999ZM272.1 34.999C272.5 34.999 272.9 34.8658 273.3 34.5991C273.7 34.3991 273.967 34.1322 274.1 33.7988V32.0991H273.1C271.433 32.0991 270.6 32.5991 270.6 33.5991C270.6 33.9991 270.733 34.3325 271 34.5991C271.267 34.8658 271.633 34.999 272.1 34.999ZM286.3 35.999L283.5 32.2988L282.7 33.1992V35.999H281.3V24.6992H282.7V31.499L283.4 30.6992L285.9 28.0991H287.5L284.4 31.3989L287.9 35.999H286.3ZM293.8 35.999V35.1992C293.267 35.7992 292.5 36.0991 291.5 36.0991C290.633 36.0991 289.967 35.8656 289.5 35.3989C289.1 34.9323 288.9 34.1992 288.9 33.1992V28.0991H290.2V33.1992C290.2 34.3992 290.7 34.999 291.7 34.999C292.767 34.999 293.467 34.5988 293.8 33.7988V28.0991H295.1V35.999H293.8ZM301 27.999V29.2988C300.8 29.2322 300.567 29.1992 300.3 29.1992C299.433 29.1992 298.833 29.5989 298.5 30.3989V35.999H297.2V28.0991H298.5V28.999C298.967 28.2657 299.6 27.8989 300.4 27.8989C300.667 27.8989 300.867 27.9324 301 27.999ZM306.9 33.8989C306.9 33.4989 306.733 33.199 306.4 32.999C306.133 32.799 305.667 32.6324 305 32.499C304.333 32.3657 303.8 32.199 303.4 31.999C303 31.799 302.7 31.5326 302.5 31.1992C302.3 30.9326 302.2 30.5992 302.2 30.1992C302.2 29.5992 302.467 29.0658 303 28.5991C303.533 28.1325 304.233 27.8989 305.1 27.8989C306.033 27.8989 306.767 28.1325 307.3 28.5991C307.833 29.0658 308.1 29.6656 308.1 30.3989H306.8C306.8 29.9989 306.633 29.6656 306.3 29.3989C305.967 29.1323 305.567 28.999 305.1 28.999C304.633 28.999 304.267 29.0988 304 29.2988C303.667 29.5655 303.5 29.8659 303.5 30.1992C303.5 30.5326 303.633 30.7656 303.9 30.8989C304.167 31.0989 304.633 31.2656 305.3 31.3989C305.967 31.5323 306.533 31.6989 307 31.8989C307.4 32.1656 307.7 32.4326 307.9 32.6992C308.1 32.9659 308.2 33.3322 308.2 33.7988C308.2 34.4655 307.933 35.0324 307.4 35.499C306.8 35.899 306.067 36.0991 305.2 36.0991C304.533 36.0991 303.967 35.9988 303.5 35.7988C302.967 35.5988 302.567 35.2989 302.3 34.8989C302.033 34.4323 301.9 33.9657 301.9 33.499H303.3C303.3 33.9657 303.467 34.3325 303.8 34.5991C304.133 34.8658 304.6 34.999 305.2 34.999C305.667 34.999 306.067 34.8992 306.4 34.6992C306.733 34.4992 306.9 34.2323 306.9 33.8989ZM313.4 32.0991V31.999C313.4 30.7324 313.667 29.7324 314.2 28.999C314.8 28.2657 315.567 27.8989 316.5 27.8989C317.433 27.8989 318.167 28.2323 318.7 28.8989L318.8 28.0991H320V38.999H318.7V35.2988C318.167 35.8322 317.433 36.0991 316.5 36.0991C315.567 36.0991 314.8 35.7324 314.2 34.999C313.667 34.2657 313.4 33.2991 313.4 32.0991ZM314.7 32.0991C314.7 33.0325 314.9 33.7326 315.3 34.1992C315.7 34.7326 316.2 34.999 316.8 34.999C317.667 34.999 318.3 34.6657 318.7 33.999V30.0991C318.233 29.3658 317.633 28.999 316.9 28.999C316.233 28.999 315.7 29.2655 315.3 29.7988C314.9 30.3322 314.7 31.0991 314.7 32.0991ZM323.7 28.0991V35.999H322.3V28.0991H323.7ZM322.3 25.999C322.3 25.7324 322.367 25.5323 322.5 25.3989C322.633 25.2656 322.833 25.1992 323.1 25.1992C323.367 25.1992 323.567 25.2656 323.7 25.3989C323.833 25.5323 323.9 25.7324 323.9 25.999C323.9 26.199 323.833 26.3657 323.7 26.499C323.567 26.6324 323.367 26.6992 323.1 26.6992C322.833 26.6992 322.633 26.6324 322.5 26.499C322.367 26.3657 322.3 26.199 322.3 25.999ZM325.6 32.0991V31.999C325.6 30.7324 325.867 29.7324 326.4 28.999C327 28.2657 327.767 27.8989 328.7 27.8989C329.633 27.8989 330.367 28.2323 330.9 28.8989V24.6992H332.3V35.999H331L330.9 35.0991C330.367 35.7658 329.633 36.0991 328.7 36.0991C327.767 36.0991 327 35.7324 326.4 34.999C325.867 34.2657 325.6 33.2991 325.6 32.0991ZM326.9 32.0991C326.9 33.0325 327.1 33.7326 327.5 34.1992C327.833 34.7326 328.333 34.999 329 34.999C329.867 34.999 330.5 34.5988 330.9 33.7988V30.1992C330.5 29.4659 329.867 29.0991 329 29.0991C328.333 29.0991 327.833 29.3322 327.5 29.7988C327.1 30.3322 326.9 31.0991 326.9 32.0991ZM335.8 28.0991V35.999H334.5V28.0991H335.8ZM334.3 25.999C334.3 25.7324 334.367 25.5323 334.5 25.3989C334.633 25.2656 334.833 25.1992 335.1 25.1992C335.367 25.1992 335.567 25.2656 335.7 25.3989C335.833 25.5323 335.9 25.7324 335.9 25.999C335.9 26.199 335.833 26.3657 335.7 26.499C335.567 26.6324 335.367 26.6992 335.1 26.6992C334.833 26.6992 334.633 26.6324 334.5 26.499C334.367 26.3657 334.3 26.199 334.3 25.999ZM341.8 27.999V29.2988C341.6 29.2322 341.367 29.1992 341.1 29.1992C340.233 29.1992 339.633 29.5989 339.3 30.3989V35.999H337.9V28.0991H339.3V28.999C339.767 28.2657 340.4 27.8989 341.2 27.8989C341.467 27.8989 341.667 27.9324 341.8 27.999ZM343 28.0991H344.3V28.8989C344.9 28.2323 345.7 27.8989 346.7 27.8989C347.767 27.8989 348.5 28.3326 348.9 29.1992C349.167 28.7992 349.533 28.4988 350 28.2988C350.4 28.0322 350.9 27.8989 351.5 27.8989C353.233 27.8989 354.1 28.8326 354.1 30.6992V35.999H352.8V30.7988C352.8 30.1988 352.667 29.7657 352.4 29.499C352.133 29.2324 351.7 29.0991 351.1 29.0991C350.567 29.0991 350.133 29.2324 349.8 29.499C349.467 29.8324 349.267 30.2326 349.2 30.6992V35.999H347.9V30.7988C347.9 29.6655 347.333 29.0991 346.2 29.0991C345.333 29.0991 344.733 29.4659 344.4 30.1992V35.999H343V28.0991ZM362.5 35.999H361.1C360.967 35.8657 360.9 35.5992 360.9 35.1992C360.233 35.8659 359.467 36.1992 358.6 36.1992C357.8 36.1992 357.167 35.9657 356.7 35.499C356.167 35.0324 355.9 34.4655 355.9 33.7988C355.9 32.9988 356.233 32.3656 356.9 31.8989C357.5 31.4323 358.367 31.1992 359.5 31.1992H360.9V30.5991C360.9 30.1325 360.733 29.7657 360.4 29.499C360.133 29.1657 359.733 28.999 359.2 28.999C358.667 28.999 358.267 29.1323 358 29.3989C357.667 29.6656 357.5 29.9655 357.5 30.2988H356.1C356.1 29.8988 356.233 29.4991 356.5 29.0991C356.767 28.7658 357.167 28.4988 357.7 28.2988C358.167 28.0322 358.7 27.8989 359.3 27.8989C360.167 27.8989 360.867 28.1325 361.4 28.5991C361.933 29.0658 362.2 29.699 362.2 30.499V34.1992C362.2 34.8659 362.3 35.4323 362.5 35.8989V35.999ZM358.8 34.999C359.267 34.999 359.667 34.8658 360 34.5991C360.4 34.3991 360.7 34.1322 360.9 33.7988V32.0991H359.8C358.133 32.0991 357.3 32.5991 357.3 33.5991C357.3 33.9991 357.433 34.3325 357.7 34.5991C357.967 34.8658 358.333 34.999 358.8 34.999ZM368.9 33.8989C368.9 33.4989 368.767 33.199 368.5 32.999C368.233 32.799 367.767 32.6324 367.1 32.499C366.433 32.3657 365.867 32.199 365.4 31.999C365 31.799 364.733 31.5655 364.6 31.2988C364.4 30.9655 364.3 30.5992 364.3 30.1992C364.3 29.5992 364.567 29.0658 365.1 28.5991C365.633 28.1325 366.333 27.8989 367.2 27.8989C368.067 27.8989 368.8 28.1325 369.4 28.5991C369.933 29.0658 370.2 29.6656 370.2 30.3989H368.9C368.9 29.9989 368.733 29.6656 368.4 29.3989C368.067 29.1323 367.667 28.999 367.2 28.999C366.733 28.999 366.333 29.1323 366 29.3989C365.733 29.5989 365.6 29.8659 365.6 30.1992C365.6 30.5326 365.733 30.7656 366 30.8989C366.267 31.0989 366.733 31.2656 367.4 31.3989C368.067 31.5323 368.633 31.7324 369.1 31.999C369.5 32.199 369.8 32.4326 370 32.6992C370.2 33.0326 370.3 33.3988 370.3 33.7988C370.3 34.5322 370 35.099 369.4 35.499C368.867 35.899 368.133 36.0991 367.2 36.0991C366.6 36.0991 366.067 35.9988 365.6 35.7988C365.067 35.5988 364.667 35.2989 364.4 34.8989C364.133 34.4989 364 34.0658 364 33.5991H365.4C365.4 33.9991 365.567 34.3325 365.9 34.5991C366.233 34.8658 366.667 34.999 367.2 34.999C367.733 34.999 368.167 34.8992 368.5 34.6992C368.767 34.4992 368.9 34.2323 368.9 33.8989ZM373.5 28.0991V35.999H372.2V28.0991H373.5ZM372 25.999C372 25.7324 372.067 25.5323 372.2 25.3989C372.333 25.2656 372.533 25.1992 372.8 25.1992C373.067 25.1992 373.267 25.2656 373.4 25.3989C373.533 25.5323 373.6 25.7324 373.6 25.999C373.6 26.199 373.533 26.3657 373.4 26.499C373.267 26.6324 373.067 26.6992 372.8 26.6992C372.533 26.6992 372.333 26.6324 372.2 26.499C372.067 26.3657 372 26.199 372 25.999ZM375.6 28.0991H376.9L377 29.0991C377.6 28.2991 378.367 27.8989 379.3 27.8989C381.033 27.8989 381.9 28.8655 381.9 30.7988V35.999H380.5V30.6992C380.5 30.1659 380.367 29.7657 380.1 29.499C379.9 29.2324 379.5 29.0991 378.9 29.0991C378.5 29.0991 378.133 29.1989 377.8 29.3989C377.467 29.6656 377.2 29.9655 377 30.2988V35.999H375.6V28.0991ZM385.5 25.3989L385.4 32.999H384.2L384.1 25.3989H385.5ZM384.1 35.2988C384.1 35.0988 384.133 34.9322 384.2 34.7988C384.4 34.6655 384.6 34.5991 384.8 34.5991C385.067 34.5991 385.267 34.6655 385.4 34.7988C385.6 34.9322 385.7 35.0988 385.7 35.2988C385.7 35.5655 385.6 35.7656 385.4 35.8989C385.267 36.0323 385.067 36.0991 384.8 36.0991C384.6 36.0991 384.4 36.0323 384.2 35.8989C384.133 35.7656 384.1 35.5655 384.1 35.2988Z" fill="#DEE3FF"/>
</svg>
