<svg width="92" height="16" viewBox="0 0 92 16" fill="none" xmlns="http://www.w3.org/2000/svg">
    <path d="M2.29938 5.70078V6.60078H4.09937C4.76603 6.60078 5.36608 6.50078 5.89941 6.30078C6.36608 6.10078 6.73272 5.83411 6.99939 5.50078C7.33272 5.10078 7.49939 4.63411 7.49939 4.10078C7.49939 3.50078 7.33272 3.03411 6.99939 2.70078C6.73272 2.30078 6.36608 2.00078 5.89941 1.80078C5.36608 1.60078 4.76603 1.50078 4.09937 1.50078H0.899414V12.0008H4.29938C5.03271 12.0008 5.66607 11.9008 6.1994 11.7008C6.7994 11.5008 7.26603 11.1674 7.59937 10.7008C7.9327 10.2341 8.09937 9.66745 8.09937 9.00078C8.09937 8.46744 7.99938 8.03411 7.79938 7.70078C7.59938 7.30078 7.29941 7.00078 6.89941 6.80078C6.56608 6.53411 6.16607 6.36745 5.6994 6.30078C5.23274 6.16745 4.76604 6.10078 4.29938 6.10078H2.29938V7.10078H4.1994C4.46607 7.10078 4.73272 7.13411 4.99939 7.20078C5.26606 7.26744 5.4994 7.36744 5.6994 7.50078C5.83274 7.63411 5.96603 7.80078 6.09937 8.00078C6.16603 8.26745 6.1994 8.53411 6.1994 8.80078C6.1994 9.20078 6.13272 9.53411 5.99939 9.80078C5.79939 10.0008 5.53274 10.1674 5.1994 10.3008C4.93273 10.4341 4.5994 10.5008 4.1994 10.5008H2.6994V3.00078H3.99939C4.46606 3.00078 4.86607 3.10078 5.1994 3.30078C5.46607 3.56745 5.59937 3.90078 5.59937 4.30078C5.59937 4.63411 5.53275 4.90078 5.39941 5.10078C5.26608 5.30078 5.06604 5.43411 4.79938 5.50078C4.59938 5.63411 4.33272 5.70078 3.99939 5.70078H2.29938ZM9.6994 2.40078C9.6994 2.66745 9.79939 2.90078 9.99939 3.10078C10.2661 3.23411 10.5327 3.30078 10.7994 3.30078C11.066 3.30078 11.2994 3.23411 11.4994 3.10078C11.6994 2.90078 11.7994 2.66745 11.7994 2.40078C11.7994 2.06745 11.6994 1.83411 11.4994 1.70078C11.2994 1.50078 11.066 1.40078 10.7994 1.40078C10.5327 1.40078 10.2661 1.50078 9.99939 1.70078C9.79939 1.83411 9.6994 2.06745 9.6994 2.40078ZM11.5994 5.10078H9.99939V12.0008H11.5994V5.10078ZM13.4994 6.60078H16.9994L12.9994 12.0008H19.4994V10.5008H15.8994L19.7994 5.10078H13.4994V6.60078ZM27.1994 12.0008V0.300781H25.5994V12.0008H27.1994ZM29.9994 7.80078V12.0008H31.5994V7.60078C31.5994 7.00078 31.5327 6.50078 31.3994 6.10078C31.1994 5.70078 30.9327 5.40077 30.5994 5.20078C30.1994 5.00078 29.766 4.90078 29.2994 4.90078C28.766 4.90078 28.2994 5.03411 27.8994 5.30078C27.5661 5.56745 27.2994 5.90078 27.0994 6.30078C26.8994 6.76745 26.7994 7.26745 26.7994 7.80078H27.1994C27.1994 7.46745 27.2661 7.20078 27.3994 7.00078C27.5327 6.73411 27.6994 6.56744 27.8994 6.50078C28.1661 6.36744 28.4327 6.30078 28.6994 6.30078C29.1661 6.30078 29.4994 6.40078 29.6994 6.60078C29.8994 6.86744 29.9994 7.26745 29.9994 7.80078ZM34.6994 9.90078C34.6994 9.63411 34.7661 9.43411 34.8994 9.30078C34.9661 9.16745 35.0994 9.06744 35.2994 9.00078C35.566 8.86744 35.8661 8.80078 36.1994 8.80078C36.5994 8.80078 36.966 8.86744 37.2994 9.00078C37.6327 9.06744 37.966 9.23411 38.2994 9.50078V8.60078C38.166 8.53411 37.9994 8.43411 37.7994 8.30078C37.5994 8.16745 37.3327 8.03411 36.9994 7.90078C36.6661 7.83411 36.266 7.80078 35.7994 7.80078C34.9327 7.80078 34.266 8.00078 33.7994 8.40078C33.3327 8.73411 33.0994 9.23411 33.0994 9.90078C33.0994 10.4341 33.1994 10.8341 33.3994 11.1008C33.5994 11.4341 33.8994 11.7008 34.2994 11.9008C34.6994 12.1008 35.0994 12.2008 35.4994 12.2008C35.8994 12.2008 36.2994 12.1008 36.6994 11.9008C37.0994 11.7674 37.3994 11.5674 37.5994 11.3008C37.866 10.9674 37.9994 10.6008 37.9994 10.2008L37.7994 9.30078C37.7994 9.63411 37.6994 9.93411 37.4994 10.2008C37.3661 10.4008 37.1661 10.5674 36.8994 10.7008C36.6327 10.8341 36.3327 10.9008 35.9994 10.9008C35.7327 10.9008 35.4994 10.8674 35.2994 10.8008C35.0994 10.7341 34.9661 10.6341 34.8994 10.5008C34.7661 10.3008 34.6994 10.1008 34.6994 9.90078ZM33.4994 5.80078L34.1994 6.90078C34.3327 6.83411 34.4994 6.73411 34.6994 6.60078C34.8994 6.53411 35.1327 6.46745 35.3994 6.40078C35.6661 6.33411 35.966 6.30078 36.2994 6.30078C36.4994 6.30078 36.6994 6.30078 36.8994 6.30078C37.0994 6.36745 37.2661 6.43411 37.3994 6.50078C37.5327 6.56744 37.6327 6.70078 37.6994 6.90078C37.7661 7.03411 37.7994 7.20078 37.7994 7.40078V12.0008H39.3994V7.10078C39.3994 6.63411 39.2661 6.23411 38.9994 5.90078C38.7327 5.56745 38.3994 5.33411 37.9994 5.20078C37.5327 5.00078 37.0327 4.90078 36.4994 4.90078C35.8327 4.90078 35.266 5.00078 34.7994 5.20078C34.266 5.40077 33.8327 5.60078 33.4994 5.80078ZM46.3994 5.10078V15.3008H48.0994V5.10078H46.3994ZM40.6994 8.50078C40.6994 9.30078 40.8327 9.96744 41.0994 10.5008C41.4327 11.0341 41.8661 11.4674 42.3994 11.8008C42.8661 12.0674 43.3994 12.2008 43.9994 12.2008C44.5994 12.2008 45.1327 12.0341 45.5994 11.7008C45.9994 11.4341 46.3327 11.0341 46.5994 10.5008C46.7994 9.96744 46.8994 9.30078 46.8994 8.50078C46.8994 7.76744 46.7994 7.13411 46.5994 6.60078C46.3327 6.06744 45.9994 5.66745 45.5994 5.40078C45.1327 5.06745 44.5994 4.90078 43.9994 4.90078C43.3994 4.90078 42.8661 5.03411 42.3994 5.30078C41.8661 5.63411 41.4327 6.06744 41.0994 6.60078C40.8327 7.13411 40.6994 7.76744 40.6994 8.50078ZM42.2994 8.50078C42.2994 8.10078 42.3994 7.73411 42.5994 7.40078C42.7994 7.06745 43.0661 6.80078 43.3994 6.60078C43.7327 6.46744 44.0661 6.40078 44.3994 6.40078C44.7327 6.40078 45.0327 6.46744 45.2994 6.60078C45.6327 6.80078 45.8994 7.06745 46.0994 7.40078C46.2994 7.66745 46.3994 8.03411 46.3994 8.50078C46.3994 9.03411 46.2994 9.43411 46.0994 9.70078C45.8994 10.0341 45.6327 10.3008 45.2994 10.5008C45.0327 10.6341 44.7327 10.7008 44.3994 10.7008C44.0661 10.7008 43.7327 10.6341 43.3994 10.5008C43.0661 10.3008 42.7994 10.0341 42.5994 9.70078C42.3994 9.36744 42.2994 8.96744 42.2994 8.50078ZM49.9994 2.40078C49.9994 2.66745 50.0994 2.90078 50.2994 3.10078C50.4994 3.23411 50.7327 3.30078 50.9994 3.30078C51.2661 3.30078 51.4994 3.23411 51.6994 3.10078C51.8994 2.90078 51.9994 2.66745 51.9994 2.40078C51.9994 2.06745 51.8994 1.83411 51.6994 1.70078C51.4994 1.50078 51.2661 1.40078 50.9994 1.40078C50.7327 1.40078 50.4994 1.50078 50.2994 1.70078C50.0994 1.83411 49.9994 2.06745 49.9994 2.40078ZM51.7994 5.10078H50.1994V12.0008H51.7994V5.10078ZM63.8994 12.0008V7.60078C63.8994 7.06744 63.8327 6.60078 63.6994 6.20078C63.4994 5.80078 63.2327 5.50078 62.8994 5.30078C62.6327 5.10078 62.2327 5.00078 61.6994 5.00078C61.2327 5.00078 60.8327 5.10078 60.4994 5.30078C60.0994 5.50078 59.7994 5.80078 59.5994 6.20078C59.3994 5.80078 59.1327 5.50078 58.7994 5.30078C58.466 5.10078 58.066 5.00078 57.5994 5.00078C57.1327 5.00078 56.7327 5.10078 56.3994 5.30078C56.0661 5.43411 55.7994 5.70078 55.5994 6.10078V5.10078H53.9994V12.0008H55.5994V7.80078C55.5994 7.46745 55.666 7.20078 55.7994 7.00078C55.9327 6.73411 56.0994 6.53411 56.2994 6.40078C56.4994 6.33411 56.7327 6.30078 56.9994 6.30078C57.3994 6.30078 57.6994 6.40078 57.8994 6.60078C58.0327 6.86744 58.0994 7.26745 58.0994 7.80078V12.0008H59.7994V7.80078C59.7994 7.46745 59.8327 7.20078 59.8994 7.00078C60.0327 6.73411 60.1994 6.53411 60.3994 6.40078C60.5994 6.33411 60.8327 6.30078 61.0994 6.30078C61.4994 6.30078 61.7994 6.40078 61.9994 6.60078C62.1994 6.86744 62.2994 7.26745 62.2994 7.80078V12.0008H63.8994ZM65.8994 2.40078C65.8994 2.66745 65.9994 2.90078 66.1994 3.10078C66.3994 3.23411 66.6327 3.30078 66.8994 3.30078C67.1661 3.30078 67.3994 3.23411 67.5994 3.10078C67.7994 2.90078 67.8994 2.66745 67.8994 2.40078C67.8994 2.06745 67.7994 1.83411 67.5994 1.70078C67.3994 1.50078 67.1661 1.40078 66.8994 1.40078C66.6327 1.40078 66.3994 1.50078 66.1994 1.70078C65.9994 1.83411 65.8994 2.06745 65.8994 2.40078ZM67.6994 5.10078H66.0994V12.0008H67.6994V5.10078ZM69.6994 6.60078H73.1994L69.0994 12.0008H75.5994V10.5008H71.9994L75.9994 5.10078H69.6994V6.60078ZM83.9994 0.300781H82.3994V12.0008H83.9994V0.300781ZM76.6994 8.60078C76.6994 9.33411 76.8661 9.96744 77.1994 10.5008C77.4661 11.0341 77.8661 11.4341 78.3994 11.7008C78.9327 12.0341 79.4994 12.2008 80.0994 12.2008C80.6327 12.2008 81.1327 12.0341 81.5994 11.7008C81.9994 11.4341 82.3327 11.0341 82.5994 10.5008C82.866 9.96744 82.9994 9.33411 82.9994 8.60078C82.9994 7.80078 82.866 7.13411 82.5994 6.60078C82.3327 6.06744 81.9994 5.66745 81.5994 5.40078C81.1327 5.13411 80.6327 5.00078 80.0994 5.00078C79.4994 5.00078 78.9327 5.13411 78.3994 5.40078C77.8661 5.66745 77.4661 6.06744 77.1994 6.60078C76.8661 7.13411 76.6994 7.80078 76.6994 8.60078ZM78.3994 8.60078C78.3994 8.13411 78.4994 7.73411 78.6994 7.40078C78.8327 7.06745 79.0661 6.80078 79.3994 6.60078C79.7327 6.46744 80.0661 6.40078 80.3994 6.40078C80.7327 6.40078 81.0661 6.46744 81.3994 6.60078C81.6661 6.80078 81.8994 7.06745 82.0994 7.40078C82.2994 7.66745 82.3994 8.06744 82.3994 8.60078C82.3994 9.06744 82.2994 9.46745 82.0994 9.80078C81.8994 10.0674 81.6661 10.3008 81.3994 10.5008C81.0661 10.6341 80.7327 10.7008 80.3994 10.7008C80.0661 10.7008 79.7327 10.6341 79.3994 10.5008C79.0661 10.3008 78.8327 10.0341 78.6994 9.70078C78.4994 9.36744 78.3994 9.00078 78.3994 8.60078ZM87.0994 9.90078C87.0994 9.63411 87.1327 9.43411 87.1994 9.30078C87.3327 9.16745 87.4994 9.06744 87.6994 9.00078C87.8994 8.86744 88.1661 8.80078 88.4994 8.80078C88.8994 8.80078 89.266 8.86744 89.5994 9.00078C89.9994 9.06744 90.3327 9.23411 90.5994 9.50078V8.60078C90.5327 8.53411 90.3994 8.43411 90.1994 8.30078C89.9327 8.16745 89.6327 8.03411 89.2994 7.90078C88.966 7.83411 88.566 7.80078 88.0994 7.80078C87.2327 7.80078 86.566 8.00078 86.0994 8.40078C85.6327 8.73411 85.3994 9.23411 85.3994 9.90078C85.3994 10.4341 85.5327 10.8341 85.7994 11.1008C85.9994 11.4341 86.2994 11.7008 86.6994 11.9008C87.0327 12.1008 87.4327 12.2008 87.8994 12.2008C88.2994 12.2008 88.6661 12.1008 88.9994 11.9008C89.3994 11.7674 89.7327 11.5674 89.9994 11.3008C90.2661 10.9674 90.3994 10.6008 90.3994 10.2008L90.0994 9.30078C90.0994 9.63411 90.0327 9.93411 89.8994 10.2008C89.7661 10.4008 89.5327 10.5674 89.1994 10.7008C88.9994 10.8341 88.7327 10.9008 88.3994 10.9008C88.1327 10.9008 87.8994 10.8674 87.6994 10.8008C87.4994 10.7341 87.3327 10.6341 87.1994 10.5008C87.1327 10.3008 87.0994 10.1008 87.0994 9.90078ZM85.8994 5.80078L86.5994 6.90078C86.666 6.83411 86.7994 6.73411 86.9994 6.60078C87.1994 6.53411 87.4327 6.46745 87.6994 6.40078C88.0327 6.33411 88.3661 6.30078 88.6994 6.30078C88.8994 6.30078 89.0661 6.30078 89.1994 6.30078C89.3994 6.36745 89.5661 6.43411 89.6994 6.50078C89.8327 6.56744 89.9327 6.70078 89.9994 6.90078C90.0661 7.03411 90.0994 7.20078 90.0994 7.40078V12.0008H91.6994V7.10078C91.6994 6.63411 91.566 6.23411 91.2994 5.90078C91.0994 5.56745 90.766 5.33411 90.2994 5.20078C89.8994 5.00078 89.3994 4.90078 88.7994 4.90078C88.1994 4.90078 87.6327 5.00078 87.0994 5.20078C86.6327 5.40077 86.2327 5.60078 85.8994 5.80078Z" fill="#202020"/>
</svg>