<svg width="440" height="40" viewBox="0 0 440 40" fill="none" xmlns="http://www.w3.org/2000/svg">
<path d="M4.40018 11.9995H0.700195V1.29932H4.2002C5.33353 1.29932 6.20017 1.56628 6.80017 2.09961C7.3335 2.56628 7.60019 3.26637 7.60019 4.19971C7.60019 4.66637 7.46686 5.09951 7.2002 5.49951C6.93353 5.89951 6.56686 6.19941 6.10019 6.39941C6.63352 6.53275 7.06684 6.83265 7.40018 7.29932C7.73351 7.76598 7.90018 8.29941 7.90018 8.89941C7.90018 9.89941 7.60018 10.6664 7.00018 11.1997C6.40018 11.733 5.53351 11.9995 4.40018 11.9995ZM4.40018 6.99951H2.10019V10.8994H4.40018C5.06684 10.8994 5.56684 10.6993 5.90018 10.2993C6.30018 9.96598 6.50018 9.49941 6.50018 8.89941C6.50018 7.63275 5.80018 6.99951 4.40018 6.99951ZM2.10019 2.49951V5.89941H4.2002C4.8002 5.89941 5.3002 5.73275 5.7002 5.39941C6.03353 5.13275 6.2002 4.73304 6.2002 4.19971C6.2002 3.59971 6.03353 3.16608 5.7002 2.89941C5.36686 2.63275 4.86686 2.49951 4.2002 2.49951H2.10019ZM11.3002 4.09961V11.9995H9.90018V4.09961H11.3002ZM9.80017 1.99951C9.80017 1.73285 9.86685 1.53275 10.0002 1.39941C10.1335 1.26608 10.3335 1.19971 10.6002 1.19971C10.8669 1.19971 11.0669 1.26608 11.2002 1.39941C11.3335 1.53275 11.4002 1.73285 11.4002 1.99951C11.4002 2.19951 11.3335 2.36618 11.2002 2.49951C11.0669 2.63285 10.8669 2.69971 10.6002 2.69971C10.3335 2.69971 10.1335 2.63285 10.0002 2.49951C9.86685 2.36618 9.80017 2.19951 9.80017 1.99951ZM19.2002 4.99951L14.7002 10.8994H19.4002V11.9995H13.1002V10.9995L17.5002 5.19971H13.2002V4.09961H19.2002V4.99951ZM20.9002 3.99951H22.2002V4.99951C22.8002 4.26618 23.6002 3.89941 24.6002 3.89941C26.2669 3.89941 27.1002 4.83304 27.1002 6.69971V11.8994H25.8002V6.69971C25.8002 6.09971 25.6668 5.66608 25.4002 5.39941C25.1335 5.13275 24.7335 4.99951 24.2002 4.99951C23.7335 4.99951 23.3335 5.13275 23.0002 5.39941C22.6668 5.59941 22.4335 5.89932 22.3002 6.29932V11.8994H20.9002V3.99951ZM30.6002 3.99951V11.9995H29.3002V3.99951H30.6002ZM29.1002 1.89941C29.1002 1.69941 29.1668 1.53275 29.3002 1.39941C29.4335 1.26608 29.6335 1.19971 29.9002 1.19971C30.1668 1.19971 30.3668 1.26608 30.5002 1.39941C30.6335 1.53275 30.7002 1.69941 30.7002 1.89941C30.7002 2.16608 30.6335 2.36618 30.5002 2.49951C30.3668 2.63285 30.1668 2.69971 29.9002 2.69971C29.6335 2.69971 29.4335 2.63285 29.3002 2.49951C29.1668 2.36618 29.1002 2.16608 29.1002 1.89941ZM32.8002 3.99951H34.0002L34.1002 4.99951C34.7002 4.26618 35.5002 3.89941 36.5002 3.89941C38.1669 3.89941 39.0002 4.83304 39.0002 6.69971V11.9995H37.6002V6.69971C37.6002 6.16637 37.4669 5.76618 37.2002 5.49951C37.0002 5.16618 36.6002 4.99951 36.0002 4.99951C35.6002 4.99951 35.2335 5.13275 34.9002 5.39941C34.5668 5.59941 34.3002 5.89932 34.1002 6.29932V11.9995H32.8002V3.99951ZM40.7002 7.89941C40.7002 6.63275 41.0002 5.63275 41.6002 4.89941C42.1335 4.16608 42.8668 3.79932 43.8002 3.79932C44.8002 3.79932 45.5669 4.13265 46.1002 4.79932L46.2002 3.99951H47.4002V11.6997C47.4002 12.6997 47.1002 13.4996 46.5002 14.0996C45.9002 14.6996 45.0668 14.9995 44.0002 14.9995C43.4669 14.9995 42.9335 14.8663 42.4002 14.5996C41.8002 14.3996 41.3669 14.0663 41.1002 13.5996L41.8002 12.7993C42.4002 13.5326 43.1335 13.8994 44.0002 13.8994C44.6002 13.8994 45.1002 13.6993 45.5002 13.2993C45.8335 12.966 46.0002 12.466 46.0002 11.7993V11.0996C45.4669 11.6996 44.7335 11.9995 43.8002 11.9995C42.8668 11.9995 42.1335 11.6327 41.6002 10.8994C41.0002 10.1661 40.7002 9.16608 40.7002 7.89941ZM42.1002 7.99951C42.1002 8.93285 42.2669 9.63294 42.6002 10.0996C43.0002 10.6329 43.5335 10.8994 44.2002 10.8994C45.0002 10.8994 45.6002 10.4997 46.0002 9.69971V6.09961C45.6002 5.36628 45.0002 4.99951 44.2002 4.99951C43.5335 4.99951 43.0002 5.23304 42.6002 5.69971C42.2669 6.23304 42.1002 6.99951 42.1002 7.99951ZM52.8002 7.89941C52.8002 7.09941 52.9668 6.39932 53.3002 5.79932C53.5668 5.13265 53.9669 4.63265 54.5002 4.29932C55.1002 3.96598 55.7335 3.79932 56.4002 3.79932C57.4669 3.79932 58.3335 4.16608 59.0002 4.89941C59.6669 5.69941 60.0002 6.69941 60.0002 7.89941V7.99951C60.0002 8.79951 59.8668 9.49961 59.6002 10.0996C59.2668 10.6996 58.8335 11.1662 58.3002 11.4995C57.7668 11.8328 57.1335 11.9995 56.4002 11.9995C55.3335 11.9995 54.4668 11.6327 53.8002 10.8994C53.1335 10.1661 52.8002 9.16608 52.8002 7.89941ZM54.2002 7.99951C54.2002 8.86618 54.4002 9.56628 54.8002 10.0996C55.2002 10.6329 55.7335 10.8994 56.4002 10.8994C57.1335 10.8994 57.7002 10.6329 58.1002 10.0996C58.5002 9.56628 58.7002 8.83275 58.7002 7.89941C58.7002 7.03275 58.4669 6.29971 58.0002 5.69971C57.6002 5.16637 57.0669 4.89941 56.4002 4.89941C55.7335 4.89941 55.2002 5.16637 54.8002 5.69971C54.4002 6.23304 54.2002 6.99951 54.2002 7.99951ZM61.6002 0.599609V1.49951L61.4002 4.09961H60.5002V0.599609H61.6002ZM62.6002 7.99951V7.89941C62.6002 6.63275 62.8669 5.63275 63.4002 4.89941C64.0002 4.16608 64.7669 3.79932 65.7002 3.79932C66.6335 3.79932 67.4002 4.13265 68.0002 4.79932V3.99951H69.3002V14.8994H67.9002V11.1997C67.3669 11.733 66.6335 11.9995 65.7002 11.9995C64.7669 11.9995 64.0002 11.6327 63.4002 10.8994C62.8669 10.1661 62.6002 9.19951 62.6002 7.99951ZM63.9002 7.99951C63.9002 8.93285 64.1002 9.66637 64.5002 10.1997C64.9002 10.6664 65.4335 10.8994 66.1002 10.8994C66.9002 10.8994 67.5002 10.5661 67.9002 9.89941V5.99951C67.5002 5.26618 66.9002 4.89941 66.1002 4.89941C65.4335 4.89941 64.9002 5.16637 64.5002 5.69971C64.1002 6.23304 63.9002 6.99951 63.9002 7.99951ZM76.4002 11.8994L76.3002 11.0996C75.7668 11.6996 75.0002 11.9995 74.0002 11.9995C73.1335 11.9995 72.5002 11.766 72.1002 11.2993C71.6335 10.8327 71.4002 10.0996 71.4002 9.09961V3.99951H72.8002V9.09961C72.8002 10.2996 73.2669 10.8994 74.2002 10.8994C75.2669 10.8994 75.9668 10.4997 76.3002 9.69971V3.99951H77.7002V11.8994H76.4002ZM80.3002 3.99951L82.3002 10.0996L84.3002 3.99951H85.7002L82.8002 11.8994H81.8002L78.9002 3.99951H80.3002ZM90.1002 10.8994C90.5668 10.8994 90.9668 10.7662 91.3002 10.4995C91.7002 10.2328 91.9002 9.86608 91.9002 9.39941H93.2002C93.2002 9.86608 93.0335 10.2997 92.7002 10.6997C92.4335 11.0997 92.0668 11.433 91.6002 11.6997C91.1335 11.8997 90.6335 11.9995 90.1002 11.9995C88.9668 11.9995 88.1002 11.6662 87.5002 10.9995C86.8335 10.2662 86.5002 9.26618 86.5002 7.99951V7.79932C86.5002 6.99932 86.6668 6.29971 87.0002 5.69971C87.2669 5.09971 87.6669 4.63265 88.2002 4.29932C88.7335 3.96598 89.3668 3.79932 90.1002 3.79932C90.9668 3.79932 91.7002 4.06628 92.3002 4.59961C92.9002 5.13294 93.2002 5.83304 93.2002 6.69971H91.9002C91.9002 6.16637 91.7002 5.73275 91.3002 5.39941C90.9668 5.06608 90.5668 4.89941 90.1002 4.89941C89.3668 4.89941 88.8335 5.16637 88.5002 5.69971C88.1002 6.16637 87.9002 6.86598 87.9002 7.79932V8.09961C87.9002 9.03294 88.1002 9.73304 88.5002 10.1997C88.8335 10.6664 89.3668 10.8994 90.1002 10.8994ZM96.1002 0.599609V4.89941C96.7002 4.16608 97.4669 3.79932 98.4002 3.79932C100.067 3.79932 100.934 4.76637 101 6.69971V11.8994H99.6002V6.59961C99.6002 6.06628 99.4669 5.66608 99.2002 5.39941C98.9335 5.13275 98.5335 4.99951 98.0002 4.99951C97.6002 4.99951 97.2335 5.09932 96.9002 5.29932C96.5669 5.56598 96.3002 5.86637 96.1002 6.19971V11.8994H94.7002V0.599609H96.1002ZM104.5 3.99951V11.8994H103.2V3.99951H104.5ZM103 1.89941C103 1.63275 103.067 1.43265 103.2 1.29932C103.334 1.16598 103.534 1.09961 103.8 1.09961C104.067 1.09961 104.267 1.16598 104.4 1.29932C104.534 1.43265 104.6 1.63275 104.6 1.89941C104.6 2.09941 104.534 2.26608 104.4 2.39941C104.267 2.53275 104.067 2.59961 103.8 2.59961C103.534 2.59961 103.334 2.53275 103.2 2.39941C103.067 2.26608 103 2.09941 103 1.89941ZM108.1 0.599609V11.8994H106.7V0.599609H108.1ZM116.6 11.8994H115.2C115.134 11.7661 115.067 11.4996 115 11.0996C114.4 11.6996 113.667 11.9995 112.8 11.9995C112 11.9995 111.334 11.7994 110.8 11.3994C110.334 10.9327 110.1 10.3664 110.1 9.69971C110.1 8.89971 110.4 8.26598 111 7.79932C111.667 7.33265 112.567 7.09961 113.7 7.09961H115V6.49951C115 6.03285 114.867 5.63265 114.6 5.29932C114.267 5.03265 113.834 4.89941 113.3 4.89941C112.834 4.89941 112.433 5.03265 112.1 5.29932C111.767 5.49932 111.6 5.79971 111.6 6.19971H110.2C110.2 5.79971 110.367 5.39951 110.7 4.99951C110.967 4.66618 111.334 4.36628 111.8 4.09961C112.267 3.89961 112.8 3.79932 113.4 3.79932C114.334 3.79932 115.034 4.03285 115.5 4.49951C116.034 4.96618 116.3 5.59941 116.3 6.39941V9.99951C116.3 10.7328 116.4 11.3327 116.6 11.7993V11.8994ZM113 10.7993C113.4 10.7993 113.8 10.6995 114.2 10.4995C114.534 10.2995 114.8 10.033 115 9.69971V7.99951H113.9C112.234 7.99951 111.4 8.49951 111.4 9.49951C111.4 9.89951 111.567 10.2328 111.9 10.4995C112.167 10.6995 112.534 10.7993 113 10.7993ZM122.3 3.89941V5.19971C122.1 5.13304 121.867 5.09961 121.6 5.09961C120.733 5.09961 120.134 5.46637 119.8 6.19971V11.8994H118.5V3.89941H119.8V4.89941C120.267 4.16608 120.9 3.79932 121.7 3.79932C121.967 3.79932 122.167 3.83275 122.3 3.89941ZM128.7 3.89941V11.8994H127.4V3.89941H128.7ZM127.2 1.79932C127.2 1.59932 127.267 1.43265 127.4 1.29932C127.534 1.16598 127.734 1.09961 128 1.09961C128.267 1.09961 128.467 1.16598 128.6 1.29932C128.733 1.43265 128.8 1.59932 128.8 1.79932C128.8 2.06598 128.733 2.26608 128.6 2.39941C128.467 2.53275 128.267 2.59961 128 2.59961C127.734 2.59961 127.534 2.53275 127.4 2.39941C127.267 2.26608 127.2 2.06598 127.2 1.79932ZM135.5 9.79932C135.5 9.39932 135.334 9.09941 135 8.89941C134.734 8.69941 134.267 8.53275 133.6 8.39941C132.933 8.26608 132.4 8.09941 132 7.89941C131.6 7.69941 131.3 7.43294 131.1 7.09961C130.9 6.83294 130.8 6.49961 130.8 6.09961C130.8 5.43294 131.067 4.89951 131.6 4.49951C132.133 4.03285 132.834 3.79932 133.7 3.79932C134.634 3.79932 135.367 4.03285 135.9 4.49951C136.434 4.96618 136.7 5.56598 136.7 6.29932H135.4C135.4 5.89932 135.234 5.56598 134.9 5.29932C134.567 5.03265 134.167 4.89941 133.7 4.89941C133.234 4.89941 132.867 4.99971 132.6 5.19971C132.267 5.46637 132.1 5.76628 132.1 6.09961C132.1 6.43294 132.234 6.66598 132.5 6.79932C132.767 6.99932 133.234 7.16598 133.9 7.29932C134.567 7.43265 135.133 7.59932 135.6 7.79932C136 8.06598 136.3 8.33294 136.5 8.59961C136.7 8.86628 136.8 9.23304 136.8 9.69971C136.8 10.3664 136.534 10.9327 136 11.3994C135.4 11.7994 134.667 11.9995 133.8 11.9995C133.133 11.9995 132.567 11.8997 132.1 11.6997C131.567 11.433 131.167 11.0997 130.9 10.6997C130.634 10.2997 130.5 9.86608 130.5 9.39941H131.9C131.9 9.86608 132.067 10.2328 132.4 10.4995C132.734 10.7662 133.2 10.8994 133.8 10.8994C134.267 10.8994 134.667 10.7996 135 10.5996C135.334 10.3996 135.5 10.1326 135.5 9.79932ZM139.1 1.99951H140.4V3.89941H141.9V4.99951H140.4V9.89941C140.4 10.2327 140.467 10.4663 140.6 10.5996C140.733 10.7996 140.967 10.8994 141.3 10.8994C141.434 10.8994 141.634 10.866 141.9 10.7993V11.8994C141.567 11.9661 141.234 11.9995 140.9 11.9995C140.3 11.9995 139.834 11.8328 139.5 11.4995C139.234 11.0995 139.1 10.5661 139.1 9.89941V4.99951H137.6V3.89941H139.1V1.99951ZM149.8 11.8994H148.4C148.334 11.7661 148.267 11.4996 148.2 11.0996C147.534 11.6996 146.767 11.9995 145.9 11.9995C145.167 11.9995 144.534 11.7994 144 11.3994C143.534 10.9327 143.3 10.3664 143.3 9.69971C143.3 8.89971 143.6 8.26598 144.2 7.79932C144.8 7.33265 145.667 7.09961 146.8 7.09961H148.2V6.49951C148.2 6.03285 148.034 5.63265 147.7 5.29932C147.434 5.03265 147.034 4.89941 146.5 4.89941C146.034 4.89941 145.633 5.03265 145.3 5.29932C144.967 5.49932 144.8 5.79971 144.8 6.19971H143.4C143.4 5.79971 143.534 5.39951 143.8 4.99951C144.133 4.66618 144.534 4.36628 145 4.09961C145.467 3.89961 146 3.79932 146.6 3.79932C147.467 3.79932 148.167 4.03285 148.7 4.49951C149.234 4.96618 149.5 5.59941 149.5 6.39941V9.99951C149.5 10.7328 149.6 11.3327 149.8 11.7993V11.8994ZM146.1 10.7993C146.567 10.7993 146.967 10.6995 147.3 10.4995C147.7 10.2995 148 10.033 148.2 9.69971V7.99951H147.1C145.433 7.99951 144.6 8.49951 144.6 9.49951C144.6 9.89951 144.734 10.2328 145 10.4995C145.334 10.6995 145.7 10.7993 146.1 10.7993ZM151.3 7.79932C151.3 6.59932 151.6 5.63275 152.2 4.89941C152.734 4.16608 153.467 3.79932 154.4 3.79932C155.4 3.79932 156.167 4.13265 156.7 4.79932L156.8 3.89941H158V11.6997C158 12.6997 157.7 13.4996 157.1 14.0996C156.5 14.6996 155.7 14.9995 154.7 14.9995C154.1 14.9995 153.534 14.8663 153 14.5996C152.467 14.3996 152.034 14.0663 151.7 13.5996L152.4 12.7993C153 13.5326 153.733 13.8994 154.6 13.8994C155.2 13.8994 155.7 13.6993 156.1 13.2993C156.5 12.966 156.7 12.466 156.7 11.7993V11.0996C156.1 11.6996 155.334 11.9995 154.4 11.9995C153.467 11.9995 152.734 11.6327 152.2 10.8994C151.6 10.1661 151.3 9.13265 151.3 7.79932ZM152.7 7.99951C152.7 8.86618 152.867 9.56628 153.2 10.0996C153.6 10.6329 154.133 10.8994 154.8 10.8994C155.667 10.8994 156.3 10.4997 156.7 9.69971V6.09961C156.234 5.36628 155.6 4.99951 154.8 4.99951C154.133 4.99951 153.6 5.23304 153.2 5.69971C152.867 6.23304 152.7 6.99951 152.7 7.99951ZM166.4 11.8994H164.9C164.834 11.6994 164.8 11.3995 164.8 10.9995C164.133 11.6662 163.367 11.9995 162.5 11.9995C161.7 11.9995 161.067 11.7994 160.6 11.3994C160.067 10.9327 159.8 10.3664 159.8 9.69971C159.8 8.83304 160.133 8.19932 160.8 7.79932C161.4 7.33265 162.267 7.09961 163.4 7.09961H164.7V6.39941C164.7 5.93275 164.567 5.56598 164.3 5.29932C164.034 5.03265 163.633 4.89941 163.1 4.89941C162.567 4.89941 162.133 5.03265 161.8 5.29932C161.534 5.49932 161.4 5.76628 161.4 6.09961H160C160 5.76628 160.134 5.39951 160.4 4.99951C160.667 4.59951 161.067 4.29961 161.6 4.09961C162.067 3.89961 162.567 3.79932 163.1 3.79932C164.033 3.79932 164.767 4.03285 165.3 4.49951C165.834 4.96618 166.1 5.59941 166.1 6.39941V9.99951C166.1 10.7328 166.2 11.3327 166.4 11.7993V11.8994ZM162.7 10.7993C163.1 10.7993 163.5 10.6995 163.9 10.4995C164.3 10.2995 164.567 9.99961 164.7 9.59961V7.99951H163.7C162.034 7.99951 161.2 8.49951 161.2 9.49951C161.2 9.89951 161.333 10.2328 161.6 10.4995C161.867 10.6995 162.234 10.7993 162.7 10.7993ZM168.2 3.89941H169.5V4.89941C170.1 4.16608 170.9 3.79932 171.9 3.79932C173.567 3.79932 174.4 4.73294 174.4 6.59961V11.8994H173.1V6.59961C173.1 6.06628 172.967 5.63265 172.7 5.29932C172.434 5.03265 172.034 4.89941 171.5 4.89941C171.034 4.89941 170.633 5.03265 170.3 5.29932C169.967 5.49932 169.733 5.79971 169.6 6.19971V11.8994H168.2V3.89941ZM180.2 3.89941H181.6V12.6997C181.6 14.233 180.9 14.9995 179.5 14.9995C179.234 14.9995 178.967 14.9661 178.7 14.8994V13.7993C178.834 13.7993 179.034 13.7993 179.3 13.7993C179.633 13.7993 179.867 13.7329 180 13.5996C180.134 13.3996 180.2 13.0997 180.2 12.6997V3.89941ZM180.1 1.79932C180.1 1.59932 180.167 1.43265 180.3 1.29932C180.434 1.09932 180.634 0.999512 180.9 0.999512C181.167 0.999512 181.367 1.09932 181.5 1.29932C181.634 1.43265 181.7 1.59932 181.7 1.79932C181.7 2.06598 181.634 2.26608 181.5 2.39941C181.367 2.53275 181.167 2.59961 180.9 2.59961C180.634 2.59961 180.434 2.53275 180.3 2.39941C180.167 2.26608 180.1 2.06598 180.1 1.79932ZM183.4 7.89941V7.79932C183.4 7.06598 183.567 6.36637 183.9 5.69971C184.167 5.09971 184.6 4.63265 185.2 4.29932C185.734 3.96598 186.334 3.79932 187 3.79932C188.067 3.79932 188.933 4.16608 189.6 4.89941C190.267 5.63275 190.6 6.63275 190.6 7.89941V7.99951C190.6 8.73285 190.467 9.43294 190.2 10.0996C189.934 10.6996 189.5 11.1662 188.9 11.4995C188.367 11.8328 187.734 11.9995 187 11.9995C185.934 11.9995 185.067 11.6327 184.4 10.8994C183.734 10.1661 183.4 9.16608 183.4 7.89941ZM184.8 7.99951C184.8 8.86618 185 9.56628 185.4 10.0996C185.8 10.6329 186.334 10.8994 187 10.8994C187.734 10.8994 188.3 10.6329 188.7 10.0996C189.1 9.56628 189.3 8.79932 189.3 7.79932C189.3 6.93265 189.1 6.23304 188.7 5.69971C188.234 5.16637 187.667 4.89941 187 4.89941C186.334 4.89941 185.8 5.16637 185.4 5.69971C185 6.23304 184.8 6.99951 184.8 7.99951ZM192.8 3.89941L194.8 9.89941L196.7 3.89941H198.1L194.9 13.0996C194.434 14.4329 193.667 15.0996 192.6 15.0996L192.3 14.9995L191.8 14.8994V13.7993L192.2 13.8994C192.667 13.8994 193.034 13.7996 193.3 13.5996C193.5 13.3996 193.7 13.0663 193.9 12.5996L194.2 11.7993L191.4 3.89941H192.8ZM198.8 7.89941V7.79932C198.8 6.59932 199.1 5.63275 199.7 4.89941C200.3 4.16608 201.067 3.79932 202 3.79932C202.867 3.79932 203.6 4.09971 204.2 4.69971V0.599609H205.5V11.8994H204.3L204.2 10.9995C203.667 11.6662 202.9 11.9995 201.9 11.9995C201.034 11.9995 200.3 11.6327 199.7 10.8994C199.1 10.0994 198.8 9.09941 198.8 7.89941ZM200.2 7.99951C200.2 8.86618 200.367 9.56628 200.7 10.0996C201.1 10.5663 201.633 10.7993 202.3 10.7993C203.167 10.7993 203.8 10.433 204.2 9.69971V6.09961C203.734 5.29961 203.1 4.89941 202.3 4.89941C201.633 4.89941 201.1 5.16637 200.7 5.69971C200.367 6.23304 200.2 6.99951 200.2 7.99951ZM213.9 11.8994H212.5C212.434 11.6994 212.367 11.3995 212.3 10.9995C211.7 11.6662 210.967 11.9995 210.1 11.9995C209.3 11.9995 208.633 11.766 208.1 11.2993C207.633 10.8993 207.4 10.3664 207.4 9.69971C207.4 8.83304 207.7 8.16637 208.3 7.69971C208.967 7.23304 209.867 6.99951 211 6.99951H212.3V6.39941C212.3 5.93275 212.167 5.56598 211.9 5.29932C211.567 5.03265 211.133 4.89941 210.6 4.89941C210.133 4.89941 209.734 4.99971 209.4 5.19971C209.067 5.46637 208.9 5.76628 208.9 6.09961H207.5C207.5 5.69961 207.667 5.33285 208 4.99951C208.267 4.59951 208.633 4.29961 209.1 4.09961C209.567 3.89961 210.1 3.79932 210.7 3.79932C211.634 3.79932 212.334 4.03285 212.8 4.49951C213.334 4.96618 213.6 5.59941 213.6 6.39941V9.99951C213.6 10.7328 213.7 11.2997 213.9 11.6997V11.8994ZM210.3 10.8994C210.7 10.8994 211.1 10.7996 211.5 10.5996C211.834 10.3329 212.1 10.033 212.3 9.69971V8.09961H211.2C209.534 8.09961 208.7 8.56618 208.7 9.49951C208.7 9.96618 208.867 10.2995 209.2 10.4995C209.467 10.7662 209.834 10.8994 210.3 10.8994ZM221 3.99951V11.8994H219.6V3.99951H221ZM219.5 1.89941C219.5 1.69941 219.567 1.53275 219.7 1.39941C219.834 1.19941 220.034 1.09961 220.3 1.09961C220.567 1.09961 220.767 1.19941 220.9 1.39941C221.034 1.53275 221.1 1.69941 221.1 1.89941C221.1 2.09941 221.034 2.29951 220.9 2.49951C220.767 2.63285 220.567 2.69971 220.3 2.69971C220.034 2.69971 219.834 2.63285 219.7 2.49951C219.567 2.29951 219.5 2.09941 219.5 1.89941ZM227.8 9.79932C227.8 9.46598 227.667 9.19951 227.4 8.99951C227.134 8.79951 226.634 8.63284 225.9 8.49951C225.234 8.29951 224.7 8.09941 224.3 7.89941C223.9 7.69941 223.6 7.46637 223.4 7.19971C223.2 6.93304 223.1 6.59971 223.1 6.19971C223.1 5.53304 223.367 4.96618 223.9 4.49951C224.5 4.09951 225.2 3.89941 226 3.89941C226.934 3.89941 227.667 4.13294 228.2 4.59961C228.8 5.06628 229.1 5.63265 229.1 6.29932H227.7C227.7 5.96598 227.534 5.66608 227.2 5.39941C226.934 5.13275 226.534 4.99951 226 4.99951C225.534 4.99951 225.167 5.09932 224.9 5.29932C224.634 5.49932 224.5 5.76628 224.5 6.09961C224.5 6.43294 224.634 6.69941 224.9 6.89941C225.1 7.03275 225.567 7.19941 226.3 7.39941C226.967 7.53275 227.5 7.69941 227.9 7.89941C228.3 8.09941 228.6 8.36637 228.8 8.69971C229 8.96637 229.1 9.29971 229.1 9.69971C229.1 10.433 228.834 10.9994 228.3 11.3994C227.7 11.8661 226.967 12.0996 226.1 12.0996C225.433 12.0996 224.867 11.9664 224.4 11.6997C223.934 11.4997 223.567 11.1993 223.3 10.7993C222.967 10.3993 222.8 9.96618 222.8 9.49951H224.2C224.2 9.96618 224.367 10.3329 224.7 10.5996C225.1 10.8663 225.567 10.9995 226.1 10.9995C226.633 10.9995 227.034 10.8997 227.3 10.6997C227.633 10.4997 227.8 10.1993 227.8 9.79932ZM231.4 2.09961H232.7V3.99951H234.2V5.09961H232.7V9.99951C232.7 10.2662 232.767 10.4997 232.9 10.6997C233.034 10.833 233.267 10.8994 233.6 10.8994C233.8 10.8994 234.034 10.866 234.3 10.7993V11.8994C233.9 12.0327 233.534 12.0996 233.2 12.0996C232.6 12.0996 232.167 11.8995 231.9 11.4995C231.567 11.1662 231.4 10.6662 231.4 9.99951V5.09961H229.9V3.99951H231.4V2.09961ZM242.1 11.9995H240.7C240.634 11.7995 240.567 11.4996 240.5 11.0996C239.9 11.7663 239.167 12.0996 238.3 12.0996C237.5 12.0996 236.834 11.8661 236.3 11.3994C235.834 10.9994 235.6 10.466 235.6 9.79932C235.6 8.93265 235.9 8.26598 236.5 7.79932C237.167 7.33265 238.067 7.09961 239.2 7.09961H240.5V6.49951C240.5 6.03285 240.367 5.66608 240.1 5.39941C239.767 5.13275 239.334 4.99951 238.8 4.99951C238.334 4.99951 237.933 5.09932 237.6 5.29932C237.267 5.56598 237.1 5.86637 237.1 6.19971H235.7C235.7 5.79971 235.867 5.43294 236.2 5.09961C236.467 4.69961 236.834 4.39971 237.3 4.19971C237.767 3.99971 238.3 3.89941 238.9 3.89941C239.834 3.89941 240.534 4.13294 241 4.59961C241.534 5.06628 241.8 5.69951 241.8 6.49951V10.0996C241.8 10.8329 241.9 11.3993 242.1 11.7993V11.9995ZM238.4 10.9995C238.867 10.9995 239.3 10.8997 239.7 10.6997C240.034 10.433 240.3 10.1326 240.5 9.79932V8.19971H239.4C237.734 8.19971 236.9 8.66628 236.9 9.59961C236.9 10.0663 237.067 10.3996 237.4 10.5996C237.667 10.8663 238 10.9995 238.4 10.9995ZM243.6 7.99951C243.6 6.79951 243.9 5.83294 244.5 5.09961C245.1 4.36628 245.867 3.99951 246.8 3.99951C247.734 3.99951 248.467 4.33284 249 4.99951L249.1 4.09961H250.3V11.7993C250.3 12.866 250 13.6993 249.4 14.2993C248.8 14.8993 248 15.1997 247 15.1997C246.4 15.1997 245.834 15.066 245.3 14.7993C244.767 14.5326 244.334 14.1993 244 13.7993L244.7 12.9995C245.3 13.7328 246.034 14.0996 246.9 14.0996C247.567 14.0996 248.067 13.8995 248.4 13.4995C248.8 13.0995 249 12.5661 249 11.8994V11.1997C248.467 11.8664 247.734 12.1997 246.8 12.1997C245.867 12.1997 245.1 11.8329 244.5 11.0996C243.9 10.2996 243.6 9.26618 243.6 7.99951ZM245 8.19971C245 9.06637 245.2 9.76598 245.6 10.2993C245.933 10.766 246.433 10.9995 247.1 10.9995C247.967 10.9995 248.6 10.6327 249 9.89941V6.29932C248.6 5.49932 247.967 5.09961 247.1 5.09961C246.433 5.09961 245.933 5.36608 245.6 5.89941C245.2 6.43275 245 7.19971 245 8.19971ZM258.7 11.9995H257.3C257.233 11.8662 257.167 11.5997 257.1 11.1997C256.434 11.8664 255.667 12.1997 254.8 12.1997C254.067 12.1997 253.434 11.9662 252.9 11.4995C252.434 11.0995 252.2 10.5326 252.2 9.79932C252.2 8.99932 252.5 8.36608 253.1 7.89941C253.7 7.43275 254.567 7.19971 255.7 7.19971H257.1V6.59961C257.1 6.13294 256.934 5.76618 256.6 5.49951C256.333 5.23284 255.934 5.09961 255.4 5.09961C254.934 5.09961 254.534 5.19941 254.2 5.39941C253.867 5.66608 253.7 5.96598 253.7 6.29932H252.3C252.3 5.89932 252.434 5.53304 252.7 5.19971C253.034 4.79971 253.434 4.49932 253.9 4.29932C254.367 4.09932 254.9 3.99951 255.5 3.99951C256.367 3.99951 257.067 4.23304 257.6 4.69971C258.133 5.09971 258.4 5.69951 258.4 6.49951V10.1997C258.4 10.933 258.5 11.4994 258.7 11.8994V11.9995ZM255 10.9995C255.467 10.9995 255.867 10.8997 256.2 10.6997C256.6 10.433 256.9 10.1326 257.1 9.79932V8.19971H256C254.334 8.19971 253.5 8.66628 253.5 9.59961C253.5 10.0663 253.634 10.3996 253.9 10.5996C254.234 10.8663 254.6 10.9995 255 10.9995ZM260.5 4.09961H261.8L261.9 5.09961C262.5 4.29961 263.267 3.89941 264.2 3.89941C265.934 3.89941 266.8 4.86598 266.8 6.79932V11.9995H265.4V6.79932C265.4 6.19932 265.267 5.76618 265 5.49951C264.734 5.23284 264.333 5.09961 263.8 5.09961C263.4 5.09961 263.034 5.19941 262.7 5.39941C262.367 5.66608 262.1 5.99941 261.9 6.39941V11.9995H260.5V4.09961ZM273.1 4.09961L275.1 10.1997L277.1 4.09961H278.5L275.6 11.9995H274.6L271.7 4.09961H273.1ZM286 11.9995H284.6C284.533 11.8662 284.467 11.5997 284.4 11.1997C283.8 11.8664 283.033 12.1997 282.1 12.1997C281.367 12.1997 280.734 11.9662 280.2 11.4995C279.734 11.0995 279.5 10.5326 279.5 9.79932C279.5 8.99932 279.8 8.36608 280.4 7.89941C281.067 7.43275 281.967 7.19971 283.1 7.19971H284.4V6.59961C284.4 6.13294 284.267 5.76618 284 5.49951C283.667 5.23284 283.234 5.09961 282.7 5.09961C282.234 5.09961 281.834 5.19941 281.5 5.39941C281.167 5.66608 281 5.96598 281 6.29932H279.6C279.6 5.89932 279.767 5.53304 280.1 5.19971C280.367 4.79971 280.734 4.49932 281.2 4.29932C281.667 4.09932 282.2 3.99951 282.8 3.99951C283.733 3.99951 284.434 4.23304 284.9 4.69971C285.434 5.09971 285.7 5.69951 285.7 6.49951V10.1997C285.7 10.933 285.8 11.4994 286 11.8994V11.9995ZM282.3 10.9995C282.767 10.9995 283.2 10.8997 283.6 10.6997C283.934 10.433 284.2 10.1326 284.4 9.79932V8.19971H283.3C281.634 8.19971 280.8 8.66628 280.8 9.59961C280.8 10.0663 280.967 10.3996 281.3 10.5996C281.567 10.8663 281.9 10.9995 282.3 10.9995ZM287.5 8.09961V7.99951C287.5 6.73285 287.8 5.73285 288.4 4.99951C288.934 4.33284 289.7 3.99951 290.7 3.99951C291.634 3.99951 292.367 4.29941 292.9 4.89941L293 4.09961H294.2V15.0996H292.9V11.2993C292.3 11.8993 291.567 12.1997 290.7 12.1997C289.7 12.1997 288.934 11.8329 288.4 11.0996C287.8 10.2996 287.5 9.29961 287.5 8.09961ZM288.9 8.19971C288.9 9.06637 289.1 9.76598 289.5 10.2993C289.834 10.8327 290.334 11.0996 291 11.0996C291.8 11.0996 292.434 10.7328 292.9 9.99951V6.09961C292.434 5.43294 291.8 5.09961 291 5.09961C290.334 5.09961 289.834 5.36608 289.5 5.89941C289.1 6.36608 288.9 7.13304 288.9 8.19971ZM296.9 2.19971H298.2V4.09961H299.7V5.09961H298.2V10.0996C298.2 10.3663 298.267 10.5993 298.4 10.7993C298.534 10.9326 298.767 10.9995 299.1 10.9995C299.233 10.9995 299.434 10.9661 299.7 10.8994V11.9995C299.367 12.1328 299.034 12.1997 298.7 12.1997C298.1 12.1997 297.634 11.9996 297.3 11.5996C297.034 11.2663 296.9 10.7663 296.9 10.0996V5.09961H295.4V4.09961H296.9V2.19971ZM301 8.09961V7.99951C301 6.79951 301.267 5.83294 301.8 5.09961C302.4 4.36628 303.167 3.99951 304.1 3.99951C305.033 3.99951 305.767 4.29941 306.3 4.89941V0.799316H307.6V11.9995H306.4L306.3 11.1997C305.767 11.8664 305.033 12.1997 304.1 12.1997C303.167 12.1997 302.4 11.8329 301.8 11.0996C301.267 10.2996 301 9.29961 301 8.09961ZM302.3 8.19971C302.3 9.06637 302.5 9.76598 302.9 10.2993C303.234 10.766 303.734 10.9995 304.4 10.9995C305.267 10.9995 305.9 10.6327 306.3 9.89941V6.19971C305.9 5.46637 305.267 5.09961 304.4 5.09961C303.734 5.09961 303.234 5.36608 302.9 5.89941C302.5 6.43275 302.3 7.19971 302.3 8.19971ZM316.1 11.9995H314.6C314.533 11.8662 314.467 11.5997 314.4 11.1997C313.8 11.8664 313.067 12.1997 312.2 12.1997C311.4 12.1997 310.767 11.9662 310.3 11.4995C309.767 11.0995 309.5 10.5326 309.5 9.79932C309.5 8.99932 309.834 8.36608 310.5 7.89941C311.1 7.43275 311.967 7.19971 313.1 7.19971H314.4V6.59961C314.4 6.13294 314.267 5.76618 314 5.49951C313.734 5.23284 313.3 5.09961 312.7 5.09961C312.234 5.09961 311.834 5.19941 311.5 5.39941C311.167 5.66608 311 5.96598 311 6.29932H309.7C309.7 5.89932 309.833 5.53304 310.1 5.19971C310.367 4.79971 310.734 4.49932 311.2 4.29932C311.734 4.09932 312.267 3.99951 312.8 3.99951C313.733 3.99951 314.467 4.23304 315 4.69971C315.534 5.09971 315.8 5.69951 315.8 6.49951V10.1997C315.8 10.933 315.9 11.4994 316.1 11.8994V11.9995ZM312.4 10.9995C312.8 10.9995 313.2 10.8997 313.6 10.6997C314 10.433 314.267 10.1326 314.4 9.79932V8.19971H313.4C311.734 8.19971 310.9 8.66628 310.9 9.59961C310.9 10.0663 311.034 10.3996 311.3 10.5996C311.567 10.8663 311.934 10.9995 312.4 10.9995ZM323.1 4.09961V11.9995H321.7V4.09961H323.1ZM321.7 1.99951C321.7 1.79951 321.767 1.59941 321.9 1.39941C322.034 1.26608 322.234 1.19971 322.5 1.19971C322.767 1.19971 322.967 1.26608 323.1 1.39941C323.233 1.59941 323.3 1.79951 323.3 1.99951C323.3 2.19951 323.233 2.39961 323.1 2.59961C322.967 2.73294 322.767 2.79932 322.5 2.79932C322.234 2.79932 322.034 2.73294 321.9 2.59961C321.767 2.39961 321.7 2.19951 321.7 1.99951ZM329.9 9.89941C329.9 9.56608 329.767 9.29961 329.5 9.09961C329.234 8.89961 328.767 8.69951 328.1 8.49951C327.367 8.36618 326.8 8.19951 326.4 7.99951C326 7.79951 325.7 7.56598 325.5 7.29932C325.3 7.03265 325.2 6.69932 325.2 6.29932C325.2 5.63265 325.5 5.06628 326.1 4.59961C326.633 4.19961 327.334 3.99951 328.2 3.99951C329.067 3.99951 329.8 4.23304 330.4 4.69971C330.934 5.09971 331.2 5.66608 331.2 6.39941H329.8C329.8 6.06608 329.667 5.76618 329.4 5.49951C329.067 5.23284 328.667 5.09961 328.2 5.09961C327.667 5.09961 327.267 5.19941 327 5.39941C326.734 5.59941 326.6 5.86637 326.6 6.19971C326.6 6.53304 326.734 6.79951 327 6.99951C327.267 7.13284 327.734 7.29951 328.4 7.49951C329.067 7.63284 329.6 7.79951 330 7.99951C330.467 8.19951 330.8 8.46598 331 8.79932C331.2 9.06598 331.3 9.39932 331.3 9.79932C331.3 10.5326 331 11.0995 330.4 11.4995C329.867 11.9662 329.134 12.1997 328.2 12.1997C327.6 12.1997 327.034 12.066 326.5 11.7993C326.034 11.5993 325.667 11.2994 325.4 10.8994C325.134 10.4994 325 10.0663 325 9.59961H326.3C326.367 10.0663 326.567 10.433 326.9 10.6997C327.234 10.9664 327.667 11.0996 328.2 11.0996C328.734 11.0996 329.134 10.9993 329.4 10.7993C329.734 10.5326 329.9 10.2327 329.9 9.89941ZM333.5 2.19971H334.9V4.09961H336.4V5.19971H334.9V10.0996C334.9 10.3663 334.967 10.5993 335.1 10.7993C335.233 10.9326 335.434 10.9995 335.7 10.9995C335.9 10.9995 336.134 10.9661 336.4 10.8994V11.9995C336.067 12.1328 335.734 12.1997 335.4 12.1997C334.734 12.1997 334.267 11.9996 334 11.5996C333.667 11.2663 333.5 10.7663 333.5 10.0996V5.19971H332.1V4.09961H333.5V2.19971ZM344.3 11.9995H342.8C342.733 11.8662 342.667 11.5997 342.6 11.1997C342 11.8664 341.267 12.1997 340.4 12.1997C339.6 12.1997 338.967 11.9662 338.5 11.4995C337.967 11.0995 337.7 10.5661 337.7 9.89941C337.7 9.03275 338 8.36608 338.6 7.89941C339.267 7.43275 340.167 7.19971 341.3 7.19971H342.6V6.59961C342.6 6.13294 342.467 5.76618 342.2 5.49951C341.934 5.23284 341.5 5.09961 340.9 5.09961C340.434 5.09961 340.034 5.19941 339.7 5.39941C339.367 5.66608 339.2 5.96598 339.2 6.29932H337.9C337.9 5.89932 338.034 5.53304 338.3 5.19971C338.567 4.79971 338.934 4.49932 339.4 4.29932C339.934 4.09932 340.467 3.99951 341 3.99951C341.934 3.99951 342.667 4.23304 343.2 4.69971C343.667 5.09971 343.934 5.69951 344 6.49951V10.1997C344 10.933 344.1 11.4994 344.3 11.8994V11.9995ZM340.6 10.9995C341 10.9995 341.4 10.8997 341.8 10.6997C342.2 10.433 342.467 10.1326 342.6 9.79932V8.19971H341.6C339.934 8.19971 339.1 8.66628 339.1 9.59961C339.1 10.0663 339.234 10.3996 339.5 10.5996C339.767 10.8663 340.133 10.9995 340.6 10.9995ZM345.8 7.99951C345.8 6.73285 346.067 5.76628 346.6 5.09961C347.2 4.36628 347.967 3.99951 348.9 3.99951C349.9 3.99951 350.667 4.33284 351.2 4.99951V4.09961H352.5V11.7993C352.5 12.866 352.2 13.6993 351.6 14.2993C350.934 14.8993 350.1 15.1997 349.1 15.1997C348.5 15.1997 347.934 15.066 347.4 14.7993C346.867 14.5326 346.467 14.1993 346.2 13.7993L346.9 12.9995C347.5 13.6662 348.2 13.9995 349 13.9995C349.667 13.9995 350.167 13.8328 350.5 13.4995C350.9 13.0995 351.1 12.5661 351.1 11.8994V11.1997C350.567 11.8664 349.834 12.1997 348.9 12.1997C347.967 12.1997 347.2 11.8329 346.6 11.0996C346.067 10.2996 345.8 9.26618 345.8 7.99951ZM347.1 8.19971C347.1 9.06637 347.3 9.76598 347.7 10.2993C348.034 10.766 348.534 10.9995 349.2 10.9995C350.067 10.9995 350.7 10.6327 351.1 9.89941V6.19971C350.7 5.46637 350.067 5.09961 349.2 5.09961C348.534 5.09961 348.034 5.36608 347.7 5.89941C347.3 6.36608 347.1 7.13304 347.1 8.19971ZM360.8 11.9995H359.4C359.334 11.8662 359.267 11.5997 359.2 11.1997C358.6 11.8664 357.867 12.1997 357 12.1997C356.2 12.1997 355.534 11.9662 355 11.4995C354.534 11.0995 354.3 10.5326 354.3 9.79932C354.3 8.99932 354.6 8.36608 355.2 7.89941C355.867 7.43275 356.767 7.19971 357.9 7.19971H359.2V6.59961C359.2 6.13294 359.067 5.76618 358.8 5.49951C358.467 5.23284 358.034 5.09961 357.5 5.09961C357.034 5.09961 356.634 5.19941 356.3 5.39941C355.967 5.66608 355.8 5.96598 355.8 6.29932H354.4C354.4 5.89932 354.567 5.53304 354.9 5.19971C355.167 4.79971 355.534 4.49932 356 4.29932C356.467 4.09932 357 3.99951 357.6 3.99951C358.533 3.99951 359.234 4.19961 359.7 4.59961C360.234 5.06628 360.5 5.69951 360.5 6.49951V10.1997C360.5 10.933 360.6 11.4994 360.8 11.8994V11.9995ZM357.2 10.9995C357.6 10.9995 358 10.8997 358.4 10.6997C358.734 10.433 359 10.1326 359.2 9.79932V8.19971H358.1C356.434 8.19971 355.6 8.66628 355.6 9.59961C355.6 10.0663 355.767 10.3996 356.1 10.5996C356.367 10.8663 356.734 10.9995 357.2 10.9995ZM362.7 4.09961H364V5.09961C364.6 4.29961 365.4 3.89941 366.4 3.89941C368.067 3.89941 368.9 4.86598 368.9 6.79932V11.9995H367.5V6.79932C367.5 6.19932 367.4 5.76618 367.2 5.49951C366.934 5.23284 366.534 5.09961 366 5.09961C365.534 5.09961 365.134 5.19941 364.8 5.39941C364.467 5.66608 364.2 5.99941 364 6.39941V11.9995H362.7V4.09961ZM374.7 4.09961H375.9L376 4.99951C376.534 4.33284 377.3 3.99951 378.3 3.99951C379.434 3.99951 380.2 4.39971 380.6 5.19971C380.867 4.86637 381.2 4.56598 381.6 4.29932C382 4.09932 382.5 3.99951 383.1 3.99951C384.833 3.99951 385.733 4.89971 385.8 6.69971V11.9995H384.4V6.79932C384.4 6.26598 384.267 5.83285 384 5.49951C383.734 5.23284 383.3 5.09961 382.7 5.09961C382.234 5.09961 381.834 5.26628 381.5 5.59961C381.167 5.86628 380.967 6.26598 380.9 6.79932V11.9995H379.5V6.79932C379.5 5.66598 378.934 5.09961 377.8 5.09961C376.934 5.09961 376.334 5.49932 376 6.29932V11.9995H374.7V4.09961ZM389.3 4.09961V12.0996H387.9V4.09961H389.3ZM387.9 1.99951C387.9 1.79951 387.967 1.63285 388.1 1.49951C388.233 1.36618 388.434 1.29932 388.7 1.29932C388.967 1.29932 389.167 1.36618 389.3 1.49951C389.434 1.63285 389.5 1.79951 389.5 1.99951C389.5 2.26618 389.434 2.46628 389.3 2.59961C389.167 2.73294 388.967 2.79932 388.7 2.79932C388.434 2.79932 388.233 2.73294 388.1 2.59961C387.967 2.46628 387.9 2.26618 387.9 1.99951ZM391.2 8.09961V7.99951C391.2 6.79951 391.467 5.83294 392 5.09961C392.6 4.36628 393.367 3.99951 394.3 3.99951C395.233 3.99951 395.967 4.29941 396.5 4.89941L396.6 4.09961H397.8V15.0996H396.5V11.2993C395.967 11.8993 395.233 12.1997 394.3 12.1997C393.367 12.1997 392.6 11.8329 392 11.0996C391.467 10.3663 391.2 9.36628 391.2 8.09961ZM392.5 8.19971C392.5 9.13304 392.7 9.83265 393.1 10.2993C393.5 10.8327 394 11.0996 394.6 11.0996C395.467 11.0996 396.1 10.7328 396.5 9.99951V6.19971C396.034 5.46637 395.434 5.09961 394.7 5.09961C394.034 5.09961 393.5 5.36608 393.1 5.89941C392.7 6.43275 392.5 7.19971 392.5 8.19971ZM399.7 8.09961V7.99951C399.7 6.79951 400 5.83294 400.6 5.09961C401.133 4.36628 401.867 3.99951 402.8 3.99951C403.733 3.99951 404.467 4.29941 405 4.89941V0.799316H406.4V12.0996H405.1V11.1997C404.567 11.8664 403.8 12.1997 402.8 12.1997C401.867 12.1997 401.133 11.8329 400.6 11.0996C400 10.3663 399.7 9.36628 399.7 8.09961ZM401 8.19971C401 9.06637 401.2 9.76598 401.6 10.2993C402 10.8327 402.5 11.0996 403.1 11.0996C403.967 11.0996 404.6 10.6994 405 9.89941V6.29932C404.6 5.49932 404 5.09961 403.2 5.09961C402.534 5.09961 402 5.36608 401.6 5.89941C401.2 6.43275 401 7.19971 401 8.19971ZM408.1 8.09961V7.99951C408.1 7.26618 408.267 6.56608 408.6 5.89941C408.867 5.29941 409.267 4.83285 409.8 4.49951C410.4 4.16618 411.034 3.99951 411.7 3.99951C412.767 3.99951 413.634 4.36628 414.3 5.09961C414.967 5.83294 415.3 6.83294 415.3 8.09961V8.19971C415.3 8.93304 415.167 9.63265 414.9 10.2993C414.567 10.8993 414.133 11.3664 413.6 11.6997C413.067 12.033 412.434 12.1997 411.7 12.1997C410.634 12.1997 409.767 11.8329 409.1 11.0996C408.434 10.3663 408.1 9.36628 408.1 8.09961ZM409.5 8.19971C409.5 9.06637 409.7 9.76598 410.1 10.2993C410.5 10.8327 411.034 11.0996 411.7 11.0996C412.434 11.0996 413 10.8327 413.4 10.2993C413.8 9.76598 414 8.99951 414 7.99951C414 7.13284 413.8 6.43275 413.4 5.89941C412.934 5.36608 412.367 5.09961 411.7 5.09961C411.034 5.09961 410.5 5.36608 410.1 5.89941C409.7 6.43275 409.5 7.19971 409.5 8.19971ZM420.9 4.09961V5.39941C420.7 5.33275 420.467 5.29932 420.2 5.29932C419.334 5.29932 418.734 5.66608 418.4 6.39941V12.0996H417V4.09961H418.4V5.09961C418.8 4.36628 419.434 3.99951 420.3 3.99951C420.567 3.99951 420.767 4.03294 420.9 4.09961ZM426.4 4.09961L428.4 10.1997L430.4 4.09961H431.8L428.9 12.0996H427.9L425 4.09961H426.4ZM439.3 12.0996H437.9C437.834 11.8996 437.767 11.5997 437.7 11.1997C437.034 11.8664 436.267 12.1997 435.4 12.1997C434.667 12.1997 434.034 11.9996 433.5 11.5996C433.034 11.1329 432.8 10.5661 432.8 9.89941C432.8 9.03275 433.1 8.36608 433.7 7.89941C434.3 7.49941 435.2 7.29932 436.4 7.29932H437.7V6.59961C437.7 6.13294 437.534 5.76618 437.2 5.49951C436.934 5.23284 436.534 5.09961 436 5.09961C435.534 5.09961 435.134 5.19941 434.8 5.39941C434.467 5.66608 434.3 5.96598 434.3 6.29932H432.9C432.9 5.89932 433.034 5.53304 433.3 5.19971C433.634 4.79971 434.034 4.49932 434.5 4.29932C434.967 4.09932 435.5 3.99951 436.1 3.99951C436.967 3.99951 437.667 4.23304 438.2 4.69971C438.734 5.16637 439 5.79961 439 6.59961V10.1997C439 10.933 439.1 11.4994 439.3 11.8994V12.0996ZM435.6 11.0996C436.067 11.0996 436.467 10.9993 436.8 10.7993C437.2 10.5993 437.5 10.2994 437.7 9.89941V8.29932H436.6C434.934 8.29932 434.1 8.79932 434.1 9.79932C434.1 10.1993 434.234 10.5326 434.5 10.7993C434.834 10.9993 435.2 11.0996 435.6 11.0996ZM5.10019 33.9995C5.10019 33.6662 4.96686 33.3997 4.7002 33.1997C4.43353 32.9997 3.96684 32.833 3.30017 32.6997C2.56684 32.4997 2.00019 32.2996 1.60019 32.0996C1.20019 31.8996 0.900195 31.6661 0.700195 31.3994C0.566862 31.1327 0.500183 30.7994 0.500183 30.3994C0.500183 29.7327 0.766838 29.1664 1.30017 28.6997C1.8335 28.2997 2.53351 28.0996 3.40018 28.0996C4.26684 28.0996 5.00019 28.3326 5.60019 28.7993C6.13352 29.266 6.40018 29.8663 6.40018 30.5996H5.00018C5.00018 30.1996 4.86686 29.8663 4.60019 29.5996C4.26686 29.3329 3.86684 29.1997 3.40018 29.1997C2.86684 29.1997 2.46686 29.2995 2.2002 29.4995C1.93353 29.6995 1.80017 29.9994 1.80017 30.3994C1.80017 30.6661 1.93353 30.8996 2.2002 31.0996C2.46686 31.2329 2.93352 31.3996 3.60019 31.5996C4.26686 31.7329 4.8002 31.8996 5.2002 32.0996C5.66686 32.2996 6.0002 32.5661 6.2002 32.8994C6.4002 33.1661 6.50018 33.4994 6.50018 33.8994C6.50018 34.6327 6.20019 35.233 5.60019 35.6997C5.06686 36.0997 4.33351 36.2993 3.40018 36.2993C2.80018 36.2993 2.23353 36.1995 1.7002 35.9995C1.23353 35.7328 0.866856 35.3995 0.600189 34.9995C0.333523 34.5995 0.200195 34.1664 0.200195 33.6997H1.50018C1.56685 34.1664 1.76686 34.5326 2.10019 34.7993C2.43352 35.066 2.86684 35.1997 3.40018 35.1997C3.93351 35.1997 4.36686 35.0994 4.7002 34.8994C4.96686 34.6994 5.10019 34.3995 5.10019 33.9995ZM9.7002 28.1997V36.0996H8.40018V28.1997H9.7002ZM8.2002 26.0996C8.2002 25.8996 8.26684 25.7329 8.40018 25.5996C8.53351 25.3996 8.73352 25.2993 9.00018 25.2993C9.26685 25.2993 9.46686 25.3996 9.60019 25.5996C9.73352 25.7329 9.80017 25.8996 9.80017 26.0996C9.80017 26.2996 9.73352 26.4997 9.60019 26.6997C9.46686 26.833 9.26685 26.8994 9.00018 26.8994C8.73352 26.8994 8.53351 26.833 8.40018 26.6997C8.26684 26.4997 8.2002 26.2996 8.2002 26.0996ZM13.9002 36.0996H12.5002V29.2993H11.2002V28.1997H12.5002V27.3994C12.5002 26.5327 12.7335 25.8661 13.2002 25.3994C13.6669 24.9327 14.3002 24.6997 15.1002 24.6997C15.4335 24.6997 15.7335 24.7661 16.0002 24.8994V25.9995C15.7335 25.9328 15.4669 25.8994 15.2002 25.8994C14.8002 25.8994 14.4669 26.0326 14.2002 26.2993C14.0002 26.566 13.9002 26.9327 13.9002 27.3994V28.1997H15.5002V29.2993H13.9002V36.0996ZM23.4002 36.0996H21.9002C21.8335 35.8996 21.7669 35.5997 21.7002 35.1997C21.1002 35.8664 20.3668 36.1997 19.5002 36.1997C18.7002 36.1997 18.0669 35.9996 17.6002 35.5996C17.0669 35.1329 16.8002 34.5661 16.8002 33.8994C16.8002 33.0327 17.1002 32.3995 17.7002 31.9995C18.3669 31.5328 19.2668 31.2993 20.4002 31.2993H21.7002V30.5996C21.7002 30.1329 21.5668 29.7662 21.3002 29.4995C21.0335 29.2328 20.6002 29.0996 20.0002 29.0996C19.5335 29.0996 19.1335 29.2328 18.8002 29.4995C18.4668 29.6995 18.3002 29.966 18.3002 30.2993H17.0002C17.0002 29.8993 17.1335 29.533 17.4002 29.1997C17.6668 28.7997 18.0335 28.4993 18.5002 28.2993C19.0335 28.0993 19.5669 27.9995 20.1002 27.9995C21.0335 27.9995 21.7668 28.233 22.3002 28.6997C22.7668 29.1664 23.0335 29.7996 23.1002 30.5996V34.1997C23.1002 34.933 23.2002 35.5328 23.4002 35.9995V36.0996ZM19.7002 34.9995C20.1002 34.9995 20.5002 34.8997 20.9002 34.6997C21.3002 34.4997 21.5669 34.1993 21.7002 33.7993V32.1997H20.7002C19.0335 32.1997 18.2002 32.6997 18.2002 33.6997C18.2002 34.0997 18.3335 34.433 18.6002 34.6997C18.8669 34.8997 19.2335 34.9995 19.7002 34.9995ZM25.7002 26.1997H27.0002V28.0996H28.5002V29.1997H27.0002V34.0996C27.0002 34.4329 27.0669 34.666 27.2002 34.7993C27.3335 34.9327 27.5668 34.9995 27.9002 34.9995C28.0335 34.9995 28.2669 34.9995 28.6002 34.9995V36.0996C28.2002 36.1663 27.8335 36.1997 27.5002 36.1997C26.9002 36.1997 26.4335 35.9996 26.1002 35.5996C25.8335 35.2663 25.7002 34.7663 25.7002 34.0996V29.1997H24.2002V28.0996H25.7002V26.1997ZM29.8002 32.0996V31.9995C29.8002 30.7995 30.0669 29.8329 30.6002 29.0996C31.2002 28.3663 31.9668 27.9995 32.9002 27.9995C33.8335 27.9995 34.5669 28.3328 35.1002 28.9995V24.7993H36.5002V36.0996H35.2002L35.1002 35.1997C34.5669 35.8664 33.8335 36.1997 32.9002 36.1997C31.9668 36.1997 31.2002 35.8329 30.6002 35.0996C30.0669 34.3663 29.8002 33.3663 29.8002 32.0996ZM31.1002 32.1997C31.1002 33.0664 31.3002 33.766 31.7002 34.2993C32.0335 34.8326 32.5335 35.0996 33.2002 35.0996C34.0669 35.0996 34.7002 34.6994 35.1002 33.8994V30.2993C34.7002 29.4993 34.0669 29.0996 33.2002 29.0996C32.5335 29.0996 32.0335 29.3661 31.7002 29.8994C31.3002 30.4327 31.1002 31.1997 31.1002 32.1997ZM44.9002 36.0996H43.5002C43.3668 35.8996 43.3002 35.5997 43.3002 35.1997C42.6335 35.8664 41.8668 36.1997 41.0002 36.1997C40.2002 36.1997 39.5669 35.9996 39.1002 35.5996C38.5669 35.1329 38.3002 34.5661 38.3002 33.8994C38.3002 33.0327 38.6335 32.3995 39.3002 31.9995C39.9002 31.5328 40.7668 31.2993 41.9002 31.2993H43.2002V30.5996C43.2002 30.1329 43.0668 29.7662 42.8002 29.4995C42.5335 29.2328 42.1335 29.0996 41.6002 29.0996C41.0669 29.0996 40.6335 29.2328 40.3002 29.4995C40.0335 29.6995 39.9002 29.966 39.9002 30.2993H38.5002C38.5002 29.8993 38.6335 29.533 38.9002 29.1997C39.1668 28.7997 39.5669 28.4993 40.1002 28.2993C40.5669 28.0993 41.0669 27.9995 41.6002 27.9995C42.5335 27.9995 43.2668 28.233 43.8002 28.6997C44.3335 29.1664 44.6002 29.7996 44.6002 30.5996V34.1997C44.6002 34.933 44.7002 35.5328 44.9002 35.9995V36.0996ZM41.2002 34.9995C41.6002 34.9995 42.0002 34.8997 42.4002 34.6997C42.8002 34.4997 43.0669 34.1993 43.2002 33.7993V32.1997H42.2002C40.5335 32.1997 39.7002 32.6997 39.7002 33.6997C39.7002 34.0997 39.8335 34.433 40.1002 34.6997C40.3669 34.8997 40.7335 34.9995 41.2002 34.9995ZM51.9002 28.0996V36.0996H50.5002V28.0996H51.9002ZM50.5002 25.9995C50.5002 25.7995 50.5669 25.6328 50.7002 25.4995C50.8335 25.2995 51.0335 25.1997 51.3002 25.1997C51.5668 25.1997 51.7668 25.2995 51.9002 25.4995C52.0335 25.6328 52.1002 25.7995 52.1002 25.9995C52.1002 26.2662 52.0335 26.4663 51.9002 26.5996C51.7668 26.7329 51.5668 26.7993 51.3002 26.7993C51.0335 26.7993 50.8335 26.7329 50.7002 26.5996C50.5669 26.4663 50.5002 26.2662 50.5002 25.9995ZM55.6002 24.7993V36.0996H54.2002V24.7993H55.6002ZM57.8002 28.0996H59.1002V28.9995C59.7002 28.3328 60.5002 27.9995 61.5002 27.9995C62.5668 27.9995 63.3002 28.4326 63.7002 29.2993C63.9669 28.8993 64.3335 28.566 64.8002 28.2993C65.2002 28.0993 65.7002 27.9995 66.3002 27.9995C68.0335 27.9995 68.9002 28.8997 68.9002 30.6997V36.0996H67.5002V30.7993C67.5002 30.266 67.4002 29.8663 67.2002 29.5996C66.9335 29.2663 66.5002 29.0996 65.9002 29.0996C65.3669 29.0996 64.9335 29.2663 64.6002 29.5996C64.2668 29.8663 64.0668 30.266 64.0002 30.7993V36.0996H62.7002V30.8994C62.7002 29.6994 62.1335 29.0996 61.0002 29.0996C60.0668 29.0996 59.4335 29.4993 59.1002 30.2993V36.0996H57.8002V28.0996ZM74.3002 31.9995V31.8994C74.3002 31.1661 74.4668 30.466 74.8002 29.7993C75.0668 29.1993 75.4669 28.7327 76.0002 28.3994C76.6002 28.0661 77.2335 27.8994 77.9002 27.8994C78.9669 27.8994 79.8335 28.2662 80.5002 28.9995C81.1668 29.7328 81.5002 30.7328 81.5002 31.9995V32.0996C81.5002 32.8996 81.3668 33.5997 81.1002 34.1997C80.7668 34.7997 80.3335 35.2663 79.8002 35.5996C79.2668 35.9329 78.6335 36.0996 77.9002 36.0996C76.8335 36.0996 75.9668 35.7328 75.3002 34.9995C74.6335 34.2662 74.3002 33.2662 74.3002 31.9995ZM75.7002 32.0996C75.7002 32.9663 75.9002 33.6664 76.3002 34.1997C76.7002 34.733 77.2335 34.9995 77.9002 34.9995C78.5669 34.9995 79.1335 34.733 79.6002 34.1997C80.0002 33.6664 80.2002 32.8994 80.2002 31.8994C80.2002 31.0327 79.9669 30.3326 79.5002 29.7993C79.1002 29.266 78.5669 28.9995 77.9002 28.9995C77.2335 28.9995 76.7002 29.266 76.3002 29.7993C75.9002 30.3326 75.7002 31.0996 75.7002 32.0996ZM84.7002 24.6997V35.9995H83.3002V24.6997H84.7002ZM88.4002 28.0996V35.9995H87.0002V28.0996H88.4002ZM87.0002 25.9995C87.0002 25.7328 87.0669 25.5327 87.2002 25.3994C87.3335 25.2661 87.5335 25.1997 87.8002 25.1997C88.0002 25.1997 88.2002 25.2661 88.4002 25.3994C88.5335 25.5327 88.6002 25.7328 88.6002 25.9995C88.6002 26.1995 88.5335 26.3662 88.4002 26.4995C88.2002 26.6328 88.0002 26.6997 87.8002 26.6997C87.5335 26.6997 87.3335 26.6328 87.2002 26.4995C87.0669 26.3662 87.0002 26.1995 87.0002 25.9995ZM95.2002 33.8994C95.2002 33.4994 95.0668 33.1995 94.8002 32.9995C94.5335 32.7995 94.0335 32.6328 93.3002 32.4995C92.6335 32.3662 92.1002 32.1995 91.7002 31.9995C91.3002 31.7995 91.0002 31.533 90.8002 31.1997C90.6002 30.933 90.5002 30.5997 90.5002 30.1997C90.5002 29.5997 90.7668 29.0663 91.3002 28.5996C91.9002 28.1329 92.6335 27.8994 93.5002 27.8994C94.3669 27.8994 95.0668 28.1329 95.6002 28.5996C96.2002 29.0663 96.5002 29.6661 96.5002 30.3994H95.1002C95.1002 29.9994 94.9335 29.6661 94.6002 29.3994C94.3335 29.1327 93.9669 28.9995 93.5002 28.9995C92.9669 28.9995 92.5668 29.0993 92.3002 29.2993C92.0335 29.566 91.9002 29.8664 91.9002 30.1997C91.9002 30.533 92.0335 30.7661 92.3002 30.8994C92.5668 31.0994 93.0335 31.2661 93.7002 31.3994C94.3669 31.5327 94.9002 31.6994 95.3002 31.8994C95.7002 32.1661 96.0002 32.433 96.2002 32.6997C96.4669 32.9664 96.6002 33.3326 96.6002 33.7993C96.6002 34.466 96.3002 35.0328 95.7002 35.4995C95.1669 35.8995 94.4335 36.0996 93.5002 36.0996C92.8335 36.0996 92.2668 35.9993 91.8002 35.7993C91.3335 35.5993 90.9669 35.266 90.7002 34.7993C90.4335 34.3993 90.3002 33.9662 90.3002 33.4995H91.6002C91.6002 33.9662 91.8002 34.3329 92.2002 34.5996C92.5335 34.8663 92.9669 34.9995 93.5002 34.9995C94.0335 34.9995 94.4335 34.8997 94.7002 34.6997C95.0335 34.4997 95.2002 34.2327 95.2002 33.8994ZM99.7002 24.6997V28.9995C100.3 28.2662 101.067 27.8994 102 27.8994C103.667 27.8994 104.533 28.833 104.6 30.6997V35.9995H103.2V30.6997C103.2 30.1664 103.067 29.7662 102.8 29.4995C102.534 29.2328 102.133 29.0996 101.6 29.0996C101.133 29.0996 100.767 29.1994 100.5 29.3994C100.167 29.6661 99.9002 29.966 99.7002 30.2993V35.9995H98.3002V24.6997H99.7002ZM111.2 33.8994C111.2 33.4994 111.067 33.1995 110.8 32.9995C110.534 32.7995 110.067 32.6328 109.4 32.4995C108.734 32.3662 108.167 32.1995 107.7 31.9995C107.3 31.7995 107.034 31.533 106.9 31.1997C106.7 30.933 106.6 30.5997 106.6 30.1997C106.6 29.5997 106.867 29.0663 107.4 28.5996C107.934 28.1329 108.634 27.8994 109.5 27.8994C110.367 27.8994 111.1 28.1329 111.7 28.5996C112.234 29.0663 112.5 29.6661 112.5 30.3994H111.2C111.2 29.9994 111.034 29.6661 110.7 29.3994C110.367 29.1327 109.967 28.9995 109.5 28.9995C109.034 28.9995 108.634 29.0993 108.3 29.2993C108.034 29.566 107.9 29.8664 107.9 30.1997C107.9 30.533 108.034 30.7661 108.3 30.8994C108.567 31.0994 109.034 31.2661 109.7 31.3994C110.367 31.5327 110.934 31.6994 111.4 31.8994C111.8 32.1661 112.1 32.433 112.3 32.6997C112.5 32.9664 112.6 33.3326 112.6 33.7993C112.6 34.466 112.3 35.0328 111.7 35.4995C111.167 35.8995 110.434 36.0996 109.5 36.0996C108.9 36.0996 108.367 35.9993 107.9 35.7993C107.367 35.5993 106.967 35.266 106.7 34.7993C106.434 34.3993 106.3 33.9662 106.3 33.4995H107.7C107.7 33.9662 107.867 34.3329 108.2 34.5996C108.534 34.8663 108.967 34.9995 109.5 34.9995C110.034 34.9995 110.467 34.8997 110.8 34.6997C111.067 34.4997 111.2 34.2327 111.2 33.8994ZM115.8 28.0996V35.9995H114.5V28.0996H115.8ZM114.3 25.9995C114.3 25.7328 114.367 25.5327 114.5 25.3994C114.634 25.2661 114.833 25.1997 115.1 25.1997C115.367 25.1997 115.567 25.2661 115.7 25.3994C115.834 25.5327 115.9 25.7328 115.9 25.9995C115.9 26.1995 115.834 26.3662 115.7 26.4995C115.567 26.6328 115.367 26.6997 115.1 26.6997C114.833 26.6997 114.634 26.6328 114.5 26.4995C114.367 26.3662 114.3 26.1995 114.3 25.9995ZM117.9 28.0996H119.2L119.3 28.9995C119.9 28.2662 120.667 27.8994 121.6 27.8994C123.333 27.8994 124.2 28.833 124.2 30.6997V35.9995H122.8V30.6997C122.8 30.1664 122.667 29.7662 122.4 29.4995C122.134 29.2328 121.734 29.0996 121.2 29.0996C120.8 29.0996 120.433 29.1994 120.1 29.3994C119.767 29.6661 119.5 29.966 119.3 30.2993V35.9995H117.9V28.0996ZM126.3 35.2993C126.3 35.0326 126.367 34.833 126.5 34.6997C126.634 34.5664 126.833 34.4995 127.1 34.4995C127.367 34.4995 127.567 34.5664 127.7 34.6997C127.834 34.833 127.9 35.0326 127.9 35.2993C127.9 35.4993 127.834 35.6994 127.7 35.8994C127.567 36.0327 127.367 36.0996 127.1 36.0996C126.833 36.0996 126.634 36.0327 126.5 35.8994C126.367 35.6994 126.3 35.4993 126.3 35.2993ZM134.1 25.2993H135.9L139.4 33.9995L142.9 25.2993H144.7V35.9995H143.3V31.7993L143.4 27.3994L139.9 35.9995H138.9L135.4 27.3994L135.5 31.7993V35.9995H134.1V25.2993ZM153.3 35.9995H151.9C151.834 35.7995 151.767 35.4996 151.7 35.0996C151.034 35.7663 150.267 36.0996 149.4 36.0996C148.667 36.0996 148.034 35.8995 147.5 35.4995C147.034 35.0328 146.8 34.466 146.8 33.7993C146.8 32.9327 147.1 32.2994 147.7 31.8994C148.3 31.4327 149.167 31.1997 150.3 31.1997H151.7V30.4995C151.7 30.0328 151.534 29.6661 151.2 29.3994C150.934 29.1327 150.534 28.9995 150 28.9995C149.534 28.9995 149.133 29.1327 148.8 29.3994C148.467 29.5994 148.3 29.8664 148.3 30.1997H146.9C146.9 29.7997 147.034 29.4329 147.3 29.0996C147.633 28.6996 148.034 28.3997 148.5 28.1997C148.967 27.9997 149.5 27.8994 150.1 27.8994C150.967 27.8994 151.667 28.1329 152.2 28.5996C152.734 29.0663 153 29.6995 153 30.4995V34.0996C153 34.8329 153.1 35.3993 153.3 35.7993V35.9995ZM149.6 34.9995C150.067 34.9995 150.467 34.8997 150.8 34.6997C151.2 34.4997 151.5 34.1993 151.7 33.7993V32.1997H150.6C148.933 32.1997 148.1 32.6997 148.1 33.6997C148.1 34.0997 148.234 34.433 148.5 34.6997C148.834 34.8997 149.2 34.9995 149.6 34.9995ZM160.1 35.9995L157.4 32.3994L156.5 33.2993V35.9995H155.1V24.7993H156.5V31.5996L157.2 30.6997L159.7 28.0996H161.3L158.3 31.3994L161.7 35.9995H160.1ZM167.3 33.8994C167.3 33.5661 167.167 33.2996 166.9 33.0996C166.634 32.8996 166.167 32.7329 165.5 32.5996C164.834 32.4663 164.3 32.2662 163.9 31.9995C163.5 31.7995 163.2 31.566 163 31.2993C162.8 31.0326 162.7 30.6993 162.7 30.2993C162.7 29.6327 162.967 29.0997 163.5 28.6997C164.034 28.233 164.733 27.9995 165.6 27.9995C166.467 27.9995 167.2 28.233 167.8 28.6997C168.334 29.1664 168.6 29.7662 168.6 30.4995H167.3C167.3 30.0995 167.133 29.7662 166.8 29.4995C166.467 29.2328 166.067 29.0996 165.6 29.0996C165.133 29.0996 164.734 29.1994 164.4 29.3994C164.134 29.5994 164 29.8993 164 30.2993C164 30.566 164.134 30.7995 164.4 30.9995C164.667 31.1328 165.133 31.2995 165.8 31.4995C166.467 31.6328 167.034 31.7995 167.5 31.9995C167.9 32.1995 168.2 32.466 168.4 32.7993C168.6 33.066 168.7 33.4327 168.7 33.8994C168.7 34.5661 168.434 35.1329 167.9 35.5996C167.3 35.9996 166.533 36.1997 165.6 36.1997C165 36.1997 164.467 36.0994 164 35.8994C163.467 35.6327 163.067 35.2994 162.8 34.8994C162.534 34.4994 162.4 34.0663 162.4 33.5996H163.8C163.8 34.0663 163.967 34.433 164.3 34.6997C164.633 34.9664 165.067 35.0996 165.6 35.0996C166.133 35.0996 166.567 34.9993 166.9 34.7993C167.167 34.5993 167.3 34.2994 167.3 33.8994ZM171.9 28.0996V35.9995H170.6V28.0996H171.9ZM170.4 25.9995C170.4 25.7995 170.467 25.6328 170.6 25.4995C170.733 25.2995 170.934 25.1997 171.2 25.1997C171.467 25.1997 171.667 25.2995 171.8 25.4995C171.934 25.6328 172 25.7995 172 25.9995C172 26.2662 171.934 26.4663 171.8 26.5996C171.667 26.7329 171.467 26.7993 171.2 26.7993C170.934 26.7993 170.733 26.7329 170.6 26.5996C170.467 26.4663 170.4 26.2662 170.4 25.9995ZM174 28.0996H175.3L175.4 28.9995C175.934 28.3328 176.7 27.9995 177.7 27.9995C178.834 27.9995 179.6 28.4326 180 29.2993C180.267 28.8993 180.6 28.566 181 28.2993C181.4 28.0993 181.9 27.9995 182.5 27.9995C184.234 27.9995 185.134 28.8997 185.2 30.6997V35.9995H183.8V30.7993C183.8 30.266 183.667 29.8663 183.4 29.5996C183.134 29.2663 182.7 29.0996 182.1 29.0996C181.633 29.0996 181.234 29.2663 180.9 29.5996C180.567 29.8663 180.367 30.266 180.3 30.7993V35.9995H178.9V30.8994C178.9 29.6994 178.334 29.0996 177.2 29.0996C176.334 29.0996 175.734 29.4993 175.4 30.2993V35.9995H174V28.0996ZM192.1 36.0996V35.2993C191.567 35.8993 190.8 36.1997 189.8 36.1997C188.934 36.1997 188.267 35.9662 187.8 35.4995C187.4 34.9662 187.2 34.2327 187.2 33.2993V28.0996H188.5V33.2993C188.5 34.4993 189 35.0996 190 35.0996C191 35.0996 191.7 34.6994 192.1 33.8994V28.0996H193.4V36.0996H192.1ZM195.4 28.0996H196.7L196.8 28.9995C197.334 28.3328 198.1 27.9995 199.1 27.9995C200.233 27.9995 201 28.4326 201.4 29.2993C201.667 28.8993 202 28.5994 202.4 28.3994C202.8 28.1327 203.3 27.9995 203.9 27.9995C205.634 27.9995 206.533 28.9326 206.6 30.7993V36.0996H205.2V30.7993C205.2 30.266 205.067 29.8663 204.8 29.5996C204.534 29.3329 204.1 29.1997 203.5 29.1997C203.034 29.1997 202.633 29.3329 202.3 29.5996C201.967 29.9329 201.767 30.3326 201.7 30.7993V36.0996H200.3V30.8994C200.3 29.7661 199.733 29.1997 198.6 29.1997C197.733 29.1997 197.133 29.566 196.8 30.2993V36.0996H195.4V28.0996ZM212 32.0996V31.9995C212 30.7328 212.267 29.7328 212.8 28.9995C213.4 28.2662 214.167 27.8994 215.1 27.8994C216.033 27.8994 216.8 28.2327 217.4 28.8994V28.0996H218.7V38.9995H217.3V35.2993C216.767 35.8326 216.033 36.0996 215.1 36.0996C214.167 36.0996 213.4 35.7328 212.8 34.9995C212.267 34.2662 212 33.2996 212 32.0996ZM213.3 32.0996C213.3 33.0329 213.5 33.766 213.9 34.2993C214.3 34.766 214.834 34.9995 215.5 34.9995C216.3 34.9995 216.9 34.6662 217.3 33.9995V30.0996C216.9 29.3663 216.3 28.9995 215.5 28.9995C214.834 28.9995 214.3 29.266 213.9 29.7993C213.5 30.3326 213.3 31.0996 213.3 32.0996ZM225.8 35.9995L225.7 35.1997C225.167 35.7997 224.4 36.0996 223.4 36.0996C222.534 36.0996 221.9 35.8661 221.5 35.3994C221.034 34.9327 220.8 34.1997 220.8 33.1997V28.0996H222.2V33.1997C222.2 34.3997 222.667 34.9995 223.6 34.9995C224.667 34.9995 225.367 34.5993 225.7 33.7993V28.0996H227.1V35.9995H225.8ZM230.6 24.6997V35.9995H229.2V24.6997H230.6ZM239.1 35.9995H237.7C237.634 35.8662 237.567 35.5997 237.5 35.1997C236.834 35.7997 236.067 36.0996 235.2 36.0996C234.467 36.0996 233.834 35.8995 233.3 35.4995C232.834 35.0328 232.6 34.466 232.6 33.7993C232.6 32.9993 232.9 32.3661 233.5 31.8994C234.1 31.4327 234.967 31.1997 236.1 31.1997H237.5V30.5996C237.5 30.1329 237.334 29.7327 237 29.3994C236.734 29.1327 236.334 28.9995 235.8 28.9995C235.334 28.9995 234.933 29.1327 234.6 29.3994C234.267 29.6661 234.1 29.966 234.1 30.2993H232.7C232.7 29.8993 232.833 29.4996 233.1 29.0996C233.433 28.7663 233.834 28.4664 234.3 28.1997C234.767 27.9997 235.3 27.8994 235.9 27.8994C236.767 27.8994 237.467 28.1329 238 28.5996C238.534 29.0663 238.8 29.6995 238.8 30.4995V34.0996C238.8 34.8329 238.9 35.4327 239.1 35.8994V35.9995ZM235.4 34.8994C235.867 34.8994 236.267 34.7996 236.6 34.5996C237 34.3996 237.3 34.1326 237.5 33.7993V32.0996H236.4C234.734 32.0996 233.9 32.5996 233.9 33.5996C233.9 33.9996 234.034 34.3329 234.3 34.5996C234.633 34.7996 235 34.8994 235.4 34.8994ZM241.4 28.0996L243.4 33.9995L245.3 28.0996H246.7L243.5 37.1997C243.034 38.533 242.267 39.1997 241.2 39.1997H240.9L240.4 39.0996V37.9995H240.8C241.267 37.9995 241.634 37.8997 241.9 37.6997C242.1 37.4997 242.3 37.1664 242.5 36.6997L242.8 35.8994L240 28.0996H241.4ZM249.3 24.6997V35.9995H248V24.6997H249.3ZM252.9 28.0996V35.9995H251.6V28.0996H252.9ZM251.4 25.9995C251.4 25.7328 251.467 25.5327 251.6 25.3994C251.733 25.2661 251.934 25.1997 252.2 25.1997C252.467 25.1997 252.667 25.2661 252.8 25.3994C252.934 25.5327 253 25.7328 253 25.9995C253 26.1995 252.934 26.3662 252.8 26.4995C252.667 26.6328 252.467 26.6997 252.2 26.6997C251.934 26.6997 251.733 26.6328 251.6 26.4995C251.467 26.3662 251.4 26.1995 251.4 25.9995ZM260 35.9995L257.2 32.2993L256.4 33.1997V35.9995H255V24.6997H256.4V31.4995L257.1 30.6997L259.6 28.0996H261.2L258.1 31.3994L261.6 35.9995H260ZM267.6 35.9995L264.8 32.2993L264 33.1997V35.9995H262.6V24.6997H264V31.4995L264.7 30.6997L267.2 28.0996H268.8L265.7 31.3994L269.2 35.9995H267.6ZM276.5 35.9995H275.1C275.033 35.7995 274.967 35.4996 274.9 35.0996C274.3 35.7663 273.567 36.0996 272.7 36.0996C271.9 36.0996 271.234 35.8995 270.7 35.4995C270.234 35.0328 270 34.466 270 33.7993C270 32.9327 270.3 32.2994 270.9 31.8994C271.567 31.4327 272.467 31.1997 273.6 31.1997H274.9V30.5996C274.9 30.0663 274.767 29.6661 274.5 29.3994C274.167 29.1327 273.734 28.9995 273.2 28.9995C272.734 28.9995 272.334 29.1327 272 29.3994C271.667 29.5994 271.5 29.8993 271.5 30.2993H270.1C270.1 29.8993 270.267 29.4996 270.6 29.0996C270.867 28.7663 271.234 28.4664 271.7 28.1997C272.167 27.9997 272.7 27.8994 273.3 27.8994C274.233 27.8994 274.934 28.1329 275.4 28.5996C275.934 29.0663 276.2 29.6995 276.2 30.4995V34.0996C276.2 34.8329 276.3 35.4327 276.5 35.8994V35.9995ZM272.8 34.8994C273.267 34.8994 273.7 34.7996 274.1 34.5996C274.434 34.3996 274.7 34.0997 274.9 33.6997V32.0996H273.8C272.134 32.0996 271.3 32.5996 271.3 33.5996C271.3 33.9996 271.467 34.3329 271.8 34.5996C272.067 34.7996 272.4 34.8994 272.8 34.8994ZM285.4 36.0996C284.334 36.0996 283.434 35.7663 282.7 35.0996C282.034 34.3663 281.7 33.3997 281.7 32.1997V31.9995C281.7 31.1995 281.867 30.4994 282.2 29.8994C282.467 29.2327 282.867 28.7327 283.4 28.3994C284 28.0661 284.6 27.8994 285.2 27.8994C286.2 27.8994 287 28.2327 287.6 28.8994C288.2 29.5661 288.5 30.5326 288.5 31.7993V32.3994H283.1C283.1 33.1994 283.333 33.8326 283.8 34.2993C284.2 34.766 284.734 34.9995 285.4 34.9995C285.934 34.9995 286.367 34.8997 286.7 34.6997C287.034 34.4997 287.3 34.2327 287.5 33.8994L288.4 34.5996C287.734 35.5996 286.734 36.0996 285.4 36.0996ZM285.2 28.9995C284.667 28.9995 284.2 29.1996 283.8 29.5996C283.467 29.9996 283.233 30.566 283.1 31.2993H287.1V31.1997C287.033 30.4664 286.834 29.9329 286.5 29.5996C286.167 29.1996 285.734 28.9995 285.2 28.9995ZM289.7 31.8994C289.7 30.6994 290 29.7328 290.6 28.9995C291.133 28.2662 291.867 27.8994 292.8 27.8994C293.8 27.8994 294.567 28.2327 295.1 28.8994L295.2 27.9995H296.4V35.7993C296.4 36.7993 296.1 37.5997 295.5 38.1997C294.9 38.7997 294.067 39.0996 293 39.0996C292.467 39.0996 291.934 38.9664 291.4 38.6997C290.8 38.4997 290.367 38.1664 290.1 37.6997L290.8 36.8994C291.4 37.6327 292.1 37.9995 292.9 37.9995C293.567 37.9995 294.1 37.7994 294.5 37.3994C294.834 37.0661 295 36.5661 295 35.8994V35.1997C294.467 35.7997 293.733 36.0996 292.8 36.0996C291.867 36.0996 291.133 35.7328 290.6 34.9995C290 34.2662 289.7 33.2327 289.7 31.8994ZM291.1 32.0996C291.1 32.9663 291.267 33.6664 291.6 34.1997C292 34.733 292.534 34.9995 293.2 34.9995C294 34.9995 294.6 34.5993 295 33.7993V30.1997C294.6 29.3997 294 28.9995 293.2 28.9995C292.534 28.9995 292 29.266 291.6 29.7993C291.267 30.3326 291.1 31.0996 291.1 32.0996ZM304.8 35.9995H303.3C303.233 35.7995 303.167 35.4996 303.1 35.0996C302.5 35.7663 301.767 36.0996 300.9 36.0996C300.1 36.0996 299.467 35.8995 299 35.4995C298.467 35.0328 298.2 34.466 298.2 33.7993C298.2 32.9327 298.534 32.266 299.2 31.7993C299.8 31.3993 300.667 31.1997 301.8 31.1997H303.1V30.4995C303.1 30.0328 302.967 29.6661 302.7 29.3994C302.434 29.1327 302 28.9995 301.4 28.9995C300.934 28.9995 300.534 29.1327 300.2 29.3994C299.867 29.5994 299.7 29.8664 299.7 30.1997H298.4C298.4 29.7997 298.534 29.4329 298.8 29.0996C299.067 28.6996 299.434 28.3997 299.9 28.1997C300.434 27.9997 300.967 27.8994 301.5 27.8994C302.434 27.8994 303.167 28.1329 303.7 28.5996C304.167 29.0663 304.434 29.6995 304.5 30.4995V34.0996C304.5 34.8329 304.6 35.3993 304.8 35.7993V35.9995ZM301.1 34.9995C301.5 34.9995 301.9 34.8997 302.3 34.6997C302.7 34.4997 302.967 34.1993 303.1 33.7993V32.1997H302.1C300.434 32.1997 299.6 32.6997 299.6 33.6997C299.6 34.0997 299.734 34.433 300 34.6997C300.267 34.8997 300.633 34.9995 301.1 34.9995ZM317 32.0996V32.1997C317 33.3997 316.734 34.3663 316.2 35.0996C315.667 35.8329 314.9 36.1997 313.9 36.1997C312.9 36.1997 312.133 35.8329 311.6 35.0996V35.9995H310.3V24.7993H311.7V28.9995C312.234 28.3328 312.967 27.9995 313.9 27.9995C314.9 27.9995 315.667 28.3663 316.2 29.0996C316.734 29.8329 317 30.8329 317 32.0996ZM315.7 31.9995C315.7 31.0662 315.5 30.3661 315.1 29.8994C314.767 29.3661 314.267 29.0996 313.6 29.0996C312.733 29.0996 312.1 29.5327 311.7 30.3994V33.7993C312.1 34.5993 312.733 34.9995 313.6 34.9995C314.267 34.9995 314.767 34.766 315.1 34.2993C315.5 33.766 315.7 32.9995 315.7 31.9995ZM318.4 32.0996V31.9995C318.4 31.1995 318.534 30.4994 318.8 29.8994C319.134 29.2994 319.567 28.8328 320.1 28.4995C320.633 28.1662 321.267 27.9995 322 27.9995C323.067 27.9995 323.934 28.3663 324.6 29.0996C325.267 29.8329 325.6 30.8329 325.6 32.0996V32.1997C325.6 32.933 325.434 33.6326 325.1 34.2993C324.833 34.8993 324.434 35.3664 323.9 35.6997C323.3 36.033 322.667 36.1997 322 36.1997C320.934 36.1997 320.067 35.8329 319.4 35.0996C318.734 34.3663 318.4 33.3663 318.4 32.0996ZM319.7 32.1997C319.7 33.0664 319.9 33.766 320.3 34.2993C320.767 34.8326 321.334 35.0996 322 35.0996C322.667 35.0996 323.2 34.8326 323.6 34.2993C324 33.766 324.2 32.9995 324.2 31.9995C324.2 31.1328 324 30.4327 323.6 29.8994C323.2 29.3661 322.667 29.0996 322 29.0996C321.334 29.0996 320.767 29.3661 320.3 29.8994C319.9 30.4327 319.7 31.1997 319.7 32.1997ZM327.1 24.7993V25.5996L327 28.2993H326V24.7993H327.1ZM330.4 24.7993V35.9995H329V24.7993H330.4ZM334.1 28.0996V35.9995H332.7V28.0996H334.1ZM332.6 25.9995C332.6 25.7995 332.667 25.6328 332.8 25.4995C333 25.2995 333.2 25.1997 333.4 25.1997C333.667 25.1997 333.867 25.2995 334 25.4995C334.2 25.6328 334.3 25.7995 334.3 25.9995C334.3 26.2662 334.2 26.4663 334 26.5996C333.867 26.7329 333.667 26.7993 333.4 26.7993C333.2 26.7993 333 26.7329 332.8 26.5996C332.667 26.4663 332.6 26.2662 332.6 25.9995ZM340.9 33.8994C340.9 33.5661 340.767 33.2996 340.5 33.0996C340.234 32.8996 339.734 32.7329 339 32.5996C338.334 32.3996 337.8 32.1995 337.4 31.9995C337 31.7995 336.7 31.566 336.5 31.2993C336.3 31.0326 336.2 30.6993 336.2 30.2993C336.2 29.6327 336.467 29.0663 337 28.5996C337.6 28.1996 338.334 27.9995 339.2 27.9995C340.067 27.9995 340.767 28.233 341.3 28.6997C341.9 29.1664 342.2 29.7662 342.2 30.4995H340.8C340.8 30.0995 340.634 29.7662 340.3 29.4995C340.034 29.2328 339.667 29.0996 339.2 29.0996C338.667 29.0996 338.267 29.1994 338 29.3994C337.734 29.5994 337.6 29.8993 337.6 30.2993C337.6 30.566 337.734 30.7995 338 30.9995C338.267 31.1328 338.734 31.2995 339.4 31.4995C340.067 31.6328 340.6 31.7995 341 31.9995C341.4 32.1995 341.7 32.466 341.9 32.7993C342.167 33.066 342.3 33.4327 342.3 33.8994C342.3 34.5661 342 35.1329 341.4 35.5996C340.867 35.9996 340.134 36.1997 339.2 36.1997C338.534 36.1997 337.967 36.0994 337.5 35.8994C337.034 35.6327 336.667 35.2994 336.4 34.8994C336.134 34.4994 336 34.0663 336 33.5996H337.3C337.3 34.0663 337.467 34.433 337.8 34.6997C338.2 34.9664 338.667 35.0996 339.2 35.0996C339.734 35.0996 340.134 34.9993 340.4 34.7993C340.734 34.5993 340.9 34.2994 340.9 33.8994ZM345.4 24.7993V29.0996C346 28.3663 346.767 27.9995 347.7 27.9995C349.367 27.9995 350.2 28.9326 350.2 30.7993V35.9995H348.9V30.7993C348.9 30.1993 348.767 29.7662 348.5 29.4995C348.234 29.2328 347.833 29.0996 347.3 29.0996C346.833 29.0996 346.434 29.2328 346.1 29.4995C345.767 29.6995 345.534 29.9994 345.4 30.3994V35.9995H344V24.7993H345.4ZM356.9 33.8994C356.9 33.5661 356.767 33.2996 356.5 33.0996C356.234 32.8996 355.767 32.7329 355.1 32.5996C354.434 32.3996 353.867 32.1995 353.4 31.9995C353 31.7995 352.7 31.566 352.5 31.2993C352.367 31.0326 352.3 30.6993 352.3 30.2993C352.3 29.6327 352.567 29.0663 353.1 28.5996C353.633 28.1996 354.334 27.9995 355.2 27.9995C356.067 27.9995 356.8 28.233 357.4 28.6997C357.934 29.1664 358.2 29.7662 358.2 30.4995H356.9C356.9 30.0995 356.734 29.7662 356.4 29.4995C356.067 29.2328 355.667 29.0996 355.2 29.0996C354.734 29.0996 354.334 29.1994 354 29.3994C353.734 29.5994 353.6 29.8993 353.6 30.2993C353.6 30.566 353.734 30.7995 354 30.9995C354.267 31.1328 354.734 31.2995 355.4 31.4995C356.067 31.6328 356.633 31.7995 357.1 31.9995C357.5 32.1995 357.8 32.466 358 32.7993C358.2 33.066 358.3 33.4327 358.3 33.8994C358.3 34.5661 358 35.1329 357.4 35.5996C356.867 35.9996 356.134 36.1997 355.2 36.1997C354.6 36.1997 354.067 36.0994 353.6 35.8994C353.067 35.6327 352.667 35.2994 352.4 34.8994C352.134 34.4994 352 34.0663 352 33.5996H353.3C353.367 34.0663 353.567 34.433 353.9 34.6997C354.234 34.9664 354.667 35.0996 355.2 35.0996C355.734 35.0996 356.167 34.9993 356.5 34.7993C356.767 34.5993 356.9 34.2994 356.9 33.8994ZM361.5 28.0996V35.9995H360.2V28.0996H361.5ZM360 25.9995C360 25.7995 360.067 25.6328 360.2 25.4995C360.334 25.2995 360.534 25.1997 360.8 25.1997C361.067 25.1997 361.267 25.2995 361.4 25.4995C361.534 25.6328 361.6 25.7995 361.6 25.9995C361.6 26.2662 361.534 26.4663 361.4 26.5996C361.267 26.7329 361.067 26.7993 360.8 26.7993C360.534 26.7993 360.334 26.7329 360.2 26.5996C360.067 26.4663 360 26.2662 360 25.9995ZM363.6 28.0996H364.9L365 29.0996C365.6 28.3663 366.367 27.9995 367.3 27.9995C369.034 27.9995 369.9 28.9326 369.9 30.7993V35.9995H368.5V30.7993C368.5 30.1993 368.367 29.7662 368.1 29.4995C367.833 29.2328 367.434 29.0996 366.9 29.0996C366.5 29.0996 366.134 29.2328 365.8 29.4995C365.467 29.6995 365.2 29.9994 365 30.3994V35.9995H363.6V28.0996ZM371.9 35.3994C371.9 35.1327 372 34.9327 372.2 34.7993C372.334 34.5993 372.534 34.4995 372.8 34.4995C373.067 34.4995 373.267 34.5993 373.4 34.7993C373.534 34.9327 373.6 35.1327 373.6 35.3994C373.6 35.5994 373.534 35.7661 373.4 35.8994C373.267 36.0994 373.067 36.1997 372.8 36.1997C372.534 36.1997 372.334 36.0994 372.2 35.8994C372 35.7661 371.9 35.5994 371.9 35.3994Z" fill="#DEE3FF"/>
</svg>
