<svg width="830" height="68" viewBox="0 0 830 68" fill="none" xmlns="http://www.w3.org/2000/svg">
<path d="M9.69983 24.4995V29.7993H18.5998C21.8665 29.7993 24.7665 29.3662 27.2998 28.4995C29.8331 27.5662 31.8331 26.2328 33.2998 24.4995C34.7665 22.6995 35.4998 20.5663 35.4998 18.0996C35.4998 15.4996 34.7665 13.3664 33.2998 11.6997C31.8331 9.96637 29.8331 8.66598 27.2998 7.79932C24.7665 6.93265 21.8665 6.49951 18.5998 6.49951H0.299805V51.9995H19.7998C23.5998 51.9995 26.8665 51.5993 29.5998 50.7993C32.3331 49.9327 34.4332 48.5664 35.8998 46.6997C37.3665 44.833 38.0998 42.366 38.0998 39.2993C38.0998 36.966 37.5665 34.966 36.4998 33.2993C35.4332 31.6327 34.0331 30.2993 32.2998 29.2993C30.4998 28.166 28.4998 27.3661 26.2998 26.8994C24.1665 26.3661 21.9998 26.0996 19.7998 26.0996H9.69983V32.9995H18.1998C19.1998 32.9995 20.0665 33.0664 20.7998 33.1997C21.6665 33.333 22.3998 33.5661 22.9998 33.8994C23.5998 34.2327 24.0998 34.6993 24.4998 35.2993C24.8332 35.8326 24.9998 36.5327 24.9998 37.3994C24.9998 38.7994 24.6998 39.8663 24.0998 40.5996C23.4998 41.2663 22.6665 41.7328 21.5998 41.9995C20.5998 42.2662 19.4665 42.3994 18.1998 42.3994H12.9998V16.0996H17.0998C18.8331 16.0996 20.1332 16.4329 20.9998 17.0996C21.9331 17.7663 22.3998 18.7663 22.3998 20.0996C22.3998 21.0329 22.1665 21.8328 21.6998 22.4995C21.2998 23.1662 20.7332 23.6662 19.9998 23.9995C19.1998 24.3328 18.2331 24.4995 17.0998 24.4995H9.69983ZM43.5998 11.1997C43.5998 12.933 44.1998 14.3327 45.3998 15.3994C46.6665 16.4661 48.1665 16.9995 49.8998 16.9995C51.6998 16.9995 53.1998 16.4661 54.3998 15.3994C55.6665 14.3327 56.2998 12.933 56.2998 11.1997C56.2998 9.46637 55.6665 8.06618 54.3998 6.99951C53.1998 5.93285 51.6998 5.39941 49.8998 5.39941C48.1665 5.39941 46.6665 5.93285 45.3998 6.99951C44.1998 8.06618 43.5998 9.46637 43.5998 11.1997ZM55.2998 22.0996H44.4998V51.9995H55.2998V22.0996ZM62.9998 32.1997H74.8998L59.9998 51.9995H90.8998V41.8994H79.3998L93.1998 22.0996H62.9998V32.1997ZM117.2 33.7993V51.9995H129V32.5996C129 29.0663 128.166 26.2993 126.5 24.2993C124.9 22.2993 122.133 21.2993 118.2 21.2993C115.933 21.2993 114.033 21.7993 112.5 22.7993C111.033 23.666 109.866 24.8995 109 26.4995V22.0996H97.7998V51.9995H109V33.7993C109 32.666 109.2 31.7328 109.6 30.9995C109.933 30.2662 110.433 29.7327 111.1 29.3994C111.833 29.0661 112.633 28.8994 113.5 28.8994C114.966 28.8994 115.933 29.333 116.4 30.1997C116.933 30.9997 117.2 32.1993 117.2 33.7993ZM135.4 11.1997C135.4 12.8664 136 14.2661 137.2 15.3994C138.466 16.4661 139.966 16.9995 141.7 16.9995C143.433 16.9995 144.933 16.4661 146.2 15.3994C147.4 14.2661 148 12.8664 148 11.1997C148 9.46637 147.4 8.06618 146.2 6.99951C144.933 5.93285 143.433 5.39941 141.7 5.39941C139.966 5.39941 138.466 5.93285 137.2 6.99951C136 8.06618 135.4 9.46637 135.4 11.1997ZM147.1 22.0996H136.3V51.9995H147.1V22.0996ZM173.8 33.7993V51.9995H185.6V32.5996C185.6 29.0663 184.766 26.2993 183.1 24.2993C181.5 22.2993 178.733 21.2993 174.8 21.2993C172.533 21.2993 170.633 21.7993 169.1 22.7993C167.633 23.666 166.5 24.8995 165.7 26.4995V22.0996H154.4V51.9995H165.7V33.7993C165.7 32.666 165.867 31.7328 166.2 30.9995C166.6 30.2662 167.1 29.7327 167.7 29.3994C168.433 29.0661 169.233 28.8994 170.1 28.8994C171.566 28.8994 172.566 29.333 173.1 30.1997C173.566 30.9997 173.8 32.1993 173.8 33.7993ZM202.6 54.1997H191.8C192.133 56.7997 192.9 59.166 194.1 61.2993C195.3 63.2993 197.133 64.8662 199.6 65.9995C202 67.1328 205.2 67.6997 209.2 67.6997C212.4 67.6997 215.266 67.1663 217.8 66.0996C220.333 64.9663 222.367 63.2327 223.9 60.8994C225.433 58.4327 226.2 55.2327 226.2 51.2993V22.0996H215.4V51.2993C215.4 52.966 215.1 54.3662 214.5 55.4995C213.966 56.6328 213.166 57.4996 212.1 58.0996C211.1 58.6329 209.933 58.8994 208.6 58.8994C207.6 58.8994 206.666 58.7662 205.8 58.4995C204.933 58.1662 204.233 57.6662 203.7 56.9995C203.166 56.2662 202.8 55.333 202.6 54.1997ZM191.2 36.4995C191.2 39.8995 191.867 42.6994 193.2 44.8994C194.6 47.1661 196.366 48.8327 198.5 49.8994C200.633 51.0327 202.867 51.5996 205.2 51.5996C207.733 51.5996 209.967 50.9993 211.9 49.7993C213.9 48.666 215.433 46.9664 216.5 44.6997C217.7 42.433 218.3 39.6995 218.3 36.4995C218.3 33.2328 217.7 30.4993 216.5 28.2993C215.433 26.0326 213.9 24.333 211.9 23.1997C209.967 21.9997 207.733 21.3994 205.2 21.3994C202.867 21.3994 200.633 21.9663 198.5 23.0996C196.366 24.1663 194.6 25.7995 193.2 27.9995C191.867 30.2662 191.2 33.0995 191.2 36.4995ZM203 36.4995C203 35.1662 203.3 34.0329 203.9 33.0996C204.433 32.1663 205.166 31.4662 206.1 30.9995C207.1 30.4662 208.166 30.1997 209.3 30.1997C210.033 30.1997 210.766 30.3329 211.5 30.5996C212.233 30.8663 212.9 31.233 213.5 31.6997C214.1 32.233 214.567 32.8997 214.9 33.6997C215.233 34.4997 215.4 35.4328 215.4 36.4995C215.4 37.8995 215.1 39.0662 214.5 39.9995C213.9 40.9328 213.133 41.6329 212.2 42.0996C211.266 42.4996 210.3 42.6997 209.3 42.6997C208.166 42.6997 207.1 42.4662 206.1 41.9995C205.166 41.5328 204.433 40.8327 203.9 39.8994C203.3 38.8994 203 37.7662 203 36.4995ZM252.6 66.2993H263.9V22.0996H252.6V66.2993ZM288.1 36.9995C288.1 33.3995 287.4 30.4329 286 28.0996C284.666 25.6996 282.933 23.8997 280.8 22.6997C278.666 21.4997 276.433 20.8994 274.1 20.8994C271.433 20.8994 269.133 21.5661 267.2 22.8994C265.4 24.2327 264 26.1329 263 28.5996C262 30.9329 261.5 33.7328 261.5 36.9995C261.5 40.1995 262 43.0328 263 45.4995C264 47.8995 265.4 49.7663 267.2 51.0996C269.133 52.4329 271.433 53.0996 274.1 53.0996C276.433 53.0996 278.666 52.4993 280.8 51.2993C282.933 50.0993 284.666 48.2994 286 45.8994C287.4 43.4994 288.1 40.5328 288.1 36.9995ZM276.3 36.9995C276.3 38.3328 276 39.4661 275.4 40.3994C274.867 41.3327 274.133 42.0328 273.2 42.4995C272.2 43.0328 271.133 43.2993 270 43.2993C269 43.2993 268.033 43.0663 267.1 42.5996C266.166 42.1329 265.4 41.4328 264.8 40.4995C264.2 39.6328 263.9 38.4662 263.9 36.9995C263.9 35.5995 264.2 34.4328 264.8 33.4995C265.4 32.5662 266.166 31.8995 267.1 31.4995C268.033 31.0328 269 30.7993 270 30.7993C271.133 30.7993 272.2 31.0328 273.2 31.4995C274.133 31.9662 274.867 32.6663 275.4 33.5996C276 34.5329 276.3 35.6662 276.3 36.9995ZM304.7 51.9995V22.0996H293.7V51.9995H304.7ZM313.2 33.5996L317.9 23.8994C317.433 23.1661 316.7 22.5663 315.7 22.0996C314.7 21.5663 313.666 21.2993 312.6 21.2993C310.866 21.2993 309.2 21.8662 307.6 22.9995C306 24.0662 304.733 25.5327 303.8 27.3994C302.866 29.2661 302.4 31.3993 302.4 33.7993L304.7 38.1997C304.7 36.7997 304.9 35.633 305.3 34.6997C305.7 33.6997 306.266 32.9662 307 32.4995C307.733 32.0328 308.533 31.7993 309.4 31.7993C310.267 31.7993 311 31.966 311.6 32.2993C312.2 32.6326 312.733 33.0663 313.2 33.5996ZM319.3 36.9995C319.3 40.1995 320.033 42.966 321.5 45.2993C323.033 47.6326 325.133 49.433 327.8 50.6997C330.466 51.9664 333.466 52.5996 336.8 52.5996C340.2 52.5996 343.2 51.9664 345.8 50.6997C348.466 49.433 350.566 47.6326 352.1 45.2993C353.633 42.966 354.4 40.1995 354.4 36.9995C354.4 33.7995 353.633 31.033 352.1 28.6997C350.566 26.3664 348.466 24.566 345.8 23.2993C343.2 21.966 340.2 21.2993 336.8 21.2993C333.466 21.2993 330.466 21.966 327.8 23.2993C325.133 24.566 323.033 26.3664 321.5 28.6997C320.033 31.033 319.3 33.7995 319.3 36.9995ZM330.8 36.9995C330.8 35.5995 331.066 34.4328 331.6 33.4995C332.2 32.4995 332.933 31.733 333.8 31.1997C334.733 30.6664 335.733 30.3994 336.8 30.3994C337.866 30.3994 338.866 30.6664 339.8 31.1997C340.733 31.733 341.466 32.4995 342 33.4995C342.6 34.4328 342.9 35.5995 342.9 36.9995C342.9 38.3995 342.6 39.5996 342 40.5996C341.466 41.5329 340.733 42.266 339.8 42.7993C338.866 43.266 337.866 43.4995 336.8 43.4995C335.733 43.4995 334.733 43.266 333.8 42.7993C332.933 42.266 332.2 41.5329 331.6 40.5996C331.066 39.5996 330.8 38.3995 330.8 36.9995ZM379.2 22.0996H357.2V31.1997H379.2V22.0996ZM377.9 11.6997L382.2 3.59961C381.733 3.13294 381.1 2.63294 380.3 2.09961C379.5 1.56628 378.533 1.09971 377.4 0.699707C376.2 0.299707 374.766 0.0996094 373.1 0.0996094C370.433 0.0996094 368.233 0.566178 366.5 1.49951C364.7 2.36618 363.333 3.63265 362.4 5.29932C361.533 6.89932 361.1 8.79951 361.1 10.9995V51.9995H371.8V13.9995C371.8 13.0662 371.933 12.3327 372.2 11.7993C372.466 11.1993 372.833 10.7662 373.3 10.4995C373.766 10.1662 374.333 9.99951 375 9.99951C375.533 9.99951 376.033 10.1662 376.5 10.4995C376.966 10.7662 377.433 11.1664 377.9 11.6997ZM399.7 52.5996C403.633 52.5996 406.966 51.8326 409.7 50.2993C412.5 48.8326 414.7 46.5327 416.3 43.3994L406.2 41.3994C405.533 42.5327 404.6 43.3995 403.4 43.9995C402.267 44.5995 400.9 44.8994 399.3 44.8994C397.967 44.8994 396.833 44.5995 395.9 43.9995C394.967 43.3328 394.267 42.3997 393.8 41.1997C393.333 40.0664 393.133 38.6327 393.2 36.8994C393.2 35.0327 393.4 33.4993 393.8 32.2993C394.267 31.0326 394.933 30.0995 395.8 29.4995C396.667 28.8995 397.733 28.5996 399 28.5996C400.066 28.5996 400.966 28.8326 401.7 29.2993C402.5 29.6993 403.066 30.333 403.4 31.1997C403.867 32.0664 404.1 33.0993 404.1 34.2993C404.1 34.566 404 34.9327 403.8 35.3994C403.667 35.7994 403.466 36.1996 403.2 36.5996L405.6 33.5996H388V39.2993H415.9C415.967 38.966 416 38.5328 416 37.9995C416 37.5328 416 37.0328 416 36.4995C416 33.2328 415.366 30.4993 414.1 28.2993C412.766 26.0326 410.867 24.333 408.4 23.1997C405.933 21.9997 402.9 21.3994 399.3 21.3994C395.633 21.3994 392.5 22.0326 389.9 23.2993C387.3 24.566 385.3 26.3664 383.9 28.6997C382.566 30.9664 381.9 33.7328 381.9 36.9995C381.9 40.1995 382.6 42.966 384 45.2993C385.4 47.6326 387.433 49.433 390.1 50.6997C392.766 51.9664 395.966 52.5996 399.7 52.5996ZM423.5 40.5996L419.4 48.2993C421 49.2327 422.633 50.0994 424.3 50.8994C425.967 51.6994 427.766 52.2997 429.7 52.6997C431.633 53.1664 433.7 53.3994 435.9 53.3994C439.633 53.3994 442.5 52.5995 444.5 50.9995C446.5 49.3995 447.5 46.8995 447.5 43.4995C447.5 41.6328 447.1 40.1328 446.3 38.9995C445.5 37.8662 444.466 36.966 443.2 36.2993C441.933 35.566 440.533 34.8993 439 34.2993C437.4 33.6993 436.066 33.2327 435 32.8994C434 32.5661 433.233 32.2327 432.7 31.8994C432.166 31.4994 431.9 30.9994 431.9 30.3994C431.9 29.9327 432.066 29.566 432.4 29.2993C432.8 28.966 433.4 28.7993 434.2 28.7993C435.533 28.7993 437.033 29.1995 438.7 29.9995C440.433 30.7328 442 31.6994 443.4 32.8994L446.7 25.3994C445.366 24.6661 444 23.9994 442.6 23.3994C441.266 22.7994 439.8 22.3328 438.2 21.9995C436.666 21.5995 435.033 21.3994 433.3 21.3994C430.967 21.3994 428.933 21.7327 427.2 22.3994C425.466 23.0661 424.1 24.0661 423.1 25.3994C422.1 26.6661 421.6 28.2329 421.6 30.0996C421.6 32.0329 422 33.6327 422.8 34.8994C423.6 36.0994 424.666 37.066 426 37.7993C427.266 38.466 428.633 39.0328 430.1 39.4995C431.833 40.0995 433.133 40.5995 434 40.9995C434.933 41.3995 435.533 41.7663 435.8 42.0996C436.133 42.4996 436.3 42.9327 436.3 43.3994C436.3 44.0661 436.1 44.5661 435.7 44.8994C435.366 45.2327 434.767 45.3994 433.9 45.3994C433.367 45.3994 432.633 45.2996 431.7 45.0996C430.766 44.8329 429.633 44.3664 428.3 43.6997C426.967 43.033 425.366 41.9996 423.5 40.5996ZM454.2 40.5996L450.1 48.2993C451.633 49.2327 453.266 50.0994 455 50.8994C456.666 51.6994 458.467 52.2997 460.4 52.6997C462.333 53.1664 464.4 53.3994 466.6 53.3994C470.266 53.3994 473.1 52.5995 475.1 50.9995C477.166 49.3995 478.2 46.8995 478.2 43.4995C478.2 41.6328 477.8 40.1328 477 38.9995C476.2 37.8662 475.133 36.966 473.8 36.2993C472.533 35.566 471.166 34.8993 469.7 34.2993C468.1 33.6993 466.766 33.2327 465.7 32.8994C464.633 32.5661 463.867 32.2327 463.4 31.8994C462.867 31.4994 462.6 30.9994 462.6 30.3994C462.6 29.9327 462.766 29.566 463.1 29.2993C463.5 28.966 464.1 28.7993 464.9 28.7993C466.233 28.7993 467.733 29.1995 469.4 29.9995C471.133 30.7328 472.7 31.6994 474.1 32.8994L477.4 25.3994C476.066 24.6661 474.7 23.9994 473.3 23.3994C471.9 22.7994 470.433 22.3328 468.9 21.9995C467.367 21.5995 465.733 21.3994 464 21.3994C461.666 21.3994 459.633 21.7327 457.9 22.3994C456.167 23.0661 454.8 24.0661 453.8 25.3994C452.8 26.6661 452.3 28.2329 452.3 30.0996C452.3 32.0329 452.7 33.6327 453.5 34.8994C454.3 36.0994 455.366 37.066 456.7 37.7993C457.966 38.466 459.333 39.0328 460.8 39.4995C462.533 40.0995 463.833 40.5995 464.7 40.9995C465.566 41.3995 466.166 41.7663 466.5 42.0996C466.833 42.4996 467 42.9327 467 43.3994C467 44.0661 466.8 44.5661 466.4 44.8994C466 45.2327 465.4 45.3994 464.6 45.3994C464.066 45.3994 463.333 45.2996 462.4 45.0996C461.467 44.8329 460.3 44.3664 458.9 43.6997C457.566 43.033 456 41.9996 454.2 40.5996ZM482.4 11.1997C482.4 12.8664 483 14.2661 484.2 15.3994C485.466 16.4661 486.966 16.9995 488.7 16.9995C490.5 16.9995 492 16.4661 493.2 15.3994C494.466 14.2661 495.1 12.8664 495.1 11.1997C495.1 9.46637 494.466 8.06618 493.2 6.99951C492 5.93285 490.5 5.39941 488.7 5.39941C486.966 5.39941 485.466 5.93285 484.2 6.99951C483 8.06618 482.4 9.46637 482.4 11.1997ZM494.1 22.0996H483.3V51.9995H494.1V22.0996ZM499.9 36.9995C499.9 40.1995 500.666 42.966 502.2 45.2993C503.666 47.6326 505.733 49.433 508.4 50.6997C511.066 51.9664 514.067 52.5996 517.4 52.5996C520.8 52.5996 523.833 51.9664 526.5 50.6997C529.1 49.433 531.166 47.6326 532.7 45.2993C534.3 42.966 535.1 40.1995 535.1 36.9995C535.1 33.7995 534.3 31.033 532.7 28.6997C531.166 26.3664 529.1 24.566 526.5 23.2993C523.833 21.966 520.8 21.2993 517.4 21.2993C514.067 21.2993 511.066 21.966 508.4 23.2993C505.733 24.566 503.666 26.3664 502.2 28.6997C500.666 31.033 499.9 33.7995 499.9 36.9995ZM511.5 36.9995C511.5 35.5995 511.733 34.4328 512.2 33.4995C512.8 32.4995 513.566 31.733 514.5 31.1997C515.366 30.6664 516.333 30.3994 517.4 30.3994C518.533 30.3994 519.533 30.6664 520.4 31.1997C521.333 31.733 522.066 32.4995 522.6 33.4995C523.2 34.4328 523.5 35.5995 523.5 36.9995C523.5 38.3995 523.2 39.5996 522.6 40.5996C522.066 41.5329 521.333 42.266 520.4 42.7993C519.533 43.266 518.533 43.4995 517.4 43.4995C516.333 43.4995 515.366 43.266 514.5 42.7993C513.566 42.266 512.8 41.5329 512.2 40.5996C511.733 39.5996 511.5 38.3995 511.5 36.9995ZM560 33.7993V51.9995H571.8V32.5996C571.8 29.0663 570.967 26.2993 569.3 24.2993C567.633 22.2993 564.866 21.2993 561 21.2993C558.733 21.2993 556.833 21.7993 555.3 22.7993C553.833 23.666 552.667 24.8995 551.8 26.4995V22.0996H540.6V51.9995H551.8V33.7993C551.8 32.666 552 31.7328 552.4 30.9995C552.733 30.2662 553.233 29.7327 553.9 29.3994C554.633 29.0661 555.433 28.8994 556.3 28.8994C557.767 28.8994 558.733 29.333 559.2 30.1997C559.733 30.9997 560 32.1993 560 33.7993ZM588.1 42.5996C588.1 41.9329 588.233 41.3995 588.5 40.9995C588.766 40.5995 589.2 40.2996 589.8 40.0996C590.4 39.8329 591.2 39.6997 592.2 39.6997C593.6 39.6997 594.967 39.8993 596.3 40.2993C597.567 40.6993 598.633 41.2662 599.5 41.9995V37.2993C598.966 36.6993 598.133 36.1329 597 35.5996C595.933 35.1329 594.666 34.7327 593.2 34.3994C591.733 34.1327 590.2 33.9995 588.6 33.9995C584.733 33.9995 581.8 34.7994 579.8 36.3994C577.8 38.0661 576.8 40.333 576.8 43.1997C576.8 45.1997 577.3 46.9327 578.3 48.3994C579.3 49.7994 580.6 50.8663 582.2 51.5996C583.866 52.2663 585.633 52.5996 587.5 52.5996C589.5 52.5996 591.333 52.2663 593 51.5996C594.667 50.8663 595.966 49.8328 596.9 48.4995C597.9 47.1662 598.4 45.5329 598.4 43.5996L597.4 39.6997C597.4 41.0997 597.133 42.2329 596.6 43.0996C596.066 43.9663 595.366 44.6329 594.5 45.0996C593.633 45.4996 592.7 45.6997 591.7 45.6997C591.1 45.6997 590.5 45.566 589.9 45.2993C589.367 45.0326 588.933 44.6993 588.6 44.2993C588.266 43.8326 588.1 43.2663 588.1 42.5996ZM579.1 24.4995L582.6 31.8994C583 31.6327 583.7 31.3328 584.7 30.9995C585.7 30.5995 586.866 30.2327 588.2 29.8994C589.533 29.6327 590.833 29.4995 592.1 29.4995C592.966 29.4995 593.766 29.5993 594.5 29.7993C595.167 29.9993 595.733 30.2663 596.2 30.5996C596.6 30.9996 596.9 31.4327 597.1 31.8994C597.3 32.4327 597.4 33.033 597.4 33.6997V51.9995H608.1V30.9995C608.1 28.8662 607.466 27.0663 606.2 25.5996C604.933 24.1329 603.2 23.0326 601 22.2993C598.8 21.4993 596.333 21.0996 593.6 21.0996C590.8 21.0996 588.133 21.4993 585.6 22.2993C583.133 22.966 580.966 23.6995 579.1 24.4995ZM626.3 1.29932H615.1V51.9995H626.3V1.29932ZM651.9 11.1997C651.9 12.8664 652.533 14.2661 653.8 15.3994C655 16.4661 656.5 16.9995 658.3 16.9995C660.1 16.9995 661.6 16.4661 662.8 15.3994C664 14.2661 664.6 12.8664 664.6 11.1997C664.6 9.46637 664 8.06618 662.8 6.99951C661.6 5.93285 660.1 5.39941 658.3 5.39941C656.5 5.39941 655 5.93285 653.8 6.99951C652.533 8.06618 651.9 9.46637 651.9 11.1997ZM646.9 56.1997L642.6 64.2993C643.133 64.766 643.766 65.2994 644.5 65.8994C645.3 66.3661 646.266 66.7997 647.4 67.1997C648.6 67.5997 650 67.7993 651.6 67.7993C654.266 67.7993 656.5 67.3662 658.3 66.4995C660.1 65.4995 661.433 64.1996 662.3 62.5996C663.233 60.9329 663.7 59.0327 663.7 56.8994V22.0996H653V53.8994C653 54.8327 652.866 55.5997 652.6 56.1997C652.4 56.733 652.033 57.1662 651.5 57.4995C651.033 57.7662 650.5 57.8994 649.9 57.8994C649.233 57.8994 648.666 57.7662 648.2 57.4995C647.733 57.1662 647.3 56.733 646.9 56.1997ZM680.1 42.5996C680.1 41.9329 680.233 41.3995 680.5 40.9995C680.766 40.5995 681.2 40.2996 681.8 40.0996C682.4 39.8329 683.2 39.6997 684.2 39.6997C685.666 39.6997 687.033 39.8993 688.3 40.2993C689.633 40.6993 690.733 41.2662 691.6 41.9995V37.2993C691 36.6993 690.133 36.1329 689 35.5996C687.933 35.1329 686.666 34.7327 685.2 34.3994C683.8 34.1327 682.266 33.9995 680.6 33.9995C676.8 33.9995 673.867 34.7994 671.8 36.3994C669.8 38.0661 668.8 40.333 668.8 43.1997C668.8 45.1997 669.3 46.9327 670.3 48.3994C671.3 49.7994 672.6 50.8663 674.2 51.5996C675.866 52.2663 677.666 52.5996 679.6 52.5996C681.533 52.5996 683.333 52.2663 685 51.5996C686.733 50.8663 688.066 49.8328 689 48.4995C690 47.1662 690.5 45.5329 690.5 43.5996L689.4 39.6997C689.4 41.0997 689.133 42.2329 688.6 43.0996C688.066 43.9663 687.366 44.6329 686.5 45.0996C685.633 45.4996 684.733 45.6997 683.8 45.6997C683.133 45.6997 682.533 45.566 682 45.2993C681.4 45.0326 680.933 44.6993 680.6 44.2993C680.266 43.8326 680.1 43.2663 680.1 42.5996ZM671.1 24.4995L674.7 31.8994C675.1 31.6327 675.8 31.3328 676.8 30.9995C677.8 30.5995 678.933 30.2327 680.2 29.8994C681.533 29.6327 682.833 29.4995 684.1 29.4995C685.033 29.4995 685.833 29.5993 686.5 29.7993C687.233 29.9993 687.8 30.2663 688.2 30.5996C688.666 30.9996 688.966 31.4327 689.1 31.8994C689.3 32.4327 689.4 33.033 689.4 33.6997V51.9995H700.2V30.9995C700.2 28.8662 699.533 27.0663 698.2 25.5996C696.933 24.1329 695.2 23.0326 693 22.2993C690.866 21.4993 688.433 21.0996 685.7 21.0996C682.833 21.0996 680.166 21.4993 677.7 22.2993C675.233 22.966 673.033 23.6995 671.1 24.4995ZM754.1 51.9995V32.5996C754.1 30.1996 753.833 28.1662 753.3 26.4995C752.7 24.8328 751.733 23.5664 750.4 22.6997C749.067 21.7664 747.2 21.2993 744.8 21.2993C742.733 21.2993 740.866 21.7329 739.2 22.5996C737.6 23.4663 736.233 24.6329 735.1 26.0996C734.5 24.4996 733.533 23.3329 732.2 22.5996C730.866 21.7329 729 21.2993 726.6 21.2993C724.466 21.2993 722.666 21.7993 721.2 22.7993C719.8 23.666 718.667 24.8995 717.8 26.4995V22.0996H707.1V51.9995H717.8V33.7993C717.8 32.666 717.967 31.7328 718.3 30.9995C718.633 30.2662 719.066 29.7327 719.6 29.3994C720.133 29.0661 720.766 28.8994 721.5 28.8994C722.633 28.8994 723.466 29.333 724 30.1997C724.466 30.9997 724.7 32.1993 724.7 33.7993V51.9995H736V33.7993C736 32.666 736.133 31.7328 736.4 30.9995C736.733 30.2662 737.166 29.7327 737.7 29.3994C738.3 29.0661 738.933 28.8994 739.6 28.8994C740.8 28.8994 741.633 29.333 742.1 30.1997C742.633 30.9997 742.9 32.1993 742.9 33.7993V51.9995H754.1ZM759.6 36.9995C759.6 40.1995 760.367 42.966 761.9 45.2993C763.367 47.6326 765.433 49.433 768.1 50.6997C770.766 51.9664 773.766 52.5996 777.1 52.5996C780.5 52.5996 783.533 51.9664 786.2 50.6997C788.8 49.433 790.867 47.6326 792.4 45.2993C794 42.966 794.8 40.1995 794.8 36.9995C794.8 33.7995 794 31.033 792.4 28.6997C790.867 26.3664 788.8 24.566 786.2 23.2993C783.533 21.966 780.5 21.2993 777.1 21.2993C773.766 21.2993 770.766 21.966 768.1 23.2993C765.433 24.566 763.367 26.3664 761.9 28.6997C760.367 31.033 759.6 33.7995 759.6 36.9995ZM771.2 36.9995C771.2 35.5995 771.433 34.4328 771.9 33.4995C772.5 32.4995 773.266 31.733 774.2 31.1997C775.066 30.6664 776.033 30.3994 777.1 30.3994C778.233 30.3994 779.233 30.6664 780.1 31.1997C781.033 31.733 781.767 32.4995 782.3 33.4995C782.9 34.4328 783.2 35.5995 783.2 36.9995C783.2 38.3995 782.9 39.5996 782.3 40.5996C781.767 41.5329 781.033 42.266 780.1 42.7993C779.233 43.266 778.233 43.4995 777.1 43.4995C776.033 43.4995 775.066 43.266 774.2 42.7993C773.266 42.266 772.5 41.5329 771.9 40.5996C771.433 39.5996 771.2 38.3995 771.2 36.9995ZM809.4 42.5996C809.4 41.9329 809.533 41.3995 809.8 40.9995C810.067 40.5995 810.5 40.2996 811.1 40.0996C811.7 39.8329 812.5 39.6997 813.5 39.6997C814.966 39.6997 816.333 39.8993 817.6 40.2993C818.933 40.6993 820.033 41.2662 820.9 41.9995V37.2993C820.3 36.6993 819.466 36.1329 818.4 35.5996C817.266 35.1329 815.966 34.7327 814.5 34.3994C813.1 34.1327 811.567 33.9995 809.9 33.9995C806.1 33.9995 803.166 34.7994 801.1 36.3994C799.1 38.0661 798.1 40.333 798.1 43.1997C798.1 45.1997 798.6 46.9327 799.6 48.3994C800.6 49.7994 801.9 50.8663 803.5 51.5996C805.167 52.2663 806.966 52.5996 808.9 52.5996C810.9 52.5996 812.7 52.2663 814.3 51.5996C816.033 50.8663 817.367 49.8328 818.3 48.4995C819.3 47.1662 819.8 45.5329 819.8 43.5996L818.7 39.6997C818.7 41.0997 818.433 42.2329 817.9 43.0996C817.367 43.9663 816.667 44.6329 815.8 45.0996C814.933 45.4996 814.033 45.6997 813.1 45.6997C812.433 45.6997 811.833 45.566 811.3 45.2993C810.7 45.0326 810.233 44.6993 809.9 44.2993C809.567 43.8326 809.4 43.2663 809.4 42.5996ZM800.4 24.4995L804 31.8994C804.4 31.6327 805.1 31.3328 806.1 30.9995C807.1 30.5995 808.233 30.2327 809.5 29.8994C810.833 29.6327 812.133 29.4995 813.4 29.4995C814.333 29.4995 815.133 29.5993 815.8 29.7993C816.533 29.9993 817.1 30.2663 817.5 30.5996C817.966 30.9996 818.266 31.4327 818.4 31.8994C818.6 32.4327 818.7 33.033 818.7 33.6997V51.9995H829.5V30.9995C829.5 28.8662 828.833 27.0663 827.5 25.5996C826.233 24.1329 824.5 23.0326 822.3 22.2993C820.167 21.4993 817.733 21.0996 815 21.0996C812.133 21.0996 809.466 21.4993 807 22.2993C804.533 22.966 802.333 23.6995 800.4 24.4995Z" fill="#202020"/>
</svg>
