<svg width="350" height="18" viewBox="0 0 350 18" fill="none" xmlns="http://www.w3.org/2000/svg">
<path d="M2.79999 7.69946V9.29956H5.70001C6.76668 9.29956 7.7 9.16608 8.5 8.89941C9.3 8.56608 9.93333 8.13294 10.4 7.59961C10.8667 6.99961 11.1 6.29951 11.1 5.49951C11.1 4.63284 10.8667 3.89956 10.4 3.29956C9.93333 2.76623 9.3 2.33285 8.5 1.99951C7.7 1.73285 6.76668 1.59961 5.70001 1.59961H0V16.9995H6C7.26667 16.9995 8.33335 16.8663 9.20001 16.5996C10.0667 16.2663 10.7667 15.7995 11.3 15.1995C11.7667 14.5328 12 13.6995 12 12.6995C12 11.8995 11.8333 11.2328 11.5 10.6995C11.1667 10.1661 10.7 9.69956 10.1 9.29956C9.56667 8.96623 8.93335 8.69951 8.20001 8.49951C7.53335 8.36618 6.8 8.29956 6 8.29956H2.79999V10.2996H5.60001C6.00001 10.2996 6.33334 10.3327 6.60001 10.3994C6.93334 10.4661 7.19999 10.5661 7.39999 10.6995C7.66666 10.8328 7.86667 11.0329 8 11.2996C8.13333 11.5662 8.20001 11.8329 8.20001 12.0996C8.20001 12.6329 8.06665 13.0329 7.79999 13.2996C7.59999 13.5662 7.29999 13.7661 6.89999 13.8994C6.49999 14.0327 6.06667 14.0996 5.60001 14.0996H3.70001V4.49951H5.29999C5.89999 4.49951 6.36668 4.63275 6.70001 4.89941C7.10001 5.16608 7.29999 5.56628 7.29999 6.09961C7.29999 6.43294 7.2 6.73284 7 6.99951C6.86667 7.19951 6.63332 7.36618 6.29999 7.49951C6.03332 7.63284 5.69999 7.69946 5.29999 7.69946H2.79999ZM18.4 1.59961H14.6V16.9995H18.4V1.59961ZM21.3 1.59961V4.89941H27.4L20.2 16.9995H32.6V13.7996H26.1L33.3 1.59961H21.3ZM49.6 1.59961H46V10.2996L35.4 0.799561V16.9995H38.9V8.29956L49.6 17.7996V1.59961ZM56.6 1.59961H52.8V16.9995H56.6V1.59961ZM74.1 1.59961H70.5V10.1995L59.9 0.799561V16.9995H63.4V8.29956L74.1 17.6995V1.59961ZM85 8.59961V11.4995H89.1C88.9667 11.8995 88.7667 12.2663 88.5 12.5996C88.3 12.9329 88.0333 13.2328 87.7 13.4995C87.3667 13.7662 86.9667 13.9663 86.5 14.0996C86.0333 14.2329 85.5333 14.2996 85 14.2996C84.0667 14.2996 83.2667 14.0995 82.6 13.6995C81.9333 13.2995 81.3667 12.7328 80.9 11.9995C80.5 11.2662 80.3 10.3662 80.3 9.29956C80.3 8.29956 80.5333 7.4328 81 6.69946C81.4 6.0328 81.9667 5.49961 82.7 5.09961C83.3667 4.69961 84.1333 4.49951 85 4.49951C85.9333 4.49951 86.6667 4.69961 87.2 5.09961C87.8 5.49961 88.3 6.0328 88.7 6.69946L92 4.89941C91.4667 4.23275 90.8667 3.59951 90.2 2.99951C89.5333 2.46618 88.7667 2.06623 87.9 1.79956C87.0333 1.46623 86.0667 1.29956 85 1.29956C83.8 1.29956 82.6667 1.49941 81.6 1.89941C80.6 2.23275 79.7 2.76618 78.9 3.49951C78.1 4.16618 77.5 4.99951 77.1 5.99951C76.7 6.99951 76.5 8.09956 76.5 9.29956C76.5 10.5662 76.7 11.6995 77.1 12.6995C77.5 13.6995 78.0667 14.5662 78.8 15.2996C79.6 16.0329 80.5 16.5995 81.5 16.9995C82.5 17.3328 83.6333 17.4995 84.9 17.4995C86.1667 17.4995 87.3333 17.2662 88.4 16.7996C89.4 16.3329 90.2333 15.6994 90.9 14.8994C91.5667 14.0994 92.0667 13.1663 92.4 12.0996C92.7333 11.0329 92.8667 9.86628 92.8 8.59961H85ZM104.9 9.29956C104.9 8.43289 105.067 7.63275 105.4 6.89941C105.8 6.23275 106.3 5.69956 106.9 5.29956C107.567 4.89956 108.333 4.69946 109.2 4.69946C110.133 4.69946 110.933 4.89956 111.6 5.29956C112.2 5.69956 112.667 6.23275 113 6.89941C113.4 7.63275 113.6 8.43289 113.6 9.29956C113.6 10.2329 113.4 11.0662 113 11.7996C112.667 12.4662 112.167 12.9994 111.5 13.3994C110.833 13.7994 110.067 13.9995 109.2 13.9995C108.333 13.9995 107.567 13.7994 106.9 13.3994C106.3 12.9994 105.8 12.4662 105.4 11.7996C105.067 11.0662 104.9 10.2329 104.9 9.29956ZM100.9 9.29956C100.9 10.4996 101.1 11.5996 101.5 12.5996C101.967 13.5996 102.567 14.4661 103.3 15.1995C104.033 15.9328 104.9 16.4994 105.9 16.8994C106.9 17.2994 108 17.4995 109.2 17.4995C110.4 17.4995 111.533 17.2994 112.6 16.8994C113.6 16.4994 114.467 15.9328 115.2 15.1995C115.933 14.4661 116.5 13.5996 116.9 12.5996C117.3 11.5996 117.5 10.4996 117.5 9.29956C117.5 8.16623 117.3 7.09961 116.9 6.09961C116.5 5.09961 115.933 4.23285 115.2 3.49951C114.4 2.83284 113.5 2.29941 112.5 1.89941C111.5 1.49941 110.4 1.29956 109.2 1.29956C108.067 1.29956 107 1.49941 106 1.89941C104.933 2.29941 104.033 2.83284 103.3 3.49951C102.567 4.23285 102 5.09961 101.6 6.09961C101.133 7.09961 100.9 8.16623 100.9 9.29956ZM134.1 1.59961H130.5V10.2996L119.9 0.899414V16.9995H123.5V8.39941L134.1 17.7996V1.59961ZM141.1 1.59961H137.4V16.9995H147.3V13.7996H141.1V1.59961ZM152.3 11.1995L152.1 14.0996H160.2L160 11.1995H152.3ZM153.9 12.1995L156 7.29956L158.2 12.2996L158.1 13.1995L159.9 16.9995H164.1L156 0.699463L147.9 16.9995H152.1L154 13.0996L153.9 12.1995ZM177.2 1.49951H172.9L169.9 7.29956L166.9 1.49951H162.6L168 10.6995V16.8994H171.8V10.6995L177.2 1.49951ZM193 1.49951H189.4V10.0996L178.8 0.699463V16.8994H182.4V8.19946L193 17.5996V1.49951ZM206.7 1.49951H202.9V16.8994H206.7V1.49951ZM216.3 1.49951H212L205.6 8.89941L212.1 16.8994H216.6L210.1 8.79956L216.3 1.49951ZM221.8 1.49951H218.1V11.7996C218.1 12.7329 218.267 13.5662 218.6 14.2996C218.867 15.0329 219.3 15.6329 219.9 16.0996C220.433 16.5663 221.1 16.8996 221.9 17.0996C222.633 17.3663 223.433 17.4995 224.3 17.4995C225.167 17.4995 225.967 17.3663 226.7 17.0996C227.433 16.8996 228.1 16.5663 228.7 16.0996C229.233 15.6329 229.667 15.0329 230 14.2996C230.333 13.5662 230.5 12.7329 230.5 11.7996V1.49951H226.8V11.4995C226.8 12.2995 226.567 12.9327 226.1 13.3994C225.7 13.8661 225.1 14.0996 224.3 14.0996C223.433 14.0996 222.8 13.8661 222.4 13.3994C222 12.9327 221.8 12.2995 221.8 11.4995V1.49951ZM241.3 9.99951H237.5L241.8 16.8994H246.1L241.3 9.99951ZM237.4 1.59961H233.6V16.9995H237.4V1.59961ZM236 1.59961V4.69946H239C239.467 4.69946 239.9 4.79951 240.3 4.99951C240.633 5.13284 240.9 5.36613 241.1 5.69946C241.3 5.96613 241.4 6.33289 241.4 6.79956C241.4 7.19956 241.3 7.56608 241.1 7.89941C240.9 8.16608 240.633 8.39961 240.3 8.59961C239.9 8.73294 239.467 8.79956 239 8.79956H236V11.6995H239.3C240.567 11.6995 241.667 11.4662 242.6 10.9995C243.467 10.5995 244.133 10.0329 244.6 9.29956C245 8.49956 245.2 7.59961 245.2 6.59961C245.2 5.59961 245 4.73285 244.6 3.99951C244.133 3.26618 243.467 2.66613 242.6 2.19946C241.667 1.79946 240.567 1.59961 239.3 1.59961H236ZM249.5 11.5996L247 13.4995C247.333 14.2328 247.8 14.8995 248.4 15.4995C249.067 16.0995 249.8 16.5995 250.6 16.9995C251.467 17.3328 252.4 17.4995 253.4 17.4995C254.133 17.4995 254.833 17.3995 255.5 17.1995C256.233 16.9328 256.867 16.5995 257.4 16.1995C257.933 15.7995 258.333 15.2995 258.6 14.6995C258.933 14.0995 259.1 13.3996 259.1 12.5996C259.1 11.9996 259 11.4327 258.8 10.8994C258.6 10.4327 258.333 9.99961 258 9.59961C257.6 9.19961 257.167 8.86628 256.7 8.59961C256.233 8.33294 255.733 8.09941 255.2 7.89941C254.467 7.63275 253.867 7.39946 253.4 7.19946C252.867 6.99946 252.467 6.76618 252.2 6.49951C251.933 6.23284 251.8 5.89951 251.8 5.49951C251.8 5.16618 251.933 4.89946 252.2 4.69946C252.467 4.49946 252.867 4.39941 253.4 4.39941C253.8 4.39941 254.167 4.46628 254.5 4.59961C254.833 4.73294 255.167 4.9328 255.5 5.19946C255.767 5.46613 256 5.79946 256.2 6.19946L259.1 4.59961C258.833 4.06628 258.433 3.53285 257.9 2.99951C257.433 2.53285 256.8 2.13289 256 1.79956C255.267 1.39956 254.4 1.19946 253.4 1.19946C252.4 1.19946 251.467 1.39956 250.6 1.79956C249.8 2.13289 249.167 2.63289 248.7 3.29956C248.233 3.96623 248 4.73294 248 5.59961C248 6.39961 248.133 7.06628 248.4 7.59961C248.667 8.13294 249.033 8.56608 249.5 8.89941C249.9 9.29941 250.333 9.63275 250.8 9.89941C251.333 10.0994 251.767 10.2661 252.1 10.3994C252.833 10.6661 253.433 10.8996 253.9 11.0996C254.367 11.3663 254.7 11.6327 254.9 11.8994C255.1 12.0994 255.2 12.3996 255.2 12.7996C255.2 13.2662 255.033 13.6327 254.7 13.8994C254.3 14.1661 253.833 14.2996 253.3 14.2996C252.833 14.2996 252.367 14.1995 251.9 13.9995C251.433 13.7995 251 13.4662 250.6 12.9995C250.2 12.5995 249.833 12.1329 249.5 11.5996ZM265.3 1.59961H261.6V16.9995H271.5V13.7996H265.3V1.59961ZM276.6 11.1995L276.3 13.9995H284.4L284.2 11.1995H276.6ZM278.2 12.1995L280.4 7.29956L282.5 12.2996L282.4 13.1995L284.3 16.9995H288.5L280.4 0.599609L272.3 16.9995H276.5L278.4 13.0996L278.2 12.1995ZM297.8 9.99951H293.9L298.2 16.8994H302.6L297.8 9.99951ZM293.8 1.59961H290.1V16.9995H293.8V1.59961ZM292.4 1.59961V4.69946H295.4C295.933 4.69946 296.367 4.79951 296.7 4.99951C297.1 5.13284 297.367 5.36613 297.5 5.69946C297.7 5.96613 297.8 6.33289 297.8 6.79956C297.8 7.19956 297.7 7.56608 297.5 7.89941C297.367 8.16608 297.1 8.39961 296.7 8.59961C296.367 8.73294 295.933 8.79956 295.4 8.79956H292.4V11.6995H295.7C297.033 11.6995 298.133 11.4662 299 10.9995C299.867 10.5995 300.533 10.0329 301 9.29956C301.467 8.49956 301.7 7.59961 301.7 6.59961C301.7 5.59961 301.467 4.73285 301 3.99951C300.533 3.26618 299.867 2.66613 299 2.19946C298.133 1.79946 297.033 1.59961 295.7 1.59961H292.4ZM308.1 1.59961H304.3V16.9995H308.1V1.59961ZM314.4 16.9995L315.3 9.09961L319.5 15.5996L323.7 9.09961L324.6 16.9995H328.6L326.1 0.799561L319.5 10.1995L312.9 0.799561L310.5 16.9995H314.4ZM334.7 1.59961H330.9V16.9995H334.7V1.59961ZM337.6 1.59961V4.89941H343.7L336.5 16.9995H348.9V13.7996H342.4L349.7 1.59961H337.6Z" fill="#005DF7"/>
</svg>
