<svg width="231" height="18" viewBox="0 0 231 18" fill="none" xmlns="http://www.w3.org/2000/svg">
<path d="M3.50018 7.69971V9.29932H6.30017C7.36684 9.29932 8.33353 9.16608 9.2002 8.89941C10.0002 8.56608 10.6335 8.13294 11.1002 7.59961C11.5669 6.99961 11.8002 6.29951 11.8002 5.49951C11.8002 4.63284 11.5669 3.89932 11.1002 3.29932C10.6335 2.76598 10.0002 2.33285 9.2002 1.99951C8.33353 1.73285 7.36684 1.59961 6.30017 1.59961H0.700195V16.9995H6.7002C7.9002 16.9995 8.96684 16.8663 9.90018 16.5996C10.7668 16.2663 11.4668 15.7997 12.0002 15.1997C12.4668 14.533 12.7002 13.6997 12.7002 12.6997C12.7002 11.8997 12.5335 11.233 12.2002 10.6997C11.8669 10.1664 11.4002 9.69932 10.8002 9.29932C10.2668 8.96598 9.63351 8.69951 8.90018 8.49951C8.16684 8.36618 7.43353 8.29932 6.7002 8.29932H3.50018V10.2993H6.30017C6.6335 10.2993 6.96684 10.3327 7.30017 10.3994C7.6335 10.4661 7.90019 10.5664 8.10019 10.6997C8.36686 10.833 8.56686 11.0326 8.7002 11.2993C8.83353 11.566 8.90018 11.8329 8.90018 12.0996C8.90018 12.6329 8.76685 13.0326 8.50018 13.2993C8.30018 13.566 8.00019 13.7661 7.60019 13.8994C7.20019 14.0327 6.76684 14.0996 6.30017 14.0996H4.40018V4.49951H5.90018C6.56684 4.49951 7.06684 4.63275 7.40018 4.89941C7.80018 5.16608 8.00018 5.56628 8.00018 6.09961C8.00018 6.43294 7.9002 6.73284 7.7002 6.99951C7.56686 7.19951 7.33352 7.36618 7.00018 7.49951C6.73352 7.63284 6.36684 7.69971 5.90018 7.69971H3.50018ZM19.2002 1.59961H15.4002V16.9995H19.2002V1.59961ZM22.0002 1.59961V4.89941H28.2002L21.0002 16.9995H33.3002V13.7993H26.8002L34.1002 1.59961H22.0002ZM50.3002 1.59961H46.7002V10.2993L36.0002 0.799316V16.9995H39.6002V8.29932L50.3002 17.7993V1.59961ZM57.3002 1.59961H53.5002V16.9995H57.3002V1.59961ZM74.8002 1.59961H71.2002V10.1997L60.5002 0.799316V16.9995H64.1002V8.29932L74.8002 17.6997V1.59961ZM85.7002 8.59961V11.4995H89.7002C89.5669 11.8995 89.4002 12.2663 89.2002 12.5996C89.0002 12.9329 88.7335 13.2328 88.4002 13.4995C88.0668 13.7662 87.6669 13.9663 87.2002 14.0996C86.7335 14.2329 86.2335 14.2993 85.7002 14.2993C84.7669 14.2993 83.9668 14.0997 83.3002 13.6997C82.5668 13.2997 82.0002 12.7328 81.6002 11.9995C81.2002 11.2662 81.0002 10.366 81.0002 9.29932C81.0002 8.29932 81.2002 7.43304 81.6002 6.69971C82.0669 6.03304 82.6335 5.49961 83.3002 5.09961C84.0335 4.69961 84.8335 4.49951 85.7002 4.49951C86.5669 4.49951 87.3002 4.69961 87.9002 5.09961C88.5002 5.49961 88.9668 6.03304 89.3002 6.69971L92.6002 4.89941C92.1335 4.23275 91.5668 3.59951 90.9002 2.99951C90.2335 2.46618 89.4669 2.03304 88.6002 1.69971C87.7335 1.43304 86.7669 1.29932 85.7002 1.29932C84.5002 1.29932 83.3668 1.49941 82.3002 1.89941C81.2335 2.23275 80.3335 2.76618 79.6002 3.49951C78.8002 4.16618 78.2002 4.99951 77.8002 5.99951C77.3335 6.99951 77.1002 8.09932 77.1002 9.29932C77.1002 10.566 77.3335 11.6997 77.8002 12.6997C78.2002 13.6997 78.7669 14.566 79.5002 15.2993C80.2335 16.0326 81.1335 16.5995 82.2002 16.9995C83.2002 17.3328 84.3335 17.4995 85.6002 17.4995C86.8669 17.4995 88.0002 17.266 89.0002 16.7993C90.0668 16.3327 90.9335 15.6994 91.6002 14.8994C92.2669 14.0994 92.7669 13.1663 93.1002 12.0996C93.3669 11.0329 93.4668 9.86628 93.4002 8.59961H85.7002ZM105.6 16.9995L106.6 9.19971L110.8 15.5996L115 9.19971L115.9 16.9995H119.8L117.4 0.899414L110.8 10.2993L104.2 0.899414L101.7 16.9995H105.6ZM126 1.59961H122.2V16.9995H126V1.59961ZM130.9 11.5996L128.3 13.4995C128.7 14.2328 129.2 14.8995 129.8 15.4995C130.467 16.0995 131.2 16.5995 132 16.9995C132.867 17.3328 133.8 17.4995 134.8 17.4995C135.534 17.4995 136.234 17.3997 136.9 17.1997C137.634 16.9997 138.234 16.6993 138.7 16.2993C139.3 15.8993 139.734 15.3993 140 14.7993C140.334 14.1326 140.5 13.433 140.5 12.6997C140.5 12.033 140.4 11.4327 140.2 10.8994C140 10.4327 139.7 9.99961 139.3 9.59961C138.967 9.26628 138.567 8.96637 138.1 8.69971C137.633 8.36637 137.134 8.09941 136.6 7.89941C135.867 7.69941 135.234 7.46637 134.7 7.19971C134.234 6.99971 133.867 6.76618 133.6 6.49951C133.334 6.23284 133.2 5.93294 133.2 5.59961C133.2 5.26628 133.334 4.96637 133.6 4.69971C133.867 4.49971 134.267 4.39941 134.8 4.39941C135.2 4.39941 135.567 4.46628 135.9 4.59961C136.234 4.79961 136.567 5.03265 136.9 5.29932C137.167 5.56598 137.4 5.86637 137.6 6.19971L140.5 4.59961C140.234 4.06628 139.834 3.56628 139.3 3.09961C138.834 2.56628 138.2 2.13265 137.4 1.79932C136.667 1.46598 135.8 1.29932 134.8 1.29932C133.8 1.29932 132.867 1.46598 132 1.79932C131.2 2.13265 130.567 2.63265 130.1 3.29932C129.634 3.96598 129.4 4.76637 129.4 5.69971C129.4 6.43304 129.534 7.06628 129.8 7.59961C130.067 8.13294 130.434 8.59951 130.9 8.99951C131.3 9.33284 131.734 9.63275 132.2 9.89941C132.667 10.0994 133.1 10.2661 133.5 10.3994C134.234 10.7327 134.834 10.9997 135.3 11.1997C135.767 11.3997 136.1 11.6327 136.3 11.8994C136.5 12.0994 136.6 12.3993 136.6 12.7993C136.6 13.266 136.434 13.6662 136.1 13.9995C135.7 14.2662 135.234 14.3994 134.7 14.3994C134.167 14.3994 133.667 14.2662 133.2 13.9995C132.8 13.7995 132.4 13.4996 132 13.0996C131.6 12.6996 131.234 12.1996 130.9 11.5996ZM144.7 11.5996L142.1 13.4995C142.433 14.2328 142.933 14.8995 143.6 15.4995C144.2 16.0995 144.934 16.5995 145.8 16.9995C146.667 17.3328 147.6 17.4995 148.6 17.4995C149.333 17.4995 150.034 17.3997 150.7 17.1997C151.367 16.9997 151.967 16.6993 152.5 16.2993C153.034 15.8993 153.467 15.3993 153.8 14.7993C154.133 14.1326 154.3 13.433 154.3 12.6997C154.3 12.033 154.167 11.4327 153.9 10.8994C153.7 10.4327 153.433 9.99961 153.1 9.59961C152.767 9.26628 152.367 8.96637 151.9 8.69971C151.434 8.36637 150.9 8.09941 150.3 7.89941C149.633 7.69941 149.034 7.46637 148.5 7.19971C147.967 6.99971 147.567 6.76618 147.3 6.49951C147.034 6.23284 146.9 5.93294 146.9 5.59961C146.9 5.26628 147.034 4.96637 147.3 4.69971C147.633 4.49971 148.067 4.39941 148.6 4.39941C148.933 4.39941 149.3 4.46628 149.7 4.59961C150.034 4.79961 150.333 5.03265 150.6 5.29932C150.867 5.56598 151.134 5.86637 151.4 6.19971L154.2 4.59961C153.934 4.06628 153.567 3.56628 153.1 3.09961C152.567 2.56628 151.934 2.13265 151.2 1.79932C150.467 1.46598 149.567 1.29932 148.5 1.29932C147.5 1.29932 146.6 1.46598 145.8 1.79932C145 2.13265 144.334 2.63265 143.8 3.29932C143.334 3.96598 143.1 4.76637 143.1 5.69971C143.1 6.43304 143.267 7.06628 143.6 7.59961C143.867 8.13294 144.2 8.59951 144.6 8.99951C145.067 9.33284 145.534 9.63275 146 9.89941C146.467 10.0994 146.867 10.2661 147.2 10.3994C148 10.7327 148.6 10.9997 149 11.1997C149.467 11.3997 149.8 11.6327 150 11.8994C150.2 12.0994 150.3 12.3993 150.3 12.7993C150.3 13.266 150.133 13.6662 149.8 13.9995C149.467 14.2662 149.034 14.3994 148.5 14.3994C147.967 14.3994 147.467 14.2662 147 13.9995C146.534 13.7995 146.1 13.4996 145.7 13.0996C145.3 12.6996 144.967 12.1996 144.7 11.5996ZM160.5 1.59961H156.7V16.9995H160.5V1.59961ZM176.7 1.59961H172.4L169.4 7.39941L166.4 1.59961H162.1L167.5 10.7993V16.9995H171.3V10.7993L176.7 1.59961ZM178.8 11.1997L178.5 13.9995H186.7L186.4 11.1997H178.8ZM180.4 12.1997L182.6 7.19971L184.8 12.1997L184.6 13.1997L186.5 16.9995H190.7L182.6 0.599609L174.5 16.9995H178.7L180.6 12.9995L180.4 12.1997ZM195.3 16.9995L196.2 9.09961L200.5 15.5996L204.7 9.09961L205.6 16.9995H209.5L207 0.799316L200.5 10.1997L193.9 0.799316L191.4 16.9995H195.3ZM215.7 1.59961H211.9V16.9995H215.7V1.59961ZM218.5 1.59961V4.89941H224.7L217.5 16.9995H229.8V13.7993H223.3L230.6 1.59961H218.5Z" fill="#1335E0"/>
</svg>
