<svg width="29" height="16" viewBox="0 0 29 16" fill="none" xmlns="http://www.w3.org/2000/svg">
<path d="M2.29944 5.70078V6.60078H4.09937C4.76603 6.60078 5.36608 6.50078 5.89941 6.30078C6.36608 6.10078 6.73272 5.83411 6.99939 5.50078C7.33272 5.10078 7.49939 4.63411 7.49939 4.10078C7.49939 3.50078 7.33272 3.03411 6.99939 2.70078C6.73272 2.30078 6.36608 2.00078 5.89941 1.80078C5.36608 1.60078 4.76603 1.50078 4.09937 1.50078H0.899414V12.0008H4.29944C5.03277 12.0008 5.66601 11.9008 6.19934 11.7008C6.79934 11.5008 7.26603 11.1674 7.59937 10.7008C7.9327 10.2341 8.09937 9.66745 8.09937 9.00078C8.09937 8.46744 7.99944 8.03411 7.79944 7.70078C7.59944 7.30078 7.29941 7.00078 6.89941 6.80078C6.56608 6.53411 6.16601 6.36745 5.69934 6.30078C5.23267 6.16745 4.76611 6.10078 4.29944 6.10078H2.29944V7.10078H4.19934C4.46601 7.10078 4.73272 7.13411 4.99939 7.20078C5.26606 7.26744 5.49934 7.36744 5.69934 7.50078C5.83267 7.63411 5.96603 7.80078 6.09937 8.00078C6.16603 8.26745 6.19934 8.53411 6.19934 8.80078C6.19934 9.20078 6.13272 9.53411 5.99939 9.80078C5.79939 10.0008 5.53267 10.1674 5.19934 10.3008C4.93267 10.4341 4.59934 10.5008 4.19934 10.5008H2.69934V3.00078H3.99939C4.46606 3.00078 4.86601 3.10078 5.19934 3.30078C5.46601 3.56745 5.59937 3.90078 5.59937 4.30078C5.59937 4.63411 5.53275 4.90078 5.39941 5.10078C5.26608 5.30078 5.06611 5.43411 4.79944 5.50078C4.59944 5.63411 4.33272 5.70078 3.99939 5.70078H2.29944ZM11.3994 0.300781H9.79944V12.0008H11.3994V0.300781ZM12.9994 8.50078C12.9994 9.23411 13.1661 9.86745 13.4994 10.4008C13.7661 10.9341 14.1994 11.3674 14.7994 11.7008C15.3328 12.0341 15.966 12.2008 16.6993 12.2008C17.4327 12.2008 18.066 12.0341 18.5994 11.7008C19.1327 11.3674 19.5661 10.9341 19.8994 10.4008C20.2327 9.86745 20.3994 9.23411 20.3994 8.50078C20.3994 7.83411 20.2327 7.23411 19.8994 6.70078C19.5661 6.16744 19.1327 5.73411 18.5994 5.40078C18.066 5.13411 17.4327 5.00078 16.6993 5.00078C15.966 5.00078 15.3328 5.13411 14.7994 5.40078C14.1994 5.73411 13.7661 6.16744 13.4994 6.70078C13.1661 7.23411 12.9994 7.83411 12.9994 8.50078ZM14.5994 8.50078C14.5994 8.10078 14.6994 7.73411 14.8994 7.40078C15.0994 7.06745 15.3327 6.80078 15.5994 6.60078C15.9327 6.46744 16.2993 6.40078 16.6993 6.40078C17.0993 6.40078 17.4327 6.46744 17.6993 6.60078C18.0327 6.80078 18.2994 7.06745 18.4994 7.40078C18.6327 7.73411 18.6993 8.10078 18.6993 8.50078C18.6993 8.96744 18.6327 9.36744 18.4994 9.70078C18.2994 10.0341 18.0327 10.3008 17.6993 10.5008C17.4327 10.6341 17.0993 10.7008 16.6993 10.7008C16.2993 10.7008 15.9327 10.6341 15.5994 10.5008C15.3327 10.3008 15.0994 10.0341 14.8994 9.70078C14.6994 9.36744 14.5994 8.96744 14.5994 8.50078ZM23.1993 12.5008H21.5994C21.5994 13.1008 21.7327 13.6341 21.9994 14.1008C22.3327 14.5008 22.7661 14.8341 23.2994 15.1008C23.8328 15.3674 24.466 15.5008 25.1993 15.5008C25.7993 15.5008 26.3661 15.3674 26.8994 15.1008C27.4327 14.8341 27.866 14.4341 28.1993 13.9008C28.5327 13.3674 28.6993 12.6674 28.6993 11.8008V5.10078H27.0994V11.8008C27.0994 12.3341 26.9994 12.7674 26.7994 13.1008C26.6661 13.4341 26.4327 13.7008 26.0994 13.9008C25.766 14.0341 25.4327 14.1008 25.0994 14.1008C24.766 14.1008 24.4327 14.0341 24.0994 13.9008C23.8327 13.7674 23.5994 13.5674 23.3994 13.3008C23.2661 13.0341 23.1993 12.7674 23.1993 12.5008ZM21.3994 8.50078C21.3994 9.23411 21.5661 9.86745 21.8994 10.4008C22.2327 10.9341 22.6327 11.3674 23.0994 11.7008C23.6327 11.9674 24.1994 12.1008 24.7994 12.1008C25.3994 12.1008 25.8994 11.9674 26.2994 11.7008C26.7661 11.3674 27.0994 10.9341 27.2994 10.4008C27.5661 9.86745 27.6993 9.23411 27.6993 8.50078C27.6993 7.76744 27.5661 7.13411 27.2994 6.60078C27.0994 6.06744 26.7661 5.66745 26.2994 5.40078C25.8994 5.13411 25.3994 5.00078 24.7994 5.00078C24.1994 5.00078 23.6327 5.13411 23.0994 5.40078C22.6327 5.66745 22.2327 6.06744 21.8994 6.60078C21.5661 7.13411 21.3994 7.76744 21.3994 8.50078ZM23.0994 8.50078C23.0994 8.03411 23.1994 7.63411 23.3994 7.30078C23.5994 7.03411 23.8327 6.80078 24.0994 6.60078C24.4327 6.46744 24.7993 6.40078 25.1993 6.40078C25.3993 6.40078 25.6327 6.43411 25.8994 6.50078C26.0994 6.56744 26.2994 6.70078 26.4994 6.90078C26.6994 7.10078 26.8661 7.33411 26.9994 7.60078C27.0661 7.86744 27.0994 8.16744 27.0994 8.50078C27.0994 8.96744 26.9994 9.36744 26.7994 9.70078C26.6661 10.0341 26.4327 10.2674 26.0994 10.4008C25.8327 10.6008 25.5327 10.7008 25.1993 10.7008C24.7993 10.7008 24.4327 10.6008 24.0994 10.4008C23.8327 10.2674 23.5994 10.0341 23.3994 9.70078C23.1994 9.36744 23.0994 8.96744 23.0994 8.50078Z" fill="#202020"/>
</svg>
