<svg width="101" height="16" viewBox="0 0 101 16" fill="none" xmlns="http://www.w3.org/2000/svg">
<path d="M5.19995 15H0V0.799805H4.90002C6.50002 0.799805 7.73331 1.1002 8.59998 1.7002C9.39998 2.36686 9.80005 3.33294 9.80005 4.59961C9.80005 5.26628 9.63338 5.86706 9.30005 6.40039C8.96672 6.93372 8.46672 7.33294 7.80005 7.59961C8.53338 7.79961 9.13331 8.1998 9.59998 8.7998C9.99998 9.33314 10.2 9.9998 10.2 10.7998C10.2 12.1998 9.76669 13.2337 8.90002 13.9004C8.03336 14.6337 6.79995 15 5.19995 15ZM5.5 8.59961H2.5V13H5.30005C6.03338 13 6.63331 12.8333 7.09998 12.5C7.49998 12.1 7.69995 11.5331 7.69995 10.7998C7.69995 9.33314 6.96667 8.59961 5.5 8.59961ZM2.5 2.7998V6.7998H4.90002C5.70002 6.7998 6.29995 6.6002 6.69995 6.2002C7.16662 5.86686 7.40002 5.3998 7.40002 4.7998C7.40002 4.06647 7.20005 3.53353 6.80005 3.2002C6.40005 2.93353 5.76669 2.7998 4.90002 2.7998H2.5ZM24 7.5V8.2998C24 9.6998 23.7667 10.9004 23.3 11.9004C22.8334 12.9671 22.1333 13.8004 21.2 14.4004C20.3333 14.9337 19.3 15.2002 18.1 15.2002C16.9666 15.2002 15.9333 14.9337 15 14.4004C14.1333 13.8004 13.4667 12.9671 13 11.9004C12.4667 10.9004 12.2 9.6998 12.2 8.2998V7.5C12.2 6.16667 12.4334 4.96706 12.9 3.90039C13.4334 2.83372 14.1333 2.00039 15 1.40039C15.9333 0.867057 16.9666 0.599609 18.1 0.599609C19.2333 0.599609 20.2666 0.867057 21.2 1.40039C22.0666 2.00039 22.7667 2.7998 23.3 3.7998C23.7667 4.86647 24 6.1 24 7.5ZM21.5 8.2998V7.5C21.5 5.96667 21.2 4.76706 20.6 3.90039C20 3.03372 19.1666 2.59961 18.1 2.59961C17.0333 2.59961 16.2 3.03372 15.6 3.90039C15 4.70039 14.7 5.86706 14.7 7.40039V8.2998C14.7 9.83314 15 11.0337 15.6 11.9004C16.2 12.7671 17.0333 13.2002 18.1 13.2002C19.2333 13.2002 20.0666 12.7671 20.6 11.9004C21.2 11.1004 21.5 9.89981 21.5 8.2998ZM33.9 11.2998C33.9 10.6998 33.6666 10.2337 33.2 9.90039C32.7999 9.56706 32.0334 9.23372 30.9 8.90039C29.7 8.50039 28.7666 8.1002 28.1 7.7002C26.8333 6.9002 26.2 5.83333 26.2 4.5C26.2 3.36667 26.6666 2.43353 27.6 1.7002C28.5333 0.966862 29.7333 0.599609 31.2 0.599609C32.2 0.599609 33.1 0.766276 33.9 1.09961C34.6334 1.49961 35.2333 2.03353 35.7 2.7002C36.1666 3.36686 36.4 4.10039 36.4 4.90039H33.9C33.9 4.16706 33.6666 3.6002 33.2 3.2002C32.7333 2.8002 32.0666 2.59961 31.2 2.59961C30.4 2.59961 29.7667 2.76628 29.3 3.09961C28.9 3.43294 28.7 3.9 28.7 4.5C28.7 5.03333 28.9334 5.46647 29.4 5.7998C29.8667 6.13314 30.6667 6.46647 31.8 6.7998C32.8667 7.13314 33.7334 7.53333 34.4 8C35.0667 8.4 35.5667 8.86706 35.9 9.40039C36.2334 9.93372 36.4 10.5665 36.4 11.2998C36.4 12.4998 35.9333 13.4669 35 14.2002C34.0667 14.8669 32.8334 15.2002 31.3 15.2002C30.3 15.2002 29.3667 14.9996 28.5 14.5996C27.6333 14.2663 26.9667 13.7333 26.5 13C25.9667 12.3333 25.7 11.5669 25.7 10.7002H28.2C28.2 11.5002 28.4667 12.1329 29 12.5996C29.5333 12.9996 30.3 13.2002 31.3 13.2002C32.1667 13.2002 32.7999 13.0335 33.2 12.7002C33.6666 12.3669 33.9 11.8998 33.9 11.2998ZM49.8 0.799805V15H47.4V8.7002H41V15H38.5V0.799805H41V6.7002H47.4V0.799805H49.8ZM55.2 0.799805V13H61.6V15H52.7V0.799805H55.2ZM72.8 15L71.7 11.7002H66.2L65 15H62.5L67.8 0.799805H70L75.4 15H72.8ZM68.9 3.7998L66.8 9.7002H71L68.9 3.7998ZM84.4 11.2998C84.4 10.6998 84.1666 10.2337 83.7 9.90039C83.2999 9.56706 82.5334 9.23372 81.4 8.90039C80.2 8.50039 79.2666 8.1002 78.6 7.7002C77.3333 6.9002 76.7 5.83333 76.7 4.5C76.7 3.36667 77.1666 2.43353 78.1 1.7002C79.0333 0.966862 80.2333 0.599609 81.7 0.599609C82.7 0.599609 83.6 0.766276 84.4 1.09961C85.1334 1.49961 85.7333 2.03353 86.2 2.7002C86.6666 3.36686 86.9 4.10039 86.9 4.90039H84.4C84.4 4.16706 84.1666 3.6002 83.7 3.2002C83.2333 2.8002 82.5666 2.59961 81.7 2.59961C80.8999 2.59961 80.2667 2.76628 79.8 3.09961C79.4 3.43294 79.2 3.9 79.2 4.5C79.2 5.03333 79.4334 5.46647 79.9 5.7998C80.3667 6.13314 81.1667 6.46647 82.3 6.7998C83.3667 7.13314 84.2334 7.53333 84.9 8C85.5667 8.4 86.0667 8.86706 86.4 9.40039C86.7334 9.93372 86.9 10.5665 86.9 11.2998C86.9 12.4998 86.4333 13.4329 85.5 14.0996C84.5667 14.8329 83.3334 15.2002 81.8 15.2002C80.8 15.2002 79.8667 14.9996 79 14.5996C78.1333 14.2663 77.4667 13.7333 77 13C76.4667 12.3333 76.2 11.5669 76.2 10.7002H78.7C78.7 11.5002 78.9667 12.1329 79.5 12.5996C80.0333 12.9996 80.8 13.2002 81.8 13.2002C82.6667 13.2002 83.2999 13.0335 83.7 12.7002C84.1666 12.3669 84.4 11.8998 84.4 11.2998ZM100.3 0.799805V15H97.9V8.7002H91.5V15H89V0.799805H91.5V6.7002H97.9V0.799805H100.3Z" fill="#FEFEFE"/>
</svg>
