<svg width="36" height="12" viewBox="0 0 36 12" fill="none" xmlns="http://www.w3.org/2000/svg">
<path d="M7.39966 7.59937H8.89966C8.76632 8.7327 8.33294 9.59922 7.59961 10.1992C6.93294 10.7992 5.99962 11.0994 4.79962 11.0994C3.53295 11.0994 2.53295 10.666 1.79962 9.79932C0.999622 8.86598 0.599609 7.66589 0.599609 6.19922V5.09937C0.599609 4.16603 0.799646 3.29927 1.19965 2.49927C1.53298 1.76593 2.03298 1.19932 2.69965 0.799316C3.36631 0.399316 4.09966 0.199219 4.89966 0.199219C6.03299 0.199219 6.96631 0.499365 7.69965 1.09937C8.36631 1.76603 8.76632 2.66598 8.89966 3.79932H7.39966C7.33299 2.93265 7.06628 2.29917 6.59961 1.89917C6.19961 1.49917 5.63299 1.29932 4.89966 1.29932C4.03299 1.29932 3.33295 1.63265 2.79962 2.29932C2.33295 2.96598 2.09961 3.93255 2.09961 5.19922V6.19922C2.09961 7.33255 2.33295 8.26593 2.79962 8.99927C3.26629 9.66593 3.93295 9.99927 4.79962 9.99927C5.59962 9.99927 6.19961 9.8326 6.59961 9.49927C6.99961 9.09927 7.26632 8.46603 7.39966 7.59937ZM16.7996 4.89917V6.09937H12.1996V9.89917H17.5996V10.9993H10.7996V0.299316H17.4996V1.49927H12.1996V4.89917H16.7996ZM25.1996 5.09937V6.29932H20.6996V10.9993H19.2996V0.299316H25.8997V1.49927H20.6996V5.09937H25.1996ZM33.7996 10.9993L31.4996 6.69922H28.9996V10.9993H27.5996V0.299316H31.0996C32.2996 0.299316 33.233 0.599219 33.8997 1.19922C34.5663 1.73255 34.8997 2.49927 34.8997 3.49927C34.8997 4.16593 34.6996 4.76598 34.2996 5.29932C33.9663 5.76598 33.4663 6.1325 32.7996 6.39917L35.2996 10.8992V10.9993H33.7996ZM28.9996 1.49927V5.49927H31.1996C31.8663 5.49927 32.3996 5.3326 32.7996 4.99927C33.2663 4.66593 33.4996 4.16593 33.4996 3.49927C33.4996 2.89927 33.2997 2.39927 32.8997 1.99927C32.4997 1.66593 31.933 1.49927 31.1996 1.49927H28.9996Z" fill="white"/>
</svg>
