<svg width="100" height="12" viewBox="0 0 100 12" fill="none" xmlns="http://www.w3.org/2000/svg">
<path d="M6.9998 7.49902H8.79979C8.73312 8.63236 8.33314 9.53255 7.59981 10.1992C6.86647 10.7992 5.86647 11.0991 4.59981 11.0991C3.79981 11.0991 3.06646 10.899 2.3998 10.499C1.73313 10.099 1.23313 9.53216 0.899796 8.79883C0.566462 8.06549 0.366471 7.19922 0.299805 6.19922V5.19922C0.299805 4.19922 0.499796 3.33245 0.899796 2.59912C1.23313 1.79912 1.73313 1.19883 2.3998 0.798828C3.06646 0.398828 3.83315 0.199219 4.69981 0.199219C5.89981 0.199219 6.86647 0.499121 7.59981 1.09912C8.26647 1.76579 8.66646 2.69893 8.79979 3.89893H6.9998C6.86647 3.09893 6.63312 2.53255 6.29979 2.19922C5.96646 1.86589 5.43315 1.69922 4.69981 1.69922C3.89981 1.69922 3.2998 1.99912 2.8998 2.59912C2.43313 3.19912 2.1998 4.06589 2.1998 5.19922V6.09912C2.1998 7.23245 2.3998 8.09922 2.7998 8.69922C3.1998 9.36589 3.79981 9.69922 4.59981 9.69922C5.33314 9.69922 5.89979 9.53255 6.29979 9.19922C6.63312 8.86589 6.86647 8.29902 6.9998 7.49902ZM18.8998 0.298828V10.999H17.0998V6.29883H12.2998V10.999H10.4998V0.298828H12.2998V4.79883H17.0998V0.298828H18.8998ZM29.5998 5.39893V5.89893C29.5998 6.96559 29.3998 7.89922 28.9998 8.69922C28.6665 9.49922 28.1665 10.099 27.4998 10.499C26.8331 10.899 26.0665 11.0991 25.1998 11.0991C24.3331 11.0991 23.5665 10.899 22.8998 10.499C22.2331 10.099 21.6998 9.49922 21.2998 8.69922C20.9665 7.89922 20.7665 6.99902 20.6998 5.99902V5.39893C20.6998 4.33226 20.8998 3.43255 21.2998 2.69922C21.6331 1.89922 22.1665 1.26549 22.8998 0.798828C23.5665 0.398828 24.3331 0.199219 25.1998 0.199219C26.0665 0.199219 26.8331 0.398828 27.4998 0.798828C28.1665 1.19883 28.6665 1.79912 28.9998 2.59912C29.3998 3.39912 29.5998 4.33226 29.5998 5.39893ZM27.6998 5.89893V5.39893C27.6998 4.19893 27.4998 3.29922 27.0998 2.69922C26.6331 2.03255 25.9998 1.69922 25.1998 1.69922C24.3998 1.69922 23.7665 2.03255 23.2998 2.69922C22.8331 3.29922 22.5998 4.16549 22.5998 5.29883V5.89893C22.5998 7.09893 22.8331 8.03255 23.2998 8.69922C23.7665 9.29922 24.3998 9.59912 25.1998 9.59912C25.9998 9.59912 26.6331 9.29922 27.0998 8.69922C27.4998 8.03255 27.6998 7.09893 27.6998 5.89893ZM39.8998 5.39893V5.89893C39.8998 6.96559 39.7331 7.89922 39.3998 8.69922C39.0665 9.49922 38.5665 10.099 37.8998 10.499C37.1665 10.899 36.3665 11.0991 35.4998 11.0991C34.6331 11.0991 33.8665 10.899 33.1998 10.499C32.5331 10.099 32.0331 9.49922 31.6998 8.69922C31.2998 7.89922 31.0998 6.99902 31.0998 5.99902V5.39893C31.0998 4.33226 31.2665 3.43255 31.5998 2.69922C31.9998 1.89922 32.5331 1.26549 33.1998 0.798828C33.8665 0.398828 34.6331 0.199219 35.4998 0.199219C36.3665 0.199219 37.1331 0.398828 37.7998 0.798828C38.4665 1.19883 38.9998 1.79912 39.3998 2.59912C39.7331 3.39912 39.8998 4.33226 39.8998 5.39893ZM38.0998 5.89893V5.39893C38.0998 4.19893 37.8665 3.29922 37.3998 2.69922C36.9998 2.03255 36.3665 1.69922 35.4998 1.69922C34.6998 1.69922 34.0665 2.03255 33.5998 2.69922C33.1998 3.29922 32.9998 4.16549 32.9998 5.29883V5.89893C32.9998 7.09893 33.1998 8.03255 33.5998 8.69922C34.0665 9.29922 34.6998 9.59912 35.4998 9.59912C36.3665 9.59912 36.9998 9.29922 37.3998 8.69922C37.8665 8.03255 38.0998 7.09893 38.0998 5.89893ZM47.3998 8.29883C47.3998 7.83216 47.2331 7.46589 46.8998 7.19922C46.5665 6.93255 45.9665 6.66559 45.0998 6.39893C44.2331 6.13226 43.5331 5.83236 42.9998 5.49902C42.0665 4.89902 41.5998 4.09912 41.5998 3.09912C41.5998 2.29912 41.9331 1.59902 42.5998 0.999023C43.3331 0.46569 44.2665 0.199219 45.3998 0.199219C46.1331 0.199219 46.7665 0.332454 47.2998 0.599121C47.8998 0.865788 48.3665 1.26549 48.6998 1.79883C49.0331 2.26549 49.1998 2.79893 49.1998 3.39893H47.3998C47.3998 2.86559 47.1998 2.43245 46.7998 2.09912C46.4665 1.83245 45.9665 1.69922 45.2998 1.69922C44.6998 1.69922 44.2331 1.83245 43.8998 2.09912C43.5665 2.29912 43.3998 2.63245 43.3998 3.09912C43.3998 3.49912 43.5998 3.83245 43.9998 4.09912C44.3331 4.36579 44.9331 4.63226 45.7998 4.89893C46.5998 5.16559 47.2665 5.43255 47.7998 5.69922C48.2665 6.03255 48.6331 6.39883 48.8998 6.79883C49.0998 7.19883 49.1998 7.66589 49.1998 8.19922C49.1998 9.13255 48.8665 9.86559 48.1998 10.3989C47.5331 10.8656 46.5998 11.0991 45.3998 11.0991C44.6665 11.0991 43.9665 10.9659 43.2998 10.6992C42.6331 10.4326 42.1331 10.0324 41.7998 9.49902C41.4665 9.03236 41.2998 8.4655 41.2998 7.79883H43.0998C43.0998 8.39883 43.2998 8.86589 43.6998 9.19922C44.0998 9.53255 44.6665 9.69922 45.3998 9.69922C46.0665 9.69922 46.5665 9.56549 46.8998 9.29883C47.2331 9.03216 47.3998 8.69883 47.3998 8.29883ZM57.0998 4.79883V6.19922H52.6998V9.49902H57.7998V10.999H50.7998V0.298828H57.7998V1.79883H52.6998V4.79883H57.0998ZM67.0998 6.99902H64.8998V10.999H63.0998V0.298828H67.1998C68.3331 0.298828 69.2665 0.632161 69.9998 1.29883C70.7331 1.89883 71.0998 2.69922 71.0998 3.69922C71.0998 4.76589 70.7331 5.59922 69.9998 6.19922C69.3331 6.73255 68.3665 6.99902 67.0998 6.99902ZM64.8998 1.79883V5.59912H67.1998C67.8665 5.59912 68.3665 5.43245 68.6998 5.09912C69.0331 4.76579 69.1998 4.29922 69.1998 3.69922C69.1998 3.16589 69.0331 2.73226 68.6998 2.39893C68.2998 1.99893 67.7998 1.79883 67.1998 1.79883H64.8998ZM74.4998 0.298828V9.49902H79.2998V10.999H72.5998V0.298828H74.4998ZM87.7998 10.999L86.8998 8.49902H82.7998L81.8998 10.999H79.9998L83.9998 0.298828H85.6998L89.6998 10.999H87.7998ZM84.8998 2.59912L83.2998 6.99902H86.3998L84.8998 2.59912ZM99.4998 0.398926V10.999H97.5998L92.8998 3.49902V10.999H90.9998V0.398926H92.8998L97.5998 7.99902V0.398926H99.4998Z" fill="white"/>
</svg>
