<svg width="134" height="17" viewBox="0 0 134 17" fill="none" xmlns="http://www.w3.org/2000/svg">
<path d="M4.60034 9.00049C4.60034 8.13382 4.80032 7.40029 5.20032 6.80029C5.60032 6.20029 6.10032 5.73372 6.70032 5.40039C7.36698 5.06706 8.06708 4.90039 8.80042 4.90039C9.46708 4.90039 10.067 5.00068 10.6003 5.20068C11.067 5.33402 11.5004 5.53363 11.9004 5.80029C12.3004 6.13363 12.667 6.43402 13.0004 6.70068V3.10059C12.467 2.63392 11.867 2.30059 11.2003 2.10059C10.5337 1.83392 9.66701 1.70068 8.60034 1.70068C7.46701 1.70068 6.4337 1.86735 5.50037 2.20068C4.56703 2.53402 3.76701 3.03402 3.10034 3.70068C2.43368 4.36735 1.90037 5.13382 1.50037 6.00049C1.10037 6.93382 0.900391 7.93382 0.900391 9.00049C0.900391 10.0672 1.10037 11.0672 1.50037 12.0005C1.90037 12.8672 2.43368 13.6336 3.10034 14.3003C3.76701 14.967 4.56703 15.467 5.50037 15.8003C6.4337 16.1336 7.46701 16.3003 8.60034 16.3003C9.66701 16.3003 10.5337 16.1671 11.2003 15.9004C11.867 15.7004 12.467 15.3671 13.0004 14.9004V11.3003C12.667 11.567 12.3004 11.8674 11.9004 12.2007C11.5004 12.4674 11.067 12.667 10.6003 12.8003C10.067 13.0003 9.46708 13.1006 8.80042 13.1006C8.06708 13.1006 7.36698 12.9339 6.70032 12.6006C6.10032 12.2673 5.60032 11.8007 5.20032 11.2007C4.80032 10.6007 4.60034 9.86716 4.60034 9.00049ZM18.5004 16.0005V0.400391H15.5004V16.0005H18.5004ZM21.4004 10.4004V16.0005H24.4004V10.0005C24.4004 9.20049 24.3003 8.53382 24.1003 8.00049C23.9003 7.53382 23.567 7.16706 23.1003 6.90039C22.6337 6.63372 22.0337 6.50049 21.3004 6.50049C20.5004 6.50049 19.8671 6.66715 19.4004 7.00049C18.9337 7.33382 18.5671 7.80039 18.3004 8.40039C18.0337 9.00039 17.9004 9.66706 17.9004 10.4004H18.5004C18.5004 10.0671 18.567 9.76715 18.7003 9.50049C18.8337 9.23382 19.0003 9.03372 19.2003 8.90039C19.467 8.76706 19.767 8.70068 20.1003 8.70068C20.567 8.70068 20.9003 8.83392 21.1003 9.10059C21.3003 9.43392 21.4004 9.86706 21.4004 10.4004ZM29.8004 16.0005V6.80029H26.8004V16.0005H29.8004ZM32.4004 9.90039L33.7003 7.30029C33.567 7.10029 33.3337 6.93363 33.0004 6.80029C32.7337 6.66696 32.4337 6.60059 32.1003 6.60059C31.567 6.60059 31.067 6.76725 30.6003 7.10059C30.1337 7.43392 29.767 7.86706 29.5004 8.40039C29.2337 9.00039 29.1003 9.66706 29.1003 10.4004L29.8004 11.5005C29.8004 11.0338 29.867 10.6336 30.0004 10.3003C30.067 10.0336 30.2337 9.80059 30.5004 9.60059C30.7004 9.46725 30.9671 9.40039 31.3004 9.40039C31.5671 9.40039 31.7671 9.43382 31.9004 9.50049C32.1004 9.63382 32.2671 9.76706 32.4004 9.90039ZM34.8004 3.30029C34.8004 3.83363 35.0004 4.23382 35.4004 4.50049C35.7337 4.83382 36.1337 5.00049 36.6003 5.00049C37.067 5.00049 37.4671 4.83382 37.8004 4.50049C38.2004 4.23382 38.4004 3.83363 38.4004 3.30029C38.4004 2.83363 38.2004 2.46735 37.8004 2.20068C37.4671 1.86735 37.067 1.70068 36.6003 1.70068C36.1337 1.70068 35.7337 1.86735 35.4004 2.20068C35.0004 2.46735 34.8004 2.83363 34.8004 3.30029ZM38.1003 6.80029H35.1003V16.0005H38.1003V6.80029ZM41.0004 12.7007L39.8004 14.7007C40.2004 14.9674 40.6337 15.2338 41.1003 15.5005C41.567 15.7672 42.1003 16.0007 42.7003 16.2007C43.2337 16.334 43.8337 16.4004 44.5004 16.4004C45.6337 16.4004 46.5003 16.1339 47.1003 15.6006C47.7003 15.1339 48.0004 14.4004 48.0004 13.4004C48.0004 12.8004 47.867 12.3338 47.6003 12.0005C47.4003 11.6672 47.067 11.4007 46.6003 11.2007C46.2003 10.934 45.7671 10.7339 45.3004 10.6006C44.8337 10.4006 44.467 10.2339 44.2003 10.1006C43.867 10.0339 43.6004 9.93363 43.4004 9.80029C43.2671 9.66696 43.2003 9.50029 43.2003 9.30029C43.2003 9.10029 43.2671 8.93363 43.4004 8.80029C43.5337 8.73363 43.7337 8.70068 44.0004 8.70068C44.467 8.70068 44.9337 8.80049 45.4004 9.00049C45.8671 9.26715 46.3003 9.56706 46.7003 9.90039L47.8004 8.00049C47.4671 7.73382 47.067 7.50029 46.6003 7.30029C46.2003 7.10029 45.7671 6.93363 45.3004 6.80029C44.9004 6.66696 44.4337 6.60059 43.9004 6.60059C43.2337 6.60059 42.6337 6.70039 42.1003 6.90039C41.567 7.10039 41.1671 7.40029 40.9004 7.80029C40.5671 8.20029 40.4004 8.66735 40.4004 9.20068C40.4004 9.80068 40.5337 10.2673 40.8004 10.6006C41.0671 11.0006 41.4004 11.3005 41.8004 11.5005C42.2004 11.7672 42.6004 11.9673 43.0004 12.1006C43.5337 12.2339 43.9337 12.3672 44.2003 12.5005C44.467 12.6338 44.6671 12.7671 44.8004 12.9004C44.9338 13.0337 45.0004 13.2004 45.0004 13.4004C45.0004 13.6671 44.9338 13.8672 44.8004 14.0005C44.6004 14.1338 44.367 14.2007 44.1003 14.2007C43.9003 14.2007 43.6337 14.1338 43.3004 14.0005C43.0337 13.9338 42.7004 13.8006 42.3004 13.6006C41.9004 13.3339 41.467 13.034 41.0004 12.7007ZM54.7003 6.80029H48.6003V9.30029H54.7003V6.80029ZM53.1003 3.60059H50.2003V16.0005H53.1003V3.60059ZM55.8004 3.30029C55.8004 3.83363 56.0004 4.23382 56.4004 4.50049C56.7337 4.83382 57.1337 5.00049 57.6003 5.00049C58.067 5.00049 58.4671 4.83382 58.8004 4.50049C59.2004 4.23382 59.4004 3.83363 59.4004 3.30029C59.4004 2.83363 59.2004 2.46735 58.8004 2.20068C58.4671 1.86735 58.067 1.70068 57.6003 1.70068C57.1337 1.70068 56.7337 1.86735 56.4004 2.20068C56.0004 2.46735 55.8004 2.83363 55.8004 3.30029ZM59.1003 6.80029H56.1003V16.0005H59.1003V6.80029ZM67.5004 10.4004V16.0005H70.7003V10.1006C70.7003 8.96725 70.4337 8.10049 69.9004 7.50049C69.3671 6.90049 68.5337 6.60059 67.4004 6.60059C66.7337 6.60059 66.167 6.73382 65.7003 7.00049C65.2337 7.26716 64.867 7.66735 64.6003 8.20068V6.80029H61.5004V16.0005H64.6003V10.4004C64.6003 10.0671 64.6671 9.76715 64.8004 9.50049C64.9337 9.23382 65.1004 9.03372 65.3004 8.90039C65.5671 8.76706 65.867 8.70068 66.2003 8.70068C66.667 8.70068 67.0003 8.83392 67.2003 9.10059C67.4003 9.43392 67.5004 9.86706 67.5004 10.4004ZM77.7003 16.2007C78.9003 16.2007 79.9003 15.9672 80.7003 15.5005C81.5003 15.0338 82.167 14.3672 82.7003 13.5005L80.0004 12.8003C79.7337 13.2003 79.4004 13.5007 79.0004 13.7007C78.667 13.9007 78.2337 14.0005 77.7003 14.0005C77.2337 14.0005 76.8337 13.9007 76.5004 13.7007C76.167 13.5007 75.9337 13.2003 75.8004 12.8003C75.6004 12.4003 75.5004 11.9337 75.5004 11.4004C75.567 10.7337 75.6671 10.2003 75.8004 9.80029C75.9337 9.40029 76.167 9.10039 76.5004 8.90039C76.767 8.70039 77.1337 8.60059 77.6003 8.60059C78.0003 8.60059 78.3337 8.70039 78.6003 8.90039C78.867 9.03372 79.067 9.23382 79.2003 9.50049C79.3336 9.83382 79.4004 10.2006 79.4004 10.6006C79.4004 10.6673 79.3671 10.7671 79.3004 10.9004C79.3004 11.0337 79.267 11.167 79.2003 11.3003L79.9004 10.4004H74.2003V12.0005H82.6003C82.6003 11.9338 82.6003 11.834 82.6003 11.7007C82.6003 11.5674 82.6003 11.4336 82.6003 11.3003C82.6003 10.3003 82.4337 9.43402 82.1003 8.70068C81.7003 8.03402 81.1337 7.53402 80.4004 7.20068C79.6671 6.80068 78.767 6.60059 77.7003 6.60059C76.6337 6.60059 75.7004 6.80068 74.9004 7.20068C74.1004 7.60068 73.5003 8.13363 73.1003 8.80029C72.7003 9.53363 72.5004 10.4004 72.5004 11.4004C72.5004 12.4004 72.7003 13.2337 73.1003 13.9004C73.567 14.6337 74.1671 15.2006 74.9004 15.6006C75.7004 16.0006 76.6337 16.2007 77.7003 16.2007ZM97.8004 9.70068H94.3004L98.2003 16.0005H102.2L97.8004 9.70068ZM94.2003 2.00049H90.8004V16.0005H94.2003V2.00049ZM92.9004 2.00049V4.90039H95.6003C96.067 4.90039 96.4671 4.96725 96.8004 5.10059C97.1338 5.23392 97.4003 5.46696 97.6003 5.80029C97.7337 6.06696 97.8004 6.36735 97.8004 6.70068C97.8004 7.10068 97.7337 7.43402 97.6003 7.70068C97.4003 7.96735 97.1338 8.20039 96.8004 8.40039C96.4671 8.53372 96.067 8.60059 95.6003 8.60059H92.9004V11.2007H95.9004C97.1004 11.2007 98.1004 11.0006 98.9004 10.6006C99.7004 10.2006 100.3 9.66716 100.7 9.00049C101.1 8.33382 101.3 7.53392 101.3 6.60059C101.3 5.73392 101.1 4.93402 100.7 4.20068C100.3 3.53402 99.7004 3.00059 98.9004 2.60059C98.1004 2.20059 97.1004 2.00049 95.9004 2.00049H92.9004ZM102.9 11.4004C102.9 12.4004 103.1 13.2672 103.5 14.0005C103.967 14.6672 104.6 15.2006 105.4 15.6006C106.2 16.0006 107.1 16.2007 108.1 16.2007C109.1 16.2007 110 16.0006 110.8 15.6006C111.6 15.2006 112.234 14.6672 112.7 14.0005C113.167 13.2672 113.4 12.4004 113.4 11.4004C113.4 10.4671 113.167 9.63372 112.7 8.90039C112.234 8.16706 111.6 7.60068 110.8 7.20068C110 6.80068 109.1 6.60059 108.1 6.60059C107.1 6.60059 106.2 6.80068 105.4 7.20068C104.6 7.60068 103.967 8.16706 103.5 8.90039C103.1 9.63372 102.9 10.4671 102.9 11.4004ZM106 11.4004C106 10.9337 106.1 10.534 106.3 10.2007C106.5 9.86735 106.734 9.60039 107 9.40039C107.334 9.20039 107.7 9.10059 108.1 9.10059C108.5 9.10059 108.867 9.20039 109.2 9.40039C109.534 9.60039 109.8 9.86735 110 10.2007C110.2 10.534 110.3 10.9337 110.3 11.4004C110.3 11.9337 110.2 12.3674 110 12.7007C109.8 13.034 109.534 13.3005 109.2 13.5005C108.867 13.6338 108.5 13.7007 108.1 13.7007C107.7 13.7007 107.334 13.6338 107 13.5005C106.734 13.3005 106.5 13.034 106.3 12.7007C106.1 12.3674 106 11.9337 106 11.4004ZM115.7 12.7007L114.4 14.7007C114.8 15.034 115.267 15.3339 115.8 15.6006C116.267 15.8673 116.767 16.0674 117.3 16.2007C117.9 16.334 118.534 16.4004 119.2 16.4004C120.267 16.4004 121.1 16.1673 121.7 15.7007C122.3 15.1673 122.6 14.4004 122.6 13.4004C122.6 12.8671 122.5 12.4339 122.3 12.1006C122.034 11.7006 121.7 11.4007 121.3 11.2007C120.9 11.0007 120.467 10.8006 120 10.6006C119.534 10.4006 119.134 10.2674 118.8 10.2007C118.467 10.0674 118.234 9.93363 118.1 9.80029C117.9 9.66696 117.8 9.50029 117.8 9.30029C117.8 9.10029 117.867 8.96706 118 8.90039C118.2 8.76706 118.434 8.70068 118.7 8.70068C119.1 8.70068 119.534 8.83392 120 9.10059C120.534 9.30059 121 9.60049 121.4 10.0005L122.4 8.00049C122.067 7.73382 121.7 7.50029 121.3 7.30029C120.9 7.10029 120.467 6.93363 120 6.80029C119.534 6.66696 119.034 6.60059 118.5 6.60059C117.834 6.60059 117.234 6.70039 116.7 6.90039C116.234 7.10039 115.834 7.40029 115.5 7.80029C115.234 8.20029 115.1 8.66735 115.1 9.20068C115.1 9.80068 115.2 10.3007 115.4 10.7007C115.667 11.034 116 11.3339 116.4 11.6006C116.8 11.8006 117.234 11.9673 117.7 12.1006C118.167 12.3006 118.534 12.4673 118.8 12.6006C119.134 12.7339 119.334 12.8672 119.4 13.0005C119.534 13.1338 119.6 13.3005 119.6 13.5005C119.6 13.7005 119.534 13.8672 119.4 14.0005C119.267 14.1338 119.034 14.2007 118.7 14.2007C118.5 14.2007 118.267 14.1673 118 14.1006C117.667 13.9673 117.3 13.8006 116.9 13.6006C116.567 13.4006 116.167 13.1007 115.7 12.7007ZM129 16.2007C130.134 16.2007 131.134 16.0006 132 15.6006C132.8 15.1339 133.434 14.4338 133.9 13.5005L131.2 12.9004C131 13.3004 130.7 13.6003 130.3 13.8003C129.9 14.0003 129.434 14.1006 128.9 14.1006C128.434 14.1006 128.067 14.0003 127.8 13.8003C127.467 13.5336 127.2 13.2003 127 12.8003C126.867 12.4003 126.8 11.9337 126.8 11.4004C126.8 10.8004 126.867 10.3004 127 9.90039C127.2 9.50039 127.434 9.20049 127.7 9.00049C128.034 8.80049 128.434 8.70068 128.9 8.70068C129.234 8.70068 129.534 8.76706 129.8 8.90039C130.067 9.03372 130.267 9.26725 130.4 9.60059C130.6 9.86725 130.7 10.2006 130.7 10.6006C130.7 10.7339 130.667 10.8672 130.6 11.0005C130.534 11.1338 130.467 11.2336 130.4 11.3003L131.1 10.4004H125.5V12.1006H133.9C133.9 11.9673 133.9 11.834 133.9 11.7007C133.9 11.5674 133.9 11.4336 133.9 11.3003C133.9 10.3003 133.7 9.46696 133.3 8.80029C132.9 8.06696 132.334 7.53402 131.6 7.20068C130.867 6.80068 129.967 6.60059 128.9 6.60059C127.834 6.60059 126.934 6.80068 126.2 7.20068C125.4 7.60068 124.8 8.16706 124.4 8.90039C124 9.63372 123.8 10.4671 123.8 11.4004C123.8 12.4004 124 13.2672 124.4 14.0005C124.8 14.7338 125.4 15.3007 126.2 15.7007C127 16.034 127.934 16.2007 129 16.2007Z" fill="#202020"/>
</svg>
