<svg width="94" height="13" viewBox="0 0 94 13" fill="none" xmlns="http://www.w3.org/2000/svg">
<path d="M7.00018 8.60107H8.40021C8.26687 9.73441 7.83349 10.6012 7.10016 11.2012C6.43349 11.8012 5.50017 12.1011 4.30017 12.1011C3.0335 12.1011 2.0335 11.6674 1.30017 10.8008C0.566838 9.86745 0.200195 8.66784 0.200195 7.20117V6.10107C0.200195 5.16774 0.366862 4.30098 0.700195 3.50098C1.03353 2.76764 1.53353 2.20078 2.2002 1.80078C2.86686 1.40078 3.63352 1.20117 4.50018 1.20117C5.63352 1.20117 6.53353 1.50107 7.2002 2.10107C7.86686 2.76774 8.26687 3.66745 8.40021 4.80078H7.00018C6.86685 3.93411 6.6002 3.30088 6.2002 2.90088C5.8002 2.50088 5.23352 2.30078 4.50018 2.30078C3.56685 2.30078 2.8335 2.63411 2.30017 3.30078C1.8335 3.96745 1.60016 4.93451 1.60016 6.20117V7.20117C1.60016 8.33451 1.8335 9.26764 2.30017 10.001C2.76684 10.6676 3.4335 11.001 4.30017 11.001C5.10017 11.001 5.70016 10.8343 6.10016 10.501C6.56683 10.101 6.86685 9.46774 7.00018 8.60107ZM9.7002 8.10107V8.00098C9.7002 7.20098 9.86686 6.50088 10.2002 5.90088C10.4669 5.23421 10.9002 4.73421 11.5002 4.40088C12.0335 4.06755 12.6335 3.90088 13.3002 3.90088C14.3668 3.90088 15.2335 4.26764 15.9002 5.00098C16.5669 5.80098 16.9002 6.80098 16.9002 8.00098V8.10107C16.9002 8.90107 16.7668 9.60117 16.5002 10.2012C16.2335 10.8012 15.8002 11.2677 15.2002 11.6011C14.6669 11.9344 14.0335 12.1011 13.3002 12.1011C12.2335 12.1011 11.3669 11.7343 10.7002 11.001C10.0335 10.2676 9.7002 9.30107 9.7002 8.10107ZM11.1002 8.10107C11.1002 8.96774 11.3002 9.66784 11.7002 10.2012C12.1002 10.7345 12.6335 11.001 13.3002 11.001C14.0335 11.001 14.6002 10.7345 15.0002 10.2012C15.4002 9.66784 15.6002 8.93431 15.6002 8.00098C15.6002 7.13431 15.4002 6.43421 15.0002 5.90088C14.6002 5.30088 14.0335 5.00098 13.3002 5.00098C12.6335 5.00098 12.1002 5.26745 11.7002 5.80078C11.3002 6.33411 11.1002 7.10107 11.1002 8.10107ZM18.6002 4.10107H19.9002L20.0002 5.10107C20.6002 4.30107 21.3668 3.90088 22.3002 3.90088C24.0335 3.90088 24.9002 4.86745 24.9002 6.80078V12.001H23.5002V6.80078C23.5002 6.20078 23.3668 5.76764 23.1002 5.50098C22.8335 5.23431 22.4335 5.10107 21.9002 5.10107C21.5002 5.10107 21.1335 5.20088 20.8002 5.40088C20.4668 5.66755 20.2002 6.00088 20.0002 6.40088V12.001H18.6002V4.10107ZM27.4002 2.20117H28.8002V4.10107H30.2002V5.10107H28.8002V10.1011C28.8002 10.3677 28.8668 10.6008 29.0002 10.8008C29.1335 10.9341 29.3335 11.001 29.6002 11.001C29.8002 11.001 30.0335 10.9675 30.3002 10.9009V12.001C29.9002 12.1343 29.5335 12.2012 29.2002 12.2012C28.6002 12.2012 28.1669 12.0011 27.9002 11.6011C27.5669 11.2677 27.4002 10.7677 27.4002 10.1011V5.10107H26.0002V4.10107H27.4002V2.20117ZM35.1002 12.2012C34.0335 12.2012 33.1669 11.8344 32.5002 11.1011C31.8335 10.4344 31.5002 9.50078 31.5002 8.30078V8.10107C31.5002 7.30107 31.6335 6.56755 31.9002 5.90088C32.2335 5.30088 32.6669 4.83431 33.2002 4.50098C33.7335 4.16764 34.3002 4.00098 34.9002 4.00098C35.9669 4.00098 36.7668 4.33431 37.3002 5.00098C37.9002 5.66764 38.2002 6.63421 38.2002 7.90088V8.50098H32.8002C32.8668 9.23431 33.1002 9.86755 33.5002 10.4009C33.9669 10.8675 34.5335 11.1011 35.2002 11.1011C35.6669 11.1011 36.0669 11.0008 36.4002 10.8008C36.7335 10.6008 37.0335 10.3343 37.3002 10.001L38.1002 10.7012C37.4335 11.7012 36.4335 12.2012 35.1002 12.2012ZM34.9002 5.10107C34.3669 5.10107 33.9335 5.30117 33.6002 5.70117C33.2002 6.10117 32.9669 6.66755 32.9002 7.40088H36.8002V7.30078C36.8002 6.56745 36.6335 6.03451 36.3002 5.70117C35.9668 5.30117 35.5002 5.10107 34.9002 5.10107ZM39.8002 4.10107H41.0002L41.1002 5.10107C41.7002 4.36774 42.5002 4.00098 43.5002 4.00098C45.1669 4.00098 46.0002 4.93411 46.0002 6.80078V12.001H44.6002V6.80078C44.6002 6.20078 44.4669 5.76764 44.2002 5.50098C44.0002 5.23431 43.6335 5.10107 43.1002 5.10107C42.6335 5.10107 42.2335 5.23431 41.9002 5.50098C41.5669 5.70098 41.3002 6.00088 41.1002 6.40088V12.001H39.8002V4.10107ZM48.5002 2.20117H49.9002V4.10107H51.4002V5.20117H49.9002V10.1011C49.9002 10.4344 49.9668 10.6674 50.1002 10.8008C50.2335 11.0008 50.4668 11.1011 50.8002 11.1011C50.9335 11.1011 51.1335 11.0676 51.4002 11.001V12.1011C51.0669 12.1677 50.7335 12.2012 50.4002 12.2012C49.7335 12.2012 49.2668 12.0345 49.0002 11.7012C48.6669 11.3012 48.5002 10.7677 48.5002 10.1011V5.20117H47.1002V4.10107H48.5002V2.20117ZM58.3002 1.40088V10.9009H63.3002V12.1011H56.9002V1.40088H58.3002ZM66.2002 4.20117V12.1011H64.8002V4.20117H66.2002ZM64.8002 2.10107C64.8002 1.83441 64.8669 1.63431 65.0002 1.50098C65.1335 1.36764 65.3335 1.30078 65.6002 1.30078C65.8668 1.30078 66.0669 1.36764 66.2002 1.50098C66.3335 1.63431 66.4002 1.83441 66.4002 2.10107C66.4002 2.30107 66.3335 2.46774 66.2002 2.60107C66.0669 2.73441 65.8668 2.80078 65.6002 2.80078C65.3335 2.80078 65.1335 2.73441 65.0002 2.60107C64.8669 2.46774 64.8002 2.30107 64.8002 2.10107ZM75.1002 8.10107V8.20117C75.1002 9.40117 74.8335 10.3677 74.3002 11.1011C73.7002 11.8344 72.9335 12.2012 72.0002 12.2012C71.0002 12.2012 70.2335 11.8678 69.7002 11.2012L69.6002 12.1011H68.4002V0.800781H69.8002V5.00098C70.3335 4.33431 71.0668 4.00098 72.0002 4.00098C73.0002 4.00098 73.7668 4.36774 74.3002 5.10107C74.8335 5.83441 75.1002 6.83441 75.1002 8.10107ZM73.8002 8.10107C73.8002 7.16774 73.6002 6.43421 73.2002 5.90088C72.8669 5.43421 72.3669 5.20117 71.7002 5.20117C70.7669 5.20117 70.1335 5.60088 69.8002 6.40088V9.80078C70.2002 10.6674 70.8335 11.1011 71.7002 11.1011C72.3669 11.1011 72.8669 10.8341 73.2002 10.3008C73.6002 9.83412 73.8002 9.10107 73.8002 8.10107ZM80.6002 4.10107V5.40088C80.4002 5.33421 80.2002 5.30078 80.0002 5.30078C79.0668 5.30078 78.4669 5.70098 78.2002 6.50098V12.1011H76.8002V4.20117H78.1002L78.2002 5.10107C78.6002 4.36774 79.2002 4.00098 80.0002 4.00098C80.2669 4.00098 80.4668 4.03441 80.6002 4.10107ZM87.9002 12.1011H86.5002C86.4335 11.9677 86.3668 11.7008 86.3002 11.3008C85.7002 11.9008 84.9335 12.2012 84.0002 12.2012C83.2669 12.2012 82.6335 12.0011 82.1002 11.6011C81.6335 11.1344 81.4002 10.5675 81.4002 9.90088C81.4002 9.10088 81.7002 8.46764 82.3002 8.00098C82.9668 7.53431 83.8669 7.30078 85.0002 7.30078H86.3002V6.70117C86.3002 6.16784 86.1669 5.76764 85.9002 5.50098C85.5669 5.23431 85.1335 5.10107 84.6002 5.10107C84.1335 5.10107 83.7335 5.23431 83.4002 5.50098C83.0669 5.70098 82.9002 6.00088 82.9002 6.40088H81.5002C81.5002 6.00088 81.6335 5.60117 81.9002 5.20117C82.2335 4.86784 82.6335 4.56745 83.1002 4.30078C83.5668 4.10078 84.1002 4.00098 84.7002 4.00098C85.6335 4.00098 86.3335 4.23451 86.8002 4.70117C87.3335 5.16784 87.6002 5.80107 87.6002 6.60107V10.2012C87.6002 10.9345 87.7002 11.5343 87.9002 12.001V12.1011ZM84.2002 11.001C84.6669 11.001 85.0669 10.9012 85.4002 10.7012C85.8002 10.5012 86.1002 10.2342 86.3002 9.90088V8.20117H85.2002C83.5335 8.20117 82.7002 8.70117 82.7002 9.70117C82.7002 10.1012 82.8335 10.4345 83.1002 10.7012C83.4335 10.9012 83.8002 11.001 84.2002 11.001ZM93.6002 4.10107V5.40088C93.4002 5.33421 93.1669 5.30078 92.9002 5.30078C92.0335 5.30078 91.4335 5.66755 91.1002 6.40088V12.1011H89.8002V4.10107H91.1002V5.10107C91.5668 4.36774 92.2002 4.00098 93.0002 4.00098C93.2669 4.00098 93.4668 4.03441 93.6002 4.10107Z" fill="#777777"/>
</svg>
