<svg width="131" height="12" viewBox="0 0 131 12" fill="none" xmlns="http://www.w3.org/2000/svg">
<path d="M7.00018 7.59912H8.40021C8.26687 8.73245 7.83349 9.59922 7.10016 10.1992C6.43349 10.7992 5.50017 11.0991 4.30017 11.0991C3.0335 11.0991 2.0335 10.6655 1.30017 9.79883C0.566838 8.86549 0.200195 7.66589 0.200195 6.19922V5.09912C0.200195 4.16579 0.366862 3.29902 0.700195 2.49902C1.03353 1.76569 1.53353 1.19883 2.2002 0.798828C2.86686 0.398828 3.63352 0.199219 4.50018 0.199219C5.63352 0.199219 6.53353 0.499121 7.2002 1.09912C7.86686 1.76579 8.26687 2.66549 8.40021 3.79883H7.00018C6.86685 2.93216 6.6002 2.29893 6.2002 1.89893C5.8002 1.49893 5.23352 1.29883 4.50018 1.29883C3.56685 1.29883 2.8335 1.63216 2.30017 2.29883C1.8335 2.96549 1.60016 3.93255 1.60016 5.19922V6.19922C1.60016 7.33255 1.8335 8.26569 2.30017 8.99902C2.76684 9.66569 3.4335 9.99902 4.30017 9.99902C5.10017 9.99902 5.70016 9.83236 6.10016 9.49902C6.56683 9.09902 6.86685 8.46579 7.00018 7.59912ZM9.7002 7.09912V6.99902C9.7002 6.19902 9.86686 5.49893 10.2002 4.89893C10.4669 4.23226 10.9002 3.73226 11.5002 3.39893C12.0335 3.06559 12.6335 2.89893 13.3002 2.89893C14.3668 2.89893 15.2335 3.26569 15.9002 3.99902C16.5669 4.79902 16.9002 5.79902 16.9002 6.99902V7.09912C16.9002 7.89912 16.7668 8.59922 16.5002 9.19922C16.2335 9.79922 15.8002 10.2658 15.2002 10.5991C14.6669 10.9325 14.0335 11.0991 13.3002 11.0991C12.2335 11.0991 11.3669 10.7324 10.7002 9.99902C10.0335 9.26569 9.7002 8.29912 9.7002 7.09912ZM11.1002 7.09912C11.1002 7.96579 11.3002 8.66588 11.7002 9.19922C12.1002 9.73255 12.6335 9.99902 13.3002 9.99902C14.0335 9.99902 14.6002 9.73255 15.0002 9.19922C15.4002 8.66588 15.6002 7.93236 15.6002 6.99902C15.6002 6.13236 15.4002 5.43226 15.0002 4.89893C14.6002 4.29893 14.0335 3.99902 13.3002 3.99902C12.6335 3.99902 12.1002 4.26549 11.7002 4.79883C11.3002 5.33216 11.1002 6.09912 11.1002 7.09912ZM23.6002 10.999L23.5002 10.1992C22.9669 10.7992 22.2002 11.0991 21.2002 11.0991C20.3335 11.0991 19.7002 10.8656 19.3002 10.3989C18.8335 9.93226 18.6002 9.19922 18.6002 8.19922V3.09912H20.0002V8.19922C20.0002 9.39922 20.4669 9.99902 21.4002 9.99902C22.4669 9.99902 23.1668 9.59883 23.5002 8.79883V3.09912H24.9002V10.999H23.6002ZM30.7002 2.99902V4.29883C30.5002 4.23216 30.3002 4.19922 30.1002 4.19922C29.1668 4.19922 28.5668 4.59893 28.3002 5.39893V10.999H26.9002V3.09912H28.2002V3.99902C28.6669 3.26569 29.3002 2.89893 30.1002 2.89893C30.3668 2.89893 30.5669 2.93236 30.7002 2.99902ZM36.6002 8.89893C36.6002 8.49893 36.4669 8.19902 36.2002 7.99902C35.9335 7.79902 35.4335 7.63236 34.7002 7.49902C34.0335 7.36569 33.5002 7.19902 33.1002 6.99902C32.7002 6.79902 32.4002 6.5655 32.2002 6.29883C32.0002 5.96549 31.9002 5.63216 31.9002 5.29883C31.9002 4.63216 32.1669 4.06579 32.7002 3.59912C33.3002 3.13245 34.0002 2.89893 34.8002 2.89893C35.7335 2.89893 36.4669 3.13245 37.0002 3.59912C37.6002 4.06579 37.9002 4.66559 37.9002 5.39893H36.5002C36.5002 4.99893 36.3335 4.66559 36.0002 4.39893C35.7335 4.13226 35.3335 3.99902 34.8002 3.99902C34.3335 3.99902 33.9669 4.13226 33.7002 4.39893C33.4335 4.59893 33.3002 4.86589 33.3002 5.19922C33.3002 5.53255 33.4335 5.76559 33.7002 5.89893C33.9002 6.09893 34.3668 6.26559 35.1002 6.39893C35.7668 6.53226 36.3002 6.73236 36.7002 6.99902C37.1002 7.19902 37.4002 7.43255 37.6002 7.69922C37.8002 8.03255 37.9002 8.39883 37.9002 8.79883C37.9002 9.53216 37.6335 10.099 37.1002 10.499C36.5002 10.899 35.7669 11.0991 34.9002 11.0991C34.2335 11.0991 33.6669 10.9988 33.2002 10.7988C32.7335 10.5988 32.3668 10.2989 32.1002 9.89893C31.7668 9.49893 31.6002 9.06579 31.6002 8.59912H33.0002C33.0002 8.99912 33.1669 9.33245 33.5002 9.59912C33.9002 9.86579 34.3669 9.99902 34.9002 9.99902C35.4335 9.99902 35.8335 9.89922 36.1002 9.69922C36.4335 9.49922 36.6002 9.23226 36.6002 8.89893ZM43.0002 11.0991C41.9335 11.0991 41.0669 10.7658 40.4002 10.0991C39.7335 9.36579 39.4002 8.43216 39.4002 7.29883V6.99902C39.4002 6.19902 39.5335 5.49893 39.8002 4.89893C40.1335 4.29893 40.5668 3.83236 41.1002 3.49902C41.6335 3.09902 42.2002 2.89893 42.8002 2.89893C43.8668 2.89893 44.6669 3.23226 45.2002 3.89893C45.8002 4.63226 46.1002 5.63226 46.1002 6.89893V7.39893H40.7002C40.7669 8.19893 41.0002 8.83216 41.4002 9.29883C41.8669 9.76549 42.4335 9.99902 43.1002 9.99902C43.5668 9.99902 43.9668 9.89922 44.3002 9.69922C44.6335 9.56589 44.9335 9.33236 45.2002 8.99902L46.0002 9.59912C45.3335 10.5991 44.3335 11.0991 43.0002 11.0991ZM42.8002 3.99902C42.2668 3.99902 41.8335 4.19912 41.5002 4.59912C41.1002 4.99912 40.8668 5.56549 40.8002 6.29883H44.7002V6.19922C44.7002 5.53255 44.5335 4.99912 44.2002 4.59912C43.8669 4.19912 43.4002 3.99902 42.8002 3.99902ZM54.5002 10.999H51.6002V0.298828H54.6002C55.5335 0.298828 56.3668 0.532357 57.1002 0.999023C57.7668 1.39902 58.3002 1.96589 58.7002 2.69922C59.1002 3.43255 59.3002 4.29883 59.3002 5.29883V5.99902C59.3002 6.99902 59.1002 7.86579 58.7002 8.59912C58.3002 9.39912 57.7335 9.99893 57.0002 10.3989C56.3335 10.7989 55.5002 10.999 54.5002 10.999ZM54.6002 1.49902H53.0002V9.89893H54.5002C55.5668 9.89893 56.4002 9.53216 57.0002 8.79883C57.6002 8.13216 57.9002 7.19902 57.9002 5.99902V5.29883C57.9002 4.09883 57.6002 3.16569 57.0002 2.49902C56.4669 1.83236 55.6668 1.49902 54.6002 1.49902ZM62.7002 3.09912V10.999H61.3002V3.09912H62.7002ZM61.3002 0.999023C61.3002 0.732357 61.3668 0.532259 61.5002 0.398926C61.6335 0.265592 61.8335 0.199219 62.1002 0.199219C62.3668 0.199219 62.5669 0.265592 62.7002 0.398926C62.8335 0.532259 62.9002 0.732357 62.9002 0.999023C62.9002 1.19902 62.8335 1.36569 62.7002 1.49902C62.5669 1.63236 62.3668 1.69922 62.1002 1.69922C61.8335 1.69922 61.6335 1.63236 61.5002 1.49902C61.3668 1.36569 61.3002 1.19902 61.3002 0.999023ZM69.5002 8.89893C69.5002 8.49893 69.3668 8.19902 69.1002 7.99902C68.8335 7.79902 68.3335 7.63236 67.6002 7.49902C66.9335 7.36569 66.4002 7.19902 66.0002 6.99902C65.6002 6.79902 65.3002 6.5655 65.1002 6.29883C64.9002 5.96549 64.8002 5.63216 64.8002 5.29883C64.8002 4.63216 65.1002 4.06579 65.7002 3.59912C66.2335 3.13245 66.9335 2.89893 67.8002 2.89893C68.6668 2.89893 69.3669 3.13245 69.9002 3.59912C70.5002 4.06579 70.8002 4.66559 70.8002 5.39893H69.4002C69.4002 4.99893 69.2669 4.66559 69.0002 4.39893C68.6668 4.13226 68.2668 3.99902 67.8002 3.99902C67.2668 3.99902 66.8668 4.13226 66.6002 4.39893C66.3335 4.59893 66.2002 4.86589 66.2002 5.19922C66.2002 5.53255 66.3335 5.76559 66.6002 5.89893C66.8668 6.09893 67.3335 6.26559 68.0002 6.39893C68.6668 6.53226 69.2002 6.73236 69.6002 6.99902C70.0668 7.19902 70.4002 7.43255 70.6002 7.69922C70.8002 8.03255 70.9002 8.39883 70.9002 8.79883C70.9002 9.53216 70.6002 10.099 70.0002 10.499C69.4669 10.899 68.7335 11.0991 67.8002 11.0991C67.2002 11.0991 66.6335 10.9988 66.1002 10.7988C65.6335 10.5988 65.2669 10.2989 65.0002 9.89893C64.7335 9.49893 64.6002 9.06579 64.6002 8.59912H65.9002C65.9669 8.99912 66.1668 9.33245 66.5002 9.59912C66.8335 9.86579 67.2668 9.99902 67.8002 9.99902C68.3335 9.99902 68.7335 9.89922 69.0002 9.69922C69.3335 9.49922 69.5002 9.23226 69.5002 8.89893ZM75.8002 9.99902C76.2668 9.99902 76.7002 9.86579 77.1002 9.59912C77.4335 9.33245 77.6335 8.96569 77.7002 8.49902H79.0002C78.9335 8.96569 78.7669 9.39883 78.5002 9.79883C78.2335 10.1988 77.8335 10.5322 77.3002 10.7988C76.8335 10.9988 76.3335 11.0991 75.8002 11.0991C74.7335 11.0991 73.8669 10.7658 73.2002 10.0991C72.6002 9.36579 72.3002 8.36579 72.3002 7.09912V6.89893C72.3002 6.09893 72.4335 5.39883 72.7002 4.79883C72.9669 4.19883 73.3669 3.73226 73.9002 3.39893C74.4335 3.06559 75.0668 2.89893 75.8002 2.89893C76.6668 2.89893 77.4002 3.16589 78.0002 3.69922C78.6002 4.23255 78.9335 4.93216 79.0002 5.79883H77.7002C77.6335 5.26549 77.4335 4.83236 77.1002 4.49902C76.7668 4.16569 76.3335 3.99902 75.8002 3.99902C75.1335 3.99902 74.6002 4.26549 74.2002 4.79883C73.8002 5.26549 73.6002 5.96559 73.6002 6.89893V7.19922C73.6002 8.13255 73.8002 8.83216 74.2002 9.29883C74.6002 9.76549 75.1335 9.99902 75.8002 9.99902ZM85.4002 10.999V10.1992C84.8669 10.7992 84.0668 11.0991 83.0002 11.0991C82.2002 11.0991 81.5668 10.8656 81.1002 10.3989C80.7002 9.93226 80.4669 9.19922 80.4002 8.19922V3.09912H81.8002V8.19922C81.8002 9.39922 82.3002 9.99902 83.3002 9.99902C84.3002 9.99902 84.9668 9.59883 85.3002 8.79883V3.09912H86.7002V10.999H85.4002ZM93.4002 8.89893C93.4002 8.49893 93.2335 8.19902 92.9002 7.99902C92.6335 7.79902 92.1668 7.63236 91.5002 7.49902C90.8335 7.36569 90.3002 7.19902 89.9002 6.99902C89.5002 6.79902 89.2002 6.5655 89.0002 6.29883C88.8002 5.96549 88.7002 5.63216 88.7002 5.29883C88.7002 4.63216 88.9669 4.06579 89.5002 3.59912C90.0335 3.13245 90.7335 2.89893 91.6002 2.89893C92.5335 2.89893 93.2668 3.13245 93.8002 3.59912C94.3335 4.06579 94.6002 4.66559 94.6002 5.39893H93.3002C93.3002 4.99893 93.1335 4.66559 92.8002 4.39893C92.4668 4.13226 92.0668 3.99902 91.6002 3.99902C91.1335 3.99902 90.7669 4.13226 90.5002 4.39893C90.1668 4.59893 90.0002 4.86589 90.0002 5.19922C90.0002 5.53255 90.1335 5.76559 90.4002 5.89893C90.6669 6.09893 91.1335 6.26559 91.8002 6.39893C92.4668 6.53226 93.0335 6.73236 93.5002 6.99902C93.9002 7.19902 94.2002 7.43255 94.4002 7.69922C94.6002 8.03255 94.7002 8.39883 94.7002 8.79883C94.7002 9.53216 94.4335 10.099 93.9002 10.499C93.3002 10.899 92.5669 11.0991 91.7002 11.0991C91.0335 11.0991 90.4669 10.9988 90.0002 10.7988C89.4669 10.5988 89.0668 10.2989 88.8002 9.89893C88.5335 9.49893 88.4002 9.06579 88.4002 8.59912H89.8002C89.8002 8.99912 89.9668 9.33245 90.3002 9.59912C90.6335 9.86579 91.1002 9.99902 91.7002 9.99902C92.1669 9.99902 92.5669 9.89922 92.9002 9.69922C93.2335 9.49922 93.4002 9.23226 93.4002 8.89893ZM101.1 8.89893C101.1 8.49893 100.967 8.19902 100.7 7.99902C100.434 7.79902 99.9335 7.63236 99.2002 7.49902C98.5335 7.36569 98.0002 7.19902 97.6002 6.99902C97.2002 6.79902 96.9002 6.5655 96.7002 6.29883C96.5002 5.96549 96.4002 5.63216 96.4002 5.29883C96.4002 4.63216 96.6669 4.06579 97.2002 3.59912C97.8002 3.13245 98.5002 2.89893 99.3002 2.89893C100.234 2.89893 100.967 3.13245 101.5 3.59912C102.1 4.06579 102.4 4.66559 102.4 5.39893H101C101 4.99893 100.834 4.66559 100.5 4.39893C100.234 4.13226 99.8335 3.99902 99.3002 3.99902C98.8335 3.99902 98.4669 4.13226 98.2002 4.39893C97.9335 4.59893 97.8002 4.86589 97.8002 5.19922C97.8002 5.53255 97.9335 5.76559 98.2002 5.89893C98.4002 6.09893 98.8668 6.26559 99.6002 6.39893C100.267 6.53226 100.8 6.73236 101.2 6.99902C101.6 7.19902 101.9 7.43255 102.1 7.69922C102.3 8.03255 102.4 8.39883 102.4 8.79883C102.4 9.53216 102.133 10.099 101.6 10.499C101 10.899 100.267 11.0991 99.4002 11.0991C98.7335 11.0991 98.1669 10.9988 97.7002 10.7988C97.2335 10.5988 96.8668 10.2989 96.6002 9.89893C96.2668 9.49893 96.1002 9.06579 96.1002 8.59912H97.5002C97.5002 8.99912 97.6668 9.33245 98.0002 9.59912C98.4002 9.86579 98.8669 9.99902 99.4002 9.99902C99.9335 9.99902 100.333 9.89922 100.6 9.69922C100.933 9.49922 101.1 9.23226 101.1 8.89893ZM105.7 3.09912V10.999H104.3V3.09912H105.7ZM104.3 0.999023C104.3 0.732357 104.367 0.532259 104.5 0.398926C104.634 0.265592 104.833 0.199219 105.1 0.199219C105.367 0.199219 105.567 0.265592 105.7 0.398926C105.834 0.532259 105.9 0.732357 105.9 0.999023C105.9 1.19902 105.834 1.36569 105.7 1.49902C105.567 1.63236 105.367 1.69922 105.1 1.69922C104.833 1.69922 104.634 1.63236 104.5 1.49902C104.367 1.36569 104.3 1.19902 104.3 0.999023ZM107.5 7.09912V6.99902C107.5 6.19902 107.667 5.49893 108 4.89893C108.267 4.23226 108.7 3.73226 109.3 3.39893C109.834 3.06559 110.433 2.89893 111.1 2.89893C112.167 2.89893 113.034 3.26569 113.7 3.99902C114.367 4.79902 114.7 5.79902 114.7 6.99902V7.09912C114.7 7.89912 114.567 8.59922 114.3 9.19922C114.034 9.79922 113.6 10.2658 113 10.5991C112.467 10.9325 111.833 11.0991 111.1 11.0991C110.033 11.0991 109.167 10.7324 108.5 9.99902C107.834 9.26569 107.5 8.29912 107.5 7.09912ZM108.9 7.09912C108.9 7.96579 109.1 8.66588 109.5 9.19922C109.9 9.73255 110.433 9.99902 111.1 9.99902C111.833 9.99902 112.4 9.73255 112.8 9.19922C113.2 8.66588 113.4 7.93236 113.4 6.99902C113.4 6.13236 113.2 5.43226 112.8 4.89893C112.4 4.29893 111.833 3.99902 111.1 3.99902C110.433 3.99902 109.9 4.26549 109.5 4.79883C109.1 5.33216 108.9 6.09912 108.9 7.09912ZM116.4 3.09912H117.7L117.8 4.09912C118.4 3.29912 119.167 2.89893 120.1 2.89893C121.833 2.89893 122.7 3.86549 122.7 5.79883V10.999H121.3V5.79883C121.3 5.19883 121.167 4.76569 120.9 4.49902C120.634 4.23236 120.234 4.09912 119.7 4.09912C119.3 4.09912 118.933 4.19893 118.6 4.39893C118.267 4.66559 118 4.99893 117.8 5.39893V10.999H116.4V3.09912ZM129.3 8.89893C129.3 8.56559 129.167 8.29912 128.9 8.09912C128.634 7.89912 128.167 7.69902 127.5 7.49902C126.834 7.36569 126.267 7.19902 125.8 6.99902C125.4 6.79902 125.1 6.5655 124.9 6.29883C124.767 6.03216 124.7 5.69883 124.7 5.29883C124.7 4.63216 124.967 4.06579 125.5 3.59912C126.034 3.19912 126.733 2.99902 127.6 2.99902C128.467 2.99902 129.2 3.19912 129.8 3.59912C130.334 4.06579 130.6 4.66559 130.6 5.39893H129.3C129.3 5.06559 129.133 4.76569 128.8 4.49902C128.467 4.23236 128.067 4.09912 127.6 4.09912C127.133 4.09912 126.734 4.19893 126.4 4.39893C126.134 4.59893 126 4.86589 126 5.19922C126 5.53255 126.134 5.79902 126.4 5.99902C126.667 6.13236 127.134 6.26559 127.8 6.39893C128.467 6.59893 129.034 6.79902 129.5 6.99902C129.9 7.19902 130.2 7.46549 130.4 7.79883C130.6 8.0655 130.7 8.39883 130.7 8.79883C130.7 9.53216 130.4 10.099 129.8 10.499C129.267 10.9657 128.533 11.1992 127.6 11.1992C127 11.1992 126.467 11.0655 126 10.7988C125.467 10.5988 125.067 10.2989 124.8 9.89893C124.534 9.49893 124.4 9.06579 124.4 8.59912H125.7C125.767 9.06579 125.967 9.43255 126.3 9.69922C126.634 9.96589 127.067 10.0991 127.6 10.0991C128.133 10.0991 128.567 9.99883 128.9 9.79883C129.167 9.53216 129.3 9.23226 129.3 8.89893Z" fill="#777777"/>
</svg>
