<svg width="65" height="12" viewBox="0 0 65 12" fill="none" xmlns="http://www.w3.org/2000/svg">
<path d="M6.80005 7.59912H8.19995C8.06662 8.73245 7.66667 9.59922 7 10.1992C6.26667 10.7992 5.33328 11.0991 4.19995 11.0991C2.93328 11.0991 1.89998 10.6655 1.09998 9.79883C0.366642 8.86549 0 7.66589 0 6.19922V5.09912C0 4.16579 0.166667 3.29902 0.5 2.49902C0.9 1.76569 1.4 1.19883 2 0.798828C2.66667 0.398828 3.43338 0.199219 4.30005 0.199219C5.43338 0.199219 6.33333 0.499121 7 1.09912C7.73333 1.76579 8.13328 2.66549 8.19995 3.79883H6.80005C6.66672 2.93216 6.4 2.29893 6 1.89893C5.6 1.49893 5.03338 1.29883 4.30005 1.29883C3.43338 1.29883 2.73328 1.63216 2.19995 2.29883C1.66662 2.96549 1.40002 3.93255 1.40002 5.19922V6.19922C1.40002 7.33255 1.63331 8.26569 2.09998 8.99902C2.63331 9.66569 3.33328 9.99902 4.19995 9.99902C4.93328 9.99902 5.53333 9.83236 6 9.49902C6.4 9.09902 6.66672 8.46579 6.80005 7.59912ZM14.8 10.999V10.1992C14.2667 10.7992 13.5 11.0991 12.5 11.0991C11.6333 11.0991 11 10.8656 10.6 10.3989C10.1333 9.93226 9.90002 9.19922 9.90002 8.19922V3.09912H11.3V8.19922C11.3 9.39922 11.7666 9.99902 12.7 9.99902C13.7666 9.99902 14.4667 9.59883 14.8 8.79883V3.09912H16.1V10.999H14.8ZM22.8 8.89893C22.8 8.49893 22.6667 8.19902 22.4 7.99902C22.1334 7.79902 21.6334 7.63236 20.9 7.49902C20.2334 7.36569 19.7 7.19902 19.3 6.99902C18.9 6.79902 18.6 6.5655 18.4 6.29883C18.2 5.96549 18.1 5.63216 18.1 5.29883C18.1 4.63216 18.3667 4.06579 18.9 3.59912C19.5 3.13245 20.2333 2.89893 21.1 2.89893C21.9666 2.89893 22.6666 3.13245 23.2 3.59912C23.8 4.06579 24.1 4.66559 24.1 5.39893H22.7C22.7 4.99893 22.5333 4.66559 22.2 4.39893C21.9333 4.13226 21.5666 3.99902 21.1 3.99902C20.5666 3.99902 20.1667 4.13226 19.9 4.39893C19.6334 4.59893 19.5 4.86589 19.5 5.19922C19.5 5.53255 19.6334 5.76559 19.9 5.89893C20.1667 6.09893 20.6334 6.26559 21.3 6.39893C21.9667 6.53226 22.5 6.73236 22.9 6.99902C23.3 7.19902 23.6 7.43255 23.8 7.69922C24.0667 8.03255 24.2 8.39883 24.2 8.79883C24.2 9.53216 23.9 10.099 23.3 10.499C22.7667 10.899 22.0333 11.0991 21.1 11.0991C20.4333 11.0991 19.8667 10.9988 19.4 10.7988C18.9334 10.5988 18.5667 10.2989 18.3 9.89893C18.0334 9.49893 17.9 9.06579 17.9 8.59912H19.2C19.2 8.99912 19.4 9.33245 19.8 9.59912C20.1334 9.86579 20.5666 9.99902 21.1 9.99902C21.6333 9.99902 22.0334 9.89922 22.3 9.69922C22.6334 9.49922 22.8 9.23226 22.8 8.89893ZM26.4 1.19922H27.8V3.09912H29.2V4.09912H27.8V8.99902C27.8 9.33236 27.8667 9.59883 28 9.79883C28.1333 9.93216 28.3333 9.99902 28.6 9.99902C28.8 9.99902 29.0334 9.96559 29.3 9.89893V10.999C28.9 11.0657 28.5333 11.0991 28.2 11.0991C27.6 11.0991 27.1667 10.9325 26.9 10.5991C26.5667 10.1991 26.4 9.66569 26.4 8.99902V4.09912H25V3.09912H26.4V1.19922ZM30.3 7.09912V6.99902C30.3 6.19902 30.4667 5.49893 30.8 4.89893C31.0667 4.29893 31.4667 3.83236 32 3.49902C32.6 3.09902 33.2334 2.89893 33.9 2.89893C34.9667 2.89893 35.8333 3.29912 36.5 4.09912C37.1667 4.83245 37.5 5.79902 37.5 6.99902V7.09912C37.5 7.89912 37.3666 8.59922 37.1 9.19922C36.7666 9.79922 36.3334 10.2992 35.8 10.6992C35.2667 11.0326 34.6334 11.1992 33.9 11.1992C32.8334 11.1992 31.9667 10.799 31.3 9.99902C30.6334 9.26569 30.3 8.29912 30.3 7.09912ZM31.7 7.09912C31.7 8.03245 31.9 8.76549 32.3 9.29883C32.7001 9.83216 33.2334 10.0991 33.9 10.0991C34.6334 10.0991 35.2 9.83216 35.6 9.29883C36 8.69883 36.2 7.93236 36.2 6.99902C36.2 6.13236 36 5.43226 35.6 4.89893C35.1333 4.36559 34.5667 4.09912 33.9 4.09912C33.2334 4.09912 32.7001 4.36559 32.3 4.89893C31.9 5.43226 31.7 6.16579 31.7 7.09912ZM39.2 3.09912H40.5V3.99902C41.1 3.26569 41.9 2.89893 42.9 2.89893C44.0334 2.89893 44.7999 3.33255 45.2 4.19922C45.4 3.86589 45.7333 3.56549 46.2 3.29883C46.6 3.03216 47.1 2.89893 47.7 2.89893C49.4333 2.89893 50.3 3.83255 50.3 5.69922V10.999H49V5.79883C49 5.19883 48.8666 4.76569 48.6 4.49902C48.3333 4.23236 47.9 4.09912 47.3 4.09912C46.7667 4.09912 46.3333 4.26579 46 4.59912C45.6667 4.86579 45.5 5.26549 45.5 5.79883V10.999H44.1V5.79883C44.1 4.66549 43.5334 4.09912 42.4 4.09912C41.5334 4.09912 40.9333 4.46589 40.6 5.19922V10.999H39.2V3.09912ZM55.7 11.1992C54.6333 11.1992 53.7333 10.8325 53 10.0991C52.3333 9.43245 52 8.49883 52 7.29883V7.09912C52 6.29912 52.1667 5.56559 52.5 4.89893C52.7667 4.29893 53.1666 3.83236 53.7 3.49902C54.2999 3.16569 54.9 2.99902 55.5 2.99902C56.5 2.99902 57.3 3.33236 57.9 3.99902C58.5 4.66569 58.8 5.63226 58.8 6.89893V7.49902H53.4C53.4 8.23236 53.6333 8.86559 54.1 9.39893C54.5 9.86559 55.0333 10.0991 55.7 10.0991C56.2333 10.0991 56.6667 9.99883 57 9.79883C57.3333 9.59883 57.6 9.33236 57.8 8.99902L58.7 9.69922C58.0333 10.6992 57.0333 11.1992 55.7 11.1992ZM55.5 4.09912C54.9667 4.09912 54.5 4.29922 54.1 4.69922C53.7666 5.09922 53.5334 5.66559 53.4 6.39893H57.4V6.29883C57.3334 5.56549 57.1334 5.03255 56.8 4.69922C56.4667 4.29922 56.0333 4.09912 55.5 4.09912ZM64.2 3.09912V4.29883C63.9333 4.29883 63.7 4.29883 63.5 4.29883C62.6333 4.29883 62.0333 4.66559 61.7 5.39893V10.999H60.3V3.09912H61.6L61.7 3.99902C62.1 3.33236 62.7333 2.99902 63.6 2.99902C63.8 2.99902 64 3.03245 64.2 3.09912Z" fill="#FF5219"/>
</svg>
