<svg width="159" height="21" viewBox="0 0 159 21" fill="none" xmlns="http://www.w3.org/2000/svg">
<path d="M5.30042 2.5H0.900391V20H5.30042V2.5ZM3.70032 20H7.20032C9.06698 20 10.7003 19.6332 12.1003 18.8999C13.5003 18.2332 14.6004 17.2332 15.4004 15.8999C16.1337 14.5666 16.5004 13.0002 16.5004 11.2002C16.5004 9.46686 16.1337 7.93343 15.4004 6.6001C14.6004 5.26676 13.5003 4.26676 12.1003 3.6001C10.7003 2.86676 9.06698 2.5 7.20032 2.5H3.70032V6.2998H7.00037C7.66703 6.2998 8.30039 6.36667 8.90039 6.5C9.56706 6.7 10.1337 6.96647 10.6003 7.2998C11.067 7.6998 11.4337 8.23324 11.7003 8.8999C12.0337 9.4999 12.2003 10.2998 12.2003 11.2998C12.2003 12.2331 12.0337 13.0001 11.7003 13.6001C11.4337 14.2668 11.067 14.8002 10.6003 15.2002C10.1337 15.6002 9.56706 15.8667 8.90039 16C8.30039 16.2 7.66703 16.2998 7.00037 16.2998H3.70032V20ZM18.6003 4.1001C18.6003 4.7001 18.8337 5.2001 19.3004 5.6001C19.7004 6.0001 20.2004 6.2002 20.8004 6.2002C21.4671 6.2002 22.0004 6.0001 22.4004 5.6001C22.8004 5.2001 23.0004 4.7001 23.0004 4.1001C23.0004 3.5001 22.8004 3.03353 22.4004 2.7002C22.0004 2.3002 21.4671 2.1001 20.8004 2.1001C20.2004 2.1001 19.7004 2.3002 19.3004 2.7002C18.8337 3.03353 18.6003 3.5001 18.6003 4.1001ZM22.7003 8.5H19.0004V19.8999H22.7003V8.5ZM28.7003 16.3999C28.7003 16.1332 28.7671 15.9002 28.9004 15.7002C29.0337 15.5002 29.2337 15.3665 29.5004 15.2998C29.767 15.2331 30.1337 15.2002 30.6003 15.2002C31.1337 15.2002 31.667 15.2666 32.2003 15.3999C32.7337 15.5332 33.2003 15.7668 33.6003 16.1001V14.3999C33.4003 14.1999 33.1003 13.9998 32.7003 13.7998C32.3003 13.5998 31.8337 13.4331 31.3004 13.2998C30.7004 13.1665 30.0671 13.1001 29.4004 13.1001C27.9337 13.1001 26.8337 13.4 26.1003 14C25.3003 14.6667 24.9004 15.5669 24.9004 16.7002C24.9004 17.4335 25.0671 18.1002 25.4004 18.7002C25.8004 19.2335 26.3004 19.6332 26.9004 19.8999C27.5671 20.1666 28.267 20.2998 29.0004 20.2998C29.7337 20.2998 30.4004 20.1666 31.0004 19.8999C31.667 19.6332 32.2003 19.2665 32.6003 18.7998C33.0003 18.2665 33.2003 17.6332 33.2003 16.8999L32.8004 15.3999C32.8004 15.9332 32.6671 16.3669 32.4004 16.7002C32.2004 17.1002 31.9004 17.4001 31.5004 17.6001C31.167 17.8001 30.7671 17.8999 30.3004 17.8999C30.0337 17.8999 29.767 17.8335 29.5004 17.7002C29.2337 17.5669 29.0337 17.4002 28.9004 17.2002C28.7671 17.0002 28.7003 16.7332 28.7003 16.3999ZM25.7003 9.5L27.0004 12.1001C27.2004 11.9668 27.4671 11.8335 27.8004 11.7002C28.2004 11.5002 28.6337 11.3665 29.1003 11.2998C29.567 11.1665 30.067 11.1001 30.6003 11.1001C30.9337 11.1001 31.2337 11.1335 31.5004 11.2002C31.8337 11.2669 32.067 11.3667 32.2003 11.5C32.4003 11.6333 32.5337 11.8334 32.6003 12.1001C32.7337 12.3001 32.8004 12.5331 32.8004 12.7998V20.1001L36.4004 20V11.8999C36.4004 11.0999 36.167 10.4332 35.7003 9.8999C35.2337 9.36657 34.6004 8.96686 33.8004 8.7002C33.0004 8.36686 32.1003 8.2002 31.1003 8.2002C30.0337 8.2002 29.0337 8.36686 28.1003 8.7002C27.167 8.96686 26.367 9.23333 25.7003 9.5ZM56.8004 20V12.7002C56.8004 11.7002 56.6671 10.8998 56.4004 10.2998C56.2004 9.63314 55.8337 9.13314 55.3004 8.7998C54.7671 8.46647 54.067 8.2998 53.2003 8.2998C52.4003 8.2998 51.7003 8.46647 51.1003 8.7998C50.4337 9.13314 49.9004 9.60019 49.5004 10.2002C49.3004 9.53353 48.9337 9.06647 48.4004 8.7998C47.8671 8.46647 47.1337 8.2998 46.2003 8.2998C45.4003 8.2998 44.7337 8.46647 44.2003 8.7998C43.667 9.13314 43.2337 9.60019 42.9004 10.2002V8.5H39.2003V20H42.9004V13C42.9004 12.6 42.967 12.2332 43.1003 11.8999C43.2337 11.5666 43.4337 11.3335 43.7003 11.2002C43.967 11.0002 44.267 10.8999 44.6003 10.8999C45.1337 10.8999 45.5003 11.1 45.7003 11.5C45.9003 11.8333 46.0004 12.3333 46.0004 13V20H49.8004V13C49.8004 12.6 49.867 12.2332 50.0004 11.8999C50.2004 11.5666 50.4003 11.3335 50.6003 11.2002C50.867 11.0002 51.167 10.8999 51.5004 10.8999C52.0337 10.8999 52.4003 11.1 52.6003 11.5C52.867 11.8333 53.0004 12.3333 53.0004 13V20H56.8004ZM59.1003 14.2998C59.1003 15.4998 59.3671 16.5332 59.9004 17.3999C60.5004 18.3332 61.3004 19.0333 62.3004 19.5C63.3004 20.0333 64.4003 20.2998 65.6003 20.2998C66.867 20.2998 68.0004 20.0333 69.0004 19.5C70.0004 19.0333 70.7671 18.3332 71.3004 17.3999C71.9004 16.5332 72.2003 15.4998 72.2003 14.2998C72.2003 13.0998 71.9004 12.0334 71.3004 11.1001C70.7671 10.2334 70.0004 9.53333 69.0004 9C68.0004 8.53333 66.867 8.2998 65.6003 8.2998C64.4003 8.2998 63.3004 8.53333 62.3004 9C61.3004 9.53333 60.5004 10.2334 59.9004 11.1001C59.3671 12.0334 59.1003 13.0998 59.1003 14.2998ZM62.9004 14.2998C62.9004 13.6998 63.0337 13.1669 63.3004 12.7002C63.5671 12.3002 63.9004 11.9669 64.3004 11.7002C64.7004 11.5002 65.1337 11.3999 65.6003 11.3999C66.1337 11.3999 66.6004 11.5002 67.0004 11.7002C67.4004 11.9669 67.7004 12.3002 67.9004 12.7002C68.1671 13.1669 68.3004 13.6998 68.3004 14.2998C68.3004 14.8998 68.1671 15.4332 67.9004 15.8999C67.7004 16.2999 67.4004 16.5998 67.0004 16.7998C66.6004 17.0665 66.1337 17.2002 65.6003 17.2002C65.1337 17.2002 64.7004 17.0665 64.3004 16.7998C63.9004 16.5998 63.5671 16.2999 63.3004 15.8999C63.0337 15.4332 62.9004 14.8998 62.9004 14.2998ZM81.9004 13V20H85.9004V12.7002C85.9004 11.3002 85.5671 10.1999 84.9004 9.3999C84.2337 8.66657 83.2004 8.2998 81.8004 8.2998C80.9337 8.2998 80.2003 8.46647 79.6003 8.7998C79.067 9.13314 78.6338 9.63314 78.3004 10.2998V8.5H74.5004V20H78.3004V13C78.3004 12.6 78.367 12.2332 78.5004 11.8999C78.7004 11.5666 78.9336 11.3335 79.2003 11.2002C79.5337 11.0002 79.9004 10.8999 80.3004 10.8999C80.9004 10.8999 81.3004 11.1 81.5004 11.5C81.767 11.8333 81.9004 12.3333 81.9004 13ZM101.3 0.5H97.6003V20.1001L101.3 20V0.5ZM88.2003 14.2998C88.2003 15.5665 88.4337 16.6668 88.9004 17.6001C89.4337 18.4668 90.1337 19.1334 91.0004 19.6001C91.8004 20.0668 92.667 20.2998 93.6003 20.2998C94.6003 20.2998 95.467 20.0668 96.2003 19.6001C96.9336 19.1334 97.5337 18.4333 98.0004 17.5C98.4004 16.6333 98.6003 15.5665 98.6003 14.2998C98.6003 13.0331 98.4004 11.9668 98.0004 11.1001C97.5337 10.1668 96.9336 9.46667 96.2003 9C95.467 8.53333 94.6003 8.2998 93.6003 8.2998C92.667 8.2998 91.8004 8.53333 91.0004 9C90.1337 9.46667 89.4337 10.1333 88.9004 11C88.4337 11.9333 88.2003 13.0331 88.2003 14.2998ZM92.1003 14.2998C92.1003 13.6998 92.2337 13.1669 92.5004 12.7002C92.767 12.3002 93.1004 11.9669 93.5004 11.7002C93.9004 11.5002 94.3671 11.3999 94.9004 11.3999C95.3004 11.3999 95.7003 11.5002 96.1003 11.7002C96.567 11.9002 96.9336 12.2335 97.2003 12.7002C97.467 13.1669 97.6003 13.6998 97.6003 14.2998C97.6003 14.8998 97.467 15.4332 97.2003 15.8999C96.9336 16.2999 96.567 16.6332 96.1003 16.8999C95.7003 17.0999 95.3004 17.2002 94.9004 17.2002C94.3671 17.2002 93.9004 17.0999 93.5004 16.8999C93.1004 16.6332 92.767 16.2999 92.5004 15.8999C92.2337 15.4332 92.1003 14.8998 92.1003 14.2998ZM116.4 2.5H112.1V20H116.4V2.5ZM114.8 2.5V6H118.2C119.067 6 119.734 6.2001 120.2 6.6001C120.667 7.0001 120.9 7.56647 120.9 8.2998C120.9 9.03314 120.667 9.56657 120.2 9.8999C119.734 10.2999 119.067 10.5 118.2 10.5H114.8V14H118.2C119.667 14 120.9 13.7665 121.9 13.2998C122.967 12.8331 123.734 12.1665 124.2 11.2998C124.734 10.4331 125 9.43314 125 8.2998C125 7.0998 124.734 6.06686 124.2 5.2002C123.734 4.33353 122.967 3.66686 121.9 3.2002C120.9 2.73353 119.667 2.5 118.2 2.5H114.8ZM131.2 0.5H127.4V20H131.2V0.5ZM137 16.3999C137 16.1332 137.067 15.9002 137.2 15.7002C137.334 15.5002 137.534 15.3665 137.8 15.2998C138.067 15.2331 138.434 15.2002 138.9 15.2002C139.5 15.2002 140.067 15.2666 140.6 15.3999C141.134 15.5332 141.6 15.7668 142 16.1001V14.3999C141.8 14.1999 141.5 13.9998 141.1 13.7998C140.7 13.5998 140.2 13.4331 139.6 13.2998C139.067 13.1665 138.434 13.1001 137.7 13.1001C136.3 13.1001 135.2 13.4 134.4 14C133.6 14.6667 133.2 15.5669 133.2 16.7002C133.2 17.4335 133.4 18.1002 133.8 18.7002C134.2 19.2335 134.7 19.6332 135.3 19.8999C135.9 20.1666 136.567 20.2998 137.3 20.2998C138.034 20.2998 138.734 20.1666 139.4 19.8999C140 19.6332 140.5 19.2665 140.9 18.7998C141.3 18.2665 141.5 17.6332 141.5 16.8999L141.1 15.3999C141.1 15.9332 141 16.3669 140.8 16.7002C140.534 17.1002 140.234 17.4001 139.9 17.6001C139.5 17.8001 139.1 17.8999 138.7 17.8999C138.367 17.8999 138.1 17.8335 137.9 17.7002C137.634 17.5669 137.434 17.4002 137.3 17.2002C137.1 17.0002 137 16.7332 137 16.3999ZM134.1 9.5L135.4 12.1001C135.534 11.9668 135.8 11.8335 136.2 11.7002C136.534 11.5002 136.934 11.3665 137.4 11.2998C137.934 11.1665 138.467 11.1001 139 11.1001C139.334 11.1001 139.634 11.1335 139.9 11.2002C140.167 11.2669 140.4 11.3667 140.6 11.5C140.8 11.6333 140.934 11.8334 141 12.1001C141.067 12.3001 141.1 12.5331 141.1 12.7998V20H144.8V11.8999C144.8 11.0999 144.567 10.4332 144.1 9.8999C143.634 9.36657 143 8.96686 142.2 8.7002C141.4 8.36686 140.467 8.2002 139.4 8.2002C138.334 8.2002 137.334 8.36686 136.4 8.7002C135.534 8.96686 134.767 9.23333 134.1 9.5ZM155.1 13V20H159V12.7002C159 11.3002 158.667 10.1999 158 9.3999C157.334 8.66657 156.3 8.2998 154.9 8.2998C154.034 8.2998 153.3 8.46647 152.7 8.7998C152.167 9.13314 151.734 9.63314 151.4 10.2998V8.5H147.6V20H151.4V13C151.4 12.6 151.467 12.2332 151.6 11.8999C151.8 11.5666 152.034 11.3335 152.3 11.2002C152.634 11.0002 153 10.8999 153.4 10.8999C154 10.8999 154.434 11.1 154.7 11.5C154.967 11.8333 155.1 12.3333 155.1 13Z" fill="#202020"/>
</svg>
