<svg width="387" height="26" viewBox="0 0 387 26" fill="none" xmlns="http://www.w3.org/2000/svg">
<path d="M4.89966 2.49951H0.599609V19.9995H4.89966V2.49951ZM3.39966 19.9995H6.79968C8.73302 19.9995 10.3997 19.6327 11.7997 18.8994C13.1997 18.2327 14.2663 17.2327 14.9996 15.8994C15.7996 14.5661 16.1996 12.9997 16.1996 11.1997C16.1996 9.46637 15.7996 7.93294 14.9996 6.59961C14.2663 5.26628 13.1997 4.26628 11.7997 3.59961C10.3997 2.86628 8.73302 2.49951 6.79968 2.49951H3.39966V6.29932H6.69958C7.36625 6.29932 7.99961 6.36618 8.59961 6.49951C9.19961 6.69951 9.73292 6.96598 10.1996 7.29932C10.7329 7.69932 11.133 8.23275 11.3997 8.89941C11.6663 9.49941 11.7997 10.2993 11.7997 11.2993C11.7997 12.2326 11.6663 12.9996 11.3997 13.5996C11.133 14.2663 10.7329 14.7997 10.1996 15.1997C9.73292 15.5997 9.19961 15.8662 8.59961 15.9995C7.99961 16.1995 7.36625 16.2993 6.69958 16.2993H3.39966V19.9995ZM18.2997 4.09961C18.2997 4.69961 18.4997 5.19961 18.8997 5.59961C19.3663 5.99961 19.8996 6.19971 20.4996 6.19971C21.0996 6.19971 21.5996 5.99961 21.9996 5.59961C22.4663 5.19961 22.6996 4.69961 22.6996 4.09961C22.6996 3.49961 22.4663 3.03304 21.9996 2.69971C21.5996 2.29971 21.0996 2.09961 20.4996 2.09961C19.8996 2.09961 19.3663 2.29971 18.8997 2.69971C18.4997 3.03304 18.2997 3.49961 18.2997 4.09961ZM22.2997 8.49951H18.6996V19.8994H22.2997V8.49951ZM28.5996 20.8994H24.9996C25.0663 21.8994 25.333 22.7996 25.7997 23.5996C26.2663 24.3329 26.9663 24.9327 27.8997 25.3994C28.833 25.7994 29.9997 25.9995 31.3997 25.9995C32.5997 25.9995 33.6663 25.7994 34.5996 25.3994C35.5329 24.9327 36.2997 24.2661 36.8997 23.3994C37.4997 22.4661 37.7997 21.266 37.7997 19.7993V8.49951L34.0996 8.59961V19.7993C34.0996 20.5326 33.9663 21.1329 33.6996 21.5996C33.4996 22.0663 33.1663 22.433 32.6996 22.6997C32.2996 22.8997 31.833 22.9995 31.2997 22.9995C30.7663 22.9995 30.333 22.9326 29.9996 22.7993C29.5996 22.5993 29.2663 22.3663 28.9996 22.0996C28.7996 21.7663 28.6663 21.3661 28.5996 20.8994ZM24.6996 14.1997C24.6996 15.4664 24.9663 16.5327 25.4996 17.3994C26.033 18.2661 26.7329 18.9327 27.5996 19.3994C28.3996 19.7994 29.2663 19.9995 30.1996 19.9995C31.1996 19.9995 32.0663 19.766 32.7997 19.2993C33.533 18.8326 34.0996 18.166 34.4996 17.2993C34.9663 16.4326 35.1996 15.3997 35.1996 14.1997C35.1996 12.933 34.9663 11.8662 34.4996 10.9995C34.0996 10.1328 33.533 9.46618 32.7997 8.99951C32.0663 8.53285 31.1996 8.29932 30.1996 8.29932C29.2663 8.29932 28.3996 8.49941 27.5996 8.89941C26.7329 9.36608 26.033 10.0327 25.4996 10.8994C24.9663 11.7661 24.6996 12.8664 24.6996 14.1997ZM28.6996 14.1997C28.6996 13.533 28.8329 12.9996 29.0996 12.5996C29.3663 12.1996 29.6996 11.8997 30.0996 11.6997C30.4996 11.4997 30.9663 11.3994 31.4996 11.3994C31.7663 11.3994 32.0663 11.4328 32.3997 11.4995C32.733 11.6328 33.033 11.8329 33.2997 12.0996C33.5663 12.2996 33.7663 12.5661 33.8997 12.8994C34.033 13.2327 34.0996 13.6664 34.0996 14.1997C34.0996 14.7997 33.9663 15.2997 33.6996 15.6997C33.4329 16.0997 33.0996 16.433 32.6996 16.6997C32.2996 16.833 31.8996 16.8994 31.4996 16.8994C30.9663 16.8994 30.4996 16.7996 30.0996 16.5996C29.6996 16.3996 29.3663 16.0997 29.0996 15.6997C28.8329 15.233 28.6996 14.733 28.6996 14.1997ZM40.3997 4.19971C40.3997 4.79971 40.6329 5.29971 41.0996 5.69971C41.4996 6.09971 41.9996 6.29932 42.5996 6.29932C43.2663 6.29932 43.7996 6.09971 44.1996 5.69971C44.5996 5.29971 44.7997 4.79971 44.7997 4.19971C44.7997 3.59971 44.5996 3.13265 44.1996 2.79932C43.7996 2.39932 43.2663 2.19971 42.5996 2.19971C41.9996 2.19971 41.4996 2.39932 41.0996 2.79932C40.6329 3.13265 40.3997 3.59971 40.3997 4.19971ZM44.4996 8.59961H40.7997V20.0996H44.4996V8.59961ZM53.8997 8.59961H46.1996V11.6997H53.8997V8.59961ZM51.8997 4.59961H48.1996V20.0996H51.8997V4.59961ZM58.3997 16.4995C58.3997 16.2328 58.4663 15.9993 58.5996 15.7993C58.7329 15.5993 58.9329 15.4326 59.1996 15.2993C59.4663 15.2326 59.833 15.1997 60.2997 15.1997C60.8997 15.1997 61.4663 15.2661 61.9996 15.3994C62.533 15.5327 62.9997 15.7663 63.3997 16.0996V14.3994C63.1997 14.1994 62.8996 13.9993 62.4996 13.7993C62.0996 13.5993 61.5996 13.4326 60.9996 13.2993C60.4663 13.166 59.8329 13.0996 59.0996 13.0996C57.6996 13.0996 56.5997 13.4329 55.7997 14.0996C54.9997 14.6996 54.5996 15.5664 54.5996 16.6997C54.5996 17.433 54.7996 18.0997 55.1996 18.6997C55.5996 19.233 56.0996 19.6327 56.6996 19.8994C57.2996 20.1661 57.9663 20.2993 58.6996 20.2993C59.4329 20.2993 60.133 20.1995 60.7997 19.9995C61.3997 19.7328 61.8997 19.3326 62.2997 18.7993C62.6997 18.266 62.8997 17.6327 62.8997 16.8994L62.4996 15.3994C62.4996 15.9327 62.3996 16.3993 62.1996 16.7993C61.9329 17.1327 61.633 17.3996 61.2997 17.5996C60.8997 17.7996 60.4996 17.8994 60.0996 17.8994C59.7663 17.8994 59.4997 17.833 59.2997 17.6997C59.033 17.633 58.8329 17.4993 58.6996 17.2993C58.4996 17.0326 58.3997 16.7662 58.3997 16.4995ZM55.4996 9.59961L56.7997 12.0996C56.933 12.0329 57.1996 11.8997 57.5996 11.6997C57.9329 11.5664 58.333 11.4326 58.7997 11.2993C59.333 11.166 59.8663 11.0996 60.3997 11.0996C60.733 11.0996 61.033 11.133 61.2997 11.1997C61.5663 11.2664 61.7996 11.3996 61.9996 11.5996C62.1996 11.7329 62.333 11.8996 62.3997 12.0996C62.4663 12.2996 62.4996 12.5326 62.4996 12.7993V20.0996H66.1996V11.9995C66.1996 11.1995 65.9663 10.5328 65.4996 9.99951C65.033 9.39951 64.3996 8.96637 63.5996 8.69971C62.7996 8.43304 61.8663 8.29932 60.7997 8.29932C59.733 8.29932 58.733 8.43304 57.7997 8.69971C56.933 8.96637 56.1663 9.26628 55.4996 9.59961ZM72.7997 0.599609H68.9996V20.0996H72.7997V0.599609ZM89.5996 8.59961H81.8997V11.6997H89.5996V8.59961ZM87.4996 4.59961H83.8997V20.0996H87.4996V4.59961ZM94.8997 20.0996V8.59961H91.1996V20.0996H94.8997ZM98.1996 12.4995L99.7997 9.29932C99.5997 8.96598 99.333 8.73294 98.9996 8.59961C98.5996 8.39961 98.1997 8.29932 97.7997 8.29932C97.133 8.29932 96.4997 8.53285 95.8997 8.99951C95.3663 9.39951 94.8996 9.96637 94.4996 10.6997C94.1663 11.3664 93.9996 12.1663 93.9996 13.0996L94.8997 14.3994C94.8997 13.8661 94.9663 13.3995 95.0996 12.9995C95.2329 12.6662 95.4663 12.3997 95.7997 12.1997C96.0664 11.9997 96.3662 11.8994 96.6996 11.8994C97.0329 11.8994 97.3329 11.9328 97.5996 11.9995C97.7996 12.1328 97.9996 12.2995 98.1996 12.4995ZM104.4 16.4995C104.4 16.2328 104.466 15.9993 104.6 15.7993C104.733 15.5993 104.933 15.4661 105.2 15.3994C105.466 15.2661 105.8 15.1997 106.2 15.1997C106.8 15.1997 107.366 15.2995 107.9 15.4995C108.433 15.6328 108.9 15.8329 109.3 16.0996V14.4995C109.1 14.2328 108.8 13.9993 108.4 13.7993C108 13.5993 107.5 13.4326 106.9 13.2993C106.366 13.166 105.766 13.0996 105.1 13.0996C103.633 13.0996 102.5 13.4329 101.7 14.0996C100.966 14.6996 100.6 15.5664 100.6 16.6997C100.6 17.4997 100.766 18.1664 101.1 18.6997C101.5 19.233 102 19.6662 102.6 19.9995C103.266 20.1995 103.966 20.2993 104.7 20.2993C105.433 20.366 106.1 20.2662 106.7 19.9995C107.366 19.7328 107.9 19.3326 108.3 18.7993C108.7 18.266 108.9 17.6662 108.9 16.9995L108.5 15.4995C108.5 15.9662 108.366 16.3993 108.1 16.7993C107.9 17.1327 107.6 17.3996 107.2 17.5996C106.866 17.7996 106.466 17.8994 106 17.8994C105.733 17.8994 105.466 17.833 105.2 17.6997C104.933 17.633 104.733 17.4993 104.6 17.2993C104.466 17.0993 104.4 16.8328 104.4 16.4995ZM101.4 9.59961L102.7 12.0996C102.833 12.0329 103.1 11.8997 103.5 11.6997C103.833 11.5664 104.266 11.4326 104.8 11.2993C105.266 11.2326 105.766 11.1997 106.3 11.1997C106.633 11.1997 106.933 11.1997 107.2 11.1997C107.466 11.333 107.7 11.4663 107.9 11.5996C108.1 11.7329 108.233 11.8996 108.3 12.0996C108.433 12.2996 108.5 12.5661 108.5 12.8994V20.0996H112.1V11.9995C112.1 11.1995 111.866 10.5328 111.4 9.99951C110.933 9.46618 110.3 9.03304 109.5 8.69971C108.7 8.43304 107.8 8.29932 106.8 8.29932C105.666 8.29932 104.666 8.43304 103.8 8.69971C102.866 8.96637 102.066 9.26628 101.4 9.59961ZM122.4 13.0996V20.0996H126.3V12.6997C126.3 11.2997 125.966 10.2328 125.3 9.49951C124.7 8.69951 123.666 8.29932 122.2 8.29932C121.333 8.29932 120.633 8.49941 120.1 8.89941C119.5 9.23275 119.033 9.69932 118.7 10.2993V8.59961H114.9V20.0996H118.7V13.0996C118.7 12.6329 118.8 12.2662 119 11.9995C119.133 11.6662 119.366 11.3997 119.7 11.1997C119.966 11.0664 120.3 10.9995 120.7 10.9995C121.3 10.9995 121.733 11.1662 122 11.4995C122.266 11.8995 122.4 12.4329 122.4 13.0996ZM129.9 15.8994L128.3 18.3994C128.833 18.7994 129.4 19.1662 130 19.4995C130.6 19.8328 131.266 20.0993 132 20.2993C132.666 20.4993 133.433 20.5996 134.3 20.5996C135.633 20.5996 136.7 20.2997 137.5 19.6997C138.233 19.033 138.6 18.0994 138.6 16.8994C138.6 16.1661 138.433 15.5663 138.1 15.0996C137.833 14.6996 137.433 14.3328 136.9 13.9995C136.433 13.7328 135.9 13.4993 135.3 13.2993C134.7 13.0993 134.2 12.9326 133.8 12.7993C133.4 12.5993 133.1 12.4326 132.9 12.2993C132.7 12.0993 132.6 11.8997 132.6 11.6997C132.6 11.4997 132.7 11.333 132.9 11.1997C133.033 11.0664 133.3 10.9995 133.7 10.9995C134.166 10.9995 134.733 11.1327 135.4 11.3994C136 11.6661 136.533 12.0328 137 12.4995L138.4 9.99951C137.933 9.66618 137.433 9.39971 136.9 9.19971C136.433 8.93304 135.9 8.73294 135.3 8.59961C134.7 8.46628 134.066 8.39941 133.4 8.39941C132.6 8.39941 131.866 8.49971 131.2 8.69971C130.6 8.96637 130.1 9.33265 129.7 9.79932C129.3 10.266 129.1 10.8663 129.1 11.5996C129.1 12.3329 129.266 12.9327 129.6 13.3994C129.933 13.8661 130.333 14.2328 130.8 14.4995C131.333 14.7662 131.866 14.9997 132.4 15.1997C133 15.3997 133.466 15.5664 133.8 15.6997C134.2 15.8997 134.466 16.0993 134.6 16.2993C134.733 16.4326 134.8 16.6327 134.8 16.8994C134.8 17.1661 134.733 17.3662 134.6 17.4995C134.4 17.6995 134.1 17.7993 133.7 17.7993C133.433 17.7993 133.133 17.7664 132.8 17.6997C132.4 17.5664 131.966 17.3663 131.5 17.0996C131.033 16.8329 130.5 16.4327 129.9 15.8994ZM147.5 8.59961H139.7V11.6997H147.5V8.59961ZM147.1 4.19971L148.6 1.49951C148.466 1.29951 148.233 1.09941 147.9 0.899414C147.633 0.699414 147.3 0.532747 146.9 0.399414C146.5 0.266081 146 0.199707 145.4 0.199707C144.466 0.199707 143.666 0.366374 143 0.699707C142.4 1.03304 141.933 1.49961 141.6 2.09961C141.266 2.76628 141.1 3.53275 141.1 4.39941V20.0996H144.7V5.29932C144.7 4.89932 144.766 4.59941 144.9 4.39941C144.966 4.13275 145.1 3.93265 145.3 3.79932C145.5 3.66598 145.7 3.59961 145.9 3.59961C146.166 3.59961 146.366 3.66598 146.5 3.79932C146.7 3.86598 146.9 4.03265 147.1 4.29932V4.19971ZM148.6 14.2993C148.6 15.4993 148.9 16.5327 149.5 17.3994C150.033 18.3327 150.8 19.0328 151.8 19.4995C152.8 20.0328 153.933 20.2993 155.2 20.2993C156.466 20.2993 157.566 20.0328 158.5 19.4995C159.5 19.0328 160.3 18.3327 160.9 17.3994C161.5 16.5327 161.8 15.4993 161.8 14.2993C161.8 13.0993 161.5 12.0329 160.9 11.0996C160.3 10.2329 159.5 9.53285 158.5 8.99951C157.566 8.53285 156.466 8.29932 155.2 8.29932C153.933 8.29932 152.8 8.53285 151.8 8.99951C150.8 9.53285 150.033 10.2329 149.5 11.0996C148.9 12.0329 148.6 13.0993 148.6 14.2993ZM152.5 14.2993C152.5 13.6993 152.633 13.1664 152.9 12.6997C153.1 12.2997 153.4 11.9664 153.8 11.6997C154.2 11.4997 154.666 11.3994 155.2 11.3994C155.666 11.3994 156.1 11.4997 156.5 11.6997C156.9 11.9664 157.233 12.2997 157.5 12.6997C157.766 13.1664 157.9 13.6993 157.9 14.2993C157.9 14.8993 157.766 15.3993 157.5 15.7993C157.233 16.266 156.9 16.5993 156.5 16.7993C156.1 17.066 155.666 17.1997 155.2 17.1997C154.666 17.1997 154.2 17.066 153.8 16.7993C153.4 16.5993 153.1 16.266 152.9 15.7993C152.633 15.3993 152.5 14.8993 152.5 14.2993ZM167.7 19.9995V8.49951H164V19.9995H167.7ZM171 12.3994L172.7 9.19971C172.5 8.93304 172.2 8.69951 171.8 8.49951C171.4 8.36618 171 8.29932 170.6 8.29932C169.933 8.29932 169.333 8.49941 168.8 8.89941C168.2 9.29941 167.7 9.86628 167.3 10.5996C166.966 11.3329 166.8 12.1328 166.8 12.9995L167.7 14.2993C167.7 13.766 167.766 13.3328 167.9 12.9995C168.1 12.5995 168.333 12.2996 168.6 12.0996C168.866 11.8996 169.2 11.7993 169.6 11.7993C169.933 11.7993 170.2 11.8662 170.4 11.9995C170.6 12.0662 170.8 12.1994 171 12.3994ZM191.8 19.9995V12.5996C191.8 11.6663 191.7 10.8993 191.5 10.2993C191.233 9.63265 190.833 9.13265 190.3 8.79932C189.766 8.46598 189.066 8.29932 188.2 8.29932C187.4 8.29932 186.7 8.46598 186.1 8.79932C185.5 9.13265 184.966 9.59971 184.5 10.1997C184.3 9.53304 183.933 9.06598 183.4 8.79932C182.866 8.46598 182.133 8.29932 181.2 8.29932C180.466 8.29932 179.8 8.46598 179.2 8.79932C178.666 9.13265 178.233 9.59971 177.9 10.1997V8.49951H174.3V19.9995H177.9V12.9995C177.9 12.5328 177.966 12.1326 178.1 11.7993C178.233 11.5326 178.433 11.333 178.7 11.1997C178.966 10.9997 179.266 10.8994 179.6 10.8994C180.133 10.8994 180.5 11.0995 180.7 11.4995C180.966 11.8328 181.1 12.3328 181.1 12.9995V19.9995H184.9V12.9995C184.9 12.5328 184.966 12.1326 185.1 11.7993C185.233 11.5326 185.433 11.333 185.7 11.1997C185.966 10.9997 186.266 10.8994 186.6 10.8994C187.066 10.8994 187.433 11.0995 187.7 11.4995C187.9 11.8328 188 12.3328 188 12.9995V19.9995H191.8ZM197.7 16.3994C197.7 16.1327 197.766 15.8997 197.9 15.6997C198.033 15.4997 198.233 15.366 198.5 15.2993C198.766 15.166 199.133 15.0996 199.6 15.0996C200.133 15.0996 200.666 15.1994 201.2 15.3994C201.733 15.5327 202.2 15.7328 202.6 15.9995V14.3994C202.4 14.1327 202.1 13.9326 201.7 13.7993C201.3 13.5993 200.833 13.4326 200.3 13.2993C199.7 13.0993 199.066 12.9995 198.4 12.9995C196.933 12.9995 195.833 13.3328 195.1 13.9995C194.3 14.6662 193.9 15.5329 193.9 16.5996C193.9 17.3996 194.066 18.0663 194.4 18.5996C194.8 19.1996 195.3 19.6327 195.9 19.8994C196.566 20.1661 197.266 20.2993 198 20.2993C198.733 20.2993 199.4 20.1661 200 19.8994C200.666 19.6327 201.2 19.266 201.6 18.7993C202 18.266 202.2 17.6327 202.2 16.8994L201.8 15.3994C201.8 15.9327 201.666 16.3664 201.4 16.6997C201.2 17.0997 200.9 17.3662 200.5 17.4995C200.166 17.6995 199.766 17.7993 199.3 17.7993C199.033 17.7993 198.766 17.7664 198.5 17.6997C198.233 17.5664 198.033 17.3997 197.9 17.1997C197.766 16.9997 197.7 16.7327 197.7 16.3994ZM194.7 9.49951L196 11.9995C196.2 11.9328 196.466 11.833 196.8 11.6997C197.2 11.4997 197.633 11.366 198.1 11.2993C198.566 11.166 199.066 11.0996 199.6 11.0996C199.933 11.0996 200.233 11.133 200.5 11.1997C200.833 11.2664 201.066 11.3662 201.2 11.4995C201.4 11.6328 201.533 11.7995 201.6 11.9995C201.733 12.1995 201.8 12.466 201.8 12.7993V19.9995H205.4V11.8994C205.4 11.0994 205.166 10.4327 204.7 9.89941C204.233 9.36608 203.6 8.96637 202.8 8.69971C202 8.36637 201.1 8.19971 200.1 8.19971C199.033 8.19971 198.033 8.33294 197.1 8.59961C196.166 8.86628 195.366 9.16618 194.7 9.49951ZM214.6 8.49951H206.9V11.6997H214.6V8.49951ZM212.5 4.49951H208.9V19.9995H212.5V4.49951ZM216 4.09961C216 4.69961 216.2 5.19961 216.6 5.59961C217.066 5.99961 217.6 6.19971 218.2 6.19971C218.8 6.19971 219.3 5.99961 219.7 5.59961C220.166 5.19961 220.4 4.69961 220.4 4.09961C220.4 3.49961 220.166 3.03304 219.7 2.69971C219.3 2.29971 218.8 2.09961 218.2 2.09961C217.6 2.09961 217.066 2.29971 216.6 2.69971C216.2 3.03304 216 3.49961 216 4.09961ZM220 8.49951H216.3V19.9995H220V8.49951ZM222.4 14.1997C222.4 15.3997 222.7 16.4326 223.3 17.2993C223.833 18.2326 224.6 18.9662 225.6 19.4995C226.6 19.9662 227.733 20.1997 229 20.1997C230.266 20.1997 231.366 19.9662 232.3 19.4995C233.3 18.9662 234.1 18.2326 234.7 17.2993C235.3 16.4326 235.6 15.3997 235.6 14.1997C235.6 12.9997 235.3 11.9328 234.7 10.9995C234.1 10.1328 233.3 9.43275 232.3 8.89941C231.366 8.43275 230.266 8.19971 229 8.19971C227.733 8.19971 226.6 8.43275 225.6 8.89941C224.6 9.43275 223.833 10.1328 223.3 10.9995C222.7 11.9328 222.4 12.9997 222.4 14.1997ZM226.3 14.1997C226.3 13.5997 226.433 13.0663 226.7 12.5996C226.9 12.1996 227.2 11.8663 227.6 11.5996C228 11.3996 228.466 11.2993 229 11.2993C229.466 11.2993 229.9 11.3996 230.3 11.5996C230.7 11.8663 231.033 12.1996 231.3 12.5996C231.566 13.0663 231.7 13.5997 231.7 14.1997C231.7 14.7997 231.566 15.3327 231.3 15.7993C231.033 16.1993 230.7 16.4997 230.3 16.6997C229.9 16.9664 229.466 17.0996 229 17.0996C228.466 17.0996 228 16.9664 227.6 16.6997C227.2 16.4997 226.9 16.1993 226.7 15.7993C226.433 15.3327 226.3 14.7997 226.3 14.1997ZM245.3 12.9995V19.9995H249.2V12.5996C249.2 11.1996 248.866 10.0993 248.2 9.29932C247.6 8.56598 246.566 8.19971 245.1 8.19971C244.233 8.19971 243.533 8.36637 243 8.69971C242.4 9.03304 241.933 9.53304 241.6 10.1997V8.49951H237.8V19.9995H241.6V12.9995C241.6 12.5328 241.7 12.1326 241.9 11.7993C242.033 11.466 242.266 11.2329 242.6 11.0996C242.866 10.8996 243.2 10.7993 243.6 10.7993C244.2 10.7993 244.633 10.9994 244.9 11.3994C245.166 11.7327 245.3 12.2662 245.3 12.9995ZM262.9 14.1997C262.9 13.5997 263.033 13.0997 263.3 12.6997C263.566 12.233 263.933 11.8663 264.4 11.5996C264.866 11.3329 265.366 11.1997 265.9 11.1997C266.3 11.1997 266.733 11.2661 267.2 11.3994C267.6 11.5327 268 11.7328 268.4 11.9995C268.8 12.1995 269.1 12.4994 269.3 12.8994V9.19971C268.9 8.93304 268.4 8.69951 267.8 8.49951C267.2 8.29951 266.466 8.19971 265.6 8.19971C264.333 8.19971 263.2 8.46618 262.2 8.99951C261.2 9.46618 260.4 10.1663 259.8 11.0996C259.266 11.9663 259 12.9997 259 14.1997C259 15.3997 259.266 16.4326 259.8 17.2993C260.4 18.2326 261.2 18.9662 262.2 19.4995C263.2 19.9662 264.333 20.1997 265.6 20.1997C266.466 20.1997 267.2 20.0994 267.8 19.8994C268.4 19.6994 268.9 19.4329 269.3 19.0996V15.4995C269.1 15.8328 268.8 16.1327 268.4 16.3994C268.066 16.6661 267.666 16.8662 267.2 16.9995C266.8 17.1328 266.366 17.1997 265.9 17.1997C265.366 17.1997 264.866 17.066 264.4 16.7993C263.933 16.5993 263.566 16.266 263.3 15.7993C263.033 15.3327 262.9 14.7997 262.9 14.1997ZM271.4 14.1997C271.4 15.3997 271.666 16.4326 272.2 17.2993C272.8 18.2326 273.6 18.9662 274.6 19.4995C275.6 19.9662 276.7 20.1997 277.9 20.1997C279.166 20.1997 280.3 19.9662 281.3 19.4995C282.3 18.9662 283.066 18.2326 283.6 17.2993C284.2 16.4326 284.5 15.3997 284.5 14.1997C284.5 12.9997 284.2 11.9328 283.6 10.9995C283.066 10.1328 282.3 9.43275 281.3 8.89941C280.3 8.43275 279.166 8.19971 277.9 8.19971C276.7 8.19971 275.6 8.43275 274.6 8.89941C273.6 9.43275 272.8 10.1328 272.2 10.9995C271.666 11.9328 271.4 12.9997 271.4 14.1997ZM275.2 14.1997C275.2 13.5997 275.333 13.0663 275.6 12.5996C275.866 12.1996 276.2 11.8663 276.6 11.5996C277 11.3996 277.433 11.2993 277.9 11.2993C278.433 11.2993 278.9 11.3996 279.3 11.5996C279.7 11.8663 280 12.1996 280.2 12.5996C280.466 13.0663 280.6 13.5997 280.6 14.1997C280.6 14.7997 280.466 15.3327 280.2 15.7993C280 16.1993 279.7 16.4997 279.3 16.6997C278.9 16.9664 278.433 17.0996 277.9 17.0996C277.433 17.0996 277 16.9664 276.6 16.6997C276.2 16.4997 275.866 16.1993 275.6 15.7993C275.333 15.3327 275.2 14.7997 275.2 14.1997ZM294.2 12.9995V19.9995H298.2V12.5996C298.2 11.1996 297.866 10.0993 297.2 9.29932C296.533 8.56598 295.5 8.19971 294.1 8.19971C293.233 8.19971 292.5 8.36637 291.9 8.69971C291.366 9.03304 290.933 9.53304 290.6 10.1997V8.49951H286.8V19.9995H290.6V12.9995C290.6 12.5328 290.666 12.1326 290.8 11.7993C291 11.466 291.233 11.2329 291.5 11.0996C291.833 10.8996 292.2 10.7993 292.6 10.7993C293.2 10.7993 293.6 10.9994 293.8 11.3994C294.066 11.7327 294.2 12.2662 294.2 12.9995ZM308 8.49951H300.1V11.5996H308V8.49951ZM307.5 4.09961L309.1 1.29932C308.9 1.16598 308.666 0.999316 308.4 0.799316C308.133 0.599316 307.766 0.43265 307.3 0.299316C306.9 0.165983 306.433 0.0996094 305.9 0.0996094C304.966 0.0996094 304.166 0.266276 303.5 0.599609C302.833 0.932943 302.333 1.39951 302 1.99951C301.733 2.59951 301.6 3.33304 301.6 4.19971V19.9995H305.2V5.19971C305.2 4.79971 305.233 4.46637 305.3 4.19971C305.433 3.93304 305.566 3.76637 305.7 3.69971C305.9 3.56637 306.133 3.49951 306.4 3.49951C306.6 3.49951 306.8 3.53294 307 3.59961C307.2 3.73294 307.366 3.89961 307.5 4.09961ZM315.6 20.1997C317.066 20.1997 318.3 19.9327 319.3 19.3994C320.366 18.7994 321.2 17.9326 321.8 16.7993L318.4 15.9995C318.133 16.4662 317.733 16.8329 317.2 17.0996C316.733 17.3663 316.166 17.4995 315.5 17.4995C314.966 17.4995 314.5 17.3663 314.1 17.0996C313.7 16.8329 313.4 16.4662 313.2 15.9995C313 15.4662 312.9 14.8664 312.9 14.1997C312.9 13.3997 313 12.766 313.2 12.2993C313.4 11.766 313.666 11.3663 314 11.0996C314.4 10.8329 314.9 10.6997 315.5 10.6997C315.9 10.6997 316.266 10.7995 316.6 10.9995C316.933 11.2662 317.2 11.5661 317.4 11.8994C317.6 12.2994 317.7 12.733 317.7 13.1997C317.7 13.333 317.666 13.4997 317.6 13.6997C317.533 13.833 317.466 13.9663 317.4 14.0996L318.3 12.8994H311.2V14.9995H321.7C321.7 14.9328 321.7 14.7996 321.7 14.5996C321.7 14.3996 321.7 14.1995 321.7 13.9995C321.7 12.7995 321.466 11.7661 321 10.8994C320.533 10.0327 319.833 9.36608 318.9 8.89941C317.966 8.43275 316.833 8.19971 315.5 8.19971C314.166 8.19971 313.033 8.46618 312.1 8.99951C311.1 9.46618 310.333 10.1328 309.8 10.9995C309.333 11.9328 309.1 12.9997 309.1 14.1997C309.1 15.3997 309.366 16.4661 309.9 17.3994C310.433 18.2661 311.166 18.9662 312.1 19.4995C313.1 19.9662 314.266 20.1997 315.6 20.1997ZM327.8 19.9995V8.49951H324.1V19.9995H327.8ZM331.1 12.3994L332.7 9.19971C332.5 8.86637 332.2 8.63284 331.8 8.49951C331.466 8.29951 331.066 8.19971 330.6 8.19971C330 8.19971 329.4 8.39932 328.8 8.79932C328.2 9.26598 327.733 9.83284 327.4 10.4995C327.066 11.2328 326.9 12.0662 326.9 12.9995L327.8 14.2993C327.8 13.766 327.866 13.2994 328 12.8994C328.133 12.4994 328.333 12.1995 328.6 11.9995C328.933 11.7995 329.266 11.6997 329.6 11.6997C329.933 11.6997 330.2 11.7661 330.4 11.8994C330.666 12.0327 330.9 12.1994 331.1 12.3994ZM339.8 20.1997C341.266 20.1997 342.5 19.9327 343.5 19.3994C344.566 18.7994 345.4 17.9326 346 16.7993L342.6 15.9995C342.333 16.4662 341.933 16.8329 341.4 17.0996C340.933 17.3663 340.366 17.4995 339.7 17.4995C339.166 17.4995 338.7 17.3663 338.3 17.0996C337.9 16.8329 337.6 16.4662 337.4 15.9995C337.2 15.4662 337.1 14.8664 337.1 14.1997C337.1 13.3997 337.2 12.766 337.4 12.2993C337.6 11.766 337.866 11.3663 338.2 11.0996C338.6 10.8329 339.1 10.6997 339.7 10.6997C340.1 10.6997 340.466 10.7995 340.8 10.9995C341.133 11.1995 341.4 11.4994 341.6 11.8994C341.8 12.2994 341.9 12.733 341.9 13.1997C341.9 13.333 341.866 13.4997 341.8 13.6997C341.733 13.833 341.666 13.9663 341.6 14.0996L342.5 12.8994H335.4V14.9995H345.9C345.9 14.8662 345.9 14.7329 345.9 14.5996C345.9 14.3996 345.9 14.1995 345.9 13.9995C345.9 12.7995 345.666 11.7661 345.2 10.8994C344.733 10.0327 344.033 9.36608 343.1 8.89941C342.166 8.43275 341.033 8.19971 339.7 8.19971C338.366 8.19971 337.233 8.46618 336.3 8.99951C335.3 9.46618 334.533 10.1328 334 10.9995C333.533 11.9328 333.3 12.9997 333.3 14.1997C333.3 15.3997 333.566 16.4661 334.1 17.3994C334.633 18.2661 335.366 18.9662 336.3 19.4995C337.3 19.9662 338.466 20.1997 339.8 20.1997ZM355.7 12.9995V19.9995H359.7V12.5996C359.7 11.1996 359.366 10.0993 358.7 9.29932C358.033 8.56598 357 8.19971 355.6 8.19971C354.733 8.19971 354 8.36637 353.4 8.69971C352.866 9.03304 352.433 9.53304 352.1 10.1997V8.49951H348.3V19.9995H352.1V12.9995C352.1 12.5328 352.166 12.1326 352.3 11.7993C352.5 11.466 352.733 11.2329 353 11.0996C353.333 10.8996 353.7 10.7993 354.1 10.7993C354.7 10.7993 355.1 10.9994 355.3 11.3994C355.566 11.7994 355.7 12.3328 355.7 12.9995ZM365.8 14.1997C365.8 13.6664 365.933 13.1664 366.2 12.6997C366.466 12.233 366.833 11.8663 367.3 11.5996C367.766 11.3329 368.3 11.1997 368.9 11.1997C369.3 11.1997 369.7 11.2661 370.1 11.3994C370.566 11.5327 370.966 11.7328 371.3 11.9995C371.7 12.2662 372.033 12.5661 372.3 12.8994V9.19971C371.9 8.93304 371.4 8.69951 370.8 8.49951C370.2 8.29951 369.466 8.19971 368.6 8.19971C367.333 8.19971 366.166 8.46618 365.1 8.99951C364.1 9.46618 363.333 10.1663 362.8 11.0996C362.2 11.9663 361.9 12.9997 361.9 14.1997C361.9 15.3997 362.2 16.4661 362.8 17.3994C363.333 18.2661 364.1 18.9662 365.1 19.4995C366.166 19.9662 367.333 20.1997 368.6 20.1997C369.466 20.1997 370.2 20.1328 370.8 19.9995C371.4 19.7995 371.9 19.533 372.3 19.1997V15.4995C372.033 15.8328 371.733 16.1327 371.4 16.3994C371 16.6661 370.6 16.8662 370.2 16.9995C369.8 17.1328 369.366 17.1997 368.9 17.1997C368.3 17.1997 367.766 17.066 367.3 16.7993C366.833 16.5993 366.466 16.266 366.2 15.7993C365.933 15.3993 365.8 14.8664 365.8 14.1997ZM380.8 20.1997C382.266 20.1997 383.533 19.9327 384.6 19.3994C385.6 18.7994 386.4 17.9326 387 16.7993L383.6 15.9995C383.333 16.4662 382.966 16.8329 382.5 17.0996C382.033 17.3663 381.466 17.4995 380.8 17.4995C380.2 17.4995 379.7 17.3663 379.3 17.0996C378.9 16.8329 378.6 16.4662 378.4 15.9995C378.2 15.4662 378.1 14.8664 378.1 14.1997C378.1 13.3997 378.2 12.766 378.4 12.2993C378.6 11.766 378.9 11.3663 379.3 11.0996C379.7 10.8329 380.166 10.6997 380.7 10.6997C381.166 10.6997 381.566 10.7995 381.9 10.9995C382.233 11.1995 382.5 11.4994 382.7 11.8994C382.833 12.2994 382.9 12.733 382.9 13.1997C382.9 13.333 382.866 13.4997 382.8 13.6997C382.8 13.833 382.733 13.9663 382.6 14.0996L383.5 12.8994H376.4V14.9995H386.9C386.966 14.8662 387 14.7329 387 14.5996C387 14.3996 387 14.1995 387 13.9995C387 12.7995 386.766 11.7661 386.3 10.8994C385.766 10.0327 385.066 9.36608 384.2 8.89941C383.266 8.43275 382.133 8.19971 380.8 8.19971C379.466 8.19971 378.3 8.46618 377.3 8.99951C376.366 9.46618 375.633 10.1328 375.1 10.9995C374.566 11.9328 374.3 12.9997 374.3 14.1997C374.3 15.3997 374.566 16.4661 375.1 17.3994C375.633 18.2661 376.4 18.9662 377.4 19.4995C378.333 19.9662 379.466 20.1997 380.8 20.1997Z" fill="#202020"/>
</svg>
