<svg width="90" height="19" viewBox="0 0 90 19" fill="none" xmlns="http://www.w3.org/2000/svg">
<path d="M3.70039 14.5V18H12.5004V14.5H3.70039ZM3.70039 0.5V4H12.6004V0.5H3.70039ZM3.70039 7.1001V10.5H12.0004V7.1001H3.70039ZM4.90039 0.5H0.900391V18H4.90039V0.5ZM18.8004 12.2998C18.8004 11.6998 18.9337 11.1669 19.2004 10.7002C19.4671 10.3002 19.8337 9.93343 20.3004 9.6001C20.7671 9.33343 21.2671 9.2002 21.8004 9.2002C22.2004 9.2002 22.6337 9.26657 23.1004 9.3999C23.5004 9.53324 23.9004 9.73333 24.3004 10C24.7004 10.2667 25.0004 10.5666 25.2004 10.8999V7.2002C24.8004 6.93353 24.3004 6.73343 23.7004 6.6001C23.1004 6.33343 22.3671 6.2002 21.5004 6.2002C20.2337 6.2002 19.1004 6.46667 18.1004 7C17.1004 7.46667 16.3004 8.16676 15.7004 9.1001C15.1671 9.96676 14.9004 11.0002 14.9004 12.2002C14.9004 13.4669 15.1671 14.5332 15.7004 15.3999C16.3004 16.2666 17.1004 16.9667 18.1004 17.5C19.1004 17.9667 20.2337 18.2002 21.5004 18.2002C22.3671 18.2002 23.1004 18.1333 23.7004 18C24.3004 17.8 24.8004 17.5335 25.2004 17.2002V13.5C25.0004 13.9 24.7004 14.1999 24.3004 14.3999C23.9671 14.6666 23.5671 14.9001 23.1004 15.1001C22.7004 15.1668 22.2671 15.2002 21.8004 15.2002C21.2671 15.2002 20.7671 15.0999 20.3004 14.8999C19.8337 14.6332 19.4671 14.2999 19.2004 13.8999C18.9337 13.4332 18.8004 12.8669 18.8004 12.2002V12.2998ZM27.3004 12.2998C27.3004 13.5665 27.5671 14.6333 28.1004 15.5C28.7004 16.3667 29.5004 17.0668 30.5004 17.6001C31.5004 18.0668 32.6004 18.2998 33.8004 18.2998C35.0671 18.2998 36.2004 18.0668 37.2004 17.6001C38.2004 17.0668 38.9671 16.3667 39.5004 15.5C40.1004 14.6333 40.4004 13.5665 40.4004 12.2998C40.4004 11.0998 40.1004 10.0669 39.5004 9.2002C38.9671 8.26686 38.2004 7.56676 37.2004 7.1001C36.2004 6.56676 35.0671 6.2998 33.8004 6.2998C32.6004 6.2998 31.5004 6.56676 30.5004 7.1001C29.5004 7.56676 28.7004 8.26686 28.1004 9.2002C27.5671 10.0669 27.3004 11.0998 27.3004 12.2998ZM31.1004 12.2998C31.1004 11.7665 31.2337 11.2665 31.5004 10.7998C31.7671 10.3998 32.1004 10.0665 32.5004 9.7998C32.9004 9.5998 33.3337 9.5 33.8004 9.5C34.3337 9.5 34.8004 9.5998 35.2004 9.7998C35.6004 10.0665 35.9004 10.3998 36.1004 10.7998C36.3671 11.2665 36.5004 11.7665 36.5004 12.2998C36.5004 12.8998 36.3671 13.4332 36.1004 13.8999C35.9004 14.2999 35.6004 14.6332 35.2004 14.8999C34.8004 15.0999 34.3337 15.2002 33.8004 15.2002C33.3337 15.2002 32.9004 15.0999 32.5004 14.8999C32.1004 14.6332 31.7671 14.2999 31.5004 13.8999C31.2337 13.4332 31.1004 12.8998 31.1004 12.2998ZM50.1004 11.1001V18.1001H54.1004V10.7002C54.1004 9.3002 53.7671 8.23333 53.1004 7.5C52.4337 6.7 51.4004 6.2998 50.0004 6.2998C49.1337 6.2998 48.4004 6.46647 47.8004 6.7998C47.2671 7.1998 46.8337 7.6998 46.5004 8.2998V6.6001H42.7004V18.1001H46.5004V11.1001C46.5004 10.6334 46.5671 10.2667 46.7004 10C46.9004 9.66667 47.1337 9.4002 47.4004 9.2002C47.7337 9.06686 48.1004 9 48.5004 9C49.1004 9 49.5004 9.16667 49.7004 9.5C49.9671 9.9 50.1004 10.4334 50.1004 11.1001ZM56.4004 12.2998C56.4004 13.5665 56.6671 14.6333 57.2004 15.5C57.8004 16.3667 58.6004 17.0668 59.6004 17.6001C60.6004 18.0668 61.7004 18.2998 62.9004 18.2998C64.1671 18.2998 65.3004 18.0668 66.3004 17.6001C67.3004 17.0668 68.0671 16.3667 68.6004 15.5C69.2004 14.6333 69.5004 13.5665 69.5004 12.2998C69.5004 11.0998 69.2004 10.0669 68.6004 9.2002C68.0671 8.26686 67.3004 7.56676 66.3004 7.1001C65.3004 6.56676 64.1671 6.2998 62.9004 6.2998C61.7004 6.2998 60.6004 6.56676 59.6004 7.1001C58.6004 7.56676 57.8004 8.26686 57.2004 9.2002C56.6671 10.0669 56.4004 11.0998 56.4004 12.2998ZM60.2004 12.2998C60.2004 11.7665 60.3337 11.2665 60.6004 10.7998C60.8671 10.3998 61.2004 10.0665 61.6004 9.7998C62.0004 9.5998 62.4337 9.5 62.9004 9.5C63.4337 9.5 63.9004 9.5998 64.3004 9.7998C64.7004 10.0665 65.0004 10.3998 65.2004 10.7998C65.4671 11.2665 65.6004 11.7665 65.6004 12.2998C65.6004 12.8998 65.4671 13.4332 65.2004 13.8999C65.0004 14.2999 64.7004 14.6332 64.3004 14.8999C63.9004 15.0999 63.4337 15.2002 62.9004 15.2002C62.4337 15.2002 62.0004 15.0999 61.6004 14.8999C61.2004 14.6332 60.8671 14.2999 60.6004 13.8999C60.3337 13.4332 60.2004 12.8998 60.2004 12.2998ZM89.3004 18.1001V10.7002C89.3004 9.76686 89.2004 8.96647 89.0004 8.2998C88.7337 7.6998 88.3337 7.23324 87.8004 6.8999C87.2671 6.4999 86.5671 6.2998 85.7004 6.2998C84.9004 6.2998 84.2004 6.46647 83.6004 6.7998C83.0004 7.13314 82.4671 7.6002 82.0004 8.2002C81.8004 7.6002 81.4337 7.13314 80.9004 6.7998C80.3671 6.46647 79.6337 6.2998 78.7004 6.2998C77.9671 6.2998 77.3004 6.4999 76.7004 6.8999C76.1671 7.23324 75.7337 7.6998 75.4004 8.2998V6.6001H71.8004V18.1001H75.4004V11.1001C75.4004 10.6334 75.4671 10.2332 75.6004 9.8999C75.7337 9.63324 75.9337 9.4002 76.2004 9.2002C76.4671 9.06686 76.7671 9 77.1004 9C77.6337 9 78.0004 9.16667 78.2004 9.5C78.4671 9.83333 78.6004 10.3668 78.6004 11.1001V18.1001H82.4004V11.1001C82.4004 10.6334 82.4671 10.2332 82.6004 9.8999C82.7337 9.63324 82.9337 9.4002 83.2004 9.2002C83.4671 9.06686 83.7671 9 84.1004 9C84.5671 9 84.9337 9.16667 85.2004 9.5C85.4004 9.83333 85.5004 10.3668 85.5004 11.1001V18.1001H89.3004Z" fill="#202020"/>
</svg>
