<svg width="824" height="67" viewBox="0 0 824 67" fill="none" xmlns="http://www.w3.org/2000/svg">
<path d="M8.89984 40.7988V50.9988H31.8998V40.7988H8.89984ZM8.89984 5.49878V15.6987H31.7998V5.49878H8.89984ZM8.89984 22.3988V32.2988H30.5998V22.3988H8.89984ZM12.3998 5.49878H0.299805V50.9988H12.3998V5.49878ZM58.7998 32.7988V50.9988H70.5998V31.5988C70.5998 28.0654 69.7665 25.3321 68.0998 23.3988C66.4998 21.3988 63.7331 20.3988 59.7998 20.3988C57.5331 20.3988 55.6331 20.8655 54.0998 21.7988C52.6331 22.7322 51.4998 23.9654 50.6998 25.4988V21.0988H39.3998V50.9988H50.6998V32.7988C50.6998 31.7322 50.8665 30.8321 51.1998 30.0988C51.5998 29.3654 52.0998 28.7988 52.6998 28.3988C53.4332 28.0655 54.2331 27.8988 55.0998 27.8988C56.5665 27.8988 57.5665 28.3321 58.0998 29.1987C58.5665 30.0654 58.7998 31.2655 58.7998 32.7988ZM87.5998 53.1987H76.8998C77.1665 55.8654 77.8998 58.2322 79.0998 60.2988C80.2998 62.2988 82.1331 63.8654 84.5998 64.9988C86.9998 66.1321 90.1998 66.6987 94.1998 66.6987C97.3998 66.6987 100.266 66.1654 102.8 65.0988C105.333 64.0321 107.367 62.2988 108.9 59.8988C110.433 57.4988 111.2 54.2988 111.2 50.2988V21.0988H100.4V50.2988C100.4 51.9655 100.1 53.3654 99.4998 54.4988C98.9665 55.6321 98.1665 56.4988 97.0998 57.0988C96.0998 57.6988 94.9331 57.9988 93.5998 57.9988C92.5998 57.9988 91.6665 57.8321 90.7998 57.4988C89.9331 57.1654 89.2332 56.6654 88.6998 55.9988C88.1665 55.3321 87.7998 54.3987 87.5998 53.1987ZM76.1998 35.4988C76.1998 38.8988 76.8665 41.7321 78.1998 43.9988C79.5998 46.1988 81.3665 47.8654 83.4998 48.9988C85.6331 50.0654 87.8665 50.5988 90.1998 50.5988C92.7332 50.5988 94.9665 50.0321 96.8998 48.8988C98.8998 47.6988 100.466 45.9654 101.6 43.6987C102.733 41.4321 103.3 38.6988 103.3 35.4988C103.3 32.2988 102.733 29.5655 101.6 27.2988C100.466 25.0988 98.8998 23.3987 96.8998 22.1987C94.9665 21.0654 92.7332 20.4988 90.1998 20.4988C87.8665 20.4988 85.6331 21.0321 83.4998 22.0988C81.3665 23.2321 79.5998 24.8988 78.1998 27.0988C76.8665 29.2988 76.1998 32.0988 76.1998 35.4988ZM87.9998 35.4988C87.9998 34.1654 88.2998 33.0654 88.8998 32.1987C89.4332 31.1987 90.1998 30.4654 91.1998 29.9988C92.1332 29.5321 93.1665 29.2988 94.2998 29.2988C95.0331 29.2988 95.7665 29.4321 96.4998 29.6987C97.2331 29.8987 97.8998 30.2655 98.4998 30.7988C99.0998 31.3322 99.5665 31.9654 99.8998 32.6987C100.233 33.4987 100.4 34.4321 100.4 35.4988C100.4 36.9654 100.1 38.1321 99.4998 38.9988C98.8998 39.9321 98.1332 40.6321 97.1998 41.0988C96.2665 41.5654 95.2998 41.7988 94.2998 41.7988C93.1665 41.7988 92.1332 41.5654 91.1998 41.0988C90.1998 40.5654 89.4332 39.8321 88.8998 38.8988C88.2998 37.9655 87.9998 36.8321 87.9998 35.4988ZM149.5 28.2988C149.5 25.7655 150 23.5988 151 21.7988C151.933 19.9322 153.266 18.4655 155 17.3988C156.733 16.3321 158.766 15.7988 161.1 15.7988C163.566 15.7988 165.633 16.3321 167.3 17.3988C169.033 18.4655 170.366 19.9322 171.3 21.7988C172.233 23.5988 172.7 25.7655 172.7 28.2988C172.7 30.6988 172.2 32.8655 171.2 34.7988C170.266 36.5988 168.933 38.0654 167.2 39.1987C165.533 40.1987 163.5 40.6987 161.1 40.6987C158.766 40.6987 156.733 40.1987 155 39.1987C153.266 38.0654 151.933 36.5988 151 34.7988C150 32.8655 149.5 30.6988 149.5 28.2988ZM136.2 28.2988C136.2 31.8322 136.8 35.0988 138 38.0988C139.2 41.0321 140.933 43.6321 143.2 45.8988C145.4 48.0321 148.033 49.6988 151.1 50.8988C154.1 52.0988 157.433 52.6987 161.1 52.6987C164.766 52.6987 168.1 52.0988 171.1 50.8988C174.166 49.6988 176.8 48.0321 179 45.8988C181.2 43.6321 182.933 41.0321 184.2 38.0988C185.4 35.0988 186 31.8322 186 28.2988C186 24.6988 185.366 21.4321 184.1 18.4988C182.9 15.5654 181.167 13.0654 178.9 10.9988C176.633 8.86545 174 7.23209 171 6.09875C168 4.89876 164.7 4.29883 161.1 4.29883C157.566 4.29883 154.3 4.89876 151.3 6.09875C148.3 7.23209 145.667 8.86545 143.4 10.9988C141.133 13.0654 139.366 15.5654 138.1 18.4988C136.833 21.4321 136.2 24.6988 136.2 28.2988ZM238.6 50.9988V31.5988C238.6 29.2654 238.333 27.2654 237.8 25.5988C237.2 23.8654 236.233 22.5988 234.9 21.7988C233.567 20.8655 231.7 20.3988 229.3 20.3988C227.233 20.3988 225.4 20.8321 223.8 21.6987C222.133 22.4987 220.766 23.6321 219.7 25.0988C219.033 23.5654 218.033 22.3988 216.7 21.5988C215.367 20.7988 213.5 20.3988 211.1 20.3988C209.033 20.3988 207.233 20.8655 205.7 21.7988C204.3 22.7322 203.2 23.9988 202.4 25.5988V21.0988H191.6V50.9988H202.4V32.7988C202.4 31.6655 202.533 30.7654 202.8 30.0988C203.133 29.3654 203.566 28.7988 204.1 28.3988C204.7 28.0655 205.333 27.8988 206 27.8988C207.2 27.8988 208.033 28.3321 208.5 29.1987C209.033 30.0654 209.3 31.2655 209.3 32.7988V50.9988H220.5V32.7988C220.5 31.6655 220.666 30.7654 221 30.0988C221.266 29.3654 221.7 28.7988 222.3 28.3988C222.833 28.0655 223.433 27.8988 224.1 27.8988C225.3 27.8988 226.133 28.3321 226.6 29.1987C227.133 30.0654 227.4 31.2655 227.4 32.7988V50.9988H238.6ZM292.7 50.9988V31.5988C292.7 29.2654 292.4 27.2654 291.8 25.5988C291.266 23.8654 290.333 22.5988 289 21.7988C287.666 20.8655 285.766 20.3988 283.3 20.3988C281.3 20.3988 279.466 20.8321 277.8 21.6987C276.2 22.4987 274.833 23.6321 273.7 25.0988C273.1 23.5654 272.133 22.3988 270.8 21.5988C269.466 20.7988 267.6 20.3988 265.2 20.3988C263.066 20.3988 261.266 20.8655 259.8 21.7988C258.333 22.7322 257.2 23.9988 256.4 25.5988V21.0988H245.7V50.9988H256.4V32.7988C256.4 31.6655 256.566 30.7654 256.9 30.0988C257.167 29.3654 257.6 28.7988 258.2 28.3988C258.733 28.0655 259.333 27.8988 260 27.8988C261.2 27.8988 262.033 28.3321 262.5 29.1987C263.033 30.0654 263.3 31.2655 263.3 32.7988V50.9988H274.5V32.7988C274.5 31.6655 274.666 30.7654 275 30.0988C275.266 29.3654 275.7 28.7988 276.3 28.3988C276.833 28.0655 277.466 27.8988 278.2 27.8988C279.333 27.8988 280.133 28.3321 280.6 29.1987C281.133 30.0654 281.4 31.2655 281.4 32.7988V50.9988H292.7ZM309 41.5988C309 40.9988 309.133 40.4988 309.4 40.0988C309.667 39.6321 310.1 39.2988 310.7 39.0988C311.3 38.8988 312.1 38.7988 313.1 38.7988C314.5 38.7988 315.866 38.9988 317.2 39.3988C318.466 39.7988 319.533 40.3654 320.4 41.0988V36.2988C319.867 35.6988 319.033 35.1654 317.9 34.6987C316.833 34.1654 315.533 33.7654 314 33.4988C312.6 33.1654 311.066 32.9988 309.4 32.9988C305.6 32.9988 302.7 33.8321 300.7 35.4988C298.7 37.0988 297.7 39.3321 297.7 42.1987C297.7 44.2654 298.2 45.9988 299.2 47.3988C300.2 48.7988 301.5 49.8654 303.1 50.5988C304.7 51.3321 306.467 51.6987 308.4 51.6987C310.4 51.6987 312.233 51.3321 313.9 50.5988C315.566 49.9321 316.866 48.9321 317.8 47.5988C318.8 46.1988 319.3 44.5654 319.3 42.6987L318.3 38.7988C318.3 40.1322 318 41.2654 317.4 42.1987C316.867 43.0654 316.166 43.6988 315.3 44.0988C314.433 44.4988 313.533 44.6987 312.6 44.6987C311.933 44.6987 311.333 44.5988 310.8 44.3988C310.266 44.1321 309.8 43.7655 309.4 43.2988C309.133 42.8322 309 42.2654 309 41.5988ZM299.9 23.5988L303.5 30.8988C303.9 30.6988 304.6 30.3988 305.6 29.9988C306.6 29.5988 307.733 29.2654 309 28.9988C310.4 28.6654 311.7 28.4988 312.9 28.4988C313.833 28.4988 314.633 28.5988 315.3 28.7988C316.033 28.9988 316.6 29.2987 317 29.6987C317.466 30.0321 317.767 30.4654 317.9 30.9988C318.167 31.5321 318.3 32.0987 318.3 32.6987V50.9988H329V30.0988C329 27.9654 328.333 26.1654 327 24.6987C325.8 23.2321 324.066 22.1321 321.8 21.3988C319.666 20.5988 317.233 20.1987 314.5 20.1987C311.7 20.1987 309.033 20.5655 306.5 21.2988C304.033 21.9655 301.833 22.7321 299.9 23.5988ZM347.1 50.9988V0.298828H335.9V50.9988H347.1ZM371.3 35.9988C371.3 32.5988 370.633 29.7654 369.3 27.4988C367.9 25.1654 366.166 23.4322 364.1 22.2988C361.966 21.0988 359.7 20.4988 357.3 20.4988C354.833 20.4988 352.6 21.0988 350.6 22.2988C348.666 23.5655 347.1 25.3654 345.9 27.6987C344.767 30.0321 344.2 32.7988 344.2 35.9988C344.2 39.2654 344.767 42.0655 345.9 44.3988C347.1 46.7321 348.666 48.5322 350.6 49.7988C352.6 51.0655 354.833 51.6987 357.3 51.6987C359.7 51.6987 361.966 51.0988 364.1 49.8988C366.166 48.6988 367.9 46.9321 369.3 44.5988C370.633 42.2654 371.3 39.3988 371.3 35.9988ZM359.5 35.9988C359.5 37.3321 359.233 38.5321 358.7 39.5988C358.1 40.5988 357.333 41.3988 356.4 41.9988C355.467 42.5321 354.4 42.7988 353.2 42.7988C352.2 42.7988 351.233 42.5321 350.3 41.9988C349.366 41.4654 348.6 40.6987 348 39.6987C347.4 38.6987 347.1 37.4654 347.1 35.9988C347.1 34.5988 347.4 33.3988 348 32.3988C348.6 31.3988 349.366 30.6321 350.3 30.0988C351.233 29.5654 352.2 29.2988 353.2 29.2988C354.4 29.2988 355.467 29.5654 356.4 30.0988C357.333 30.6988 358.1 31.4988 358.7 32.4988C359.233 33.4988 359.5 34.6654 359.5 35.9988ZM375.4 35.9988C375.4 39.1988 376.133 41.9655 377.6 44.2988C379.133 46.6322 381.233 48.4655 383.9 49.7988C386.566 51.0655 389.566 51.6987 392.9 51.6987C396.3 51.6987 399.3 51.0655 401.9 49.7988C404.566 48.4655 406.667 46.6322 408.2 44.2988C409.733 41.9655 410.5 39.1988 410.5 35.9988C410.5 32.7988 409.733 30.0321 408.2 27.6987C406.667 25.3654 404.566 23.5655 401.9 22.2988C399.3 21.0322 396.3 20.3988 392.9 20.3988C389.566 20.3988 386.566 21.0322 383.9 22.2988C381.233 23.5655 379.133 25.3654 377.6 27.6987C376.133 30.0321 375.4 32.7988 375.4 35.9988ZM386.9 35.9988C386.9 34.6654 387.167 33.4988 387.7 32.4988C388.3 31.4988 389.033 30.7655 389.9 30.2988C390.833 29.7655 391.833 29.4988 392.9 29.4988C393.967 29.4988 394.967 29.7655 395.9 30.2988C396.833 30.7655 397.566 31.4988 398.1 32.4988C398.7 33.4988 399 34.6654 399 35.9988C399 37.3988 398.7 38.5988 398.1 39.5988C397.566 40.5988 396.833 41.3322 395.9 41.7988C394.967 42.2655 393.967 42.4988 392.9 42.4988C391.833 42.4988 390.833 42.2655 389.9 41.7988C389.033 41.3322 388.3 40.5988 387.7 39.5988C387.167 38.5988 386.9 37.3988 386.9 35.9988ZM416 65.2988H427.2V21.0988H416V65.2988ZM451.5 35.9988C451.5 32.4654 450.8 29.4988 449.4 27.0988C448.066 24.7654 446.333 22.9654 444.2 21.6987C442.066 20.4987 439.8 19.8988 437.4 19.8988C434.8 19.8988 432.533 20.5655 430.6 21.8988C428.733 23.2988 427.3 25.1988 426.3 27.5988C425.366 29.9988 424.9 32.7988 424.9 35.9988C424.9 39.2654 425.366 42.0988 426.3 44.4988C427.3 46.8988 428.733 48.7987 430.6 50.1987C432.533 51.5321 434.8 52.1987 437.4 52.1987C439.8 52.1987 442.066 51.5655 444.2 50.2988C446.333 49.0988 448.066 47.3321 449.4 44.9988C450.8 42.5988 451.5 39.5988 451.5 35.9988ZM439.6 35.9988C439.6 37.3321 439.333 38.4655 438.8 39.3988C438.266 40.3988 437.5 41.1321 436.5 41.5988C435.566 42.0654 434.5 42.2988 433.3 42.2988C432.3 42.2988 431.333 42.0654 430.4 41.5988C429.533 41.1321 428.766 40.4654 428.1 39.5988C427.5 38.6654 427.2 37.4654 427.2 35.9988C427.2 34.5988 427.5 33.4321 428.1 32.4988C428.766 31.6321 429.533 30.9654 430.4 30.4988C431.333 30.0321 432.3 29.7988 433.3 29.7988C434.5 29.7988 435.566 30.0321 436.5 30.4988C437.5 30.9654 438.266 31.6987 438.8 32.6987C439.333 33.5654 439.6 34.6654 439.6 35.9988ZM490.8 5.49878H477.7V50.9988H490.8V5.49878ZM520.2 5.49878H505.6L487.2 27.1987L505.9 50.9988H521.2L502.2 26.7988L520.2 5.49878ZM534.3 39.2988V21.0988H522.6V40.4988C522.6 44.0321 523.433 46.7988 525.1 48.7988C526.7 50.7322 529.466 51.6987 533.4 51.6987C535.667 51.6987 537.533 51.2655 539 50.3988C540.466 49.3988 541.633 48.1321 542.5 46.5988V50.9988H553.8V21.0988H542.5V39.2988C542.5 40.3655 542.333 41.2654 542 41.9988C541.6 42.7988 541.1 43.3654 540.5 43.6987C539.833 44.0321 539.033 44.1987 538.1 44.1987C536.633 44.1987 535.633 43.7988 535.1 42.9988C534.566 42.1321 534.3 40.8988 534.3 39.2988ZM571.9 50.9988V21.0988H560.9V50.9988H571.9ZM580.4 32.5988L585.1 22.8988C584.633 22.1655 583.9 21.5654 582.9 21.0988C581.9 20.5654 580.867 20.2988 579.8 20.2988C578.067 20.2988 576.4 20.8654 574.8 21.9988C573.267 23.1321 572 24.5988 571 26.3988C570.066 28.2655 569.6 30.3988 569.6 32.7988L571.9 37.2988C571.9 35.8988 572.1 34.6987 572.5 33.6987C572.966 32.7654 573.567 32.0654 574.3 31.5988C575.033 31.1321 575.833 30.8988 576.7 30.8988C577.566 30.8988 578.267 31.0655 578.8 31.3988C579.4 31.6655 579.933 32.0654 580.4 32.5988ZM590.7 39.5988L586.6 47.2988C588.2 48.2988 589.833 49.1988 591.5 49.9988C593.167 50.7988 594.966 51.3988 596.9 51.7988C598.833 52.1988 600.9 52.3988 603.1 52.3988C606.833 52.3988 609.666 51.5988 611.6 49.9988C613.666 48.3988 614.7 45.9321 614.7 42.5988C614.7 40.7321 614.3 39.2321 613.5 38.0988C612.7 36.9654 611.633 36.0655 610.3 35.3988C609.1 34.5988 607.733 33.9321 606.2 33.3988C604.6 32.7988 603.266 32.3321 602.2 31.9988C601.2 31.6654 600.433 31.2988 599.9 30.8988C599.367 30.4988 599.1 29.9988 599.1 29.3988C599.1 28.9988 599.266 28.6322 599.6 28.2988C600 28.0322 600.6 27.8988 601.4 27.8988C602.733 27.8988 604.233 28.2654 605.9 28.9988C607.633 29.7988 609.2 30.7988 610.6 31.9988L613.9 24.4988C612.567 23.6988 611.2 23.0321 609.8 22.4988C608.4 21.8988 606.933 21.4321 605.4 21.0988C603.867 20.6988 602.233 20.4988 600.5 20.4988C598.167 20.4988 596.133 20.8321 594.4 21.4988C592.667 22.1654 591.3 23.1321 590.3 24.3988C589.3 25.6655 588.8 27.2321 588.8 29.0988C588.8 31.0321 589.2 32.6321 590 33.8988C590.8 35.0988 591.866 36.0655 593.2 36.7988C594.466 37.5322 595.833 38.1321 597.3 38.5988C599.033 39.1321 600.333 39.5988 601.2 39.9988C602.066 40.3988 602.667 40.7987 603 41.1987C603.333 41.5321 603.5 41.9654 603.5 42.4988C603.5 43.0988 603.3 43.5655 602.9 43.8988C602.567 44.2988 601.966 44.4988 601.1 44.4988C600.566 44.4988 599.833 44.3654 598.9 44.0988C597.966 43.8988 596.833 43.4655 595.5 42.7988C594.1 42.0655 592.5 40.9988 590.7 39.5988ZM631 0.298828H619.7V50.9988H631V0.298828ZM647.2 41.6987C647.2 41.0321 647.333 40.4988 647.6 40.0988C647.866 39.6988 648.3 39.3654 648.9 39.0988C649.5 38.8988 650.3 38.7988 651.3 38.7988C652.7 38.7988 654.067 38.9988 655.4 39.3988C656.667 39.7988 657.733 40.3654 658.6 41.0988V36.2988C658.066 35.6988 657.233 35.1654 656.1 34.6987C655.033 34.1654 653.767 33.7654 652.3 33.4988C650.833 33.1654 649.3 32.9988 647.7 32.9988C643.833 32.9988 640.9 33.8321 638.9 35.4988C636.9 37.1654 635.9 39.3987 635.9 42.1987C635.9 44.2654 636.4 45.9988 637.4 47.3988C638.4 48.7988 639.7 49.8654 641.3 50.5988C642.967 51.3321 644.733 51.6987 646.6 51.6987C648.6 51.6987 650.433 51.3321 652.1 50.5988C653.766 49.9321 655.066 48.9321 656 47.5988C657 46.2654 657.5 44.6321 657.5 42.6987L656.5 38.7988C656.5 40.1322 656.233 41.2654 655.7 42.1987C655.166 43.0654 654.466 43.6988 653.6 44.0988C652.733 44.4988 651.8 44.6987 650.8 44.6987C650.2 44.6987 649.6 44.5988 649 44.3988C648.466 44.1321 648.033 43.7655 647.7 43.2988C647.366 42.8322 647.2 42.2987 647.2 41.6987ZM638.2 23.5988L641.7 30.8988C642.1 30.6988 642.8 30.3988 643.8 29.9988C644.8 29.5988 645.967 29.2654 647.3 28.9988C648.633 28.6654 649.933 28.4988 651.2 28.4988C652.066 28.4988 652.866 28.6321 653.6 28.8988C654.266 29.0321 654.833 29.2987 655.3 29.6987C655.7 30.0321 656 30.4654 656.2 30.9988C656.4 31.5321 656.5 32.1322 656.5 32.7988V50.9988H667.2V30.0988C667.2 27.9654 666.567 26.1654 665.3 24.6987C664.033 23.2321 662.3 22.1321 660.1 21.3988C657.9 20.5988 655.433 20.1987 652.7 20.1987C649.9 20.1987 647.233 20.5655 644.7 21.2988C642.233 22.0322 640.066 22.7988 638.2 23.5988ZM685.2 50.9988V21.0988H674.2V50.9988H685.2ZM693.7 32.5988L698.4 22.8988C697.933 22.1655 697.2 21.5654 696.2 21.0988C695.2 20.5654 694.133 20.2988 693 20.2988C691.266 20.2988 689.6 20.8654 688 21.9988C686.466 23.1321 685.233 24.6321 684.3 26.4988C683.3 28.2988 682.8 30.3988 682.8 32.7988L685.2 37.2988C685.2 35.8988 685.4 34.6987 685.8 33.6987C686.2 32.7654 686.766 32.0654 687.5 31.5988C688.233 31.1321 689.033 30.8988 689.9 30.8988C690.766 30.8988 691.5 31.0655 692.1 31.3988C692.7 31.6655 693.233 32.0654 693.7 32.5988ZM701.5 10.2988C701.5 11.9655 702.1 13.3321 703.3 14.3988C704.567 15.4655 706.067 15.9988 707.8 15.9988C709.6 15.9988 711.1 15.4655 712.3 14.3988C713.567 13.3321 714.2 11.9655 714.2 10.2988C714.2 8.56549 713.567 7.13211 712.3 5.99878C711.1 4.93211 709.6 4.3988 707.8 4.3988C706.067 4.3988 704.567 4.93211 703.3 5.99878C702.1 7.13211 701.5 8.56549 701.5 10.2988ZM713.2 21.0988H702.4V50.9988H713.2V21.0988ZM767.5 50.9988V31.6987C767.5 29.2987 767.233 27.2654 766.7 25.5988C766.1 23.9321 765.133 22.6655 763.8 21.7988C762.467 20.8655 760.6 20.3988 758.2 20.3988C756.133 20.3988 754.266 20.8321 752.6 21.6987C751 22.4987 749.666 23.6654 748.6 25.1987C747.933 23.5987 746.933 22.3988 745.6 21.5988C744.266 20.7988 742.4 20.3988 740 20.3988C737.933 20.3988 736.133 20.8655 734.6 21.7988C733.2 22.7322 732.1 23.9988 731.3 25.5988V21.0988H720.5V50.9988H731.3V32.7988C731.3 31.6655 731.433 30.7654 731.7 30.0988C732.033 29.3654 732.466 28.8321 733 28.4988C733.6 28.0988 734.233 27.8988 734.9 27.8988C736.1 27.8988 736.933 28.3321 737.4 29.1987C737.933 30.0654 738.2 31.2655 738.2 32.7988V50.9988H749.4V32.7988C749.4 31.6655 749.567 30.7654 749.9 30.0988C750.167 29.3654 750.6 28.8321 751.2 28.4988C751.733 28.0988 752.333 27.8988 753 27.8988C754.2 27.8988 755.033 28.3321 755.5 29.1987C756.033 30.0654 756.3 31.2655 756.3 32.7988V50.9988H767.5ZM773.8 10.2988C773.8 11.9655 774.4 13.3321 775.6 14.3988C776.866 15.5321 778.366 16.0988 780.1 16.0988C781.9 16.0988 783.4 15.5321 784.6 14.3988C785.866 13.3321 786.5 11.9655 786.5 10.2988C786.5 8.56549 785.866 7.13211 784.6 5.99878C783.4 4.93211 781.9 4.3988 780.1 4.3988C778.366 4.3988 776.866 4.93211 775.6 5.99878C774.4 7.13211 773.8 8.56549 773.8 10.2988ZM785.5 21.0988H774.7V50.9988H785.5V21.0988ZM793.2 31.2988H805.1L790.2 50.9988H821.1V40.8988H809.6L823.5 21.0988H793.2V31.2988Z" fill="#202020"/>
</svg>
