<svg width="598" height="67" viewBox="0 0 598 67" fill="none" xmlns="http://www.w3.org/2000/svg">
<path d="M8.89984 40.7988V50.999H31.8998V40.7988H8.89984ZM8.89984 5.49902V15.6992H31.7998V5.49902H8.89984ZM8.89984 22.3994V32.2988H30.5998V22.3994H8.89984ZM12.3998 5.49902H0.299805V50.999H12.3998V5.49902ZM58.7998 32.7988V50.999H70.5998V31.5986C70.5998 28.0653 69.7665 25.3327 68.0998 23.3994C66.4998 21.3994 63.7331 20.3994 59.7998 20.3994C57.5331 20.3994 55.6331 20.8655 54.0998 21.7988C52.6331 22.7322 51.4998 23.9657 50.6998 25.499V21.0986H39.3998V50.999H50.6998V32.7988C50.6998 31.7322 50.8665 30.832 51.1998 30.0986C51.5998 29.3653 52.0998 28.7994 52.6998 28.3994C53.4332 28.0661 54.2331 27.8994 55.0998 27.8994C56.5665 27.8994 57.5665 28.3326 58.0998 29.1992C58.5665 30.0659 58.7998 31.2655 58.7998 32.7988ZM87.5998 53.1992H76.8998C77.1665 55.8659 77.8998 58.2322 79.0998 60.2988C80.2998 62.3655 82.1331 63.9324 84.5998 64.999C86.9998 66.1324 90.1998 66.6992 94.1998 66.6992C97.3998 66.6992 100.266 66.1653 102.8 65.0986C105.333 64.032 107.367 62.2994 108.9 59.8994C110.433 57.4994 111.2 54.3327 111.2 50.3994V21.0986H100.4V50.3994C100.4 51.9994 100.1 53.3657 99.4998 54.499C98.9665 55.6324 98.1665 56.4986 97.0998 57.0986C96.0998 57.6986 94.9331 57.999 93.5998 57.999C92.5998 57.999 91.6665 57.8324 90.7998 57.499C89.9331 57.1657 89.2332 56.6657 88.6998 55.999C88.1665 55.3324 87.7998 54.3992 87.5998 53.1992ZM76.1998 35.499C76.1998 38.899 76.8665 41.7324 78.1998 43.999C79.5998 46.199 81.3665 47.8657 83.4998 48.999C85.6331 50.0657 87.8665 50.5986 90.1998 50.5986C92.7332 50.5986 94.9665 50.0327 96.8998 48.8994C98.8998 47.6994 100.466 45.9659 101.6 43.6992C102.733 41.4326 103.3 38.699 103.3 35.499C103.3 32.299 102.733 29.5655 101.6 27.2988C100.466 25.0988 98.8998 23.3992 96.8998 22.1992C94.9665 21.0659 92.7332 20.499 90.1998 20.499C87.8665 20.499 85.6331 21.032 83.4998 22.0986C81.3665 23.232 79.5998 24.8986 78.1998 27.0986C76.8665 29.2986 76.1998 32.099 76.1998 35.499ZM87.9998 35.499C87.9998 34.1657 88.2998 33.0659 88.8998 32.1992C89.4332 31.1992 90.1998 30.4657 91.1998 29.999C92.1332 29.5324 93.1665 29.2988 94.2998 29.2988C95.0331 29.2988 95.7665 29.4326 96.4998 29.6992C97.2331 29.8992 97.8998 30.2655 98.4998 30.7988C99.0998 31.3322 99.5665 31.9659 99.8998 32.6992C100.233 33.4992 100.4 34.4324 100.4 35.499C100.4 36.9657 100.1 38.1324 99.4998 38.999C98.8998 39.9324 98.1332 40.632 97.1998 41.0986C96.2665 41.5653 95.2998 41.7988 94.2998 41.7988C93.1665 41.7988 92.1332 41.5653 91.1998 41.0986C90.1998 40.5653 89.4332 39.8327 88.8998 38.8994C88.2998 37.9661 87.9998 36.8324 87.9998 35.499ZM139.4 39.5986L135.3 47.2988C136.833 48.2988 138.466 49.199 140.2 49.999C141.867 50.7324 143.666 51.3322 145.6 51.7988C147.533 52.1988 149.566 52.3994 151.7 52.3994C155.433 52.3994 158.3 51.599 160.3 49.999C162.366 48.399 163.4 45.899 163.4 42.499C163.4 40.699 162.966 39.232 162.1 38.0986C161.366 36.9653 160.333 36.0322 159 35.2988C157.733 34.5655 156.367 33.9327 154.9 33.3994C153.233 32.7994 151.9 32.3324 150.9 31.999C149.833 31.599 149.033 31.2327 148.5 30.8994C148.033 30.4994 147.8 29.9994 147.8 29.3994C147.8 28.9994 147.966 28.6322 148.3 28.2988C148.7 28.0322 149.3 27.8994 150.1 27.8994C151.433 27.8994 152.933 28.2657 154.6 28.999C156.333 29.7324 157.9 30.7324 159.3 31.999L162.6 24.499C161.266 23.699 159.9 23.0324 158.5 22.499C157.1 21.899 155.633 21.399 154.1 20.999C152.566 20.6657 150.9 20.499 149.1 20.499C146.833 20.499 144.833 20.8324 143.1 21.499C141.366 22.1657 140 23.1327 139 24.3994C138 25.6661 137.5 27.232 137.5 29.0986C137.5 31.032 137.9 32.6327 138.7 33.8994C139.5 35.0994 140.567 36.0655 141.9 36.7988C143.167 37.5322 144.5 38.132 145.9 38.5986C147.633 39.132 148.933 39.599 149.8 39.999C150.733 40.399 151.367 40.7992 151.7 41.1992C152.033 41.5326 152.2 41.9657 152.2 42.499C152.2 43.099 152 43.5661 151.6 43.8994C151.2 44.2327 150.6 44.3994 149.8 44.3994C149.266 44.3994 148.533 44.2986 147.6 44.0986C146.6 43.8986 145.433 43.4326 144.1 42.6992C142.766 42.0326 141.2 40.9986 139.4 39.5986ZM166.8 35.999C166.8 39.199 167.566 41.9655 169.1 44.2988C170.633 46.6322 172.7 48.4655 175.3 49.7988C178.033 51.0655 181.067 51.6992 184.4 51.6992C187.733 51.6992 190.733 51.0655 193.4 49.7988C196.067 48.4655 198.133 46.6322 199.6 44.2988C201.2 41.9655 202 39.199 202 35.999C202 32.799 201.2 30.0326 199.6 27.6992C198.133 25.3659 196.067 23.5655 193.4 22.2988C190.733 21.0322 187.733 20.3994 184.4 20.3994C181.067 20.3994 178.033 21.0322 175.3 22.2988C172.7 23.5655 170.633 25.3659 169.1 27.6992C167.566 30.0326 166.8 32.799 166.8 35.999ZM178.4 35.999C178.4 34.6657 178.666 33.499 179.2 32.499C179.733 31.499 180.467 30.7655 181.4 30.2988C182.267 29.7655 183.267 29.499 184.4 29.499C185.467 29.499 186.467 29.7655 187.4 30.2988C188.267 30.7655 189 31.499 189.6 32.499C190.133 33.499 190.4 34.6657 190.4 35.999C190.4 37.399 190.133 38.5986 189.6 39.5986C189 40.5986 188.267 41.3322 187.4 41.7988C186.467 42.2655 185.467 42.499 184.4 42.499C183.267 42.499 182.267 42.2655 181.4 41.7988C180.467 41.3322 179.733 40.5986 179.2 39.5986C178.666 38.5986 178.4 37.399 178.4 35.999ZM220 5.49902H208.3L205.6 26.5986H212.8L220 5.49902ZM242.1 32.7988V50.999H253.9V31.5986C253.9 28.0653 253.067 25.2988 251.4 23.2988C249.8 21.2988 247.033 20.2988 243.1 20.2988C240.833 20.2988 238.933 20.7988 237.4 21.7988C235.933 22.6655 234.767 23.899 233.9 25.499V21.0986H222.7V50.999H233.9V32.7988C233.9 31.6655 234.1 30.7324 234.5 29.999C234.833 29.2657 235.333 28.7327 236 28.3994C236.733 28.0661 237.533 27.8994 238.4 27.8994C239.867 27.8994 240.867 28.3326 241.4 29.1992C241.867 29.9992 242.1 31.1988 242.1 32.7988ZM270.9 53.1992H260.1C260.433 55.7992 261.2 58.1655 262.4 60.2988C263.6 62.2988 265.433 63.8657 267.9 64.999C270.3 66.1324 273.5 66.6992 277.5 66.6992C280.7 66.6992 283.566 66.1653 286.1 65.0986C288.633 63.9653 290.667 62.2327 292.2 59.8994C293.733 57.4327 294.5 54.2322 294.5 50.2988V21.0986H283.7V50.2988C283.7 51.9655 283.4 53.3657 282.8 54.499C282.266 55.6324 281.467 56.4986 280.4 57.0986C279.4 57.632 278.233 57.8994 276.9 57.8994C275.833 57.8994 274.866 57.7657 274 57.499C273.133 57.1657 272.466 56.6657 272 55.999C271.466 55.2657 271.1 54.3326 270.9 53.1992ZM259.5 35.499C259.5 38.899 260.166 41.6994 261.5 43.8994C262.9 46.1661 264.666 47.8327 266.8 48.8994C268.933 50.0327 271.166 50.5986 273.5 50.5986C276.033 50.5986 278.267 49.9988 280.2 48.7988C282.133 47.6655 283.666 45.9659 284.8 43.6992C286 41.4326 286.6 38.699 286.6 35.499C286.6 32.2324 286 29.4988 284.8 27.2988C283.666 25.0322 282.133 23.3326 280.2 22.1992C278.267 20.9992 276.033 20.3994 273.5 20.3994C271.166 20.3994 268.933 20.9653 266.8 22.0986C264.666 23.1653 262.9 24.799 261.5 26.999C260.166 29.2657 259.5 32.099 259.5 35.499ZM271.3 35.499C271.3 34.1657 271.6 33.032 272.2 32.0986C272.733 31.1653 273.467 30.4657 274.4 29.999C275.4 29.5324 276.466 29.2988 277.6 29.2988C278.333 29.2988 279.066 29.3986 279.8 29.5986C280.533 29.8653 281.2 30.2326 281.8 30.6992C282.4 31.2326 282.866 31.8992 283.2 32.6992C283.533 33.4992 283.7 34.4324 283.7 35.499C283.7 36.899 283.4 38.0657 282.8 38.999C282.2 39.9324 281.433 40.632 280.5 41.0986C279.566 41.4986 278.6 41.6992 277.6 41.6992C276.466 41.6992 275.4 41.4657 274.4 40.999C273.467 40.5324 272.733 39.8327 272.2 38.8994C271.6 37.8994 271.3 36.7657 271.3 35.499ZM311.4 53.1992H300.6C300.866 55.7992 301.6 58.1655 302.8 60.2988C304.066 62.2988 305.9 63.8657 308.3 64.999C310.7 66.1324 313.9 66.6992 317.9 66.6992C321.1 66.6992 323.966 66.1653 326.5 65.0986C329.033 63.9653 331.066 62.2327 332.6 59.8994C334.133 57.4327 334.9 54.2322 334.9 50.2988V21.0986H324.2V50.2988C324.2 51.9655 323.9 53.3657 323.3 54.499C322.7 55.6324 321.866 56.4986 320.8 57.0986C319.866 57.632 318.7 57.8994 317.3 57.8994C316.3 57.8994 315.366 57.7657 314.5 57.499C313.633 57.1657 312.933 56.6657 312.4 55.999C311.867 55.2657 311.533 54.3326 311.4 53.1992ZM299.9 35.499C299.9 38.899 300.566 41.6994 301.9 43.8994C303.3 46.1661 305.066 47.8327 307.2 48.8994C309.333 50.0327 311.6 50.5986 314 50.5986C316.466 50.5986 318.7 49.9988 320.7 48.7988C322.633 47.6655 324.166 45.9659 325.3 43.6992C326.433 41.4326 327 38.699 327 35.499C327 32.2324 326.433 29.4988 325.3 27.2988C324.166 25.0322 322.633 23.3326 320.7 22.1992C318.7 20.9992 316.466 20.3994 314 20.3994C311.6 20.3994 309.333 20.9653 307.2 22.0986C305.066 23.1653 303.3 24.799 301.9 26.999C300.566 29.2657 299.9 32.099 299.9 35.499ZM311.7 35.499C311.7 34.1657 312 33.032 312.6 32.0986C313.133 31.1653 313.9 30.4657 314.9 29.999C315.833 29.5324 316.866 29.2988 318 29.2988C318.733 29.2988 319.466 29.3986 320.2 29.5986C320.933 29.8653 321.6 30.2326 322.2 30.6992C322.8 31.2326 323.266 31.8992 323.6 32.6992C324 33.4992 324.2 34.4324 324.2 35.499C324.2 36.899 323.9 38.0657 323.3 38.999C322.633 39.9324 321.833 40.632 320.9 41.0986C319.967 41.4986 319 41.6992 318 41.6992C316.866 41.6992 315.833 41.4657 314.9 40.999C313.9 40.5324 313.133 39.8327 312.6 38.8994C312 37.8994 311.7 36.7657 311.7 35.499ZM341.1 10.1992C341.1 11.8659 341.7 13.2661 342.9 14.3994C344.167 15.4661 345.667 15.999 347.4 15.999C349.2 15.999 350.7 15.4661 351.9 14.3994C353.167 13.2661 353.8 11.8659 353.8 10.1992C353.8 8.46589 353.167 7.06569 351.9 5.99902C350.7 4.93236 349.2 4.39941 347.4 4.39941C345.667 4.39941 344.167 4.93236 342.9 5.99902C341.7 7.06569 341.1 8.46589 341.1 10.1992ZM352.8 21.0986H342V50.999H352.8V21.0986ZM390.9 50.999V0.298828H379.6V50.999H390.9ZM415.2 35.999C415.2 32.599 414.5 29.7327 413.1 27.3994C411.766 25.1327 410.033 23.3992 407.9 22.1992C405.767 20.9992 403.5 20.3994 401.1 20.3994C398.633 20.3994 396.4 21.0322 394.4 22.2988C392.467 23.5655 390.9 25.3659 389.7 27.6992C388.566 29.9659 388 32.7324 388 35.999C388 39.199 388.566 41.9655 389.7 44.2988C390.9 46.6322 392.467 48.4326 394.4 49.6992C396.4 50.9659 398.633 51.5986 401.1 51.5986C403.5 51.5986 405.767 51.0327 407.9 49.8994C410.033 48.6327 411.766 46.8653 413.1 44.5986C414.5 42.2653 415.2 39.399 415.2 35.999ZM403.3 35.999C403.3 37.3324 403.033 38.499 402.5 39.499C401.9 40.5657 401.133 41.3661 400.2 41.8994C399.266 42.4994 398.2 42.7988 397 42.7988C396 42.7988 395.033 42.5324 394.1 41.999C393.166 41.399 392.4 40.6326 391.8 39.6992C391.2 38.6992 390.9 37.4657 390.9 35.999C390.9 34.599 391.2 33.3994 391.8 32.3994C392.4 31.3994 393.166 30.632 394.1 30.0986C395.033 29.5653 396 29.2988 397 29.2988C398.2 29.2988 399.266 29.5653 400.2 30.0986C401.133 30.632 401.9 31.4324 402.5 32.499C403.033 33.499 403.3 34.6657 403.3 35.999ZM432 0.298828H420.7V50.999H432V0.298828ZM437.5 35.999C437.5 39.199 438.267 41.9655 439.8 44.2988C441.333 46.6322 443.4 48.4326 446 49.6992C448.733 50.9659 451.766 51.5986 455.1 51.5986C458.433 51.5986 461.433 50.9659 464.1 49.6992C466.766 48.4326 468.833 46.6322 470.3 44.2988C471.9 41.9655 472.7 39.199 472.7 35.999C472.7 32.799 471.9 30.0326 470.3 27.6992C468.833 25.3659 466.766 23.5655 464.1 22.2988C461.433 20.9655 458.433 20.2988 455.1 20.2988C451.766 20.2988 448.733 20.9655 446 22.2988C443.4 23.5655 441.333 25.3659 439.8 27.6992C438.267 30.0326 437.5 32.799 437.5 35.999ZM449.1 35.999C449.1 34.599 449.367 33.4324 449.9 32.499C450.433 31.499 451.166 30.7326 452.1 30.1992C452.966 29.6659 453.966 29.3994 455.1 29.3994C456.166 29.3994 457.166 29.6659 458.1 30.1992C458.966 30.7326 459.7 31.499 460.3 32.499C460.833 33.4324 461.1 34.599 461.1 35.999C461.1 37.399 460.833 38.5986 460.3 39.5986C459.7 40.532 458.966 41.2655 458.1 41.7988C457.166 42.2655 456.166 42.499 455.1 42.499C453.966 42.499 452.966 42.2655 452.1 41.7988C451.166 41.2655 450.433 40.532 449.9 39.5986C449.367 38.5986 449.1 37.399 449.1 35.999ZM488.1 53.1992H477.3C477.567 55.7992 478.333 58.1655 479.6 60.2988C480.8 62.2988 482.6 63.8657 485 64.999C487.466 66.1324 490.666 66.6992 494.6 66.6992C497.866 66.6992 500.733 66.1653 503.2 65.0986C505.8 63.9653 507.833 62.2327 509.3 59.8994C510.833 57.4327 511.6 54.2322 511.6 50.2988V21.0986H500.9V50.2988C500.9 51.9655 500.6 53.3657 500 54.499C499.4 55.6324 498.6 56.4986 497.6 57.0986C496.6 57.632 495.433 57.8994 494.1 57.8994C493.033 57.8994 492.066 57.7657 491.2 57.499C490.333 57.1657 489.633 56.6657 489.1 55.999C488.566 55.2657 488.233 54.3326 488.1 53.1992ZM476.6 35.499C476.6 38.899 477.3 41.6994 478.7 43.8994C480.033 46.1661 481.767 47.8327 483.9 48.8994C486.1 50.0327 488.366 50.5986 490.7 50.5986C493.233 50.5986 495.467 49.9988 497.4 48.7988C499.333 47.6655 500.866 45.9659 502 43.6992C503.133 41.4326 503.7 38.699 503.7 35.499C503.7 32.2324 503.133 29.4988 502 27.2988C500.866 25.0322 499.333 23.3326 497.4 22.1992C495.467 20.9992 493.233 20.3994 490.7 20.3994C488.366 20.3994 486.1 20.9653 483.9 22.0986C481.767 23.1653 480.033 24.799 478.7 26.999C477.3 29.2657 476.6 32.099 476.6 35.499ZM488.5 35.499C488.5 34.1657 488.767 33.032 489.3 32.0986C489.9 31.1653 490.666 30.4657 491.6 29.999C492.533 29.5324 493.566 29.2988 494.7 29.2988C495.433 29.2988 496.167 29.3986 496.9 29.5986C497.633 29.8653 498.3 30.2326 498.9 30.6992C499.5 31.2326 500 31.8992 500.4 32.6992C500.733 33.4992 500.9 34.4324 500.9 35.499C500.9 36.899 500.6 38.0657 500 38.999C499.4 39.9324 498.6 40.632 497.6 41.0986C496.666 41.4986 495.7 41.6992 494.7 41.6992C493.566 41.6992 492.533 41.4657 491.6 40.999C490.666 40.5324 489.9 39.8327 489.3 38.8994C488.767 37.8994 488.5 36.7657 488.5 35.499ZM529.9 0.298828H518.6V50.999H529.9V0.298828ZM546.1 41.5986C546.1 40.932 546.233 40.399 546.5 39.999C546.766 39.599 547.2 39.2986 547.8 39.0986C548.4 38.832 549.2 38.6992 550.2 38.6992C551.666 38.6992 553.033 38.8988 554.3 39.2988C555.633 39.6988 556.733 40.2657 557.6 40.999V36.2988C557 35.6988 556.133 35.132 555 34.5986C553.933 34.132 552.666 33.7327 551.2 33.3994C549.8 33.1327 548.266 32.999 546.6 32.999C542.8 32.999 539.867 33.7994 537.8 35.3994C535.8 37.0661 534.8 39.3326 534.8 42.1992C534.8 44.1992 535.3 45.9327 536.3 47.3994C537.3 48.7994 538.6 49.8653 540.2 50.5986C541.866 51.2653 543.633 51.5986 545.5 51.5986C547.5 51.5986 549.333 51.2653 551 50.5986C552.667 49.8653 554 48.8324 555 47.499C556 46.1657 556.5 44.532 556.5 42.5986L555.4 38.6992C555.4 40.0992 555.133 41.232 554.6 42.0986C554.066 42.9653 553.366 43.632 552.5 44.0986C551.633 44.4986 550.733 44.6992 549.8 44.6992C549.133 44.6992 548.5 44.5655 547.9 44.2988C547.367 44.0322 546.933 43.6988 546.6 43.2988C546.266 42.8322 546.1 42.2653 546.1 41.5986ZM537.1 23.499L540.7 30.8994C541.1 30.6994 541.766 30.399 542.7 29.999C543.7 29.599 544.866 29.2327 546.2 28.8994C547.533 28.6327 548.833 28.499 550.1 28.499C551.033 28.499 551.833 28.5988 552.5 28.7988C553.167 28.9988 553.733 29.2653 554.2 29.5986C554.6 29.9986 554.9 30.4327 555.1 30.8994C555.3 31.4327 555.4 32.0326 555.4 32.6992V50.999H566.1V29.999C566.1 27.8657 565.466 26.0653 564.2 24.5986C562.933 23.132 561.2 22.0322 559 21.2988C556.8 20.5655 554.366 20.1992 551.7 20.1992C548.833 20.1992 546.166 20.5655 543.7 21.2988C541.233 21.9655 539.033 22.699 537.1 23.499ZM584.1 50.999V21.0986H573.1V50.999H584.1ZM592.6 32.5986L597.3 22.8994C596.833 22.1661 596.1 21.5653 595.1 21.0986C594.1 20.5653 593.066 20.2988 592 20.2988C590.266 20.2988 588.6 20.8657 587 21.999C585.4 23.0657 584.133 24.5327 583.2 26.3994C582.266 28.2661 581.8 30.3988 581.8 32.7988L584.1 37.1992C584.1 35.7992 584.3 34.6326 584.7 33.6992C585.1 32.6992 585.667 31.9657 586.4 31.499C587.133 31.0324 587.933 30.7988 588.8 30.7988C589.667 30.7988 590.4 30.9655 591 31.2988C591.6 31.6322 592.133 32.0653 592.6 32.5986Z" fill="#202020"/>
</svg>
