<svg width="59" height="12" viewBox="0 0 59 12" fill="none" xmlns="http://www.w3.org/2000/svg">
<path d="M6 4.89917V6.09937H1.40002V9.89917H6.79999V10.9993H0V0.299316H6.70001V1.49927H1.40002V4.89917H6ZM16.7 0.299316V10.9993H15.3L9.90002 2.79932V10.9993H8.5V0.299316H9.90002L15.3 8.59937V0.299316H16.7ZM27.1 5.69922V9.59937C26.7 10.1327 26.2 10.5326 25.6 10.7993C24.9333 10.9993 24.1667 11.0994 23.3 11.0994C22.4333 11.0994 21.6667 10.8993 21 10.4993C20.3333 10.0993 19.8 9.53265 19.4 8.79932C19.0667 8.06598 18.9 7.19922 18.9 6.19922V5.29932C18.9 3.63265 19.2667 2.36593 20 1.49927C20.7333 0.632601 21.8 0.199219 23.2 0.199219C24.2667 0.199219 25.1333 0.465934 25.8 0.999268C26.5333 1.59927 26.9666 2.4326 27.1 3.49927H25.7C25.4333 2.0326 24.6 1.29932 23.2 1.29932C22.2 1.29932 21.4667 1.63265 21 2.29932C20.5333 2.96598 20.3 3.93255 20.3 5.19922V6.09937C20.3 7.29937 20.5666 8.2325 21.1 8.89917C21.6333 9.6325 22.3667 9.99927 23.3 9.99927C23.8333 9.99927 24.3 9.93265 24.7 9.79932C25.1 9.66598 25.4333 9.46589 25.7 9.19922V6.79932H23.2V5.69922H27.1ZM30.9 0.299316V9.89917H35.9V10.9993H29.5V0.299316H30.9ZM39 0.299316V10.9993H37.6V0.299316H39ZM44.7 6.19922C43.5 5.86589 42.6333 5.46593 42.1 4.99927C41.5666 4.46593 41.3 3.8327 41.3 3.09937C41.3 2.2327 41.6333 1.5326 42.3 0.999268C42.9667 0.465934 43.8334 0.199219 44.9 0.199219C45.6334 0.199219 46.3 0.332699 46.9 0.599365C47.4334 0.866032 47.8667 1.26598 48.2 1.79932C48.5333 2.26598 48.7 2.79917 48.7 3.39917H47.3C47.3 2.79917 47.0666 2.29917 46.6 1.89917C46.2 1.49917 45.6334 1.29932 44.9 1.29932C44.2334 1.29932 43.7 1.46598 43.3 1.79932C42.9 2.13265 42.7 2.56603 42.7 3.09937C42.7 3.49937 42.9 3.86589 43.3 4.19922C43.6333 4.46589 44.2333 4.7326 45.1 4.99927C46.0333 5.26593 46.7333 5.53265 47.2 5.79932C47.7333 6.13265 48.1 6.49917 48.3 6.89917C48.5667 7.29917 48.7 7.76598 48.7 8.29932C48.7 9.16598 48.3667 9.86584 47.7 10.3992C47.0333 10.8658 46.1333 11.0994 45 11.0994C44.2667 11.0994 43.5667 10.9659 42.9 10.6992C42.3 10.4326 41.8333 10.066 41.5 9.59937C41.1 9.06603 40.9 8.49917 40.9 7.89917H42.4C42.4 8.56584 42.6333 9.06584 43.1 9.39917C43.5666 9.79917 44.2 9.99927 45 9.99927C45.7333 9.99927 46.3 9.8326 46.7 9.49927C47.1 9.2326 47.3 8.83265 47.3 8.29932C47.3 7.76598 47.1 7.36603 46.7 7.09937C46.3667 6.8327 45.7 6.53255 44.7 6.19922ZM58.7 0.299316V10.9993H57.3V6.09937H51.9V10.9993H50.5V0.299316H51.9V4.89917H57.3V0.299316H58.7Z" fill="white"/>
</svg>
