<svg width="67" height="15" viewBox="0 0 67 15" fill="none" xmlns="http://www.w3.org/2000/svg">
<path d="M1.30017 1.50098V3.10107H6.00018V1.50098H1.30017ZM1.30017 5.70117V7.30078H5.80017V5.70117H1.30017ZM2.00018 1.50098H0.200195V12.001H2.00018V1.50098ZM8.50018 9.90088C8.50018 9.63421 8.53349 9.43411 8.60016 9.30078C8.73349 9.16745 8.90016 9.06764 9.10016 9.00098C9.30016 8.86764 9.56687 8.80078 9.90021 8.80078C10.3002 8.80078 10.7002 8.86764 11.1002 9.00098C11.4335 9.06764 11.7335 9.20088 12.0002 9.40088V8.60107C11.9335 8.53441 11.8002 8.43411 11.6002 8.30078C11.3335 8.16745 11.0335 8.03421 10.7002 7.90088C10.3669 7.83421 10.0002 7.80078 9.60016 7.80078C8.73349 7.80078 8.06683 8.00088 7.60016 8.40088C7.13349 8.73421 6.90021 9.23421 6.90021 9.90088C6.90021 10.3675 7.0002 10.7677 7.2002 11.1011C7.4002 11.4344 7.70016 11.7009 8.10016 11.9009C8.43349 12.0342 8.8335 12.1011 9.30017 12.1011C9.70017 12.1011 10.0669 12.0342 10.4002 11.9009C10.8002 11.7675 11.1335 11.5674 11.4002 11.3008C11.6669 10.9674 11.8002 10.6012 11.8002 10.2012L11.5002 9.30078C11.5002 9.63411 11.4335 9.93451 11.3002 10.2012C11.1668 10.4012 10.9669 10.5678 10.7002 10.7012C10.4335 10.8345 10.1335 10.9009 9.80017 10.9009C9.5335 10.9009 9.30016 10.8674 9.10016 10.8008C8.90016 10.7341 8.76686 10.6343 8.7002 10.501C8.56686 10.301 8.50018 10.1009 8.50018 9.90088ZM7.30017 5.80078L8.00018 6.90088C8.06685 6.83421 8.20021 6.73441 8.40021 6.60107C8.60021 6.53441 8.86686 6.46755 9.2002 6.40088C9.46686 6.33421 9.76683 6.30078 10.1002 6.30078C10.3002 6.30078 10.5002 6.30078 10.7002 6.30078C10.8335 6.36745 10.9668 6.43431 11.1002 6.50098C11.2335 6.56764 11.3335 6.70088 11.4002 6.90088C11.4669 7.03421 11.5002 7.20088 11.5002 7.40088V12.001H13.1002V7.10107C13.1002 6.63441 13.0002 6.23421 12.8002 5.90088C12.5335 5.56755 12.1669 5.33451 11.7002 5.20117C11.3002 5.00117 10.8002 4.90088 10.2002 4.90088C9.60019 4.90088 9.03352 5.00117 8.50018 5.20117C8.03352 5.40117 7.6335 5.60078 7.30017 5.80078ZM16.6002 12.001V0.300781H15.0002V12.001H16.6002ZM22.3002 8.60107C22.3002 7.80107 22.1336 7.13441 21.8002 6.60107C21.5336 6.06774 21.1335 5.66755 20.6002 5.40088C20.0668 5.06755 19.5002 4.90088 18.9002 4.90088C18.3669 4.90088 17.8669 5.06755 17.4002 5.40088C16.9335 5.66755 16.6002 6.06774 16.4002 6.60107C16.1335 7.13441 16.0002 7.80107 16.0002 8.60107C16.0002 9.33441 16.1335 9.96764 16.4002 10.501C16.6002 11.0343 16.9335 11.4345 17.4002 11.7012C17.8669 11.9678 18.3669 12.1011 18.9002 12.1011C19.5002 12.1011 20.0668 11.9678 20.6002 11.7012C21.1335 11.4345 21.5336 11.0343 21.8002 10.501C22.1336 9.96764 22.3002 9.33441 22.3002 8.60107ZM20.6002 8.60107C20.6002 9.00107 20.5002 9.36784 20.3002 9.70117C20.1002 10.0345 19.8668 10.301 19.6002 10.501C19.2668 10.6343 18.9002 10.7012 18.5002 10.7012C18.2335 10.7012 17.9335 10.6343 17.6002 10.501C17.3335 10.301 17.1002 10.0345 16.9002 9.70117C16.7002 9.43451 16.6002 9.06774 16.6002 8.60107C16.6002 8.06774 16.7002 7.66755 16.9002 7.40088C17.1002 7.06755 17.3335 6.80107 17.6002 6.60107C17.9335 6.46774 18.2335 6.40088 18.5002 6.40088C18.9002 6.40088 19.2668 6.46774 19.6002 6.60107C19.8668 6.80107 20.1002 7.06755 20.3002 7.40088C20.5002 7.73421 20.6002 8.13441 20.6002 8.60107ZM25.7001 10.8008L24.1002 10.4009L22.8002 14.2012L24.0002 14.6011L25.7001 10.8008ZM36.4002 6.80078L31.5002 11.9009H39.5002V10.3008H35.0002L37.9002 7.40088C38.3669 7.00088 38.7335 6.53431 39.0002 6.00098C39.2668 5.46764 39.4002 4.93421 39.4002 4.40088C39.4002 4.06755 39.3335 3.70078 39.2001 3.30078C39.0001 2.96745 38.7668 2.63411 38.5002 2.30078C38.2335 2.03411 37.8669 1.80107 37.4002 1.60107C36.9335 1.40107 36.4002 1.30078 35.8002 1.30078C35.0002 1.30078 34.3336 1.46745 33.8002 1.80078C33.2002 2.13411 32.7668 2.60117 32.5002 3.20117C32.2335 3.73451 32.1002 4.40117 32.1002 5.20117H33.8002C33.8002 4.73451 33.8668 4.30088 34.0002 3.90088C34.2002 3.56755 34.4335 3.30107 34.7001 3.10107C35.0335 2.96774 35.4002 2.90088 35.8002 2.90088C36.0669 2.90088 36.3002 2.93431 36.5002 3.00098C36.7668 3.06764 36.9668 3.20088 37.1002 3.40088C37.2335 3.53421 37.3335 3.70088 37.4002 3.90088C37.4669 4.10088 37.5002 4.30098 37.5002 4.50098C37.5002 4.76764 37.4669 5.03411 37.4002 5.30078C37.3335 5.56745 37.2002 5.83441 37.0002 6.10107C36.8002 6.30107 36.6002 6.53411 36.4002 6.80078ZM42.6002 6.70117C42.6002 6.16784 42.6669 5.66784 42.8002 5.20117C42.8669 4.73451 43.0001 4.30088 43.2001 3.90088C43.4001 3.56755 43.6669 3.33451 44.0002 3.20117C44.2668 3.00117 44.6002 2.90088 45.0002 2.90088C45.3335 2.90088 45.6335 3.00117 45.9002 3.20117C46.1669 3.33451 46.4002 3.56755 46.6002 3.90088C46.8668 4.30088 47.0335 4.73451 47.1002 5.20117C47.2335 5.66784 47.3002 6.16784 47.3002 6.70117C47.3002 7.23451 47.2335 7.73451 47.1002 8.20117C47.0335 8.73451 46.8668 9.16764 46.6002 9.50098C46.4002 9.83431 46.1669 10.1008 45.9002 10.3008C45.6335 10.4341 45.3335 10.501 45.0002 10.501C44.6002 10.501 44.2668 10.4341 44.0002 10.3008C43.6669 10.1008 43.4001 9.83431 43.2001 9.50098C43.0001 9.16764 42.8669 8.73451 42.8002 8.20117C42.6669 7.73451 42.6002 7.23451 42.6002 6.70117ZM40.9002 6.70117C40.9002 7.76784 41.0669 8.73441 41.4002 9.60107C41.7335 10.4011 42.2002 11.0009 42.8002 11.4009C43.4002 11.8675 44.1335 12.1011 45.0002 12.1011C45.8002 12.1011 46.5002 11.8675 47.1002 11.4009C47.7002 11.0009 48.1669 10.4011 48.5002 9.60107C48.8335 8.73441 49.0002 7.76784 49.0002 6.70117C49.0002 5.63451 48.8335 4.66745 48.5002 3.80078C48.1669 3.00078 47.7002 2.40098 47.1002 2.00098C46.5002 1.53431 45.8002 1.30078 45.0002 1.30078C44.1335 1.30078 43.4002 1.53431 42.8002 2.00098C42.2002 2.40098 41.7335 3.00078 41.4002 3.80078C41.0669 4.66745 40.9002 5.63451 40.9002 6.70117ZM54.8002 6.80078L49.9002 12.001L57.9002 11.9009V10.3008H53.4002L56.4002 7.40088C56.8002 7.00088 57.1335 6.53431 57.4002 6.00098C57.6669 5.46764 57.8002 4.93421 57.8002 4.40088C57.8002 4.06755 57.7335 3.70078 57.6002 3.30078C57.4668 2.96745 57.2335 2.63411 56.9002 2.30078C56.6335 2.03411 56.2669 1.80107 55.8002 1.60107C55.3336 1.40107 54.8001 1.30078 54.2001 1.30078C53.4001 1.30078 52.7335 1.46745 52.2001 1.80078C51.6668 2.13411 51.2335 2.60117 50.9002 3.20117C50.6335 3.73451 50.5002 4.40117 50.5002 5.20117H52.3002C52.3002 4.73451 52.3668 4.30088 52.5002 3.90088C52.6335 3.56755 52.8668 3.30107 53.2001 3.10107C53.4668 2.96774 53.8001 2.90088 54.2001 2.90088C54.4668 2.90088 54.7335 2.93431 55.0002 3.00098C55.2002 3.06764 55.3668 3.20088 55.5002 3.40088C55.7002 3.53421 55.8335 3.70088 55.9002 3.90088C55.9669 4.10088 56.0002 4.30098 56.0002 4.50098C56.0002 4.76764 55.9336 5.03411 55.8002 5.30078C55.7336 5.56745 55.6002 5.83441 55.4002 6.10107C55.2669 6.30107 55.0669 6.53411 54.8002 6.80078ZM63.9002 6.80078L59.0002 12.001L67.0002 11.9009V10.3008H62.5002L65.4002 7.40088C65.8669 7.00088 66.2335 6.53431 66.5002 6.00098C66.7669 5.46764 66.9002 4.93421 66.9002 4.40088C66.9002 4.06755 66.8335 3.70078 66.7001 3.30078C66.5001 2.96745 66.2669 2.63411 66.0002 2.30078C65.6668 2.03411 65.3002 1.80107 64.9002 1.60107C64.4335 1.40107 63.9002 1.30078 63.3002 1.30078C62.5002 1.30078 61.8336 1.46745 61.3002 1.80078C60.7002 2.13411 60.2668 2.60117 60.0002 3.20117C59.7335 3.73451 59.6002 4.40117 59.6002 5.20117H61.3002C61.3002 4.73451 61.3668 4.30088 61.5002 3.90088C61.7002 3.56755 61.9335 3.30107 62.2001 3.10107C62.5335 2.96774 62.9002 2.90088 63.3002 2.90088C63.5669 2.90088 63.8002 2.93431 64.0002 3.00098C64.2002 3.06764 64.4002 3.20088 64.6002 3.40088C64.7335 3.53421 64.8335 3.70088 64.9002 3.90088C64.9669 4.10088 65.0002 4.30098 65.0002 4.50098C65.0002 4.76764 64.9669 5.03411 64.9002 5.30078C64.8335 5.56745 64.7002 5.83441 64.5002 6.10107C64.3002 6.30107 64.1002 6.53411 63.9002 6.80078Z" fill="#0060FF"/>
</svg>
