<svg width="296" height="16" viewBox="0 0 296 16" fill="none" xmlns="http://www.w3.org/2000/svg">
<path d="M6.1998 6.10107V7.30078H1.6998V12.001H0.299805V1.30078H6.8998V2.50098H1.6998V6.10107H6.1998ZM14.4998 12.001H12.9998C12.9331 11.8676 12.8665 11.6012 12.7998 11.2012C12.1998 11.8012 11.4665 12.1011 10.5998 12.1011C9.79981 12.1011 9.16646 11.901 8.6998 11.501C8.16647 11.0343 7.8998 10.4674 7.8998 9.80078C7.8998 9.00078 8.23313 8.36755 8.8998 7.90088C9.4998 7.43421 10.3665 7.20117 11.4998 7.20117H12.7998V6.60107C12.7998 6.13441 12.6665 5.73421 12.3998 5.40088C12.1331 5.13421 11.6998 5.00098 11.0998 5.00098C10.6331 5.00098 10.2331 5.13421 9.8998 5.40088C9.56646 5.66755 9.3998 5.96745 9.3998 6.30078H8.09981C8.09981 5.90078 8.23313 5.50107 8.4998 5.10107C8.76647 4.76774 9.13314 4.50078 9.59981 4.30078C10.1331 4.03411 10.6665 3.90088 11.1998 3.90088C12.1331 3.90088 12.8665 4.13441 13.3998 4.60107C13.9331 5.06774 14.1998 5.70098 14.1998 6.50098V10.1011C14.1998 10.8344 14.2998 11.4342 14.4998 11.9009V12.001ZM10.7998 11.001C11.1998 11.001 11.5998 10.8677 11.9998 10.6011C12.3998 10.4011 12.6665 10.1341 12.7998 9.80078V8.10107H11.7998C10.1331 8.10107 9.2998 8.60107 9.2998 9.60107C9.2998 10.0011 9.43313 10.3344 9.6998 10.6011C9.96646 10.8677 10.3331 11.001 10.7998 11.001ZM15.9998 8.00098C15.9998 6.73431 16.2665 5.73431 16.7998 5.00098C17.3998 4.26764 18.1665 3.90088 19.0998 3.90088C20.0331 3.90088 20.7665 4.23421 21.2998 4.90088L21.3998 4.10107H22.6998V15.001H21.2998V11.3008C20.7665 11.8341 20.0331 12.1011 19.0998 12.1011C18.1665 12.1011 17.3998 11.7343 16.7998 11.001C16.2665 10.2676 15.9998 9.26764 15.9998 8.00098ZM17.2998 8.10107C17.2998 9.03441 17.4998 9.73451 17.8998 10.2012C18.2998 10.7345 18.8331 11.001 19.4998 11.001C20.2998 11.001 20.8998 10.6676 21.2998 10.001V6.10107C20.8998 5.36774 20.2998 5.00098 19.4998 5.00098C18.8331 5.00098 18.2998 5.26745 17.8998 5.80078C17.4998 6.33411 17.2998 7.10107 17.2998 8.10107ZM31.0998 12.001H29.6998C29.6331 11.801 29.5665 11.5011 29.4998 11.1011C28.8998 11.7677 28.1665 12.1011 27.2998 12.1011C26.4998 12.1011 25.8331 11.901 25.2998 11.501C24.8331 11.0343 24.5998 10.4674 24.5998 9.80078C24.5998 8.93411 24.8998 8.30088 25.4998 7.90088C26.1665 7.43421 27.0665 7.20117 28.1998 7.20117H29.4998V6.60107C29.4998 6.06774 29.3665 5.66755 29.0998 5.40088C28.8331 5.13421 28.3998 5.00098 27.7998 5.00098C27.3331 5.00098 26.9331 5.13421 26.5998 5.40088C26.2665 5.60088 26.0998 5.90078 26.0998 6.30078H24.7998C24.7998 5.90078 24.9331 5.50107 25.1998 5.10107C25.4665 4.76774 25.8331 4.46784 26.2998 4.20117C26.7665 4.00117 27.2998 3.90088 27.8998 3.90088C28.8331 3.90088 29.5665 4.13441 30.0998 4.60107C30.5665 5.06774 30.8331 5.70098 30.8998 6.50098V10.1011C30.8998 10.8344 30.9665 11.4342 31.0998 11.9009V12.001ZM27.4998 10.9009C27.8998 10.9009 28.2998 10.8011 28.6998 10.6011C29.0998 10.4011 29.3665 10.1012 29.4998 9.70117V8.10107H28.3998C26.7998 8.10107 25.9998 8.60107 25.9998 9.60107C25.9998 10.0011 26.1331 10.3344 26.3998 10.6011C26.6665 10.8011 27.0331 10.9009 27.4998 10.9009ZM33.4998 2.10107H34.7998V4.00098H36.2998V5.10107H34.7998V10.001C34.7998 10.3343 34.8665 10.5678 34.9998 10.7012C35.1331 10.9012 35.3665 11.001 35.6998 11.001C35.8331 11.001 36.0331 10.9675 36.2998 10.9009V12.001C35.9665 12.0676 35.6331 12.1011 35.2998 12.1011C34.6998 12.1011 34.2331 11.9344 33.8998 11.6011C33.6331 11.2011 33.4998 10.6676 33.4998 10.001V5.10107H31.9998V4.00098H33.4998V2.10107ZM41.5998 4.10107H42.8998V4.90088C43.4998 4.23421 44.2998 3.90088 45.2998 3.90088C46.3665 3.90088 47.0998 4.33451 47.4998 5.20117C47.7665 4.80117 48.1331 4.50078 48.5998 4.30078C48.9998 4.03411 49.4998 3.90088 50.0998 3.90088C51.8331 3.90088 52.6998 4.83451 52.6998 6.70117V12.001H51.2998V6.80078C51.2998 6.20078 51.1998 5.76764 50.9998 5.50098C50.7331 5.23431 50.2998 5.10107 49.6998 5.10107C49.1665 5.10107 48.7331 5.23431 48.3998 5.50098C48.0665 5.83431 47.8665 6.23451 47.7998 6.70117V12.001H46.4998V6.80078C46.4998 5.66745 45.9331 5.10107 44.7998 5.10107C43.8665 5.10107 43.2331 5.46784 42.8998 6.20117V12.001H41.5998V4.10107ZM59.6998 12.001L59.5998 11.2012C59.0665 11.8678 58.2998 12.2012 57.2998 12.2012C56.4998 12.2012 55.8665 11.9342 55.3998 11.4009C54.9331 10.9342 54.6998 10.2012 54.6998 9.20117V4.10107H56.0998V9.20117C56.0998 10.4012 56.5665 11.001 57.4998 11.001C58.5665 11.001 59.2665 10.6008 59.5998 9.80078V4.10107H60.9998V12.001H59.6998ZM67.5998 9.90088C67.5998 9.56755 67.4665 9.30107 67.1998 9.10107C66.9331 8.90107 66.4665 8.70098 65.7998 8.50098C65.0665 8.36764 64.4998 8.20098 64.0998 8.00098C63.6998 7.80098 63.3998 7.56745 63.1998 7.30078C62.9998 6.96745 62.8998 6.63411 62.8998 6.30078C62.8998 5.63411 63.1998 5.06774 63.7998 4.60107C64.3331 4.13441 65.0331 3.90088 65.8998 3.90088C66.7665 3.90088 67.4998 4.13441 68.0998 4.60107C68.6331 5.06774 68.8998 5.66755 68.8998 6.40088H67.4998C67.4998 6.06755 67.3665 5.76764 67.0998 5.50098C66.7665 5.23431 66.3665 5.10107 65.8998 5.10107C65.3665 5.10107 64.9665 5.20088 64.6998 5.40088C64.4331 5.60088 64.2998 5.86784 64.2998 6.20117C64.2998 6.53451 64.4331 6.80098 64.6998 7.00098C64.9665 7.13431 65.4331 7.26755 66.0998 7.40088C66.7665 7.60088 67.2998 7.80098 67.6998 8.00098C68.1665 8.20098 68.4998 8.4345 68.6998 8.70117C68.8998 9.0345 68.9998 9.40078 68.9998 9.80078C68.9998 10.5341 68.6998 11.101 68.0998 11.501C67.5665 11.9676 66.8331 12.2012 65.8998 12.2012C65.2998 12.2012 64.7331 12.0674 64.1998 11.8008C63.7331 11.6008 63.3665 11.3009 63.0998 10.9009C62.8331 10.5009 62.6998 10.0677 62.6998 9.60107H63.9998C64.0665 10.0677 64.2665 10.4345 64.5998 10.7012C64.9331 10.9012 65.3665 11.001 65.8998 11.001C66.4331 11.001 66.8665 10.9012 67.1998 10.7012C67.4665 10.5012 67.5998 10.2342 67.5998 9.90088ZM71.1998 2.20117H72.5998V4.10107H74.0998V5.10107H72.5998V10.001C72.5998 10.3343 72.6665 10.6008 72.7998 10.8008C72.9331 10.9341 73.1665 11.001 73.4998 11.001C73.6331 11.001 73.8331 10.9675 74.0998 10.9009V12.001C73.7665 12.1343 73.4331 12.2012 73.0998 12.2012C72.4331 12.2012 71.9665 12.0011 71.6998 11.6011C71.3665 11.2677 71.1998 10.7343 71.1998 10.001V5.10107H69.7998V4.10107H71.1998V2.20117ZM81.9998 12.001H80.4998C80.4331 11.8676 80.3665 11.6012 80.2998 11.2012C79.6998 11.8678 78.9665 12.2012 78.0998 12.2012C77.2998 12.2012 76.6665 11.9676 76.1998 11.501C75.6665 11.0343 75.3998 10.4674 75.3998 9.80078C75.3998 9.00078 75.7331 8.36755 76.3998 7.90088C76.9998 7.43421 77.8665 7.20117 78.9998 7.20117H80.2998V6.60107C80.2998 6.13441 80.1665 5.76764 79.8998 5.50098C79.6331 5.16764 79.1998 5.00098 78.5998 5.00098C78.1331 5.00098 77.7331 5.13421 77.3998 5.40088C77.0665 5.66755 76.8998 5.96745 76.8998 6.30078H75.5998C75.5998 5.90078 75.7331 5.53451 75.9998 5.20117C76.2665 4.80117 76.6331 4.50078 77.0998 4.30078C77.6331 4.10078 78.1665 4.00098 78.6998 4.00098C79.6331 4.00098 80.3665 4.20107 80.8998 4.60107C81.3665 5.06774 81.6331 5.70098 81.6998 6.50098V10.2012C81.6998 10.9345 81.7998 11.5009 81.9998 11.9009V12.001ZM78.2998 11.001C78.6998 11.001 79.0998 10.8677 79.4998 10.6011C79.8998 10.4011 80.1665 10.1341 80.2998 9.80078V8.20117H79.2998C77.6331 8.20117 76.7998 8.66774 76.7998 9.60107C76.7998 10.0677 76.9331 10.4011 77.1998 10.6011C77.4665 10.8677 77.8331 11.001 78.2998 11.001ZM83.4998 8.10107V8.00098C83.4998 6.73431 83.7665 5.73431 84.2998 5.00098C84.8998 4.26764 85.6665 3.90088 86.5998 3.90088C87.5331 3.90088 88.2665 4.23421 88.7998 4.90088L88.8998 4.10107H90.0998V15.1011H88.7998V11.3008C88.2665 11.9008 87.5331 12.2012 86.5998 12.2012C85.6665 12.2012 84.8998 11.801 84.2998 11.001C83.7665 10.2676 83.4998 9.30107 83.4998 8.10107ZM84.7998 8.10107C84.7998 9.03441 84.9998 9.76745 85.3998 10.3008C85.7998 10.8341 86.2998 11.1011 86.8998 11.1011C87.7665 11.1011 88.3998 10.7343 88.7998 10.001V6.10107C88.3998 5.43441 87.7998 5.10107 86.9998 5.10107C86.3331 5.10107 85.7998 5.33411 85.3998 5.80078C84.9998 6.33411 84.7998 7.10107 84.7998 8.10107ZM93.7998 4.10107V12.001H92.3998V4.10107H93.7998ZM92.3998 2.00098C92.3998 1.80098 92.4665 1.60088 92.5998 1.40088C92.7331 1.26755 92.9331 1.20117 93.1998 1.20117C93.4665 1.20117 93.6665 1.26755 93.7998 1.40088C93.9331 1.60088 93.9998 1.80098 93.9998 2.00098C93.9998 2.20098 93.9331 2.36764 93.7998 2.50098C93.6665 2.70098 93.4665 2.80078 93.1998 2.80078C92.9331 2.80078 92.7331 2.70098 92.5998 2.50098C92.4665 2.36764 92.3998 2.20098 92.3998 2.00098ZM97.4998 0.800781V12.001H96.0998V0.800781H97.4998ZM103.1 8.10107V8.00098C103.1 7.20098 103.233 6.50088 103.5 5.90088C103.833 5.30088 104.266 4.80088 104.8 4.40088C105.333 4.06755 105.933 3.90088 106.6 3.90088C107.733 3.90088 108.633 4.30107 109.3 5.10107C109.966 5.83441 110.3 6.80098 110.3 8.00098V8.10107C110.3 8.90107 110.133 9.60117 109.8 10.2012C109.533 10.8012 109.133 11.2677 108.6 11.6011C108 12.0011 107.366 12.2012 106.7 12.2012C105.566 12.2012 104.666 11.801 104 11.001C103.4 10.2676 103.1 9.30107 103.1 8.10107ZM104.4 8.10107C104.4 9.03441 104.6 9.76745 105 10.3008C105.4 10.8341 105.966 11.1011 106.7 11.1011C107.366 11.1011 107.9 10.8012 108.3 10.2012C108.7 9.66784 108.9 8.93431 108.9 8.00098C108.9 7.13431 108.7 6.43421 108.3 5.90088C107.9 5.36755 107.333 5.10107 106.6 5.10107C105.933 5.10107 105.4 5.36755 105 5.90088C104.6 6.36755 104.4 7.10107 104.4 8.10107ZM111.8 0.800781V1.60107L111.6 4.30078H110.7V0.800781H111.8ZM117.4 4.00098V5.30078C117.2 5.30078 117 5.30078 116.8 5.30078C115.866 5.30078 115.233 5.66755 114.9 6.40088V12.001H113.6V4.10107H114.9V5.00098C115.366 4.26764 116 3.90088 116.8 3.90088C117.066 3.90088 117.266 3.93431 117.4 4.00098ZM118.2 8.00098C118.2 6.73431 118.5 5.73431 119.1 5.00098C119.633 4.26764 120.366 3.90088 121.3 3.90088C122.3 3.90088 123.066 4.26764 123.6 5.00098L123.7 4.10107H124.9V11.8008C124.9 12.8674 124.6 13.6678 124 14.2012C123.4 14.8012 122.566 15.1011 121.5 15.1011C120.966 15.1011 120.433 15.0008 119.9 14.8008C119.3 14.5341 118.866 14.2008 118.6 13.8008L119.3 12.9009C119.9 13.6342 120.6 14.001 121.4 14.001C122.066 14.001 122.6 13.8343 123 13.501C123.333 13.101 123.5 12.5675 123.5 11.9009V11.2012C122.966 11.8678 122.233 12.2012 121.3 12.2012C120.366 12.2012 119.633 11.801 119.1 11.001C118.5 10.2676 118.2 9.26764 118.2 8.00098ZM119.6 8.10107C119.6 9.03441 119.766 9.73451 120.1 10.2012C120.5 10.7345 121.033 11.001 121.7 11.001C122.5 11.001 123.1 10.6008 123.5 9.80078V6.20117C123.1 5.46784 122.5 5.10107 121.7 5.10107C121.033 5.10107 120.5 5.36755 120.1 5.90088C119.766 6.36755 119.6 7.10107 119.6 8.10107ZM133.3 12.001H131.8C131.733 11.8676 131.666 11.6012 131.6 11.2012C131 11.8678 130.266 12.2012 129.4 12.2012C128.6 12.2012 127.966 11.9676 127.5 11.501C126.966 11.0343 126.7 10.4674 126.7 9.80078C126.7 9.00078 127.033 8.36755 127.7 7.90088C128.3 7.43421 129.166 7.20117 130.3 7.20117H131.6V6.60107C131.6 6.13441 131.466 5.76764 131.2 5.50098C130.933 5.16764 130.5 5.00098 129.9 5.00098C129.433 5.00098 129.033 5.13421 128.7 5.40088C128.366 5.66755 128.2 5.96745 128.2 6.30078H126.9C126.9 5.90078 127.033 5.50107 127.3 5.10107C127.566 4.76774 127.933 4.50078 128.4 4.30078C128.933 4.03411 129.466 3.90088 130 3.90088C130.933 3.90088 131.666 4.13441 132.2 4.60107C132.666 5.06774 132.933 5.70098 133 6.50098V10.2012C133 10.8678 133.1 11.4342 133.3 11.9009V12.001ZM129.6 11.001C130 11.001 130.4 10.8677 130.8 10.6011C131.2 10.4011 131.466 10.1341 131.6 9.80078V8.10107H130.6C128.933 8.10107 128.1 8.60107 128.1 9.60107C128.1 10.0011 128.233 10.3344 128.5 10.6011C128.766 10.8677 129.133 11.001 129.6 11.001ZM135.1 4.10107H136.4V5.10107C137 4.30107 137.8 3.90088 138.8 3.90088C140.466 3.90088 141.3 4.86745 141.3 6.80078V12.001H140V6.70117C140 6.16784 139.866 5.76764 139.6 5.50098C139.333 5.23431 138.933 5.10107 138.4 5.10107C137.933 5.10107 137.533 5.20088 137.2 5.40088C136.866 5.66755 136.633 5.96745 136.5 6.30078V12.001H135.1V4.10107ZM144.9 4.10107V12.001H143.5V4.10107H144.9ZM143.4 2.00098C143.4 1.80098 143.466 1.60088 143.6 1.40088C143.733 1.26755 143.933 1.20117 144.2 1.20117C144.466 1.20117 144.666 1.26755 144.8 1.40088C144.933 1.60088 145 1.80098 145 2.00098C145 2.20098 144.933 2.36764 144.8 2.50098C144.666 2.70098 144.466 2.80078 144.2 2.80078C143.933 2.80078 143.733 2.70098 143.6 2.50098C143.466 2.36764 143.4 2.20098 143.4 2.00098ZM151.7 9.90088C151.7 9.56755 151.566 9.30107 151.3 9.10107C151.033 8.90107 150.533 8.70098 149.8 8.50098C149.133 8.36764 148.6 8.20098 148.2 8.00098C147.8 7.80098 147.5 7.56745 147.3 7.30078C147.1 7.03411 147 6.70078 147 6.30078C147 5.63411 147.266 5.06774 147.8 4.60107C148.4 4.13441 149.1 3.90088 149.9 3.90088C150.833 3.90088 151.566 4.13441 152.1 4.60107C152.7 5.06774 153 5.66755 153 6.40088H151.6C151.6 6.06755 151.433 5.76764 151.1 5.50098C150.833 5.23431 150.433 5.10107 149.9 5.10107C149.433 5.10107 149.066 5.20088 148.8 5.40088C148.533 5.60088 148.4 5.86784 148.4 6.20117C148.4 6.53451 148.5 6.80098 148.7 7.00098C148.966 7.13431 149.433 7.26755 150.1 7.40088C150.833 7.60088 151.4 7.80098 151.8 8.00098C152.2 8.20098 152.5 8.4345 152.7 8.70117C152.9 9.0345 153 9.40078 153 9.80078C153 10.5341 152.733 11.101 152.2 11.501C151.6 11.9676 150.866 12.2012 150 12.2012C149.333 12.2012 148.766 12.0674 148.3 11.8008C147.833 11.6008 147.433 11.3009 147.1 10.9009C146.833 10.5009 146.7 10.0677 146.7 9.60107H148.1C148.1 10.0677 148.266 10.4345 148.6 10.7012C148.933 10.9678 149.4 11.1011 150 11.1011C150.466 11.1011 150.866 11.0008 151.2 10.8008C151.533 10.5341 151.7 10.2342 151.7 9.90088ZM156.2 0.800781V5.10107C156.8 4.30107 157.566 3.90088 158.5 3.90088C160.166 3.90088 161 4.86745 161 6.80078V12.001H159.7V6.80078C159.7 6.20078 159.566 5.76764 159.3 5.50098C159.033 5.23431 158.633 5.10107 158.1 5.10107C157.633 5.10107 157.233 5.20088 156.9 5.40088C156.566 5.66755 156.333 6.00088 156.2 6.40088V12.001H154.8V0.800781H156.2ZM163.1 4.10107H164.4V5.10107C165 4.30107 165.8 3.90088 166.8 3.90088C168.466 3.90088 169.3 4.86745 169.3 6.80078V12.001H168V6.80078C168 6.20078 167.866 5.76764 167.6 5.50098C167.333 5.23431 166.933 5.10107 166.4 5.10107C165.933 5.10107 165.533 5.20088 165.2 5.40088C164.866 5.66755 164.633 6.00088 164.5 6.40088V12.001H163.1V4.10107ZM172.9 4.10107V12.001H171.5V4.10107H172.9ZM171.4 2.00098C171.4 1.80098 171.466 1.63431 171.6 1.50098C171.733 1.30098 171.933 1.20117 172.2 1.20117C172.466 1.20117 172.666 1.30098 172.8 1.50098C172.933 1.63431 173 1.80098 173 2.00098C173 2.20098 172.933 2.40107 172.8 2.60107C172.666 2.73441 172.466 2.80078 172.2 2.80078C171.933 2.80078 171.733 2.73441 171.6 2.60107C171.466 2.40107 171.4 2.20098 171.4 2.00098ZM180.3 4.10107V12.001H178.9V4.10107H180.3ZM178.8 2.00098C178.8 1.80098 178.866 1.63431 179 1.50098C179.133 1.30098 179.333 1.20117 179.6 1.20117C179.866 1.20117 180.066 1.30098 180.2 1.50098C180.333 1.63431 180.4 1.80098 180.4 2.00098C180.4 2.20098 180.333 2.40107 180.2 2.60107C180.066 2.73441 179.866 2.80078 179.6 2.80078C179.333 2.80078 179.133 2.73441 179 2.60107C178.866 2.40107 178.8 2.20098 178.8 2.00098ZM187.1 9.90088C187.1 9.56755 186.966 9.30107 186.7 9.10107C186.433 8.90107 185.933 8.73441 185.2 8.60107C184.533 8.40107 184 8.20098 183.6 8.00098C183.2 7.80098 182.9 7.56745 182.7 7.30078C182.5 7.03411 182.4 6.70078 182.4 6.30078C182.4 5.63411 182.666 5.06774 183.2 4.60107C183.8 4.20107 184.5 4.00098 185.3 4.00098C186.233 4.00098 186.966 4.23451 187.5 4.70117C188.1 5.16784 188.4 5.73421 188.4 6.40088H187C187 6.06755 186.833 5.76764 186.5 5.50098C186.233 5.23431 185.833 5.10107 185.3 5.10107C184.833 5.10107 184.466 5.20088 184.2 5.40088C183.933 5.60088 183.8 5.90078 183.8 6.30078C183.8 6.56745 183.9 6.80098 184.1 7.00098C184.366 7.13431 184.833 7.30098 185.5 7.50098C186.233 7.63431 186.8 7.80098 187.2 8.00098C187.6 8.20098 187.9 8.46745 188.1 8.80078C188.3 9.06745 188.4 9.40078 188.4 9.80078C188.4 10.5341 188.133 11.1344 187.6 11.6011C187 12.0011 186.266 12.2012 185.4 12.2012C184.733 12.2012 184.166 12.1009 183.7 11.9009C183.233 11.6342 182.833 11.3009 182.5 10.9009C182.233 10.5009 182.1 10.0677 182.1 9.60107H183.5C183.5 10.0677 183.666 10.4345 184 10.7012C184.333 10.9678 184.8 11.1011 185.4 11.1011C185.866 11.1011 186.266 11.0008 186.6 10.8008C186.933 10.6008 187.1 10.3009 187.1 9.90088ZM190.7 2.20117H192V4.10107H193.5V5.20117H192V10.1011C192 10.4344 192.066 10.6674 192.2 10.8008C192.333 10.9341 192.566 11.001 192.9 11.001C193.033 11.001 193.266 10.9675 193.6 10.9009V12.001C193.2 12.1343 192.833 12.2012 192.5 12.2012C191.9 12.2012 191.433 12.0011 191.1 11.6011C190.833 11.2677 190.7 10.7677 190.7 10.1011V5.20117H189.2V4.10107H190.7V2.20117ZM194.6 8.10107V8.00098C194.6 7.26764 194.733 6.56755 195 5.90088C195.333 5.30088 195.766 4.83431 196.3 4.50098C196.833 4.16764 197.466 4.00098 198.2 4.00098C199.266 4.00098 200.133 4.36774 200.8 5.10107C201.466 5.83441 201.8 6.83441 201.8 8.10107V8.20117C201.8 8.93451 201.666 9.63411 201.4 10.3008C201.066 10.9008 200.633 11.3678 200.1 11.7012C199.566 12.0345 198.933 12.2012 198.2 12.2012C197.133 12.2012 196.266 11.8344 195.6 11.1011C194.933 10.3677 194.6 9.36774 194.6 8.10107ZM196 8.20117C196 9.06784 196.2 9.76745 196.6 10.3008C197 10.8341 197.533 11.1011 198.2 11.1011C198.866 11.1011 199.4 10.8341 199.8 10.3008C200.266 9.76745 200.5 9.00098 200.5 8.00098C200.5 7.13431 200.266 6.43421 199.8 5.90088C199.4 5.36755 198.866 5.10107 198.2 5.10107C197.533 5.10107 197 5.36755 196.6 5.90088C196.2 6.43421 196 7.20117 196 8.20117ZM204 4.10107L206 10.2012L208 4.10107H209.4L206.5 12.1011H205.5L202.6 4.10107H204ZM213.8 11.1011C214.266 11.1011 214.666 10.9678 215 10.7012C215.4 10.3678 215.6 10.0011 215.6 9.60107H216.9C216.9 10.0011 216.733 10.4342 216.4 10.9009C216.133 11.3009 215.766 11.6008 215.3 11.8008C214.833 12.0674 214.333 12.2012 213.8 12.2012C212.666 12.2012 211.8 11.8344 211.2 11.1011C210.533 10.3677 210.2 9.40117 210.2 8.20117V7.90088C210.2 7.16755 210.366 6.50088 210.7 5.90088C210.966 5.30088 211.366 4.83431 211.9 4.50098C212.433 4.16764 213.066 4.00098 213.8 4.00098C214.666 4.00098 215.4 4.26745 216 4.80078C216.6 5.33411 216.9 6.03421 216.9 6.90088H215.6C215.6 6.36755 215.4 5.93441 215 5.60107C214.666 5.26774 214.266 5.10107 213.8 5.10107C213.066 5.10107 212.533 5.36755 212.2 5.90088C211.8 6.36755 211.6 7.06764 211.6 8.00098V8.30078C211.6 9.16745 211.8 9.86755 212.2 10.4009C212.533 10.8675 213.066 11.1011 213.8 11.1011ZM219.8 0.800781V5.10107C220.4 4.36774 221.166 4.00098 222.1 4.00098C223.766 4.00098 224.633 4.93411 224.7 6.80078V12.1011H223.3V6.80078C223.3 6.26745 223.166 5.86774 222.9 5.60107C222.633 5.26774 222.233 5.10107 221.7 5.10107C221.3 5.10107 220.933 5.23431 220.6 5.50098C220.266 5.70098 220 6.00088 219.8 6.40088V12.1011H218.4V0.800781H219.8ZM228.2 4.10107V12.1011H226.9V4.10107H228.2ZM226.7 2.00098C226.7 1.80098 226.766 1.63431 226.9 1.50098C227.033 1.36764 227.233 1.30078 227.5 1.30078C227.766 1.30078 227.966 1.36764 228.1 1.50098C228.233 1.63431 228.3 1.80098 228.3 2.00098C228.3 2.26764 228.233 2.46774 228.1 2.60107C227.966 2.73441 227.766 2.80078 227.5 2.80078C227.233 2.80078 227.033 2.73441 226.9 2.60107C226.766 2.46774 226.7 2.26764 226.7 2.00098ZM231.8 0.800781V12.1011H230.4V0.800781H231.8ZM240.3 12.1011H238.9C238.833 11.9011 238.766 11.6012 238.7 11.2012C238.1 11.8678 237.366 12.2012 236.5 12.2012C235.7 12.2012 235.033 11.9676 234.5 11.501C234.033 11.101 233.8 10.5675 233.8 9.90088C233.8 9.03421 234.1 8.36755 234.7 7.90088C235.366 7.50088 236.266 7.30078 237.4 7.30078H238.7V6.60107C238.7 6.13441 238.566 5.76764 238.3 5.50098C237.966 5.23431 237.533 5.10107 237 5.10107C236.533 5.10107 236.133 5.20088 235.8 5.40088C235.466 5.66755 235.3 5.96745 235.3 6.30078H233.9C233.9 5.90078 234.066 5.53451 234.4 5.20117C234.666 4.80117 235.033 4.50078 235.5 4.30078C235.966 4.10078 236.5 4.00098 237.1 4.00098C238.033 4.00098 238.733 4.23451 239.2 4.70117C239.733 5.16784 240 5.80107 240 6.60107V10.2012C240 10.9345 240.1 11.5009 240.3 11.9009V12.1011ZM236.7 11.1011C237.1 11.1011 237.5 11.0008 237.9 10.8008C238.233 10.6008 238.5 10.3009 238.7 9.90088V8.30078H237.6C235.933 8.30078 235.1 8.80078 235.1 9.80078C235.1 10.2008 235.266 10.5341 235.6 10.8008C235.866 11.0008 236.233 11.1011 236.7 11.1011ZM246 4.20117V5.40088C245.8 5.40088 245.566 5.40088 245.3 5.40088C244.433 5.40088 243.833 5.76764 243.5 6.50098V12.1011H242.2V4.20117H243.5V5.10107C243.966 4.43441 244.6 4.10107 245.4 4.10107C245.666 4.10107 245.866 4.13451 246 4.20117ZM246.8 8.10107C246.8 6.90107 247.066 5.93451 247.6 5.20117C248.2 4.46784 248.966 4.10107 249.9 4.10107C250.9 4.10107 251.666 4.43441 252.2 5.10107V4.20117H253.5V12.001C253.5 13.001 253.2 13.8009 252.6 14.4009C252 15.0009 251.166 15.3008 250.1 15.3008C249.566 15.3008 249 15.1675 248.4 14.9009C247.866 14.6342 247.466 14.3009 247.2 13.9009L247.9 13.1011C248.5 13.8344 249.2 14.2012 250 14.2012C250.666 14.2012 251.2 14.0011 251.6 13.6011C251.933 13.2011 252.1 12.6676 252.1 12.001V11.4009C251.566 12.0009 250.833 12.3008 249.9 12.3008C248.966 12.3008 248.2 11.9345 247.6 11.2012C247.066 10.4678 246.8 9.43441 246.8 8.10107ZM248.1 8.30078C248.1 9.16745 248.3 9.86755 248.7 10.4009C249.033 10.8675 249.533 11.1011 250.2 11.1011C251.066 11.1011 251.7 10.7343 252.1 10.001V6.40088C251.7 5.60088 251.1 5.20117 250.3 5.20117C249.633 5.20117 249.1 5.46764 248.7 6.00098C248.3 6.53431 248.1 7.30078 248.1 8.30078ZM261.8 12.1011H260.4C260.333 11.9677 260.267 11.7008 260.2 11.3008C259.6 11.9674 258.866 12.3008 258 12.3008C257.2 12.3008 256.533 12.0677 256 11.6011C255.533 11.2011 255.3 10.6342 255.3 9.90088C255.3 9.10088 255.6 8.46764 256.2 8.00098C256.866 7.53431 257.766 7.30078 258.9 7.30078H260.2V6.70117C260.2 6.23451 260.066 5.86774 259.8 5.60107C259.533 5.33441 259.1 5.20117 258.5 5.20117C258.033 5.20117 257.633 5.30098 257.3 5.50098C256.966 5.76764 256.8 6.06755 256.8 6.40088H255.5C255.5 6.00088 255.633 5.63411 255.9 5.30078C256.166 4.90078 256.533 4.60088 257 4.40088C257.466 4.20088 258 4.10107 258.6 4.10107C259.533 4.10107 260.266 4.33411 260.8 4.80078C261.266 5.20078 261.533 5.80107 261.6 6.60107V10.3008C261.6 11.0341 261.666 11.601 261.8 12.001V12.1011ZM258.2 11.1011C258.6 11.1011 259 11.0008 259.4 10.8008C259.733 10.5341 260 10.2342 260.2 9.90088V8.30078H259.1C257.5 8.30078 256.7 8.76784 256.7 9.70117C256.7 10.1678 256.833 10.5012 257.1 10.7012C257.366 10.9678 257.733 11.1011 258.2 11.1011ZM267.4 4.20117H268.7V5.10107C269.3 4.43441 270.1 4.10107 271.1 4.10107C272.166 4.10107 272.9 4.50078 273.3 5.30078C273.566 4.96745 273.9 4.66755 274.3 4.40088C274.766 4.20088 275.266 4.10107 275.8 4.10107C277.6 4.10107 278.5 5.00078 278.5 6.80078V12.1011H277.1V6.90088C277.1 6.30088 277 5.86774 276.8 5.60107C276.533 5.33441 276.1 5.20117 275.5 5.20117C274.966 5.20117 274.533 5.36784 274.2 5.70117C273.866 5.96784 273.666 6.36755 273.6 6.90088V12.1011H272.3V6.90088C272.3 5.76755 271.733 5.20117 270.6 5.20117C269.666 5.20117 269.033 5.56745 268.7 6.30078V12.1011H267.4V4.20117ZM280.2 8.20117V8.10107C280.2 7.36774 280.333 6.66764 280.6 6.00098C280.933 5.40098 281.366 4.93441 281.9 4.60107C282.433 4.26774 283.066 4.10107 283.8 4.10107C284.866 4.10107 285.733 4.46784 286.4 5.20117C287.066 5.93451 287.4 6.93451 287.4 8.20117V8.30078C287.4 9.03411 287.266 9.73421 287 10.4009C286.666 11.0009 286.233 11.4674 285.7 11.8008C285.167 12.1341 284.533 12.3008 283.8 12.3008C282.733 12.3008 281.866 11.9345 281.2 11.2012C280.533 10.4678 280.2 9.46784 280.2 8.20117ZM281.5 8.30078C281.5 9.16745 281.733 9.86755 282.2 10.4009C282.6 10.9342 283.133 11.2012 283.8 11.2012C284.466 11.2012 285 10.9342 285.4 10.4009C285.8 9.86755 286 9.10107 286 8.10107C286 7.23441 285.8 6.53431 285.4 6.00098C285 5.46764 284.466 5.20117 283.8 5.20117C283.133 5.20117 282.6 5.46764 282.2 6.00098C281.733 6.53431 281.5 7.30078 281.5 8.30078ZM293.7 10.1011C293.7 9.70107 293.566 9.40117 293.3 9.20117C293.033 9.00117 292.566 8.83451 291.9 8.70117C291.166 8.56784 290.6 8.36774 290.2 8.10107C289.8 7.90107 289.5 7.66755 289.3 7.40088C289.1 7.13421 289 6.80088 289 6.40088C289 5.73421 289.3 5.20078 289.9 4.80078C290.433 4.33411 291.133 4.10107 292 4.10107C292.866 4.10107 293.6 4.33411 294.2 4.80078C294.733 5.26745 295 5.86774 295 6.60107H293.6C293.6 6.20107 293.466 5.86774 293.2 5.60107C292.866 5.33441 292.466 5.20117 292 5.20117C291.466 5.20117 291.066 5.30098 290.8 5.50098C290.533 5.70098 290.4 6.00088 290.4 6.40088C290.4 6.73421 290.533 6.96774 290.8 7.10107C291.066 7.23441 291.533 7.40107 292.2 7.60107C292.866 7.73441 293.4 7.90107 293.8 8.10107C294.266 8.30107 294.6 8.56755 294.8 8.90088C295 9.16755 295.1 9.53431 295.1 10.001C295.1 10.6676 294.8 11.2345 294.2 11.7012C293.667 12.1012 292.933 12.3008 292 12.3008C291.4 12.3008 290.833 12.201 290.3 12.001C289.833 11.7343 289.466 11.401 289.2 11.001C288.933 10.601 288.8 10.1678 288.8 9.70117H290.1C290.166 10.1678 290.366 10.5341 290.7 10.8008C291.033 11.0674 291.466 11.2012 292 11.2012C292.533 11.2012 292.933 11.1009 293.2 10.9009C293.533 10.7009 293.7 10.4344 293.7 10.1011Z" fill="#777777"/>
</svg>
