<svg width="239" height="26" viewBox="0 0 239 26" fill="none" xmlns="http://www.w3.org/2000/svg">
<path d="M10.3003 10.4V13.7H15.0002C14.8669 14.1 14.6669 14.5 14.4003 14.9C14.1336 15.3 13.8003 15.6667 13.4003 16C13.0669 16.2667 12.6336 16.5 12.1002 16.7C11.5669 16.8333 11.0003 16.9 10.4003 16.9C9.3336 16.9 8.40022 16.6666 7.60022 16.2C6.86689 15.7333 6.26696 15.0666 5.80029 14.2C5.33363 13.4 5.10022 12.4 5.10022 11.2C5.10022 10.0666 5.33363 9.10005 5.80029 8.30005C6.26696 7.50005 6.9002 6.86669 7.7002 6.40002C8.5002 6.00002 9.40027 5.80005 10.4003 5.80005C11.4003 5.80005 12.2336 6.03333 12.9003 6.5C13.5669 6.9 14.1002 7.46662 14.5002 8.19995L18.3003 6.19995C17.767 5.39995 17.1003 4.69998 16.3003 4.09998C15.567 3.49998 14.7002 2.99998 13.7002 2.59998C12.7002 2.26664 11.6003 2.09998 10.4003 2.09998C9.00027 2.09998 7.70024 2.29995 6.50024 2.69995C5.36691 3.16662 4.3336 3.79998 3.40027 4.59998C2.5336 5.39998 1.86694 6.36667 1.40027 7.5C0.933602 8.63333 0.700195 9.86662 0.700195 11.2C0.700195 12.6 0.933602 13.8667 1.40027 15C1.86694 16.1333 2.5336 17.1333 3.40027 18C4.20027 18.8 5.20027 19.4334 6.40027 19.9C7.5336 20.3 8.8002 20.5 10.2002 20.5C11.7335 20.5 13.0669 20.2667 14.2002 19.8C15.3335 19.2667 16.3002 18.5333 17.1002 17.6C17.8336 16.6666 18.4003 15.5667 18.8003 14.3C19.1336 13.1 19.2669 11.8 19.2002 10.4H10.3003ZM27.4003 20.2C28.8669 20.2 30.1335 19.9334 31.2002 19.4C32.2002 18.8 33.0002 17.9334 33.6002 16.8L30.2002 16C29.9335 16.5333 29.5669 16.9 29.1002 17.1C28.6336 17.3666 28.0669 17.5 27.4003 17.5C26.8003 17.5 26.3003 17.3666 25.9003 17.1C25.5003 16.8333 25.2002 16.4667 25.0002 16C24.8002 15.4667 24.7002 14.8666 24.7002 14.2C24.7002 13.4 24.8002 12.7667 25.0002 12.3C25.2002 11.7667 25.5003 11.3666 25.9003 11.1C26.3003 10.9 26.767 10.8 27.3003 10.8C27.767 10.8 28.1669 10.9 28.5002 11.1C28.8336 11.3 29.1003 11.5667 29.3003 11.9C29.4336 12.3 29.5002 12.7333 29.5002 13.2C29.5002 13.3333 29.4669 13.5 29.4003 13.7C29.4003 13.8333 29.3335 13.9666 29.2002 14.1L30.1002 12.9H23.0002V15H33.5002C33.5669 14.9333 33.6002 14.8 33.6002 14.6C33.6002 14.4 33.6002 14.2333 33.6002 14.1C33.6002 12.8333 33.3669 11.7667 32.9003 10.9C32.3669 10.0334 31.667 9.36669 30.8003 8.90002C29.867 8.43336 28.7336 8.19995 27.4003 8.19995C26.0669 8.19995 24.9003 8.46667 23.9003 9C22.9669 9.46667 22.2335 10.1333 21.7002 11C21.1669 11.9333 20.9003 13 20.9003 14.2C20.9003 15.4666 21.1669 16.5334 21.7002 17.4C22.2335 18.3334 23.0002 19.0333 24.0002 19.5C24.9336 19.9667 26.0669 20.2 27.4003 20.2ZM43.4003 13V20H47.3003V12.6C47.3003 11.2 46.967 10.1334 46.3003 9.40002C45.7003 8.60002 44.6669 8.19995 43.2002 8.19995C42.3335 8.19995 41.6336 8.36662 41.1002 8.69995C40.5002 9.09995 40.0335 9.59995 39.7002 10.2V8.5H35.9003V20H39.7002V13C39.7002 12.5333 39.8002 12.1334 40.0002 11.8C40.1336 11.5334 40.3669 11.3 40.7002 11.1C40.9669 10.9666 41.3002 10.9 41.7002 10.9C42.3002 10.9 42.7336 11.0667 43.0002 11.4C43.2669 11.8 43.4003 12.3333 43.4003 13ZM48.9003 12.4V15.7H54.2002V12.4H48.9003ZM59.6002 0.5H55.8003V20H59.6002V0.5ZM73.3003 16.5V20H82.1002V16.5H73.3003ZM73.3003 2.5V6H82.1002V2.5H73.3003ZM73.3003 9.09998V12.5H81.6002V9.09998H73.3003ZM74.6002 2.5H70.5002V20H74.6002V2.5ZM92.7002 13V20H96.6002V12.6C96.6002 11.2 96.3002 10.1334 95.7002 9.40002C95.0335 8.60002 93.9669 8.19995 92.5002 8.19995C91.7002 8.19995 91.0003 8.36662 90.4003 8.69995C89.8003 9.09995 89.3336 9.59995 89.0002 10.2V8.5H85.2002V20H89.0002V13C89.0002 12.5333 89.1003 12.1334 89.3003 11.8C89.4336 11.5334 89.6669 11.3 90.0002 11.1C90.2669 10.9666 90.6002 10.9 91.0002 10.9C91.6002 10.9 92.0336 11.0667 92.3003 11.4C92.567 11.8 92.7002 12.3333 92.7002 13ZM102.8 20.8H99.2002C99.2669 21.8 99.5336 22.7 100 23.5C100.467 24.3 101.167 24.9 102.1 25.3C103.034 25.7667 104.2 26 105.6 26C106.8 26 107.867 25.7667 108.8 25.3C109.734 24.9 110.5 24.2334 111.1 23.3C111.7 22.3667 112 21.1666 112 19.7V8.5H108.3V19.7C108.3 20.4333 108.167 21.0333 107.9 21.5C107.7 21.9667 107.367 22.3333 106.9 22.6C106.5 22.8 106.034 22.9 105.5 22.9C104.967 22.9 104.534 22.8333 104.2 22.7C103.8 22.5666 103.467 22.3333 103.2 22C103 21.6667 102.867 21.2667 102.8 20.8ZM98.9003 14.1C98.9003 15.3666 99.1669 16.4334 99.7002 17.3C100.234 18.1667 100.934 18.8334 101.8 19.3C102.6 19.7 103.467 19.9 104.4 19.9C105.4 19.9 106.267 19.7 107 19.3C107.734 18.8334 108.3 18.1667 108.7 17.3C109.167 16.3667 109.4 15.3 109.4 14.1C109.4 12.8333 109.167 11.7667 108.7 10.9C108.3 10.0334 107.734 9.36669 107 8.90002C106.267 8.43336 105.4 8.19995 104.4 8.19995C103.467 8.19995 102.6 8.43336 101.8 8.90002C100.934 9.30002 100.234 9.93338 99.7002 10.8C99.1669 11.7334 98.9003 12.8333 98.9003 14.1ZM102.9 14.1C102.9 13.5 103.034 13 103.3 12.6C103.567 12.1333 103.9 11.8 104.3 11.6C104.7 11.4 105.167 11.3 105.7 11.3C105.967 11.3 106.267 11.3667 106.6 11.5C106.934 11.6333 107.234 11.8 107.5 12C107.767 12.2 107.967 12.5 108.1 12.9C108.234 13.2334 108.3 13.6333 108.3 14.1C108.3 14.7 108.167 15.2333 107.9 15.7C107.634 16.1 107.3 16.4 106.9 16.6C106.5 16.8 106.1 16.9 105.7 16.9C105.167 16.9 104.7 16.8 104.3 16.6C103.9 16.3333 103.567 16 103.3 15.6C103.034 15.2 102.9 14.7 102.9 14.1ZM118.7 0.5H114.9V20H118.7V0.5ZM121.4 4.19995C121.4 4.79995 121.6 5.26664 122 5.59998C122.467 5.99998 123 6.19995 123.6 6.19995C124.2 6.19995 124.7 6.03328 125.1 5.69995C125.567 5.29995 125.8 4.79995 125.8 4.19995C125.8 3.59995 125.567 3.09995 125.1 2.69995C124.7 2.36662 124.2 2.19995 123.6 2.19995C123 2.19995 122.467 2.36662 122 2.69995C121.6 3.09995 121.4 3.59995 121.4 4.19995ZM125.4 8.5H121.8V20H125.4V8.5ZM129.1 15.8L127.6 18.3C128.067 18.7 128.6 19.0667 129.2 19.4C129.8 19.7334 130.467 20 131.2 20.2C131.934 20.4 132.7 20.5 133.5 20.5C134.9 20.5 135.967 20.1667 136.7 19.5C137.434 18.9 137.8 17.9666 137.8 16.7C137.8 16.0333 137.667 15.4667 137.4 15C137.067 14.6 136.634 14.2334 136.1 13.9C135.634 13.6334 135.1 13.4 134.5 13.2C133.9 13 133.4 12.8333 133 12.7C132.667 12.5 132.367 12.3333 132.1 12.2C131.9 12 131.8 11.8 131.8 11.6C131.8 11.3333 131.9 11.1333 132.1 11C132.3 10.8667 132.567 10.8 132.9 10.8C133.434 10.8 134 10.9667 134.6 11.3C135.2 11.5667 135.734 11.9334 136.2 12.4L137.6 9.90002C137.134 9.56669 136.634 9.29998 136.1 9.09998C135.634 8.83331 135.1 8.63333 134.5 8.5C133.967 8.3 133.367 8.19995 132.7 8.19995C131.834 8.19995 131.067 8.33331 130.4 8.59998C129.8 8.86664 129.3 9.23328 128.9 9.69995C128.567 10.1666 128.4 10.7667 128.4 11.5C128.4 12.2333 128.534 12.8334 128.8 13.3C129.134 13.7667 129.534 14.1334 130 14.4C130.534 14.6667 131.067 14.9 131.6 15.1C132.2 15.3 132.7 15.4666 133.1 15.6C133.434 15.8 133.667 16 133.8 16.2C134 16.3333 134.1 16.5334 134.1 16.8C134.1 17.0667 134 17.2667 133.8 17.4C133.6 17.6 133.3 17.7 132.9 17.7C132.634 17.7 132.334 17.6333 132 17.5C131.6 17.4333 131.167 17.2667 130.7 17C130.234 16.6667 129.7 16.2667 129.1 15.8ZM143.7 20V0.5H139.9V20H143.7ZM147.4 13V20H151.2V12.4C151.2 11.4667 151.067 10.6667 150.8 10C150.534 9.4 150.1 8.93331 149.5 8.59998C148.9 8.26664 148.134 8.09998 147.2 8.09998C146.267 8.09998 145.5 8.29995 144.9 8.69995C144.3 9.16662 143.834 9.76667 143.5 10.5C143.234 11.2333 143.1 12.0667 143.1 13H143.7C143.7 12.5333 143.8 12.1667 144 11.9C144.134 11.5667 144.367 11.3 144.7 11.1C144.967 10.9666 145.3 10.9 145.7 10.9C146.3 10.9 146.734 11.0667 147 11.4C147.267 11.8 147.4 12.3333 147.4 13ZM168.3 0.5H164.9C163.9 2.36667 163.134 4.33336 162.6 6.40002C162.067 8.46669 161.8 10.5666 161.8 12.7C161.8 14.8333 162.067 16.9333 162.6 19C163.134 21.1333 163.9 23.1333 164.9 25H168.3C167.434 23.1333 166.767 21.1333 166.3 19C165.834 16.9333 165.6 14.8333 165.6 12.7C165.6 10.5666 165.834 8.46669 166.3 6.40002C166.767 4.33336 167.434 2.36667 168.3 0.5ZM174.1 11.2C174.1 10.1333 174.334 9.23333 174.8 8.5C175.334 7.7 175.967 7.09995 176.7 6.69995C177.5 6.29995 178.4 6.09998 179.4 6.09998C180.2 6.09998 180.934 6.20002 181.6 6.40002C182.2 6.60002 182.767 6.90005 183.3 7.30005C183.767 7.63338 184.2 8.00002 184.6 8.40002V3.90002C183.867 3.30002 183.1 2.86664 182.3 2.59998C181.434 2.26664 180.367 2.09998 179.1 2.09998C177.7 2.09998 176.4 2.29995 175.2 2.69995C174.067 3.16662 173.067 3.79998 172.2 4.59998C171.334 5.39998 170.667 6.36667 170.2 7.5C169.734 8.63333 169.5 9.86662 169.5 11.2C169.5 12.6 169.734 13.8667 170.2 15C170.667 16.1333 171.334 17.1 172.2 17.9C173.067 18.7 174.067 19.3 175.2 19.7C176.4 20.1666 177.7 20.4 179.1 20.4C180.367 20.4 181.434 20.2334 182.3 19.9C183.1 19.5667 183.867 19.1333 184.6 18.6V14.1C184.2 14.5 183.767 14.8666 183.3 15.2C182.767 15.5333 182.2 15.8 181.6 16C180.934 16.2667 180.2 16.4 179.4 16.4C178.4 16.4 177.5 16.2 176.7 15.8C175.967 15.4 175.334 14.8 174.8 14C174.334 13.2 174.1 12.2666 174.1 11.2ZM190.8 16.5V20H199.7V16.5H190.8ZM190.8 2.5V6H199.6V2.5H190.8ZM190.8 9.09998V12.5H199.1V9.09998H190.8ZM192.1 2.5H188V20H192.1V2.5ZM205.9 2.5V6.09998H213.7V2.5H205.9ZM205.9 9.59998V13H213.5V9.59998H205.9ZM207.1 2.5H203.1V20H207.1V2.5ZM225.7 12.1H221.3L226.2 20H231.1L225.7 12.1ZM221.2 2.5H217V20H221.2V2.5ZM219.6 2.5V6.09998H223.1C223.634 6.09998 224.1 6.20002 224.5 6.40002C224.9 6.53336 225.234 6.79995 225.5 7.19995C225.7 7.53328 225.8 7.93336 225.8 8.40002C225.8 8.86669 225.7 9.26664 225.5 9.59998C225.234 9.93331 224.9 10.2 224.5 10.4C224.1 10.6 223.634 10.7 223.1 10.7H219.6V13.9H223.4C224.867 13.9 226.1 13.6666 227.1 13.2C228.1 12.7333 228.867 12.0666 229.4 11.2C229.934 10.3333 230.2 9.33328 230.2 8.19995C230.2 7.06662 229.934 6.10005 229.4 5.30005C228.867 4.43338 228.1 3.73328 227.1 3.19995C226.1 2.73328 224.867 2.5 223.4 2.5H219.6ZM231.6 25H235C236 23.1333 236.767 21.1666 237.3 19.1C237.834 16.9666 238.1 14.8667 238.1 12.8C238.1 10.6667 237.834 8.53336 237.3 6.40002C236.767 4.33336 236 2.36667 235 0.5H231.6C232.467 2.36667 233.134 4.33336 233.6 6.40002C234.067 8.53336 234.3 10.6667 234.3 12.8C234.3 14.8667 234.067 16.9666 233.6 19.1C233.134 21.1666 232.467 23.1333 231.6 25Z" fill="#202020"/>
</svg>
