<svg width="463" height="171" viewBox="0 0 563 171" fill="none" xmlns="http://www.w3.org/2000/svg">
    <path d="M21.5002 6.9996H5.7002V62.9996H21.5002V6.9996ZM43.6002 50.3996V62.9996H71.9002V50.3996H43.6002ZM43.6002 6.9996V19.5996H71.8002V6.9996H43.6002ZM43.6002 27.7996V39.9996H70.2002V27.7996H43.6002ZM48.0002 6.9996H33.1002V62.9996H48.0002V6.9996ZM98.1002 6.9996H82.6002V62.9996H120.8V49.7996H98.1002V6.9996ZM115.5 6.9996V20.7996H131.2V62.9996H146.7V20.7996H162.4V6.9996H115.5ZM175.6 42.4996L165.1 50.1996C166.3 52.9996 168.1 55.5329 170.5 57.7996C172.9 60.0663 175.734 61.8663 179 63.1996C182.267 64.4663 185.834 65.0996 189.7 65.0996C192.434 65.0996 195.1 64.7329 197.7 63.9996C200.3 63.1996 202.634 62.0329 204.7 60.4996C206.767 58.9663 208.367 57.0663 209.5 54.7996C210.767 52.4663 211.4 49.7996 211.4 46.7996C211.4 44.5996 211.034 42.5996 210.3 40.7996C209.633 38.9329 208.667 37.3329 207.4 35.9996C206.134 34.5329 204.6 33.2996 202.8 32.2996C201.133 31.2329 199.233 30.3329 197.1 29.5996C194.7 28.7329 192.567 27.9329 190.7 27.1996C188.9 26.4663 187.467 25.6996 186.4 24.8996C185.4 24.0329 184.9 22.9996 184.9 21.7996C184.9 20.7329 185.367 19.8663 186.3 19.1996C187.167 18.5996 188.367 18.2996 189.9 18.2996C191.167 18.2996 192.367 18.5329 193.5 18.9996C194.7 19.4663 195.8 20.1663 196.8 21.0996C197.867 21.9663 198.8 23.0663 199.6 24.3996L211.3 17.8996C210.3 15.9663 208.867 14.0663 207 12.1996C205.134 10.2663 202.767 8.6996 199.9 7.4996C196.967 6.23294 193.533 5.59961 189.6 5.59961C185.8 5.59961 182.367 6.23294 179.3 7.4996C176.234 8.76627 173.767 10.6329 171.9 13.0996C170.034 15.4996 169.1 18.4663 169.1 21.9996C169.1 24.7329 169.6 27.1329 170.6 29.1996C171.667 31.1996 172.967 32.8996 174.5 34.2996C176.1 35.6996 177.767 36.8329 179.5 37.6996C181.167 38.5663 182.7 39.2663 184.1 39.7996C186.9 40.8663 189.1 41.7663 190.7 42.4996C192.3 43.2329 193.4 43.9996 194 44.7996C194.667 45.4663 195 46.3329 195 47.3996C195 48.8663 194.434 49.9996 193.3 50.7996C192.167 51.5996 190.767 51.9996 189.1 51.9996C187.3 51.9996 185.567 51.5996 183.9 50.7996C182.3 50.0663 180.8 48.9996 179.4 47.5996C178 46.1996 176.733 44.4996 175.6 42.4996Z" fill="#F5091A"/>
    <path d="M252.7 26.1996H238L260.4 67.6996L282.9 26.1996H268.3L260.4 44.9996L252.7 26.1996ZM298.3 51.4996C298.3 50.6996 298.467 50.0663 298.8 49.5996C299.134 49.0663 299.667 48.6663 300.4 48.3996C301.134 48.1329 302.134 47.9996 303.4 47.9996C305.134 47.9996 306.8 48.2329 308.4 48.6996C310 49.1663 311.334 49.8663 312.4 50.7996V44.8996C311.734 44.1663 310.7 43.4996 309.3 42.8996C307.967 42.2996 306.4 41.7996 304.6 41.3996C302.8 40.9996 300.9 40.7996 298.9 40.7996C294.167 40.7996 290.567 41.8329 288.1 43.8996C285.634 45.8996 284.4 48.6663 284.4 52.1996C284.4 54.7329 285 56.8663 286.2 58.5996C287.467 60.3329 289.067 61.6329 291 62.4996C293.067 63.3663 295.267 63.7996 297.6 63.7996C300.067 63.7996 302.3 63.3663 304.3 62.4996C306.367 61.6329 308 60.3996 309.2 58.7996C310.4 57.1329 311 55.1329 311 52.7996L309.8 47.9996C309.8 49.5996 309.434 50.9663 308.7 52.0996C308.1 53.1663 307.267 53.9663 306.2 54.4996C305.134 54.9663 304 55.1996 302.8 55.1996C302 55.1996 301.267 55.0663 300.6 54.7996C299.867 54.5329 299.3 54.1329 298.9 53.5996C298.5 52.9996 298.3 52.2996 298.3 51.4996ZM287.2 29.1996L291.6 38.2996C292.067 38.0329 292.934 37.6663 294.2 37.1996C295.4 36.6663 296.8 36.2329 298.4 35.8996C300.067 35.4996 301.667 35.2996 303.2 35.2996C304.334 35.2996 305.334 35.4329 306.2 35.6996C307 35.8996 307.667 36.2663 308.2 36.7996C308.734 37.1996 309.134 37.7329 309.4 38.3996C309.667 38.9996 309.8 39.6996 309.8 40.4996V62.9996H323V37.1996C323 34.5996 322.2 32.3996 320.6 30.5996C319 28.7996 316.867 27.4329 314.2 26.4996C311.534 25.5663 308.5 25.0996 305.1 25.0996C301.634 25.0996 298.367 25.5329 295.3 26.3996C292.234 27.2663 289.534 28.1996 287.2 29.1996ZM372.7 6.9996H356.9V62.9996H372.7V6.9996ZM406.8 40.5996V62.9996H421.3V39.1996C421.3 34.7996 420.267 31.3996 418.2 28.9996C416.2 26.5329 412.8 25.2996 408 25.2996C405.2 25.2996 402.867 25.8996 401 27.0996C399.134 28.2329 397.7 29.7329 396.7 31.5996V26.1996H382.9V62.9996H396.7V40.5996C396.7 39.2663 396.934 38.1329 397.4 37.1996C397.867 36.333 398.5 35.6663 399.3 35.1996C400.167 34.7996 401.134 34.5996 402.2 34.5996C404 34.5996 405.2 35.1329 405.8 36.1996C406.467 37.1996 406.8 38.6663 406.8 40.5996ZM442.2 65.6996H429C429.334 68.9663 430.267 71.8663 431.8 74.3996C433.267 76.9329 435.5 78.8996 438.5 80.2996C441.5 81.6996 445.434 82.3996 450.3 82.3996C454.234 82.3996 457.767 81.7329 460.9 80.3996C464.034 79.0663 466.534 76.9329 468.4 73.9996C470.267 70.9996 471.2 67.0663 471.2 62.1996V26.1996H458V62.1996C458 64.1996 457.634 65.8996 456.9 67.2996C456.167 68.6996 455.167 69.7663 453.9 70.4996C452.7 71.2329 451.267 71.5996 449.6 71.5996C448.334 71.5996 447.167 71.3996 446.1 70.9996C445.034 70.5996 444.167 69.9996 443.5 69.1996C442.9 68.3329 442.467 67.1663 442.2 65.6996ZM428.2 43.9996C428.2 48.1329 429 51.5996 430.6 54.3996C432.334 57.0663 434.5 59.0996 437.1 60.4996C439.767 61.8329 442.534 62.4996 445.4 62.4996C448.534 62.4996 451.3 61.7996 453.7 60.3996C456.1 58.9329 458 56.7996 459.4 53.9996C460.8 51.2663 461.5 47.9329 461.5 43.9996C461.5 39.9996 460.8 36.6329 459.4 33.8996C458 31.0996 456.1 28.9996 453.7 27.5996C451.3 26.1329 448.534 25.3996 445.4 25.3996C442.534 25.3996 439.767 26.0996 437.1 27.4996C434.5 28.8329 432.334 30.8663 430.6 33.5996C429 36.2663 428.2 39.7329 428.2 43.9996ZM442.7 43.9996C442.7 42.3329 443.067 40.9329 443.8 39.7996C444.467 38.5996 445.4 37.7329 446.6 37.1996C447.734 36.5996 449 36.2996 450.4 36.2996C451.334 36.2996 452.234 36.4663 453.1 36.7996C454.034 37.0663 454.867 37.4996 455.6 38.0996C456.334 38.7663 456.934 39.5663 457.4 40.4996C457.8 41.4996 458 42.6663 458 43.9996C458 45.7329 457.634 47.1663 456.9 48.2996C456.167 49.4329 455.2 50.2663 454 50.7996C452.8 51.3329 451.6 51.5996 450.4 51.5996C449 51.5996 447.734 51.3329 446.6 50.7996C445.4 50.1996 444.467 49.2996 443.8 48.0996C443.067 46.9663 442.7 45.5996 442.7 43.9996ZM493.7 0.599609H479.8V62.9996H493.7V0.599609ZM501.4 12.7996C501.4 14.9329 502.167 16.6663 503.7 17.9996C505.234 19.3329 507.067 19.9996 509.2 19.9996C511.4 19.9996 513.234 19.3329 514.7 17.9996C516.234 16.6663 517 14.9329 517 12.7996C517 10.6663 516.234 8.93294 514.7 7.59961C513.234 6.26628 511.4 5.59961 509.2 5.59961C507.067 5.59961 505.234 6.26628 503.7 7.59961C502.167 8.93294 501.4 10.6663 501.4 12.7996ZM515.8 26.1996H502.6V62.9996H515.8V26.1996ZM525.4 38.6996H540L521.7 62.9996H559.7V50.4996H545.5L562.6 26.1996H525.4V38.6996ZM26.9004 116.2H0.400391V127.4H26.9004V116.2ZM20.2004 103.4H7.0004V153H20.2004V103.4ZM30.7004 102.9C30.7004 104.966 31.4671 106.666 33.0004 108C34.5337 109.333 36.3671 110 38.5004 110C40.7004 110 42.5337 109.333 44.0004 108C45.5337 106.666 46.3004 104.966 46.3004 102.9C46.3004 100.766 45.5337 99.033 44.0004 97.6996C42.5337 96.3663 40.7004 95.6996 38.5004 95.6996C36.3671 95.6996 34.5337 96.3663 33.0004 97.6996C31.4671 99.033 30.7004 100.766 30.7004 102.9ZM45.1004 116.2H31.8004V153H45.1004V116.2ZM68.0004 90.5996H54.2004V153H68.0004V90.5996ZM75.8004 102.9C75.8004 104.966 76.5337 106.666 78.0004 108C79.5337 109.333 81.3671 110 83.5004 110C85.7004 110 87.5337 109.333 89.0004 108C90.6004 106.666 91.4004 104.966 91.4004 102.9C91.4004 100.766 90.6004 99.033 89.0004 97.6996C87.5337 96.3663 85.7004 95.6996 83.5004 95.6996C81.3671 95.6996 79.5337 96.3663 78.0004 97.6996C76.5337 99.033 75.8004 100.766 75.8004 102.9ZM90.2004 116.2H76.9004V153H90.2004V116.2ZM145 127.9L120.4 153H170.2V138.9H148.7L160.3 129.1C162.834 127.1 164.834 124.866 166.3 122.4C167.834 119.933 168.6 117.166 168.6 114.1C168.6 111.833 168.1 109.633 167.1 107.5C166.167 105.3 164.734 103.333 162.8 101.6C160.934 99.7996 158.6 98.3996 155.8 97.3996C153.067 96.333 149.9 95.7996 146.3 95.7996C141.167 95.7996 136.867 96.833 133.4 98.8996C129.934 100.966 127.3 103.7 125.5 107.1C123.834 110.433 123 114.1 123 118.1H138.2C138.2 116.366 138.467 114.8 139 113.4C139.667 112 140.6 110.933 141.8 110.2C142.934 109.4 144.267 109 145.8 109C146.934 109 147.9 109.2 148.7 109.6C149.567 109.933 150.3 110.366 150.9 110.9C151.5 111.433 151.934 112.1 152.2 112.9C152.467 113.633 152.6 114.4 152.6 115.2C152.6 116.6 152.267 117.966 151.6 119.3C151 120.633 150.134 121.966 149 123.3C147.867 124.633 146.534 126.166 145 127.9ZM217.8 116.2H202.5L196.2 124.9L190.1 116.2H174.2L189 134.1L173.4 153H189.3L196.2 143.3L203.3 153H218.6L203.2 134.1L217.8 116.2ZM269.5 116.2H243V127.4H269.5V116.2ZM262.8 103.4H249.6V153H262.8V103.4ZM294.3 153.8C299.167 153.8 303.3 152.866 306.7 151C310.1 149.133 312.8 146.333 314.8 142.6L302.3 140.1C301.5 141.5 300.367 142.566 298.9 143.3C297.5 143.966 295.8 144.3 293.8 144.3C292.134 144.3 290.734 143.933 289.6 143.2C288.534 142.4 287.7 141.266 287.1 139.8C286.5 138.4 286.234 136.666 286.3 134.6C286.3 132.2 286.567 130.266 287.1 128.8C287.634 127.266 288.434 126.133 289.5 125.4C290.567 124.6 291.9 124.2 293.5 124.2C294.767 124.2 295.867 124.5 296.8 125.1C297.734 125.633 298.434 126.433 298.9 127.5C299.434 128.5 299.7 129.766 299.7 131.3C299.7 131.633 299.6 132.066 299.4 132.6C299.2 133.133 298.967 133.633 298.7 134.1L301.6 130.4H280V137.5H314.3C314.367 137.033 314.4 136.5 314.4 135.9C314.4 135.3 314.4 134.666 314.4 134C314.4 130 313.6 126.633 312 123.9C310.4 121.166 308.1 119.066 305.1 117.6C302.034 116.133 298.267 115.4 293.8 115.4C289.334 115.4 285.5 116.2 282.3 117.8C279.1 119.333 276.634 121.533 274.9 124.4C273.234 127.2 272.4 130.6 272.4 134.6C272.4 138.6 273.267 142.033 275 144.9C276.734 147.7 279.234 149.9 282.5 151.5C285.834 153.033 289.767 153.8 294.3 153.8ZM320.8 128.7H335.5L317.2 153H355.2V140.6H341L358 116.2H320.8V128.7ZM377.2 153.1V116.3H363.6V153.1H377.2ZM387.7 130.4L393.5 118.5C392.9 117.566 392 116.833 390.8 116.3C389.534 115.633 388.234 115.3 386.9 115.3C384.767 115.3 382.734 116 380.8 117.4C378.867 118.733 377.3 120.533 376.1 122.8C374.967 125.133 374.4 127.766 374.4 130.7L377.2 136.2C377.2 134.4 377.467 132.933 378 131.8C378.534 130.6 379.234 129.7 380.1 129.1C381.034 128.566 382.034 128.3 383.1 128.3C384.167 128.3 385.034 128.5 385.7 128.9C386.434 129.3 387.1 129.8 387.7 130.4ZM395.2 134.7C395.2 138.566 396.134 141.933 398 144.8C399.867 147.666 402.4 149.9 405.6 151.5C408.934 153.1 412.667 153.9 416.8 153.9C420.934 153.9 424.634 153.1 427.9 151.5C431.167 149.9 433.734 147.666 435.6 144.8C437.467 141.933 438.4 138.566 438.4 134.7C438.4 130.7 437.467 127.266 435.6 124.4C433.734 121.533 431.167 119.333 427.9 117.8C424.634 116.2 420.934 115.4 416.8 115.4C412.667 115.4 408.934 116.2 405.6 117.8C402.4 119.333 399.867 121.533 398 124.4C396.134 127.266 395.2 130.7 395.2 134.7ZM409.4 134.7C409.4 132.966 409.734 131.5 410.4 130.3C411.067 129.1 411.967 128.166 413.1 127.5C414.234 126.9 415.467 126.6 416.8 126.6C418.134 126.6 419.334 126.9 420.4 127.5C421.534 128.166 422.467 129.1 423.2 130.3C423.867 131.5 424.2 132.966 424.2 134.7C424.2 136.366 423.867 137.833 423.2 139.1C422.467 140.233 421.534 141.133 420.4 141.8C419.334 142.4 418.134 142.7 416.8 142.7C415.467 142.7 414.234 142.4 413.1 141.8C411.967 141.133 411.067 140.233 410.4 139.1C409.734 137.833 409.4 136.366 409.4 134.7ZM473.2 116.3V170.7H487V116.3H473.2ZM443.4 134.7C443.4 139.033 444.2 142.666 445.8 145.6C447.534 148.533 449.7 150.766 452.3 152.3C454.967 153.766 457.734 154.5 460.6 154.5C463.934 154.5 466.734 153.666 469 152C471.334 150.333 473.067 148.033 474.2 145.1C475.467 142.1 476.1 138.633 476.1 134.7C476.1 130.7 475.467 127.233 474.2 124.3C473.067 121.3 471.334 118.966 469 117.3C466.734 115.633 463.934 114.8 460.6 114.8C457.734 114.8 454.967 115.566 452.3 117.1C449.7 118.566 447.534 120.766 445.8 123.7C444.2 126.566 443.4 130.233 443.4 134.7ZM457.9 134.7C457.9 133.033 458.267 131.633 459 130.5C459.667 129.3 460.6 128.433 461.8 127.9C462.934 127.3 464.2 127 465.6 127C466.8 127 468 127.3 469.2 127.9C470.4 128.433 471.367 129.233 472.1 130.3C472.834 131.433 473.2 132.9 473.2 134.7C473.2 136.433 472.834 137.866 472.1 139C471.367 140.133 470.4 140.966 469.2 141.5C468 142.033 466.8 142.3 465.6 142.3C464.2 142.3 462.934 142.033 461.8 141.5C460.6 140.9 459.667 140 459 138.8C458.267 137.666 457.9 136.3 457.9 134.7Z" fill="#202020"/>
</svg>