<svg width="35" height="12" viewBox="0 0 35 12" fill="none" xmlns="http://www.w3.org/2000/svg">
<path d="M1.49963 0.299316V10.9993H0.0996094V0.299316H1.49963ZM10.0996 4.89917V6.09937H5.49963V9.89917H10.8997V10.9993H4.09961V0.299316H10.7997V1.49927H5.49963V4.89917H10.0996ZM13.9996 0.299316V9.89917H19.0996V10.9993H12.5996V0.299316H13.9996ZM25.9996 0.299316V1.49927H22.5996V10.9993H21.1996V1.49927H17.7997V0.299316H25.9996ZM30.5996 6.19922C29.3996 5.86589 28.4997 5.46593 27.8997 4.99927C27.3663 4.46593 27.0996 3.8327 27.0996 3.09937C27.0996 2.2327 27.4329 1.5326 28.0996 0.999268C28.7663 0.465934 29.6329 0.199219 30.6996 0.199219C31.4329 0.199219 32.0996 0.332699 32.6996 0.599365C33.2996 0.866032 33.733 1.26598 33.9996 1.79932C34.333 2.26598 34.4996 2.79917 34.4996 3.39917H33.0996C33.0996 2.79917 32.8996 2.29917 32.4996 1.89917C32.0996 1.49917 31.4996 1.29932 30.6996 1.29932C30.0329 1.29932 29.4996 1.46598 29.0996 1.79932C28.6996 2.13265 28.4996 2.56603 28.4996 3.09937C28.4996 3.49937 28.6996 3.86589 29.0996 4.19922C29.4329 4.46589 30.0663 4.7326 30.9996 4.99927C31.8663 5.26593 32.533 5.53265 32.9996 5.79932C33.533 6.13265 33.9329 6.49917 34.1996 6.89917C34.3996 7.29917 34.4996 7.76598 34.4996 8.29932C34.4996 9.16598 34.1663 9.86584 33.4996 10.3992C32.833 10.8658 31.933 11.0994 30.7997 11.0994C30.0663 11.0994 29.3997 10.9659 28.7997 10.6992C28.133 10.4326 27.633 10.066 27.2997 9.59937C26.9663 9.06603 26.7997 8.49917 26.7997 7.89917H28.1996C28.1996 8.56584 28.433 9.06584 28.8997 9.39917C29.3663 9.79917 29.9997 9.99927 30.7997 9.99927C31.533 9.99927 32.0996 9.8326 32.4996 9.49927C32.8996 9.2326 33.0996 8.83265 33.0996 8.29932C33.0996 7.76598 32.9329 7.36603 32.5996 7.09937C32.1996 6.8327 31.5329 6.53255 30.5996 6.19922Z" fill="white"/>
</svg>
