<svg width="272" height="62" viewBox="0 0 272 62" fill="none" xmlns="http://www.w3.org/2000/svg">
<path d="M4.80078 2.5H0.500732V20H4.80078V2.5ZM11.3008 16.5V20H20.1007V16.5H11.3008ZM11.3008 2.5V6H20.2007V2.5H11.3008ZM11.3008 9.1001V12.5H19.6007V9.1001H11.3008ZM12.5007 2.5H8.50073V20H12.5007V2.5ZM27.8008 2.5H23.6007V20H34.8008V16.3999H27.8008V2.5ZM33.3008 2.5V6.30005H38.1007V20H42.3008V6.30005H47.1007V2.5H33.3008ZM51.0007 13.8L48.1007 15.8999C48.5007 16.7666 49.034 17.5667 49.7007 18.3C50.434 18.9667 51.3008 19.4999 52.3008 19.8999C53.2341 20.2999 54.2674 20.5 55.4008 20.5C56.2674 20.5 57.0674 20.4 57.8008 20.2C58.6008 19.9333 59.3008 19.5668 59.9008 19.1001C60.5008 18.6334 60.9674 18.0666 61.3008 17.3999C61.7008 16.6666 61.9008 15.8667 61.9008 15C61.9008 14.2667 61.7674 13.6 61.5007 13C61.3007 12.4667 61.0007 11.9667 60.6007 11.5C60.2007 11.1 59.734 10.7332 59.2007 10.3999C58.6674 10.1332 58.0674 9.86676 57.4008 9.6001C56.6008 9.33343 55.9008 9.06672 55.3008 8.80005C54.7674 8.53338 54.3341 8.26667 54.0007 8C53.7341 7.66667 53.6007 7.2999 53.6007 6.8999C53.6007 6.56657 53.7341 6.26667 54.0007 6C54.3341 5.73333 54.8008 5.6001 55.4008 5.6001C55.8674 5.6001 56.3007 5.6999 56.7007 5.8999C57.1007 6.03324 57.434 6.26676 57.7007 6.6001C58.034 6.86676 58.334 7.23328 58.6007 7.69995L61.8008 5.8999C61.5341 5.2999 61.1007 4.7001 60.5007 4.1001C59.9674 3.5001 59.2674 3.03328 58.4008 2.69995C57.5341 2.29995 56.5341 2.1001 55.4008 2.1001C54.2674 2.1001 53.2341 2.29995 52.3008 2.69995C51.3674 3.09995 50.634 3.66657 50.1007 4.3999C49.5674 5.13324 49.3008 6 49.3008 7C49.3008 7.86667 49.434 8.63338 49.7007 9.30005C50.034 9.90005 50.4341 10.4 50.9008 10.8C51.4341 11.2 51.9674 11.5334 52.5007 11.8C53.0341 12.1334 53.5008 12.3667 53.9008 12.5C54.7674 12.7667 55.4674 13.0334 56.0007 13.3C56.4674 13.5667 56.834 13.8334 57.1007 14.1001C57.3007 14.3668 57.4008 14.7333 57.4008 15.2C57.4008 15.7333 57.2008 16.1667 56.8008 16.5C56.4008 16.7667 55.9008 16.8999 55.3008 16.8999C54.7008 16.8999 54.134 16.7667 53.6007 16.5C53.134 16.3 52.6674 15.9667 52.2007 15.5C51.734 15.0333 51.3341 14.4667 51.0007 13.8ZM84.3008 0.5H80.6007V20H84.3008V0.5ZM71.2007 14.2C71.2007 15.5333 71.4341 16.6333 71.9008 17.5C72.4341 18.3667 73.1341 19.0333 74.0007 19.5C74.8007 19.9667 75.6674 20.2 76.6007 20.2C77.6007 20.2 78.4674 19.9667 79.2007 19.5C79.934 19.0333 80.5341 18.3332 81.0007 17.3999C81.4007 16.5332 81.6007 15.4666 81.6007 14.2C81.6007 13 81.4007 11.9333 81.0007 11C80.5341 10.1333 79.934 9.43324 79.2007 8.8999C78.4674 8.43324 77.6007 8.19995 76.6007 8.19995C75.6674 8.19995 74.8007 8.43324 74.0007 8.8999C73.1341 9.36657 72.4341 10.0332 71.9008 10.8999C71.4341 11.8332 71.2007 12.9333 71.2007 14.2ZM75.1007 14.2C75.1007 13.6 75.2341 13.1 75.5007 12.7C75.7674 12.2333 76.1007 11.9 76.5007 11.7C76.9007 11.4333 77.3674 11.3 77.9008 11.3C78.3008 11.3 78.7007 11.4001 79.1007 11.6001C79.5674 11.8668 79.934 12.2333 80.2007 12.7C80.4674 13.1 80.6007 13.6 80.6007 14.2C80.6007 14.8666 80.4674 15.4 80.2007 15.8C79.934 16.2667 79.5674 16.6 79.1007 16.8C78.7007 17.0667 78.3008 17.2 77.9008 17.2C77.3674 17.2 76.9007 17.0667 76.5007 16.8C76.1007 16.5334 75.7674 16.2 75.5007 15.8C75.2341 15.3334 75.1007 14.8 75.1007 14.2ZM90.2007 16.3999C90.2007 16.0666 90.2674 15.8333 90.4008 15.7C90.5341 15.5 90.7341 15.3333 91.0007 15.2C91.2674 15.1333 91.634 15.1001 92.1007 15.1001C92.634 15.1001 93.1674 15.1667 93.7007 15.3C94.234 15.4334 94.7007 15.6667 95.1007 16V14.3C94.9007 14.1 94.6007 13.9 94.2007 13.7C93.8007 13.5 93.3341 13.3333 92.8008 13.2C92.2008 13.0666 91.5674 13 90.9008 13C89.4341 13 88.334 13.3333 87.6007 14C86.8007 14.6 86.4008 15.4668 86.4008 16.6001C86.4008 17.4001 86.5674 18.0668 86.9008 18.6001C87.3008 19.1334 87.8008 19.5334 88.4008 19.8C89.0674 20.0667 89.7674 20.2 90.5007 20.2C91.2341 20.2 91.9007 20.0999 92.5007 19.8999C93.1674 19.5666 93.7007 19.1666 94.1007 18.7C94.5007 18.1666 94.7007 17.5334 94.7007 16.8L94.3008 15.3C94.3008 15.8334 94.1674 16.3 93.9008 16.7C93.7008 17.0333 93.4007 17.3 93.0007 17.5C92.6674 17.7 92.2674 17.8 91.8008 17.8C91.5341 17.8 91.2674 17.7334 91.0007 17.6001C90.7341 17.4668 90.5341 17.3333 90.4008 17.2C90.2674 16.9333 90.2007 16.6666 90.2007 16.3999ZM87.2007 9.5L88.5007 12C88.7007 11.9333 88.9674 11.8001 89.3008 11.6001C89.7008 11.4668 90.134 11.3333 90.6007 11.2C91.0674 11.0666 91.5674 11 92.1007 11C92.434 11 92.7341 11.0334 93.0007 11.1001C93.3341 11.1668 93.5674 11.2666 93.7007 11.3999C93.9007 11.5999 94.034 11.8 94.1007 12C94.234 12.2 94.3008 12.4333 94.3008 12.7V20H97.9008V11.8999C97.9008 11.0999 97.6674 10.4332 97.2007 9.8999C96.734 9.2999 96.1008 8.86676 95.3008 8.6001C94.5008 8.33343 93.6007 8.19995 92.6007 8.19995C91.534 8.19995 90.534 8.33343 89.6007 8.6001C88.6674 8.86676 87.8673 9.16667 87.2007 9.5ZM104.501 20V8.5H100.701V20H104.501ZM107.901 12.3999L109.501 9.19995C109.301 8.86662 109.001 8.5999 108.601 8.3999C108.201 8.26657 107.801 8.19995 107.401 8.19995C106.801 8.19995 106.201 8.40005 105.601 8.80005C105.001 9.20005 104.534 9.76667 104.201 10.5C103.801 11.2333 103.601 12.0667 103.601 13L104.501 14.3C104.501 13.7667 104.601 13.2999 104.801 12.8999C104.934 12.4999 105.134 12.2 105.401 12C105.667 11.8 106.001 11.7 106.401 11.7C106.734 11.7 107.001 11.7666 107.201 11.8999C107.467 12.0332 107.701 12.1999 107.901 12.3999ZM114.001 16.3999C114.001 16.0666 114.067 15.8333 114.201 15.7C114.334 15.5 114.534 15.3333 114.801 15.2C115.067 15.1333 115.434 15.1001 115.901 15.1001C116.501 15.1001 117.034 15.1667 117.501 15.3C118.034 15.4334 118.501 15.6667 118.901 16V14.3C118.701 14.1 118.401 13.9 118.001 13.7C117.601 13.5 117.134 13.3333 116.601 13.2C116.067 13.0666 115.434 13 114.701 13C113.301 13 112.201 13.3333 111.401 14C110.601 14.6 110.201 15.4668 110.201 16.6001C110.201 17.4001 110.401 18.0668 110.801 18.6001C111.134 19.1334 111.634 19.5334 112.301 19.8C112.901 20.0667 113.567 20.2 114.301 20.2C115.034 20.2 115.734 20.0999 116.401 19.8999C117.001 19.5666 117.501 19.1666 117.901 18.7C118.301 18.1666 118.501 17.5334 118.501 16.8L118.101 15.3C118.101 15.8334 118.001 16.3 117.801 16.7C117.534 17.0333 117.234 17.3 116.901 17.5C116.501 17.7 116.101 17.8 115.701 17.8C115.367 17.8 115.067 17.7334 114.801 17.6001C114.601 17.4668 114.401 17.3333 114.201 17.2C114.067 16.9333 114.001 16.6666 114.001 16.3999ZM111.101 9.5L112.301 12C112.501 11.9333 112.767 11.8001 113.101 11.6001C113.501 11.4668 113.934 11.3333 114.401 11.2C114.934 11.0666 115.434 11 115.901 11C116.301 11 116.634 11.0334 116.901 11.1001C117.167 11.1668 117.401 11.2666 117.601 11.3999C117.734 11.5999 117.867 11.8 118.001 12C118.067 12.2 118.101 12.4333 118.101 12.7V20H121.701V11.8999C121.701 11.0999 121.467 10.4332 121.001 9.8999C120.534 9.2999 119.901 8.86676 119.101 8.6001C118.301 8.33343 117.401 8.19995 116.401 8.19995C115.334 8.19995 114.334 8.33343 113.401 8.6001C112.467 8.86676 111.701 9.16667 111.101 9.5ZM124.201 4.19995C124.201 4.73328 124.401 5.2001 124.801 5.6001C125.267 6.0001 125.801 6.19995 126.401 6.19995C127.001 6.19995 127.501 6.0001 127.901 5.6001C128.367 5.2001 128.601 4.73328 128.601 4.19995C128.601 3.59995 128.367 3.09995 127.901 2.69995C127.501 2.29995 127.001 2.1001 126.401 2.1001C125.801 2.1001 125.267 2.29995 124.801 2.69995C124.401 3.09995 124.201 3.59995 124.201 4.19995ZM122.301 21.8999L120.701 24.7C120.901 24.8333 121.134 25.0334 121.401 25.3C121.734 25.4334 122.101 25.6 122.501 25.8C122.901 25.8667 123.367 25.8999 123.901 25.8999C124.901 25.8999 125.701 25.7332 126.301 25.3999C126.967 25.0666 127.467 24.6 127.801 24C128.134 23.3333 128.301 22.6 128.301 21.8V8.5H124.601V20.8C124.601 21.2 124.567 21.5334 124.501 21.8C124.434 22.0667 124.301 22.2666 124.101 22.3999C123.901 22.4666 123.667 22.5 123.401 22.5C123.201 22.5 123.001 22.4666 122.801 22.3999C122.601 22.2666 122.434 22.0999 122.301 21.8999ZM134.301 16.3999C134.301 16.0666 134.367 15.8333 134.501 15.7C134.634 15.5 134.834 15.3333 135.101 15.2C135.367 15.1333 135.734 15.1001 136.201 15.1001C136.734 15.1001 137.267 15.1667 137.801 15.3C138.334 15.4334 138.801 15.6667 139.201 16V14.3C139.001 14.1 138.701 13.9 138.301 13.7C137.901 13.5 137.434 13.3333 136.901 13.2C136.301 13.0666 135.667 13 135.001 13C133.534 13 132.434 13.3333 131.701 14C130.901 14.6 130.501 15.4668 130.501 16.6001C130.501 17.4001 130.667 18.0668 131.001 18.6001C131.401 19.1334 131.901 19.5334 132.501 19.8C133.167 20.0667 133.867 20.2 134.601 20.2C135.334 20.2 136.001 20.0999 136.601 19.8999C137.267 19.5666 137.801 19.1666 138.201 18.7C138.601 18.1666 138.801 17.5334 138.801 16.8L138.401 15.3C138.401 15.8334 138.267 16.3 138.001 16.7C137.801 17.0333 137.501 17.3 137.101 17.5C136.767 17.7 136.367 17.8 135.901 17.8C135.634 17.8 135.367 17.7334 135.101 17.6001C134.834 17.4668 134.634 17.3333 134.501 17.2C134.367 16.9333 134.301 16.6666 134.301 16.3999ZM131.301 9.5L132.601 12C132.801 11.9333 133.067 11.8001 133.401 11.6001C133.801 11.4668 134.234 11.3333 134.701 11.2C135.167 11.0666 135.667 11 136.201 11C136.534 11 136.834 11.0334 137.101 11.1001C137.434 11.1668 137.667 11.2666 137.801 11.3999C138.001 11.5999 138.134 11.8 138.201 12C138.334 12.2 138.401 12.4333 138.401 12.7V20H142.001V11.8999C142.001 11.0999 141.767 10.4332 141.301 9.8999C140.834 9.2999 140.201 8.86676 139.401 8.6001C138.601 8.33343 137.701 8.19995 136.701 8.19995C135.634 8.19995 134.634 8.33343 133.701 8.6001C132.767 8.86676 131.967 9.16667 131.301 9.5ZM145.501 15.8L143.901 18.3C144.434 18.7 145.001 19.0666 145.601 19.3999C146.201 19.7332 146.834 20 147.501 20.2C148.234 20.3333 149.001 20.3999 149.801 20.3999C151.201 20.3999 152.267 20.1 153.001 19.5C153.801 18.9 154.201 17.9666 154.201 16.7C154.201 16.0333 154.034 15.4667 153.701 15C153.367 14.6 152.967 14.2332 152.501 13.8999C151.967 13.6332 151.401 13.4 150.801 13.2C150.267 13 149.801 12.8333 149.401 12.7C149.001 12.5 148.701 12.3333 148.501 12.2C148.301 12 148.201 11.7667 148.201 11.5C148.201 11.3 148.267 11.1333 148.401 11C148.601 10.8667 148.867 10.8 149.201 10.8C149.734 10.8 150.301 10.9667 150.901 11.3C151.501 11.5667 152.067 11.9332 152.601 12.3999L153.901 9.8999C153.434 9.56657 152.967 9.26667 152.501 9C151.967 8.8 151.401 8.5999 150.801 8.3999C150.267 8.26657 149.667 8.19995 149.001 8.19995C148.134 8.19995 147.401 8.33343 146.801 8.6001C146.134 8.86676 145.601 9.23328 145.201 9.69995C144.867 10.1666 144.701 10.7667 144.701 11.5C144.701 12.2333 144.867 12.8334 145.201 13.3C145.467 13.7667 145.867 14.1332 146.401 14.3999C146.867 14.6666 147.367 14.9001 147.901 15.1001C148.567 15.3001 149.067 15.4668 149.401 15.6001C149.734 15.8001 150.001 16 150.201 16.2C150.334 16.3333 150.401 16.5334 150.401 16.8C150.401 17.0667 150.301 17.2666 150.101 17.3999C149.901 17.5999 149.634 17.7 149.301 17.7C149.034 17.7 148.701 17.6333 148.301 17.5C147.967 17.4333 147.534 17.2332 147.001 16.8999C146.534 16.6332 146.034 16.2667 145.501 15.8ZM156.001 4.19995C156.001 4.73328 156.234 5.2001 156.701 5.6001C157.101 6.0001 157.601 6.19995 158.201 6.19995C158.801 6.19995 159.334 6.0001 159.801 5.6001C160.201 5.2001 160.401 4.73328 160.401 4.19995C160.401 3.59995 160.201 3.09995 159.801 2.69995C159.334 2.29995 158.801 2.1001 158.201 2.1001C157.601 2.1001 157.101 2.29995 156.701 2.69995C156.234 3.09995 156.001 3.59995 156.001 4.19995ZM160.001 8.5H156.401V20H160.001V8.5ZM171.101 6.69995C171.101 7.49995 171.267 8.20005 171.601 8.80005C171.934 9.40005 172.401 9.90005 173.001 10.3C173.534 10.7 174.167 10.9668 174.901 11.1001C175.567 11.3001 176.267 11.3999 177.001 11.3999C177.734 11.3999 178.434 11.3001 179.101 11.1001C179.834 10.9668 180.467 10.7 181.001 10.3C181.601 9.90005 182.067 9.40005 182.401 8.80005C182.734 8.20005 182.901 7.49995 182.901 6.69995C182.901 5.69995 182.634 4.86662 182.101 4.19995C181.567 3.53328 180.834 3.0001 179.901 2.6001C179.034 2.26676 178.067 2.1001 177.001 2.1001C175.934 2.1001 174.934 2.26676 174.001 2.6001C173.134 3.0001 172.434 3.53328 171.901 4.19995C171.367 4.86662 171.101 5.69995 171.101 6.69995ZM175.101 7.1001C175.101 6.7001 175.167 6.36676 175.301 6.1001C175.434 5.76676 175.667 5.53324 176.001 5.3999C176.267 5.1999 176.601 5.1001 177.001 5.1001C177.401 5.1001 177.734 5.1999 178.001 5.3999C178.334 5.53324 178.567 5.76676 178.701 6.1001C178.834 6.36676 178.901 6.7001 178.901 7.1001C178.901 7.5001 178.834 7.86662 178.701 8.19995C178.501 8.46662 178.267 8.6999 178.001 8.8999C177.734 9.03324 177.401 9.1001 177.001 9.1001C176.601 9.1001 176.267 9.03324 176.001 8.8999C175.734 8.6999 175.501 8.46662 175.301 8.19995C175.167 7.86662 175.101 7.5001 175.101 7.1001ZM170.501 15.2C170.501 16 170.667 16.7332 171.001 17.3999C171.334 17.9999 171.801 18.5333 172.401 19C173.067 19.4667 173.767 19.8 174.501 20C175.301 20.2667 176.134 20.3999 177.001 20.3999C177.867 20.3999 178.701 20.2667 179.501 20C180.234 19.8 180.934 19.4667 181.601 19C182.201 18.5333 182.667 17.9999 183.001 17.3999C183.334 16.7332 183.501 16 183.501 15.2C183.501 14.3333 183.301 13.5666 182.901 12.8999C182.501 12.2332 181.967 11.7 181.301 11.3C180.701 10.9 180.001 10.5999 179.201 10.3999C178.467 10.1999 177.734 10.1001 177.001 10.1001C176.267 10.1001 175.534 10.1999 174.801 10.3999C174.001 10.5999 173.267 10.9 172.601 11.3C172.001 11.7 171.501 12.2332 171.101 12.8999C170.701 13.5666 170.501 14.3333 170.501 15.2ZM174.701 14.6001C174.701 14.1334 174.801 13.7332 175.001 13.3999C175.201 13.0666 175.467 12.8001 175.801 12.6001C176.201 12.4001 176.601 12.3 177.001 12.3C177.401 12.3 177.801 12.4001 178.201 12.6001C178.534 12.8001 178.801 13.0666 179.001 13.3999C179.201 13.7332 179.301 14.1334 179.301 14.6001C179.301 15.1334 179.201 15.5666 179.001 15.8999C178.801 16.2332 178.534 16.5 178.201 16.7C177.801 16.8333 177.401 16.8999 177.001 16.8999C176.601 16.8999 176.201 16.8333 175.801 16.7C175.467 16.5 175.201 16.2332 175.001 15.8999C174.801 15.5666 174.701 15.1334 174.701 14.6001ZM186.101 18.3C186.101 18.9 186.334 19.4332 186.801 19.8999C187.267 20.3666 187.834 20.6001 188.501 20.6001C189.167 20.6001 189.734 20.3666 190.201 19.8999C190.601 19.4332 190.801 18.9 190.801 18.3C190.801 17.6334 190.601 17.1 190.201 16.7C189.734 16.2333 189.167 16 188.501 16C187.834 16 187.267 16.2333 186.801 16.7C186.334 17.1 186.101 17.6334 186.101 18.3ZM197.601 11.2C197.601 10.4 197.667 9.66667 197.801 9C197.934 8.33333 198.167 7.76672 198.501 7.30005C198.767 6.76672 199.101 6.39995 199.501 6.19995C199.901 5.93328 200.334 5.80005 200.801 5.80005C201.267 5.80005 201.701 5.93328 202.101 6.19995C202.501 6.39995 202.834 6.76672 203.101 7.30005C203.367 7.76672 203.601 8.33333 203.801 9C203.934 9.66667 204.001 10.4 204.001 11.2C204.001 12 203.934 12.7667 203.801 13.5C203.601 14.1667 203.367 14.7333 203.101 15.2C202.834 15.6666 202.501 16.0334 202.101 16.3C201.701 16.5667 201.267 16.7 200.801 16.7C200.334 16.7 199.901 16.5667 199.501 16.3C199.101 16.0334 198.767 15.6666 198.501 15.2C198.167 14.7333 197.934 14.1667 197.801 13.5C197.667 12.7667 197.601 12 197.601 11.2ZM193.501 11.2C193.501 13.1333 193.801 14.7668 194.401 16.1001C195.001 17.4334 195.867 18.4666 197.001 19.2C198.067 19.9333 199.334 20.3 200.801 20.3C202.267 20.3 203.534 19.9333 204.601 19.2C205.734 18.4666 206.601 17.4334 207.201 16.1001C207.801 14.7668 208.101 13.1333 208.101 11.2C208.101 9.33328 207.801 7.73324 207.201 6.3999C206.601 4.9999 205.734 3.96672 204.601 3.30005C203.534 2.56672 202.267 2.19995 200.801 2.19995C199.334 2.19995 198.067 2.56672 197.001 3.30005C195.867 3.96672 195.001 4.9999 194.401 6.3999C193.801 7.73324 193.501 9.33328 193.501 11.2ZM224.401 8.5H216.701V11.6001H224.401V8.5ZM222.301 4.5H218.701V20H222.301V4.5ZM229.901 15.5V8.5H226.001V15.8999C226.001 17.2332 226.334 18.3001 227.001 19.1001C227.667 19.9001 228.701 20.3 230.101 20.3C230.967 20.3 231.667 20.1334 232.201 19.8C232.801 19.4 233.267 18.9 233.601 18.3V20H237.401V8.5H233.601V15.5C233.601 15.9667 233.534 16.3666 233.401 16.7C233.201 16.9666 232.967 17.1999 232.701 17.3999C232.367 17.5332 232.001 17.6001 231.601 17.6001C231.001 17.6001 230.567 17.4334 230.301 17.1001C230.034 16.7001 229.901 16.1667 229.901 15.5ZM246.701 8.5H239.001V11.6001H246.701V8.5ZM244.701 4.5H241.001V20H244.701V4.5ZM247.601 14.3C247.601 15.5 247.901 16.5332 248.501 17.3999C249.034 18.3332 249.801 19.0333 250.801 19.5C251.801 20.0333 252.934 20.3 254.201 20.3C255.467 20.3 256.601 20.0333 257.601 19.5C258.601 19.0333 259.367 18.3332 259.901 17.3999C260.501 16.5332 260.801 15.5 260.801 14.3C260.801 13.1 260.501 12.0334 259.901 11.1001C259.367 10.1668 258.601 9.46667 257.601 9C256.601 8.46667 255.467 8.19995 254.201 8.19995C252.934 8.19995 251.801 8.46667 250.801 9C249.801 9.46667 249.034 10.1668 248.501 11.1001C247.901 12.0334 247.601 13.1 247.601 14.3ZM251.501 14.3C251.501 13.7 251.634 13.1666 251.901 12.7C252.167 12.3 252.501 11.9666 252.901 11.7C253.301 11.5 253.734 11.3999 254.201 11.3999C254.667 11.3999 255.101 11.5 255.501 11.7C255.967 11.9666 256.301 12.3 256.501 12.7C256.767 13.1666 256.901 13.7 256.901 14.3C256.901 14.9 256.767 15.4 256.501 15.8C256.301 16.2667 255.967 16.6 255.501 16.8C255.101 17.0667 254.667 17.2 254.201 17.2C253.734 17.2 253.301 17.0667 252.901 16.8C252.501 16.6 252.167 16.2667 251.901 15.8C251.634 15.4 251.501 14.9 251.501 14.3ZM266.801 20V8.5H263.001V20H266.801ZM270.201 12.3999L271.801 9.19995C271.601 8.86662 271.301 8.63333 270.901 8.5C270.501 8.3 270.101 8.19995 269.701 8.19995C269.101 8.19995 268.501 8.43324 267.901 8.8999C267.301 9.2999 266.834 9.86676 266.501 10.6001C266.101 11.3334 265.901 12.1333 265.901 13L266.801 14.3C266.801 13.7667 266.901 13.3333 267.101 13C267.234 12.6 267.434 12.3001 267.701 12.1001C267.967 11.9001 268.301 11.8 268.701 11.8C269.034 11.8 269.301 11.8667 269.501 12C269.767 12.0667 270.001 12.1999 270.201 12.3999ZM4.10071 55V35.5H0.300781V55H4.10071ZM13.5007 49.3C13.5007 47.9667 13.234 46.8667 12.7007 46C12.1673 45.1333 11.5007 44.4667 10.7007 44C9.83402 43.5333 8.93407 43.3 8.00073 43.3C7.0674 43.3 6.23407 43.5333 5.50073 44C4.70073 44.4667 4.10068 45.1668 3.70068 46.1001C3.23402 46.9668 3.00073 48.0334 3.00073 49.3C3.00073 50.5 3.23402 51.5667 3.70068 52.5C4.10068 53.3667 4.70073 54.0668 5.50073 54.6001C6.23407 55.0668 7.0674 55.3 8.00073 55.3C8.93407 55.3 9.83402 55.0668 10.7007 54.6001C11.5007 54.1334 12.1673 53.4668 12.7007 52.6001C13.234 51.6668 13.5007 50.5667 13.5007 49.3ZM9.50073 49.3C9.50073 49.9 9.36737 50.4 9.10071 50.8C8.90071 51.2667 8.56737 51.6332 8.10071 51.8999C7.70071 52.0999 7.26745 52.2 6.80078 52.2C6.33411 52.2 5.90073 52.0999 5.50073 51.8999C5.10073 51.6332 4.7674 51.2999 4.50073 50.8999C4.23407 50.4332 4.10071 49.9 4.10071 49.3C4.10071 48.6334 4.23407 48.1 4.50073 47.7C4.7674 47.2333 5.10073 46.9 5.50073 46.7C5.90073 46.4333 6.33411 46.3 6.80078 46.3C7.26745 46.3 7.70071 46.4333 8.10071 46.7C8.56737 46.9666 8.90071 47.2999 9.10071 47.7C9.36737 48.1666 9.50073 48.7001 9.50073 49.3ZM15.5007 39.2C15.5007 39.7999 15.734 40.2999 16.2007 40.7C16.6007 41.0333 17.1007 41.2 17.7007 41.2C18.3673 41.2 18.9008 41.0333 19.3008 40.7C19.7008 40.2999 19.9008 39.7999 19.9008 39.2C19.9008 38.6 19.7008 38.1 19.3008 37.7C18.9008 37.3666 18.3673 37.2 17.7007 37.2C17.1007 37.2 16.6007 37.3666 16.2007 37.7C15.734 38.1 15.5007 38.6 15.5007 39.2ZM19.6007 43.5H15.9008V55H19.6007V43.5ZM26.5007 35.5H22.7007V55H26.5007V35.5ZM32.3008 51.3999C32.3008 51.1332 32.3674 50.9 32.5007 50.7C32.6341 50.5 32.834 50.3667 33.1007 50.3C33.3674 50.1667 33.734 50.1001 34.2007 50.1001C34.8007 50.1001 35.3674 50.1999 35.9008 50.3999C36.4341 50.5332 36.9008 50.7668 37.3008 51.1001V49.3999C37.1008 49.1999 36.8008 48.9666 36.4008 48.7C36.0008 48.5666 35.5008 48.4 34.9008 48.2C34.3674 48.1333 33.7341 48.1001 33.0007 48.1001C31.6007 48.1001 30.5007 48.4 29.7007 49C28.9007 49.6667 28.5007 50.5334 28.5007 51.6001C28.5007 52.4001 28.7007 53.0668 29.1007 53.6001C29.5007 54.2001 30.0007 54.6332 30.6007 54.8999C31.2007 55.1666 31.8674 55.3 32.6007 55.3C33.334 55.3 34.034 55.1666 34.7007 54.8999C35.3007 54.6332 35.8007 54.2333 36.2007 53.7C36.6007 53.2333 36.8008 52.6332 36.8008 51.8999L36.4008 50.3999C36.4008 50.9332 36.3007 51.3666 36.1007 51.7C35.834 52.1 35.534 52.4001 35.2007 52.6001C34.8007 52.7334 34.4007 52.8 34.0007 52.8C33.6674 52.8 33.4007 52.7666 33.2007 52.7C32.934 52.5666 32.734 52.4 32.6007 52.2C32.4007 52 32.3008 51.7332 32.3008 51.3999ZM29.4008 44.5L30.7007 47.1001C30.834 46.9668 31.1007 46.8333 31.5007 46.7C31.8341 46.5 32.234 46.3333 32.7007 46.2C33.234 46.1333 33.7674 46.1001 34.3008 46.1001C34.6341 46.1001 34.934 46.1333 35.2007 46.2C35.4674 46.2666 35.7008 46.3667 35.9008 46.5C36.1008 46.6333 36.2341 46.8334 36.3008 47.1001C36.3674 47.2334 36.4008 47.4667 36.4008 47.8V55H40.1007V46.8999C40.1007 46.0999 39.8674 45.4332 39.4008 44.8999C38.9341 44.3666 38.3007 43.9334 37.5007 43.6001C36.7007 43.3334 35.7673 43.2 34.7007 43.2C33.634 43.2 32.634 43.3334 31.7007 43.6001C30.834 43.9334 30.0674 44.2333 29.4008 44.5ZM50.4008 48V55H54.3008V47.6001C54.3008 46.2668 53.9674 45.1999 53.3008 44.3999C52.6341 43.5999 51.6007 43.2 50.2007 43.2C49.334 43.2 48.6007 43.4 48.0007 43.8C47.4674 44.1334 47.034 44.6 46.7007 45.2V43.5H42.9008V55H46.7007V48C46.7007 47.5333 46.7674 47.1666 46.9008 46.8999C47.1008 46.5666 47.334 46.3001 47.6007 46.1001C47.934 45.9668 48.3007 45.8999 48.7007 45.8999C49.3007 45.8999 49.7341 46.1 50.0007 46.5C50.2674 46.8333 50.4008 47.3333 50.4008 48ZM67.9008 51.6001V55H76.8008V51.6001H67.9008ZM67.9008 37.5V41H76.7007V37.5H67.9008ZM67.9008 44.1001V47.5H76.2007V44.1001H67.9008ZM69.2007 37.5H65.1007V55H69.2007V37.5ZM82.1007 48.8999L79.2007 51C79.6007 51.8 80.1341 52.5667 80.8008 53.3C81.5341 53.9667 82.4008 54.5333 83.4008 55C84.3341 55.4 85.3674 55.6001 86.5007 55.6001C87.3674 55.6001 88.1674 55.4666 88.9008 55.2C89.7008 54.9333 90.4007 54.5668 91.0007 54.1001C91.6007 53.7001 92.0674 53.1332 92.4008 52.3999C92.8008 51.7332 93.0007 50.9668 93.0007 50.1001C93.0007 49.3668 92.8674 48.7001 92.6007 48.1001C92.4007 47.5001 92.1007 47.0001 91.7007 46.6001C91.3007 46.2001 90.8341 45.8333 90.3008 45.5C89.7674 45.1667 89.1674 44.9 88.5007 44.7C87.7007 44.3666 87.0008 44.0999 86.4008 43.8999C85.8674 43.6332 85.434 43.3668 85.1007 43.1001C84.834 42.7668 84.7007 42.4 84.7007 42C84.7007 41.6 84.834 41.3001 85.1007 41.1001C85.434 40.7668 85.9007 40.6001 86.5007 40.6001C86.9674 40.6001 87.4008 40.6999 87.8008 40.8999C88.2008 41.0999 88.5341 41.3334 88.8008 41.6001C89.1341 41.9334 89.434 42.2999 89.7007 42.7L92.9008 40.8999C92.6341 40.2999 92.2007 39.7001 91.6007 39.1001C91.0674 38.5668 90.3674 38.1 89.5007 37.7C88.6341 37.2999 87.6341 37.1001 86.5007 37.1001C85.3674 37.1001 84.3341 37.2999 83.4008 37.7C82.4674 38.1 81.734 38.6666 81.2007 39.3999C80.6674 40.1999 80.4008 41.1001 80.4008 42.1001C80.4008 42.9668 80.5341 43.7001 80.8008 44.3C81.1341 44.9 81.5341 45.4332 82.0007 45.8999C82.5341 46.2999 83.0674 46.6332 83.6007 46.8999C84.134 47.1666 84.6007 47.3667 85.0007 47.5C85.8674 47.8333 86.5674 48.1332 87.1007 48.3999C87.5674 48.5999 87.934 48.8666 88.2007 49.2C88.4007 49.4666 88.5007 49.7999 88.5007 50.2C88.5007 50.7999 88.3008 51.2333 87.9008 51.5C87.5008 51.8333 87.0008 52 86.4008 52C85.8008 52 85.234 51.8668 84.7007 51.6001C84.234 51.3334 83.7674 50.9667 83.3008 50.5C82.8341 50.0333 82.434 49.4999 82.1007 48.8999ZM97.7007 48.8999L94.8008 51C95.2008 51.8 95.7674 52.5667 96.5007 53.3C97.1674 53.9667 98.0007 54.5333 99.0007 55C100.001 55.4 101.067 55.6001 102.201 55.6001C103.001 55.6001 103.767 55.4666 104.501 55.2C105.301 54.9333 106.001 54.5668 106.601 54.1001C107.201 53.7001 107.701 53.1332 108.101 52.3999C108.434 51.7332 108.601 50.9668 108.601 50.1001C108.601 49.3668 108.501 48.7001 108.301 48.1001C108.034 47.5001 107.701 47.0001 107.301 46.6001C106.901 46.2001 106.434 45.8333 105.901 45.5C105.367 45.1667 104.801 44.9 104.201 44.7C103.334 44.3666 102.634 44.0999 102.101 43.8999C101.501 43.6332 101.034 43.3668 100.701 43.1001C100.434 42.7668 100.301 42.4 100.301 42C100.301 41.6 100.467 41.3001 100.801 41.1001C101.067 40.7668 101.501 40.6001 102.101 40.6001C102.567 40.6001 103.001 40.6999 103.401 40.8999C103.801 41.0999 104.167 41.3334 104.501 41.6001C104.834 41.9334 105.101 42.2999 105.301 42.7L108.601 40.8999C108.267 40.2999 107.834 39.7001 107.301 39.1001C106.701 38.5668 105.967 38.1 105.101 37.7C104.234 37.2999 103.234 37.1001 102.101 37.1001C100.967 37.1001 99.9341 37.2999 99.0007 37.7C98.0674 38.1 97.3341 38.6666 96.8008 39.3999C96.2674 40.1999 96.0007 41.1001 96.0007 42.1001C96.0007 42.9668 96.1674 43.7001 96.5007 44.3C96.7674 44.9 97.1674 45.4332 97.7007 45.8999C98.1674 46.2999 98.6674 46.6332 99.2007 46.8999C99.734 47.1666 100.201 47.3667 100.601 47.5C101.467 47.8333 102.167 48.1332 102.701 48.3999C103.234 48.5999 103.601 48.8666 103.801 49.2C104.067 49.4666 104.201 49.7999 104.201 50.2C104.201 50.7999 104.001 51.2333 103.601 51.5C103.201 51.8333 102.667 52 102.001 52C101.467 52 100.934 51.8668 100.401 51.6001C99.8674 51.3334 99.3674 50.9667 98.9008 50.5C98.5008 50.0333 98.1007 49.4999 97.7007 48.8999ZM114.501 48.3999L114.201 51.6001H123.401L123.201 48.3999H114.501ZM116.301 49.6001L118.701 44L121.201 49.6001L121.101 50.7L123.201 55H128.001L118.701 36.3999L109.501 55H114.301L116.501 50.5L116.301 49.6001ZM142.701 37.6001H137.901L134.401 44.1001L131.001 37.6001H126.201L132.301 48V55.1001H136.601V47.8999L142.701 37.6001ZM154.801 49.3999C154.801 48.7999 154.934 48.2999 155.201 47.8999C155.467 47.4332 155.834 47.0667 156.301 46.8C156.767 46.5334 157.301 46.3999 157.901 46.3999C158.301 46.3999 158.701 46.4668 159.101 46.6001C159.567 46.7334 159.967 46.9333 160.301 47.2C160.701 47.4 161.034 47.7001 161.301 48.1001V44.3999C160.901 44.0666 160.401 43.8333 159.801 43.7C159.201 43.5 158.467 43.3999 157.601 43.3999C156.334 43.3999 155.167 43.6334 154.101 44.1001C153.101 44.6334 152.334 45.3333 151.801 46.2C151.201 47.1333 150.901 48.1999 150.901 49.3999C150.901 50.5999 151.201 51.6333 151.801 52.5C152.334 53.4333 153.101 54.1334 154.101 54.6001C155.167 55.1334 156.334 55.3999 157.601 55.3999C158.467 55.3999 159.201 55.3001 159.801 55.1001C160.401 54.9001 160.901 54.6334 161.301 54.3V50.7C161.034 51.0333 160.734 51.3334 160.401 51.6001C160.001 51.8001 159.601 52 159.201 52.2C158.801 52.3333 158.367 52.3999 157.901 52.3999C157.301 52.3999 156.767 52.2667 156.301 52C155.834 51.7333 155.467 51.4 155.201 51C154.934 50.5333 154.801 49.9999 154.801 49.3999ZM167.801 55.1001V35.6001H164.001V55.1001H167.801ZM171.501 48.1001V55.1001H175.201V47.6001C175.201 46.6668 175.067 45.8666 174.801 45.2C174.534 44.5333 174.134 44.0333 173.601 43.7C173.001 43.3666 172.234 43.2 171.301 43.2C170.367 43.2 169.567 43.4332 168.901 43.8999C168.301 44.2999 167.867 44.9 167.601 45.7C167.267 46.4333 167.101 47.2334 167.101 48.1001H167.801C167.801 47.6334 167.867 47.2667 168.001 47C168.201 46.6667 168.434 46.4334 168.701 46.3C169.034 46.1 169.401 46 169.801 46C170.401 46 170.834 46.2001 171.101 46.6001C171.367 46.9334 171.501 47.4334 171.501 48.1001ZM184.001 55.3999C185.467 55.3999 186.734 55.1 187.801 54.5C188.801 53.9667 189.601 53.1333 190.201 52L186.801 51.2C186.534 51.6666 186.167 52.0334 185.701 52.3C185.234 52.5667 184.667 52.7 184.001 52.7C183.401 52.7 182.901 52.5667 182.501 52.3C182.101 52.0334 181.801 51.6334 181.601 51.1001C181.401 50.6334 181.301 50.0334 181.301 49.3C181.301 48.5667 181.401 47.9332 181.601 47.3999C181.801 46.9332 182.101 46.5667 182.501 46.3C182.901 46.0334 183.367 45.8999 183.901 45.8999C184.367 45.8999 184.767 46 185.101 46.2C185.434 46.4 185.701 46.7001 185.901 47.1001C186.034 47.4334 186.101 47.8666 186.101 48.3999C186.101 48.4666 186.067 48.6 186.001 48.8C186.001 49 185.934 49.1333 185.801 49.2L186.701 48.1001H179.601V50.2H190.101C190.167 50.0666 190.201 49.9334 190.201 49.8C190.201 49.6 190.201 49.4 190.201 49.2C190.201 48 189.967 46.9668 189.501 46.1001C188.967 45.2334 188.267 44.5668 187.401 44.1001C186.467 43.6334 185.334 43.3999 184.001 43.3999C182.667 43.3999 181.501 43.6334 180.501 44.1001C179.567 44.5668 178.834 45.2666 178.301 46.2C177.767 47.0666 177.501 48.1332 177.501 49.3999C177.501 50.5999 177.767 51.6668 178.301 52.6001C178.834 53.4668 179.601 54.1666 180.601 54.7C181.534 55.1666 182.667 55.3999 184.001 55.3999ZM195.701 49.3999C195.701 48.7999 195.834 48.2999 196.101 47.8999C196.367 47.4332 196.734 47.0667 197.201 46.8C197.667 46.5334 198.167 46.3999 198.701 46.3999C199.167 46.3999 199.601 46.4668 200.001 46.6001C200.467 46.7334 200.867 46.9333 201.201 47.2C201.601 47.4 201.901 47.7001 202.101 48.1001V44.3999C201.701 44.0666 201.201 43.8333 200.601 43.7C200.001 43.5 199.267 43.3999 198.401 43.3999C197.134 43.3999 196.001 43.6334 195.001 44.1001C194.001 44.6334 193.201 45.3333 192.601 46.2C192.067 47.1333 191.801 48.1999 191.801 49.3999C191.801 50.5999 192.067 51.6333 192.601 52.5C193.201 53.4333 194.001 54.1334 195.001 54.6001C196.001 55.1334 197.134 55.3999 198.401 55.3999C199.267 55.3999 200.001 55.3001 200.601 55.1001C201.201 54.9001 201.701 54.6334 202.101 54.3V50.7C201.901 51.0333 201.601 51.3334 201.201 51.6001C200.867 51.8001 200.501 52 200.101 52.2C199.634 52.3333 199.167 52.3999 198.701 52.3999C198.167 52.3999 197.667 52.2667 197.201 52C196.734 51.7333 196.367 51.4 196.101 51C195.834 50.5333 195.701 49.9999 195.701 49.3999ZM208.501 35.6001H204.801V55.1001H208.501V35.6001ZM217.101 43.6001H212.601L207.701 48.3999L213.201 55.1001H217.601L212.201 48.3999L217.101 43.6001ZM219.101 39.3C219.101 39.8334 219.301 40.2999 219.701 40.7C220.167 41.1 220.701 41.3 221.301 41.3C221.901 41.3 222.401 41.1 222.801 40.7C223.267 40.2999 223.501 39.8334 223.501 39.3C223.501 38.7001 223.267 38.2001 222.801 37.8C222.401 37.4 221.901 37.2 221.301 37.2C220.701 37.2 220.167 37.4 219.701 37.8C219.301 38.2001 219.101 38.7001 219.101 39.3ZM223.101 43.6001H219.401V55.1001H223.101V43.6001ZM233.701 48.1001V55.1001H237.601V47.7C237.601 46.2999 237.267 45.2333 236.601 44.5C235.934 43.7 234.901 43.3 233.501 43.3C232.634 43.3 231.901 43.4667 231.301 43.8C230.767 44.2001 230.334 44.7001 230.001 45.3V43.6001H226.201V55.1001H230.001V48.1001C230.001 47.6334 230.067 47.2332 230.201 46.8999C230.401 46.6332 230.634 46.4 230.901 46.2C231.234 46.0666 231.601 46 232.001 46C232.601 46 233.034 46.1667 233.301 46.5C233.567 46.9 233.701 47.4334 233.701 48.1001ZM243.801 55.8999H240.101C240.234 56.8999 240.534 57.8001 241.001 58.6001C241.467 59.4001 242.134 59.9999 243.001 60.3999C243.934 60.8666 245.134 61.1001 246.601 61.1001C247.734 61.1001 248.801 60.8666 249.801 60.3999C250.734 59.9999 251.467 59.3332 252.001 58.3999C252.601 57.4666 252.901 56.2667 252.901 54.8V43.6001H249.301V54.8C249.301 55.5334 249.167 56.1334 248.901 56.6001C248.634 57.0668 248.301 57.4333 247.901 57.7C247.434 57.9 246.934 58 246.401 58C245.934 58 245.501 57.9334 245.101 57.8C244.701 57.6667 244.401 57.4334 244.201 57.1001C244.001 56.7668 243.867 56.3666 243.801 55.8999ZM239.901 49.2C239.901 50.4666 240.167 51.5332 240.701 52.3999C241.234 53.2666 241.901 53.9332 242.701 54.3999C243.567 54.7999 244.467 55 245.401 55C246.334 55 247.167 54.7999 247.901 54.3999C248.634 53.8666 249.234 53.1999 249.701 52.3999C250.101 51.4666 250.301 50.4 250.301 49.2C250.301 47.9333 250.101 46.8667 249.701 46C249.234 45.1333 248.634 44.4667 247.901 44C247.167 43.5333 246.334 43.3 245.401 43.3C244.467 43.3 243.567 43.5333 242.701 44C241.901 44.4 241.234 45.0332 240.701 45.8999C240.167 46.7666 239.901 47.8666 239.901 49.2ZM243.901 49.2C243.901 48.6 244.001 48.0668 244.201 47.6001C244.467 47.2001 244.801 46.9 245.201 46.7C245.667 46.5 246.134 46.3999 246.601 46.3999C246.934 46.3999 247.267 46.4668 247.601 46.6001C247.867 46.6668 248.134 46.8334 248.401 47.1001C248.667 47.3001 248.867 47.6 249.001 48C249.201 48.3333 249.301 48.7333 249.301 49.2C249.301 49.7999 249.167 50.2999 248.901 50.7C248.634 51.1666 248.301 51.5 247.901 51.7C247.501 51.9 247.067 52 246.601 52C246.134 52 245.667 51.8668 245.201 51.6001C244.801 51.4001 244.467 51.1 244.201 50.7C244.001 50.2999 243.901 49.7999 243.901 49.2Z" fill="#202020"/>
</svg>
