<svg width="154" height="27" viewBox="0 0 154 27" fill="none" xmlns="http://www.w3.org/2000/svg">
<path d="M5.09961 2.5H0.0996094V20H5.09961V2.5ZM15.6996 13V20H20.2996V12.6001C20.2996 11.2001 19.9663 10.1332 19.2996 9.3999C18.6996 8.5999 17.6329 8.2002 16.0996 8.2002C15.2329 8.2002 14.4997 8.3998 13.8997 8.7998C13.3663 9.13314 12.9329 9.60019 12.5996 10.2002V8.5H8.29962V20H12.5996V13C12.5996 12.6 12.6663 12.2332 12.7996 11.8999C12.933 11.6332 13.133 11.4331 13.3997 11.2998C13.6663 11.1665 13.9663 11.1001 14.2996 11.1001C14.833 11.1001 15.1997 11.2668 15.3997 11.6001C15.5997 11.9334 15.6996 12.4 15.6996 13ZM36.0996 0.5H31.6996V20H36.0996V0.5ZM22.3997 14.2998C22.3997 15.5665 22.6663 16.6668 23.1996 17.6001C23.733 18.4668 24.3996 19.1334 25.1996 19.6001C26.0663 20.0668 26.933 20.2998 27.7996 20.2998C28.7996 20.2998 29.6663 20.0333 30.3997 19.5C31.133 19.0333 31.733 18.3332 32.1996 17.3999C32.5996 16.5332 32.7996 15.4998 32.7996 14.2998C32.7996 13.0331 32.5996 11.9668 32.1996 11.1001C31.733 10.1668 31.133 9.46667 30.3997 9C29.6663 8.53333 28.7996 8.2998 27.7996 8.2998C26.933 8.2998 26.0663 8.4999 25.1996 8.8999C24.3996 9.36657 23.733 10.0332 23.1996 10.8999C22.6663 11.8332 22.3997 12.9665 22.3997 14.2998ZM26.9996 14.2998C26.9996 13.7665 27.0996 13.2999 27.2996 12.8999C27.4996 12.4999 27.7996 12.2 28.1996 12C28.533 11.7333 28.933 11.6001 29.3997 11.6001C29.733 11.6001 30.0996 11.7333 30.4996 12C30.833 12.2 31.133 12.4999 31.3997 12.8999C31.5997 13.2332 31.6996 13.6998 31.6996 14.2998C31.6996 14.8331 31.5997 15.2668 31.3997 15.6001C31.133 16.0001 30.833 16.3334 30.4996 16.6001C30.0996 16.8001 29.733 16.8999 29.3997 16.8999C28.933 16.8999 28.533 16.7667 28.1996 16.5C27.7996 16.3 27.4996 16.0001 27.2996 15.6001C27.0996 15.2001 26.9996 14.7665 26.9996 14.2998ZM38.4996 4.2998C38.4996 4.96647 38.733 5.4999 39.1996 5.8999C39.6663 6.36657 40.233 6.6001 40.8997 6.6001C41.5663 6.6001 42.1329 6.36657 42.5996 5.8999C43.1329 5.4999 43.3997 4.96647 43.3997 4.2998C43.3997 3.63314 43.1329 3.1002 42.5996 2.7002C42.1329 2.3002 41.5663 2.1001 40.8997 2.1001C40.233 2.1001 39.6663 2.3002 39.1996 2.7002C38.733 3.1002 38.4996 3.63314 38.4996 4.2998ZM42.9996 8.5H38.7996V20H42.9996V8.5ZM49.5996 20.8999H45.4996C45.5663 21.8999 45.833 22.8001 46.2996 23.6001C46.7663 24.4001 47.4663 24.9999 48.3997 25.3999C49.333 25.8666 50.5663 26.1001 52.0996 26.1001C53.3663 26.1001 54.4663 25.8666 55.3997 25.3999C56.3997 24.9999 57.1996 24.3332 57.7996 23.3999C58.3996 22.4666 58.6996 21.2665 58.6996 19.7998V8.5H54.4996V19.7998C54.4996 20.3998 54.3996 20.9332 54.1996 21.3999C53.9996 21.7999 53.6996 22.1332 53.2996 22.3999C52.8996 22.5999 52.433 22.7002 51.8997 22.7002C51.4997 22.7002 51.133 22.6333 50.7996 22.5C50.4663 22.3667 50.1996 22.1666 49.9996 21.8999C49.7996 21.6332 49.6663 21.2999 49.5996 20.8999ZM45.1996 14.1001C45.1996 15.3668 45.4663 16.4331 45.9996 17.2998C46.533 18.1665 47.1996 18.8002 47.9996 19.2002C48.8663 19.6669 49.7329 19.8999 50.5996 19.8999C51.5996 19.8999 52.4663 19.6669 53.1996 19.2002C53.933 18.7335 54.533 18.0669 54.9996 17.2002C55.3996 16.3335 55.5996 15.3001 55.5996 14.1001C55.5996 12.8334 55.3996 11.7666 54.9996 10.8999C54.533 10.0332 53.933 9.36657 53.1996 8.8999C52.4663 8.4999 51.5996 8.2998 50.5996 8.2998C49.7329 8.2998 48.8663 8.4999 47.9996 8.8999C47.1996 9.2999 46.533 9.93314 45.9996 10.7998C45.4663 11.6665 45.1996 12.7668 45.1996 14.1001ZM49.7996 14.1001C49.7996 13.5668 49.8996 13.1331 50.0996 12.7998C50.2996 12.3998 50.5996 12.0999 50.9996 11.8999C51.333 11.6999 51.733 11.6001 52.1996 11.6001C52.4663 11.6001 52.733 11.6665 52.9996 11.7998C53.2663 11.8665 53.533 12.0002 53.7996 12.2002C53.9996 12.4002 54.1663 12.6667 54.2996 13C54.433 13.2667 54.4996 13.6334 54.4996 14.1001C54.4996 14.6334 54.3996 15.0666 54.1996 15.3999C53.933 15.7332 53.633 16.0002 53.2996 16.2002C52.8996 16.3335 52.533 16.3999 52.1996 16.3999C51.733 16.3999 51.333 16.3335 50.9996 16.2002C50.5996 16.0002 50.2996 15.7332 50.0996 15.3999C49.8996 14.9999 49.7996 14.5668 49.7996 14.1001ZM60.7996 14.2998C60.7996 15.4998 61.0663 16.5332 61.5996 17.3999C62.1996 18.3332 62.9996 19.0333 63.9996 19.5C65.0663 20.0333 66.233 20.2998 67.4996 20.2998C68.833 20.2998 69.9996 20.0333 70.9996 19.5C71.9996 19.0333 72.7997 18.3332 73.3997 17.3999C73.9997 16.5332 74.2996 15.4998 74.2996 14.2998C74.2996 13.0331 73.9997 11.9668 73.3997 11.1001C72.7997 10.1668 71.9996 9.46667 70.9996 9C69.9996 8.46667 68.833 8.2002 67.4996 8.2002C66.233 8.2002 65.0663 8.46667 63.9996 9C62.9996 9.46667 62.1996 10.1668 61.5996 11.1001C61.0663 11.9668 60.7996 13.0331 60.7996 14.2998ZM65.1996 14.2998C65.1996 13.6998 65.2996 13.2332 65.4996 12.8999C65.6996 12.4999 65.9997 12.2 66.3997 12C66.733 11.8 67.0996 11.7002 67.4996 11.7002C67.8996 11.7002 68.2996 11.8 68.6996 12C69.033 12.2 69.2996 12.4999 69.4996 12.8999C69.6996 13.2332 69.7996 13.6998 69.7996 14.2998C69.7996 14.8331 69.6996 15.2668 69.4996 15.6001C69.2996 16.0001 69.033 16.3 68.6996 16.5C68.2996 16.7 67.8996 16.7998 67.4996 16.7998C67.0996 16.7998 66.733 16.7 66.3997 16.5C65.9997 16.3 65.6996 16.0001 65.4996 15.6001C65.2996 15.2668 65.1996 14.8331 65.1996 14.2998ZM95.7996 2.5L91.9996 12L88.1996 2.5H82.4996L91.9996 21.2002L101.5 2.5H95.7996ZM102.5 4.2998C102.5 4.96647 102.733 5.4999 103.2 5.8999C103.733 6.36657 104.333 6.6001 105 6.6001C105.666 6.6001 106.233 6.36657 106.7 5.8999C107.166 5.4999 107.4 4.96647 107.4 4.2998C107.4 3.63314 107.166 3.1002 106.7 2.7002C106.233 2.3002 105.666 2.1001 105 2.1001C104.333 2.1001 103.733 2.3002 103.2 2.7002C102.733 3.1002 102.5 3.63314 102.5 4.2998ZM107 8.5H102.9V20H107V8.5ZM109.3 14.2998C109.3 15.4998 109.566 16.5332 110.1 17.3999C110.7 18.3332 111.5 19.0333 112.5 19.5C113.566 20.0333 114.733 20.2998 116 20.2998C117.333 20.2998 118.5 20.0333 119.5 19.5C120.5 19.0333 121.3 18.3332 121.9 17.3999C122.5 16.5332 122.8 15.4998 122.8 14.2998C122.8 13.0331 122.5 11.9668 121.9 11.1001C121.3 10.1668 120.5 9.46667 119.5 9C118.5 8.46667 117.333 8.2002 116 8.2002C114.733 8.2002 113.566 8.46667 112.5 9C111.5 9.46667 110.7 10.1668 110.1 11.1001C109.566 11.9668 109.3 13.0331 109.3 14.2998ZM113.7 14.2998C113.7 13.6998 113.8 13.2332 114 12.8999C114.2 12.4999 114.5 12.2 114.9 12C115.233 11.8 115.6 11.7002 116 11.7002C116.4 11.7002 116.8 11.8 117.2 12C117.533 12.2 117.8 12.4999 118 12.8999C118.2 13.2332 118.3 13.6998 118.3 14.2998C118.3 14.8331 118.2 15.2668 118 15.6001C117.8 16.0001 117.533 16.3 117.2 16.5C116.8 16.7 116.4 16.7998 116 16.7998C115.6 16.7998 115.233 16.7 114.9 16.5C114.5 16.3 114.2 16.0001 114 15.6001C113.8 15.2668 113.7 14.8331 113.7 14.2998ZM129.2 0.5H124.9V20H129.2V0.5ZM138.2 20.2998C139.733 20.2998 141.033 19.9999 142.1 19.3999C143.166 18.7999 144 17.9002 144.6 16.7002L140.7 15.8999C140.433 16.3666 140.1 16.6999 139.7 16.8999C139.233 17.1666 138.7 17.2998 138.1 17.2998C137.566 17.2998 137.133 17.1666 136.8 16.8999C136.4 16.6999 136.133 16.3666 136 15.8999C135.8 15.4332 135.7 14.8669 135.7 14.2002C135.7 13.4669 135.8 12.8666 136 12.3999C136.133 11.9332 136.366 11.5999 136.7 11.3999C137.033 11.1332 137.466 11 138 11C138.4 11 138.733 11.0998 139 11.2998C139.266 11.4331 139.5 11.6667 139.7 12C139.833 12.3333 139.9 12.7335 139.9 13.2002C139.9 13.3335 139.866 13.4668 139.8 13.6001C139.733 13.8001 139.666 13.9668 139.6 14.1001L140.5 12.8999H133.7V15.1001H144.5C144.5 14.9668 144.5 14.8001 144.5 14.6001C144.5 14.4668 144.5 14.3001 144.5 14.1001C144.5 12.8334 144.266 11.7666 143.8 10.8999C143.266 10.0332 142.533 9.36657 141.6 8.8999C140.666 8.4999 139.5 8.2998 138.1 8.2998C136.7 8.2998 135.5 8.53333 134.5 9C133.5 9.46667 132.733 10.1668 132.2 11.1001C131.666 11.9668 131.4 13.0331 131.4 14.2998C131.4 15.4998 131.666 16.5332 132.2 17.3999C132.733 18.3332 133.5 19.0333 134.5 19.5C135.566 20.0333 136.8 20.2998 138.2 20.2998ZM153.8 8.5H145.5V12H153.8V8.5ZM151.7 4.5H147.6V20H151.7V4.5Z" fill="#202020"/>
</svg>
