<svg width="232" height="22" viewBox="0 0 232 22" fill="none" xmlns="http://www.w3.org/2000/svg">
<path d="M5.00018 2.5H0.700195V20H5.00018V2.5ZM15.8002 13V20H19.7002V12.6C19.7002 11.2 19.3669 10.1334 18.7002 9.40002C18.0335 8.60002 17.0002 8.19995 15.6002 8.19995C14.7335 8.19995 14.0002 8.40005 13.4002 8.80005C12.8668 9.13338 12.4335 9.59995 12.1002 10.2V8.5H8.30017V20H12.1002V13C12.1002 12.5333 12.1668 12.1334 12.3002 11.8C12.5002 11.5334 12.7335 11.3 13.0002 11.1C13.3335 10.9666 13.7002 10.9 14.1002 10.9C14.7002 10.9 15.1335 11.0667 15.4002 11.4C15.6668 11.8 15.8002 12.3333 15.8002 13ZM35.2002 0.5H31.4002V20H35.2002V0.5ZM22.0002 14.3C22.0002 15.5667 22.2668 16.6333 22.8002 17.5C23.3335 18.3667 24.0002 19.0333 24.8002 19.5C25.6668 19.9667 26.5669 20.2 27.5002 20.2C28.4335 20.2 29.2668 19.9667 30.0002 19.5C30.7335 19.0333 31.3335 18.3667 31.8002 17.5C32.2002 16.5667 32.4002 15.4666 32.4002 14.2C32.4002 13 32.2002 11.9333 31.8002 11C31.3335 10.1333 30.7335 9.46667 30.0002 9C29.2668 8.46667 28.4335 8.19995 27.5002 8.19995C26.5669 8.19995 25.6668 8.46667 24.8002 9C24.0002 9.46667 23.3335 10.1333 22.8002 11C22.2668 11.8667 22.0002 12.9333 22.0002 14.2V14.3ZM26.0002 14.3C26.0002 13.7 26.1002 13.2 26.3002 12.8C26.5668 12.3334 26.9002 12 27.3002 11.8C27.7668 11.5334 28.2335 11.4 28.7002 11.4C29.1669 11.4 29.6002 11.5334 30.0002 11.8C30.4002 12 30.7335 12.3334 31.0002 12.8C31.2668 13.2 31.4002 13.7 31.4002 14.3C31.4002 14.9667 31.2668 15.5 31.0002 15.9C30.7335 16.3667 30.4002 16.7 30.0002 16.9C29.6002 17.1667 29.1669 17.3 28.7002 17.3C28.2335 17.3 27.7668 17.1667 27.3002 16.9C26.9002 16.7 26.5668 16.3667 26.3002 15.9C26.1002 15.5 26.0002 14.9667 26.0002 14.3ZM37.9002 4.30005C37.9002 4.90005 38.1002 5.40005 38.5002 5.80005C38.9669 6.13338 39.5002 6.30005 40.1002 6.30005C40.7002 6.30005 41.2002 6.13338 41.6002 5.80005C42.0669 5.40005 42.3002 4.90005 42.3002 4.30005C42.3002 3.70005 42.0669 3.20005 41.6002 2.80005C41.2002 2.46672 40.7002 2.30005 40.1002 2.30005C39.5002 2.30005 38.9669 2.46672 38.5002 2.80005C38.1002 3.20005 37.9002 3.70005 37.9002 4.30005ZM41.9002 8.59998H38.2002V20.1H41.9002V8.59998ZM47.5002 8.59998H43.4002L50.1002 21.4L56.8002 8.59998H52.7002L50.1002 15L47.5002 8.59998ZM58.0002 4.19995C58.0002 4.86662 58.2002 5.36662 58.6002 5.69995C59.0669 6.09995 59.6002 6.30005 60.2002 6.30005C60.8002 6.30005 61.3002 6.09995 61.7002 5.69995C62.1669 5.36662 62.4002 4.86662 62.4002 4.19995C62.4002 3.66662 62.1669 3.20005 61.7002 2.80005C61.3002 2.40005 60.8002 2.19995 60.2002 2.19995C59.6002 2.19995 59.0669 2.40005 58.6002 2.80005C58.2002 3.20005 58.0002 3.66662 58.0002 4.19995ZM62.0002 8.59998H58.3002V20.1H62.0002V8.59998ZM77.6002 0.599976H73.8002V20.1H77.6002V0.599976ZM64.4002 14.3C64.4002 15.5667 64.6669 16.6666 65.2002 17.6C65.7335 18.4666 66.4002 19.1333 67.2002 19.6C68.0669 20.0666 68.9668 20.3 69.9002 20.3C70.8335 20.3 71.6668 20.0666 72.4002 19.6C73.2002 19.1333 73.8002 18.4333 74.2002 17.5C74.6669 16.6333 74.9002 15.5667 74.9002 14.3C74.9002 13.1 74.6669 12.0333 74.2002 11.1C73.8002 10.2333 73.2002 9.53333 72.4002 9C71.6668 8.53333 70.8335 8.30005 69.9002 8.30005C68.9668 8.30005 68.0669 8.53333 67.2002 9C66.4002 9.46667 65.7335 10.1333 65.2002 11C64.6669 11.9333 64.4002 13.0334 64.4002 14.3ZM68.4002 14.3C68.4002 13.7 68.5335 13.2 68.8002 12.8C69.0002 12.3334 69.3335 11.9666 69.8002 11.7C70.2002 11.5 70.6335 11.4 71.1002 11.4C71.5669 11.4 72.0002 11.5 72.4002 11.7C72.8002 11.9666 73.1335 12.3 73.4002 12.7C73.6668 13.1666 73.8002 13.7 73.8002 14.3C73.8002 14.9 73.6668 15.4334 73.4002 15.9C73.1335 16.3667 72.8002 16.7 72.4002 16.9C72.0002 17.1667 71.5669 17.3 71.1002 17.3C70.6335 17.3 70.2002 17.1667 69.8002 16.9C69.3335 16.6334 69.0002 16.3 68.8002 15.9C68.5335 15.4334 68.4002 14.9 68.4002 14.3ZM84.5002 15.6V8.59998H80.5002V16C80.5002 17.3333 80.8335 18.4 81.5002 19.2C82.1668 20 83.2002 20.4 84.6002 20.4C85.4669 20.4 86.2002 20.2 86.8002 19.8C87.3335 19.4667 87.7669 19 88.1002 18.4V20.1H91.9002V8.59998H88.1002V15.6C88.1002 16 88.0335 16.3666 87.9002 16.7C87.7002 17.0333 87.4669 17.3 87.2002 17.5C86.9335 17.6333 86.5669 17.7 86.1002 17.7C85.5002 17.7 85.0668 17.5333 84.8002 17.2C84.6002 16.8 84.5002 16.2666 84.5002 15.6ZM97.8002 16.5C97.8002 16.1667 97.8669 15.9334 98.0002 15.8C98.1335 15.6 98.3335 15.4334 98.6002 15.3C98.8669 15.2334 99.2335 15.2 99.7002 15.2C100.3 15.2 100.834 15.2667 101.3 15.4C101.834 15.6 102.3 15.8333 102.7 16.1V14.4C102.5 14.2 102.2 14 101.8 13.8C101.4 13.6 100.934 13.4334 100.4 13.3C99.8668 13.1667 99.2335 13.1 98.5002 13.1C97.1002 13.1 96.0002 13.4333 95.2002 14.1C94.4002 14.7 94.0002 15.5666 94.0002 16.7C94.0002 17.5 94.2002 18.1666 94.6002 18.7C94.9335 19.2333 95.4335 19.6334 96.1002 19.9C96.7002 20.1667 97.3669 20.3 98.1002 20.3C98.8335 20.3 99.5335 20.1667 100.2 19.9C100.8 19.6334 101.3 19.2667 101.7 18.8C102.1 18.2667 102.3 17.6334 102.3 16.9L101.9 15.4C101.9 15.9334 101.8 16.4 101.6 16.8C101.334 17.1334 101.034 17.4 100.7 17.6C100.3 17.8 99.9002 17.9 99.5002 17.9C99.1668 17.9 98.8669 17.8333 98.6002 17.7C98.4002 17.5666 98.2002 17.4 98.0002 17.2C97.8669 17 97.8002 16.7667 97.8002 16.5ZM94.9002 9.59998L96.1002 12.1C96.3002 12.0333 96.5668 11.9 96.9002 11.7C97.3002 11.5666 97.7335 11.4334 98.2002 11.3C98.7335 11.1667 99.2335 11.1 99.7002 11.1C100.1 11.1 100.434 11.1333 100.7 11.2C100.967 11.2666 101.2 11.3667 101.4 11.5C101.534 11.7 101.667 11.9 101.8 12.1C101.867 12.3 101.9 12.5334 101.9 12.8V20.1H105.5V12C105.5 11.2 105.267 10.5333 104.8 10C104.334 9.4 103.7 8.96662 102.9 8.69995C102.1 8.36662 101.2 8.19995 100.2 8.19995C99.1335 8.19995 98.1335 8.36662 97.2002 8.69995C96.2669 8.96662 95.5002 9.26664 94.9002 9.59998ZM112.2 0.599976H108.4V20.1H112.2V0.599976ZM125.8 16.6V20.1H134.6V16.6H125.8ZM125.8 2.59998V6H134.6V2.59998H125.8ZM125.8 9.19995V12.6H134.2V9.19995H125.8ZM127 2.59998H123V20.1H127V2.59998ZM154.2 2.59998H150.1V12.4L138 1.69995V20.1H142.1V10.2L154.2 21V2.59998ZM166.6 10.5V13.7H171.2C171.067 14.1666 170.867 14.6 170.6 15C170.333 15.4 170.034 15.7333 169.7 16C169.3 16.3333 168.834 16.5666 168.3 16.7C167.834 16.8333 167.267 16.9 166.6 16.9C165.6 16.9 164.7 16.7 163.9 16.3C163.1 15.7667 162.467 15.1 162 14.3C161.534 13.4334 161.3 12.4334 161.3 11.3C161.3 10.1 161.534 9.10005 162 8.30005C162.467 7.50005 163.1 6.9 163.9 6.5C164.7 6.03333 165.6 5.80005 166.6 5.80005C167.6 5.80005 168.433 6.03333 169.1 6.5C169.833 6.96667 170.4 7.56672 170.8 8.30005L174.5 6.30005C173.967 5.50005 173.3 4.76664 172.5 4.09998C171.767 3.49998 170.9 3.03328 169.9 2.69995C168.967 2.29995 167.867 2.09998 166.6 2.09998C165.2 2.09998 163.934 2.33338 162.8 2.80005C161.6 3.26672 160.567 3.86664 159.7 4.59998C158.767 5.39998 158.067 6.36667 157.6 7.5C157.133 8.63333 156.9 9.90005 156.9 11.3C156.9 12.7 157.133 13.9666 157.6 15.1C158.067 16.2333 158.733 17.2 159.6 18C160.467 18.8667 161.467 19.5333 162.6 20C163.8 20.4 165.1 20.6 166.5 20.6C167.967 20.6 169.267 20.3334 170.4 19.8C171.534 19.2667 172.5 18.5333 173.3 17.6C174.034 16.6666 174.6 15.6 175 14.4C175.334 13.2 175.467 11.9 175.4 10.5H166.6ZM182.5 2.59998H178.3V20L189.5 20.1V16.4H182.5V2.59998ZM195.8 2.59998H191.5V20.1H195.8V2.59998ZM201.4 14L198.5 16.1C198.9 16.9 199.433 17.6667 200.1 18.4C200.833 19.1334 201.7 19.7 202.7 20.1C203.634 20.5 204.667 20.7 205.8 20.7C206.667 20.7 207.467 20.5667 208.2 20.3C209 20.1 209.7 19.7667 210.3 19.3C210.9 18.7667 211.367 18.1667 211.7 17.5C212.1 16.8333 212.3 16.0666 212.3 15.2C212.3 14.4 212.167 13.7333 211.9 13.2C211.7 12.6 211.4 12.1 211 11.7C210.6 11.2333 210.133 10.8666 209.6 10.6C209.067 10.2666 208.467 10 207.8 9.80005C207 9.46672 206.3 9.2 205.7 9C205.167 8.73333 204.734 8.46662 204.4 8.19995C204.134 7.86662 204 7.49998 204 7.09998C204 6.69998 204.134 6.39995 204.4 6.19995C204.734 5.93328 205.2 5.80005 205.8 5.80005C206.267 5.80005 206.7 5.86667 207.1 6C207.5 6.2 207.833 6.46672 208.1 6.80005C208.433 7.06672 208.734 7.40005 209 7.80005L212.2 6C211.934 5.4 211.5 4.83338 210.9 4.30005C210.367 3.70005 209.667 3.20005 208.8 2.80005C207.934 2.40005 206.934 2.19995 205.8 2.19995C204.667 2.19995 203.634 2.40005 202.7 2.80005C201.767 3.20005 201.034 3.76667 200.5 4.5C199.967 5.3 199.7 6.19995 199.7 7.19995C199.7 8.06662 199.833 8.80002 200.1 9.40002C200.433 10 200.834 10.5333 201.3 11C201.834 11.4 202.367 11.7333 202.9 12C203.434 12.2667 203.9 12.4666 204.3 12.6C205.167 12.9333 205.867 13.2333 206.4 13.5C206.867 13.7 207.234 13.9667 207.5 14.3C207.7 14.5667 207.8 14.9 207.8 15.3C207.8 15.9 207.6 16.3333 207.2 16.6C206.8 16.9333 206.3 17.1 205.7 17.1C205.1 17.1 204.534 16.9666 204 16.7C203.534 16.4333 203.067 16.0666 202.6 15.6C202.133 15.1333 201.734 14.6 201.4 14ZM216.3 9V12.8H229.5V9H216.3ZM231.1 2.59998H226.9V20.1H231.1V2.59998ZM219.4 2.59998H215.1V20.1H219.4V2.59998Z" fill="#202020"/>
</svg>
