<svg width="206" height="22" viewBox="0 0 206 22" fill="none" xmlns="http://www.w3.org/2000/svg">
<path d="M5.00018 2.5H0.700195V20H5.00018V2.5ZM15.8002 13V20H19.7002V12.6C19.7002 11.2 19.3669 10.1334 18.7002 9.40002C18.0335 8.60002 17.0002 8.19995 15.6002 8.19995C14.7335 8.19995 14.0002 8.40005 13.4002 8.80005C12.8669 9.13338 12.4335 9.59995 12.1002 10.2V8.5H8.30017V20H12.1002V13C12.1002 12.5333 12.1668 12.1334 12.3002 11.8C12.5002 11.5334 12.7335 11.3 13.0002 11.1C13.3335 10.9666 13.7002 10.9 14.1002 10.9C14.7002 10.9 15.1335 11.0667 15.4002 11.4C15.6669 11.8 15.8002 12.3333 15.8002 13ZM35.2002 0.5H31.4002V20H35.2002V0.5ZM22.0002 14.3C22.0002 15.5667 22.2668 16.6333 22.8002 17.5C23.3335 18.3667 24.0002 19.0333 24.8002 19.5C25.6668 19.9667 26.5669 20.2 27.5002 20.2C28.4335 20.2 29.2668 19.9667 30.0002 19.5C30.7335 19.0333 31.3335 18.3667 31.8002 17.5C32.2002 16.5667 32.4002 15.4666 32.4002 14.2C32.4002 13 32.2002 11.9333 31.8002 11C31.3335 10.1333 30.7335 9.46667 30.0002 9C29.2668 8.46667 28.4335 8.19995 27.5002 8.19995C26.5669 8.19995 25.6668 8.46667 24.8002 9C24.0002 9.46667 23.3335 10.1333 22.8002 11C22.2668 11.8667 22.0002 12.9333 22.0002 14.2V14.3ZM26.0002 14.3C26.0002 13.7 26.1002 13.2 26.3002 12.8C26.5668 12.3334 26.9002 12 27.3002 11.8C27.7668 11.5334 28.2335 11.4 28.7002 11.4C29.1669 11.4 29.6002 11.5334 30.0002 11.8C30.4002 12 30.7335 12.3334 31.0002 12.8C31.2668 13.2 31.4002 13.7 31.4002 14.3C31.4002 14.9667 31.2668 15.5 31.0002 15.9C30.7335 16.3667 30.4002 16.7 30.0002 16.9C29.6002 17.1667 29.1669 17.3 28.7002 17.3C28.2335 17.3 27.7668 17.1667 27.3002 16.9C26.9002 16.7 26.5668 16.3667 26.3002 15.9C26.1002 15.5 26.0002 14.9667 26.0002 14.3ZM37.9002 4.30005C37.9002 4.90005 38.1002 5.40005 38.5002 5.80005C38.9669 6.13338 39.5002 6.30005 40.1002 6.30005C40.7002 6.30005 41.2002 6.13338 41.6002 5.80005C42.0668 5.40005 42.3002 4.90005 42.3002 4.30005C42.3002 3.70005 42.0668 3.20005 41.6002 2.80005C41.2002 2.46672 40.7002 2.30005 40.1002 2.30005C39.5002 2.30005 38.9669 2.46672 38.5002 2.80005C38.1002 3.20005 37.9002 3.70005 37.9002 4.30005ZM41.9002 8.59998H38.2002V20.1H41.9002V8.59998ZM47.5002 8.59998H43.4002L50.1002 21.4L56.8002 8.59998H52.7002L50.1002 15L47.5002 8.59998ZM58.0002 4.19995C58.0002 4.86662 58.2002 5.36662 58.6002 5.69995C59.0668 6.09995 59.6002 6.30005 60.2002 6.30005C60.8002 6.30005 61.3002 6.09995 61.7002 5.69995C62.1669 5.36662 62.4002 4.86662 62.4002 4.19995C62.4002 3.66662 62.1669 3.20005 61.7002 2.80005C61.3002 2.40005 60.8002 2.19995 60.2002 2.19995C59.6002 2.19995 59.0668 2.40005 58.6002 2.80005C58.2002 3.20005 58.0002 3.66662 58.0002 4.19995ZM62.0002 8.59998H58.3002V20.1H62.0002V8.59998ZM77.6002 0.599976H73.8002V20.1H77.6002V0.599976ZM64.4002 14.3C64.4002 15.5667 64.6669 16.6666 65.2002 17.6C65.7335 18.4666 66.4002 19.1333 67.2002 19.6C68.0669 20.0666 68.9669 20.3 69.9002 20.3C70.8335 20.3 71.6669 20.0666 72.4002 19.6C73.2002 19.1333 73.8002 18.4333 74.2002 17.5C74.6669 16.6333 74.9002 15.5667 74.9002 14.3C74.9002 13.1 74.6669 12.0333 74.2002 11.1C73.8002 10.2333 73.2002 9.53333 72.4002 9C71.6669 8.53333 70.8335 8.30005 69.9002 8.30005C68.9669 8.30005 68.0669 8.53333 67.2002 9C66.4002 9.46667 65.7335 10.1333 65.2002 11C64.6669 11.9333 64.4002 13.0334 64.4002 14.3ZM68.4002 14.3C68.4002 13.7 68.5335 13.2 68.8002 12.8C69.0002 12.3334 69.3335 11.9666 69.8002 11.7C70.2002 11.5 70.6335 11.4 71.1002 11.4C71.5668 11.4 72.0002 11.5 72.4002 11.7C72.8002 11.9666 73.1335 12.3 73.4002 12.7C73.6669 13.1666 73.8002 13.7 73.8002 14.3C73.8002 14.9 73.6669 15.4334 73.4002 15.9C73.1335 16.3667 72.8002 16.7 72.4002 16.9C72.0002 17.1667 71.5668 17.3 71.1002 17.3C70.6335 17.3 70.2002 17.1667 69.8002 16.9C69.3335 16.6334 69.0002 16.3 68.8002 15.9C68.5335 15.4334 68.4002 14.9 68.4002 14.3ZM84.5002 15.6V8.59998H80.5002V16C80.5002 17.3333 80.8335 18.4 81.5002 19.2C82.1668 20 83.2002 20.4 84.6002 20.4C85.4668 20.4 86.2002 20.2 86.8002 19.8C87.3335 19.4667 87.7668 19 88.1002 18.4V20.1H91.9002V8.59998H88.1002V15.6C88.1002 16 88.0335 16.3666 87.9002 16.7C87.7002 17.0333 87.4669 17.3 87.2002 17.5C86.9335 17.6333 86.5668 17.7 86.1002 17.7C85.5002 17.7 85.0668 17.5333 84.8002 17.2C84.6002 16.8 84.5002 16.2666 84.5002 15.6ZM97.8002 16.5C97.8002 16.1667 97.8669 15.9334 98.0002 15.8C98.1335 15.6 98.3335 15.4334 98.6002 15.3C98.8668 15.2334 99.2335 15.2 99.7002 15.2C100.3 15.2 100.834 15.2667 101.3 15.4C101.834 15.6 102.3 15.8333 102.7 16.1V14.4C102.5 14.2 102.2 14 101.8 13.8C101.4 13.6 100.934 13.4334 100.4 13.3C99.8669 13.1667 99.2335 13.1 98.5002 13.1C97.1002 13.1 96.0002 13.4333 95.2002 14.1C94.4002 14.7 94.0002 15.5666 94.0002 16.7C94.0002 17.5 94.2002 18.1666 94.6002 18.7C94.9335 19.2333 95.4335 19.6334 96.1002 19.9C96.7002 20.1667 97.3668 20.3 98.1002 20.3C98.8335 20.3 99.5335 20.1667 100.2 19.9C100.8 19.6334 101.3 19.2667 101.7 18.8C102.1 18.2667 102.3 17.6334 102.3 16.9L101.9 15.4C101.9 15.9334 101.8 16.4 101.6 16.8C101.333 17.1334 101.034 17.4 100.7 17.6C100.3 17.8 99.9002 17.9 99.5002 17.9C99.1668 17.9 98.8668 17.8333 98.6002 17.7C98.4002 17.5666 98.2002 17.4 98.0002 17.2C97.8669 17 97.8002 16.7667 97.8002 16.5ZM94.9002 9.59998L96.1002 12.1C96.3002 12.0333 96.5669 11.9 96.9002 11.7C97.3002 11.5666 97.7335 11.4334 98.2002 11.3C98.7335 11.1667 99.2335 11.1 99.7002 11.1C100.1 11.1 100.434 11.1333 100.7 11.2C100.967 11.2666 101.2 11.3667 101.4 11.5C101.534 11.7 101.667 11.9 101.8 12.1C101.867 12.3 101.9 12.5334 101.9 12.8V20.1H105.5V12C105.5 11.2 105.267 10.5333 104.8 10C104.334 9.4 103.7 8.96662 102.9 8.69995C102.1 8.36662 101.2 8.19995 100.2 8.19995C99.1335 8.19995 98.1335 8.36662 97.2002 8.69995C96.2669 8.96662 95.5002 9.26664 94.9002 9.59998ZM112.2 0.599976H108.4V20.1H112.2V0.599976ZM131.7 12.2H127.3L132.3 20.1H137.2L131.7 12.2ZM127.2 2.59998H123V20.1H127.2V2.59998ZM125.6 2.59998V6.19995H129C129.6 6.19995 130.1 6.26669 130.5 6.40002C130.9 6.60002 131.2 6.90005 131.4 7.30005C131.667 7.63338 131.8 8.03333 131.8 8.5C131.8 8.96667 131.667 9.36662 131.4 9.69995C131.2 10.0333 130.9 10.3 130.5 10.5C130.1 10.7 129.6 10.8 129 10.8H125.6V14H129.3C130.834 14 132.1 13.7667 133.1 13.3C134.1 12.8334 134.867 12.1667 135.4 11.3C135.867 10.4334 136.1 9.43338 136.1 8.30005C136.1 7.16672 135.867 6.16672 135.4 5.30005C134.867 4.43338 134.1 3.76672 133.1 3.30005C132.1 2.83338 130.834 2.59998 129.3 2.59998H125.6ZM143.3 2.59998H139V14.3C139 15.4334 139.2 16.4 139.6 17.2C139.933 18 140.433 18.7 141.1 19.3C141.7 19.7667 142.434 20.1334 143.3 20.4C144.167 20.6667 145.1 20.8 146.1 20.8C147.033 20.8 147.934 20.6667 148.8 20.4C149.667 20.1334 150.433 19.7667 151.1 19.3C151.7 18.7 152.2 18 152.6 17.2C152.933 16.4 153.1 15.4334 153.1 14.3V2.59998H148.9V14C148.9 14.9333 148.667 15.6666 148.2 16.2C147.734 16.7333 147.033 17 146.1 17C145.167 17 144.467 16.7333 144 16.2C143.534 15.6666 143.3 14.9333 143.3 14V2.59998ZM158.6 14L155.7 16.1C156.1 16.9666 156.633 17.7334 157.3 18.4C158.034 19.1334 158.9 19.7 159.9 20.1C160.834 20.5 161.867 20.7 163 20.7C163.867 20.7 164.667 20.6 165.4 20.4C166.2 20.1334 166.9 19.7667 167.5 19.3C168.1 18.8334 168.567 18.2666 168.9 17.6C169.3 16.8666 169.5 16.0666 169.5 15.2C169.5 14.4666 169.367 13.8 169.1 13.2C168.9 12.6666 168.6 12.1666 168.2 11.7C167.8 11.3 167.334 10.9333 166.8 10.6C166.267 10.2666 165.667 10 165 9.80005C164.2 9.53338 163.5 9.26667 162.9 9C162.367 8.73333 161.933 8.46662 161.6 8.19995C161.333 7.86662 161.2 7.49998 161.2 7.09998C161.2 6.76664 161.333 6.46662 161.6 6.19995C161.933 5.93328 162.4 5.80005 163 5.80005C163.467 5.80005 163.9 5.89998 164.3 6.09998C164.7 6.23331 165.034 6.46672 165.3 6.80005C165.633 7.06672 165.934 7.43336 166.2 7.90002L169.4 6.09998C169.134 5.43331 168.7 4.83338 168.1 4.30005C167.567 3.70005 166.867 3.20005 166 2.80005C165.134 2.40005 164.134 2.19995 163 2.19995C161.867 2.19995 160.834 2.43336 159.9 2.90002C158.967 3.23336 158.234 3.79998 157.7 4.59998C157.167 5.33331 156.9 6.19995 156.9 7.19995C156.9 8.06662 157.034 8.80002 157.3 9.40002C157.633 10.0667 158.034 10.6 158.5 11C159.034 11.4 159.567 11.7333 160.1 12C160.633 12.2667 161.1 12.4666 161.5 12.6C162.367 12.9333 163.067 13.2333 163.6 13.5C164.067 13.7667 164.434 14.0334 164.7 14.3C164.9 14.5667 165 14.9334 165 15.4C165 15.9334 164.8 16.3333 164.4 16.6C164 16.9333 163.5 17.1 162.9 17.1C162.3 17.1 161.734 16.9666 161.2 16.7C160.734 16.5 160.267 16.1333 159.8 15.6C159.334 15.1333 158.933 14.6 158.6 14ZM185.8 8.59998H178.1V11.8H185.8V8.59998ZM183.7 4.59998H180.1V20.1H183.7V4.59998ZM187.2 4.19995C187.2 4.86662 187.4 5.36662 187.8 5.69995C188.267 6.09995 188.8 6.30005 189.4 6.30005C190 6.30005 190.5 6.09995 190.9 5.69995C191.367 5.36662 191.6 4.86662 191.6 4.19995C191.6 3.66662 191.367 3.20005 190.9 2.80005C190.5 2.40005 190 2.19995 189.4 2.19995C188.8 2.19995 188.267 2.40005 187.8 2.80005C187.4 3.20005 187.2 3.66662 187.2 4.19995ZM191.2 8.59998H187.5V20.1H191.2V8.59998ZM198.1 0.599976H194.3V20.1H198.1V0.599976ZM200.8 4.19995C200.8 4.86662 201.034 5.36662 201.5 5.69995C201.9 6.09995 202.4 6.30005 203 6.30005C203.6 6.30005 204.133 6.09995 204.6 5.69995C205 5.36662 205.2 4.86662 205.2 4.19995C205.2 3.66662 205 3.20005 204.6 2.80005C204.133 2.40005 203.6 2.19995 203 2.19995C202.4 2.19995 201.9 2.40005 201.5 2.80005C201.034 3.20005 200.8 3.66662 200.8 4.19995ZM204.8 8.59998H201.2V20.1H204.8V8.59998Z" fill="#202020"/>
</svg>
