<svg width="62" height="13" viewBox="0 0 62 13" fill="none" xmlns="http://www.w3.org/2000/svg">
<path d="M1.49963 1.30078V12.0007H0.0996094V1.30078H1.49963ZM3.89966 4.10083H5.19958V5.10083C5.79958 4.30083 6.59961 3.90063 7.59961 3.90063C9.26628 3.90063 10.0996 4.86745 10.0996 6.80078V12.0007H8.79968V6.80078C8.73302 6.20078 8.59966 5.7674 8.39966 5.50073C8.13299 5.23407 7.73292 5.10083 7.19958 5.10083C6.73292 5.10083 6.33297 5.20063 5.99963 5.40063C5.6663 5.6673 5.39958 6.00063 5.19958 6.40063V12.0007H3.89966V4.10083ZM11.7997 8.10083V8.00073C11.7997 6.80073 12.0996 5.83416 12.6996 5.10083C13.2996 4.3675 14.0663 4.00073 14.9996 4.00073C15.8663 4.00073 16.5996 4.30063 17.1996 4.90063V0.800781H18.4996V12.0007H17.2997L17.1996 11.2007C16.6663 11.8674 15.8997 12.2007 14.8997 12.2007C14.033 12.2007 13.2996 11.8007 12.6996 11.0007C12.0996 10.2674 11.7997 9.30083 11.7997 8.10083ZM13.1996 8.20068C13.1996 9.06735 13.3663 9.76745 13.6996 10.3008C14.0996 10.7674 14.633 11.0007 15.2997 11.0007C16.1663 11.0007 16.7996 10.634 17.1996 9.90063V6.20068C16.7329 5.46735 16.0997 5.10083 15.2997 5.10083C14.633 5.10083 14.0996 5.3673 13.6996 5.90063C13.3663 6.3673 13.1996 7.13402 13.1996 8.20068ZM22.0996 4.10083V12.0007H20.6996V4.10083H22.0996ZM20.6996 2.00073C20.6996 1.80073 20.7663 1.60063 20.8997 1.40063C21.033 1.2673 21.233 1.20068 21.4996 1.20068C21.7663 1.20068 21.9663 1.2673 22.0996 1.40063C22.2329 1.60063 22.2997 1.80073 22.2997 2.00073C22.2997 2.20073 22.2329 2.3674 22.0996 2.50073C21.9663 2.70073 21.7663 2.80078 21.4996 2.80078C21.233 2.80078 21.033 2.70073 20.8997 2.50073C20.7663 2.3674 20.6996 2.20073 20.6996 2.00073ZM24.8997 4.10083L26.8997 10.2007L28.8997 4.10083H30.2997L27.3997 12.0007H26.3997L23.4996 4.10083H24.8997ZM33.0996 4.10083V12.0007H31.6996V4.10083H33.0996ZM31.5996 2.00073C31.5996 1.80073 31.6663 1.60063 31.7997 1.40063C31.933 1.2673 32.133 1.20068 32.3997 1.20068C32.6663 1.20068 32.8663 1.2673 32.9996 1.40063C33.133 1.60063 33.1996 1.80073 33.1996 2.00073C33.1996 2.20073 33.133 2.3674 32.9996 2.50073C32.8663 2.70073 32.6663 2.80078 32.3997 2.80078C32.133 2.80078 31.933 2.70073 31.7997 2.50073C31.6663 2.3674 31.5996 2.20073 31.5996 2.00073ZM34.8997 8.10083V8.00073C34.8997 6.80073 35.1997 5.83416 35.7997 5.10083C36.3997 4.3675 37.1663 4.00073 38.0996 4.00073C39.0329 4.00073 39.7663 4.30063 40.2997 4.90063V0.800781H41.5996V12.0007H40.3997L40.2997 11.2007C39.7663 11.8674 38.9996 12.2007 37.9996 12.2007C37.133 12.2007 36.3997 11.8007 35.7997 11.0007C35.1997 10.2674 34.8997 9.30083 34.8997 8.10083ZM36.2997 8.20068C36.2997 9.06735 36.4664 9.76745 36.7997 10.3008C37.1997 10.7674 37.733 11.0007 38.3997 11.0007C39.2663 11.0007 39.8997 10.634 40.2997 9.90063V6.20068C39.8997 5.46735 39.2663 5.10083 38.3997 5.10083C37.733 5.10083 37.1997 5.3673 36.7997 5.90063C36.4664 6.3673 36.2997 7.13402 36.2997 8.20068ZM48.5996 12.0007V11.2007C48.0663 11.8674 47.2997 12.2007 46.2997 12.2007C45.433 12.2007 44.7997 11.934 44.3997 11.4006C43.933 10.934 43.6996 10.2341 43.6996 9.30078V4.10083H44.9996V9.20068C44.9996 10.4007 45.4996 11.0007 46.4996 11.0007C47.5663 11.0007 48.2663 10.634 48.5996 9.90063V4.10083H49.8997V12.0007H48.5996ZM58.2997 12.0007H56.8997C56.833 11.8674 56.7663 11.6007 56.6996 11.2007C56.0329 11.8674 55.2663 12.2007 54.3997 12.2007C53.6663 12.2007 53.033 11.9674 52.4996 11.5007C52.033 11.0341 51.7997 10.4674 51.7997 9.80078C51.7997 9.00078 52.0996 8.3673 52.6996 7.90063C53.2996 7.43397 54.1663 7.20068 55.2997 7.20068H56.6996V6.60083C56.6996 6.13416 56.5329 5.7674 56.1996 5.50073C55.9329 5.1674 55.533 5.00073 54.9996 5.00073C54.533 5.00073 54.133 5.13397 53.7997 5.40063C53.4664 5.6673 53.2997 5.96745 53.2997 6.30078H51.8997C51.8997 5.90078 52.033 5.53402 52.2997 5.20068C52.633 4.80068 53.033 4.50078 53.4996 4.30078C53.9663 4.10078 54.4996 4.00073 55.0996 4.00073C55.9663 4.00073 56.6663 4.20083 57.1996 4.60083C57.7329 5.0675 57.9996 5.70073 57.9996 6.50073V10.2007C57.9996 10.934 58.0997 11.5006 58.2997 11.9006V12.0007ZM54.5996 11.0007C55.0663 11.0007 55.4664 10.8675 55.7997 10.6008C56.1997 10.4008 56.4996 10.1341 56.6996 9.80078V8.20068H55.5996C53.9329 8.20068 53.0996 8.6675 53.0996 9.60083C53.0996 10.0675 53.233 10.4008 53.4996 10.6008C53.833 10.8675 54.1996 11.0007 54.5996 11.0007ZM61.5996 0.800781V12.0007H60.2997V0.800781H61.5996Z" fill="white"/>
</svg>
