<svg width="108" height="16" viewBox="0 0 108 16" fill="none" xmlns="http://www.w3.org/2000/svg">
<path d="M1.7998 4.09961V11.9996H0.499817V4.09961H1.7998ZM0.299805 1.99961C0.299805 1.73294 0.366484 1.53294 0.499817 1.39961C0.63315 1.26628 0.833126 1.19961 1.09979 1.19961C1.36646 1.19961 1.5665 1.26628 1.69983 1.39961C1.83316 1.53294 1.89984 1.73294 1.89984 1.99961C1.89984 2.19961 1.83316 2.36628 1.69983 2.49961C1.5665 2.63294 1.36646 2.69961 1.09979 2.69961C0.833126 2.69961 0.63315 2.63294 0.499817 2.49961C0.366484 2.36628 0.299805 2.19961 0.299805 1.99961ZM3.89984 4.09961H5.19983L5.2998 5.09961C5.8998 4.29961 6.66646 3.89961 7.59979 3.89961C9.33313 3.89961 10.1998 4.86627 10.1998 6.79961V11.9996H8.7998V6.79961C8.7998 6.19961 8.66651 5.76628 8.39984 5.49961C8.13317 5.23294 7.73316 5.09961 7.19983 5.09961C6.79983 5.09961 6.43313 5.19961 6.09979 5.39961C5.76646 5.66628 5.4998 5.99961 5.2998 6.39961V11.9996H3.89984V4.09961ZM14.1998 11.9996H12.8998V5.09961H11.5998V4.09961H12.8998V3.29961C12.8998 2.43294 13.1331 1.76627 13.5998 1.29961C13.9998 0.832942 14.6332 0.599609 15.4998 0.599609C15.8331 0.599609 16.1332 0.632942 16.3998 0.699609V1.79961C16.1332 1.79961 15.8665 1.79961 15.5998 1.79961C15.1998 1.79961 14.8665 1.93294 14.5998 2.19961C14.3331 2.39961 14.1998 2.76627 14.1998 3.29961V4.09961H15.8998V5.09961H14.1998V11.9996ZM17.0998 8.09961V7.99961C17.0998 7.19961 17.2332 6.49961 17.4998 5.89961C17.8332 5.29961 18.2665 4.83294 18.7998 4.49961C19.3331 4.16628 19.9665 3.99961 20.6998 3.99961C21.7665 3.99961 22.6331 4.36628 23.2998 5.09961C23.9665 5.83294 24.2998 6.83294 24.2998 8.09961V8.19961C24.2998 8.93294 24.1331 9.63294 23.7998 10.2996C23.5331 10.8996 23.1331 11.3663 22.5998 11.6996C21.9998 12.0329 21.3665 12.1996 20.6998 12.1996C19.6332 12.1996 18.7665 11.8329 18.0998 11.0996C17.4331 10.3663 17.0998 9.36628 17.0998 8.09961ZM18.3998 8.19961C18.3998 9.06628 18.5998 9.76627 18.9998 10.2996C19.4665 10.8329 20.0332 11.0996 20.6998 11.0996C21.3665 11.0996 21.8998 10.8329 22.2998 10.2996C22.6998 9.76627 22.8998 8.99961 22.8998 7.99961C22.8998 7.13294 22.6998 6.43294 22.2998 5.89961C21.8998 5.36628 21.3665 5.09961 20.6998 5.09961C20.0332 5.09961 19.4665 5.36628 18.9998 5.89961C18.5998 6.43294 18.3998 7.19961 18.3998 8.19961ZM37.6998 8.39961C37.6332 9.53294 37.3331 10.4663 36.7998 11.1996C36.2665 11.8663 35.5665 12.1996 34.6998 12.1996C33.7665 12.1996 33.1665 11.7996 32.8998 10.9996C32.6332 11.3996 32.3331 11.6996 31.9998 11.8996C31.6665 12.0996 31.3332 12.1996 30.9998 12.1996C30.2665 12.1996 29.7332 11.8996 29.3998 11.2996C29.0665 10.7663 28.9331 9.99961 28.9998 8.99961C29.0665 8.19961 29.2665 7.46627 29.5998 6.79961C29.8665 6.19961 30.2332 5.69961 30.6998 5.29961C31.1665 4.96627 31.6665 4.79961 32.1998 4.79961C32.5998 4.79961 32.9332 4.86628 33.1998 4.99961C33.5332 5.06628 33.8998 5.26628 34.2998 5.59961L33.8998 9.59961C33.8332 10.7329 34.1331 11.2996 34.7998 11.2996C35.3998 11.2996 35.8665 11.0329 36.1998 10.4996C36.5332 9.96628 36.6998 9.26628 36.6998 8.39961C36.8332 6.46628 36.4998 4.99961 35.6998 3.99961C34.8998 2.99961 33.6665 2.49961 31.9998 2.49961C31.0665 2.49961 30.1998 2.76627 29.3998 3.29961C28.6665 3.76627 28.0665 4.46628 27.5998 5.39961C27.1998 6.26628 26.9665 7.29961 26.8998 8.49961C26.8332 9.76628 26.9665 10.8329 27.2998 11.6996C27.6331 12.5663 28.1665 13.2329 28.8998 13.6996C29.6332 14.1663 30.4998 14.3996 31.4998 14.3996C31.9665 14.3996 32.4332 14.3663 32.8998 14.2996C33.2998 14.1663 33.6665 14.0329 33.9998 13.8996L34.1998 14.6996C33.9332 14.8996 33.5331 15.0663 32.9998 15.1996C32.5331 15.3329 32.0331 15.3996 31.4998 15.3996C30.2998 15.3996 29.2665 15.0996 28.3998 14.4996C27.4665 13.9663 26.7998 13.1996 26.3998 12.1996C25.9332 11.1329 25.7331 9.89961 25.7998 8.49961C25.8665 7.16628 26.1665 5.96628 26.6998 4.89961C27.2332 3.83294 27.9665 2.99961 28.8998 2.39961C29.8332 1.86628 30.8998 1.59961 32.0998 1.59961C33.2998 1.59961 34.3332 1.86628 35.1998 2.39961C36.0665 2.93294 36.6998 3.73294 37.0998 4.79961C37.5665 5.79961 37.7665 6.99961 37.6998 8.39961ZM30.1998 8.99961C30.1332 9.66628 30.1998 10.1996 30.3998 10.5996C30.5998 10.9329 30.8998 11.0996 31.2998 11.0996C31.5665 11.0996 31.8331 10.9996 32.0998 10.7996C32.4331 10.5329 32.6665 10.1663 32.7998 9.69961V9.59961L33.1998 5.99961C32.9332 5.79961 32.6331 5.69961 32.2998 5.69961C31.6998 5.69961 31.2332 5.99961 30.8998 6.59961C30.4998 7.19961 30.2665 7.99961 30.1998 8.99961ZM39.0998 7.99961C39.0998 6.79961 39.3998 5.83294 39.9998 5.09961C40.5331 4.36628 41.2998 3.99961 42.2998 3.99961C43.2331 3.99961 43.9665 4.33294 44.4998 4.99961L44.5998 4.09961H45.7998V11.8996C45.7998 12.8996 45.4998 13.6996 44.8998 14.2996C44.2998 14.8996 43.4998 15.1996 42.4998 15.1996C41.8998 15.1996 41.3331 15.0663 40.7998 14.7996C40.2665 14.5329 39.8331 14.1996 39.4998 13.7996L40.1998 12.9996C40.7998 13.7329 41.5332 14.0996 42.3998 14.0996C43.0665 14.0996 43.5665 13.8996 43.8998 13.4996C44.2998 13.0996 44.4998 12.5663 44.4998 11.8996V11.2996C43.8998 11.8996 43.1332 12.1996 42.1998 12.1996C41.3332 12.1996 40.5998 11.8329 39.9998 11.0996C39.3998 10.3663 39.0998 9.33294 39.0998 7.99961ZM40.4998 8.19961C40.4998 9.06628 40.6665 9.76627 40.9998 10.2996C41.3998 10.7663 41.9331 10.9996 42.5998 10.9996C43.4665 10.9996 44.0998 10.6329 44.4998 9.89961V6.29961C44.0331 5.49961 43.3998 5.09961 42.5998 5.09961C41.9331 5.09961 41.3998 5.36628 40.9998 5.89961C40.6665 6.43294 40.4998 7.19961 40.4998 8.19961ZM47.8998 4.09961H49.0998L49.1998 4.99961C49.7332 4.33294 50.4998 3.99961 51.4998 3.99961C52.6332 3.99961 53.3998 4.43294 53.7998 5.29961C54.0665 4.89961 54.3998 4.56627 54.7998 4.29961C55.2665 4.09961 55.7665 3.99961 56.2998 3.99961C58.0331 3.99961 58.9332 4.89961 58.9998 6.69961V11.9996H57.5998V6.79961C57.5998 6.26627 57.4665 5.86628 57.1998 5.59961C56.9332 5.26628 56.4998 5.09961 55.8998 5.09961C55.4332 5.09961 55.0332 5.26628 54.6998 5.59961C54.3665 5.86628 54.1665 6.26627 54.0998 6.79961V11.9996H52.6998V6.89961C52.6998 5.69961 52.1332 5.09961 50.9998 5.09961C50.1332 5.09961 49.5332 5.49961 49.1998 6.29961V11.9996H47.8998V4.09961ZM67.2998 12.0996H65.8998C65.8332 11.8996 65.7665 11.5996 65.6998 11.1996C65.0998 11.8663 64.3665 12.1996 63.4998 12.1996C62.6998 12.1996 62.0331 11.9996 61.4998 11.5996C61.0331 11.1329 60.7998 10.5663 60.7998 9.89961C60.7998 9.03294 61.0998 8.39961 61.6998 7.99961C62.3665 7.53294 63.2665 7.29961 64.3998 7.29961H65.6998V6.59961C65.6998 6.13294 65.5665 5.76628 65.2998 5.49961C64.9665 5.23294 64.5331 5.09961 63.9998 5.09961C63.5331 5.09961 63.1331 5.23294 62.7998 5.49961C62.4665 5.69961 62.2998 5.96627 62.2998 6.29961H60.8998C60.8998 5.96627 61.0665 5.59961 61.3998 5.19961C61.6665 4.79961 62.0331 4.49961 62.4998 4.29961C62.9665 4.09961 63.4998 3.99961 64.0998 3.99961C65.0331 3.99961 65.7332 4.23294 66.1998 4.69961C66.7332 5.16628 66.9998 5.79961 66.9998 6.59961V10.1996C66.9998 10.9329 67.0998 11.5329 67.2998 11.9996V12.0996ZM63.6998 10.9996C64.0998 10.9996 64.4998 10.8996 64.8998 10.6996C65.2332 10.4996 65.4998 10.1996 65.6998 9.79961V8.19961H64.5998C62.9331 8.19961 62.0998 8.69961 62.0998 9.69961C62.0998 10.0996 62.2665 10.4329 62.5998 10.6996C62.8665 10.8996 63.2332 10.9996 63.6998 10.9996ZM70.5998 4.09961V12.0996H69.2998V4.09961H70.5998ZM69.0998 1.99961C69.0998 1.79961 69.1665 1.63294 69.2998 1.49961C69.4331 1.29961 69.6332 1.19961 69.8998 1.19961C70.1665 1.19961 70.3665 1.29961 70.4998 1.49961C70.6331 1.63294 70.6998 1.79961 70.6998 1.99961C70.6998 2.26628 70.6331 2.46628 70.4998 2.59961C70.3665 2.73294 70.1665 2.79961 69.8998 2.79961C69.6332 2.79961 69.4331 2.73294 69.2998 2.59961C69.1665 2.46628 69.0998 2.26628 69.0998 1.99961ZM74.1998 0.799609V12.0996H72.8998V0.799609H74.1998ZM76.3998 11.2996C76.3998 11.0996 76.4665 10.9329 76.5998 10.7996C76.7331 10.5996 76.9332 10.4996 77.1998 10.4996C77.4665 10.4996 77.6665 10.5996 77.7998 10.7996C77.9998 10.9329 78.0998 11.0996 78.0998 11.2996C78.0998 11.5663 77.9998 11.7663 77.7998 11.8996C77.6665 12.0329 77.4665 12.0996 77.1998 12.0996C76.9332 12.0996 76.7331 12.0329 76.5998 11.8996C76.4665 11.7663 76.3998 11.5663 76.3998 11.2996ZM83.4998 11.0996C83.9665 11.0996 84.3665 10.9663 84.6998 10.6996C85.0998 10.3663 85.2998 9.99961 85.2998 9.59961H86.5998C86.5998 9.99961 86.4665 10.4329 86.1998 10.8996C85.8665 11.2996 85.4665 11.5996 84.9998 11.7996C84.5331 12.0663 84.0331 12.1996 83.4998 12.1996C82.4332 12.1996 81.5665 11.8329 80.8998 11.0996C80.2332 10.3663 79.8998 9.39961 79.8998 8.19961V7.89961C79.8998 7.16628 80.0665 6.49961 80.3998 5.89961C80.6665 5.29961 81.0665 4.83294 81.5998 4.49961C82.1331 4.16628 82.7665 3.99961 83.4998 3.99961C84.3665 3.99961 85.0998 4.26627 85.6998 4.79961C86.2998 5.33294 86.5998 6.03294 86.5998 6.89961H85.2998C85.2998 6.36628 85.1331 5.93294 84.7998 5.59961C84.3998 5.26628 83.9665 5.09961 83.4998 5.09961C82.7665 5.09961 82.2332 5.33294 81.8998 5.79961C81.4998 6.33294 81.2998 7.06628 81.2998 7.99961V8.19961C81.2998 9.13294 81.4998 9.86627 81.8998 10.3996C82.2332 10.8663 82.7665 11.0996 83.4998 11.0996ZM87.7998 8.09961V7.99961C87.7998 7.26628 87.9332 6.56628 88.1998 5.89961C88.5332 5.29961 88.9665 4.83294 89.4998 4.49961C90.0331 4.16628 90.6665 3.99961 91.3998 3.99961C92.4665 3.99961 93.3332 4.36628 93.9998 5.09961C94.6665 5.83294 94.9998 6.83294 94.9998 8.09961V8.19961C94.9998 8.93294 94.8665 9.63294 94.5998 10.2996C94.2665 10.8996 93.8331 11.3663 93.2998 11.6996C92.7665 12.0329 92.1332 12.1996 91.3998 12.1996C90.3332 12.1996 89.4665 11.8329 88.7998 11.0996C88.1331 10.3663 87.7998 9.36628 87.7998 8.09961ZM89.0998 8.19961C89.0998 9.06628 89.3331 9.76627 89.7998 10.2996C90.1998 10.8329 90.7332 11.0996 91.3998 11.0996C92.0665 11.0996 92.5998 10.8329 92.9998 10.2996C93.3998 9.76627 93.5998 8.99961 93.5998 7.99961C93.5998 7.13294 93.3998 6.43294 92.9998 5.89961C92.5998 5.36628 92.0665 5.09961 91.3998 5.09961C90.7332 5.09961 90.1998 5.36628 89.7998 5.89961C89.3331 6.43294 89.0998 7.19961 89.0998 8.19961ZM96.6998 4.09961H97.9998V4.99961C98.5998 4.33294 99.3998 3.99961 100.4 3.99961C101.467 3.99961 102.2 4.43294 102.6 5.29961C102.866 4.89961 103.2 4.56627 103.6 4.29961C104.066 4.09961 104.566 3.99961 105.1 3.99961C106.9 3.99961 107.8 4.89961 107.8 6.69961V12.0996H106.4V6.79961C106.4 6.26627 106.3 5.86628 106.1 5.59961C105.833 5.26628 105.4 5.09961 104.8 5.09961C104.266 5.09961 103.833 5.26628 103.5 5.59961C103.166 5.86628 102.967 6.26627 102.9 6.79961V12.0996H101.6V6.89961C101.6 5.69961 101.033 5.09961 99.8998 5.09961C98.9665 5.09961 98.3332 5.49961 97.9998 6.29961V12.0996H96.6998V4.09961Z" fill="white"/>
</svg>
