<svg width="64" height="12" viewBox="0 0 64 12" fill="none" xmlns="http://www.w3.org/2000/svg">
<path d="M2.19983 0.300781V11.001H0.799805V0.300781H2.19983ZM4.49982 3.10107H5.7998L5.89981 4.10107C6.49981 3.30107 7.2665 2.90088 8.19983 2.90088C9.93316 2.90088 10.7998 3.86745 10.7998 5.80078V11.001H9.39981V5.80078C9.39981 5.20078 9.26648 4.76764 8.99982 4.50098C8.73315 4.23431 8.33314 4.10107 7.7998 4.10107C7.3998 4.10107 7.03316 4.20088 6.69983 4.40088C6.3665 4.66755 6.09981 5.00088 5.89981 5.40088V11.001H4.49982V3.10107ZM17.3998 8.90088C17.3998 8.56755 17.2665 8.30107 16.9998 8.10107C16.7332 7.90107 16.2665 7.70098 15.5998 7.50098C14.8665 7.36764 14.2998 7.20098 13.8998 7.00098C13.4998 6.80098 13.1998 6.56745 12.9998 6.30078C12.8665 6.03411 12.7998 5.70078 12.7998 5.30078C12.7998 4.63411 13.0665 4.06774 13.5998 3.60107C14.1332 3.20107 14.8332 3.00098 15.6998 3.00098C16.5665 3.00098 17.2998 3.20107 17.8998 3.60107C18.4331 4.06774 18.6998 4.66755 18.6998 5.40088H17.3998C17.3998 5.06755 17.2331 4.76764 16.8998 4.50098C16.5665 4.23431 16.1665 4.10107 15.6998 4.10107C15.2332 4.10107 14.8331 4.20088 14.4998 4.40088C14.2332 4.60088 14.0998 4.86784 14.0998 5.20117C14.0998 5.53451 14.2332 5.80098 14.4998 6.00098C14.7665 6.13431 15.2331 6.26755 15.8998 6.40088C16.5665 6.60088 17.1332 6.80098 17.5998 7.00098C17.9998 7.20098 18.2998 7.46745 18.4998 7.80078C18.6998 8.06745 18.7998 8.40078 18.7998 8.80078C18.7998 9.53411 18.4998 10.101 17.8998 10.501C17.3665 10.9676 16.6332 11.2012 15.6998 11.2012C15.0998 11.2012 14.5665 11.0674 14.0998 10.8008C13.5665 10.6008 13.1665 10.3009 12.8998 9.90088C12.6331 9.50088 12.4998 9.06774 12.4998 8.60107H13.7998C13.8665 9.06774 14.0665 9.43451 14.3998 9.70117C14.7331 9.96784 15.1665 10.1011 15.6998 10.1011C16.2332 10.1011 16.6665 10.0008 16.9998 9.80078C17.2665 9.53411 17.3998 9.23421 17.3998 8.90088ZM20.9998 1.20117H22.3998V3.10107H23.8998V4.10107H22.3998V9.10107C22.3998 9.36774 22.4665 9.60078 22.5998 9.80078C22.7332 9.93411 22.9665 10.001 23.2998 10.001C23.4331 10.001 23.6331 9.96755 23.8998 9.90088V11.001C23.5665 11.1343 23.2331 11.2012 22.8998 11.2012C22.2998 11.2012 21.8332 11.0011 21.4998 10.6011C21.1665 10.2677 20.9998 9.76774 20.9998 9.10107V4.10107H19.5998V3.10107H20.9998V1.20117ZM29.2998 3.10107V4.30078C29.0998 4.30078 28.8665 4.30078 28.5998 4.30078C27.7332 4.30078 27.1331 4.66755 26.7998 5.40088V11.001H25.4998V3.10107H26.7998V4.00098C27.2665 3.33431 27.8998 3.00098 28.6998 3.00098C28.9665 3.00098 29.1665 3.03441 29.2998 3.10107ZM35.4998 11.001L35.3998 10.3008C34.8665 10.9008 34.0998 11.2012 33.0998 11.2012C32.2332 11.2012 31.5998 10.9676 31.1998 10.501C30.7332 9.96764 30.4998 9.23411 30.4998 8.30078V3.10107H31.8998V8.20117C31.8998 9.40117 32.3665 10.001 33.2998 10.001C34.3665 10.001 35.0665 9.63421 35.3998 8.90088V3.10107H36.6998V11.001H35.4998ZM42.0998 10.1011C42.5665 10.1011 42.9665 9.93441 43.2998 9.60107C43.6998 9.33441 43.8998 8.96764 43.8998 8.50098H45.1998C45.1998 8.96764 45.0332 9.40078 44.6998 9.80078C44.4332 10.2674 44.0665 10.6008 43.5998 10.8008C43.1331 11.0674 42.6331 11.2012 42.0998 11.2012C40.9665 11.2012 40.0998 10.8344 39.4998 10.1011C38.8331 9.36774 38.4998 8.40117 38.4998 7.20117V6.90088C38.4998 6.16755 38.6665 5.50088 38.9998 4.90088C39.2665 4.30088 39.6665 3.83431 40.1998 3.50098C40.7332 3.16764 41.3665 3.00098 42.0998 3.00098C42.9665 3.00098 43.6998 3.26745 44.2998 3.80078C44.8998 4.33411 45.1998 5.00078 45.1998 5.80078H43.8998C43.8998 5.33411 43.6998 4.93441 43.2998 4.60107C42.9665 4.26774 42.5665 4.10107 42.0998 4.10107C41.3665 4.10107 40.8331 4.33411 40.4998 4.80078C40.0998 5.33411 39.8998 6.06764 39.8998 7.00098V7.20117C39.8998 8.13451 40.0998 8.83412 40.4998 9.30078C40.8331 9.83412 41.3665 10.1011 42.0998 10.1011ZM47.1998 1.20117H48.5998V3.10107H50.0998V4.20117H48.5998V9.10107C48.5998 9.43441 48.6665 9.66745 48.7998 9.80078C48.9331 9.93411 49.1332 10.001 49.3998 10.001C49.5998 10.001 49.8331 9.96755 50.0998 9.90088V11.001C49.7665 11.1343 49.4331 11.2012 49.0998 11.2012C48.4331 11.2012 47.9665 11.0011 47.6998 10.6011C47.3665 10.2677 47.1998 9.76774 47.1998 9.10107V4.20117H45.7998V3.10107H47.1998V1.20117ZM51.0998 7.10107V7.00098C51.0998 6.26764 51.2665 5.56755 51.5998 4.90088C51.8665 4.30088 52.2998 3.83431 52.8998 3.50098C53.4332 3.16764 54.0332 3.00098 54.6998 3.00098C55.7665 3.00098 56.6331 3.36774 57.2998 4.10107C57.9665 4.83441 58.2998 5.83441 58.2998 7.10107V7.20117C58.2998 7.93451 58.1665 8.63411 57.8998 9.30078C57.6332 9.90078 57.1998 10.3678 56.5998 10.7012C56.0665 11.0345 55.4332 11.2012 54.6998 11.2012C53.6332 11.2012 52.7665 10.8344 52.0998 10.1011C51.4331 9.36774 51.0998 8.36774 51.0998 7.10107ZM52.4998 7.20117C52.4998 8.06784 52.6998 8.76745 53.0998 9.30078C53.4998 9.83412 54.0332 10.1011 54.6998 10.1011C55.4332 10.1011 55.9998 9.83412 56.3998 9.30078C56.7998 8.76745 56.9998 8.00098 56.9998 7.00098C56.9998 6.13431 56.7998 5.43421 56.3998 4.90088C55.9998 4.36755 55.4332 4.10107 54.6998 4.10107C54.0332 4.10107 53.4998 4.36755 53.0998 4.90088C52.6998 5.43421 52.4998 6.20117 52.4998 7.20117ZM63.8998 3.10107V4.40088C63.6998 4.33421 63.4665 4.30078 63.1998 4.30078C62.3332 4.30078 61.7332 4.66755 61.3998 5.40088V11.1011H59.9998V3.10107H61.3998V4.10107C61.8665 3.36774 62.4998 3.00098 63.2998 3.00098C63.5665 3.00098 63.7665 3.03441 63.8998 3.10107Z" fill="#FF5219"/>
</svg>
