<svg width="430" height="26" viewBox="0 0 430 26" fill="none" xmlns="http://www.w3.org/2000/svg">
<path d="M5.00018 2.5H0.700195V20H5.00018V2.5ZM9.00018 15.7998L7.40018 18.2998C7.93351 18.6998 8.50019 19.0666 9.10019 19.3999C9.70019 19.7332 10.3335 20.0002 11.0002 20.2002C11.7335 20.4002 12.5002 20.5 13.3002 20.5C14.7002 20.5 15.7668 20.2001 16.5002 19.6001C17.3002 18.9334 17.7002 17.9669 17.7002 16.7002C17.7002 16.0335 17.5335 15.4667 17.2002 15C16.9335 14.6 16.5335 14.2332 16.0002 13.8999C15.4668 13.6332 14.9002 13.4002 14.3002 13.2002C13.7668 13.0002 13.3002 12.8335 12.9002 12.7002C12.5002 12.5002 12.2002 12.3335 12.0002 12.2002C11.8002 12.0002 11.7002 11.8001 11.7002 11.6001C11.7002 11.3334 11.7668 11.1668 11.9002 11.1001C12.1002 10.9668 12.3669 10.8999 12.7002 10.8999C13.2335 10.8999 13.8002 11.0331 14.4002 11.2998C15.0668 11.5665 15.6335 11.9332 16.1002 12.3999L17.4002 9.8999C17.0002 9.56657 16.5335 9.3001 16.0002 9.1001C15.4668 8.83343 14.9335 8.63333 14.4002 8.5C13.8002 8.3 13.1669 8.2002 12.5002 8.2002C11.7002 8.2002 10.9668 8.33343 10.3002 8.6001C9.6335 8.86676 9.1335 9.23353 8.80017 9.7002C8.40017 10.1669 8.2002 10.7667 8.2002 11.5C8.2002 12.2333 8.36686 12.8331 8.7002 13.2998C9.03353 13.7665 9.43351 14.1332 9.90018 14.3999C10.3668 14.6666 10.9002 14.9001 11.5002 15.1001C12.1002 15.3001 12.5668 15.4668 12.9002 15.6001C13.3002 15.8001 13.5669 16.0002 13.7002 16.2002C13.8335 16.3335 13.9002 16.5331 13.9002 16.7998C13.9002 17.0665 13.8002 17.2666 13.6002 17.3999C13.4669 17.5999 13.2002 17.7002 12.8002 17.7002C12.5335 17.7002 12.2002 17.6668 11.8002 17.6001C11.4668 17.4668 11.0669 17.2667 10.6002 17C10.1335 16.7333 9.60018 16.3331 9.00018 15.7998ZM23.6002 20V0.5H19.8002V20H23.6002ZM27.2002 13V20H31.0002V12.3999C31.0002 11.4666 30.8669 10.7001 30.6002 10.1001C30.3335 9.43343 29.9002 8.93343 29.3002 8.6001C28.7668 8.26676 28.0335 8.1001 27.1002 8.1001C26.1002 8.1001 25.3002 8.3002 24.7002 8.7002C24.1002 9.16686 23.6668 9.76667 23.4002 10.5C23.0668 11.2333 22.9002 12.0667 22.9002 13H23.6002C23.6002 12.5333 23.6668 12.1666 23.8002 11.8999C24.0002 11.5666 24.2335 11.3001 24.5002 11.1001C24.8335 10.9668 25.2002 10.8999 25.6002 10.8999C26.2002 10.8999 26.6335 11.0666 26.9002 11.3999C27.1002 11.7999 27.2002 12.3333 27.2002 13ZM39.3002 18.1001L35.5002 17.2002L33.3002 23.7002L36.1002 24.2998L39.3002 18.1001ZM49.0002 14.2998C49.0002 15.4998 49.2668 16.5332 49.8002 17.3999C50.4002 18.3332 51.2002 19.0333 52.2002 19.5C53.2002 20.0333 54.3002 20.2998 55.5002 20.2998C56.7668 20.2998 57.9002 20.0333 58.9002 19.5C59.9002 19.0333 60.6669 18.3332 61.2002 17.3999C61.8002 16.5332 62.1002 15.4998 62.1002 14.2998C62.1002 13.0998 61.8002 12.0334 61.2002 11.1001C60.6669 10.2334 59.9002 9.53333 58.9002 9C57.9002 8.53333 56.7668 8.2998 55.5002 8.2998C54.3002 8.2998 53.2002 8.53333 52.2002 9C51.2002 9.53333 50.4002 10.2334 49.8002 11.1001C49.2668 12.0334 49.0002 13.0998 49.0002 14.2998ZM52.8002 14.2998C52.8002 13.6998 52.9335 13.1669 53.2002 12.7002C53.4669 12.3002 53.8002 11.9669 54.2002 11.7002C54.6002 11.5002 55.0335 11.3999 55.5002 11.3999C56.0335 11.3999 56.5002 11.5002 56.9002 11.7002C57.3002 11.9669 57.6002 12.3002 57.8002 12.7002C58.0668 13.1669 58.2002 13.6998 58.2002 14.2998C58.2002 14.8998 58.0668 15.4332 57.8002 15.8999C57.6002 16.2999 57.3002 16.5998 56.9002 16.7998C56.5002 17.0665 56.0335 17.2002 55.5002 17.2002C55.0335 17.2002 54.6002 17.0665 54.2002 16.7998C53.8002 16.5998 53.4669 16.2999 53.2002 15.8999C52.9335 15.4332 52.8002 14.8998 52.8002 14.2998ZM68.8002 2.5H64.8002L63.7002 10.5H66.1002L68.8002 2.5ZM78.8002 8.5V25.5H82.6002V8.5H78.8002ZM69.4002 14.2998C69.4002 15.6331 69.6669 16.7669 70.2002 17.7002C70.7335 18.5669 71.4002 19.2335 72.2002 19.7002C73.0669 20.1669 73.9669 20.3999 74.9002 20.3999C75.9002 20.3999 76.7669 20.1669 77.5002 19.7002C78.2335 19.1669 78.7668 18.4333 79.1002 17.5C79.5002 16.5667 79.7002 15.4998 79.7002 14.2998C79.7002 13.0331 79.5002 11.9333 79.1002 11C78.7668 10.1333 78.2335 9.43324 77.5002 8.8999C76.7669 8.36657 75.9002 8.1001 74.9002 8.1001C73.9669 8.1001 73.0669 8.33314 72.2002 8.7998C71.4002 9.26647 70.7335 9.96657 70.2002 10.8999C69.6669 11.8332 69.4002 12.9665 69.4002 14.2998ZM73.4002 14.2998C73.4002 13.6998 73.5335 13.1998 73.8002 12.7998C74.0002 12.3331 74.3335 11.9998 74.8002 11.7998C75.2002 11.5998 75.6335 11.5 76.1002 11.5C76.5668 11.5 77.0002 11.5998 77.4002 11.7998C77.8002 11.9998 78.1335 12.3002 78.4002 12.7002C78.6669 13.1669 78.8002 13.6998 78.8002 14.2998C78.8002 14.8998 78.6669 15.3998 78.4002 15.7998C78.1335 16.2665 77.8002 16.5998 77.4002 16.7998C77.0002 16.9998 76.5668 17.1001 76.1002 17.1001C75.6335 17.1001 75.2002 16.9998 74.8002 16.7998C74.3335 16.5331 74.0002 16.1998 73.8002 15.7998C73.5335 15.3998 73.4002 14.8998 73.4002 14.2998ZM85.3002 4.2002C85.3002 4.8002 85.5002 5.3002 85.9002 5.7002C86.3669 6.1002 86.9002 6.2998 87.5002 6.2998C88.1002 6.2998 88.6002 6.1002 89.0002 5.7002C89.4669 5.3002 89.7002 4.8002 89.7002 4.2002C89.7002 3.6002 89.4669 3.13314 89.0002 2.7998C88.6002 2.3998 88.1002 2.2002 87.5002 2.2002C86.9002 2.2002 86.3669 2.3998 85.9002 2.7998C85.5002 3.13314 85.3002 3.6002 85.3002 4.2002ZM89.3002 8.5H85.7002V20H89.3002V8.5ZM93.0002 15.8999L91.5002 18.3999C91.9669 18.7999 92.5002 19.1667 93.1002 19.5C93.7002 19.7667 94.3668 20.0002 95.1002 20.2002C95.8335 20.4002 96.6002 20.5 97.4002 20.5C98.8002 20.5 99.8668 20.2001 100.6 19.6001C101.333 18.9334 101.7 17.9998 101.7 16.7998C101.7 16.0665 101.567 15.4667 101.3 15C100.967 14.6 100.534 14.2667 100 14C99.5335 13.6667 99.0002 13.4002 98.4002 13.2002C97.8002 13.0002 97.3002 12.8335 96.9002 12.7002C96.5669 12.5669 96.2669 12.4002 96.0002 12.2002C95.8002 12.0669 95.7002 11.8668 95.7002 11.6001C95.7002 11.4001 95.8002 11.2334 96.0002 11.1001C96.2002 10.9668 96.4668 10.8999 96.8002 10.8999C97.3335 10.8999 97.9002 11.0331 98.5002 11.2998C99.1002 11.6331 99.6335 11.9999 100.1 12.3999L101.5 10C101.034 9.66667 100.534 9.36676 100 9.1001C99.5335 8.83343 99.0002 8.63333 98.4002 8.5C97.8669 8.36667 97.2668 8.2998 96.6002 8.2998C95.7335 8.2998 94.9668 8.43353 94.3002 8.7002C93.7002 8.9002 93.2002 9.26647 92.8002 9.7998C92.4668 10.2665 92.3002 10.8333 92.3002 11.5C92.3002 12.2333 92.4335 12.8331 92.7002 13.2998C93.0335 13.7665 93.4335 14.1667 93.9002 14.5C94.4335 14.7667 94.9669 15.0002 95.5002 15.2002C96.1002 15.3335 96.6002 15.5002 97.0002 15.7002C97.3335 15.8335 97.5669 16.0002 97.7002 16.2002C97.9002 16.4002 98.0002 16.5998 98.0002 16.7998C98.0002 17.0665 97.9002 17.3 97.7002 17.5C97.5002 17.6333 97.2002 17.7002 96.8002 17.7002C96.5335 17.7002 96.2335 17.6668 95.9002 17.6001C95.5002 17.4668 95.0668 17.2667 94.6002 17C94.1335 16.7333 93.6002 16.3666 93.0002 15.8999ZM107.6 20V0.5H103.8V20H107.6ZM111.3 13V20H115.1V12.5C115.1 11.5 114.967 10.7001 114.7 10.1001C114.434 9.43343 114 8.93343 113.4 8.6001C112.8 8.26676 112.033 8.1001 111.1 8.1001C110.167 8.1001 109.4 8.33314 108.8 8.7998C108.2 9.1998 107.734 9.76667 107.4 10.5C107.134 11.3 107 12.1333 107 13H107.6C107.6 12.6 107.7 12.2332 107.9 11.8999C108.034 11.5666 108.267 11.3335 108.6 11.2002C108.867 11.0002 109.2 10.8999 109.6 10.8999C110.2 10.8999 110.634 11.1 110.9 11.5C111.167 11.8333 111.3 12.3333 111.3 13ZM128 8.5H124L130.6 21.3999L137.3 8.5H133.3L130.6 14.8999L128 8.5ZM141.6 16.3999C141.6 16.1332 141.667 15.9002 141.8 15.7002C141.934 15.5002 142.134 15.3665 142.4 15.2998C142.667 15.1665 143.034 15.1001 143.5 15.1001C144.1 15.1001 144.667 15.1999 145.2 15.3999C145.734 15.5332 146.2 15.7333 146.6 16V14.3999C146.4 14.1332 146.1 13.9002 145.7 13.7002C145.3 13.5002 144.8 13.3335 144.2 13.2002C143.667 13.0669 143.034 13 142.3 13C140.9 13 139.8 13.3333 139 14C138.2 14.6667 137.8 15.5334 137.8 16.6001C137.8 17.4001 138 18.0668 138.4 18.6001C138.8 19.1334 139.3 19.5666 139.9 19.8999C140.5 20.1666 141.167 20.2998 141.9 20.2998C142.634 20.2998 143.334 20.1666 144 19.8999C144.6 19.6332 145.1 19.2335 145.5 18.7002C145.9 18.2335 146.1 17.6332 146.1 16.8999L145.7 15.3999C145.7 15.8666 145.6 16.3002 145.4 16.7002C145.134 17.1002 144.834 17.3667 144.5 17.5C144.1 17.7 143.7 17.7998 143.3 17.7998C142.967 17.7998 142.7 17.7334 142.5 17.6001C142.234 17.5334 142.034 17.4002 141.9 17.2002C141.7 17.0002 141.6 16.7332 141.6 16.3999ZM138.7 9.5L140 12C140.134 11.9333 140.4 11.8001 140.8 11.6001C141.133 11.4668 141.534 11.3335 142 11.2002C142.534 11.1335 143.067 11.1001 143.6 11.1001C143.933 11.1001 144.234 11.1001 144.5 11.1001C144.767 11.2334 145 11.3667 145.2 11.5C145.4 11.6333 145.533 11.8 145.6 12C145.667 12.2 145.7 12.4665 145.7 12.7998V20H149.4V11.8999C149.4 11.0999 149.167 10.4332 148.7 9.8999C148.234 9.36657 147.6 8.93343 146.8 8.6001C146 8.33343 145.067 8.2002 144 8.2002C142.934 8.2002 141.934 8.33343 141 8.6001C140.134 8.86676 139.367 9.16667 138.7 9.5ZM166 8.5H158.3V11.6001H166V8.5ZM164 4.5H160.4V20H164V4.5ZM171.6 15.5V8.5H167.6V15.8999C167.6 17.2999 167.933 18.4002 168.6 19.2002C169.267 19.9335 170.334 20.2998 171.8 20.2998C172.6 20.2998 173.3 20.1331 173.9 19.7998C174.434 19.3998 174.9 18.8998 175.3 18.2998V20H179V8.5H175.3V15.5C175.3 15.9667 175.2 16.3669 175 16.7002C174.867 17.0335 174.633 17.2666 174.3 17.3999C174.034 17.5999 173.7 17.7002 173.3 17.7002C172.633 17.7002 172.2 17.5001 172 17.1001C171.734 16.7001 171.6 16.1667 171.6 15.5ZM185.7 20V8.5H182V20H185.7ZM189 12.3999L190.7 9.2002C190.5 8.93353 190.2 8.7 189.8 8.5C189.4 8.36667 189 8.2998 188.6 8.2998C187.933 8.2998 187.334 8.4999 186.8 8.8999C186.2 9.2999 185.7 9.86676 185.3 10.6001C184.967 11.3334 184.8 12.1333 184.8 13L185.7 14.3999C185.7 13.7999 185.767 13.3333 185.9 13C186.1 12.6 186.333 12.3001 186.6 12.1001C186.867 11.9001 187.2 11.7998 187.6 11.7998C187.933 11.7998 188.2 11.8667 188.4 12C188.6 12.0667 188.8 12.1999 189 12.3999ZM209.8 20V12.6001C209.8 11.6668 209.7 10.8998 209.5 10.2998C209.234 9.63314 208.834 9.13314 208.3 8.7998C207.767 8.46647 207.067 8.2998 206.2 8.2998C205.4 8.2998 204.7 8.46647 204.1 8.7998C203.5 9.13314 202.967 9.60019 202.5 10.2002C202.3 9.53353 201.934 9.06647 201.4 8.7998C200.867 8.46647 200.134 8.2998 199.2 8.2998C198.467 8.2998 197.8 8.46647 197.2 8.7998C196.667 9.13314 196.234 9.60019 195.9 10.2002V8.5H192.3V20H195.9V13C195.9 12.5333 195.967 12.1666 196.1 11.8999C196.233 11.5666 196.434 11.3335 196.7 11.2002C196.967 11.0002 197.267 10.8999 197.6 10.8999C198.133 10.8999 198.5 11.1 198.7 11.5C198.967 11.8333 199.1 12.3333 199.1 13V20H202.9V13C202.9 12.5333 202.967 12.1666 203.1 11.8999C203.233 11.5666 203.434 11.3335 203.7 11.2002C203.967 11.0002 204.267 10.8999 204.6 10.8999C205.067 10.8999 205.434 11.1 205.7 11.5C205.9 11.8333 206 12.3333 206 13V20H209.8ZM216.7 15.5V8.5H212.8V15.8999C212.8 17.2999 213.1 18.4002 213.7 19.2002C214.367 19.9335 215.434 20.2998 216.9 20.2998C217.767 20.2998 218.467 20.1331 219 19.7998C219.6 19.3998 220.067 18.8998 220.4 18.2998V20H224.2V8.5H220.4V15.5C220.4 15.9667 220.3 16.3669 220.1 16.7002C219.967 17.0335 219.734 17.2666 219.4 17.3999C219.134 17.5999 218.8 17.7002 218.4 17.7002C217.8 17.7002 217.367 17.5001 217.1 17.1001C216.833 16.7001 216.7 16.1667 216.7 15.5ZM227.8 15.8999L226.2 18.3999C226.734 18.7999 227.3 19.1667 227.9 19.5C228.5 19.7667 229.133 20.0002 229.8 20.2002C230.534 20.4002 231.3 20.5 232.1 20.5C233.5 20.5 234.567 20.2001 235.3 19.6001C236.1 18.9334 236.5 17.9998 236.5 16.7998C236.5 16.0665 236.334 15.4667 236 15C235.667 14.6 235.267 14.2667 234.8 14C234.267 13.6667 233.7 13.4002 233.1 13.2002C232.567 13.0002 232.1 12.8335 231.7 12.7002C231.3 12.5669 231 12.4002 230.8 12.2002C230.6 12.0669 230.5 11.8668 230.5 11.6001C230.5 11.4001 230.567 11.2334 230.7 11.1001C230.9 10.9668 231.167 10.8999 231.5 10.8999C232.034 10.8999 232.6 11.0331 233.2 11.2998C233.8 11.6331 234.367 11.9999 234.9 12.3999L236.2 10C235.734 9.66667 235.267 9.36676 234.8 9.1001C234.267 8.83343 233.7 8.63333 233.1 8.5C232.567 8.36667 231.967 8.2998 231.3 8.2998C230.434 8.2998 229.7 8.43353 229.1 8.7002C228.433 8.9002 227.9 9.26647 227.5 9.7998C227.167 10.2665 227 10.8333 227 11.5C227 12.2333 227.167 12.8331 227.5 13.2998C227.767 13.7665 228.167 14.1667 228.7 14.5C229.167 14.7667 229.667 15.0002 230.2 15.2002C230.867 15.3335 231.367 15.5002 231.7 15.7002C232.034 15.8335 232.3 16.0002 232.5 16.2002C232.634 16.4002 232.7 16.5998 232.7 16.7998C232.7 17.0665 232.6 17.3 232.4 17.5C232.2 17.6333 231.933 17.7002 231.6 17.7002C231.333 17.7002 231 17.6668 230.6 17.6001C230.267 17.4668 229.834 17.2667 229.3 17C228.834 16.7333 228.334 16.3666 227.8 15.8999ZM242.3 20V0.5H238.5V20H242.3ZM246 13V20H249.8V12.5C249.8 11.5 249.667 10.7001 249.4 10.1001C249.134 9.43343 248.7 8.93343 248.1 8.6001C247.567 8.26676 246.8 8.1001 245.8 8.1001C244.867 8.1001 244.1 8.33314 243.5 8.7998C242.9 9.1998 242.433 9.76667 242.1 10.5C241.833 11.3 241.7 12.1333 241.7 13H242.3C242.3 12.6 242.4 12.2332 242.6 11.8999C242.733 11.5666 242.967 11.3335 243.3 11.2002C243.567 11.0002 243.9 10.8999 244.3 10.8999C244.967 10.8999 245.4 11.1 245.6 11.5C245.867 11.8333 246 12.3333 246 13ZM277.8 20V12.6001C277.8 11.6668 277.667 10.8998 277.4 10.2998C277.2 9.63314 276.833 9.13314 276.3 8.7998C275.767 8.46647 275.067 8.2998 274.2 8.2998C273.4 8.2998 272.7 8.46647 272.1 8.7998C271.434 9.13314 270.9 9.60019 270.5 10.2002C270.3 9.53353 269.934 9.06647 269.4 8.7998C268.867 8.46647 268.134 8.2998 267.2 8.2998C266.4 8.2998 265.734 8.46647 265.2 8.7998C264.667 9.13314 264.234 9.60019 263.9 10.2002V8.5H260.2V20H263.9V13C263.9 12.5333 263.967 12.1666 264.1 11.8999C264.233 11.5666 264.434 11.3335 264.7 11.2002C264.967 11.0002 265.267 10.8999 265.6 10.8999C266.133 10.8999 266.5 11.1 266.7 11.5C266.9 11.8333 267 12.3333 267 13V20H270.8V13C270.8 12.5333 270.867 12.1666 271 11.8999C271.2 11.5666 271.4 11.3335 271.6 11.2002C271.867 11.0002 272.167 10.8999 272.5 10.8999C273.034 10.8999 273.4 11.1 273.6 11.5C273.867 11.8333 274 12.3333 274 13V20H277.8ZM284.7 15.5V8.5H280.7V15.8999C280.7 17.2999 281.034 18.4002 281.7 19.2002C282.367 19.9335 283.434 20.2998 284.9 20.2998C285.7 20.2998 286.4 20.1331 287 19.7998C287.534 19.3998 288 18.8998 288.4 18.2998V20H292.1V8.5H288.4V15.5C288.4 15.9667 288.3 16.3669 288.1 16.7002C287.967 17.0335 287.734 17.2666 287.4 17.3999C287.134 17.5999 286.8 17.7002 286.4 17.7002C285.734 17.7002 285.3 17.5001 285.1 17.1001C284.833 16.7001 284.7 16.1667 284.7 15.5ZM298 16.3999C298 16.1332 298.067 15.9002 298.2 15.7002C298.334 15.5002 298.534 15.3665 298.8 15.2998C299.067 15.1665 299.434 15.1001 299.9 15.1001C300.5 15.1001 301.067 15.1999 301.6 15.3999C302.133 15.5332 302.6 15.7333 303 16V14.3999C302.8 14.1332 302.5 13.9331 302.1 13.7998C301.7 13.5998 301.2 13.4331 300.6 13.2998C300.067 13.0998 299.434 13 298.7 13C297.3 13 296.2 13.3333 295.4 14C294.6 14.6667 294.2 15.5334 294.2 16.6001C294.2 17.4001 294.4 18.0668 294.8 18.6001C295.2 19.2001 295.7 19.6332 296.3 19.8999C296.9 20.1666 297.567 20.2998 298.3 20.2998C299.034 20.2998 299.734 20.1666 300.4 19.8999C301 19.6332 301.5 19.2665 301.9 18.7998C302.3 18.2665 302.5 17.6332 302.5 16.8999L302.1 15.3999C302.1 15.9332 302 16.3669 301.8 16.7002C301.534 17.1002 301.234 17.3667 300.9 17.5C300.5 17.7 300.1 17.7998 299.7 17.7998C299.367 17.7998 299.1 17.7669 298.9 17.7002C298.634 17.5669 298.434 17.4002 298.3 17.2002C298.1 17.0002 298 16.7332 298 16.3999ZM295.1 9.5L296.4 12C296.534 11.9333 296.8 11.8335 297.2 11.7002C297.534 11.5002 297.934 11.3665 298.4 11.2998C298.934 11.1665 299.467 11.1001 300 11.1001C300.334 11.1001 300.634 11.1335 300.9 11.2002C301.167 11.2669 301.4 11.3667 301.6 11.5C301.8 11.6333 301.934 11.8 302 12C302.067 12.2667 302.1 12.5331 302.1 12.7998V20H305.8V11.8999C305.8 11.0999 305.567 10.4332 305.1 9.8999C304.633 9.36657 304 8.96686 303.2 8.7002C302.4 8.36686 301.467 8.2002 300.4 8.2002C299.334 8.2002 298.334 8.33343 297.4 8.6001C296.534 8.86676 295.767 9.16667 295.1 9.5ZM326.1 20V12.6001C326.1 11.6668 326 10.8998 325.8 10.2998C325.534 9.63314 325.133 9.13314 324.6 8.7998C324.133 8.46647 323.434 8.2998 322.5 8.2998C321.7 8.2998 321 8.46647 320.4 8.7998C319.8 9.13314 319.3 9.60019 318.9 10.2002C318.634 9.53353 318.234 9.06647 317.7 8.7998C317.167 8.46647 316.467 8.2998 315.6 8.2998C314.8 8.2998 314.1 8.46647 313.5 8.7998C312.967 9.13314 312.534 9.60019 312.2 10.2002V8.5H308.6V20H312.2V13C312.2 12.5333 312.267 12.1666 312.4 11.8999C312.6 11.5666 312.8 11.3335 313 11.2002C313.267 11.0002 313.567 10.8999 313.9 10.8999C314.434 10.8999 314.8 11.1 315 11.5C315.267 11.8333 315.4 12.3333 315.4 13V20H319.2V13C319.2 12.5333 319.267 12.1666 319.4 11.8999C319.534 11.5666 319.734 11.3335 320 11.2002C320.267 11.0002 320.567 10.8999 320.9 10.8999C321.434 10.8999 321.8 11.1 322 11.5C322.2 11.8333 322.3 12.3333 322.3 13V20H326.1ZM346.6 20V12.6001C346.6 11.6668 346.5 10.8998 346.3 10.2998C346.034 9.63314 345.633 9.13314 345.1 8.7998C344.633 8.46647 343.934 8.2998 343 8.2998C342.2 8.2998 341.5 8.46647 340.9 8.7998C340.3 9.13314 339.8 9.60019 339.4 10.2002C339.134 9.53353 338.734 9.06647 338.2 8.7998C337.667 8.46647 336.967 8.2998 336.1 8.2998C335.3 8.2998 334.6 8.46647 334 8.7998C333.467 9.13314 333.034 9.60019 332.7 10.2002V8.5H329.1V20H332.7V13C332.7 12.5333 332.767 12.1666 332.9 11.8999C333.1 11.5666 333.3 11.3335 333.5 11.2002C333.767 11.0002 334.067 10.8999 334.4 10.8999C334.934 10.8999 335.3 11.1 335.5 11.5C335.767 11.8333 335.9 12.3333 335.9 13V20H339.7V13C339.7 12.5333 339.767 12.1666 339.9 11.8999C340.034 11.5666 340.234 11.3335 340.5 11.2002C340.767 11.0002 341.067 10.8999 341.4 10.8999C341.934 10.8999 342.3 11.1 342.5 11.5C342.7 11.8333 342.8 12.3333 342.8 13V20H346.6ZM348.9 14.2998C348.9 15.4998 349.2 16.5332 349.8 17.3999C350.333 18.3332 351.1 19.0333 352.1 19.5C353.1 20.0333 354.234 20.2998 355.5 20.2998C356.767 20.2998 357.867 20.0333 358.8 19.5C359.8 19.0333 360.6 18.3332 361.2 17.3999C361.8 16.5332 362.1 15.4998 362.1 14.2998C362.1 13.0998 361.8 12.0334 361.2 11.1001C360.6 10.2334 359.8 9.53333 358.8 9C357.867 8.53333 356.767 8.2998 355.5 8.2998C354.234 8.2998 353.1 8.53333 352.1 9C351.1 9.53333 350.333 10.2334 349.8 11.1001C349.2 12.0334 348.9 13.0998 348.9 14.2998ZM352.8 14.2998C352.8 13.6998 352.934 13.1669 353.2 12.7002C353.4 12.3002 353.7 11.9669 354.1 11.7002C354.5 11.5002 354.967 11.3999 355.5 11.3999C355.967 11.3999 356.4 11.5002 356.8 11.7002C357.2 11.9669 357.534 12.3002 357.8 12.7002C358.067 13.1669 358.2 13.6998 358.2 14.2998C358.2 14.8998 358.067 15.3998 357.8 15.7998C357.534 16.2665 357.2 16.5998 356.8 16.7998C356.4 17.0665 355.967 17.2002 355.5 17.2002C354.967 17.2002 354.5 17.0665 354.1 16.7998C353.7 16.5998 353.4 16.2665 353.2 15.7998C352.934 15.3998 352.8 14.8998 352.8 14.2998ZM377.7 20.2998C379.167 20.2998 380.4 19.9999 381.4 19.3999C382.4 18.8666 383.2 18.0332 383.8 16.8999L380.5 16C380.167 16.5333 379.767 16.9335 379.3 17.2002C378.833 17.4002 378.267 17.5 377.6 17.5C377 17.5 376.5 17.4002 376.1 17.2002C375.7 16.9335 375.4 16.5333 375.2 16C375 15.5333 374.9 14.9335 374.9 14.2002C374.967 13.4669 375.067 12.8331 375.2 12.2998C375.4 11.7665 375.7 11.4002 376.1 11.2002C376.5 10.9335 376.967 10.7998 377.5 10.7998C377.967 10.7998 378.367 10.9001 378.7 11.1001C379.034 11.3001 379.3 11.6 379.5 12C379.7 12.3333 379.8 12.7665 379.8 13.2998C379.8 13.3665 379.767 13.5002 379.7 13.7002C379.634 13.9002 379.567 14.0334 379.5 14.1001L380.4 13H373.3V15.1001H383.8C383.8 14.9668 383.8 14.8335 383.8 14.7002C383.8 14.5002 383.8 14.3001 383.8 14.1001C383.8 12.9001 383.567 11.8667 383.1 11C382.633 10.1333 381.934 9.46667 381 9C380.067 8.53333 378.934 8.2998 377.6 8.2998C376.267 8.2998 375.1 8.53333 374.1 9C373.167 9.46667 372.434 10.1668 371.9 11.1001C371.367 11.9668 371.1 13.0331 371.1 14.2998C371.1 15.4998 371.367 16.5667 371.9 17.5C372.434 18.3667 373.2 19.0333 374.2 19.5C375.2 20.0333 376.367 20.2998 377.7 20.2998ZM403.7 20V12.6001C403.7 11.6668 403.567 10.8998 403.3 10.2998C403.1 9.63314 402.734 9.13314 402.2 8.7998C401.667 8.46647 400.967 8.2998 400.1 8.2998C399.3 8.2998 398.6 8.46647 398 8.7998C397.334 9.13314 396.8 9.60019 396.4 10.2002C396.2 9.53353 395.833 9.06647 395.3 8.7998C394.767 8.46647 394.033 8.2998 393.1 8.2998C392.3 8.2998 391.633 8.46647 391.1 8.7998C390.567 9.13314 390.134 9.60019 389.8 10.2002V8.5H386.1V20H389.8V13C389.8 12.5333 389.867 12.1666 390 11.8999C390.134 11.5666 390.333 11.3335 390.6 11.2002C390.867 11.0002 391.167 10.8999 391.5 10.8999C392.034 10.8999 392.4 11.1 392.6 11.5C392.8 11.8333 392.9 12.3333 392.9 13V20H396.7V13C396.7 12.5333 396.767 12.1666 396.9 11.8999C397.1 11.5666 397.3 11.3335 397.5 11.2002C397.767 11.0002 398.067 10.8999 398.4 10.8999C398.934 10.8999 399.3 11.1 399.5 11.5C399.767 11.8333 399.9 12.3333 399.9 13V20H403.7ZM409.6 16.3999C409.6 16.1332 409.667 15.9002 409.8 15.7002C409.934 15.5002 410.134 15.3665 410.4 15.2998C410.667 15.1665 411 15.1001 411.4 15.1001C412 15.1001 412.567 15.1999 413.1 15.3999C413.633 15.5332 414.1 15.7333 414.5 16V14.3999C414.3 14.1332 414 13.9331 413.6 13.7998C413.2 13.5998 412.7 13.4331 412.1 13.2998C411.567 13.0998 410.967 13 410.3 13C408.833 13 407.7 13.3333 406.9 14C406.167 14.6667 405.8 15.5334 405.8 16.6001C405.8 17.4001 405.967 18.0668 406.3 18.6001C406.7 19.2001 407.2 19.6332 407.8 19.8999C408.467 20.1666 409.167 20.2998 409.9 20.2998C410.634 20.2998 411.3 20.1666 411.9 19.8999C412.567 19.6332 413.1 19.2665 413.5 18.7998C413.9 18.2665 414.1 17.6332 414.1 16.8999L413.7 15.3999C413.7 15.9332 413.567 16.3669 413.3 16.7002C413.1 17.1002 412.8 17.3667 412.4 17.5C412.067 17.7 411.667 17.7998 411.2 17.7998C410.934 17.7998 410.667 17.7669 410.4 17.7002C410.134 17.5669 409.934 17.4002 409.8 17.2002C409.667 17.0002 409.6 16.7332 409.6 16.3999ZM406.6 9.5L407.9 12C408.034 11.9333 408.3 11.8335 408.7 11.7002C409.034 11.5002 409.467 11.3665 410 11.2998C410.467 11.1665 410.967 11.1001 411.5 11.1001C411.834 11.1001 412.134 11.1335 412.4 11.2002C412.667 11.2669 412.9 11.3667 413.1 11.5C413.3 11.6333 413.434 11.8 413.5 12C413.634 12.2667 413.7 12.5331 413.7 12.7998V20H417.3V11.8999C417.3 11.0999 417.067 10.4332 416.6 9.8999C416.133 9.36657 415.5 8.96686 414.7 8.7002C413.9 8.36686 413 8.2002 412 8.2002C410.867 8.2002 409.867 8.33343 409 8.6001C408.067 8.86676 407.267 9.16667 406.6 9.5ZM420.7 15.8999L419.2 18.3999C419.667 18.7999 420.2 19.1667 420.8 19.5C421.4 19.7667 422.067 20.0002 422.8 20.2002C423.534 20.4002 424.3 20.5 425.1 20.5C426.5 20.5 427.567 20.2001 428.3 19.6001C429.034 18.9334 429.4 17.9998 429.4 16.7998C429.4 16.0665 429.267 15.4667 429 15C428.667 14.6 428.234 14.2667 427.7 14C427.234 13.6667 426.7 13.4002 426.1 13.2002C425.5 13.0002 425 12.8335 424.6 12.7002C424.267 12.5669 423.967 12.4002 423.7 12.2002C423.5 12.0669 423.4 11.8668 423.4 11.6001C423.4 11.4001 423.5 11.2334 423.7 11.1001C423.9 10.9668 424.167 10.8999 424.5 10.8999C425.034 10.8999 425.6 11.0331 426.2 11.2998C426.8 11.6331 427.333 11.9999 427.8 12.3999L429.2 10C428.734 9.66667 428.234 9.36676 427.7 9.1001C427.234 8.83343 426.7 8.63333 426.1 8.5C425.567 8.36667 424.967 8.2998 424.3 8.2998C423.434 8.2998 422.667 8.43353 422 8.7002C421.4 8.9002 420.9 9.26647 420.5 9.7998C420.167 10.2665 420 10.8333 420 11.5C420 12.2333 420.134 12.8331 420.4 13.2998C420.734 13.7665 421.133 14.1667 421.6 14.5C422.133 14.7667 422.667 15.0002 423.2 15.2002C423.8 15.3335 424.3 15.5002 424.7 15.7002C425.034 15.8335 425.267 16.0002 425.4 16.2002C425.6 16.4002 425.7 16.5998 425.7 16.7998C425.7 17.0665 425.6 17.3 425.4 17.5C425.2 17.6333 424.9 17.7002 424.5 17.7002C424.234 17.7002 423.934 17.6668 423.6 17.6001C423.2 17.4668 422.767 17.2667 422.3 17C421.833 16.7333 421.3 16.3666 420.7 15.8999Z" fill="white"/>
</svg>
