<svg width="460" height="21" viewBox="0 0 460 21" fill="none" xmlns="http://www.w3.org/2000/svg">
<path d="M4.09982 1.60001H0.299805V17H4.09982V1.60001ZM8.99982 11.6L6.39981 13.5C6.79981 14.2333 7.29981 14.9 7.89981 15.5C8.56648 16.1 9.29982 16.6 10.0998 17C10.9665 17.3333 11.8998 17.5 12.8998 17.5C13.6331 17.5 14.3332 17.4 14.9998 17.2C15.7332 16.9333 16.3331 16.6 16.7998 16.2C17.3998 15.8 17.8332 15.3 18.0998 14.7C18.4332 14.1 18.5998 13.4 18.5998 12.6C18.5998 12 18.4998 11.4333 18.2998 10.9C18.0998 10.4333 17.7998 10 17.3998 9.60001C17.0665 9.20001 16.6665 8.86667 16.1998 8.60001C15.7332 8.33334 15.2332 8.09999 14.6998 7.89999C13.9665 7.63333 13.3331 7.40001 12.7998 7.20001C12.3331 7.00001 11.9665 6.76667 11.6998 6.5C11.4332 6.23333 11.2998 5.9 11.2998 5.5C11.2998 5.16667 11.4332 4.90001 11.6998 4.70001C11.9665 4.43335 12.3665 4.29999 12.8998 4.29999C13.2998 4.29999 13.6665 4.40001 13.9998 4.60001C14.3332 4.73334 14.6665 4.93335 14.9998 5.20001C15.2665 5.46668 15.4998 5.80001 15.6998 6.20001L18.5998 4.60001C18.3332 4.06667 17.9331 3.53333 17.3998 3C16.9331 2.53333 16.2998 2.13332 15.4998 1.79999C14.7665 1.39999 13.8998 1.20001 12.8998 1.20001C11.8998 1.20001 10.9665 1.39999 10.0998 1.79999C9.29982 2.13332 8.6665 2.63332 8.19983 3.29999C7.73316 3.96665 7.49982 4.73334 7.49982 5.60001C7.49982 6.40001 7.63314 7.06667 7.89981 7.60001C8.16648 8.13334 8.53315 8.56666 8.99982 8.89999C9.39982 9.29999 9.83314 9.59999 10.2998 9.79999C10.7665 10.0667 11.1998 10.2667 11.5998 10.4C12.3332 10.6667 12.9331 10.9 13.3998 11.1C13.8665 11.3667 14.1998 11.6333 14.3998 11.9C14.5998 12.1 14.6998 12.4 14.6998 12.8C14.6998 13.2667 14.5332 13.6333 14.1998 13.9C13.7998 14.1667 13.3331 14.3 12.7998 14.3C12.2665 14.3 11.7665 14.2 11.2998 14C10.8998 13.8 10.4998 13.4667 10.0998 13C9.69982 12.6 9.33315 12.1333 8.99982 11.6ZM19.5998 1.60001V4.89999H23.7998V17H27.4998V4.89999H31.6998V1.60001H19.5998ZM33.9998 11.2L33.6998 14H41.8998L41.5998 11.2H33.9998ZM35.5998 12.2L37.7998 7.29999L39.9998 12.2L39.7998 13.2L41.6998 17H45.8998L37.7998 0.600006L29.6998 17H33.8998L35.7998 13L35.5998 12.2ZM54.4998 8.60001V11.4H58.5998C58.4665 11.8 58.2665 12.2 57.9998 12.6C57.7998 12.9333 57.5332 13.2333 57.1998 13.5C56.8665 13.7 56.4665 13.9 55.9998 14.1C55.5998 14.2333 55.0998 14.3 54.4998 14.3C53.6332 14.3 52.8332 14.1 52.0998 13.7C51.4332 13.3 50.8665 12.7333 50.3998 12C50.0665 11.2 49.8998 10.3 49.8998 9.29999C49.8998 8.29999 50.0998 7.43335 50.4998 6.70001C50.8998 5.96668 51.4665 5.43334 52.1998 5.10001C52.8665 4.70001 53.6332 4.5 54.4998 4.5C55.4332 4.5 56.1665 4.70001 56.6998 5.10001C57.2998 5.50001 57.7998 6.00001 58.1998 6.60001L61.4998 4.89999C60.9665 4.16666 60.3665 3.53333 59.6998 3C59.0332 2.46667 58.2665 2.03335 57.3998 1.70001C56.5331 1.43335 55.5665 1.29999 54.4998 1.29999C53.2998 1.29999 52.1665 1.46665 51.0998 1.79999C50.0998 2.19999 49.1998 2.76667 48.3998 3.5C47.5998 4.16667 46.9998 5 46.5998 6C46.1998 7 45.9998 8.09999 45.9998 9.29999C45.9998 10.5 46.1998 11.6333 46.5998 12.7C46.9998 13.7 47.5665 14.5667 48.2998 15.3C49.0998 15.9667 49.9998 16.5 50.9998 16.9C51.9998 17.3 53.1331 17.5 54.3998 17.5C55.6665 17.5 56.8331 17.2667 57.8998 16.8C58.8998 16.3333 59.7331 15.7 60.3998 14.9C61.0665 14.0333 61.5665 13.0667 61.8998 12C62.2331 10.9333 62.3665 9.80001 62.2998 8.60001H54.4998ZM66.7998 11.2L66.4998 14H74.5998L74.3998 11.2H66.7998ZM68.3998 12.2L70.5998 7.29999L72.6998 12.3L72.5998 13.2L74.4998 17H78.6998L70.5998 0.600006L62.4998 17H66.6998L68.5998 13.1L68.3998 12.2ZM94.4998 1.5H90.8998V10.2L80.2998 0.799988V16.9H83.7998V8.29999L94.4998 17.7V1.5ZM114.5 1.5L110.8 10.7L107 1.5H102.7L110.8 17.9L118.9 1.5H114.5ZM120.9 11.1L120.7 13.9H128.8L128.6 11.1H120.9ZM122.5 12.1L124.6 7.20001L126.8 12.1L126.7 13.1L128.5 16.9H132.7L124.6 0.5L116.5 16.9H120.7L122.7 12.9L122.5 12.1ZM136.7 9.20001C136.7 8.26668 136.9 7.46665 137.3 6.79999C137.7 6.13332 138.2 5.60001 138.8 5.20001C139.466 4.80001 140.266 4.60001 141.2 4.60001C142.133 4.60001 142.966 4.83332 143.7 5.29999C144.366 5.76665 144.9 6.36667 145.3 7.10001C145.633 7.83334 145.8 8.66667 145.8 9.60001C145.8 10.5333 145.633 11.3333 145.3 12C144.9 12.6667 144.366 13.2 143.7 13.6C143.033 13.9333 142.267 14.1 141.4 14.1C140.533 14.1 139.733 13.9 139 13.5C138.333 13.1 137.766 12.5333 137.3 11.8C136.9 11.0667 136.7 10.2 136.7 9.20001ZM132.8 9.20001C132.8 10.4 133 11.5 133.4 12.5C133.8 13.5 134.366 14.3667 135.1 15.1C135.9 15.8333 136.8 16.4 137.8 16.8C138.8 17.2 139.933 17.4 141.2 17.4C142.4 17.4 143.5 17.2 144.5 16.8C145.5 16.4 146.366 15.8333 147.1 15.1C147.833 14.3667 148.4 13.5 148.8 12.5C149.2 11.5 149.4 10.4 149.4 9.20001C149.4 8.00001 149.166 6.93333 148.7 6C148.3 5 147.733 4.13333 147 3.39999C146.266 2.66666 145.4 2.13332 144.4 1.79999C143.4 1.39999 142.333 1.20001 141.2 1.20001C140 1.20001 138.9 1.39999 137.9 1.79999C136.9 2.13332 136 2.66666 135.2 3.39999C134.466 4.13333 133.866 5 133.4 6C133 6.93333 132.8 8.00001 132.8 9.20001ZM143.7 10.3H139.9L147.2 17.2H151.2L143.7 10.3ZM151 1.5V4.79999H155.3V16.9H159V4.79999H163.2V1.5H151ZM167 15.2L163.7 14.5L161.8 20.2L164.3 20.7L167 15.2ZM180.2 1.5H176.4V16.9H180.2V1.5ZM185.1 11.5L182.5 13.3C182.833 14.0333 183.333 14.7333 184 15.4C184.6 16 185.333 16.4667 186.2 16.8C187.066 17.2 188 17.4 189 17.4C189.733 17.4 190.433 17.3 191.1 17.1C191.766 16.8333 192.367 16.5 192.9 16.1C193.433 15.7 193.866 15.2 194.2 14.6C194.533 14 194.7 13.3 194.7 12.5C194.7 11.8333 194.6 11.2667 194.4 10.8C194.2 10.2667 193.9 9.83333 193.5 9.5C193.166 9.1 192.766 8.76667 192.3 8.5C191.833 8.23333 191.333 7.99999 190.8 7.79999C190.066 7.53332 189.433 7.30001 188.9 7.10001C188.433 6.83334 188.066 6.56665 187.8 6.29999C187.533 6.03332 187.4 5.73333 187.4 5.39999C187.4 5.06666 187.533 4.80001 187.8 4.60001C188.066 4.33334 188.466 4.20001 189 4.20001C189.4 4.20001 189.766 4.3 190.1 4.5C190.433 4.63333 190.733 4.83334 191 5.10001C191.333 5.36667 191.6 5.70001 191.8 6.10001L194.6 4.5C194.333 3.96667 193.966 3.43333 193.5 2.89999C192.966 2.36666 192.333 1.93334 191.6 1.60001C190.866 1.26667 189.967 1.10001 188.9 1.10001C187.9 1.10001 187 1.30001 186.2 1.70001C185.4 2.03335 184.766 2.50001 184.3 3.10001C183.833 3.76667 183.6 4.56667 183.6 5.5C183.6 6.23333 183.733 6.9 184 7.5C184.266 8.03333 184.6 8.46665 185 8.79999C185.466 9.19999 185.933 9.50001 186.4 9.70001C186.867 9.96668 187.3 10.1667 187.7 10.3C188.433 10.5667 189.033 10.8 189.5 11C189.966 11.2667 190.3 11.5 190.5 11.7C190.7 11.9667 190.8 12.3 190.8 12.7C190.8 13.1667 190.6 13.5333 190.2 13.8C189.866 14.0667 189.433 14.2 188.9 14.2C188.367 14.2 187.867 14.1 187.4 13.9C186.933 13.6333 186.5 13.3 186.1 12.9C185.766 12.5 185.433 12.0333 185.1 11.5ZM195.6 1.5V4.79999H199.9V16.9H203.6V4.79999H207.8V1.5H195.6ZM210 11.1L209.7 13.9H217.9L217.6 11.1H210ZM211.6 12.1L213.8 7.10001L216 12.1L215.8 13.1L217.7 16.9H221.9L213.8 0.5L205.7 16.9H209.9L211.8 12.9L211.6 12.1ZM230.5 8.5V11.3H234.5C234.366 11.7 234.2 12.0667 234 12.4C233.8 12.8 233.533 13.1 233.2 13.3C232.866 13.5667 232.466 13.7667 232 13.9C231.533 14.0333 231.033 14.1 230.5 14.1C229.566 14.1 228.766 13.9 228.1 13.5C227.366 13.1 226.8 12.5333 226.4 11.8C226 11.0667 225.8 10.2 225.8 9.20001C225.8 8.20001 226 7.33334 226.4 6.60001C226.867 5.86667 227.433 5.29999 228.1 4.89999C228.833 4.56666 229.633 4.39999 230.5 4.39999C231.366 4.39999 232.1 4.6 232.7 5C233.3 5.4 233.766 5.9 234.1 6.5L237.4 4.79999C236.933 4.06665 236.366 3.43333 235.7 2.89999C235.033 2.36666 234.267 1.93334 233.4 1.60001C232.533 1.26667 231.566 1.10001 230.5 1.10001C229.3 1.10001 228.166 1.30001 227.1 1.70001C226.033 2.10001 225.133 2.63332 224.4 3.29999C223.6 4.03332 223 4.89999 222.6 5.89999C222.133 6.89999 221.9 8.00001 221.9 9.20001C221.9 10.4 222.133 11.5 222.6 12.5C223 13.5 223.566 14.3667 224.3 15.1C225.033 15.8333 225.933 16.4 227 16.8C228 17.2 229.133 17.4 230.4 17.4C231.667 17.4 232.8 17.1667 233.8 16.7C234.866 16.2333 235.733 15.6 236.4 14.8C237.067 13.9333 237.567 12.9667 237.9 11.9C238.233 10.8333 238.333 9.7 238.2 8.5H230.5ZM242.8 11.1L242.6 13.9H250.7L250.5 11.1H242.8ZM244.4 12.1L246.5 7.10001L248.7 12.1L248.6 13.1L250.4 16.9H254.7L246.5 0.5L238.4 16.9H242.6L244.6 12.9L244.4 12.1ZM270.4 1.5H266.9V10.2L256.2 0.700012V16.9H259.8V8.20001L270.4 17.7V1.5ZM293.2 1.5H288.9L285.9 7.29999L282.9 1.5H278.7L284 10.6V16.9H287.8V10.6L293.2 1.5ZM297.3 13.8V16.9H305.1V13.8H297.3ZM297.3 1.5V4.60001H305V1.5H297.3ZM297.3 7.29999V10.3H304.7V7.29999H297.3ZM298.4 1.5H294.8V16.9H298.4V1.5ZM315.8 9.89999H311.9L316.2 16.9H320.6L315.8 9.89999ZM311.8 1.5H308.1V16.9H311.8V1.5ZM310.4 1.5V4.60001H313.4C313.933 4.60001 314.366 4.69999 314.7 4.89999C315.033 5.03333 315.3 5.26667 315.5 5.60001C315.7 5.86667 315.8 6.20001 315.8 6.60001C315.8 7.06667 315.7 7.43335 315.5 7.70001C315.3 8.03335 315.033 8.26666 314.7 8.39999C314.366 8.53333 313.933 8.60001 313.4 8.60001H310.4V11.5H313.7C315.033 11.5 316.133 11.3 317 10.9C317.866 10.5 318.533 9.90001 319 9.10001C319.466 8.36667 319.7 7.5 319.7 6.5C319.7 5.5 319.466 4.63333 319 3.89999C318.533 3.16666 317.866 2.56667 317 2.10001C316.133 1.70001 315.033 1.5 313.7 1.5H310.4ZM326.1 1.5H322.3V16.9H326.1V1.5ZM324.8 16.9H327.8C329.466 16.9 330.933 16.5667 332.2 15.9C333.4 15.3 334.333 14.4333 335 13.3C335.666 12.1 336 10.7333 336 9.20001C336 7.60001 335.666 6.23334 335 5.10001C334.333 3.96667 333.4 3.06666 332.2 2.39999C330.933 1.79999 329.466 1.5 327.8 1.5H324.8V4.79999H327.7C328.233 4.79999 328.766 4.86667 329.3 5C329.9 5.13333 330.4 5.36668 330.8 5.70001C331.2 6.03335 331.533 6.50001 331.8 7.10001C332.066 7.63334 332.2 8.33335 332.2 9.20001C332.2 10 332.066 10.7 331.8 11.3C331.533 11.8333 331.2 12.2667 330.8 12.6C330.4 12.9333 329.9 13.2 329.3 13.4C328.766 13.5333 328.233 13.6 327.7 13.6H324.8V16.9ZM340.4 11.1L340.2 13.9H348.3L348.1 11.1H340.4ZM342 12.1L344.1 7.10001L346.3 12.1L346.2 13.1L348 16.9H352.3L344.1 0.5L336 16.9H340.2L342.2 12.9L342 12.1ZM358.8 15.2L355.5 14.5L353.6 20.2L356.1 20.7L358.8 15.2ZM371.2 9.20001C371.2 8.26668 371.4 7.46665 371.8 6.79999C372.133 6.06665 372.633 5.50001 373.3 5.10001C373.966 4.70001 374.733 4.5 375.6 4.5C376.466 4.5 377.233 4.70001 377.9 5.10001C378.567 5.50001 379.067 6.06665 379.4 6.79999C379.733 7.46665 379.9 8.26668 379.9 9.20001C379.9 10.1333 379.733 10.9333 379.4 11.6C379 12.2667 378.5 12.8 377.9 13.2C377.233 13.6 376.466 13.8 375.6 13.8C374.733 13.8 373.966 13.6 373.3 13.2C372.633 12.8 372.133 12.2667 371.8 11.6C371.4 10.9333 371.2 10.1333 371.2 9.20001ZM367.3 9.20001C367.3 10.4 367.5 11.5 367.9 12.5C368.3 13.5 368.866 14.3667 369.6 15.1C370.333 15.8333 371.2 16.4 372.2 16.8C373.266 17.2 374.4 17.4 375.6 17.4C376.8 17.4 377.9 17.2 378.9 16.8C379.9 16.4 380.766 15.8333 381.5 15.1C382.233 14.3667 382.8 13.5 383.2 12.5C383.666 11.5 383.9 10.4 383.9 9.20001C383.9 8.00001 383.666 6.89999 383.2 5.89999C382.8 4.96666 382.233 4.13333 381.5 3.39999C380.766 2.66666 379.9 2.10001 378.9 1.70001C377.9 1.30001 376.8 1.10001 375.6 1.10001C374.4 1.10001 373.3 1.30001 372.3 1.70001C371.3 2.10001 370.433 2.66666 369.7 3.39999C368.9 4.13333 368.3 4.96666 367.9 5.89999C367.5 6.89999 367.3 8.00001 367.3 9.20001ZM400.4 1.5H396.9V10.2L386.2 0.700012V16.9H389.8V8.20001L400.4 17.7V1.5ZM407.4 1.5H403.7V16.9H413.6V13.7H407.4V1.5ZM418.7 11.1L418.4 13.9H426.5L426.3 11.1H418.7ZM420.3 12.1L422.5 7.10001L424.6 12.1L424.5 13.1L426.4 16.9H430.6L422.5 0.5L414.4 16.9H418.6L420.5 12.9L420.3 12.1ZM443.5 1.5H439.3L436.2 7.29999L433.2 1.5H429L434.4 10.6V16.9H438.1V10.6L443.5 1.5ZM459.4 1.5H455.8V10.2L445.1 0.700012V16.9H448.7V8.20001L459.4 17.7V1.5Z" fill="#0060FF"/>
</svg>
