<svg width="67" height="15" viewBox="0 0 67 15" fill="none" xmlns="http://www.w3.org/2000/svg">
<path d="M1 12.3008L0 13.6011C0.133333 13.7344 0.333309 13.8676 0.599976 14.001C0.799976 14.0676 1.03332 14.1674 1.29999 14.3008C1.63332 14.3674 1.96665 14.4009 2.29999 14.4009C2.63332 14.4009 2.96665 14.3674 3.29999 14.3008C3.69999 14.1674 4.00001 14.0008 4.20001 13.8008C4.46668 13.6008 4.66665 13.3343 4.79999 13.001C4.93332 12.6676 5 12.3009 5 11.9009V0.500977H3.20001V11.501C3.20001 11.9676 3.10002 12.301 2.90002 12.501C2.63336 12.701 2.40001 12.8008 2.20001 12.8008C1.93335 12.8008 1.7 12.7678 1.5 12.7012C1.3 12.5678 1.13333 12.4341 1 12.3008ZM8.20001 8.90088C8.20001 8.63421 8.26669 8.43411 8.40002 8.30078C8.46669 8.16745 8.63336 8.06764 8.90002 8.00098C9.10002 7.86764 9.36668 7.80078 9.70001 7.80078C10.1 7.80078 10.4667 7.86764 10.8 8.00098C11.1333 8.06764 11.4667 8.20088 11.8 8.40088V7.60107C11.6667 7.53441 11.5 7.43411 11.3 7.30078C11.1 7.16745 10.8333 7.03421 10.5 6.90088C10.1667 6.83421 9.76665 6.80078 9.29999 6.80078C8.43332 6.80078 7.76665 7.00088 7.29999 7.40088C6.83332 7.73421 6.59998 8.23421 6.59998 8.90088C6.59998 9.36755 6.70002 9.76774 6.90002 10.1011C7.10002 10.4344 7.39999 10.7009 7.79999 10.9009C8.19999 11.0342 8.6 11.1011 9 11.1011C9.4 11.1011 9.80001 11.0342 10.2 10.9009C10.6 10.7675 10.9 10.5674 11.1 10.3008C11.3666 9.96745 11.5 9.60117 11.5 9.20117L11.3 8.30078C11.3 8.63411 11.2 8.93451 11 9.20117C10.8667 9.40117 10.6667 9.56784 10.4 9.70117C10.1334 9.83451 9.83333 9.90088 9.5 9.90088C9.23333 9.90088 8.99999 9.86745 8.79999 9.80078C8.66665 9.73411 8.53336 9.63431 8.40002 9.50098C8.26669 9.30098 8.20001 9.10088 8.20001 8.90088ZM7.09998 4.80078L7.70001 5.90088C7.83335 5.83421 8.00001 5.73441 8.20001 5.60107C8.40001 5.53441 8.63336 5.46755 8.90002 5.40088C9.16669 5.33421 9.46665 5.30078 9.79999 5.30078C9.99999 5.30078 10.2 5.30078 10.4 5.30078C10.6 5.36745 10.7667 5.43431 10.9 5.50098C11.0334 5.56764 11.1333 5.70088 11.2 5.90088C11.2667 6.03421 11.3 6.20088 11.3 6.40088V11.001H12.9V6.10107C12.9 5.63441 12.7667 5.23421 12.5 4.90088C12.2333 4.56755 11.9 4.33451 11.5 4.20117C11.0333 4.00117 10.5333 3.90088 10 3.90088C9.33333 3.90088 8.76665 4.00117 8.29999 4.20117C7.76665 4.40117 7.36664 4.60078 7.09998 4.80078ZM19.2 6.80078V11.001H20.9V6.60107C20.9 5.80107 20.7 5.16784 20.3 4.70117C19.8333 4.16784 19.2333 3.90088 18.5 3.90088C18.0333 3.90088 17.6 4.00117 17.2 4.20117C16.8667 4.46784 16.6 4.80117 16.4 5.20117V4.10107H14.8V11.001H16.4V6.80078C16.4 6.46745 16.4666 6.20098 16.6 6.00098C16.7333 5.73431 16.9 5.53421 17.1 5.40088C17.3666 5.33421 17.6334 5.30078 17.9 5.30078C18.3667 5.30078 18.7 5.40107 18.9 5.60107C19.1 5.86774 19.2 6.26745 19.2 6.80078ZM25.6 9.80078L24 9.40088L22.6 13.2012L23.8 13.6011L25.6 9.80078ZM36.3 5.80078L31.5 10.9009H39.5V9.30078H34.9L37.9 6.40088C38.3 6.00088 38.6334 5.53431 38.9 5.00098C39.1667 4.46764 39.3 3.93421 39.3 3.40088C39.3 3.06755 39.2333 2.70078 39.1 2.30078C38.9666 1.96745 38.7334 1.63411 38.4 1.30078C38.1334 1.03411 37.7667 0.801074 37.3 0.601074C36.9 0.401074 36.3666 0.300781 35.7 0.300781C34.9666 0.300781 34.2999 0.467448 33.7 0.800781C33.1666 1.13411 32.7334 1.60117 32.4 2.20117C32.1334 2.73451 32 3.40117 32 4.20117H33.8C33.8 3.73451 33.8667 3.30088 34 2.90088C34.1333 2.56755 34.3666 2.30107 34.7 2.10107C34.9666 1.96774 35.2999 1.90088 35.7 1.90088C36.0333 1.90088 36.3 1.93431 36.5 2.00098C36.7 2.06764 36.8667 2.20088 37 2.40088C37.2 2.53421 37.3334 2.70088 37.4 2.90088C37.4667 3.10088 37.5 3.30098 37.5 3.50098C37.5 3.76764 37.4667 4.03411 37.4 4.30078C37.2667 4.56745 37.1333 4.83441 37 5.10107C36.8 5.30107 36.5667 5.53411 36.3 5.80078ZM42.6 5.70117C42.6 5.16784 42.6333 4.66784 42.7 4.20117C42.8333 3.66784 43 3.23421 43.2 2.90088C43.4 2.56755 43.6334 2.33451 43.9 2.20117C44.2334 2.00117 44.5667 1.90088 44.9 1.90088C45.3 1.90088 45.6334 2.00117 45.9 2.20117C46.1667 2.33451 46.4 2.56755 46.6 2.90088C46.8 3.23421 46.9666 3.66784 47.1 4.20117C47.2333 4.66784 47.3 5.16784 47.3 5.70117C47.3 6.23451 47.2333 6.73451 47.1 7.20117C46.9666 7.66784 46.8 8.10098 46.6 8.50098C46.4 8.83431 46.1667 9.10078 45.9 9.30078C45.6334 9.43411 45.3 9.50098 44.9 9.50098C44.5667 9.50098 44.2334 9.43411 43.9 9.30078C43.6334 9.10078 43.4 8.83431 43.2 8.50098C43 8.10098 42.8333 7.66784 42.7 7.20117C42.6333 6.73451 42.6 6.23451 42.6 5.70117ZM40.8 5.70117C40.8 6.76784 40.9667 7.73441 41.3 8.60107C41.7001 9.40107 42.2001 10.0009 42.8 10.4009C43.4 10.8675 44.1 11.1011 44.9 11.1011C45.7 11.1011 46.4333 10.8675 47.1 10.4009C47.7 10.0009 48.1667 9.40107 48.5 8.60107C48.8333 7.73441 49 6.76784 49 5.70117C49 4.63451 48.8333 3.66745 48.5 2.80078C48.1667 2.00078 47.7 1.40098 47.1 1.00098C46.4333 0.53431 45.7 0.300781 44.9 0.300781C44.1 0.300781 43.4 0.53431 42.8 1.00098C42.2001 1.40098 41.7001 2.00078 41.3 2.80078C40.9667 3.66745 40.8 4.63451 40.8 5.70117ZM54.8 5.80078L49.9 10.9009H57.9V9.30078H53.4L56.3 6.40088C56.7667 6.00088 57.1334 5.53431 57.4 5.00098C57.6667 4.46764 57.8 3.93421 57.8 3.40088C57.8 3.06755 57.7333 2.70078 57.6 2.30078C57.4 1.96745 57.1667 1.63411 56.9 1.30078C56.5667 1.03411 56.2001 0.801074 55.8 0.601074C55.3334 0.401074 54.7999 0.300781 54.2 0.300781C53.4 0.300781 52.7333 0.467448 52.2 0.800781C51.6 1.13411 51.1667 1.60117 50.9 2.20117C50.6334 2.73451 50.5 3.40117 50.5 4.20117H52.2C52.2 3.73451 52.2667 3.30088 52.4 2.90088C52.6 2.56755 52.8333 2.30107 53.1 2.10107C53.4333 1.96774 53.7999 1.90088 54.2 1.90088C54.4666 1.90088 54.7 1.93431 54.9 2.00098C55.1 2.06764 55.3 2.20088 55.5 2.40088C55.6333 2.53421 55.7334 2.70088 55.8 2.90088C55.8667 3.10088 55.9 3.30098 55.9 3.50098C55.9 3.76764 55.8667 4.03411 55.8 4.30078C55.7334 4.56745 55.6 4.83441 55.4 5.10107C55.2 5.30107 55 5.53411 54.8 5.80078ZM63.8 5.80078L59 10.9009H67V9.30078H62.4L65.4 6.40088C65.8 6.00088 66.1334 5.53431 66.4 5.00098C66.6667 4.46764 66.8 3.93421 66.8 3.40088C66.8 3.06755 66.7333 2.70078 66.6 2.30078C66.4666 1.96745 66.2334 1.63411 65.9 1.30078C65.6334 1.03411 65.2667 0.801074 64.8 0.601074C64.4 0.401074 63.8666 0.300781 63.2 0.300781C62.4666 0.300781 61.7999 0.467448 61.2 0.800781C60.6666 1.13411 60.2334 1.60117 59.9 2.20117C59.6334 2.73451 59.5 3.40117 59.5 4.20117H61.3C61.3 3.73451 61.3667 3.30088 61.5 2.90088C61.6333 2.56755 61.8666 2.30107 62.2 2.10107C62.4666 1.96774 62.7999 1.90088 63.2 1.90088C63.4666 1.90088 63.7333 1.93431 64 2.00098C64.2 2.06764 64.3667 2.20088 64.5 2.40088C64.7 2.53421 64.8334 2.70088 64.9 2.90088C64.9667 3.10088 65 3.30098 65 3.50098C65 3.76764 64.9667 4.03411 64.9 4.30078C64.7667 4.56745 64.6333 4.83441 64.5 5.10107C64.3 5.30107 64.0667 5.53411 63.8 5.80078Z" fill="#0060FF"/>
</svg>
