<svg width="193" height="25" viewBox="0 0 193 25" fill="none" xmlns="http://www.w3.org/2000/svg">
<path d="M3.49982 19.2998L0.799805 22.6001C1.26647 22.8668 1.76647 23.0998 2.2998 23.2998C2.83314 23.4998 3.43313 23.6999 4.09979 23.8999C4.76646 24.0332 5.43313 24.1001 6.09979 24.1001C6.96646 24.1001 7.76648 24.0332 8.49982 23.8999C9.29982 23.6999 9.96648 23.4334 10.4998 23.1001C11.0998 22.7001 11.5665 22.2001 11.8998 21.6001C12.2998 20.9334 12.4998 20.1665 12.4998 19.2998V0.5H7.09979V18.1001C7.09979 18.8334 6.93313 19.3669 6.59979 19.7002C6.26646 19.9669 5.89982 20.1001 5.49982 20.1001C5.16648 20.1001 4.83315 20.0332 4.49982 19.8999C4.09982 19.6999 3.76648 19.4998 3.49982 19.2998ZM19.1998 14.3999C19.1998 14.1332 19.2332 13.9331 19.2999 13.7998C19.4332 13.5998 19.5999 13.4666 19.7999 13.3999C20.0665 13.3332 20.3664 13.2998 20.6998 13.2998C21.2998 13.2998 21.8332 13.3667 22.2999 13.5C22.8332 13.6333 23.2665 13.8669 23.5998 14.2002V12.3999C23.3331 12.1332 22.9998 11.9002 22.5998 11.7002C22.1998 11.5002 21.6998 11.3335 21.0998 11.2002C20.5665 11.1335 19.9665 11.1001 19.2999 11.1001C17.8332 11.1001 16.7332 11.4 15.9998 12C15.1998 12.6667 14.7999 13.5334 14.7999 14.6001C14.7999 15.4001 14.9998 16.0668 15.3998 16.6001C15.7998 17.1334 16.2998 17.5666 16.8998 17.8999C17.4998 18.0999 18.1665 18.2002 18.8998 18.2002C19.6998 18.2002 20.3998 18.0999 20.9998 17.8999C21.6665 17.5666 22.1998 17.1669 22.5998 16.7002C22.9331 16.1669 23.0998 15.5331 23.0998 14.7998L22.6998 13.2998C22.6998 13.8331 22.5998 14.2668 22.3998 14.6001C22.1998 14.9334 21.9331 15.1999 21.5998 15.3999C21.2665 15.5332 20.9331 15.6001 20.5998 15.6001C20.3331 15.6001 20.0998 15.5332 19.8998 15.3999C19.6332 15.3332 19.4332 15.2 19.2999 15C19.2332 14.8667 19.1998 14.6666 19.1998 14.3999ZM15.6998 7.3999L17.0998 10.2998C17.2331 10.1665 17.4998 10.0332 17.8998 9.8999C18.2332 9.76657 18.6664 9.63333 19.1998 9.5C19.7331 9.43333 20.2331 9.3999 20.6998 9.3999C21.0331 9.3999 21.3331 9.43333 21.5998 9.5C21.8665 9.56667 22.0999 9.66647 22.2999 9.7998C22.4332 9.93314 22.5331 10.0998 22.5998 10.2998C22.6665 10.4998 22.6998 10.7333 22.6998 11V18H26.8998V9.8999C26.8998 9.0999 26.6331 8.43324 26.0998 7.8999C25.6331 7.2999 24.9665 6.86676 24.0998 6.6001C23.2998 6.26676 22.3665 6.1001 21.2999 6.1001C20.2332 6.1001 19.1998 6.26676 18.1998 6.6001C17.2664 6.86676 16.4331 7.13324 15.6998 7.3999ZM30.1998 13.6001L28.5998 16.6001C29.1998 16.9334 29.8332 17.2668 30.4998 17.6001C31.1665 17.8668 31.8665 18.0998 32.5998 18.2998C33.3331 18.4331 34.0998 18.5 34.8998 18.5C36.3665 18.5 37.4664 18.2001 38.1998 17.6001C38.9998 17.0001 39.3998 16.0335 39.3998 14.7002C39.3998 14.0335 39.2332 13.4667 38.8998 13C38.6332 12.6 38.2331 12.2667 37.6998 12C37.2331 11.6667 36.6998 11.4002 36.0998 11.2002C35.4998 11.0002 34.9998 10.8335 34.5998 10.7002C34.1998 10.5669 33.8998 10.4331 33.6998 10.2998C33.4998 10.0998 33.3998 9.9002 33.3998 9.7002C33.3998 9.5002 33.4665 9.36647 33.5998 9.2998C33.7331 9.16647 33.9665 9.1001 34.2999 9.1001C34.8332 9.1001 35.3998 9.23333 35.9998 9.5C36.6665 9.83333 37.2665 10.2335 37.7999 10.7002L39.0998 7.7998C38.5665 7.53314 38.0331 7.26667 37.4998 7C36.9665 6.8 36.3999 6.63333 35.7999 6.5C35.2665 6.3 34.6332 6.2002 33.8998 6.2002C33.0332 6.2002 32.2665 6.33343 31.5998 6.6001C30.9331 6.86676 30.3998 7.26647 29.9998 7.7998C29.6665 8.26647 29.4998 8.86676 29.4998 9.6001C29.4998 10.3334 29.6332 10.9332 29.8998 11.3999C30.2332 11.8666 30.6331 12.2333 31.0998 12.5C31.6331 12.7667 32.1664 13.0002 32.6998 13.2002C33.3664 13.4002 33.8664 13.5998 34.1998 13.7998C34.5331 13.9331 34.7665 14.0669 34.8998 14.2002C35.0332 14.3335 35.0998 14.5002 35.0998 14.7002C35.0998 14.9669 35.0332 15.1665 34.8998 15.2998C34.7665 15.4331 34.5331 15.5 34.1998 15.5C33.9998 15.5 33.6999 15.4666 33.2999 15.3999C32.9665 15.2666 32.5331 15.0665 31.9998 14.7998C31.4665 14.5331 30.8664 14.1334 30.1998 13.6001ZM40.6998 12.2002C40.6998 13.4669 40.9998 14.5332 41.5998 15.3999C42.1998 16.3332 42.9998 17.0333 43.9998 17.5C45.0665 17.9667 46.2332 18.2002 47.4998 18.2002C48.7665 18.2002 49.9332 17.9667 50.9998 17.5C51.9998 17.0333 52.7998 16.3332 53.3998 15.3999C53.9998 14.5332 54.2999 13.4669 54.2999 12.2002C54.2999 11.0002 53.9998 9.93333 53.3998 9C52.7998 8.13333 51.9998 7.46667 50.9998 7C49.9332 6.46667 48.7665 6.2002 47.4998 6.2002C46.2332 6.2002 45.0665 6.46667 43.9998 7C42.9998 7.46667 42.1998 8.13333 41.5998 9C40.9998 9.93333 40.6998 11.0002 40.6998 12.2002ZM45.1998 12.2002C45.1998 11.6669 45.2998 11.2332 45.4998 10.8999C45.6998 10.4999 45.9665 10.2 46.2999 10C46.6999 9.8 47.0998 9.7002 47.4998 9.7002C47.8998 9.7002 48.2665 9.8 48.5998 10C48.9998 10.2 49.2998 10.4999 49.4998 10.8999C49.6998 11.2332 49.7999 11.6669 49.7999 12.2002C49.7999 12.7335 49.6998 13.2001 49.4998 13.6001C49.2998 14.0001 48.9998 14.3 48.5998 14.5C48.2665 14.6333 47.8998 14.7002 47.4998 14.7002C47.0998 14.7002 46.6999 14.6333 46.2999 14.5C45.9665 14.3 45.6998 14.0001 45.4998 13.6001C45.2998 13.2001 45.1998 12.7335 45.1998 12.2002ZM63.8998 11V18H68.3998V10.5C68.3998 9.16667 68.0665 8.13324 67.3998 7.3999C66.7998 6.5999 65.7331 6.2002 64.1998 6.2002C63.3331 6.2002 62.5998 6.3998 61.9998 6.7998C61.4665 7.13314 61.0331 7.6002 60.6998 8.2002V6.5H56.3998V18H60.6998V11C60.6998 10.6 60.7665 10.2332 60.8998 9.8999C61.0332 9.63324 61.2332 9.43314 61.4998 9.2998C61.7665 9.16647 62.0665 9.1001 62.3998 9.1001C62.9998 9.1001 63.3998 9.26676 63.5998 9.6001C63.7998 9.93343 63.8998 10.4 63.8998 11ZM88.7999 10.2998H83.7999L88.3998 18H93.9998L88.7999 10.2998ZM83.9998 0.5H79.0998V18H83.9998V0.5ZM82.1998 0.5V4.6001H85.5998C86.1331 4.6001 86.5665 4.66647 86.8998 4.7998C87.2332 4.9998 87.4998 5.23333 87.6998 5.5C87.8998 5.83333 87.9998 6.2001 87.9998 6.6001C87.9998 7.0001 87.8998 7.36686 87.6998 7.7002C87.4998 7.96686 87.2332 8.16647 86.8998 8.2998C86.5665 8.43314 86.1331 8.5 85.5998 8.5H82.1998V12.2002H85.9998C87.5998 12.2002 88.8998 11.9667 89.8998 11.5C90.9665 11.0333 91.7665 10.3332 92.2999 9.3999C92.7665 8.53324 92.9998 7.53324 92.9998 6.3999C92.9998 5.26657 92.7665 4.23314 92.2999 3.2998C91.7665 2.43314 90.9665 1.76647 89.8998 1.2998C88.8998 0.766471 87.5998 0.5 85.9998 0.5H82.1998ZM101.7 18.2998C103.233 18.2998 104.533 17.9999 105.6 17.3999C106.666 16.7999 107.5 15.9331 108.1 14.7998L104.2 14C104 14.4 103.666 14.7333 103.2 15C102.733 15.2 102.2 15.2998 101.6 15.2998C101.066 15.2998 100.633 15.2 100.3 15C99.9665 14.7333 99.6998 14.3666 99.4998 13.8999C99.2998 13.4332 99.1998 12.8998 99.1998 12.2998C99.1998 11.5665 99.2998 10.9667 99.4998 10.5C99.6331 9.96667 99.8664 9.5999 100.2 9.3999C100.533 9.13324 100.966 9 101.5 9C101.9 9 102.233 9.0998 102.5 9.2998C102.833 9.43314 103.066 9.66667 103.2 10C103.333 10.3333 103.4 10.7335 103.4 11.2002C103.4 11.3335 103.367 11.5002 103.3 11.7002C103.233 11.8335 103.166 11.9668 103.1 12.1001L104 11H97.2999V13.2002H108C108 13.0669 108 12.9002 108 12.7002C108 12.5002 108 12.3001 108 12.1001C108 10.8334 107.767 9.76657 107.3 8.8999C106.767 8.03324 106.033 7.4 105.1 7C104.166 6.53333 103 6.2998 101.6 6.2998C100.2 6.2998 98.9998 6.53333 97.9998 7C96.9998 7.46667 96.2331 8.16676 95.6998 9.1001C95.1664 9.96676 94.8998 11.0331 94.8998 12.2998C94.8998 13.4998 95.1664 14.5667 95.6998 15.5C96.2331 16.3667 97.0331 17.0333 98.0998 17.5C99.0998 18.0333 100.3 18.2998 101.7 18.2998ZM110.9 13.7002L109.3 16.6001C109.9 17.0001 110.533 17.3334 111.2 17.6001C111.866 17.9334 112.567 18.1665 113.3 18.2998C114.033 18.4998 114.833 18.6001 115.7 18.6001C117.1 18.6001 118.2 18.3002 119 17.7002C119.733 17.0335 120.1 16.0665 120.1 14.7998C120.1 14.0665 119.966 13.4667 119.7 13C119.366 12.6 118.966 12.2667 118.5 12C117.966 11.7333 117.433 11.4998 116.9 11.2998C116.233 11.0331 115.7 10.8335 115.3 10.7002C114.9 10.5669 114.6 10.4331 114.4 10.2998C114.2 10.1665 114.1 9.96686 114.1 9.7002C114.1 9.56686 114.167 9.43314 114.3 9.2998C114.5 9.16647 114.733 9.1001 115 9.1001C115.533 9.1001 116.133 9.26676 116.8 9.6001C117.467 9.86676 118.066 10.2335 118.6 10.7002L119.8 7.7998C119.333 7.53314 118.833 7.26667 118.3 7C117.767 6.8 117.2 6.63333 116.6 6.5C116 6.36667 115.366 6.2998 114.7 6.2998C113.766 6.2998 112.967 6.43353 112.3 6.7002C111.633 6.9002 111.133 7.26647 110.8 7.7998C110.4 8.26647 110.2 8.86676 110.2 9.6001C110.2 10.3334 110.333 10.9667 110.6 11.5C110.933 11.9667 111.367 12.3334 111.9 12.6001C112.367 12.8668 112.867 13.0998 113.4 13.2998C114.067 13.4998 114.567 13.6665 114.9 13.7998C115.3 13.9331 115.533 14.0998 115.6 14.2998C115.733 14.4331 115.8 14.5998 115.8 14.7998C115.8 14.9998 115.733 15.1665 115.6 15.2998C115.466 15.4331 115.233 15.5 114.9 15.5C114.7 15.5 114.433 15.4666 114.1 15.3999C113.7 15.3332 113.233 15.1331 112.7 14.7998C112.233 14.5998 111.633 14.2335 110.9 13.7002ZM122 23.5H126.4V6.5H122V23.5ZM135.7 12.2998C135.7 10.8998 135.433 9.73314 134.9 8.7998C134.367 7.93314 133.7 7.26647 132.9 6.7998C132.1 6.33314 131.233 6.1001 130.3 6.1001C129.3 6.1001 128.433 6.33314 127.7 6.7998C126.966 7.33314 126.4 8.06667 126 9C125.666 9.93333 125.5 11.0331 125.5 12.2998C125.5 13.4998 125.666 14.5667 126 15.5C126.4 16.4333 126.966 17.1669 127.7 17.7002C128.433 18.2335 129.3 18.5 130.3 18.5C131.233 18.5 132.1 18.2665 132.9 17.7998C133.7 17.3331 134.367 16.6335 134.9 15.7002C135.433 14.7669 135.7 13.6331 135.7 12.2998ZM131.1 12.2998C131.1 12.7665 131 13.2001 130.8 13.6001C130.6 13.9334 130.3 14.1999 129.9 14.3999C129.567 14.5999 129.166 14.7002 128.7 14.7002C128.3 14.7002 127.933 14.5999 127.6 14.3999C127.266 14.2666 126.966 14.0001 126.7 13.6001C126.5 13.2668 126.4 12.8331 126.4 12.2998C126.4 11.7665 126.5 11.2999 126.7 10.8999C126.966 10.5666 127.266 10.3335 127.6 10.2002C127.933 10.0002 128.3 9.8999 128.7 9.8999C129.166 9.8999 129.567 10.0002 129.9 10.2002C130.3 10.3335 130.6 10.6 130.8 11C131 11.3333 131.1 11.7665 131.1 12.2998ZM137.2 12.2998C137.2 13.4998 137.5 14.5667 138.1 15.5C138.7 16.3667 139.5 17.0333 140.5 17.5C141.566 18.0333 142.733 18.2998 144 18.2998C145.266 18.2998 146.433 18.0333 147.5 17.5C148.5 17.0333 149.3 16.3667 149.9 15.5C150.5 14.5667 150.8 13.4998 150.8 12.2998C150.8 11.0331 150.5 9.96676 149.9 9.1001C149.3 8.16676 148.5 7.46667 147.5 7C146.433 6.53333 145.266 6.2998 144 6.2998C142.733 6.2998 141.566 6.53333 140.5 7C139.5 7.46667 138.7 8.16676 138.1 9.1001C137.5 9.96676 137.2 11.0331 137.2 12.2998ZM141.7 12.2998C141.7 11.7665 141.8 11.2999 142 10.8999C142.2 10.4999 142.467 10.2 142.8 10C143.2 9.86667 143.6 9.7998 144 9.7998C144.4 9.7998 144.766 9.86667 145.1 10C145.5 10.2 145.8 10.4999 146 10.8999C146.2 11.2999 146.3 11.7665 146.3 12.2998C146.3 12.8331 146.2 13.3002 146 13.7002C145.8 14.0335 145.5 14.3 145.1 14.5C144.766 14.7 144.4 14.7998 144 14.7998C143.6 14.7998 143.2 14.7 142.8 14.5C142.467 14.3 142.2 14.0335 142 13.7002C141.8 13.3002 141.7 12.8331 141.7 12.2998ZM160.4 11V18H164.9V10.6001C164.9 9.2001 164.567 8.13324 163.9 7.3999C163.3 6.66657 162.233 6.2998 160.7 6.2998C159.833 6.2998 159.1 6.46647 158.5 6.7998C157.966 7.13314 157.533 7.6002 157.2 8.2002V6.5H152.9V18H157.2V11C157.2 10.6 157.267 10.2667 157.4 10C157.533 9.66667 157.733 9.43314 158 9.2998C158.266 9.23314 158.567 9.2002 158.9 9.2002C159.5 9.2002 159.9 9.36686 160.1 9.7002C160.3 9.96686 160.4 10.4 160.4 11ZM168.3 13.7002L166.7 16.6001C167.3 17.0001 167.933 17.3334 168.6 17.6001C169.266 17.9334 169.966 18.1665 170.7 18.2998C171.433 18.4998 172.2 18.6001 173 18.6001C174.466 18.6001 175.567 18.3002 176.3 17.7002C177.1 17.0335 177.5 16.0665 177.5 14.7998C177.5 14.0665 177.333 13.4667 177 13C176.733 12.6 176.333 12.2667 175.8 12C175.333 11.7333 174.8 11.4998 174.2 11.2998C173.6 11.0331 173.1 10.8335 172.7 10.7002C172.3 10.5669 172 10.4331 171.8 10.2998C171.6 10.1665 171.5 9.96686 171.5 9.7002C171.5 9.56686 171.566 9.43314 171.7 9.2998C171.833 9.16647 172.067 9.1001 172.4 9.1001C172.933 9.1001 173.5 9.26676 174.1 9.6001C174.766 9.86676 175.367 10.2335 175.9 10.7002L177.2 7.7998C176.666 7.53314 176.133 7.26667 175.6 7C175.066 6.8 174.5 6.63333 173.9 6.5C173.367 6.36667 172.733 6.2998 172 6.2998C171.133 6.2998 170.366 6.43353 169.7 6.7002C169.033 6.9002 168.5 7.26647 168.1 7.7998C167.766 8.26647 167.6 8.86676 167.6 9.6001C167.6 10.3334 167.733 10.9667 168 11.5C168.333 11.9667 168.733 12.3334 169.2 12.6001C169.733 12.8668 170.267 13.0998 170.8 13.2998C171.467 13.4998 171.967 13.6665 172.3 13.7998C172.633 13.9331 172.866 14.0998 173 14.2998C173.133 14.4331 173.2 14.5998 173.2 14.7998C173.2 14.9998 173.133 15.1665 173 15.2998C172.866 15.4331 172.633 15.5 172.3 15.5C172.1 15.5 171.8 15.4666 171.4 15.3999C171.067 15.3332 170.633 15.1331 170.1 14.7998C169.566 14.5998 168.967 14.2335 168.3 13.7002ZM185.7 18.2998C187.233 18.2998 188.533 17.9999 189.6 17.3999C190.666 16.7999 191.5 15.9331 192.1 14.7998L188.2 14C187.933 14.4 187.566 14.7333 187.1 15C186.7 15.2 186.166 15.2998 185.5 15.2998C185.033 15.2998 184.6 15.2 184.2 15C183.866 14.7333 183.6 14.3666 183.4 13.8999C183.267 13.4332 183.2 12.8998 183.2 12.2998C183.2 11.5665 183.267 10.9667 183.4 10.5C183.6 9.96667 183.866 9.5999 184.2 9.3999C184.533 9.13324 184.933 9 185.4 9C185.8 9 186.166 9.0998 186.5 9.2998C186.766 9.43314 186.966 9.66667 187.1 10C187.3 10.3333 187.4 10.7335 187.4 11.2002C187.4 11.3335 187.367 11.5002 187.3 11.7002C187.233 11.8335 187.166 11.9668 187.1 12.1001L188 11H181.2V13.2002H191.9C191.967 13.0669 192 12.9002 192 12.7002C192 12.5002 192 12.3001 192 12.1001C192 10.8334 191.733 9.76657 191.2 8.8999C190.733 8.03324 190.033 7.4 189.1 7C188.1 6.53333 186.9 6.2998 185.5 6.2998C184.1 6.2998 182.9 6.53333 181.9 7C180.9 7.46667 180.133 8.16676 179.6 9.1001C179.066 9.96676 178.8 11.0331 178.8 12.2998C178.8 13.4998 179.1 14.5667 179.7 15.5C180.233 16.3667 181 17.0333 182 17.5C183.066 18.0333 184.3 18.2998 185.7 18.2998Z" fill="#202020"/>
</svg>
