<svg width="142" height="27" viewBox="0 0 142 27" fill="none" xmlns="http://www.w3.org/2000/svg">
<path d="M3.49976 21.2998L0.799805 24.6001C1.26647 24.8668 1.76647 25.0998 2.2998 25.2998C2.83314 25.4998 3.43306 25.6999 4.09973 25.8999C4.7664 26.0332 5.43306 26.1001 6.09973 26.1001C6.9664 26.1001 7.76642 26.0332 8.49976 25.8999C9.29976 25.6999 9.96642 25.4334 10.4998 25.1001C11.0998 24.7001 11.5664 24.2001 11.8998 23.6001C12.2998 22.9334 12.4998 22.1665 12.4998 21.2998V2.5H7.09973V20.1001C7.09973 20.8334 6.93306 21.3669 6.59973 21.7002C6.2664 21.9669 5.89976 22.1001 5.49976 22.1001C5.16642 22.1001 4.83309 22.0332 4.49976 21.8999C4.09976 21.6999 3.76642 21.4998 3.49976 21.2998ZM14.9998 14.2002C14.9998 15.4669 15.2998 16.5332 15.8998 17.3999C16.4998 18.3332 17.2998 19.0333 18.2998 19.5C19.3665 19.9667 20.5331 20.2002 21.7998 20.2002C23.0665 20.2002 24.2331 19.9667 25.2998 19.5C26.2998 19.0333 27.0997 18.3332 27.6997 17.3999C28.2997 16.5332 28.5997 15.4669 28.5997 14.2002C28.5997 13.0002 28.2997 11.9333 27.6997 11C27.0997 10.1333 26.2998 9.46667 25.2998 9C24.2331 8.46667 23.0665 8.2002 21.7998 8.2002C20.5331 8.2002 19.3665 8.46667 18.2998 9C17.2998 9.46667 16.4998 10.1333 15.8998 11C15.2998 11.9333 14.9998 13.0002 14.9998 14.2002ZM19.4998 14.2002C19.4998 13.6669 19.5998 13.2332 19.7998 12.8999C19.9998 12.4999 20.2664 12.2 20.5997 12C20.9997 11.8 21.3998 11.7002 21.7998 11.7002C22.1998 11.7002 22.5664 11.8 22.8998 12C23.2998 12.2 23.5998 12.4999 23.7998 12.8999C23.9998 13.2332 24.0997 13.6669 24.0997 14.2002C24.0997 14.7335 23.9998 15.2001 23.7998 15.6001C23.5998 16.0001 23.2998 16.3 22.8998 16.5C22.5664 16.6333 22.1998 16.7002 21.7998 16.7002C21.3998 16.7002 20.9997 16.6333 20.5997 16.5C20.2664 16.3 19.9998 16.0001 19.7998 15.6001C19.5998 15.2001 19.4998 14.7335 19.4998 14.2002ZM38.1997 13V20H42.6997V12.5C42.6997 11.1667 42.3664 10.1332 41.6997 9.3999C41.0997 8.5999 40.0331 8.2002 38.4998 8.2002C37.6331 8.2002 36.8998 8.3998 36.2998 8.7998C35.7665 9.13314 35.3331 9.60019 34.9998 10.2002V8.5H30.6997V20H34.9998V13C34.9998 12.6 35.0664 12.2332 35.1997 11.8999C35.333 11.6332 35.5331 11.4331 35.7998 11.2998C36.0665 11.1665 36.3664 11.1001 36.6997 11.1001C37.2997 11.1001 37.6998 11.2668 37.8998 11.6001C38.0998 11.9334 38.1997 12.4 38.1997 13ZM54.1997 8.5V25.5H58.4998V8.5H54.1997ZM44.8998 14.2002C44.8998 15.6002 45.1331 16.7669 45.5997 17.7002C46.1331 18.5669 46.833 19.2335 47.6997 19.7002C48.4997 20.1669 49.3665 20.3999 50.2998 20.3999C51.2998 20.3999 52.1664 20.1669 52.8998 19.7002C53.6331 19.1669 54.1664 18.4333 54.4998 17.5C54.8998 16.5667 55.0997 15.4669 55.0997 14.2002C55.0997 13.0002 54.8998 11.9333 54.4998 11C54.1664 10.0667 53.6331 9.33314 52.8998 8.7998C52.1664 8.26647 51.2998 8 50.2998 8C49.3665 8 48.4997 8.23353 47.6997 8.7002C46.833 9.16686 46.1331 9.86647 45.5997 10.7998C45.1331 11.7331 44.8998 12.8669 44.8998 14.2002ZM49.3998 14.2002C49.3998 13.7335 49.4997 13.2999 49.6997 12.8999C49.9664 12.5666 50.2664 12.3001 50.5997 12.1001C50.9997 11.9668 51.3998 11.8999 51.7998 11.8999C52.1998 11.8999 52.5664 11.9668 52.8998 12.1001C53.2998 12.3001 53.5998 12.5666 53.7998 12.8999C54.0665 13.2332 54.1997 13.6669 54.1997 14.2002C54.1997 14.8002 54.0665 15.2668 53.7998 15.6001C53.5998 15.9334 53.2998 16.1999 52.8998 16.3999C52.5664 16.5332 52.1998 16.6001 51.7998 16.6001C51.3998 16.6001 50.9997 16.5332 50.5997 16.3999C50.2664 16.1999 49.9664 15.9 49.6997 15.5C49.4997 15.1667 49.3998 14.7335 49.3998 14.2002ZM65.7998 15.5V8.5H61.1997V15.8999C61.1997 17.2999 61.533 18.3668 62.1997 19.1001C62.7997 19.9001 63.8664 20.2998 65.3998 20.2998C66.2664 20.2998 66.9664 20.1002 67.4998 19.7002C68.0998 19.3669 68.5664 18.8998 68.8998 18.2998V20H73.1997V8.5H68.8998V15.5C68.8998 15.9 68.833 16.2333 68.6997 16.5C68.5664 16.8333 68.3664 17.0669 68.0997 17.2002C67.8331 17.3335 67.533 17.3999 67.1997 17.3999C66.6664 17.3999 66.2997 17.2332 66.0997 16.8999C65.8997 16.5666 65.7998 16.1 65.7998 15.5ZM75.6997 4.2998C75.6997 4.96647 75.9331 5.4999 76.3998 5.8999C76.8664 6.2999 77.4331 6.5 78.0997 6.5C78.7664 6.5 79.3331 6.2999 79.7998 5.8999C80.3331 5.4999 80.5997 4.96647 80.5997 4.2998C80.5997 3.63314 80.3331 3.1002 79.7998 2.7002C79.3331 2.3002 78.7664 2.1001 78.0997 2.1001C77.4331 2.1001 76.8664 2.3002 76.3998 2.7002C75.9331 3.1002 75.6997 3.63314 75.6997 4.2998ZM80.1997 8.5H75.9998V20H80.1997V8.5ZM87.2998 0.5H82.9998V20H87.2998V0.5ZM109.5 2.5L105.6 12L101.8 2.5H96.0997L105.6 21.2002L115.2 2.5H109.5ZM113.9 14.2002C113.9 15.4669 114.2 16.5332 114.8 17.3999C115.333 18.3332 116.133 19.0333 117.2 19.5C118.2 19.9667 119.333 20.2002 120.6 20.2002C121.933 20.2002 123.1 19.9667 124.1 19.5C125.1 19.0333 125.9 18.3332 126.5 17.3999C127.1 16.5332 127.4 15.4669 127.4 14.2002C127.4 13.0002 127.1 11.9333 126.5 11C125.9 10.1333 125.1 9.46667 124.1 9C123.1 8.46667 121.933 8.2002 120.6 8.2002C119.333 8.2002 118.2 8.46667 117.2 9C116.133 9.46667 115.333 10.1333 114.8 11C114.2 11.9333 113.9 13.0002 113.9 14.2002ZM118.3 14.2002C118.3 13.6669 118.4 13.2332 118.6 12.8999C118.866 12.4999 119.166 12.2 119.5 12C119.833 11.8 120.2 11.7002 120.6 11.7002C121.066 11.7002 121.466 11.8 121.8 12C122.133 12.2 122.4 12.4999 122.6 12.8999C122.866 13.2332 123 13.6669 123 14.2002C123 14.7335 122.866 15.2001 122.6 15.6001C122.4 16.0001 122.133 16.3 121.8 16.5C121.466 16.6333 121.066 16.7002 120.6 16.7002C120.2 16.7002 119.833 16.6333 119.5 16.5C119.166 16.3 118.866 16.0001 118.6 15.6001C118.4 15.2001 118.3 14.7335 118.3 14.2002ZM137 13V20H141.5V12.5C141.5 11.1667 141.2 10.1332 140.6 9.3999C139.933 8.5999 138.866 8.2002 137.4 8.2002C136.533 8.2002 135.8 8.3998 135.2 8.7998C134.6 9.13314 134.166 9.60019 133.9 10.2002V8.5H129.5V20H133.9V13C133.9 12.6 133.966 12.2332 134.1 11.8999C134.233 11.6332 134.433 11.4331 134.7 11.2998C134.966 11.1665 135.266 11.1001 135.6 11.1001C136.133 11.1001 136.5 11.2668 136.7 11.6001C136.9 11.9334 137 12.4 137 13Z" fill="#202020"/>
</svg>
