<svg width="296" height="61" viewBox="0 0 296 61" fill="none" xmlns="http://www.w3.org/2000/svg">
<path d="M4.89999 2.5H0.5V20H4.89999V2.5ZM15.8 2.5H10.8L3.70001 10.8L11 20H16.2L8.70001 10.7L15.8 2.5ZM20.5 16.3999C20.5 16.1332 20.5667 15.9 20.7 15.7C20.8333 15.5 21.0333 15.3333 21.3 15.2C21.5667 15.1333 21.9333 15.1001 22.4 15.1001C23 15.1001 23.5667 15.1667 24.1 15.3C24.6333 15.5 25.1 15.7333 25.5 16V14.3C25.3 14.1 25 13.9 24.6 13.7C24.2 13.5 23.7 13.3333 23.1 13.2C22.5667 13.0666 21.9333 13 21.2 13C19.8 13 18.7 13.3333 17.9 14C17.1 14.6 16.7 15.4668 16.7 16.6001C16.7 17.4001 16.9 18.0668 17.3 18.6001C17.7 19.1334 18.2 19.5334 18.8 19.8C19.4 20.0667 20.0667 20.2 20.8 20.2C21.5333 20.2 22.2333 20.0999 22.9 19.8999C23.5 19.6332 24 19.2333 24.4 18.7C24.8 18.1666 25 17.5334 25 16.8L24.6 15.3C24.6 15.8334 24.5 16.3 24.3 16.7C24.0333 17.0333 23.7333 17.3 23.4 17.5C23 17.7 22.6 17.8 22.2 17.8C21.8667 17.8 21.6 17.7334 21.4 17.6001C21.1333 17.5334 20.9333 17.4 20.8 17.2C20.6 16.9333 20.5 16.6666 20.5 16.3999ZM17.6 9.5L18.9 12C19.0333 11.9333 19.3 11.8001 19.7 11.6001C20.0333 11.4668 20.4333 11.3333 20.9 11.2C21.4333 11.1333 21.9667 11.1001 22.5 11.1001C22.8333 11.1001 23.1333 11.1001 23.4 11.1001C23.6667 11.1668 23.9 11.3 24.1 11.5C24.3 11.6333 24.4333 11.8 24.5 12C24.5667 12.2 24.6 12.4333 24.6 12.7V20H28.3V11.8999C28.3 11.0999 28.0667 10.4332 27.6 9.8999C27.1333 9.36657 26.5 8.93343 25.7 8.6001C24.9 8.33343 23.9667 8.19995 22.9 8.19995C21.8333 8.19995 20.8333 8.33343 19.9 8.6001C19.0333 8.86676 18.2667 9.16667 17.6 9.5ZM38.6 13V20H42.5V12.6001C42.5 11.2001 42.1667 10.1332 41.5 9.3999C40.8333 8.5999 39.8 8.19995 38.4 8.19995C37.5333 8.19995 36.8 8.36662 36.2 8.69995C35.6667 9.09995 35.2333 9.59995 34.9 10.2V8.5H31.1V20H34.9V13C34.9 12.5333 34.9667 12.1334 35.1 11.8C35.3 11.5334 35.5333 11.3001 35.8 11.1001C36.1333 10.9668 36.5 10.8999 36.9 10.8999C37.5 10.8999 37.9333 11.0666 38.2 11.3999C38.4667 11.7999 38.6 12.3333 38.6 13ZM48.4 16.3999C48.4 16.1332 48.4667 15.9 48.6 15.7C48.7333 15.5 48.9333 15.3333 49.2 15.2C49.4667 15.1333 49.8333 15.1001 50.3 15.1001C50.8333 15.1001 51.3667 15.1667 51.9 15.3C52.4333 15.5 52.9 15.7333 53.3 16V14.3C53.1 14.1 52.8 13.9 52.4 13.7C52 13.5 51.5333 13.3333 51 13.2C50.4 13.0666 49.7667 13 49.1 13C47.6333 13 46.5333 13.3333 45.8 14C45 14.6 44.6 15.4668 44.6 16.6001C44.6 17.4001 44.7667 18.0668 45.1 18.6001C45.5 19.1334 46 19.5334 46.6 19.8C47.2667 20.0667 47.9667 20.2 48.7 20.2C49.4333 20.2 50.1 20.0999 50.7 19.8999C51.3667 19.6332 51.9 19.2333 52.3 18.7C52.7 18.1666 52.9 17.5334 52.9 16.8L52.5 15.3C52.5 15.8334 52.3667 16.3 52.1 16.7C51.9 17.0333 51.6 17.3 51.2 17.5C50.8667 17.7 50.4667 17.8 50 17.8C49.7333 17.8 49.4667 17.7334 49.2 17.6001C48.9333 17.5334 48.7333 17.4 48.6 17.2C48.4667 16.9333 48.4 16.6666 48.4 16.3999ZM45.4 9.5L46.7 12C46.9 11.9333 47.1667 11.8001 47.5 11.6001C47.9 11.4668 48.3333 11.3333 48.8 11.2C49.2667 11.1333 49.7667 11.1001 50.3 11.1001C50.6333 11.1001 50.9333 11.1001 51.2 11.1001C51.5333 11.1668 51.7667 11.3 51.9 11.5C52.1 11.6333 52.2333 11.8 52.3 12C52.4333 12.2 52.5 12.4333 52.5 12.7V20H56.1V11.8999C56.1 11.0999 55.8667 10.4332 55.4 9.8999C54.9333 9.36657 54.3 8.93343 53.5 8.6001C52.7 8.33343 51.8 8.19995 50.8 8.19995C49.7333 8.19995 48.7333 8.33343 47.8 8.6001C46.8667 8.86676 46.0667 9.16667 45.4 9.5ZM71.4 0.5H67.7V20H71.4V0.5ZM58.3 14.2C58.3 15.5333 58.5333 16.6333 59 17.5C59.5333 18.3667 60.2333 19.0668 61.1 19.6001C61.9 20.0001 62.7667 20.2 63.7 20.2C64.7 20.2 65.5667 19.9667 66.3 19.5C67.0333 19.0333 67.6333 18.3332 68.1 17.3999C68.5 16.5332 68.7 15.4666 68.7 14.2C68.7 13 68.5 11.9668 68.1 11.1001C67.6333 10.1668 67.0333 9.46667 66.3 9C65.5667 8.46667 64.7 8.19995 63.7 8.19995C62.7667 8.19995 61.9 8.43324 61.1 8.8999C60.2333 9.36657 59.5333 10.0667 59 11C58.5333 11.8667 58.3 12.9333 58.3 14.2ZM62.2 14.2C62.2 13.6 62.3333 13.1 62.6 12.7C62.8667 12.2333 63.2 11.9 63.6 11.7C64 11.4333 64.4667 11.3 65 11.3C65.4 11.3 65.8 11.4001 66.2 11.6001C66.6667 11.8668 67.0333 12.2333 67.3 12.7C67.5667 13.1 67.7 13.6 67.7 14.2C67.7 14.8666 67.5667 15.4 67.3 15.8C67.0333 16.2667 66.6667 16.6 66.2 16.8C65.8 17.0667 65.4 17.2 65 17.2C64.4667 17.2 64 17.0667 63.6 16.8C63.2 16.6 62.8667 16.2667 62.6 15.8C62.3333 15.3334 62.2 14.8 62.2 14.2ZM77.3 16.3999C77.3 16.1332 77.3667 15.9 77.5 15.7C77.6333 15.5 77.8333 15.3333 78.1 15.2C78.3667 15.1333 78.7333 15.1001 79.2 15.1001C79.7333 15.1001 80.2667 15.1667 80.8 15.3C81.3333 15.5 81.8 15.7333 82.2 16V14.3C82 14.1 81.7 13.9 81.3 13.7C80.9 13.5 80.4333 13.3333 79.9 13.2C79.3 13.0666 78.6667 13 78 13C76.5333 13 75.4333 13.3333 74.7 14C73.9 14.6 73.5 15.4668 73.5 16.6001C73.5 17.4001 73.6667 18.0668 74 18.6001C74.4 19.1334 74.9 19.5334 75.5 19.8C76.1667 20.0667 76.8667 20.2 77.6 20.2C78.3333 20.2 79 20.0999 79.6 19.8999C80.2667 19.6332 80.8 19.2333 81.2 18.7C81.6 18.1666 81.8 17.5334 81.8 16.8L81.4 15.3C81.4 15.8334 81.2667 16.3 81 16.7C80.8 17.0333 80.5 17.3 80.1 17.5C79.7667 17.7 79.3667 17.8 78.9 17.8C78.6333 17.8 78.3667 17.7334 78.1 17.6001C77.8333 17.5334 77.6333 17.4 77.5 17.2C77.3667 16.9333 77.3 16.6666 77.3 16.3999ZM74.3 9.5L75.6 12C75.8 11.9333 76.0667 11.8001 76.4 11.6001C76.8 11.4668 77.2333 11.3333 77.7 11.2C78.1667 11.1333 78.6667 11.1001 79.2 11.1001C79.5333 11.1001 79.8333 11.1001 80.1 11.1001C80.4333 11.1668 80.6667 11.3 80.8 11.5C81 11.6333 81.1333 11.8 81.2 12C81.3333 12.2 81.4 12.4333 81.4 12.7V20H85V11.8999C85 11.0999 84.7667 10.4332 84.3 9.8999C83.8333 9.36657 83.2 8.93343 82.4 8.6001C81.6 8.33343 80.7 8.19995 79.7 8.19995C78.6333 8.19995 77.6333 8.33343 76.7 8.6001C75.7667 8.86676 74.9667 9.16667 74.3 9.5ZM91.6 0.5H87.8V20H91.6V0.5ZM94.4 4.19995C94.4 4.79995 94.6 5.26676 95 5.6001C95.4667 6.0001 96 6.19995 96.6 6.19995C97.2 6.19995 97.7 6.0001 98.1 5.6001C98.5667 5.26676 98.8 4.79995 98.8 4.19995C98.8 3.59995 98.5667 3.09995 98.1 2.69995C97.7 2.29995 97.2 2.1001 96.6 2.1001C96 2.1001 95.4667 2.29995 95 2.69995C94.6 3.09995 94.4 3.59995 94.4 4.19995ZM98.4 8.5H94.7V20H98.4V8.5ZM105.1 0.5H101.5V20H105.1V0.5ZM113.8 8.5H109.3L104.3 13.2L109.8 20H114.3L108.9 13.2L113.8 8.5ZM141 20V12.6001C141 11.6668 140.867 10.9 140.6 10.3C140.4 9.63338 140.033 9.13338 139.5 8.80005C138.967 8.46672 138.233 8.30005 137.3 8.30005C136.567 8.30005 135.867 8.46672 135.2 8.80005C134.6 9.13338 134.1 9.59995 133.7 10.2C133.433 9.53328 133.033 9.06672 132.5 8.80005C131.967 8.46672 131.267 8.30005 130.4 8.30005C129.6 8.30005 128.933 8.46672 128.4 8.80005C127.8 9.13338 127.367 9.59995 127.1 10.2V8.5H123.4V20H127.1V13C127.1 12.6 127.167 12.2332 127.3 11.8999C127.433 11.5666 127.633 11.3333 127.9 11.2C128.167 11 128.467 10.8999 128.8 10.8999C129.267 10.8999 129.633 11.1 129.9 11.5C130.1 11.8333 130.2 12.3333 130.2 13V20H134V13C134 12.6 134.067 12.2332 134.2 11.8999C134.333 11.5666 134.533 11.3333 134.8 11.2C135.067 11 135.367 10.8999 135.7 10.8999C136.233 10.8999 136.6 11.1 136.8 11.5C137.067 11.8333 137.2 12.3333 137.2 13V20H141ZM147.6 20V8.5H143.9V20H147.6ZM150.9 12.3999L152.6 9.19995C152.4 8.93328 152.1 8.7 151.7 8.5C151.3 8.36667 150.9 8.30005 150.5 8.30005C149.833 8.30005 149.233 8.4999 148.7 8.8999C148.1 9.2999 147.6 9.86676 147.2 10.6001C146.867 11.3334 146.7 12.1333 146.7 13L147.6 14.3999C147.6 13.7999 147.667 13.3333 147.8 13C148 12.6 148.233 12.3001 148.5 12.1001C148.767 11.9001 149.1 11.8 149.5 11.8C149.833 11.8 150.1 11.8667 150.3 12C150.5 12.0667 150.7 12.1999 150.9 12.3999ZM152.9 18.3999C152.9 18.9999 153.1 19.5333 153.5 20C153.967 20.4 154.533 20.6001 155.2 20.6001C155.933 20.6001 156.5 20.4 156.9 20C157.367 19.5333 157.6 18.9999 157.6 18.3999C157.6 17.7332 157.367 17.1666 156.9 16.7C156.5 16.2333 155.933 16 155.2 16C154.533 16 153.967 16.2333 153.5 16.7C153.1 17.1666 152.9 17.7332 152.9 18.3999ZM171.6 13.3999L171.3 16.7H180.6L180.3 13.3999H171.6ZM173.4 14.6001L175.9 9L178.4 14.6001L178.2 15.7L180.3 20H185.1L175.9 1.3999L166.7 20H171.5L173.6 15.5L173.4 14.6001ZM199.1 0.600098H195.3V20.1001H199.1V0.600098ZM185.9 14.3C185.9 15.6334 186.167 16.7334 186.7 17.6001C187.233 18.4668 187.9 19.1334 188.7 19.6001C189.567 20.0668 190.467 20.3 191.4 20.3C192.333 20.3 193.167 20.0668 193.9 19.6001C194.633 19.1334 195.233 18.4333 195.7 17.5C196.1 16.6333 196.3 15.5667 196.3 14.3C196.3 13.1 196.1 12.0334 195.7 11.1001C195.233 10.2334 194.633 9.53333 193.9 9C193.167 8.53333 192.333 8.30005 191.4 8.30005C190.467 8.30005 189.567 8.53333 188.7 9C187.9 9.46667 187.233 10.1333 186.7 11C186.167 11.9333 185.9 13.0334 185.9 14.3ZM189.9 14.3C189.9 13.7 190 13.2 190.2 12.8C190.467 12.3334 190.8 12 191.2 11.8C191.667 11.5334 192.133 11.3999 192.6 11.3999C193.067 11.3999 193.5 11.5 193.9 11.7C194.3 11.9666 194.633 12.3334 194.9 12.8C195.167 13.2 195.3 13.7 195.3 14.3C195.3 14.9667 195.167 15.4999 194.9 15.8999C194.633 16.3666 194.3 16.6999 193.9 16.8999C193.5 17.1666 193.067 17.3 192.6 17.3C192.133 17.3 191.667 17.1666 191.2 16.8999C190.8 16.6332 190.467 16.2999 190.2 15.8999C190 15.4332 189.9 14.9 189.9 14.3ZM205.7 20.1001V8.6001H202V20.1001H205.7ZM209 12.5L210.6 9.30005C210.4 8.96672 210.133 8.7 209.8 8.5C209.4 8.36667 209 8.30005 208.6 8.30005C207.933 8.30005 207.3 8.4999 206.7 8.8999C206.167 9.2999 205.7 9.86676 205.3 10.6001C204.967 11.3334 204.8 12.1668 204.8 13.1001L205.7 14.3999C205.7 13.8666 205.767 13.4 205.9 13C206.033 12.6 206.267 12.3001 206.6 12.1001C206.867 11.9001 207.167 11.8 207.5 11.8C207.833 11.8 208.133 11.8667 208.4 12C208.6 12.1333 208.8 12.3 209 12.5ZM212 4.30005C212 4.83338 212.233 5.29995 212.7 5.69995C213.1 6.09995 213.6 6.30005 214.2 6.30005C214.8 6.30005 215.333 6.09995 215.8 5.69995C216.2 5.29995 216.4 4.83338 216.4 4.30005C216.4 3.70005 216.2 3.20005 215.8 2.80005C215.333 2.40005 214.8 2.19995 214.2 2.19995C213.6 2.19995 213.1 2.40005 212.7 2.80005C212.233 3.20005 212 3.70005 212 4.30005ZM216 8.6001H212.4V20.1001H216V8.6001ZM222.1 16.5C222.1 16.1667 222.167 15.9334 222.3 15.8C222.433 15.6 222.633 15.4334 222.9 15.3C223.167 15.2334 223.5 15.2 223.9 15.2C224.5 15.2 225.067 15.2666 225.6 15.3999C226.133 15.5332 226.6 15.7668 227 16.1001V14.3999C226.8 14.1999 226.5 14 226.1 13.8C225.7 13.6 225.2 13.4334 224.6 13.3C224.067 13.1667 223.467 13.1001 222.8 13.1001C221.333 13.1001 220.2 13.4334 219.4 14.1001C218.667 14.7001 218.3 15.5666 218.3 16.7C218.3 17.5 218.467 18.1666 218.8 18.7C219.2 19.2333 219.7 19.6332 220.3 19.8999C220.967 20.1666 221.667 20.3 222.4 20.3C223.133 20.3 223.8 20.2 224.4 20C225.067 19.6667 225.6 19.2667 226 18.8C226.4 18.2667 226.6 17.6332 226.6 16.8999L226.2 15.3999C226.2 15.9332 226.067 16.4 225.8 16.8C225.6 17.1334 225.3 17.4001 224.9 17.6001C224.567 17.8001 224.167 17.8999 223.7 17.8999C223.433 17.8999 223.167 17.8333 222.9 17.7C222.633 17.5666 222.433 17.4334 222.3 17.3C222.167 17.0334 222.1 16.7667 222.1 16.5ZM219.1 9.6001L220.4 12.1001C220.533 12.0334 220.8 11.9 221.2 11.7C221.533 11.5666 221.967 11.4334 222.5 11.3C222.967 11.1667 223.467 11.1001 224 11.1001C224.333 11.1001 224.633 11.1333 224.9 11.2C225.167 11.2666 225.4 11.3667 225.6 11.5C225.8 11.7 225.933 11.9001 226 12.1001C226.133 12.3001 226.2 12.5334 226.2 12.8V20.1001H229.8V12C229.8 11.2 229.567 10.5333 229.1 10C228.633 9.4 228 8.96662 227.2 8.69995C226.4 8.43328 225.5 8.30005 224.5 8.30005C223.367 8.30005 222.367 8.43328 221.5 8.69995C220.567 8.96662 219.767 9.26676 219.1 9.6001ZM240.1 13.1001V20.1001H244V12.7C244 11.3 243.667 10.2333 243 9.5C242.4 8.7 241.367 8.30005 239.9 8.30005C239.033 8.30005 238.333 8.46672 237.8 8.80005C237.2 9.20005 236.733 9.70005 236.4 10.3V8.6001H232.6V20.1001H236.4V13.1001C236.4 12.6334 236.5 12.2332 236.7 11.8999C236.833 11.6332 237.067 11.4 237.4 11.2C237.667 11.0666 238 11 238.4 11C239 11 239.433 11.1667 239.7 11.5C239.967 11.8333 240.1 12.3668 240.1 13.1001ZM254.5 13.1001V20.1001H258.4V12.7C258.4 11.3 258.067 10.2333 257.4 9.5C256.733 8.7 255.7 8.30005 254.3 8.30005C253.433 8.30005 252.7 8.46672 252.1 8.80005C251.567 9.20005 251.133 9.70005 250.8 10.3V8.6001H247V20.1001H250.8V13.1001C250.8 12.6334 250.867 12.2332 251 11.8999C251.2 11.6332 251.433 11.4 251.7 11.2C252.033 11.0666 252.4 11 252.8 11C253.4 11 253.833 11.1667 254.1 11.5C254.367 11.8333 254.5 12.3668 254.5 13.1001ZM261.1 4.30005C261.1 4.83338 261.333 5.29995 261.8 5.69995C262.2 6.09995 262.7 6.30005 263.3 6.30005C263.967 6.30005 264.5 6.09995 264.9 5.69995C265.3 5.29995 265.5 4.83338 265.5 4.30005C265.5 3.70005 265.3 3.20005 264.9 2.80005C264.5 2.40005 263.967 2.19995 263.3 2.19995C262.7 2.19995 262.2 2.40005 261.8 2.80005C261.333 3.20005 261.1 3.70005 261.1 4.30005ZM265.2 8.6001H261.5V20.1001H265.2V8.6001ZM275.7 13.1001V20.1001H279.7V12.7C279.7 11.3 279.367 10.2333 278.7 9.5C278.033 8.7 277 8.30005 275.6 8.30005C274.733 8.30005 274 8.46672 273.4 8.80005C272.867 9.20005 272.433 9.70005 272.1 10.3V8.6001H268.3V20.1001H272.1V13.1001C272.1 12.6334 272.167 12.2332 272.3 11.8999C272.5 11.6332 272.733 11.4 273 11.2C273.333 11.0666 273.7 11 274.1 11C274.7 11 275.1 11.1667 275.3 11.5C275.567 11.8333 275.7 12.3668 275.7 13.1001ZM285.9 20.8999H282.2C282.267 21.8999 282.533 22.8001 283 23.6001C283.467 24.4001 284.167 24.9999 285.1 25.3999C286.033 25.7999 287.2 26 288.6 26C289.8 26 290.867 25.7999 291.8 25.3999C292.8 24.9999 293.567 24.3332 294.1 23.3999C294.7 22.4666 295 21.2667 295 19.8V8.6001H291.4V19.8C291.4 20.5334 291.267 21.1334 291 21.6001C290.733 22.0668 290.367 22.4333 289.9 22.7C289.5 22.9 289.033 23 288.5 23C288.033 23 287.6 22.9334 287.2 22.8C286.8 22.6 286.5 22.3668 286.3 22.1001C286.033 21.7668 285.9 21.3666 285.9 20.8999ZM282 14.2C282 15.4666 282.233 16.5332 282.7 17.3999C283.233 18.2666 283.933 18.9332 284.8 19.3999C285.6 19.7999 286.467 20 287.4 20C288.4 20 289.267 19.7999 290 19.3999C290.733 18.8666 291.333 18.1999 291.8 17.3999C292.2 16.4666 292.4 15.4 292.4 14.2C292.4 12.9333 292.2 11.8667 291.8 11C291.333 10.1333 290.733 9.46667 290 9C289.267 8.53333 288.4 8.30005 287.4 8.30005C286.467 8.30005 285.6 8.53333 284.8 9C283.933 9.4 283.233 10.0332 282.7 10.8999C282.233 11.7666 282 12.8666 282 14.2ZM285.9 14.2C285.9 13.6 286.033 13.0668 286.3 12.6001C286.567 12.2001 286.9 11.9 287.3 11.7C287.7 11.5 288.167 11.3999 288.7 11.3999C289.033 11.3999 289.333 11.4333 289.6 11.5C289.933 11.6333 290.233 11.8334 290.5 12.1001C290.767 12.3001 290.967 12.6 291.1 13C291.3 13.3333 291.4 13.7333 291.4 14.2C291.4 14.8 291.267 15.3 291 15.7C290.733 16.1666 290.367 16.5 289.9 16.7C289.5 16.9 289.1 17 288.7 17C288.167 17 287.7 16.8668 287.3 16.6001C286.9 16.4001 286.567 16.1 286.3 15.7C286.033 15.2333 285.9 14.7333 285.9 14.2ZM0 60.6001H3.79999V43.6001H0V60.6001ZM13.2 49.3C13.2 47.9667 12.9333 46.8667 12.4 46C11.8667 45.0667 11.2 44.3666 10.4 43.8999C9.59999 43.4332 8.70001 43.2 7.70001 43.2C6.70001 43.2 5.83334 43.4667 5.10001 44C4.43334 44.4667 3.9 45.1668 3.5 46.1001C3.1 47.0334 2.89999 48.1 2.89999 49.3C2.89999 50.5667 3.1 51.6668 3.5 52.6001C3.9 53.5334 4.43334 54.2333 5.10001 54.7C5.83334 55.2333 6.70001 55.5 7.70001 55.5C8.70001 55.5 9.59999 55.2667 10.4 54.8C11.2 54.3334 11.8667 53.6333 12.4 52.7C12.9333 51.7666 13.2 50.6334 13.2 49.3ZM9.20001 49.3C9.20001 49.9 9.09999 50.4332 8.89999 50.8999C8.63333 51.2999 8.29999 51.6 7.89999 51.8C7.43333 52 6.96667 52.1001 6.5 52.1001C6.03333 52.1001 5.60001 52 5.20001 51.8C4.80001 51.6 4.46668 51.2999 4.20001 50.8999C3.93335 50.4999 3.79999 49.9667 3.79999 49.3C3.79999 48.7001 3.93335 48.2001 4.20001 47.8C4.46668 47.3334 4.80001 47.0332 5.20001 46.8999C5.60001 46.6332 6.03333 46.5 6.5 46.5C6.96667 46.5 7.43333 46.6332 7.89999 46.8999C8.29999 47.0999 8.63333 47.4 8.89999 47.8C9.09999 48.2001 9.20001 48.7001 9.20001 49.3ZM19.3 35.6001H15.5V55.1001H19.3V35.6001ZM25.2 51.5C25.2 51.1667 25.2667 50.9334 25.4 50.8C25.5333 50.6 25.7333 50.4334 26 50.3C26.2667 50.2334 26.6 50.2 27 50.2C27.6 50.2 28.1667 50.2666 28.7 50.3999C29.2333 50.5332 29.7 50.7668 30.1 51.1001V49.3999C29.9 49.1999 29.6 49 29.2 48.8C28.8 48.6 28.3 48.4334 27.7 48.3C27.1667 48.1667 26.5667 48.1001 25.9 48.1001C24.4333 48.1001 23.3 48.4334 22.5 49.1001C21.7667 49.7001 21.4 50.5666 21.4 51.7C21.4 52.5 21.5667 53.1666 21.9 53.7C22.3 54.2333 22.8 54.6332 23.4 54.8999C24.0667 55.1666 24.7667 55.3 25.5 55.3C26.2333 55.3 26.9 55.2 27.5 55C28.1667 54.6667 28.7 54.2667 29.1 53.8C29.5 53.2667 29.7 52.6332 29.7 51.8999L29.3 50.3999C29.3 50.9332 29.1667 51.4 28.9 51.8C28.7 52.1334 28.4 52.4001 28 52.6001C27.6667 52.8001 27.2667 52.8999 26.8 52.8999C26.5333 52.8999 26.2667 52.8333 26 52.7C25.7333 52.5666 25.5333 52.4334 25.4 52.3C25.2667 52.0334 25.2 51.7667 25.2 51.5ZM22.2 44.6001L23.5 47.1001C23.6333 47.0334 23.9 46.9 24.3 46.7C24.6333 46.5666 25.0667 46.4334 25.6 46.3C26.0667 46.1667 26.5667 46.1001 27.1 46.1001C27.4333 46.1001 27.7333 46.1333 28 46.2C28.2667 46.2666 28.5 46.3667 28.7 46.5C28.9 46.7 29.0333 46.9001 29.1 47.1001C29.2333 47.3001 29.3 47.5334 29.3 47.8V55.1001H32.9V47C32.9 46.2 32.6667 45.5333 32.2 45C31.7333 44.4 31.1 43.9666 30.3 43.7C29.5 43.4333 28.6 43.3 27.6 43.3C26.4667 43.3 25.4667 43.4333 24.6 43.7C23.6667 43.9666 22.8667 44.2668 22.2 44.6001ZM42.1 43.6001H34.4V46.7H42.1V43.6001ZM40 39.6001H36.4V55.1001H40V39.6001ZM50.5 43.6001H42.6V46.7H50.5V43.6001ZM50.1 39.3L51.6 36.5C51.4 36.3 51.1667 36.0999 50.9 35.8999C50.6333 35.7666 50.3 35.5999 49.9 35.3999C49.5 35.2666 49 35.2 48.4 35.2C47.4667 35.2 46.6667 35.3666 46 35.7C45.4 36.0333 44.9333 36.5333 44.6 37.2C44.2667 37.7999 44.1 38.5332 44.1 39.3999V55.1001H47.7V40.3C47.7 39.9 47.7667 39.5667 47.9 39.3C47.9667 39.1 48.1 38.9334 48.3 38.8C48.4333 38.6667 48.6333 38.6001 48.9 38.6001C49.1 38.6001 49.3 38.6667 49.5 38.8C49.7 38.8667 49.9 39.0334 50.1 39.3ZM51.6 49.3999C51.6 50.5999 51.8667 51.6333 52.4 52.5C53 53.4333 53.8 54.1334 54.8 54.6001C55.8 55.1334 56.9333 55.3999 58.2 55.3999C59.4 55.3999 60.5 55.1334 61.5 54.6001C62.5 54.1334 63.3 53.4333 63.9 52.5C64.4333 51.6333 64.7 50.5999 64.7 49.3999C64.7 48.1999 64.4333 47.1333 63.9 46.2C63.3 45.2666 62.5 44.5668 61.5 44.1001C60.5 43.5668 59.4 43.3 58.2 43.3C56.9333 43.3 55.8 43.5668 54.8 44.1001C53.8 44.5668 53 45.2666 52.4 46.2C51.8667 47.1333 51.6 48.1999 51.6 49.3999ZM55.5 49.3999C55.5 48.7999 55.6 48.2667 55.8 47.8C56.0667 47.4 56.4 47.0667 56.8 46.8C57.2 46.6 57.6667 46.5 58.2 46.5C58.6667 46.5 59.1 46.6 59.5 46.8C59.9 47.0667 60.2333 47.4 60.5 47.8C60.7 48.2667 60.8 48.7999 60.8 49.3999C60.8 49.9999 60.7 50.4999 60.5 50.8999C60.2333 51.3666 59.9 51.6999 59.5 51.8999C59.1 52.1666 58.6667 52.3 58.2 52.3C57.6667 52.3 57.2 52.1666 56.8 51.8999C56.4 51.6999 56.0667 51.3666 55.8 50.8999C55.6 50.4999 55.5 49.9999 55.5 49.3999ZM70.7 55.1001V43.6001H67V55.1001H70.7ZM74 47.5L75.6 44.3C75.4 43.9667 75.1333 43.7334 74.8 43.6001C74.4 43.4001 74 43.3 73.6 43.3C72.9333 43.3 72.3 43.5333 71.7 44C71.1667 44.4 70.7 44.9666 70.3 45.7C69.9667 46.4333 69.8 47.2334 69.8 48.1001L70.7 49.3999C70.7 48.8666 70.7667 48.4334 70.9 48.1001C71.0333 47.7001 71.2667 47.4 71.6 47.2C71.8667 47 72.1667 46.8999 72.5 46.8999C72.8333 46.8999 73.1333 46.9668 73.4 47.1001C73.6 47.1668 73.8 47.3 74 47.5ZM94.8 55.1001V47.7C94.8 46.7666 94.6667 45.9667 94.4 45.3C94.2 44.7001 93.8333 44.2332 93.3 43.8999C92.7667 43.4999 92.0667 43.3 91.2 43.3C90.4 43.3 89.7 43.4667 89.1 43.8C88.4333 44.1334 87.9 44.6334 87.5 45.3C87.3 44.6334 86.9333 44.1334 86.4 43.8C85.8667 43.4667 85.1333 43.3 84.2 43.3C83.4 43.3 82.7333 43.4999 82.2 43.8999C81.6667 44.2332 81.2333 44.7001 80.9 45.3V43.6001H77.2V55.1001H80.9V48.1001C80.9 47.6334 80.9667 47.2332 81.1 46.8999C81.2333 46.6332 81.4333 46.4334 81.7 46.3C81.9667 46.1 82.2667 46 82.6 46C83.1333 46 83.5 46.2001 83.7 46.6001C83.9 46.9334 84 47.4334 84 48.1001V55.1001H87.8V48.1001C87.8 47.6334 87.8667 47.2332 88 46.8999C88.2 46.6332 88.4 46.4334 88.6 46.3C88.8667 46.1 89.1667 46 89.5 46C90.0333 46 90.4 46.2001 90.6 46.6001C90.8667 46.9334 91 47.4334 91 48.1001V55.1001H94.8ZM100.7 51.5C100.7 51.2333 100.767 51 100.9 50.8C101.033 50.6 101.233 50.4666 101.5 50.3999C101.767 50.2666 102.1 50.2 102.5 50.2C103.1 50.2 103.667 50.3 104.2 50.5C104.733 50.6333 105.2 50.8666 105.6 51.2V49.5C105.4 49.3 105.1 49.0667 104.7 48.8C104.3 48.6667 103.8 48.5 103.2 48.3C102.667 48.2334 102.067 48.2 101.4 48.2C99.9333 48.2 98.8 48.5001 98 49.1001C97.2667 49.7668 96.9 50.6333 96.9 51.7C96.9 52.5 97.0667 53.1666 97.4 53.7C97.8 54.2999 98.3 54.7333 98.9 55C99.5667 55.2667 100.267 55.3999 101 55.3999C101.733 55.3999 102.4 55.2667 103 55C103.667 54.7333 104.2 54.3334 104.6 53.8C105 53.3334 105.2 52.7333 105.2 52L104.8 50.5C104.8 51.0333 104.667 51.4667 104.4 51.8C104.2 52.2001 103.9 52.5 103.5 52.7C103.167 52.8333 102.767 52.8999 102.3 52.8999C102.033 52.8999 101.767 52.8667 101.5 52.8C101.233 52.6667 101.033 52.5 100.9 52.3C100.767 52.1 100.7 51.8333 100.7 51.5ZM97.7 44.6001L99 47.2C99.1333 47.0666 99.4 46.9334 99.8 46.8C100.133 46.6 100.567 46.4334 101.1 46.3C101.567 46.2334 102.067 46.2 102.6 46.2C102.933 46.2 103.233 46.2334 103.5 46.3C103.767 46.3667 104 46.4668 104.2 46.6001C104.4 46.7334 104.533 46.9333 104.6 47.2C104.733 47.3333 104.8 47.5666 104.8 47.8999V55.1001H108.4V47C108.4 46.2 108.167 45.5333 107.7 45C107.233 44.4667 106.6 44.0667 105.8 43.8C105 43.4667 104.1 43.3 103.1 43.3C101.967 43.3 100.967 43.4333 100.1 43.7C99.1667 44.0333 98.3667 44.3334 97.7 44.6001ZM111.8 50.8999L110.3 53.3999C110.767 53.8666 111.3 54.2668 111.9 54.6001C112.5 54.8668 113.167 55.1 113.9 55.3C114.633 55.5 115.4 55.6001 116.2 55.6001C117.6 55.6001 118.667 55.2999 119.4 54.7C120.133 54.0333 120.5 53.0999 120.5 51.8999C120.5 51.1666 120.367 50.6 120.1 50.2C119.767 49.7333 119.333 49.3668 118.8 49.1001C118.333 48.8334 117.8 48.5667 117.2 48.3C116.6 48.1 116.1 47.9334 115.7 47.8C115.367 47.6667 115.067 47.5 114.8 47.3C114.6 47.1667 114.5 46.9666 114.5 46.7C114.5 46.5 114.6 46.3333 114.8 46.2C115 46.0666 115.267 46 115.6 46C116.133 46 116.7 46.1332 117.3 46.3999C117.9 46.6666 118.433 47.0333 118.9 47.5L120.3 45.1001C119.833 44.7668 119.333 44.4666 118.8 44.2C118.333 43.9333 117.8 43.7334 117.2 43.6001C116.667 43.4668 116.067 43.3999 115.4 43.3999C114.533 43.3999 113.767 43.5334 113.1 43.8C112.5 44 112 44.3334 111.6 44.8C111.267 45.3334 111.1 45.9334 111.1 46.6001C111.1 47.3334 111.233 47.9332 111.5 48.3999C111.833 48.8666 112.233 49.2668 112.7 49.6001C113.233 49.8001 113.767 50.0334 114.3 50.3C114.9 50.4334 115.4 50.6 115.8 50.8C116.133 50.9334 116.367 51.1 116.5 51.3C116.7 51.5 116.8 51.6999 116.8 51.8999C116.8 52.1666 116.7 52.4001 116.5 52.6001C116.3 52.7334 116 52.8 115.6 52.8C115.333 52.8 115.033 52.7666 114.7 52.7C114.3 52.5666 113.867 52.3668 113.4 52.1001C112.933 51.8334 112.4 51.4332 111.8 50.8999ZM122.4 39.3C122.4 39.9 122.6 40.4 123 40.8C123.467 41.1334 124 41.3 124.6 41.3C125.2 41.3 125.7 41.1334 126.1 40.8C126.567 40.4 126.8 39.9 126.8 39.3C126.8 38.7001 126.567 38.2001 126.1 37.8C125.7 37.4667 125.2 37.3 124.6 37.3C124 37.3 123.467 37.4667 123 37.8C122.6 38.2001 122.4 38.7001 122.4 39.3ZM126.4 43.6001H122.8V55.1001H126.4V43.6001ZM139.5 43.6001H135.5L142.1 56.5L148.8 43.6001H144.8L142.1 50L139.5 43.6001ZM153.1 51.5C153.1 51.2333 153.167 51 153.3 50.8C153.433 50.6 153.633 50.4666 153.9 50.3999C154.167 50.2666 154.533 50.2 155 50.2C155.6 50.2 156.167 50.2666 156.7 50.3999C157.233 50.5999 157.7 50.8334 158.1 51.1001V49.3999C157.9 49.1999 157.6 49 157.2 48.8C156.8 48.6 156.3 48.4334 155.7 48.3C155.167 48.1667 154.533 48.1001 153.8 48.1001C152.4 48.1001 151.3 48.4334 150.5 49.1001C149.7 49.7001 149.3 50.5666 149.3 51.7C149.3 52.5 149.5 53.1666 149.9 53.7C150.3 54.2333 150.8 54.6332 151.4 54.8999C152 55.2332 152.667 55.3999 153.4 55.3999C154.133 55.3999 154.833 55.2667 155.5 55C156.1 54.7333 156.6 54.3334 157 53.8C157.4 53.2667 157.6 52.6332 157.6 51.8999L157.2 50.3999C157.2 50.9999 157.1 51.4667 156.9 51.8C156.633 52.2001 156.333 52.4668 156 52.6001C155.6 52.8001 155.2 52.8999 154.8 52.8999C154.467 52.8999 154.2 52.8667 154 52.8C153.733 52.6667 153.533 52.5 153.4 52.3C153.2 52.0334 153.1 51.7667 153.1 51.5ZM150.2 44.6001L151.5 47.1001C151.633 47.0334 151.9 46.9334 152.3 46.8C152.633 46.6 153.033 46.4334 153.5 46.3C154.033 46.2334 154.567 46.2 155.1 46.2C155.433 46.2 155.733 46.2334 156 46.3C156.267 46.3667 156.5 46.4668 156.7 46.6001C156.9 46.7334 157.033 46.9001 157.1 47.1001C157.167 47.3001 157.2 47.5666 157.2 47.8999V55.1001H160.9V47C160.9 46.2 160.667 45.5333 160.2 45C159.733 44.4667 159.1 44.0333 158.3 43.7C157.5 43.4333 156.567 43.3 155.5 43.3C154.433 43.3 153.433 43.4333 152.5 43.7C151.633 43.9666 150.867 44.2668 150.2 44.6001ZM171.1 47H176.1L170.1 55.1001H181.6V51.7H176.6L182.4 43.6001H171.1V47ZM183.2 49.3C183.2 50.5 183.467 51.5667 184 52.5C184.6 53.3667 185.4 54.0668 186.4 54.6001C187.4 55.0668 188.533 55.3 189.8 55.3C191 55.3 192.1 55.0668 193.1 54.6001C194.1 54.0668 194.9 53.3667 195.5 52.5C196.033 51.5667 196.3 50.5 196.3 49.3C196.3 48.1 196.033 47.0334 195.5 46.1001C194.9 45.2334 194.1 44.5333 193.1 44C192.1 43.5333 191 43.3 189.8 43.3C188.533 43.3 187.4 43.5333 186.4 44C185.4 44.5333 184.6 45.2334 184 46.1001C183.467 47.0334 183.2 48.1 183.2 49.3ZM187.1 49.3C187.1 48.7001 187.2 48.2001 187.4 47.8C187.667 47.3334 188 47 188.4 46.8C188.8 46.5334 189.267 46.3999 189.8 46.3999C190.267 46.3999 190.7 46.5334 191.1 46.8C191.5 47 191.833 47.3334 192.1 47.8C192.3 48.2001 192.4 48.7001 192.4 49.3C192.4 49.9 192.3 50.4332 192.1 50.8999C191.833 51.2999 191.5 51.6 191.1 51.8C190.7 52.0667 190.267 52.2 189.8 52.2C189.267 52.2 188.8 52.0667 188.4 51.8C188 51.6 187.667 51.2999 187.4 50.8999C187.2 50.4332 187.1 49.9 187.1 49.3ZM197.9 49.3C197.9 50.5 198.2 51.5667 198.8 52.5C199.333 53.3667 200.1 54.0668 201.1 54.6001C202.1 55.0668 203.233 55.3 204.5 55.3C205.767 55.3 206.867 55.0668 207.8 54.6001C208.8 54.0668 209.6 53.3667 210.2 52.5C210.8 51.5667 211.1 50.5 211.1 49.3C211.1 48.1 210.8 47.0334 210.2 46.1001C209.6 45.2334 208.8 44.5333 207.8 44C206.867 43.5333 205.767 43.3 204.5 43.3C203.233 43.3 202.1 43.5333 201.1 44C200.1 44.5333 199.333 45.2334 198.8 46.1001C198.2 47.0334 197.9 48.1 197.9 49.3ZM201.8 49.3C201.8 48.7001 201.933 48.2001 202.2 47.8C202.4 47.3334 202.7 47 203.1 46.8C203.5 46.5334 203.967 46.3999 204.5 46.3999C204.967 46.3999 205.4 46.5334 205.8 46.8C206.2 47 206.533 47.3334 206.8 47.8C207.067 48.2001 207.2 48.7001 207.2 49.3C207.2 49.9 207.067 50.4332 206.8 50.8999C206.533 51.2999 206.2 51.6 205.8 51.8C205.4 52.0667 204.967 52.2 204.5 52.2C203.967 52.2 203.5 52.0667 203.1 51.8C202.7 51.6 202.4 51.2999 202.2 50.8999C201.933 50.4332 201.8 49.9 201.8 49.3ZM230.9 55.1001V47.7C230.9 46.7666 230.767 45.9667 230.5 45.3C230.3 44.6334 229.933 44.1334 229.4 43.8C228.867 43.4667 228.133 43.3 227.2 43.3C226.467 43.3 225.767 43.4667 225.1 43.8C224.5 44.1334 224 44.6 223.6 45.2C223.333 44.6 222.933 44.1334 222.4 43.8C221.867 43.4667 221.167 43.3 220.3 43.3C219.5 43.3 218.833 43.4667 218.3 43.8C217.7 44.1334 217.267 44.6334 217 45.3V43.6001H213.3V55.1001H217V48.1001C217 47.6334 217.067 47.2332 217.2 46.8999C217.333 46.5666 217.533 46.3333 217.8 46.2C218.067 46 218.367 45.8999 218.7 45.8999C219.167 45.8999 219.533 46.1 219.8 46.5C220 46.8333 220.1 47.3668 220.1 48.1001V55.1001H223.9V48.1001C223.9 47.6334 223.967 47.2332 224.1 46.8999C224.233 46.5666 224.433 46.3333 224.7 46.2C224.967 46 225.267 45.8999 225.6 45.8999C226.133 45.8999 226.5 46.1 226.7 46.5C226.967 46.8333 227.1 47.3668 227.1 48.1001V55.1001H230.9ZM253.8 35.6001H250V55.1001H253.8V35.6001ZM240.6 49.3C240.6 50.6334 240.867 51.7334 241.4 52.6001C241.933 53.4668 242.633 54.1334 243.5 54.6001C244.3 55.0668 245.167 55.3 246.1 55.3C247.1 55.3 247.967 55.0668 248.7 54.6001C249.433 54.1334 250 53.4333 250.4 52.5C250.867 51.6333 251.1 50.5667 251.1 49.3C251.1 48.0334 250.867 46.9668 250.4 46.1001C250 45.2334 249.433 44.5333 248.7 44C247.967 43.5333 247.1 43.3 246.1 43.3C245.167 43.3 244.3 43.5333 243.5 44C242.633 44.4667 241.933 45.1333 241.4 46C240.867 46.9333 240.6 48.0334 240.6 49.3ZM244.6 49.3C244.6 48.7001 244.733 48.2001 245 47.8C245.267 47.3334 245.6 47 246 46.8C246.4 46.5334 246.867 46.3999 247.4 46.3999C247.8 46.3999 248.2 46.5 248.6 46.7C249 46.9666 249.333 47.3334 249.6 47.8C249.867 48.2001 250 48.7001 250 49.3C250 49.9667 249.867 50.4999 249.6 50.8999C249.333 51.3666 249 51.6999 248.6 51.8999C248.2 52.1666 247.8 52.3 247.4 52.3C246.867 52.3 246.4 52.1666 246 51.8999C245.6 51.6332 245.267 51.2999 245 50.8999C244.733 50.4332 244.6 49.9 244.6 49.3ZM259.7 51.5C259.7 51.1667 259.767 50.9334 259.9 50.8C260.033 50.6 260.233 50.4334 260.5 50.3C260.767 50.2334 261.1 50.2 261.5 50.2C262.1 50.2 262.667 50.2666 263.2 50.3999C263.733 50.5332 264.2 50.7668 264.6 51.1001V49.3999C264.4 49.1999 264.1 49 263.7 48.8C263.3 48.6 262.8 48.4334 262.2 48.3C261.667 48.1667 261.067 48.1001 260.4 48.1001C258.933 48.1001 257.8 48.4334 257 49.1001C256.267 49.7001 255.9 50.5666 255.9 51.7C255.9 52.4333 256.067 53.1 256.4 53.7C256.8 54.2333 257.3 54.6332 257.9 54.8999C258.567 55.1666 259.267 55.3 260 55.3C260.733 55.3 261.4 55.1666 262 54.8999C262.667 54.6332 263.2 54.2667 263.6 53.8C264 53.2667 264.2 52.6332 264.2 51.8999L263.8 50.3999C263.8 50.9332 263.667 51.4 263.4 51.8C263.2 52.1334 262.9 52.4001 262.5 52.6001C262.167 52.8001 261.767 52.8999 261.3 52.8999C261.033 52.8999 260.767 52.8333 260.5 52.7C260.233 52.5666 260.033 52.4334 259.9 52.3C259.767 52.0334 259.7 51.7667 259.7 51.5ZM256.7 44.6001L258 47.1001C258.133 46.9668 258.4 46.8333 258.8 46.7C259.133 46.5666 259.567 46.4334 260.1 46.3C260.567 46.1667 261.067 46.1001 261.6 46.1001C261.933 46.1001 262.233 46.1333 262.5 46.2C262.767 46.2666 263 46.3667 263.2 46.5C263.4 46.7 263.533 46.9001 263.6 47.1001C263.733 47.3001 263.8 47.5334 263.8 47.8V55.1001H267.4V47C267.4 46.2 267.167 45.4999 266.7 44.8999C266.233 44.3666 265.6 43.9666 264.8 43.7C264 43.4333 263.1 43.3 262.1 43.3C260.967 43.3 259.967 43.4333 259.1 43.7C258.167 43.9666 257.367 44.2668 256.7 44.6001ZM273.9 55.1001V43.6001H270.2V55.1001H273.9ZM277.2 47.5L278.9 44.3C278.7 43.9667 278.4 43.7 278 43.5C277.6 43.3667 277.2 43.3 276.8 43.3C276.133 43.3 275.533 43.4999 275 43.8999C274.4 44.2999 273.9 44.8668 273.5 45.6001C273.167 46.3334 273 47.1668 273 48.1001L273.9 49.3999C273.9 48.8666 273.967 48.4 274.1 48C274.3 47.6 274.533 47.3001 274.8 47.1001C275.067 46.9001 275.4 46.8 275.8 46.8C276.133 46.8 276.4 46.8667 276.6 47C276.8 47.1333 277 47.3 277.2 47.5ZM281.1 50.8999L279.5 53.3999C280.033 53.7999 280.6 54.1667 281.2 54.5C281.8 54.8333 282.433 55.1 283.1 55.3C283.833 55.4334 284.6 55.5 285.4 55.5C286.8 55.5 287.867 55.2001 288.6 54.6001C289.4 54.0001 289.8 53.0667 289.8 51.8C289.8 51.1334 289.633 50.5668 289.3 50.1001C289.033 49.6334 288.633 49.2667 288.1 49C287.567 48.7333 287 48.5 286.4 48.3C285.867 48.0334 285.4 47.8667 285 47.8C284.6 47.6 284.3 47.4334 284.1 47.3C283.9 47.1 283.8 46.8668 283.8 46.6001C283.8 46.4001 283.867 46.2334 284 46.1001C284.2 45.9668 284.467 45.8999 284.8 45.8999C285.333 45.8999 285.9 46.0666 286.5 46.3999C287.167 46.6666 287.733 47.0333 288.2 47.5L289.5 45C289.1 44.6667 288.633 44.3668 288.1 44.1001C287.567 43.9001 287.033 43.7 286.5 43.5C285.9 43.3667 285.267 43.3 284.6 43.3C283.8 43.3 283.067 43.4333 282.4 43.7C281.733 43.9666 281.233 44.3334 280.9 44.8C280.5 45.2667 280.3 45.8668 280.3 46.6001C280.3 47.3334 280.467 47.9332 280.8 48.3999C281.133 48.8666 281.533 49.2333 282 49.5C282.467 49.7667 283 50 283.6 50.2C284.2 50.4 284.667 50.5666 285 50.7C285.4 50.9 285.667 51.1 285.8 51.3C285.933 51.4334 286 51.6332 286 51.8999C286 52.1666 285.9 52.3667 285.7 52.5C285.567 52.7 285.3 52.8 284.9 52.8C284.633 52.8 284.3 52.7334 283.9 52.6001C283.567 52.4668 283.167 52.2667 282.7 52C282.233 51.7333 281.7 51.3666 281.1 50.8999ZM291.6 39.3C291.6 39.8334 291.833 40.2999 292.3 40.7C292.7 41.1 293.2 41.3 293.8 41.3C294.467 41.3 295 41.1 295.4 40.7C295.8 40.2999 296 39.8334 296 39.3C296 38.6334 295.8 38.1334 295.4 37.8C295 37.4 294.467 37.2 293.8 37.2C293.2 37.2 292.7 37.4 292.3 37.8C291.833 38.1334 291.6 38.6334 291.6 39.3ZM295.7 43.6001H292V55.1001H295.7V43.6001Z" fill="#202020"/>
</svg>
