<svg width="163" height="26" viewBox="0 0 163 26" fill="none" xmlns="http://www.w3.org/2000/svg">
<path d="M5.19962 2.5H0.0996094V20H5.19962V2.5ZM16.4996 2.5H10.8996L3.79959 10.8999L10.9996 20H16.8996L9.59961 10.7002L16.4996 2.5ZM23.5996 20.2002C25.1329 20.2002 26.4329 19.9332 27.4996 19.3999C28.5663 18.7999 29.3996 17.9002 29.9996 16.7002L26.0996 15.8999C25.8996 16.3666 25.5663 16.6999 25.0996 16.8999C24.6329 17.1666 24.0996 17.2998 23.4996 17.2998C22.9663 17.2998 22.5329 17.1666 22.1996 16.8999C21.8663 16.6999 21.5996 16.3666 21.3996 15.8999C21.1996 15.4332 21.0996 14.8669 21.0996 14.2002C21.0996 13.4669 21.1996 12.8666 21.3996 12.3999C21.5329 11.9332 21.7663 11.5999 22.0996 11.3999C22.4329 11.1332 22.8663 11 23.3996 11C23.7996 11 24.1329 11.0998 24.3996 11.2998C24.7329 11.4331 24.9663 11.6667 25.0996 12C25.2329 12.3333 25.2996 12.7335 25.2996 13.2002C25.2996 13.3335 25.2663 13.4668 25.1996 13.6001C25.1329 13.8001 25.0663 13.9668 24.9996 14.1001L25.8996 12.8999H19.1996V15.1001H29.8996C29.8996 14.9668 29.8996 14.8001 29.8996 14.6001C29.8996 14.4668 29.8996 14.3001 29.8996 14.1001C29.8996 12.8334 29.6663 11.7666 29.1996 10.8999C28.6663 10.0332 27.9329 9.36657 26.9996 8.8999C26.0663 8.43324 24.8996 8.2002 23.4996 8.2002C22.0996 8.2002 20.8996 8.46667 19.8996 9C18.8996 9.46667 18.1329 10.1668 17.5996 11.1001C17.0663 11.9668 16.7996 13.0002 16.7996 14.2002C16.7996 15.4669 17.0663 16.5332 17.5996 17.3999C18.1329 18.3332 18.9329 19.0333 19.9996 19.5C20.9996 19.9667 22.1996 20.2002 23.5996 20.2002ZM36.4996 0.5H32.1996V20H36.4996V0.5ZM43.4996 0.5H39.1996V20H43.4996V0.5ZM51.2996 25.5L58.7996 8.5H54.3996L50.6996 17.7998H52.9996L49.2996 8.5H44.5996L49.6996 19.2998L46.9996 25.5H51.2996ZM71.0996 2.5V6.6001H78.9996V2.5H71.0996ZM71.0996 9.6001V13.3999H78.5996V9.6001H71.0996ZM72.4996 2.5H67.7996V20H72.4996V2.5ZM85.3996 20V8.5H81.0996V20H85.3996ZM88.6996 12.8999L90.4996 9.2002C90.2996 8.93353 90.033 8.7 89.6996 8.5C89.2996 8.3 88.8996 8.2002 88.4996 8.2002C87.8329 8.2002 87.1663 8.43324 86.4996 8.8999C85.8996 9.2999 85.4329 9.83333 85.0996 10.5C84.6996 11.2333 84.4996 12.0667 84.4996 13L85.3996 14.7002C85.3996 14.1669 85.4996 13.7332 85.6996 13.3999C85.8329 12.9999 86.0329 12.7 86.2996 12.5C86.6329 12.3 86.9663 12.2002 87.2996 12.2002C87.6329 12.2002 87.8996 12.2666 88.0996 12.3999C88.2996 12.5332 88.4996 12.6999 88.6996 12.8999ZM95.4996 16.3999C95.4996 16.1332 95.5663 15.9331 95.6996 15.7998C95.7663 15.5998 95.9329 15.4666 96.1996 15.3999C96.3996 15.3332 96.6996 15.2998 97.0996 15.2998C97.6329 15.2998 98.1663 15.3667 98.6996 15.5C99.1663 15.6333 99.5663 15.8669 99.8996 16.2002V14.3999C99.6996 14.1332 99.3996 13.9002 98.9996 13.7002C98.5329 13.5002 98.0329 13.3335 97.4996 13.2002C96.9663 13.1335 96.3663 13.1001 95.6996 13.1001C94.2329 13.1001 93.0996 13.4 92.2996 14C91.5663 14.6667 91.1996 15.5334 91.1996 16.6001C91.1996 17.4001 91.3996 18.0668 91.7996 18.6001C92.1329 19.1334 92.6329 19.5666 93.2996 19.8999C93.8996 20.0999 94.5663 20.2002 95.2996 20.2002C96.0996 20.2002 96.7996 20.0999 97.3996 19.8999C98.0663 19.5666 98.5663 19.1669 98.8996 18.7002C99.2996 18.1669 99.4996 17.5331 99.4996 16.7998L99.0996 15.2998C99.0996 15.8331 98.9996 16.2668 98.7996 16.6001C98.5996 16.9334 98.3329 17.1999 97.9996 17.3999C97.6663 17.5332 97.2996 17.6001 96.8996 17.6001C96.6996 17.6001 96.4663 17.5332 96.1996 17.3999C95.9996 17.3332 95.8329 17.2 95.6996 17C95.5663 16.8667 95.4996 16.6666 95.4996 16.3999ZM92.0996 9.3999L93.3996 12.2998C93.5996 12.1665 93.8663 12.0332 94.1996 11.8999C94.5996 11.7666 95.0662 11.6333 95.5996 11.5C96.0662 11.4333 96.5662 11.3999 97.0996 11.3999C97.4329 11.3999 97.7329 11.4333 97.9996 11.5C98.2663 11.5667 98.4662 11.6665 98.5996 11.7998C98.7996 11.9331 98.9329 12.0998 98.9996 12.2998C99.0663 12.4998 99.0996 12.7333 99.0996 13V20H103.2V11.8999C103.2 11.0999 102.966 10.4332 102.5 9.8999C102.033 9.2999 101.366 8.86676 100.5 8.6001C99.6329 8.26676 98.6996 8.1001 97.6996 8.1001C96.5663 8.1001 95.5329 8.26676 94.5996 8.6001C93.6662 8.86676 92.8329 9.13324 92.0996 9.3999ZM113.4 13V20H117.9V12.5C117.9 11.1667 117.6 10.1332 117 9.3999C116.333 8.5999 115.266 8.2002 113.8 8.2002C112.866 8.2002 112.133 8.3998 111.6 8.7998C111 9.13314 110.533 9.60019 110.2 10.2002V8.5H105.9V20H110.2V13C110.2 12.6 110.266 12.2332 110.4 11.8999C110.6 11.6332 110.8 11.4331 111 11.2998C111.266 11.1665 111.566 11.1001 111.9 11.1001C112.5 11.1001 112.9 11.2668 113.1 11.6001C113.3 11.9334 113.4 12.4 113.4 13ZM124.8 0.5H120.6V20H124.8V0.5ZM134 8.5H128.9L124 13.2002L129.5 20H134.5L129.1 13.2002L134 8.5ZM140.5 0.5H136.1V20H140.5V0.5ZM142.9 4.3999C142.9 4.9999 143.133 5.53333 143.6 6C144.066 6.4 144.633 6.6001 145.3 6.6001C145.966 6.6001 146.533 6.4 147 6C147.533 5.53333 147.8 4.9999 147.8 4.3999C147.8 3.73324 147.533 3.16686 147 2.7002C146.533 2.3002 145.966 2.1001 145.3 2.1001C144.633 2.1001 144.066 2.3002 143.6 2.7002C143.133 3.16686 142.9 3.73324 142.9 4.3999ZM147.4 8.5H143.2V20H147.4V8.5ZM157.7 13V20H162.2V12.6001C162.2 11.2001 161.9 10.1332 161.3 9.3999C160.633 8.66657 159.566 8.2998 158.1 8.2998C157.166 8.2998 156.433 8.46647 155.9 8.7998C155.3 9.1998 154.833 9.66686 154.5 10.2002V8.5H150.2V20H154.5V13C154.5 12.6 154.566 12.2667 154.7 12C154.9 11.7333 155.1 11.5332 155.3 11.3999C155.566 11.2666 155.866 11.2002 156.2 11.2002C156.8 11.2002 157.2 11.3669 157.4 11.7002C157.6 12.0335 157.7 12.4667 157.7 13Z" fill="#202020"/>
</svg>
