<svg width="46" height="13" viewBox="0 0 46 13" fill="none" xmlns="http://www.w3.org/2000/svg">
<path d="M2.69934 1.50078H0.899414V12.0008H2.69934V1.50078ZM8.79944 1.50078H6.59937L2.19934 6.50078L6.79944 12.0008H8.99939L4.39941 6.40078L8.79944 1.50078ZM11.2994 9.30078V5.10078H9.59937V9.50078C9.59937 10.3008 9.79934 10.9674 10.1993 11.5008C10.5993 11.9674 11.1994 12.2008 11.9994 12.2008C12.4661 12.2008 12.866 12.1008 13.1993 11.9008C13.5327 11.7008 13.8327 11.4008 14.0994 11.0008V12.0008H15.6993V5.10078H14.0994V9.30078C14.0994 9.63411 14.0327 9.90078 13.8994 10.1008C13.7661 10.3674 13.5661 10.5674 13.2994 10.7008C13.0994 10.8341 12.8327 10.9008 12.4994 10.9008C12.0994 10.9008 11.7994 10.7674 11.5994 10.5008C11.3994 10.2341 11.2994 9.83412 11.2994 9.30078ZM19.3994 12.0008V5.10078H17.7994V12.0008H19.3994ZM21.3994 6.80078L22.1993 5.50078C22.066 5.30078 21.866 5.16744 21.5994 5.10078C21.3994 5.03411 21.1661 5.00078 20.8994 5.00078C20.5661 5.00078 20.2327 5.10078 19.8994 5.30078C19.5661 5.56745 19.2994 5.93411 19.0994 6.40078C18.8994 6.80078 18.7994 7.26745 18.7994 7.80078L19.3994 8.10078C19.3994 7.76744 19.4327 7.50078 19.4994 7.30078C19.5661 7.03411 19.6661 6.83411 19.7994 6.70078C19.9994 6.56744 20.2327 6.50078 20.4994 6.50078C20.6994 6.50078 20.8661 6.53411 20.9994 6.60078C21.1327 6.66744 21.2661 6.73411 21.3994 6.80078ZM23.5994 9.70078L22.6993 10.7008C22.8993 10.9674 23.1327 11.2341 23.3994 11.5008C23.7327 11.7008 24.0994 11.8674 24.4994 12.0008C24.8994 12.1341 25.3328 12.2008 25.7994 12.2008C26.5328 12.2008 27.1327 12.0008 27.5994 11.6008C27.9994 11.2008 28.1993 10.7008 28.1993 10.1008C28.1993 9.63411 28.1327 9.30078 27.9994 9.10078C27.7994 8.83411 27.5327 8.60078 27.1993 8.40078C26.866 8.20078 26.4994 8.03411 26.0994 7.90078C25.8327 7.76745 25.5994 7.66744 25.3994 7.60078C25.1327 7.46744 24.9328 7.36745 24.7994 7.30078C24.6661 7.16745 24.5994 7.00078 24.5994 6.80078C24.5994 6.60078 24.6994 6.46745 24.8994 6.40078C25.0327 6.26745 25.1994 6.20078 25.3994 6.20078C25.7994 6.20078 26.1327 6.30078 26.3994 6.50078C26.7327 6.63411 26.9993 6.83411 27.1993 7.10078L28.0994 6.20078C27.966 5.93411 27.7661 5.73411 27.4994 5.60078C27.1661 5.40078 26.8327 5.23411 26.4994 5.10078C26.1661 5.03411 25.8327 5.00078 25.4994 5.00078C25.0327 5.00078 24.6328 5.06744 24.2994 5.20078C23.8994 5.33411 23.5994 5.53411 23.3994 5.80078C23.1994 6.06745 23.0994 6.40078 23.0994 6.80078C23.0994 7.26745 23.1994 7.63411 23.3994 7.90078C23.5994 8.16745 23.8327 8.36744 24.0994 8.50078C24.4327 8.70078 24.766 8.83411 25.0994 8.90078C25.366 9.03411 25.6327 9.16745 25.8994 9.30078C26.0994 9.36745 26.2661 9.46744 26.3994 9.60078C26.5327 9.80078 26.5994 10.0008 26.5994 10.2008C26.5994 10.4008 26.5327 10.5674 26.3994 10.7008C26.1994 10.8341 25.966 10.9008 25.6993 10.9008C25.4327 10.9008 25.1994 10.8674 24.9994 10.8008C24.7327 10.6674 24.4994 10.5341 24.2994 10.4008C24.0994 10.2008 23.866 9.96744 23.5994 9.70078ZM31.2994 0.300781H29.6993V12.0008H31.2994V0.300781ZM34.3994 9.90078C34.3994 9.63411 34.4327 9.43411 34.4994 9.30078C34.6327 9.16745 34.7994 9.06744 34.9994 9.00078C35.1994 8.86744 35.4994 8.80078 35.8994 8.80078C36.2327 8.80078 36.5994 8.86744 36.9994 9.00078C37.3327 9.06744 37.6661 9.23411 37.9994 9.50078V8.60078C37.8661 8.53411 37.6994 8.43411 37.4994 8.30078C37.2994 8.16745 36.9994 8.03411 36.5994 7.90078C36.3327 7.83411 35.9661 7.80078 35.4994 7.80078C34.6327 7.80078 33.9661 8.00078 33.4994 8.40078C33.0327 8.80078 32.7994 9.33411 32.7994 10.0008C32.7994 10.4674 32.8994 10.8674 33.0994 11.2008C33.2994 11.5341 33.5994 11.7674 33.9994 11.9008C34.3327 12.1008 34.7327 12.2008 35.1993 12.2008C35.5993 12.2008 35.9661 12.1341 36.2994 12.0008C36.6994 11.8008 37.0328 11.5674 37.2994 11.3008C37.5661 10.9674 37.6993 10.6008 37.6993 10.2008L37.4994 9.30078C37.4994 9.63411 37.3993 9.93411 37.1993 10.2008C37.066 10.4674 36.866 10.6674 36.5994 10.8008C36.3327 10.9341 36.0327 11.0008 35.6993 11.0008C35.4327 11.0008 35.1994 10.9341 34.9994 10.8008C34.7994 10.7341 34.666 10.6341 34.5994 10.5008C34.466 10.3008 34.3994 10.1008 34.3994 9.90078ZM33.1993 5.80078L33.8994 6.90078C34.0327 6.83411 34.1994 6.76744 34.3994 6.70078C34.5994 6.56744 34.8327 6.46745 35.0994 6.40078C35.366 6.33411 35.6661 6.30078 35.9994 6.30078C36.1994 6.30078 36.3994 6.30078 36.5994 6.30078C36.7327 6.36745 36.8661 6.43411 36.9994 6.50078C37.1327 6.63411 37.2661 6.76745 37.3994 6.90078C37.4661 7.03411 37.4994 7.20078 37.4994 7.40078V12.0008H38.9994V7.10078C38.9994 6.63411 38.8993 6.23411 38.6993 5.90078C38.4327 5.63411 38.0993 5.40077 37.6993 5.20078C37.2327 5.06744 36.7327 5.00078 36.1993 5.00078C35.5327 5.00078 34.9327 5.06744 34.3994 5.20078C33.9327 5.40077 33.5327 5.60078 33.1993 5.80078ZM42.4994 12.0008V5.10078H40.8994V12.0008H42.4994ZM44.5994 6.80078L45.3994 5.50078C45.1994 5.30078 44.9994 5.16744 44.7994 5.10078C44.5994 5.03411 44.366 5.00078 44.0994 5.00078C43.766 5.00078 43.4327 5.10078 43.0994 5.30078C42.766 5.56745 42.4994 5.93411 42.2994 6.40078C42.0994 6.80078 41.9994 7.26745 41.9994 7.80078L42.4994 8.10078C42.4994 7.76744 42.5327 7.50078 42.5994 7.30078C42.7327 7.03411 42.8661 6.83411 42.9994 6.70078C43.1994 6.56744 43.4327 6.50078 43.6993 6.50078C43.8993 6.50078 44.066 6.53411 44.1993 6.60078C44.3327 6.66744 44.466 6.73411 44.5994 6.80078Z" fill="#202020"/>
</svg>
