<svg width="125" height="12" viewBox="0 0 125 12" fill="none" xmlns="http://www.w3.org/2000/svg">
<path d="M6.90021 10.9993L3.7002 6.39917L2.50018 7.69922V10.9993H0.700195V0.299316H2.50018V5.29932L3.60016 4.09937L6.7002 0.299316H8.90021L5.00018 5.09937L9.10016 10.9993H6.90021ZM16.1002 0.299316H17.9002V7.49927C17.9002 8.6326 17.5335 9.53255 16.8002 10.1992C16.1335 10.7992 15.1669 11.0994 13.9002 11.0994C12.7002 11.0994 11.7335 10.7992 11.0002 10.1992C10.3335 9.53255 10.0002 8.6326 10.0002 7.49927V0.299316H11.8002V7.49927C11.8002 8.16593 11.9668 8.69937 12.3002 9.09937C12.7002 9.49936 13.2335 9.69922 13.9002 9.69922C15.3669 9.69922 16.1002 8.9325 16.1002 7.39917V0.299316ZM26.0002 10.9993L23.8002 6.89917H21.8002V10.9993H19.9002V0.299316H23.7002C24.9002 0.299316 25.8335 0.566032 26.5002 1.09937C27.1668 1.69937 27.5002 2.49927 27.5002 3.49927C27.5002 4.2326 27.3335 4.83265 27.0002 5.29932C26.6668 5.76598 26.2002 6.1325 25.6002 6.39917L27.9002 10.8992V10.9993H26.0002ZM21.8002 1.79932V5.39917H23.7002C24.3669 5.39917 24.8669 5.2325 25.2002 4.89917C25.5335 4.56584 25.7002 4.1327 25.7002 3.59937C25.7002 3.06603 25.5668 2.63265 25.3002 2.29932C24.9668 1.96598 24.4668 1.79932 23.8002 1.79932H21.8002ZM34.9002 8.19922C34.9002 7.73255 34.7335 7.36603 34.4002 7.09937C34.0669 6.89937 33.4668 6.66584 32.6002 6.39917C31.7335 6.1325 31.0668 5.8326 30.6002 5.49927C29.6002 4.89927 29.1002 4.09937 29.1002 3.09937C29.1002 2.2327 29.4335 1.5326 30.1002 0.999268C30.8335 0.465934 31.7669 0.199219 32.9002 0.199219C33.6335 0.199219 34.3002 0.332699 34.9002 0.599365C35.4335 0.866032 35.8668 1.23255 36.2001 1.69922C36.5335 2.23255 36.7001 2.79917 36.7001 3.39917H34.9002C34.9002 2.86584 34.7335 2.4327 34.4002 2.09937C34.0002 1.76603 33.5002 1.59937 32.9002 1.59937C32.3002 1.59937 31.8002 1.7326 31.4002 1.99927C31.0669 2.26593 30.9002 2.6327 30.9002 3.09937C30.9002 3.49937 31.1002 3.8327 31.5002 4.09937C31.8335 4.36603 32.4336 4.6325 33.3002 4.89917C34.1002 5.09917 34.7669 5.36589 35.3002 5.69922C35.7669 6.03255 36.1335 6.39932 36.4002 6.79932C36.6002 7.19932 36.7001 7.66589 36.7001 8.19922C36.7001 9.06589 36.3668 9.76598 35.7001 10.2993C35.0335 10.8327 34.1002 11.0994 32.9002 11.0994C32.1669 11.0994 31.4669 10.9659 30.8002 10.6992C30.1336 10.4326 29.6336 10.0326 29.3002 9.49927C28.9669 9.0326 28.8002 8.46598 28.8002 7.79932H30.6002C30.6002 8.39932 30.8001 8.86589 31.2001 9.19922C31.6001 9.53255 32.1669 9.69922 32.9002 9.69922C33.5669 9.69922 34.0669 9.56598 34.4002 9.29932C34.7335 9.03265 34.9002 8.66588 34.9002 8.19922ZM46.5002 5.49927V9.59937C46.1669 10.066 45.6335 10.4326 44.9002 10.6992C44.2335 10.9659 43.4668 11.0994 42.6002 11.0994C41.7335 11.0994 40.9335 10.8993 40.2001 10.4993C39.5335 10.0993 39.0002 9.53265 38.6002 8.79932C38.2668 7.99932 38.1002 7.09937 38.1002 6.09937V5.29932C38.1002 3.69932 38.4668 2.4326 39.2001 1.49927C40.0001 0.632601 41.0669 0.199219 42.4002 0.199219C43.6002 0.199219 44.5669 0.465934 45.3002 0.999268C45.9669 1.59927 46.3668 2.46603 46.5002 3.59937H44.7001C44.5001 2.3327 43.7668 1.69922 42.5002 1.69922C41.6335 1.69922 41.0002 1.99937 40.6002 2.59937C40.1335 3.1327 39.9002 3.99922 39.9002 5.19922V5.99927C39.9002 7.1326 40.1335 8.03255 40.6002 8.69922C41.1335 9.29922 41.8335 9.59937 42.7001 9.59937C43.6335 9.59937 44.3001 9.39927 44.7001 8.99927V6.89917H42.5002V5.49927H46.5002ZM55.4002 10.9993L54.5002 8.49927H50.4002L49.5002 10.9993H47.6002L51.6002 0.299316H53.3002L57.3002 10.9993H55.4002ZM52.5002 2.59937L50.9002 6.99927H54.0002L52.5002 2.59937ZM63.4002 0.299316L65.8002 5.39917L68.3002 0.299316H70.3002L66.7001 7.09937V10.9993H64.9002V7.09937L61.3002 0.299316H63.4002ZM79.8002 5.39917V5.89917C79.8002 6.96584 79.6336 7.89922 79.3002 8.69922C78.9002 9.49922 78.3668 10.0993 77.7001 10.4993C77.0335 10.8993 76.2669 11.0994 75.4002 11.0994C74.5335 11.0994 73.7668 10.8993 73.1002 10.4993C72.4335 10.0993 71.9002 9.49922 71.5002 8.69922C71.1668 7.89922 71.0002 6.99927 71.0002 5.99927V5.39917C71.0002 4.3325 71.1668 3.39937 71.5002 2.59937C71.9002 1.86603 72.4335 1.26598 73.1002 0.799316C73.7668 0.399316 74.5335 0.199219 75.4002 0.199219C76.2669 0.199219 77.0335 0.399316 77.7001 0.799316C78.3668 1.19932 78.8668 1.79937 79.2001 2.59937C79.6001 3.39937 79.8002 4.3325 79.8002 5.39917ZM78.0002 5.89917V5.39917C78.0002 4.19917 77.7669 3.29922 77.3002 2.69922C76.8336 2.03255 76.2002 1.69922 75.4002 1.69922C74.6002 1.69922 73.9669 2.03255 73.5002 2.69922C73.0335 3.29922 72.8002 4.16598 72.8002 5.29932V5.89917C72.8002 7.09917 73.0335 8.03255 73.5002 8.69922C73.9669 9.29922 74.6002 9.59937 75.4002 9.59937C76.2002 9.59937 76.8336 9.29922 77.3002 8.69922C77.7669 8.03255 78.0002 7.09917 78.0002 5.89917ZM88.7001 1.49927L83.2001 9.49927H88.9002V10.9993H81.0002V9.79932L86.5002 1.79932H81.0002V0.299316H88.7001V1.49927ZM92.5002 0.39917V10.9993H90.6002V0.39917H92.5002ZM96.7001 0.39917V9.49927H101.5V10.9993H94.8002V0.39917H96.7001ZM104.9 0.39917V10.9993H103.1V0.39917H104.9ZM112.7 8.29932C112.7 7.83265 112.533 7.46589 112.2 7.19922C111.867 6.93255 111.267 6.66584 110.4 6.39917C109.6 6.1325 108.934 5.86603 108.4 5.59937C107.4 4.9327 106.9 4.13255 106.9 3.19922C106.9 2.33255 107.267 1.6327 108 1.09937C108.667 0.499365 109.567 0.199219 110.7 0.199219C111.433 0.199219 112.1 0.332699 112.7 0.599365C113.3 0.866032 113.767 1.26598 114.1 1.79932C114.433 2.33265 114.6 2.89927 114.6 3.49927H112.7C112.7 2.89927 112.533 2.46589 112.2 2.19922C111.867 1.86589 111.367 1.69922 110.7 1.69922C110.1 1.69922 109.634 1.8327 109.3 2.09937C108.967 2.36603 108.8 2.73255 108.8 3.19922C108.8 3.59922 108.967 3.89937 109.3 4.09937C109.7 4.36603 110.3 4.6325 111.1 4.89917C111.967 5.16584 112.633 5.46598 113.1 5.79932C113.633 6.06598 114 6.39932 114.2 6.79932C114.467 7.19932 114.6 7.69932 114.6 8.29932C114.6 9.16598 114.267 9.86584 113.6 10.3992C112.867 10.9325 111.934 11.1992 110.8 11.1992C110 11.1992 109.3 11.0326 108.7 10.6992C108.033 10.4326 107.5 10.066 107.1 9.59937C106.767 9.06603 106.6 8.46598 106.6 7.79932H108.5C108.5 8.39932 108.7 8.86589 109.1 9.19922C109.5 9.53255 110.067 9.69922 110.8 9.69922C111.467 9.69922 111.933 9.56598 112.2 9.29932C112.533 9.03265 112.7 8.69932 112.7 8.29932ZM124.7 0.39917V10.9993H122.8V6.29932H118.1V10.9993H116.2V0.39917H118.1V4.79932H122.8V0.39917H124.7Z" fill="white"/>
</svg>
