<svg width="820" height="66" viewBox="0 0 820 66" fill="none" xmlns="http://www.w3.org/2000/svg">
<path d="M13.4998 5.49902H0.299805V50.999H13.4998V5.49902ZM42.8998 5.49902H28.1998L9.7998 27.1992L28.5998 50.999H43.8998L24.8998 26.7988L42.8998 5.49902ZM56.9998 39.2988V21.0991H45.2998V40.499C45.2998 44.0324 46.0998 46.7988 47.6998 48.7988C49.3665 50.7322 52.1332 51.6992 55.9998 51.6992C58.2665 51.6992 60.1331 51.2656 61.5998 50.3989C63.1331 49.3989 64.3332 48.1325 65.1998 46.5991V50.999H76.4998V21.0991H65.1998V39.2988C65.1998 40.3655 64.9998 41.2657 64.5998 41.999C64.2665 42.799 63.7665 43.3659 63.0998 43.6992C62.4998 44.0326 61.6998 44.1992 60.6998 44.1992C59.2998 44.1992 58.3331 43.799 57.7998 42.999C57.2665 42.1324 56.9998 40.8988 56.9998 39.2988ZM94.5998 50.999V21.0991H83.5998V50.999H94.5998ZM103.1 32.5991L107.8 22.8989C107.333 22.1656 106.6 21.5658 105.6 21.0991C104.6 20.5658 103.566 20.2988 102.5 20.2988C100.766 20.2988 99.0998 20.8657 97.4998 21.999C95.8998 23.1324 94.6332 24.5989 93.6998 26.3989C92.7665 28.2656 92.2998 30.3988 92.2998 32.7988L94.5998 37.2988C94.5998 35.8988 94.7998 34.6992 95.1998 33.6992C95.5998 32.7659 96.1665 32.0658 96.8998 31.5991C97.6998 31.1325 98.5332 30.8989 99.3998 30.8989C100.267 30.8989 100.966 31.0656 101.5 31.3989C102.1 31.6656 102.633 32.0658 103.1 32.5991ZM113.4 39.5991L109.3 47.2988C110.833 48.2988 112.466 49.199 114.2 49.999C115.866 50.7324 117.666 51.3322 119.6 51.7988C121.533 52.1988 123.566 52.3989 125.7 52.3989C129.433 52.3989 132.3 51.599 134.3 49.999C136.366 48.399 137.4 45.9325 137.4 42.5991C137.4 40.7325 136.966 39.2325 136.1 38.0991C135.366 36.9658 134.333 36.0656 133 35.3989C131.733 34.5989 130.367 33.9323 128.9 33.3989C127.3 32.7989 125.967 32.3324 124.9 31.999C123.833 31.6657 123.066 31.2989 122.6 30.8989C122.066 30.4989 121.8 29.9989 121.8 29.3989C121.8 28.9989 121.966 28.6322 122.3 28.2988C122.7 28.0322 123.3 27.8989 124.1 27.8989C125.433 27.8989 126.933 28.2657 128.6 28.999C130.333 29.799 131.9 30.799 133.3 31.999L136.6 24.499C135.266 23.699 133.9 23.0324 132.5 22.499C131.1 21.899 129.633 21.4325 128.1 21.0991C126.566 20.6991 124.9 20.499 123.1 20.499C120.833 20.499 118.833 20.8324 117.1 21.499C115.366 22.1657 114 23.1323 113 24.3989C112 25.6656 111.5 27.2325 111.5 29.0991C111.5 31.0325 111.9 32.6323 112.7 33.8989C113.5 35.0989 114.567 36.0655 115.9 36.7988C117.167 37.5322 118.533 38.1325 120 38.5991C121.733 39.1325 123.033 39.599 123.9 39.999C124.767 40.399 125.366 40.7992 125.7 41.1992C126.033 41.5326 126.2 41.9657 126.2 42.499C126.2 43.099 126 43.5656 125.6 43.8989C125.2 44.2989 124.6 44.499 123.8 44.499C123.266 44.499 122.533 44.3658 121.6 44.0991C120.666 43.8991 119.5 43.4655 118.1 42.7988C116.766 42.0655 115.2 40.9991 113.4 39.5991ZM153.6 0.298828H142.4V50.999H153.6V0.298828ZM169.9 41.6992C169.9 41.0326 170.033 40.4991 170.3 40.0991C170.566 39.6325 171 39.2991 171.6 39.0991C172.2 38.8991 173 38.7988 174 38.7988C175.4 38.7988 176.766 38.9989 178.1 39.3989C179.366 39.7989 180.433 40.3658 181.3 41.0991V36.2988C180.766 35.6988 179.933 35.1659 178.8 34.6992C177.733 34.1659 176.433 33.7657 174.9 33.499C173.5 33.1657 171.966 32.999 170.3 32.999C166.5 32.999 163.6 33.8324 161.6 35.499C159.6 37.1657 158.6 39.3992 158.6 42.1992C158.6 44.2659 159.1 45.9989 160.1 47.3989C161.1 48.7989 162.4 49.8658 164 50.5991C165.6 51.3325 167.366 51.6992 169.3 51.6992C171.3 51.6992 173.133 51.3325 174.8 50.5991C176.466 49.9325 177.766 48.9325 178.7 47.5991C179.7 46.2658 180.2 44.6326 180.2 42.6992L179.2 38.7988C179.2 40.1322 178.9 41.2659 178.3 42.1992C177.766 43.0659 177.066 43.6991 176.2 44.0991C175.333 44.4991 174.433 44.6992 173.5 44.6992C172.833 44.6992 172.233 44.5989 171.7 44.3989C171.166 44.1323 170.7 43.7655 170.3 43.2988C170.033 42.8322 169.9 42.2992 169.9 41.6992ZM160.8 23.5991L164.4 30.8989C164.8 30.6989 165.5 30.399 166.5 29.999C167.5 29.599 168.633 29.2657 169.9 28.999C171.3 28.6657 172.6 28.499 173.8 28.499C174.733 28.499 175.533 28.6323 176.2 28.8989C176.933 29.0323 177.5 29.2992 177.9 29.6992C178.367 30.0326 178.666 30.4657 178.8 30.999C179.066 31.5324 179.2 32.1322 179.2 32.7988V50.999H189.9V30.0991C189.9 27.9658 189.233 26.1659 187.9 24.6992C186.7 23.2326 184.966 22.1323 182.7 21.3989C180.566 20.5989 178.133 20.1992 175.4 20.1992C172.6 20.1992 169.933 20.5655 167.4 21.2988C164.933 22.0322 162.733 22.7991 160.8 23.5991ZM207.8 50.999V21.0991H196.9V50.999H207.8ZM216.3 32.5991L220.9 22.8989C220.433 22.1656 219.7 21.5658 218.7 21.0991C217.7 20.5658 216.666 20.2988 215.6 20.2988C213.866 20.2988 212.2 20.8657 210.6 21.999C209.066 23.1324 207.8 24.5989 206.8 26.3989C205.866 28.2656 205.4 30.3988 205.4 32.7988L207.8 37.2988C207.8 35.8988 207.966 34.6992 208.3 33.6992C208.766 32.7659 209.366 32.0658 210.1 31.5991C210.833 31.1325 211.633 30.8989 212.5 30.8989C213.366 30.8989 214.066 31.0656 214.6 31.3989C215.266 31.6656 215.833 32.0658 216.3 32.5991ZM224.1 10.2988C224.1 11.9655 224.7 13.3323 225.9 14.3989C227.167 15.4656 228.667 15.999 230.4 15.999C232.133 15.999 233.633 15.4656 234.9 14.3989C236.1 13.3323 236.7 11.9655 236.7 10.2988C236.7 8.56549 236.1 7.13236 234.9 5.99902C233.633 4.93236 232.133 4.39893 230.4 4.39893C228.667 4.39893 227.167 4.93236 225.9 5.99902C224.7 7.13236 224.1 8.56549 224.1 10.2988ZM235.8 21.0991H225V50.999H235.8V21.0991ZM290.1 50.999V31.5991C290.1 29.2658 289.833 27.2658 289.3 25.5991C288.7 23.9325 287.733 22.6655 286.4 21.7988C285.066 20.8655 283.167 20.3989 280.7 20.3989C278.7 20.3989 276.866 20.8326 275.2 21.6992C273.6 22.4992 272.233 23.6325 271.1 25.0991C270.5 23.5658 269.533 22.3991 268.2 21.5991C266.866 20.7991 265 20.3989 262.6 20.3989C260.466 20.3989 258.667 20.8655 257.2 21.7988C255.8 22.7322 254.666 23.9991 253.8 25.5991V21.0991H243.1V50.999H253.8V32.7988C253.8 31.6655 253.966 30.7658 254.3 30.0991C254.566 29.3658 255 28.8324 255.6 28.499C256.133 28.099 256.766 27.8989 257.5 27.8989C258.633 27.8989 259.433 28.3326 259.9 29.1992C260.433 30.0659 260.7 31.2655 260.7 32.7988V50.999H272V32.7988C272 31.6655 272.133 30.7658 272.4 30.0991C272.733 29.3658 273.167 28.8324 273.7 28.499C274.3 28.099 274.933 27.8989 275.6 27.8989C276.8 27.8989 277.633 28.3326 278.1 29.1992C278.633 30.0659 278.9 31.2655 278.9 32.7988V50.999H290.1ZM296.4 10.2988C296.4 11.9655 297 13.3323 298.2 14.3989C299.466 15.4656 300.966 15.999 302.7 15.999C304.433 15.999 305.933 15.4656 307.2 14.3989C308.4 13.3323 309 11.9655 309 10.2988C309 8.56549 308.4 7.13236 307.2 5.99902C305.933 4.93236 304.433 4.39893 302.7 4.39893C300.966 4.39893 299.466 4.93236 298.2 5.99902C297 7.13236 296.4 8.56549 296.4 10.2988ZM308.1 21.0991H297.3V50.999H308.1V21.0991ZM315.8 31.2988H327.7L312.8 50.999H343.7V40.8989H332.2L346 21.0991H315.8V31.2988ZM413.8 5.59912H401.7V28.6992L371.2 3.29883V51.0991H383.3V27.8989L413.8 53.3989V5.59912ZM431.2 41.6992C431.2 41.0326 431.333 40.4991 431.6 40.0991C431.866 39.6991 432.3 39.3992 432.9 39.1992C433.5 38.9326 434.3 38.7988 435.3 38.7988C436.7 38.7988 438.066 38.9989 439.4 39.3989C440.667 39.7989 441.733 40.3658 442.6 41.0991V36.3989C442.066 35.7989 441.233 35.2326 440.1 34.6992C439.033 34.2326 437.733 33.8324 436.2 33.499C434.8 33.1657 433.266 32.999 431.6 32.999C427.8 32.999 424.9 33.8324 422.9 35.499C420.9 37.1657 419.9 39.4322 419.9 42.2988C419.9 44.2988 420.4 46.0324 421.4 47.499C422.4 48.899 423.7 49.9659 425.3 50.6992C426.9 51.3659 428.666 51.6992 430.6 51.6992C432.6 51.6992 434.433 51.3659 436.1 50.6992C437.766 49.9659 439.066 48.9325 440 47.5991C441 46.2658 441.5 44.6326 441.5 42.6992L440.5 38.7988C440.5 40.1322 440.2 41.2659 439.6 42.1992C439.066 43.0659 438.366 43.7326 437.5 44.1992C436.633 44.5326 435.733 44.6992 434.8 44.6992C434.133 44.6992 433.533 44.5989 433 44.3989C432.466 44.1323 432 43.7989 431.6 43.3989C431.333 42.9323 431.2 42.3659 431.2 41.6992ZM422.1 23.5991L425.7 30.999C426.1 30.7324 426.8 30.4325 427.8 30.0991C428.8 29.6991 429.933 29.3324 431.2 28.999C432.6 28.7324 433.9 28.5991 435.1 28.5991C436.033 28.5991 436.833 28.6989 437.5 28.8989C438.233 29.0323 438.8 29.2992 439.2 29.6992C439.667 30.0992 439.966 30.5324 440.1 30.999C440.366 31.5324 440.5 32.1322 440.5 32.7988V51.0991H451.2V30.0991C451.2 27.9658 450.533 26.1659 449.2 24.6992C448 23.2326 446.266 22.1323 444 21.3989C441.866 20.5989 439.433 20.1992 436.7 20.1992C433.9 20.1992 431.233 20.5655 428.7 21.2988C426.233 22.0322 424.033 22.7991 422.1 23.5991ZM469.1 51.0991V21.1992H458.2V51.0991H469.1ZM477.6 32.6992L482.2 22.999C481.733 22.2657 481 21.6659 480 21.1992C479 20.6659 477.967 20.3989 476.9 20.3989C475.167 20.3989 473.5 20.9658 471.9 22.0991C470.367 23.1658 469.1 24.6324 468.1 26.499C467.166 28.3657 466.7 30.4989 466.7 32.8989L469.1 37.2988C469.1 35.8988 469.266 34.7322 469.6 33.7988C470.066 32.7988 470.667 32.0658 471.4 31.5991C472.133 31.1325 472.933 30.8989 473.8 30.8989C474.667 30.8989 475.367 31.0656 475.9 31.3989C476.566 31.7323 477.133 32.1659 477.6 32.6992ZM520.6 21.1992H508.2L503.1 28.1992L498.1 21.1992H485.2L497.2 35.6992L484.5 51.0991H497.5L503.1 43.0991L508.8 51.0991H521.2L508.8 35.6992L520.6 21.1992ZM524 10.3989C524 12.0656 524.6 13.4324 525.8 14.499C527.067 15.5657 528.567 16.0991 530.3 16.0991C532.1 16.0991 533.6 15.5657 534.8 14.499C536.067 13.4324 536.7 12.0656 536.7 10.3989C536.7 8.66559 536.067 7.23245 534.8 6.09912C533.6 5.03245 532.1 4.49902 530.3 4.49902C528.567 4.49902 527.067 5.03245 525.8 6.09912C524.6 7.23245 524 8.66559 524 10.3989ZM535.7 21.1992H524.9V51.0991H535.7V21.1992ZM585.2 21.1992V65.3989H596.5V21.1992H585.2ZM560.9 36.1992C560.9 39.7326 561.6 42.6991 563 45.0991C564.333 47.4325 566.066 49.2324 568.2 50.499C570.4 51.699 572.667 52.2988 575 52.2988C577.667 52.2988 579.933 51.6322 581.8 50.2988C583.667 48.9655 585.066 47.0658 586 44.5991C587 42.1991 587.5 39.3992 587.5 36.1992C587.5 32.9326 587 30.0992 586 27.6992C585.066 25.2992 583.667 23.4325 581.8 22.0991C579.933 20.6991 577.667 19.999 575 19.999C572.667 19.999 570.4 20.6323 568.2 21.8989C566.066 23.0989 564.333 24.8988 563 27.2988C561.6 29.6322 560.9 32.5992 560.9 36.1992ZM572.8 36.1992C572.8 34.7992 573.066 33.6655 573.6 32.7988C574.2 31.8655 574.966 31.1325 575.9 30.5991C576.833 30.1325 577.866 29.8989 579 29.8989C580 29.8989 580.966 30.1325 581.9 30.5991C582.9 31.0658 583.7 31.7659 584.3 32.6992C584.9 33.5659 585.2 34.7326 585.2 36.1992C585.2 37.5992 584.9 38.7659 584.3 39.6992C583.7 40.5659 582.9 41.2655 581.9 41.7988C580.966 42.1988 580 42.3989 579 42.3989C577.866 42.3989 576.833 42.1659 575.9 41.6992C574.966 41.2326 574.2 40.499 573.6 39.499C573.066 38.5657 572.8 37.4659 572.8 36.1992ZM612.7 41.7988C612.7 41.1322 612.833 40.5992 613.1 40.1992C613.366 39.7326 613.8 39.3992 614.4 39.1992C615 38.9992 615.8 38.8989 616.8 38.8989C618.2 38.8989 619.567 39.099 620.9 39.499C622.167 39.899 623.233 40.4659 624.1 41.1992V36.3989C623.566 35.7989 622.733 35.2655 621.6 34.7988C620.533 34.2655 619.267 33.8658 617.8 33.5991C616.333 33.2658 614.766 33.0991 613.1 33.0991C609.3 33.0991 606.4 33.9325 604.4 35.5991C602.4 37.1991 601.4 39.4322 601.4 42.2988C601.4 44.3655 601.9 46.099 602.9 47.499C603.9 48.899 605.2 49.9659 606.8 50.6992C608.4 51.4326 610.166 51.7988 612.1 51.7988C614.1 51.7988 615.933 51.4326 617.6 50.6992C619.266 50.0326 620.566 49.0326 621.5 47.6992C622.5 46.3659 623 44.7322 623 42.7988L622 38.8989C622 40.2323 621.7 41.3655 621.1 42.2988C620.633 43.1655 619.966 43.7992 619.1 44.1992C618.233 44.5992 617.3 44.7988 616.3 44.7988C615.633 44.7988 615.033 44.699 614.5 44.499C613.966 44.2324 613.5 43.8656 613.1 43.3989C612.833 42.9323 612.7 42.3988 612.7 41.7988ZM603.6 23.6992L607.2 30.999C607.6 30.799 608.3 30.4991 609.3 30.0991C610.3 29.6991 611.433 29.3658 612.7 29.0991C614.1 28.7658 615.4 28.5991 616.6 28.5991C617.533 28.5991 618.366 28.6989 619.1 28.8989C619.766 29.0989 620.3 29.3988 620.7 29.7988C621.166 30.1322 621.5 30.5658 621.7 31.0991C621.9 31.6325 622 32.1988 622 32.7988V51.0991H632.7V30.1992C632.7 28.0659 632.067 26.2655 630.8 24.7988C629.533 23.3322 627.8 22.2324 625.6 21.499C623.4 20.699 620.933 20.2988 618.2 20.2988C615.4 20.2988 612.733 20.6656 610.2 21.3989C607.733 22.0656 605.533 22.8326 603.6 23.6992ZM659.1 32.8989V51.0991H670.9V31.6992C670.9 28.1659 670.067 25.4324 668.4 23.499C666.733 21.499 663.966 20.499 660.1 20.499C657.766 20.499 655.833 20.9656 654.3 21.8989C652.833 22.8323 651.7 24.0658 650.9 25.5991V21.1992H639.7V51.0991H650.9V32.8989C650.9 31.8323 651.067 30.9326 651.4 30.1992C651.8 29.4659 652.333 28.9325 653 28.5991C653.667 28.1991 654.433 27.999 655.3 27.999C656.767 27.999 657.767 28.4322 658.3 29.2988C658.833 30.1655 659.1 31.3656 659.1 32.8989ZM688 36.1992C688 34.8659 688.3 33.6992 688.9 32.6992C689.567 31.6326 690.466 30.7992 691.6 30.1992C692.733 29.5992 693.933 29.2988 695.2 29.2988C696.133 29.2988 697.133 29.4326 698.2 29.6992C699.2 29.9659 700.166 30.399 701.1 30.999C702.1 31.599 702.933 32.3989 703.6 33.3989V22.7988C702.533 22.1988 701.267 21.6988 699.8 21.2988C698.4 20.8322 696.533 20.5991 694.2 20.5991C690.8 20.5991 687.733 21.2324 685 22.499C682.333 23.7657 680.233 25.5656 678.7 27.8989C677.166 30.2323 676.4 32.9992 676.4 36.1992C676.4 39.3326 677.166 42.0656 678.7 44.3989C680.233 46.7323 682.333 48.5656 685 49.8989C687.733 51.1656 690.8 51.7988 694.2 51.7988C696.533 51.7988 698.4 51.5658 699.8 51.0991C701.267 50.6325 702.533 50.0656 703.6 49.3989V38.8989C702.933 39.8323 702.167 40.5992 701.3 41.1992C700.433 41.7992 699.466 42.2658 698.4 42.5991C697.4 42.9325 696.333 43.0991 695.2 43.0991C693.933 43.0991 692.733 42.8322 691.6 42.2988C690.466 41.6988 689.567 40.8989 688.9 39.8989C688.3 38.8323 688 37.5992 688 36.1992ZM721.6 51.0991V0.398926H710.4V51.0991H721.6ZM729.8 32.8989V51.0991H741V31.1992C741 28.7992 740.667 26.7658 740 25.0991C739.4 23.4325 738.367 22.1655 736.9 21.2988C735.367 20.4322 733.3 19.999 730.7 19.999C728.1 19.999 726 20.5659 724.4 21.6992C722.867 22.8992 721.733 24.4656 721 26.3989C720.266 28.3323 719.9 30.4989 719.9 32.8989H721.6C721.6 31.8323 721.766 30.9326 722.1 30.1992C722.5 29.4659 723.033 28.9325 723.7 28.5991C724.366 28.1991 725.133 27.999 726 27.999C727.466 27.999 728.466 28.4322 729 29.2988C729.533 30.1655 729.8 31.3656 729.8 32.8989ZM757.3 41.7988C757.3 41.1322 757.433 40.5992 757.7 40.1992C757.9 39.7326 758.333 39.3992 759 39.1992C759.6 38.9992 760.4 38.8989 761.4 38.8989C762.8 38.8989 764.167 39.099 765.5 39.499C766.766 39.899 767.833 40.4659 768.7 41.1992V36.3989C768.166 35.7989 767.333 35.2655 766.2 34.7988C765.066 34.2655 763.767 33.8658 762.3 33.5991C760.9 33.2658 759.366 33.0991 757.7 33.0991C753.9 33.0991 750.966 33.9325 748.9 35.5991C746.966 37.1991 746 39.4322 746 42.2988C746 44.3655 746.466 46.099 747.4 47.499C748.4 48.899 749.7 49.9659 751.3 50.6992C752.967 51.4326 754.766 51.7988 756.7 51.7988C758.7 51.7988 760.5 51.4326 762.1 50.6992C763.833 50.0326 765.166 49.0326 766.1 47.6992C767.1 46.3659 767.6 44.7322 767.6 42.7988L766.6 38.8989C766.6 40.2323 766.3 41.3655 765.7 42.2988C765.166 43.1655 764.466 43.7992 763.6 44.1992C762.733 44.5992 761.833 44.7988 760.9 44.7988C760.233 44.7988 759.633 44.699 759.1 44.499C758.5 44.2324 758.033 43.8656 757.7 43.3989C757.433 42.9323 757.3 42.3988 757.3 41.7988ZM748.2 23.6992L751.8 30.999C752.2 30.799 752.9 30.4991 753.9 30.0991C754.9 29.6991 756.033 29.3658 757.3 29.0991C758.633 28.7658 759.933 28.5991 761.2 28.5991C762.133 28.5991 762.933 28.6989 763.6 28.8989C764.333 29.0989 764.9 29.3988 765.3 29.7988C765.767 30.1322 766.066 30.5658 766.2 31.0991C766.466 31.6325 766.6 32.1988 766.6 32.7988V51.0991H777.3V30.1992C777.3 28.0659 776.633 26.2655 775.3 24.7988C774.033 23.3322 772.3 22.2324 770.1 21.499C767.966 20.699 765.533 20.2988 762.8 20.2988C760 20.2988 757.333 20.6656 754.8 21.3989C752.333 22.0656 750.133 22.8326 748.2 23.6992ZM808.1 18.5991C808.1 19.5325 807.7 20.5659 806.9 21.6992C806.167 22.8326 804.967 23.7991 803.3 24.5991C801.633 25.3991 799.5 25.7988 796.9 25.7988H794.7L796 37.499H805.1L805.4 32.6992C807.733 32.1659 809.966 31.3326 812.1 30.1992C814.166 29.0659 815.9 27.5325 817.3 25.5991C818.633 23.5991 819.3 21.2658 819.3 18.5991C819.3 16.2658 818.8 14.1989 817.8 12.3989C816.867 10.6656 815.567 9.19902 813.9 7.99902C812.3 6.73236 810.466 5.79922 808.4 5.19922C806.333 4.53255 804.2 4.19922 802 4.19922C799.466 4.19922 797.133 4.53255 795 5.19922C792.8 5.86589 790.766 6.83245 788.9 8.09912C787.033 9.43245 785.233 11.0323 783.5 12.8989L790.9 19.1992C792.167 17.3326 793.766 15.9324 795.7 14.999C797.566 13.999 799.466 13.499 801.4 13.499C802.8 13.499 804 13.6991 805 14.0991C806 14.4991 806.767 15.0989 807.3 15.8989C807.833 16.6323 808.1 17.5325 808.1 18.5991ZM793.7 46.999C793.7 48.5324 794.333 49.8991 795.6 51.0991C796.933 52.2991 798.6 52.8989 800.6 52.8989C802.666 52.8989 804.333 52.2991 805.6 51.0991C806.8 49.8991 807.4 48.5324 807.4 46.999C807.4 45.3324 806.8 43.9322 805.6 42.7988C804.333 41.5988 802.666 40.999 800.6 40.999C798.6 40.999 796.933 41.5988 795.6 42.7988C794.333 43.9322 793.7 45.3324 793.7 46.999Z" fill="#202020"/>
</svg>
