<svg width="254" height="18" viewBox="0 0 254 18" fill="none" xmlns="http://www.w3.org/2000/svg">
<path d="M4.10016 1.59961H0.200195V16.9996H4.10016V1.59961ZM13.7002 1.59961H9.30017L3.00018 8.89966L9.50018 16.9996H14.0002L7.40021 8.79968L13.7002 1.59961ZM19.3002 1.59961H15.6002V11.9996C15.6002 12.933 15.7335 13.7663 16.0002 14.4996C16.3335 15.233 16.7668 15.833 17.3002 16.2997C17.9002 16.6997 18.5668 17.033 19.3002 17.2997C20.0335 17.5663 20.8335 17.6996 21.7002 17.6996C22.5669 17.6996 23.4002 17.5663 24.2002 17.2997C24.9335 17.033 25.5668 16.6997 26.1002 16.2997C26.7002 15.833 27.1668 15.233 27.5002 14.4996C27.7668 13.7663 27.9002 12.933 27.9002 11.9996V1.59961H24.2002V11.6996C24.2002 12.4996 24.0002 13.1329 23.6002 13.5996C23.2002 14.0663 22.5669 14.2997 21.7002 14.2997C20.9002 14.2997 20.3002 14.0663 19.9002 13.5996C19.5002 13.1329 19.3002 12.4996 19.3002 11.6996V1.59961ZM38.8002 9.99963H34.9002L39.3002 16.9996H43.6002L38.8002 9.99963ZM34.8002 1.59961H31.1002V16.9996H34.8002V1.59961ZM33.4002 1.59961V4.69965H36.5002C36.9669 4.69965 37.3669 4.79963 37.7002 4.99963C38.1002 5.13297 38.4002 5.36625 38.6002 5.69958C38.8002 5.96625 38.9002 6.29958 38.9002 6.69958C38.9002 7.16625 38.8002 7.53302 38.6002 7.79968C38.4002 8.13302 38.1002 8.3663 37.7002 8.49963C37.3669 8.63297 36.9669 8.69958 36.5002 8.69958H33.4002V11.5996H36.7002C38.0335 11.5996 39.1335 11.3996 40.0002 10.9996C40.8668 10.533 41.5335 9.93292 42.0002 9.19958C42.4669 8.46625 42.7002 7.59961 42.7002 6.59961C42.7002 5.59961 42.4669 4.73297 42.0002 3.99963C41.5335 3.19963 40.8668 2.59965 40.0002 2.19965C39.1335 1.79965 38.0335 1.59961 36.7002 1.59961H33.4002ZM47.0002 11.5996L44.4002 13.3997C44.7335 14.133 45.2335 14.7997 45.9002 15.3997C46.5002 16.0663 47.2335 16.5663 48.1002 16.8997C48.9668 17.233 49.9002 17.3997 50.9002 17.3997C51.6335 17.3997 52.3335 17.2996 53.0002 17.0996C53.6669 16.8996 54.2668 16.5996 54.8002 16.1996C55.3335 15.7996 55.7668 15.2996 56.1002 14.6996C56.4335 14.0996 56.6002 13.3996 56.6002 12.5996C56.6002 11.9329 56.5002 11.3663 56.3002 10.8997C56.1002 10.3663 55.8002 9.93294 55.4002 9.59961C55.0669 9.19961 54.6669 8.86628 54.2002 8.59961C53.7335 8.33294 53.2335 8.09966 52.7002 7.89966C51.9669 7.63299 51.3335 7.39958 50.8002 7.19958C50.3335 6.93292 49.9669 6.66633 49.7002 6.39966C49.4335 6.13299 49.3002 5.83297 49.3002 5.49963C49.3002 5.1663 49.4335 4.89965 49.7002 4.69965C49.9669 4.43298 50.3669 4.29962 50.9002 4.29962C51.3002 4.29962 51.6669 4.39961 52.0002 4.59961C52.3335 4.73294 52.6335 4.93292 52.9002 5.19958C53.2335 5.46625 53.5002 5.76628 53.7002 6.09961L56.5002 4.59961C56.2335 4.06628 55.8669 3.53297 55.4002 2.99963C54.9335 2.4663 54.3002 2.03298 53.5002 1.69965C52.7668 1.36631 51.8668 1.19965 50.8002 1.19965C49.8002 1.19965 48.9002 1.36631 48.1002 1.69965C47.3002 2.03298 46.6669 2.53298 46.2002 3.19965C45.7335 3.86631 45.5002 4.66628 45.5002 5.59961C45.5002 6.33294 45.6335 6.9663 45.9002 7.49963C46.1669 8.03297 46.5335 8.49966 47.0002 8.89966C47.4002 9.29966 47.8335 9.59968 48.3002 9.79968C48.7668 10.0663 49.2002 10.2663 49.6002 10.3997C50.3335 10.6663 50.9335 10.8996 51.4002 11.0996C51.8669 11.2996 52.2002 11.533 52.4002 11.7997C52.6002 12.0663 52.7002 12.3997 52.7002 12.7997C52.7002 13.2663 52.5002 13.633 52.1002 13.8997C51.7668 14.1663 51.3335 14.2997 50.8002 14.2997C50.2668 14.2997 49.7668 14.1996 49.3002 13.9996C48.8335 13.733 48.4335 13.3996 48.1002 12.9996C47.7002 12.5996 47.3335 12.1329 47.0002 11.5996ZM69.5002 1.59961H65.7002V16.9996H69.5002V1.59961ZM79.1002 1.59961H74.8002L68.4002 8.89966L74.9002 16.9996H79.4002L72.9002 8.79968L79.1002 1.59961ZM83.7002 11.1996L83.4002 13.9996H91.6002L91.3002 11.1996H83.7002ZM85.3002 12.1996L87.5002 7.19958L89.7002 12.1996L89.5002 13.1996L91.4002 16.9996H95.6002L87.5002 0.599609L79.4002 16.9996H83.6002L85.5002 12.9996L85.3002 12.1996ZM94.1002 1.59961V4.89966H98.3002V16.9996H102V4.89966H106.3V1.59961H94.1002ZM110.4 13.8997V16.9996H118.2V13.8997H110.4ZM110.4 1.59961V4.69965H118.2V1.59961H110.4ZM110.4 7.39966V10.3997H117.7V7.39966H110.4ZM111.5 1.59961H107.9V16.9996H111.5V1.59961ZM128.8 8.59961V11.3997H132.9C132.767 11.7997 132.6 12.1996 132.4 12.5996C132.134 12.9329 131.867 13.233 131.6 13.4996C131.267 13.6996 130.867 13.8663 130.4 13.9996C129.934 14.133 129.434 14.1996 128.9 14.1996C127.967 14.1996 127.167 14.0329 126.5 13.6996C125.767 13.2329 125.2 12.633 124.8 11.8997C124.4 11.1663 124.2 10.2997 124.2 9.29968C124.2 8.29968 124.4 7.43292 124.8 6.69958C125.267 5.96625 125.834 5.39963 126.5 4.99963C127.234 4.6663 128.034 4.49963 128.9 4.49963C129.767 4.49963 130.5 4.69961 131.1 5.09961C131.7 5.49961 132.167 5.99961 132.5 6.59961L135.8 4.89966C135.334 4.16632 134.767 3.53297 134.1 2.99963C133.433 2.4663 132.667 2.03298 131.8 1.69965C130.934 1.36631 129.967 1.19965 128.9 1.19965C127.634 1.19965 126.5 1.39962 125.5 1.79962C124.434 2.19962 123.534 2.73299 122.8 3.39966C122 4.13299 121.4 4.99963 121 5.99963C120.534 6.99963 120.3 8.09968 120.3 9.29968C120.3 10.4997 120.5 11.5996 120.9 12.5996C121.367 13.5996 121.967 14.4663 122.7 15.1996C123.434 15.9329 124.334 16.4997 125.4 16.8997C126.4 17.2997 127.5 17.4996 128.7 17.4996C130.034 17.4996 131.2 17.2663 132.2 16.7997C133.2 16.333 134.034 15.6997 134.7 14.8997C135.434 14.033 135.934 13.0663 136.2 11.9996C136.534 10.933 136.667 9.79961 136.6 8.59961H128.8ZM142.2 9.29968C142.2 8.36635 142.367 7.56632 142.7 6.89966C143.034 6.16632 143.534 5.59959 144.2 5.19958C144.867 4.86625 145.634 4.69965 146.5 4.69965C147.367 4.69965 148.133 4.86625 148.8 5.19958C149.467 5.59959 149.967 6.16632 150.3 6.89966C150.633 7.56632 150.8 8.36635 150.8 9.29968C150.8 10.233 150.633 11.0329 150.3 11.6996C149.967 12.3663 149.467 12.8997 148.8 13.2997C148.133 13.6997 147.367 13.8997 146.5 13.8997C145.634 13.8997 144.867 13.6997 144.2 13.2997C143.534 12.8997 143.034 12.3663 142.7 11.6996C142.367 11.0329 142.2 10.233 142.2 9.29968ZM138.2 9.29968C138.2 10.4997 138.4 11.5996 138.8 12.5996C139.2 13.5996 139.767 14.4663 140.5 15.1996C141.234 15.9329 142.134 16.4997 143.2 16.8997C144.2 17.2997 145.3 17.4996 146.5 17.4996C147.7 17.4996 148.8 17.2997 149.8 16.8997C150.8 16.4997 151.667 15.9329 152.4 15.1996C153.2 14.4663 153.8 13.5996 154.2 12.5996C154.6 11.5996 154.8 10.4997 154.8 9.29968C154.8 8.09968 154.6 6.99963 154.2 5.99963C153.734 5.0663 153.134 4.23297 152.4 3.49963C151.667 2.7663 150.8 2.19962 149.8 1.79962C148.8 1.39962 147.7 1.19965 146.5 1.19965C145.3 1.19965 144.2 1.39962 143.2 1.79962C142.2 2.19962 141.333 2.7663 140.6 3.49963C139.867 4.23297 139.267 5.0663 138.8 5.99963C138.4 6.99963 138.2 8.09968 138.2 9.29968ZM164.9 9.99963H161L165.3 16.9996H169.7L164.9 9.99963ZM160.9 1.59961H157.2V16.9996H160.9V1.59961ZM159.5 1.59961V4.69965H162.5C163.034 4.69965 163.467 4.79963 163.8 4.99963C164.133 5.13297 164.4 5.36625 164.6 5.69958C164.8 5.96625 164.9 6.29958 164.9 6.69958C164.9 7.16625 164.8 7.53302 164.6 7.79968C164.4 8.13302 164.133 8.3663 163.8 8.49963C163.467 8.63297 163.034 8.69958 162.5 8.69958H159.5V11.5996H162.8C164.133 11.5996 165.233 11.3996 166.1 10.9996C166.967 10.533 167.633 9.93292 168.1 9.19958C168.567 8.46625 168.8 7.59961 168.8 6.59961C168.8 5.59961 168.567 4.73297 168.1 3.99963C167.633 3.19963 166.967 2.59965 166.1 2.19965C165.233 1.79965 164.133 1.59961 162.8 1.59961H159.5ZM175.2 1.59961H171.4V16.9996H175.2V1.59961ZM191.3 1.59961H187.1L184.1 7.39966L181 1.59961H176.8L182.2 10.6996V16.9996H185.9V10.6996L191.3 1.59961ZM193.4 11.1996L193.2 13.9996H201.3L201.1 11.1996H193.4ZM195 12.1996L197.1 7.29968L199.3 12.1996L199.2 13.1996L201 16.9996H205.3L197.1 0.599609L189 16.9996H193.2L195.2 12.9996L195 12.1996ZM210.6 1.59961H206.8V16.9996H216.7V13.7997H210.6V1.59961ZM221.8 11.1996L221.5 14.0996H229.7L229.4 11.1996H221.8ZM223.4 12.1996L225.6 7.29968L227.8 12.2997L227.6 13.1996L229.5 16.9996H233.7L225.6 0.699646L217.5 16.9996H221.7L223.6 13.0996L223.4 12.1996ZM243 9.99963H239.1L243.5 16.8997H247.8L243 9.99963ZM239 1.59961H235.3V16.9996H239V1.59961ZM237.6 1.59961V4.79962H240.7C241.167 4.79962 241.567 4.8663 241.9 4.99963C242.3 5.13297 242.6 5.36625 242.8 5.69958C243 5.96625 243.1 6.33302 243.1 6.79968C243.1 7.19968 243 7.56632 242.8 7.89966C242.6 8.16633 242.3 8.39961 241.9 8.59961C241.567 8.73294 241.167 8.79968 240.7 8.79968H237.6V11.6996H240.9C242.234 11.6996 243.333 11.4663 244.2 10.9996C245.067 10.5996 245.733 10.033 246.2 9.29968C246.667 8.49968 246.9 7.59961 246.9 6.59961C246.9 5.66628 246.667 4.79963 246.2 3.99963C245.733 3.2663 245.067 2.66631 244.2 2.19965C243.333 1.79965 242.234 1.59961 240.9 1.59961H237.6ZM253.3 1.59961H249.5V16.9996H253.3V1.59961Z" fill="#005FFD"/>
</svg>
