<svg width="75" height="13" viewBox="0 0 75 13" fill="none" xmlns="http://www.w3.org/2000/svg">
<path d="M2.10022 1.29932V10.8992H7.10022V11.9993H0.700195V1.29932H2.10022ZM10.0002 4.09937V11.9993H8.60022V4.09937H10.0002ZM8.60022 1.99927C8.60022 1.7326 8.66696 1.5325 8.80029 1.39917C8.93363 1.26584 9.1336 1.19922 9.40027 1.19922C9.66693 1.19922 9.86691 1.26584 10.0002 1.39917C10.1336 1.5325 10.2002 1.7326 10.2002 1.99927C10.2002 2.19927 10.1336 2.36593 10.0002 2.49927C9.86691 2.6326 9.66693 2.69922 9.40027 2.69922C9.1336 2.69922 8.93363 2.6326 8.80029 2.49927C8.66696 2.36593 8.60022 2.19927 8.60022 1.99927ZM13.7002 0.699219V11.9993H12.3003V0.699219H13.7002ZM17.4003 0.699219V11.9993H16.0002V0.699219H17.4003ZM21.0002 4.09937V11.9993H19.7002V4.09937H21.0002ZM19.5002 1.99927C19.5002 1.7326 19.5669 1.5325 19.7002 1.39917C19.8335 1.26584 20.0336 1.19922 20.3003 1.19922C20.567 1.19922 20.7669 1.26584 20.9003 1.39917C21.0336 1.5325 21.1002 1.7326 21.1002 1.99927C21.1002 2.19927 21.0336 2.36593 20.9003 2.49927C20.7669 2.6326 20.567 2.69922 20.3003 2.69922C20.0336 2.69922 19.8335 2.6326 19.7002 2.49927C19.5669 2.36593 19.5002 2.19927 19.5002 1.99927ZM29.5002 11.9993H28.0002C27.9336 11.8659 27.9003 11.5992 27.9003 11.1992C27.2336 11.7992 26.4669 12.0994 25.6002 12.0994C24.8002 12.0994 24.1669 11.8993 23.7002 11.4993C23.1669 11.0326 22.9003 10.466 22.9003 9.79932C22.9003 8.99932 23.2336 8.36584 23.9003 7.89917C24.5003 7.4325 25.3669 7.19922 26.5002 7.19922H27.8003V6.59937C27.8003 6.1327 27.6669 5.7325 27.4003 5.39917C27.1336 5.1325 26.7335 4.99927 26.2002 4.99927C25.6669 4.99927 25.2336 5.1325 24.9003 5.39917C24.5669 5.66584 24.4003 5.96598 24.4003 6.29932H23.1002C23.1002 5.89932 23.2336 5.49937 23.5002 5.09937C23.7669 4.76603 24.1336 4.49932 24.6002 4.29932C25.1336 4.03265 25.6669 3.89917 26.2002 3.89917C27.1335 3.89917 27.8669 4.1327 28.4003 4.59937C28.9336 5.06603 29.2002 5.69927 29.2002 6.49927V10.0994C29.2002 10.8327 29.3002 11.4325 29.5002 11.8992V11.9993ZM25.8003 10.9993C26.2003 10.9993 26.6002 10.866 27.0002 10.5994C27.4002 10.3994 27.667 10.1326 27.8003 9.79932V8.09937H26.8003C25.1336 8.09937 24.3003 8.59937 24.3003 9.59937C24.3003 9.99936 24.4335 10.3327 24.7002 10.5994C24.9669 10.866 25.3336 10.9993 25.8003 10.9993ZM31.3003 4.09937H32.6002V5.09937C33.2002 4.29937 34.0002 3.89917 35.0002 3.89917C36.6669 3.89917 37.5002 4.83255 37.5002 6.69922V11.9993H36.2002V6.69922C36.2002 6.16589 36.067 5.76593 35.8003 5.49927C35.5336 5.2326 35.1336 5.09937 34.6002 5.09937C34.1336 5.09937 33.7336 5.19917 33.4003 5.39917C33.0669 5.66584 32.8335 5.96598 32.7002 6.29932V11.9993H31.3003V4.09937ZM44.1002 1.29932L45.8003 8.59937L46.0002 10.0994L46.3003 8.79932L48.4003 1.29932H49.6002L51.7002 8.79932L52.0002 10.0994L52.2002 8.59937L53.8003 1.29932H55.3003L52.7002 11.9993H51.4003L49.2002 4.19922L49.0002 3.39917L48.9003 4.19922L46.6002 11.9993H45.3003L42.7002 1.29932H44.1002ZM62.7002 11.9993H61.3003C61.167 11.8659 61.1002 11.5992 61.1002 11.1992C60.4336 11.8659 59.667 12.1992 58.8003 12.1992C58.0003 12.1992 57.3669 11.9659 56.9003 11.4993C56.3669 11.0326 56.1002 10.466 56.1002 9.79932C56.1002 8.99932 56.4336 8.36584 57.1002 7.89917C57.7002 7.4325 58.5669 7.19922 59.7002 7.19922H61.0002V6.59937C61.0002 6.1327 60.8669 5.76593 60.6002 5.49927C60.3336 5.16593 59.9336 4.99927 59.4003 4.99927C58.8669 4.99927 58.4336 5.1325 58.1002 5.39917C57.8336 5.66584 57.7002 5.96598 57.7002 6.29932H56.3003C56.3003 5.89932 56.4335 5.49937 56.7002 5.09937C56.9669 4.76603 57.3669 4.49932 57.9003 4.29932C58.3669 4.03265 58.8669 3.89917 59.4003 3.89917C60.3336 3.89917 61.0669 4.1327 61.6002 4.59937C62.1336 5.06603 62.4003 5.69927 62.4003 6.49927V10.1992C62.4003 10.8659 62.5002 11.4325 62.7002 11.8992V11.9993ZM59.0002 10.9993C59.4002 10.9993 59.8002 10.866 60.2002 10.5994C60.6002 10.3994 60.8669 10.1326 61.0002 9.79932V8.09937H60.0002C58.3336 8.09937 57.5002 8.59937 57.5002 9.59937C57.5002 9.99936 57.6336 10.3327 57.9003 10.5994C58.1669 10.866 58.5336 10.9993 59.0002 10.9993ZM66.0002 0.699219V11.9993H64.6002V0.699219H66.0002ZM72.8003 9.89917C72.8003 9.49917 72.6669 9.19927 72.4003 8.99927C72.1336 8.79927 71.6669 8.6326 71.0002 8.49927C70.2669 8.36593 69.7003 8.19927 69.3003 7.99927C68.9003 7.79927 68.6003 7.56598 68.4003 7.29932C68.2003 6.96598 68.1002 6.59922 68.1002 6.19922C68.1002 5.59922 68.4002 5.06603 69.0002 4.59937C69.5336 4.1327 70.2336 3.89917 71.1002 3.89917C71.9669 3.89917 72.7003 4.1327 73.3003 4.59937C73.8336 5.06603 74.1002 5.66584 74.1002 6.39917H72.7002C72.7002 5.99917 72.567 5.66584 72.3003 5.39917C71.967 5.1325 71.5669 4.99927 71.1002 4.99927C70.5669 4.99927 70.1669 5.1325 69.9003 5.39917C69.6336 5.59917 69.5002 5.86589 69.5002 6.19922C69.5002 6.53255 69.6336 6.76584 69.9003 6.89917C70.1669 7.09917 70.6336 7.26584 71.3003 7.39917C71.967 7.5325 72.5003 7.7326 72.9003 7.99927C73.3669 8.19927 73.7003 8.43255 73.9003 8.69922C74.1003 9.03255 74.2002 9.39932 74.2002 9.79932C74.2002 10.5326 73.9003 11.0993 73.3003 11.4993C72.767 11.8993 72.0336 12.0994 71.1002 12.0994C70.5002 12.0994 69.9336 11.9993 69.4003 11.7993C68.9336 11.5993 68.567 11.2992 68.3003 10.8992C68.0336 10.4992 67.9003 10.066 67.9003 9.59937H69.2002C69.2669 9.99936 69.467 10.3327 69.8003 10.5994C70.1336 10.866 70.5669 10.9993 71.1002 10.9993C71.6336 10.9993 72.0669 10.8992 72.4003 10.6992C72.6669 10.4992 72.8003 10.2325 72.8003 9.89917Z" fill="#777777"/>
</svg>
