<svg width="75" height="13" viewBox="0 0 75 13" fill="none" xmlns="http://www.w3.org/2000/svg">
<path d="M2.10016 1.29932V10.8992H7.10016V11.9993H0.700195V1.29932H2.10016ZM10.0002 4.09937V11.9993H8.60016V4.09937H10.0002ZM8.60016 1.99927C8.60016 1.7326 8.66684 1.5325 8.80017 1.39917C8.9335 1.26584 9.13354 1.19922 9.40021 1.19922C9.66687 1.19922 9.86685 1.26584 10.0002 1.39917C10.1335 1.5325 10.2002 1.7326 10.2002 1.99927C10.2002 2.19927 10.1335 2.36593 10.0002 2.49927C9.86685 2.6326 9.66687 2.69922 9.40021 2.69922C9.13354 2.69922 8.9335 2.6326 8.80017 2.49927C8.66684 2.36593 8.60016 2.19927 8.60016 1.99927ZM13.7002 0.699219V11.9993H12.3002V0.699219H13.7002ZM17.4002 0.699219V11.9993H16.0002V0.699219H17.4002ZM21.0002 4.09937V11.9993H19.7002V4.09937H21.0002ZM19.5002 1.99927C19.5002 1.7326 19.5669 1.5325 19.7002 1.39917C19.8335 1.26584 20.0335 1.19922 20.3002 1.19922C20.5668 1.19922 20.7669 1.26584 20.9002 1.39917C21.0335 1.5325 21.1002 1.7326 21.1002 1.99927C21.1002 2.19927 21.0335 2.36593 20.9002 2.49927C20.7669 2.6326 20.5668 2.69922 20.3002 2.69922C20.0335 2.69922 19.8335 2.6326 19.7002 2.49927C19.5669 2.36593 19.5002 2.19927 19.5002 1.99927ZM29.5002 11.9993H28.0002C27.9335 11.8659 27.9002 11.5992 27.9002 11.1992C27.2335 11.7992 26.4668 12.0994 25.6002 12.0994C24.8002 12.0994 24.1669 11.8993 23.7002 11.4993C23.1669 11.0326 22.9002 10.466 22.9002 9.79932C22.9002 8.99932 23.2335 8.36584 23.9002 7.89917C24.5002 7.4325 25.3668 7.19922 26.5002 7.19922H27.8002V6.59937C27.8002 6.1327 27.6669 5.7325 27.4002 5.39917C27.1335 5.1325 26.7335 4.99927 26.2002 4.99927C25.6669 4.99927 25.2335 5.1325 24.9002 5.39917C24.5669 5.66584 24.4002 5.96598 24.4002 6.29932H23.1002C23.1002 5.89932 23.2335 5.49937 23.5002 5.09937C23.7668 4.76603 24.1335 4.49932 24.6002 4.29932C25.1335 4.03265 25.6669 3.89917 26.2002 3.89917C27.1335 3.89917 27.8669 4.1327 28.4002 4.59937C28.9335 5.06603 29.2002 5.69927 29.2002 6.49927V10.0994C29.2002 10.8327 29.3002 11.4325 29.5002 11.8992V11.9993ZM25.8002 10.9993C26.2002 10.9993 26.6002 10.866 27.0002 10.5994C27.4002 10.3994 27.6668 10.1326 27.8002 9.79932V8.09937H26.8002C25.1335 8.09937 24.3002 8.59937 24.3002 9.59937C24.3002 9.99936 24.4335 10.3327 24.7002 10.5994C24.9669 10.866 25.3335 10.9993 25.8002 10.9993ZM31.3002 4.09937H32.6002V5.09937C33.2002 4.29937 34.0002 3.89917 35.0002 3.89917C36.6669 3.89917 37.5002 4.83255 37.5002 6.69922V11.9993H36.2002V6.69922C36.2002 6.16589 36.0668 5.76593 35.8002 5.49927C35.5335 5.2326 35.1335 5.09937 34.6002 5.09937C34.1335 5.09937 33.7335 5.19917 33.4002 5.39917C33.0669 5.66584 32.8335 5.96598 32.7002 6.29932V11.9993H31.3002V4.09937ZM44.1002 1.29932L45.8002 8.59937L46.0002 10.0994L46.3002 8.79932L48.4002 1.29932H49.6002L51.7002 8.79932L52.0002 10.0994L52.2002 8.59937L53.8002 1.29932H55.3002L52.7002 11.9993H51.4002L49.2002 4.19922L49.0002 3.39917L48.9002 4.19922L46.6002 11.9993H45.3002L42.7002 1.29932H44.1002ZM62.7002 11.9993H61.3002C61.1668 11.8659 61.1002 11.5992 61.1002 11.1992C60.4335 11.8659 59.6668 12.1992 58.8002 12.1992C58.0002 12.1992 57.3669 11.9659 56.9002 11.4993C56.3669 11.0326 56.1002 10.466 56.1002 9.79932C56.1002 8.99932 56.4335 8.36584 57.1002 7.89917C57.7002 7.4325 58.5669 7.19922 59.7002 7.19922H61.0002V6.59937C61.0002 6.1327 60.8668 5.76593 60.6002 5.49927C60.3335 5.16593 59.9335 4.99927 59.4002 4.99927C58.8669 4.99927 58.4335 5.1325 58.1002 5.39917C57.8335 5.66584 57.7002 5.96598 57.7002 6.29932H56.3002C56.3002 5.89932 56.4335 5.49937 56.7002 5.09937C56.9669 4.76603 57.3669 4.49932 57.9002 4.29932C58.3669 4.03265 58.8669 3.89917 59.4002 3.89917C60.3335 3.89917 61.0668 4.1327 61.6002 4.59937C62.1335 5.06603 62.4002 5.69927 62.4002 6.49927V10.1992C62.4002 10.8659 62.5002 11.4325 62.7002 11.8992V11.9993ZM59.0002 10.9993C59.4002 10.9993 59.8002 10.866 60.2002 10.5994C60.6002 10.3994 60.8668 10.1326 61.0002 9.79932V8.09937H60.0002C58.3335 8.09937 57.5002 8.59937 57.5002 9.59937C57.5002 9.99936 57.6335 10.3327 57.9002 10.5994C58.1669 10.866 58.5335 10.9993 59.0002 10.9993ZM66.0002 0.699219V11.9993H64.6002V0.699219H66.0002ZM72.8002 9.89917C72.8002 9.49917 72.6669 9.19927 72.4002 8.99927C72.1335 8.79927 71.6668 8.6326 71.0002 8.49927C70.2669 8.36593 69.7002 8.19927 69.3002 7.99927C68.9002 7.79927 68.6002 7.56598 68.4002 7.29932C68.2002 6.96598 68.1002 6.59922 68.1002 6.19922C68.1002 5.59922 68.4002 5.06603 69.0002 4.59937C69.5335 4.1327 70.2335 3.89917 71.1002 3.89917C71.9668 3.89917 72.7002 4.1327 73.3002 4.59937C73.8335 5.06603 74.1002 5.66584 74.1002 6.39917H72.7002C72.7002 5.99917 72.5668 5.66584 72.3002 5.39917C71.9668 5.1325 71.5668 4.99927 71.1002 4.99927C70.5668 4.99927 70.1669 5.1325 69.9002 5.39917C69.6335 5.59917 69.5002 5.86589 69.5002 6.19922C69.5002 6.53255 69.6335 6.76584 69.9002 6.89917C70.1669 7.09917 70.6335 7.26584 71.3002 7.39917C71.9668 7.5325 72.5002 7.7326 72.9002 7.99927C73.3669 8.19927 73.7002 8.43255 73.9002 8.69922C74.1002 9.03255 74.2002 9.39932 74.2002 9.79932C74.2002 10.5326 73.9002 11.0993 73.3002 11.4993C72.7668 11.8993 72.0335 12.0994 71.1002 12.0994C70.5002 12.0994 69.9335 11.9993 69.4002 11.7993C68.9335 11.5993 68.5668 11.2992 68.3002 10.8992C68.0335 10.4992 67.9002 10.066 67.9002 9.59937H69.2002C69.2669 9.99936 69.4668 10.3327 69.8002 10.5994C70.1335 10.866 70.5668 10.9993 71.1002 10.9993C71.6335 10.9993 72.0669 10.8992 72.4002 10.6992C72.6669 10.4992 72.8002 10.2325 72.8002 9.89917Z" fill="#777777"/>
</svg>
