<svg width="746" height="112" viewBox="0 0 746 112" fill="none" xmlns="http://www.w3.org/2000/svg">
<path d="M11.2004 39L13.2004 22.9004L22.2004 35.7998L31.2004 22.9004L33.2004 39H43.5004L37.4004 2.2002L22.2004 22.4004L7.0004 2.2002L0.900391 39H11.2004ZM54.9004 31.7998C54.9004 31.2665 55.0004 30.8663 55.2004 30.5996C55.4004 30.2663 55.7337 30.0337 56.2004 29.9004C56.6671 29.7004 57.2671 29.5996 58.0004 29.5996C59.1337 29.5996 60.2004 29.7333 61.2004 30C62.2004 30.3333 63.0337 30.8004 63.7004 31.4004V27.7002C63.2337 27.2335 62.5671 26.8333 61.7004 26.5C60.9004 26.1 59.9337 25.7667 58.8004 25.5C57.667 25.2333 56.4671 25.0996 55.2004 25.0996C52.2671 25.0996 50.0337 25.7333 48.5004 27C46.9671 28.3333 46.2004 30.0998 46.2004 32.2998C46.2004 33.8331 46.5671 35.1665 47.3004 36.2998C48.1004 37.3665 49.1004 38.1669 50.3004 38.7002C51.5671 39.2335 52.9337 39.5 54.4004 39.5C55.9337 39.5 57.3337 39.2335 58.6004 38.7002C59.9337 38.1669 60.9671 37.4004 61.7004 36.4004C62.4337 35.3337 62.8004 34.0663 62.8004 32.5996L62.0004 29.5996C62.0004 30.5996 61.8004 31.4669 61.4004 32.2002C61.0004 32.8669 60.4671 33.3669 59.8004 33.7002C59.1337 33.9669 58.4337 34.0996 57.7004 34.0996C57.1671 34.0996 56.7004 34.0337 56.3004 33.9004C55.8337 33.7004 55.4671 33.4329 55.2004 33.0996C55.0004 32.6996 54.9004 32.2665 54.9004 31.7998ZM47.9004 17.9004L50.7004 23.5C50.9671 23.3667 51.5004 23.1671 52.3004 22.9004C53.0337 22.5671 53.9004 22.2667 54.9004 22C55.9671 21.8 56.9671 21.7002 57.9004 21.7002C58.6337 21.7002 59.2671 21.8 59.8004 22C60.3337 22.0667 60.7671 22.2663 61.1004 22.5996C61.4337 22.8663 61.667 23.1996 61.8004 23.5996C61.9337 23.9996 62.0004 24.4667 62.0004 25V39H70.3004V22.9004C70.3004 21.3004 69.8004 19.9331 68.8004 18.7998C67.8004 17.5998 66.467 16.7335 64.8004 16.2002C63.1337 15.6002 61.2337 15.2998 59.1004 15.2998C56.9671 15.2998 54.9337 15.5663 53.0004 16.0996C51.0671 16.6996 49.3671 17.3004 47.9004 17.9004ZM84.1004 39V16H75.6004V39H84.1004ZM90.7004 24.9004L94.3004 17.4004C93.9004 16.8004 93.3337 16.3333 92.6004 16C91.8004 15.6 91.0004 15.4004 90.2004 15.4004C88.8671 15.4004 87.5671 15.8335 86.3004 16.7002C85.1004 17.5669 84.1338 18.6996 83.4004 20.0996C82.6671 21.5663 82.3004 23.2 82.3004 25L84.1004 28.5C84.1004 27.3667 84.267 26.4335 84.6004 25.7002C84.9337 24.9669 85.3671 24.4 85.9004 24C86.5004 23.6667 87.1337 23.5 87.8004 23.5C88.467 23.5 89.0004 23.6337 89.4004 23.9004C89.8671 24.1004 90.3004 24.4337 90.7004 24.9004ZM95.3004 27.5C95.3004 29.9 95.9004 32.0337 97.1004 33.9004C98.2337 35.6337 99.8338 37 101.9 38C103.967 39 106.267 39.5 108.8 39.5C111.4 39.5 113.734 39 115.8 38C117.8 37 119.4 35.6337 120.6 33.9004C121.8 32.0337 122.4 29.9 122.4 27.5C122.4 25.0333 121.8 22.8996 120.6 21.0996C119.4 19.2996 117.8 17.9333 115.8 17C113.734 16 111.4 15.5 108.8 15.5C106.267 15.5 103.967 16 101.9 17C99.8338 17.9333 98.2337 19.2996 97.1004 21.0996C95.9004 22.8996 95.3004 25.0333 95.3004 27.5ZM104.2 27.5C104.2 26.4333 104.4 25.5331 104.8 24.7998C105.267 23.9998 105.834 23.4 106.5 23C107.234 22.6667 108 22.5 108.8 22.5C109.667 22.5 110.434 22.6667 111.1 23C111.834 23.4 112.4 23.9998 112.8 24.7998C113.267 25.5331 113.5 26.4333 113.5 27.5C113.5 28.5667 113.267 29.4669 112.8 30.2002C112.4 31.0002 111.834 31.6 111.1 32C110.434 32.3333 109.667 32.5 108.8 32.5C108 32.5 107.234 32.3333 106.5 32C105.834 31.6 105.267 31.0002 104.8 30.2002C104.4 29.4669 104.2 28.5667 104.2 27.5ZM144.1 16V50H152.7V16H144.1ZM125.5 27.5C125.5 30.2333 126 32.5337 127 34.4004C128.067 36.2004 129.434 37.5667 131.1 38.5C132.767 39.4333 134.5 39.9004 136.3 39.9004C138.367 39.9004 140.1 39.4004 141.5 38.4004C142.967 37.3337 144.067 35.8667 144.8 34C145.534 32.1333 145.9 29.9667 145.9 27.5C145.9 24.9667 145.534 22.8 144.8 21C144.067 19.1333 142.967 17.6663 141.5 16.5996C140.1 15.5996 138.367 15.0996 136.3 15.0996C134.5 15.0996 132.767 15.5667 131.1 16.5C129.434 17.4333 128.067 18.7996 127 20.5996C126 22.4663 125.5 24.7667 125.5 27.5ZM134.6 27.5C134.6 26.5 134.8 25.6337 135.2 24.9004C135.667 24.1671 136.267 23.6331 137 23.2998C137.734 22.8998 138.534 22.7002 139.4 22.7002C140.134 22.7002 140.867 22.8998 141.6 23.2998C142.334 23.6331 142.934 24.1331 143.4 24.7998C143.867 25.5331 144.1 26.4333 144.1 27.5C144.1 28.5667 143.867 29.4669 143.4 30.2002C142.934 30.9335 142.334 31.4665 141.6 31.7998C140.867 32.1331 140.134 32.2998 139.4 32.2998C138.534 32.2998 137.734 32.1331 137 31.7998C136.267 31.3998 135.667 30.8329 135.2 30.0996C134.8 29.3663 134.6 28.5 134.6 27.5ZM181.8 39V0H173.2V39H181.8ZM200.4 27.5C200.4 24.8333 199.867 22.6337 198.8 20.9004C197.8 19.1671 196.467 17.8337 194.8 16.9004C193.2 15.9671 191.467 15.5 189.6 15.5C187.734 15.5 186.034 16 184.5 17C182.967 17.9333 181.767 19.2996 180.9 21.0996C180.034 22.8996 179.6 25.0333 179.6 27.5C179.6 29.9667 180.034 32.1004 180.9 33.9004C181.767 35.7004 182.967 37.0667 184.5 38C186.034 39 187.734 39.5 189.6 39.5C191.467 39.5 193.2 39.0329 194.8 38.0996C196.467 37.1663 197.8 35.8329 198.8 34.0996C199.867 32.2996 200.4 30.1 200.4 27.5ZM191.3 27.5C191.3 28.5 191.1 29.4002 190.7 30.2002C190.234 31.0002 189.634 31.6 188.9 32C188.167 32.4667 187.367 32.7002 186.5 32.7002C185.7 32.7002 184.934 32.4996 184.2 32.0996C183.534 31.6996 182.967 31.0998 182.5 30.2998C182.034 29.4998 181.8 28.5667 181.8 27.5C181.8 26.4333 182.034 25.5002 182.5 24.7002C182.967 23.9002 183.534 23.3333 184.2 23C184.934 22.5333 185.7 22.2998 186.5 22.2998C187.367 22.2998 188.167 22.5333 188.9 23C189.634 23.4 190.234 23.9998 190.7 24.7998C191.1 25.5998 191.3 26.5 191.3 27.5ZM204.1 7.59961C204.1 8.93294 204.567 10.0337 205.5 10.9004C206.5 11.7004 207.667 12.0996 209 12.0996C210.334 12.0996 211.467 11.7004 212.4 10.9004C213.4 10.0337 213.9 8.93294 213.9 7.59961C213.9 6.26628 213.4 5.20039 212.4 4.40039C211.467 3.53372 210.334 3.09961 209 3.09961C207.667 3.09961 206.5 3.53372 205.5 4.40039C204.567 5.20039 204.1 6.26628 204.1 7.59961ZM213.1 16H204.8V39H213.1V16ZM227.4 0H218.8V39H227.4V0ZM239.9 31.7998C239.9 31.2665 240 30.8663 240.2 30.5996C240.4 30.2663 240.734 30.0337 241.2 29.9004C241.667 29.7004 242.3 29.5996 243.1 29.5996C244.167 29.5996 245.2 29.7333 246.2 30C247.2 30.3333 248.034 30.8004 248.7 31.4004V27.7002C248.3 27.2335 247.667 26.8333 246.8 26.5C245.934 26.1 244.934 25.7667 243.8 25.5C242.734 25.2333 241.567 25.0996 240.3 25.0996C237.367 25.0996 235.1 25.7333 233.5 27C231.967 28.3333 231.2 30.0669 231.2 32.2002C231.2 33.8002 231.6 35.1335 232.4 36.2002C233.134 37.3335 234.134 38.1669 235.4 38.7002C236.667 39.2335 238.034 39.5 239.5 39.5C241.034 39.5 242.434 39.2335 243.7 38.7002C244.967 38.1669 245.967 37.4004 246.7 36.4004C247.5 35.3337 247.9 34.0663 247.9 32.5996L247.1 29.5996C247.1 30.5996 246.867 31.4669 246.4 32.2002C246 32.8669 245.467 33.3669 244.8 33.7002C244.134 33.9669 243.434 34.0996 242.7 34.0996C242.234 34.0996 241.767 34.0337 241.3 33.9004C240.9 33.7004 240.567 33.4329 240.3 33.0996C240.034 32.6996 239.9 32.2665 239.9 31.7998ZM233 17.9004L235.7 23.5C236.034 23.3667 236.567 23.1671 237.3 22.9004C238.1 22.5671 239 22.2667 240 22C241 21.8 242 21.7002 243 21.7002C243.667 21.7002 244.267 21.8 244.8 22C245.334 22.0667 245.767 22.2663 246.1 22.5996C246.434 22.8663 246.667 23.1996 246.8 23.5996C247 23.9996 247.1 24.4667 247.1 25V39H255.3V22.9004C255.3 21.3004 254.8 19.9002 253.8 18.7002C252.867 17.5669 251.534 16.7335 249.8 16.2002C248.134 15.6002 246.267 15.2998 244.2 15.2998C242 15.2998 239.934 15.5663 238 16.0996C236.134 16.6996 234.467 17.3004 233 17.9004ZM275.6 25V39H284.7V24.0996C284.7 21.3663 284.067 19.2335 282.8 17.7002C281.534 16.2335 279.4 15.5 276.4 15.5C274.6 15.5 273.134 15.8333 272 16.5C270.867 17.2333 269.967 18.2004 269.3 19.4004V16H260.7V39H269.3V25C269.3 24.1333 269.434 23.4337 269.7 22.9004C270.034 22.3004 270.434 21.8663 270.9 21.5996C271.434 21.3329 272.034 21.2002 272.7 21.2002C273.834 21.2002 274.6 21.5335 275 22.2002C275.4 22.8669 275.6 23.8 275.6 25ZM314.3 21.5C314.3 19.5667 314.667 17.9 315.4 16.5C316.134 15.1 317.167 13.9663 318.5 13.0996C319.834 12.2996 321.4 11.9004 323.2 11.9004C325.067 11.9004 326.667 12.2996 328 13.0996C329.334 13.9663 330.334 15.1 331 16.5C331.734 17.9 332.1 19.5667 332.1 21.5C332.1 23.3667 331.734 25.0333 331 26.5C330.267 27.9 329.234 29.0337 327.9 29.9004C326.567 30.7004 325 31.0996 323.2 31.0996C321.4 31.0996 319.834 30.7004 318.5 29.9004C317.167 29.0337 316.134 27.9 315.4 26.5C314.667 25.0333 314.3 23.3667 314.3 21.5ZM304 21.5C304 24.2333 304.467 26.7333 305.4 29C306.334 31.3333 307.667 33.3333 309.4 35C311.134 36.6667 313.167 38 315.5 39C317.834 39.8667 320.4 40.2998 323.2 40.2998C326 40.2998 328.567 39.8667 330.9 39C333.234 38 335.267 36.6667 337 35C338.667 33.3333 339.967 31.3333 340.9 29C341.834 26.7333 342.3 24.2333 342.3 21.5C342.3 18.7667 341.834 16.2667 340.9 14C339.967 11.7333 338.634 9.8002 336.9 8.2002C335.167 6.53353 333.134 5.3 330.8 4.5C328.467 3.56667 325.934 3.09961 323.2 3.09961C320.467 3.09961 317.934 3.56667 315.6 4.5C313.334 5.3 311.334 6.53353 309.6 8.2002C307.867 9.8002 306.5 11.7333 305.5 14C304.5 16.2667 304 18.7667 304 21.5ZM361.6 25V39H370.7V24.0996C370.7 21.3663 370.067 19.2665 368.8 17.7998C367.534 16.2665 365.4 15.5 362.4 15.5C360.6 15.5 359.134 15.8333 358 16.5C356.867 17.2333 355.967 18.2004 355.3 19.4004V16H346.7V39H355.3V25C355.3 24.1333 355.434 23.4337 355.7 22.9004C356.034 22.3004 356.434 21.8663 356.9 21.5996C357.434 21.3329 358.034 21.2002 358.7 21.2002C359.834 21.2002 360.6 21.5335 361 22.2002C361.4 22.8669 361.6 23.8 361.6 25ZM384.8 0H376.2V39H384.8V0ZM397.3 31.7998C397.3 31.2665 397.4 30.8663 397.6 30.5996C397.8 30.2663 398.134 30.0337 398.6 29.9004C399.067 29.7004 399.7 29.5996 400.5 29.5996C401.567 29.5996 402.6 29.7333 403.6 30C404.6 30.3333 405.434 30.8004 406.1 31.4004V27.7002C405.7 27.2335 405.067 26.8333 404.2 26.5C403.334 26.1 402.334 25.7667 401.2 25.5C400.134 25.2333 398.967 25.0996 397.7 25.0996C394.767 25.0996 392.5 25.7333 390.9 27C389.367 28.3333 388.6 30.0998 388.6 32.2998C388.6 33.8331 389 35.1335 389.8 36.2002C390.534 37.3335 391.534 38.1669 392.8 38.7002C394.067 39.2335 395.434 39.5 396.9 39.5C398.434 39.5 399.834 39.2335 401.1 38.7002C402.367 38.1669 403.367 37.4004 404.1 36.4004C404.9 35.3337 405.3 34.0663 405.3 32.5996L404.5 29.5996C404.5 30.5996 404.267 31.4669 403.8 32.2002C403.4 32.8669 402.867 33.3669 402.2 33.7002C401.534 33.9669 400.834 34.0996 400.1 34.0996C399.634 34.0996 399.167 34.0337 398.7 33.9004C398.3 33.7004 397.967 33.4329 397.7 33.0996C397.434 32.6996 397.3 32.2665 397.3 31.7998ZM390.4 17.9004L393.1 23.5C393.434 23.3667 393.967 23.1671 394.7 22.9004C395.5 22.5671 396.4 22.2667 397.4 22C398.4 21.8 399.4 21.7002 400.4 21.7002C401.067 21.7002 401.667 21.8 402.2 22C402.734 22.0667 403.167 22.2663 403.5 22.5996C403.834 22.8663 404.067 23.1996 404.2 23.5996C404.4 23.9996 404.5 24.4667 404.5 25V39H412.7V22.9004C412.7 21.3004 412.2 19.9331 411.2 18.7998C410.267 17.5998 408.934 16.7335 407.2 16.2002C405.534 15.6002 403.667 15.2998 401.6 15.2998C399.4 15.2998 397.334 15.5663 395.4 16.0996C393.534 16.6996 391.867 17.3004 390.4 17.9004ZM427.9 50L442.9 16H434.2L426.8 34.5L431.3 34.5996L423.9 16H414.5L424.8 37.5L419.4 50H427.9ZM460 25V39H469V24.0996C469 21.3663 468.367 19.2665 467.1 17.7998C465.834 16.2665 463.7 15.5 460.7 15.5C458.967 15.5 457.5 15.8333 456.3 16.5C455.167 17.2333 454.3 18.2004 453.7 19.4004V16H445V39H453.7V25C453.7 24.2 453.834 23.5004 454.1 22.9004C454.367 22.3004 454.767 21.8663 455.3 21.5996C455.834 21.3996 456.434 21.2998 457.1 21.2998C458.234 21.2998 459 21.6331 459.4 22.2998C459.8 22.8998 460 23.8 460 25ZM488.3 27.5C488.3 29.9 488.9 32.0337 490.1 33.9004C491.234 35.6337 492.834 37 494.9 38C496.967 39 499.267 39.5 501.8 39.5C504.4 39.5 506.734 39 508.8 38C510.8 37 512.4 35.6337 513.6 33.9004C514.8 32.0337 515.4 29.9 515.4 27.5C515.4 25.0333 514.8 22.8996 513.6 21.0996C512.4 19.2996 510.8 17.9333 508.8 17C506.734 16 504.4 15.5 501.8 15.5C499.267 15.5 496.967 16 494.9 17C492.834 17.9333 491.234 19.2996 490.1 21.0996C488.9 22.8996 488.3 25.0333 488.3 27.5ZM497.2 27.5C497.2 26.4333 497.4 25.5331 497.8 24.7998C498.267 23.9998 498.834 23.4 499.5 23C500.234 22.6667 501 22.5 501.8 22.5C502.667 22.5 503.434 22.6667 504.1 23C504.834 23.4 505.4 23.9998 505.8 24.7998C506.267 25.5331 506.5 26.4333 506.5 27.5C506.5 28.5667 506.267 29.4998 505.8 30.2998C505.4 31.0331 504.834 31.6 504.1 32C503.434 32.3333 502.667 32.5 501.8 32.5C501 32.5 500.234 32.3333 499.5 32C498.834 31.6 498.267 31.0331 497.8 30.2998C497.4 29.4998 497.2 28.5667 497.2 27.5ZM529.2 4H520.3L518.2 20.2002H523.7L529.2 4ZM539.7 39V16H531.3V39H539.7ZM546.2 24.9004L549.8 17.4004C549.467 16.8671 548.9 16.4 548.1 16C547.367 15.6 546.567 15.4004 545.7 15.4004C544.367 15.4004 543.1 15.8335 541.9 16.7002C540.7 17.5669 539.734 18.6996 539 20.0996C538.267 21.5663 537.9 23.2 537.9 25L539.7 28.5C539.7 27.3667 539.834 26.4335 540.1 25.7002C540.434 24.9669 540.9 24.4329 541.5 24.0996C542.034 23.6996 542.634 23.5 543.3 23.5C543.967 23.5 544.534 23.6337 545 23.9004C545.467 24.1671 545.867 24.5004 546.2 24.9004ZM559.7 40.7002H551.4C551.6 42.7669 552.167 44.6002 553.1 46.2002C554.034 47.7335 555.434 48.9331 557.3 49.7998C559.167 50.6665 561.634 51.0996 564.7 51.0996C567.167 51.0996 569.367 50.7004 571.3 49.9004C573.3 49.0337 574.867 47.7004 576 45.9004C577.2 44.0337 577.8 41.5667 577.8 38.5V16H569.5V38.5C569.5 39.7667 569.267 40.8335 568.8 41.7002C568.4 42.5669 567.8 43.2335 567 43.7002C566.2 44.1669 565.3 44.4004 564.3 44.4004C563.5 44.4004 562.767 44.2667 562.1 44C561.434 43.8 560.9 43.4337 560.5 42.9004C560.1 42.3671 559.834 41.6335 559.7 40.7002ZM550.9 27.0996C550.9 29.6996 551.4 31.8663 552.4 33.5996C553.467 35.3329 554.834 36.6333 556.5 37.5C558.167 38.3 559.9 38.7002 561.7 38.7002C563.634 38.7002 565.334 38.2671 566.8 37.4004C568.334 36.4671 569.534 35.1337 570.4 33.4004C571.267 31.6671 571.7 29.5663 571.7 27.0996C571.7 24.6329 571.267 22.5331 570.4 20.7998C569.534 19.0665 568.334 17.7671 566.8 16.9004C565.334 15.9671 563.634 15.5 561.7 15.5C559.9 15.5 558.167 15.9331 556.5 16.7998C554.834 17.6665 553.467 18.9329 552.4 20.5996C551.4 22.3329 550.9 24.4996 550.9 27.0996ZM560 27.0996C560 26.0996 560.2 25.2333 560.6 24.5C561.067 23.7667 561.667 23.2337 562.4 22.9004C563.134 22.5004 563.934 22.2998 564.8 22.2998C565.334 22.2998 565.9 22.3996 566.5 22.5996C567.034 22.7996 567.534 23.1 568 23.5C568.467 23.9 568.834 24.4 569.1 25C569.367 25.6 569.5 26.2996 569.5 27.0996C569.5 28.2329 569.267 29.1331 568.8 29.7998C568.334 30.5331 567.734 31.0671 567 31.4004C566.267 31.7337 565.534 31.9004 564.8 31.9004C563.934 31.9004 563.134 31.7337 562.4 31.4004C561.667 31.0004 561.067 30.4335 560.6 29.7002C560.2 28.9669 560 28.0996 560 27.0996ZM590.2 31.7998C590.2 31.2665 590.3 30.8663 590.5 30.5996C590.7 30.2663 591.034 30.0337 591.5 29.9004C591.967 29.7004 592.6 29.5996 593.4 29.5996C594.467 29.5996 595.5 29.7333 596.5 30C597.5 30.3333 598.334 30.8004 599 31.4004V27.7002C598.6 27.2335 597.967 26.8333 597.1 26.5C596.234 26.1 595.234 25.7667 594.1 25.5C593.034 25.3 591.867 25.2002 590.6 25.2002C587.667 25.2002 585.4 25.8 583.8 27C582.267 28.3333 581.5 30.0998 581.5 32.2998C581.5 33.8331 581.9 35.1665 582.7 36.2998C583.434 37.3665 584.434 38.1669 585.7 38.7002C586.967 39.2335 588.334 39.5 589.8 39.5C591.334 39.5 592.734 39.2335 594 38.7002C595.267 38.1669 596.267 37.4004 597 36.4004C597.8 35.3337 598.2 34.0663 598.2 32.5996L597.4 29.5996C597.4 30.6663 597.167 31.5335 596.7 32.2002C596.3 32.8669 595.767 33.3669 595.1 33.7002C594.434 34.0335 593.734 34.2002 593 34.2002C592.534 34.2002 592.067 34.1004 591.6 33.9004C591.2 33.7004 590.867 33.4329 590.6 33.0996C590.334 32.6996 590.2 32.2665 590.2 31.7998ZM583.3 17.9004L586 23.5996C586.334 23.3996 586.867 23.1671 587.6 22.9004C588.4 22.5671 589.3 22.2667 590.3 22C591.3 21.8 592.3 21.7002 593.3 21.7002C593.967 21.7002 594.567 21.8 595.1 22C595.634 22.1333 596.067 22.3329 596.4 22.5996C596.734 22.8663 596.967 23.1996 597.1 23.5996C597.3 23.9996 597.4 24.4667 597.4 25V39H605.6V22.9004C605.6 21.3004 605.1 19.9331 604.1 18.7998C603.167 17.6665 601.834 16.8002 600.1 16.2002C598.434 15.6002 596.567 15.2998 594.5 15.2998C592.3 15.2998 590.234 15.6002 588.3 16.2002C586.434 16.7335 584.767 17.3004 583.3 17.9004ZM625.9 25V39H635V24.0996C635 21.3663 634.367 19.2665 633.1 17.7998C631.834 16.2665 629.7 15.5 626.7 15.5C624.9 15.5 623.434 15.8663 622.3 16.5996C621.167 17.2663 620.267 18.2004 619.6 19.4004V16H611V39H619.6V25C619.6 24.2 619.734 23.5004 620 22.9004C620.334 22.3671 620.734 21.9669 621.2 21.7002C621.734 21.4335 622.334 21.2998 623 21.2998C624.134 21.2998 624.9 21.6331 625.3 22.2998C625.7 22.8998 625.9 23.8 625.9 25ZM639.9 7.7002C639.9 8.96686 640.367 10.0337 641.3 10.9004C642.234 11.7004 643.367 12.0996 644.7 12.0996C646.1 12.0996 647.267 11.7004 648.2 10.9004C649.134 10.0337 649.6 8.96686 649.6 7.7002C649.6 6.36686 649.134 5.26706 648.2 4.40039C647.267 3.60039 646.1 3.2002 644.7 3.2002C643.367 3.2002 642.234 3.60039 641.3 4.40039C640.367 5.26706 639.9 6.36686 639.9 7.7002ZM648.9 16H640.6V39H648.9V16ZM655.8 30.2998L652.7 36.2002C653.9 36.9335 655.134 37.6002 656.4 38.2002C657.734 38.8002 659.134 39.2663 660.6 39.5996C662.067 39.9329 663.634 40.0996 665.3 40.0996C668.167 40.0996 670.367 39.4998 671.9 38.2998C673.5 37.0331 674.3 35.1 674.3 32.5C674.3 31.1 673.967 29.9663 673.3 29.0996C672.7 28.2329 671.9 27.5333 670.9 27C669.967 26.4 668.9 25.9 667.7 25.5C666.5 25.0333 665.5 24.6671 664.7 24.4004C663.9 24.1337 663.3 23.8663 662.9 23.5996C662.5 23.2663 662.3 22.8671 662.3 22.4004C662.3 22.0671 662.434 21.7996 662.7 21.5996C662.967 21.3329 663.434 21.2002 664.1 21.2002C665.1 21.2002 666.234 21.4996 667.5 22.0996C668.834 22.6996 670.034 23.4671 671.1 24.4004L673.7 18.5996C672.634 17.9996 671.567 17.4996 670.5 17.0996C669.434 16.6329 668.3 16.2667 667.1 16C665.967 15.6667 664.7 15.5 663.3 15.5C661.567 15.5 660.034 15.7665 658.7 16.2998C657.367 16.8331 656.3 17.5996 655.5 18.5996C654.767 19.5329 654.4 20.7335 654.4 22.2002C654.4 23.6669 654.7 24.9004 655.3 25.9004C655.9 26.8337 656.7 27.5663 657.7 28.0996C658.7 28.6329 659.767 29.1 660.9 29.5C662.234 29.9 663.234 30.2663 663.9 30.5996C664.567 30.8663 665.034 31.1667 665.3 31.5C665.567 31.7667 665.7 32.1 665.7 32.5C665.7 32.9667 665.534 33.3329 665.2 33.5996C664.934 33.8663 664.467 34 663.8 34C663.4 34 662.834 33.9002 662.1 33.7002C661.367 33.5669 660.5 33.2335 659.5 32.7002C658.434 32.1669 657.2 31.3665 655.8 30.2998ZM686.8 39V0H678.1V39H686.8ZM693.1 25V39H701.8V23.7002C701.8 21.8335 701.534 20.2667 701 19C700.534 17.7333 699.734 16.7663 698.6 16.0996C697.467 15.4329 695.9 15.0996 693.9 15.0996C691.9 15.0996 690.267 15.5337 689 16.4004C687.8 17.3337 686.934 18.5333 686.4 20C685.8 21.5333 685.5 23.2 685.5 25H686.8C686.8 24.2 686.934 23.5333 687.2 23C687.534 22.4 687.934 21.9669 688.4 21.7002C688.934 21.4335 689.534 21.2998 690.2 21.2998C691.334 21.2998 692.1 21.6331 692.5 22.2998C692.9 22.8998 693.1 23.8 693.1 25ZM722.2 25V39H731.2V24.0996C731.2 21.3663 730.567 19.2665 729.3 17.7998C728.034 16.2665 725.9 15.5 722.9 15.5C721.167 15.5 719.7 15.8663 718.5 16.5996C717.367 17.2663 716.5 18.2004 715.9 19.4004V16H707.2V39H715.9V25C715.9 24.2 716.034 23.5004 716.3 22.9004C716.567 22.3671 716.967 21.9669 717.5 21.7002C718.034 21.4335 718.634 21.2998 719.3 21.2998C720.434 21.2998 721.2 21.6331 721.6 22.2998C722 22.8998 722.2 23.8 722.2 25ZM736.1 7.7002C736.1 8.96686 736.567 10.0337 737.5 10.9004C738.5 11.7004 739.667 12.0996 741 12.0996C742.334 12.0996 743.467 11.7004 744.4 10.9004C745.4 10.0337 745.9 8.96686 745.9 7.7002C745.9 6.36686 745.4 5.26706 744.4 4.40039C743.467 3.60039 742.334 3.2002 741 3.2002C739.667 3.2002 738.5 3.60039 737.5 4.40039C736.567 5.26706 736.1 6.36686 736.1 7.7002ZM745.1 16H736.8V39H745.1V16ZM5.30038 76.4004V85.0996H32.5004V76.4004H5.30038ZM36.1004 64H26.4004V99H36.1004V64ZM12.6004 64H2.90039V99H12.6004V64ZM41.3004 87.5C41.3004 89.9667 41.8671 92.1004 43.0004 93.9004C44.2004 95.7004 45.8004 97.0996 47.8004 98.0996C49.8671 99.0329 52.2004 99.5 54.8004 99.5C57.4004 99.5 59.7004 99.0329 61.7004 98.0996C63.7671 97.0996 65.3671 95.7004 66.5004 93.9004C67.7004 92.1004 68.3004 89.9667 68.3004 87.5C68.3004 85.0333 67.7004 82.8996 66.5004 81.0996C65.3671 79.2996 63.7671 77.9333 61.7004 77C59.7004 76 57.4004 75.5 54.8004 75.5C52.2004 75.5 49.8671 76 47.8004 77C45.8004 77.9333 44.2004 79.2996 43.0004 81.0996C41.8671 82.8996 41.3004 85.0333 41.3004 87.5ZM50.2004 87.5C50.2004 86.4333 50.4004 85.5331 50.8004 84.7998C51.2004 84.0665 51.7671 83.4996 52.5004 83.0996C53.1671 82.6996 53.9337 82.5 54.8004 82.5C55.6004 82.5 56.3671 82.6996 57.1004 83.0996C57.7671 83.4996 58.3337 84.0665 58.8004 84.7998C59.2004 85.5331 59.4004 86.4333 59.4004 87.5C59.4004 88.5667 59.2004 89.4998 58.8004 90.2998C58.3337 91.0331 57.7671 91.6 57.1004 92C56.3671 92.3333 55.6004 92.5 54.8004 92.5C53.9337 92.5 53.1671 92.3333 52.5004 92C51.7671 91.6 51.2004 91.0331 50.8004 90.2998C50.4004 89.4998 50.2004 88.5667 50.2004 87.5ZM72.1004 83.7998H81.3004L69.8004 99H93.6004V91.2002H84.7004L95.4004 76H72.1004V83.7998ZM98.3004 67.7002C98.3004 68.9669 98.7671 70.0337 99.7004 70.9004C100.634 71.7004 101.767 72.0996 103.1 72.0996C104.5 72.0996 105.667 71.7004 106.6 70.9004C107.534 70.0337 108 68.9669 108 67.7002C108 66.3669 107.534 65.2671 106.6 64.4004C105.667 63.6004 104.5 63.2002 103.1 63.2002C101.767 63.2002 100.634 63.6004 99.7004 64.4004C98.7671 65.2671 98.3004 66.3669 98.3004 67.7002ZM107.3 76H99.0004V99H107.3V76ZM121.4 99V76H112.9V99H121.4ZM128 84.9004L131.6 77.4004C131.2 76.8671 130.634 76.4 129.9 76C129.1 75.6 128.3 75.4004 127.5 75.4004C126.167 75.4004 124.867 75.8335 123.6 76.7002C122.4 77.5669 121.434 78.6996 120.7 80.0996C119.967 81.5663 119.6 83.2 119.6 85L121.4 88.5C121.4 87.3667 121.567 86.4335 121.9 85.7002C122.234 84.9669 122.667 84.4329 123.2 84.0996C123.8 83.6996 124.434 83.5 125.1 83.5C125.767 83.5 126.3 83.6337 126.7 83.9004C127.167 84.1671 127.6 84.5004 128 84.9004ZM160.7 60H152V99H160.7V60ZM133.4 87.5C133.4 90.1 133.9 92.2996 134.9 94.0996C135.967 95.8996 137.334 97.2669 139 98.2002C140.667 99.0669 142.4 99.5 144.2 99.5C146.134 99.5 147.834 99.0329 149.3 98.0996C150.834 97.0996 152.034 95.7004 152.9 93.9004C153.767 92.1004 154.2 89.9667 154.2 87.5C154.2 85.0333 153.767 82.8996 152.9 81.0996C152.034 79.2996 150.834 77.9333 149.3 77C147.834 76 146.134 75.5 144.2 75.5C142.4 75.5 140.667 75.9671 139 76.9004C137.334 77.8337 135.967 79.1671 134.9 80.9004C133.9 82.7004 133.4 84.9 133.4 87.5ZM142.5 87.5C142.5 86.5 142.7 85.5998 143.1 84.7998C143.567 83.9998 144.167 83.4 144.9 83C145.634 82.5333 146.434 82.2998 147.3 82.2998C148.034 82.2998 148.767 82.5333 149.5 83C150.234 83.4 150.834 83.9669 151.3 84.7002C151.767 85.5002 152 86.4333 152 87.5C152 88.6333 151.767 89.5665 151.3 90.2998C150.834 91.0998 150.234 91.6996 149.5 92.0996C148.767 92.4996 148.034 92.7002 147.3 92.7002C146.434 92.7002 145.634 92.4996 144.9 92.0996C144.167 91.6329 143.567 91.0002 143.1 90.2002C142.7 89.4002 142.5 88.5 142.5 87.5ZM173.2 91.7998C173.2 91.3331 173.3 90.9329 173.5 90.5996C173.7 90.2663 174.034 90.0337 174.5 89.9004C174.967 89.7004 175.567 89.5996 176.3 89.5996C177.434 89.5996 178.5 89.7663 179.5 90.0996C180.5 90.3663 181.334 90.8004 182 91.4004V87.7002C181.534 87.2335 180.867 86.8333 180 86.5C179.2 86.1 178.234 85.7667 177.1 85.5C175.967 85.3 174.767 85.2002 173.5 85.2002C170.567 85.2002 168.334 85.8329 166.8 87.0996C165.267 88.3663 164.5 90.0998 164.5 92.2998C164.5 93.8331 164.867 95.1665 165.6 96.2998C166.4 97.3665 167.4 98.1669 168.6 98.7002C169.867 99.2335 171.234 99.5 172.7 99.5C174.234 99.5 175.634 99.2335 176.9 98.7002C178.234 98.1669 179.267 97.4004 180 96.4004C180.734 95.3337 181.1 94.0663 181.1 92.5996L180.3 89.5996C180.3 90.6663 180.1 91.5335 179.7 92.2002C179.3 92.8669 178.767 93.3669 178.1 93.7002C177.434 94.0335 176.734 94.2002 176 94.2002C175.467 94.2002 175 94.1004 174.6 93.9004C174.134 93.7004 173.767 93.4329 173.5 93.0996C173.3 92.7663 173.2 92.3331 173.2 91.7998ZM166.2 77.9004L169 83.5996C169.267 83.3996 169.8 83.1671 170.6 82.9004C171.334 82.5671 172.2 82.2996 173.2 82.0996C174.267 81.8329 175.267 81.7002 176.2 81.7002C176.934 81.7002 177.567 81.8 178.1 82C178.634 82.1333 179.067 82.3329 179.4 82.5996C179.734 82.8663 179.967 83.1996 180.1 83.5996C180.234 83.9996 180.3 84.4667 180.3 85V99H188.6V82.9004C188.6 81.3004 188.1 79.9331 187.1 78.7998C186.1 77.6665 184.767 76.8002 183.1 76.2002C181.434 75.6002 179.534 75.2998 177.4 75.2998C175.267 75.2998 173.234 75.6002 171.3 76.2002C169.367 76.7335 167.667 77.3004 166.2 77.9004ZM208.9 85V99H217.9V84.0996C217.9 81.3663 217.267 79.2665 216 77.7998C214.734 76.2665 212.6 75.5 209.6 75.5C207.867 75.5 206.4 75.8663 205.2 76.5996C204.067 77.2663 203.2 78.2004 202.6 79.4004V76H193.9V99H202.6V85C202.6 84.2 202.734 83.5004 203 82.9004C203.267 82.3671 203.667 81.9669 204.2 81.7002C204.734 81.4335 205.334 81.2998 206 81.2998C207.134 81.2998 207.9 81.6331 208.3 82.2998C208.7 82.8998 208.9 83.8 208.9 85ZM247 99V60H238.4V99H247ZM265.6 87.5C265.6 84.9 265.067 82.7004 264 80.9004C263 79.1671 261.667 77.8337 260 76.9004C258.4 75.9671 256.667 75.5 254.8 75.5C252.934 75.5 251.234 76 249.7 77C248.167 77.9333 246.967 79.2996 246.1 81.0996C245.234 82.8996 244.8 85.0333 244.8 87.5C244.8 89.9667 245.234 92.1004 246.1 93.9004C246.967 95.7004 248.167 97.0996 249.7 98.0996C251.234 99.0329 252.934 99.5 254.8 99.5C256.667 99.5 258.4 99.0669 260 98.2002C261.667 97.2669 263 95.8996 264 94.0996C265.067 92.2996 265.6 90.1 265.6 87.5ZM256.5 87.5C256.5 88.5 256.3 89.4002 255.9 90.2002C255.434 91.0002 254.834 91.6329 254.1 92.0996C253.367 92.4996 252.567 92.7002 251.7 92.7002C250.9 92.7002 250.134 92.4996 249.4 92.0996C248.734 91.6996 248.167 91.0998 247.7 90.2998C247.234 89.5665 247 88.6333 247 87.5C247 86.4333 247.234 85.5002 247.7 84.7002C248.167 83.9669 248.734 83.4 249.4 83C250.134 82.5333 250.9 82.2998 251.7 82.2998C252.567 82.2998 253.367 82.5333 254.1 83C254.834 83.4 255.434 83.9998 255.9 84.7998C256.3 85.5998 256.5 86.5 256.5 87.5ZM268.7 87.5C268.7 89.9667 269.3 92.1004 270.5 93.9004C271.634 95.7004 273.234 97.0996 275.3 98.0996C277.367 99.0329 279.667 99.5 282.2 99.5C284.8 99.5 287.134 99.0329 289.2 98.0996C291.2 97.0996 292.8 95.7004 294 93.9004C295.2 92.1004 295.8 89.9667 295.8 87.5C295.8 85.0333 295.2 82.8996 294 81.0996C292.8 79.2996 291.2 77.9333 289.2 77C287.134 76 284.8 75.5 282.2 75.5C279.667 75.5 277.367 76 275.3 77C273.234 77.9333 271.634 79.2996 270.5 81.0996C269.3 82.8996 268.7 85.0333 268.7 87.5ZM277.6 87.5C277.6 86.4333 277.8 85.5331 278.2 84.7998C278.667 84.0665 279.234 83.4996 279.9 83.0996C280.634 82.6996 281.4 82.5 282.2 82.5C283.067 82.5 283.834 82.6996 284.5 83.0996C285.234 83.4996 285.8 84.0665 286.2 84.7998C286.667 85.5331 286.9 86.4333 286.9 87.5C286.9 88.5667 286.667 89.4998 286.2 90.2998C285.8 91.0331 285.234 91.6 284.5 92C283.834 92.3333 283.067 92.5 282.2 92.5C281.4 92.5 280.634 92.3333 279.9 92C279.234 91.6 278.667 91.0331 278.2 90.2998C277.8 89.4998 277.6 88.5667 277.6 87.5ZM301.3 90.2998L298.2 96.2002C299.4 96.9335 300.634 97.6002 301.9 98.2002C303.234 98.8002 304.634 99.2663 306.1 99.5996C307.567 99.9329 309.134 100.1 310.8 100.1C313.667 100.1 315.867 99.4998 317.4 98.2998C319 97.0331 319.8 95.1 319.8 92.5C319.8 91.1 319.467 89.9663 318.8 89.0996C318.2 88.2329 317.4 87.5333 316.4 87C315.467 86.4 314.4 85.9 313.2 85.5C312 85.0333 311 84.6671 310.2 84.4004C309.4 84.1337 308.8 83.8663 308.4 83.5996C308 83.2663 307.8 82.8671 307.8 82.4004C307.8 82.0671 307.934 81.7996 308.2 81.5996C308.467 81.3329 308.934 81.2002 309.6 81.2002C310.6 81.2002 311.734 81.4996 313 82.0996C314.334 82.6996 315.534 83.4671 316.6 84.4004L319.2 78.5996C318.134 77.9996 317.067 77.4996 316 77.0996C314.934 76.6329 313.8 76.2667 312.6 76C311.467 75.6667 310.2 75.5 308.8 75.5C307.067 75.5 305.534 75.7665 304.2 76.2998C302.867 76.8331 301.8 77.5996 301 78.5996C300.267 79.5329 299.9 80.7335 299.9 82.2002C299.9 83.6669 300.2 84.9004 300.8 85.9004C301.4 86.8337 302.2 87.5663 303.2 88.0996C304.2 88.6329 305.267 89.1 306.4 89.5C307.734 89.9 308.734 90.2663 309.4 90.5996C310.067 90.8663 310.534 91.1667 310.8 91.5C311.067 91.7667 311.2 92.1 311.2 92.5C311.2 92.9667 311.034 93.3329 310.7 93.5996C310.434 93.8663 309.967 94 309.3 94C308.9 94 308.334 93.9002 307.6 93.7002C306.867 93.5669 306 93.2335 305 92.7002C303.934 92.1669 302.7 91.3665 301.3 90.2998ZM332.3 99V60H323.6V99H332.3ZM338.6 85V99H347.3V83.7002C347.3 81.8335 347.034 80.2667 346.5 79C346.034 77.7333 345.234 76.7663 344.1 76.0996C342.967 75.4329 341.4 75.0996 339.4 75.0996C337.4 75.0996 335.767 75.5337 334.5 76.4004C333.3 77.3337 332.434 78.5333 331.9 80C331.3 81.5333 331 83.2 331 85H332.3C332.3 84.2 332.434 83.5333 332.7 83C333.034 82.4 333.434 81.9669 333.9 81.7002C334.434 81.4335 335.034 81.2998 335.7 81.2998C336.834 81.2998 337.6 81.6331 338 82.2998C338.4 82.8998 338.6 83.8 338.6 85ZM361.4 60H352.7V99H361.4V60ZM373.9 91.7998C373.9 91.3331 374 90.9329 374.2 90.5996C374.4 90.2663 374.734 90.0337 375.2 89.9004C375.667 89.7004 376.267 89.5996 377 89.5996C378.134 89.5996 379.2 89.7663 380.2 90.0996C381.2 90.3663 382.034 90.8004 382.7 91.4004V87.7002C382.234 87.2335 381.567 86.8333 380.7 86.5C379.9 86.1 378.934 85.7667 377.8 85.5C376.667 85.3 375.467 85.2002 374.2 85.2002C371.267 85.2002 369.034 85.8329 367.5 87.0996C365.967 88.3663 365.2 90.0998 365.2 92.2998C365.2 93.8331 365.567 95.1665 366.3 96.2998C367.1 97.3665 368.1 98.1669 369.3 98.7002C370.567 99.2335 371.934 99.5 373.4 99.5C374.934 99.5 376.334 99.2335 377.6 98.7002C378.934 98.1669 379.967 97.4004 380.7 96.4004C381.434 95.3337 381.8 94.0663 381.8 92.5996L381 89.5996C381 90.6663 380.8 91.5335 380.4 92.2002C380 92.8669 379.467 93.3669 378.8 93.7002C378.134 94.0335 377.434 94.2002 376.7 94.2002C376.167 94.2002 375.7 94.1004 375.3 93.9004C374.834 93.7004 374.467 93.4329 374.2 93.0996C374 92.7663 373.9 92.3331 373.9 91.7998ZM366.9 77.9004L369.7 83.5996C369.967 83.3996 370.5 83.1671 371.3 82.9004C372.034 82.5671 372.9 82.2996 373.9 82.0996C374.967 81.8329 375.967 81.7002 376.9 81.7002C377.634 81.7002 378.267 81.8 378.8 82C379.334 82.1333 379.767 82.3329 380.1 82.5996C380.434 82.8663 380.667 83.1996 380.8 83.5996C380.934 83.9996 381 84.4667 381 85V99H389.3V82.9004C389.3 81.3004 388.8 79.9331 387.8 78.7998C386.8 77.6665 385.467 76.8002 383.8 76.2002C382.134 75.6002 380.234 75.2998 378.1 75.2998C375.967 75.2998 373.934 75.6002 372 76.2002C370.067 76.7335 368.367 77.3004 366.9 77.9004ZM409.6 85V99H418.6V84.0996C418.6 81.3663 417.967 79.2665 416.7 77.7998C415.434 76.2665 413.3 75.5 410.3 75.5C408.567 75.5 407.1 75.8663 405.9 76.5996C404.767 77.2663 403.9 78.2004 403.3 79.4004V76H394.6V99H403.3V85C403.3 84.2 403.434 83.5004 403.7 82.9004C403.967 82.3671 404.367 81.9669 404.9 81.7002C405.434 81.4335 406.034 81.2998 406.7 81.2998C407.834 81.2998 408.6 81.6331 409 82.2998C409.4 82.8998 409.6 83.8 409.6 85ZM431.7 100.7H423.4C423.667 102.767 424.267 104.6 425.2 106.2C426.134 107.734 427.534 108.933 429.4 109.8C431.267 110.666 433.734 111.1 436.8 111.1C439.267 111.1 441.467 110.7 443.4 109.9C445.334 109.034 446.9 107.7 448.1 105.9C449.234 104.034 449.8 101.567 449.8 98.5V76H441.6V98.5C441.6 99.7667 441.367 100.834 440.9 101.7C440.434 102.567 439.8 103.234 439 103.7C438.267 104.167 437.367 104.4 436.3 104.4C435.5 104.4 434.767 104.267 434.1 104C433.434 103.8 432.9 103.434 432.5 102.9C432.1 102.367 431.834 101.634 431.7 100.7ZM422.9 87.0996C422.9 89.6996 423.434 91.8663 424.5 93.5996C425.567 95.3329 426.9 96.6333 428.5 97.5C430.167 98.3 431.9 98.7002 433.7 98.7002C435.634 98.7002 437.367 98.2671 438.9 97.4004C440.367 96.4671 441.534 95.1337 442.4 93.4004C443.334 91.6671 443.8 89.5663 443.8 87.0996C443.8 84.6329 443.334 82.5331 442.4 80.7998C441.534 79.0665 440.367 77.7671 438.9 76.9004C437.367 75.9671 435.634 75.5 433.7 75.5C431.9 75.5 430.167 75.9331 428.5 76.7998C426.9 77.6665 425.567 78.9329 424.5 80.5996C423.434 82.3329 422.9 84.4996 422.9 87.0996ZM432 87.0996C432 86.0996 432.234 85.2333 432.7 84.5C433.1 83.7667 433.667 83.2337 434.4 82.9004C435.134 82.5004 435.934 82.2998 436.8 82.2998C437.4 82.2998 437.967 82.3996 438.5 82.5996C439.1 82.7996 439.634 83.1 440.1 83.5C440.567 83.9 440.934 84.4 441.2 85C441.467 85.6 441.6 86.2996 441.6 87.0996C441.6 88.2329 441.367 89.1331 440.9 89.7998C440.434 90.5331 439.834 91.0671 439.1 91.4004C438.367 91.7337 437.6 91.9004 436.8 91.9004C435.934 91.9004 435.134 91.7337 434.4 91.4004C433.667 91.0004 433.1 90.4335 432.7 89.7002C432.234 88.9669 432 88.0996 432 87.0996ZM466.7 64H456.1L457.9 87H464.9L466.7 64ZM456.1 95.5996C456.1 96.9996 456.6 98.1663 457.6 99.0996C458.6 99.9663 459.867 100.4 461.4 100.4C462.934 100.4 464.2 99.9663 465.2 99.0996C466.2 98.1663 466.7 96.9996 466.7 95.5996C466.7 94.1996 466.2 93.0669 465.2 92.2002C464.2 91.2669 462.934 90.7998 461.4 90.7998C459.867 90.7998 458.6 91.2669 457.6 92.2002C456.6 93.0669 456.1 94.1996 456.1 95.5996Z" fill="white"/>
</svg>
