<svg width="125" height="12" viewBox="0 0 125 12" fill="none" xmlns="http://www.w3.org/2000/svg">
<path d="M0.700195 0.299316H3.10022L6.2002 8.49927L9.2002 0.299316H11.6002V10.9993H9.80029V7.49927L10.0002 2.79932L6.80029 10.9993H5.50024L2.30029 2.79932L2.50024 7.49927V10.9993H0.700195V0.299316ZM20.8003 10.9993L19.9003 8.49927H15.8003L14.9003 10.9993H13.0002L17.0002 0.299316H18.7002L22.7002 10.9993H20.8003ZM17.9003 2.59937L16.3003 6.99927H19.4003L17.9003 2.59937ZM29.6002 8.19922C29.6002 7.73255 29.4336 7.39922 29.1002 7.19922C28.7669 6.93255 28.167 6.66584 27.3003 6.39917C26.4336 6.1325 25.7335 5.8326 25.2002 5.49927C24.2669 4.89927 23.8003 4.09937 23.8003 3.09937C23.8003 2.2327 24.1336 1.5326 24.8003 0.999268C25.5336 0.465934 26.4669 0.199219 27.6002 0.199219C28.3336 0.199219 29.0002 0.332699 29.6002 0.599365C30.1336 0.866032 30.5669 1.26598 30.9003 1.79932C31.2336 2.26598 31.4003 2.79917 31.4003 3.39917H29.6002C29.6002 2.86584 29.4002 2.4327 29.0002 2.09937C28.6669 1.8327 28.2002 1.69922 27.6002 1.69922C26.9336 1.69922 26.4336 1.79927 26.1002 1.99927C25.7669 2.26593 25.6002 2.6327 25.6002 3.09937C25.6002 3.49937 25.8002 3.8327 26.2002 4.09937C26.5335 4.36603 27.1336 4.6325 28.0002 4.89917C28.8002 5.09917 29.4669 5.36589 30.0002 5.69922C30.4669 6.03255 30.8336 6.39932 31.1002 6.79932C31.3002 7.19932 31.4003 7.66589 31.4003 8.19922C31.4003 9.13255 31.0669 9.86584 30.4003 10.3992C29.7336 10.8658 28.8002 11.0994 27.6002 11.0994C26.8669 11.0994 26.1669 10.9659 25.5002 10.6992C24.8336 10.4326 24.3336 10.0326 24.0002 9.49927C23.6669 9.0326 23.5002 8.46598 23.5002 7.79932H25.3003C25.3003 8.39932 25.5003 8.86589 25.9003 9.19922C26.3003 9.53255 26.8669 9.69922 27.6002 9.69922C28.2669 9.69922 28.7669 9.56598 29.1002 9.29932C29.4336 9.03265 29.6002 8.66588 29.6002 8.19922ZM34.9003 0.299316V9.49927H39.8003V10.9993H33.1002V0.299316H34.9003ZM48.1002 10.9993L47.2002 8.49927H43.1002L42.2002 10.9993H40.3003L44.3003 0.299316H46.0002L50.0002 10.9993H48.1002ZM45.2002 2.59937L43.6002 6.99927H46.7002L45.2002 2.59937ZM59.8003 0.299316V10.9993H57.9003V6.29932H53.2002V10.9993H51.3003V0.299316H53.2002V4.79932H57.9003V0.299316H59.8003ZM69.0002 10.9993L68.1002 8.49927H64.0002L63.1002 10.9993H61.2002L65.2002 0.299316H66.9003L70.9003 10.9993H69.0002ZM66.1002 2.59937L64.6002 6.99927H67.6002L66.1002 2.59937ZM79.1002 0.39917V1.89917H75.7002V10.9993H73.9003V1.89917H70.6002V0.39917H79.1002ZM92.3003 5.39917V5.99927C92.3003 6.99927 92.1336 7.89922 91.8003 8.69922C91.4003 9.49922 90.8669 10.1327 90.2002 10.5994C89.5335 10.9994 88.7669 11.1992 87.9003 11.1992C87.0336 11.1992 86.2669 10.9994 85.6002 10.5994C84.9336 10.1327 84.4002 9.49922 84.0002 8.69922C83.6669 7.96589 83.4669 7.06593 83.4003 5.99927V5.39917C83.4003 4.39917 83.6002 3.49922 84.0002 2.69922C84.4002 1.89922 84.9336 1.29917 85.6002 0.89917C86.2669 0.432503 87.0336 0.199219 87.9003 0.199219C88.7669 0.199219 89.5335 0.432503 90.2002 0.89917C90.8669 1.29917 91.3669 1.89922 91.7002 2.69922C92.1002 3.43255 92.3003 4.3325 92.3003 5.39917ZM90.4003 5.99927V5.39917C90.4003 4.26584 90.2003 3.36589 89.8003 2.69922C89.3336 2.09922 88.7003 1.79932 87.9003 1.79932C87.1003 1.79932 86.4669 2.09922 86.0002 2.69922C85.5336 3.29922 85.3003 4.19917 85.3003 5.39917V5.99927C85.3003 7.1326 85.5336 8.03255 86.0002 8.69922C86.4669 9.36589 87.1003 9.69922 87.9003 9.69922C88.7003 9.69922 89.3336 9.36589 89.8003 8.69922C90.2003 8.09922 90.4003 7.19927 90.4003 5.99927ZM96.0002 0.39917V9.59937H100.8V10.9993H94.1002V0.39917H96.0002ZM104.3 0.39917V10.9993H102.4V0.39917H104.3ZM112.2 8.29932C112.2 7.83265 112.034 7.46589 111.7 7.19922C111.367 6.93255 110.767 6.66584 109.9 6.39917C109.034 6.1325 108.334 5.86603 107.8 5.59937C106.867 4.99937 106.4 4.19922 106.4 3.19922C106.4 2.33255 106.734 1.6327 107.4 1.09937C108.134 0.499365 109.067 0.199219 110.2 0.199219C110.934 0.199219 111.567 0.332699 112.1 0.599365C112.7 0.866032 113.167 1.26598 113.5 1.79932C113.834 2.33265 114 2.89927 114 3.49927H112.2C112.2 2.89927 112 2.46589 111.6 2.19922C111.267 1.86589 110.767 1.69922 110.1 1.69922C109.5 1.69922 109.034 1.8327 108.7 2.09937C108.367 2.36603 108.2 2.73255 108.2 3.19922C108.2 3.59922 108.4 3.93255 108.8 4.19922C109.134 4.39922 109.734 4.6325 110.6 4.89917C111.4 5.16584 112.067 5.46598 112.6 5.79932C113.067 6.06598 113.434 6.39932 113.7 6.79932C113.9 7.26598 114 7.76598 114 8.29932C114 9.16598 113.667 9.86584 113 10.3992C112.334 10.9325 111.4 11.1992 110.2 11.1992C109.467 11.1992 108.767 11.066 108.1 10.7993C107.434 10.466 106.934 10.066 106.6 9.59937C106.2 9.06603 106 8.46598 106 7.79932H107.9C107.9 8.39932 108.1 8.86589 108.5 9.19922C108.9 9.53255 109.467 9.69922 110.2 9.69922C110.867 9.69922 111.367 9.56598 111.7 9.29932C112.034 9.03265 112.2 8.69932 112.2 8.29932ZM124.1 0.39917V10.9993H122.3V6.29932H117.5V10.9993H115.6V0.39917H117.5V4.79932H122.3V0.39917H124.1Z" fill="white"/>
</svg>
