<svg width="216" height="23" viewBox="0 0 216 23" fill="none" xmlns="http://www.w3.org/2000/svg">
<path d="M3.9996 16.9995L4.9996 9.09961L9.19962 15.5996L13.3996 9.09961L14.2996 16.9995H18.1996L15.6996 0.799316L9.19962 10.1997L2.59961 0.799316L0.0996094 16.9995H3.9996ZM24.3996 1.59961H20.5996V16.9995H24.3996V1.59961ZM24.3996 18.3994L22.3996 20.9995C22.7329 21.1995 23.0996 21.3996 23.4996 21.5996C23.8996 21.7996 24.3663 21.9663 24.8996 22.0996C25.4329 22.2329 25.9996 22.2993 26.5996 22.2993C27.2663 22.2993 27.8996 22.1995 28.4996 21.9995C29.0996 21.8662 29.6329 21.6327 30.0996 21.2993C30.5663 20.966 30.9329 20.5663 31.1996 20.0996C31.4663 19.5663 31.5996 18.933 31.5996 18.1997V1.59961H27.5996V17.3994C27.5996 17.9994 27.4663 18.433 27.1996 18.6997C26.8663 18.9664 26.5329 19.0996 26.1996 19.0996C25.8663 19.0996 25.5329 19.0327 25.1996 18.8994C24.8663 18.7661 24.5996 18.5994 24.3996 18.3994ZM37.8996 9.29932C37.8996 8.36598 38.0996 7.56608 38.4996 6.89941C38.8329 6.16608 39.3329 5.63265 39.9996 5.29932C40.6663 4.89932 41.4329 4.69971 42.2996 4.69971C43.1663 4.69971 43.9329 4.89932 44.5996 5.29932C45.2663 5.63265 45.7663 6.16608 46.0996 6.89941C46.4329 7.56608 46.5996 8.36598 46.5996 9.29932C46.5996 10.2326 46.4329 11.033 46.0996 11.6997C45.7663 12.433 45.2663 12.966 44.5996 13.2993C43.9329 13.6993 43.1663 13.8994 42.2996 13.8994C41.4329 13.8994 40.6663 13.6993 39.9996 13.2993C39.3329 12.966 38.8329 12.433 38.4996 11.6997C38.0996 11.033 37.8996 10.2326 37.8996 9.29932ZM33.9996 9.29932C33.9996 10.4993 34.1996 11.5996 34.5996 12.5996C34.9996 13.5996 35.5663 14.4664 36.2996 15.1997C37.0329 15.933 37.9329 16.4994 38.9996 16.8994C39.9996 17.2994 41.0996 17.4995 42.2996 17.4995C43.4996 17.4995 44.5996 17.2994 45.5996 16.8994C46.5996 16.4994 47.4663 15.933 48.1996 15.1997C48.9996 14.4664 49.5996 13.5996 49.9996 12.5996C50.3996 11.5996 50.5996 10.4993 50.5996 9.29932C50.5996 8.09932 50.3996 6.99951 49.9996 5.99951C49.5329 5.06618 48.9329 4.23285 48.1996 3.49951C47.4663 2.76618 46.5996 2.19932 45.5996 1.79932C44.5996 1.39932 43.4996 1.19971 42.2996 1.19971C41.0996 1.19971 39.9996 1.39932 38.9996 1.79932C37.9996 2.19932 37.1329 2.76618 36.3996 3.49951C35.6663 4.23285 35.0663 5.06618 34.5996 5.99951C34.1996 6.99951 33.9996 8.09932 33.9996 9.29932ZM51.8996 1.59961V4.89941H57.9996L50.8996 16.9995H63.1996V13.7993H56.6996L63.9996 1.59961H51.8996ZM69.5996 1.59961H65.8996V16.9995H75.7996V13.7993H69.5996V1.59961ZM80.8996 11.1997L80.5996 13.9995H88.6996L88.4996 11.1997H80.8996ZM82.4996 12.1997L84.6996 7.29932L86.7996 12.2993L86.6996 13.1997L88.5996 16.9995H92.7996L84.6996 0.599609L76.5996 16.9995H80.7996L82.6996 12.9995L82.4996 12.1997ZM102.1 9.99951H98.1996L102.5 16.9995H106.9L102.1 9.99951ZM98.0996 1.59961H94.3996V16.9995H98.0996V1.59961ZM96.6996 1.59961V4.69971H99.6996C100.233 4.69971 100.666 4.79951 101 4.99951C101.4 5.13284 101.666 5.36637 101.8 5.69971C102 5.96637 102.1 6.33265 102.1 6.79932C102.1 7.19932 102 7.56608 101.8 7.89941C101.666 8.16608 101.4 8.36618 101 8.49951C100.666 8.69951 100.233 8.79932 99.6996 8.79932H96.6996V11.6997H99.9996C101.333 11.6997 102.433 11.4662 103.3 10.9995C104.166 10.5995 104.833 10.0326 105.3 9.29932C105.766 8.49932 106 7.59961 106 6.59961C106 5.59961 105.766 4.73285 105.3 3.99951C104.833 3.26618 104.166 2.66637 103.3 2.19971C102.433 1.79971 101.333 1.59961 99.9996 1.59961H96.6996ZM112.4 1.59961H108.6V16.9995H112.4V1.59961ZM118.7 16.9995L119.6 9.09961L123.8 15.5996L128 9.09961L128.9 16.9995H132.9L130.4 0.799316L123.8 10.1997L117.2 0.799316L114.8 16.9995H118.7ZM139 1.59961H135.2V16.9995H139V1.59961ZM141.9 1.59961V4.89941H148L140.8 16.9995H153.2V13.7993H146.7L154 1.59961H141.9ZM164.9 1.59961V4.79932H171.8V1.59961H164.9ZM164.9 7.79932V10.7993H171.6V7.79932H164.9ZM166 1.59961H162.4V16.9995H166V1.59961ZM178.4 1.59961H174.6V16.9995H178.4V1.59961ZM185.5 1.59961H181.6V16.9995H185.5V1.59961ZM195.1 1.59961H190.7L184.4 8.89941L190.9 16.9995H195.4L188.8 8.79932L195.1 1.59961ZM204.8 9.99951H200.9L205.2 16.9995H209.6L204.8 9.99951ZM200.8 1.59961H197.1V16.9995H200.8V1.59961ZM199.4 1.59961V4.69971H202.4C202.933 4.69971 203.366 4.79951 203.7 4.99951C204.1 5.13284 204.366 5.36637 204.5 5.69971C204.7 5.96637 204.8 6.33265 204.8 6.79932C204.8 7.19932 204.7 7.56608 204.5 7.89941C204.366 8.16608 204.1 8.36618 203.7 8.49951C203.366 8.69951 202.933 8.79932 202.4 8.79932H199.4V11.5996H202.7C204.033 11.5996 205.133 11.3995 206 10.9995C206.866 10.5995 207.533 9.99971 208 9.19971C208.466 8.46637 208.7 7.59961 208.7 6.59961C208.7 5.59961 208.466 4.73285 208 3.99951C207.533 3.26618 206.866 2.66637 206 2.19971C205.133 1.79971 204.033 1.59961 202.7 1.59961H199.4ZM215.1 1.59961H211.3V16.9995H215.1V1.59961Z" fill="#005DF7"/>
</svg>
