<svg width="377" height="136" viewBox="0 0 377 136" fill="none" xmlns="http://www.w3.org/2000/svg">
<path d="M14.1998 50.999L16.7998 30.0991L28.4998 46.7988L40.1998 30.0991L42.7998 50.999H56.1998L48.2998 3.19922L28.4998 29.3989L8.69983 3.19922L0.799805 50.999H14.1998ZM60.9998 10.1992C60.9998 11.9326 61.6331 13.3323 62.8998 14.3989C64.0998 15.4656 65.5665 15.999 67.2998 15.999C69.0998 15.999 70.5998 15.4656 71.7998 14.3989C73.0665 13.3323 73.6998 11.9326 73.6998 10.1992C73.6998 8.46589 73.0665 7.06569 71.7998 5.99902C70.5998 4.93236 69.0998 4.39893 67.2998 4.39893C65.5665 4.39893 64.0998 4.93236 62.8998 5.99902C61.6331 7.06569 60.9998 8.46589 60.9998 10.1992ZM72.6998 21.0991H61.8998V50.999H72.6998V21.0991ZM79.0998 10.1992C79.0998 11.9326 79.6998 13.3323 80.8998 14.3989C82.1665 15.4656 83.6998 15.999 85.4998 15.999C87.2331 15.999 88.7331 15.4656 89.9998 14.3989C91.1998 13.3323 91.7998 11.9326 91.7998 10.1992C91.7998 8.46589 91.1998 7.06569 89.9998 5.99902C88.7331 4.93236 87.2331 4.39893 85.4998 4.39893C83.6998 4.39893 82.1665 4.93236 80.8998 5.99902C79.6998 7.06569 79.0998 8.46589 79.0998 10.1992ZM73.9998 55.2988L69.6998 63.2988C70.2998 63.8322 70.9665 64.3656 71.6998 64.8989C72.4998 65.4323 73.4665 65.8988 74.5998 66.2988C75.7998 66.6988 77.1998 66.8989 78.7998 66.8989C81.4665 66.8989 83.6998 66.4324 85.4998 65.499C87.2998 64.5657 88.6331 63.2658 89.4998 61.5991C90.4332 59.9325 90.8998 58.0323 90.8998 55.8989V21.0991H80.0998V52.8989C80.0998 53.8323 79.9998 54.5992 79.7998 55.1992C79.5331 55.7992 79.1665 56.2324 78.6998 56.499C78.2332 56.8324 77.6665 56.999 76.9998 56.999C76.3998 56.999 75.8331 56.8324 75.2998 56.499C74.8998 56.2324 74.4665 55.8322 73.9998 55.2988ZM96.5998 35.999C96.5998 39.199 97.3665 41.9655 98.8998 44.2988C100.366 46.6322 102.433 48.4655 105.1 49.7988C107.766 50.9988 110.766 51.5991 114.1 51.5991C117.5 51.5991 120.533 50.9988 123.2 49.7988C125.8 48.4655 127.866 46.6322 129.4 44.2988C131 41.9655 131.8 39.199 131.8 35.999C131.8 32.799 131 30.0326 129.4 27.6992C127.866 25.3659 125.8 23.5655 123.2 22.2988C120.533 21.0322 117.5 20.3989 114.1 20.3989C110.766 20.3989 107.766 21.0322 105.1 22.2988C102.433 23.5655 100.366 25.3659 98.8998 27.6992C97.3665 30.0326 96.5998 32.799 96.5998 35.999ZM108.2 35.999C108.2 34.6657 108.433 33.499 108.9 32.499C109.5 31.499 110.266 30.7655 111.2 30.2988C112.066 29.7655 113.033 29.499 114.1 29.499C115.233 29.499 116.233 29.7655 117.1 30.2988C118.033 30.7655 118.766 31.499 119.3 32.499C119.9 33.499 120.2 34.6657 120.2 35.999C120.2 37.399 119.9 38.5991 119.3 39.5991C118.766 40.5991 118.033 41.3322 117.1 41.7988C116.233 42.2655 115.233 42.499 114.1 42.499C113.033 42.499 112.066 42.2655 111.2 41.7988C110.266 41.3322 109.5 40.5991 108.9 39.5991C108.433 38.5991 108.2 37.399 108.2 35.999ZM136.7 31.1992H148.6L133.7 50.999H164.6V40.8989H153.1L166.9 21.0991H136.7V31.1992ZM182.7 0.298828H171.5V50.999H182.7V0.298828ZM199 41.5991C199 40.9325 199.133 40.399 199.4 39.999C199.6 39.599 200.033 39.2991 200.7 39.0991C201.3 38.8325 202.1 38.6992 203.1 38.6992C204.5 38.6992 205.867 38.8988 207.2 39.2988C208.466 39.6988 209.533 40.2657 210.4 40.999V36.2988C209.867 35.6988 209.033 35.1325 207.9 34.5991C206.767 34.1325 205.466 33.7323 204 33.3989C202.6 33.1323 201.067 32.999 199.4 32.999C195.6 32.999 192.666 33.7989 190.6 35.3989C188.666 37.0656 187.7 39.3326 187.7 42.1992C187.7 44.1992 188.2 45.9323 189.2 47.3989C190.133 48.7989 191.433 49.8658 193.1 50.5991C194.7 51.2658 196.467 51.5991 198.4 51.5991C200.4 51.5991 202.2 51.2658 203.8 50.5991C205.533 49.8658 206.866 48.8324 207.8 47.499C208.8 46.1657 209.3 44.5325 209.3 42.5991L208.3 38.6992C208.3 40.0992 208 41.2325 207.4 42.0991C206.867 42.9658 206.166 43.6325 205.3 44.0991C204.433 44.4991 203.533 44.6992 202.6 44.6992C201.933 44.6992 201.333 44.5655 200.8 44.2988C200.2 44.0322 199.733 43.6988 199.4 43.2988C199.133 42.8322 199 42.2658 199 41.5991ZM189.9 23.499L193.5 30.8989C193.9 30.6989 194.6 30.399 195.6 29.999C196.6 29.599 197.733 29.2323 199 28.8989C200.333 28.6323 201.633 28.499 202.9 28.499C203.833 28.499 204.633 28.5988 205.3 28.7988C206.033 28.9988 206.6 29.2658 207 29.5991C207.466 29.9991 207.767 30.4323 207.9 30.8989C208.167 31.4323 208.3 32.0326 208.3 32.6992V50.999H219V29.999C219 27.8657 218.333 26.0658 217 24.5991C215.8 23.1325 214.066 22.0322 211.8 21.2988C209.666 20.4988 207.233 20.0991 204.5 20.0991C201.7 20.0991 199.033 20.4988 196.5 21.2988C194.033 21.9655 191.833 22.699 189.9 23.499ZM236.9 50.999V21.0991H225.9V50.999H236.9ZM245.5 32.5991L250.1 22.8989C249.633 22.1656 248.9 21.5658 247.9 21.0991C246.9 20.5658 245.866 20.2988 244.8 20.2988C243.066 20.2988 241.4 20.8657 239.8 21.999C238.266 23.0657 237 24.5323 236 26.3989C235.066 28.2656 234.6 30.3988 234.6 32.7988L236.9 37.1992C236.9 35.7992 237.1 34.6326 237.5 33.6992C237.966 32.6992 238.566 31.9657 239.3 31.499C240.033 31.0324 240.833 30.7988 241.7 30.7988C242.566 30.7988 243.266 30.9655 243.8 31.2988C244.4 31.6322 244.966 32.0658 245.5 32.5991ZM253.3 10.1992C253.3 11.8659 253.9 13.2656 255.1 14.3989C256.366 15.4656 257.866 15.999 259.6 15.999C261.333 15.999 262.8 15.4656 264 14.3989C265.266 13.2656 265.9 11.8659 265.9 10.1992C265.9 8.46589 265.266 7.06569 264 5.99902C262.8 4.93236 261.333 4.39893 259.6 4.39893C257.866 4.39893 256.366 4.93236 255.1 5.99902C253.9 7.06569 253.3 8.46589 253.3 10.1992ZM265 21.0991H254.2V50.999H265V21.0991ZM319.3 50.999V31.5991C319.3 29.1991 319.033 27.1657 318.5 25.499C317.9 23.8324 316.933 22.5659 315.6 21.6992C314.266 20.7659 312.367 20.2988 309.9 20.2988C307.9 20.2988 306.066 20.7325 304.4 21.5991C302.8 22.4658 301.433 23.6325 300.3 25.0991C299.7 23.4991 298.733 22.3325 297.4 21.5991C296.066 20.7325 294.2 20.2988 291.8 20.2988C289.666 20.2988 287.867 20.7988 286.4 21.7988C285 22.6655 283.866 23.899 283 25.499V21.0991H272.3V50.999H283V32.7988C283 31.6655 283.166 30.7324 283.5 29.999C283.766 29.2657 284.2 28.7323 284.8 28.3989C285.333 28.0656 285.966 27.8989 286.7 27.8989C287.833 27.8989 288.633 28.3326 289.1 29.1992C289.633 29.9992 289.9 31.1988 289.9 32.7988V50.999H301.2V32.7988C301.2 31.6655 301.333 30.7324 301.6 29.999C301.933 29.2657 302.367 28.7323 302.9 28.3989C303.5 28.0656 304.133 27.8989 304.8 27.8989C306 27.8989 306.833 28.3326 307.3 29.1992C307.833 29.9992 308.1 31.1988 308.1 32.7988V50.999H319.3ZM325.6 10.1992C325.6 11.8659 326.2 13.2656 327.4 14.3989C328.667 15.4656 330.167 15.999 331.9 15.999C333.633 15.999 335.1 15.4656 336.3 14.3989C337.566 13.2656 338.2 11.8659 338.2 10.1992C338.2 8.46589 337.566 7.06569 336.3 5.99902C335.1 4.93236 333.633 4.39893 331.9 4.39893C330.167 4.39893 328.667 4.93236 327.4 5.99902C326.2 7.06569 325.6 8.46589 325.6 10.1992ZM337.3 21.0991H326.5V50.999H337.3V21.0991ZM345 31.1992H356.9L342 50.999H372.9V40.7988H361.4L375.2 21.0991H345V31.1992ZM21.6998 102.699V120.899H33.4998V101.499C33.4998 97.9657 32.6665 95.2322 30.9998 93.2988C29.3998 91.2988 26.6332 90.2988 22.6998 90.2988C20.4332 90.2988 18.5331 90.7659 16.9998 91.6992C15.5331 92.6326 14.3998 93.8656 13.5998 95.3989V90.999H2.2998V120.899H13.5998V102.699C13.5998 101.633 13.7665 100.732 14.0998 99.999C14.4998 99.2657 14.9998 98.7323 15.5998 98.3989C16.3332 97.9989 17.1332 97.7988 17.9998 97.7988C19.4665 97.7988 20.4665 98.2325 20.9998 99.0991C21.4665 99.9658 21.6998 101.166 21.6998 102.699ZM39.8998 80.1992C39.8998 81.8659 40.4998 83.2322 41.6998 84.2988C42.9665 85.3655 44.4665 85.8989 46.1998 85.8989C47.9998 85.8989 49.4998 85.3655 50.6998 84.2988C51.9665 83.2322 52.5998 81.8659 52.5998 80.1992C52.5998 78.4659 51.9665 77.0323 50.6998 75.8989C49.4998 74.8323 47.9998 74.2988 46.1998 74.2988C44.4665 74.2988 42.9665 74.8323 41.6998 75.8989C40.4998 77.0323 39.8998 78.4659 39.8998 80.1992ZM51.5998 90.999H40.7998V120.899H51.5998V90.999ZM105.9 120.899V101.499C105.9 99.1657 105.633 97.1657 105.1 95.499C104.5 93.8324 103.533 92.5659 102.2 91.6992C100.866 90.7659 98.9998 90.2988 96.5998 90.2988C94.5332 90.2988 92.6665 90.7325 90.9998 91.5991C89.3998 92.3991 88.0331 93.5324 86.8998 94.999C86.2998 93.4657 85.3332 92.299 83.9998 91.499C82.6665 90.699 80.7998 90.2988 78.3998 90.2988C76.2665 90.2988 74.4665 90.7659 72.9998 91.6992C71.5998 92.6326 70.4998 93.899 69.6998 95.499V90.999H58.8998V120.899H69.6998V102.699C69.6998 101.566 69.8332 100.666 70.0998 99.999C70.4332 99.2657 70.8665 98.7323 71.3998 98.3989C71.9998 97.9989 72.6331 97.7988 73.2998 97.7988C74.4331 97.7988 75.2665 98.2325 75.7998 99.0991C76.2665 99.9658 76.4998 101.166 76.4998 102.699V120.899H87.7998V102.699C87.7998 101.566 87.9332 100.666 88.1998 99.999C88.5332 99.2657 88.9665 98.7323 89.4998 98.3989C90.0998 97.9989 90.7331 97.7988 91.3998 97.7988C92.5998 97.7988 93.4331 98.2325 93.8998 99.0991C94.4331 99.9658 94.6998 101.166 94.6998 102.699V120.899H105.9ZM122.1 111.599C122.1 110.932 122.233 110.399 122.5 109.999C122.766 109.532 123.2 109.199 123.8 108.999C124.4 108.799 125.2 108.699 126.2 108.699C127.666 108.699 129.033 108.899 130.3 109.299C131.633 109.699 132.733 110.266 133.6 110.999V106.199C133 105.599 132.133 105.066 131 104.599C129.933 104.066 128.666 103.666 127.2 103.399C125.8 103.066 124.266 102.899 122.6 102.899C118.8 102.899 115.866 103.732 113.8 105.399C111.8 107.066 110.8 109.299 110.8 112.099C110.8 114.166 111.3 115.899 112.3 117.299C113.3 118.699 114.6 119.766 116.2 120.499C117.866 121.232 119.633 121.599 121.5 121.599C123.5 121.599 125.333 121.232 127 120.499C128.666 119.832 130 118.832 131 117.499C132 116.166 132.5 114.532 132.5 112.599L131.4 108.699C131.4 110.033 131.133 111.166 130.6 112.099C130.066 112.966 129.366 113.599 128.5 113.999C127.633 114.399 126.733 114.599 125.8 114.599C125.133 114.599 124.5 114.499 123.9 114.299C123.366 114.032 122.933 113.666 122.6 113.199C122.266 112.733 122.1 112.199 122.1 111.599ZM113.1 93.499L116.7 100.799C117.1 100.599 117.766 100.299 118.7 99.8989C119.7 99.4989 120.866 99.1656 122.2 98.8989C123.533 98.5656 124.833 98.3989 126.1 98.3989C127.033 98.3989 127.833 98.5322 128.5 98.7988C129.166 98.9322 129.733 99.1991 130.2 99.5991C130.6 99.9325 130.9 100.366 131.1 100.899C131.3 101.432 131.4 102.033 131.4 102.699V120.899H142.1V99.999C142.1 97.8657 141.466 96.0658 140.2 94.5991C138.933 93.1325 137.2 92.0322 135 91.2988C132.8 90.4988 130.367 90.0991 127.7 90.0991C124.833 90.0991 122.166 90.4659 119.7 91.1992C117.233 91.9325 115.033 92.699 113.1 93.499ZM202.5 70.1992H191.3V120.899H202.5V70.1992ZM167 105.999C167 109.332 167.7 112.166 169.1 114.499C170.433 116.832 172.166 118.599 174.3 119.799C176.5 120.999 178.766 121.599 181.1 121.599C183.633 121.599 185.866 120.966 187.8 119.699C189.733 118.433 191.267 116.632 192.4 114.299C193.533 111.965 194.1 109.199 194.1 105.999C194.1 102.732 193.533 99.9325 192.4 97.5991C191.267 95.2658 189.733 93.4988 187.8 92.2988C185.866 91.0322 183.633 90.3989 181.1 90.3989C178.766 90.3989 176.5 90.9992 174.3 92.1992C172.166 93.3326 170.433 95.0656 169.1 97.3989C167.7 99.6656 167 102.532 167 105.999ZM178.9 105.999C178.9 104.666 179.166 103.499 179.7 102.499C180.3 101.432 181.066 100.632 182 100.099C182.933 99.4991 183.966 99.1992 185.1 99.1992C186.1 99.1992 187.066 99.4991 188 100.099C189 100.566 189.8 101.299 190.4 102.299C191 103.299 191.3 104.532 191.3 105.999C191.3 107.399 191 108.599 190.4 109.599C189.8 110.599 189 111.366 188 111.899C187.066 112.432 186.1 112.699 185.1 112.699C183.966 112.699 182.933 112.432 182 111.899C181.066 111.299 180.3 110.499 179.7 109.499C179.166 108.432 178.9 107.266 178.9 105.999ZM225.9 121.599C229.833 121.599 233.167 120.832 235.9 119.299C238.7 117.765 240.9 115.466 242.5 112.399L232.4 110.399C231.733 111.532 230.8 112.399 229.6 112.999C228.466 113.532 227.1 113.799 225.5 113.799C224.166 113.799 223.033 113.499 222.1 112.899C221.166 112.232 220.466 111.333 220 110.199C219.533 108.999 219.333 107.566 219.4 105.899C219.4 103.966 219.6 102.399 220 101.199C220.466 99.9325 221.133 98.9989 222 98.3989C222.866 97.7989 223.933 97.499 225.2 97.499C226.266 97.499 227.167 97.7326 227.9 98.1992C228.7 98.6659 229.266 99.3326 229.6 100.199C230.066 100.999 230.3 101.999 230.3 103.199C230.3 103.533 230.2 103.899 230 104.299C229.866 104.765 229.667 105.166 229.4 105.499L231.8 102.499H214.2V108.299H242.1C242.166 107.899 242.2 107.466 242.2 106.999C242.2 106.466 242.2 105.932 242.2 105.399C242.2 102.199 241.566 99.4988 240.3 97.2988C238.966 95.0322 237.066 93.2991 234.6 92.0991C232.133 90.9658 229.1 90.3989 225.5 90.3989C221.833 90.3989 218.7 91.0322 216.1 92.2988C213.5 93.4988 211.5 95.2658 210.1 97.5991C208.766 99.9325 208.1 102.732 208.1 105.999C208.1 109.199 208.8 111.965 210.2 114.299C211.6 116.565 213.633 118.366 216.3 119.699C218.966 120.966 222.167 121.599 225.9 121.599ZM260.2 135.199L279.7 90.999H268.3L258.7 115.099L264.6 115.199L254.9 90.999H242.7L256.1 118.999L249.1 135.199H260.2ZM316.4 70.1992H305.2V120.899H316.4V70.1992ZM280.9 105.999C280.9 109.332 281.566 112.166 282.9 114.499C284.3 116.832 286.066 118.599 288.2 119.799C290.333 120.999 292.566 121.599 294.9 121.599C297.433 121.599 299.666 120.966 301.6 119.699C303.6 118.433 305.166 116.632 306.3 114.299C307.433 111.965 308 109.199 308 105.999C308 102.732 307.433 99.9325 306.3 97.5991C305.166 95.2658 303.6 93.4988 301.6 92.2988C299.666 91.0322 297.433 90.3989 294.9 90.3989C292.566 90.3989 290.333 90.9992 288.2 92.1992C286.066 93.3326 284.3 95.0656 282.9 97.3989C281.566 99.6656 280.9 102.532 280.9 105.999ZM292.7 105.999C292.7 104.666 293 103.499 293.6 102.499C294.133 101.432 294.9 100.632 295.9 100.099C296.833 99.4991 297.866 99.1992 299 99.1992C300 99.1992 300.967 99.4991 301.9 100.099C302.833 100.566 303.6 101.299 304.2 102.299C304.866 103.299 305.2 104.532 305.2 105.999C305.2 107.399 304.866 108.599 304.2 109.599C303.6 110.599 302.833 111.366 301.9 111.899C300.967 112.432 300 112.699 299 112.699C297.866 112.699 296.833 112.432 295.9 111.899C294.9 111.299 294.133 110.499 293.6 109.499C293 108.432 292.7 107.266 292.7 105.999ZM322.7 80.1992C322.7 81.8659 323.3 83.2322 324.5 84.2988C325.766 85.3655 327.266 85.8989 329 85.8989C330.8 85.8989 332.3 85.3655 333.5 84.2988C334.766 83.2322 335.4 81.8659 335.4 80.1992C335.4 78.4659 334.766 77.0323 333.5 75.8989C332.3 74.8323 330.8 74.2988 329 74.2988C327.266 74.2988 325.766 74.8323 324.5 75.8989C323.3 77.0323 322.7 78.4659 322.7 80.1992ZM334.4 90.999H323.6V120.899H334.4V90.999ZM365.6 88.3989C365.6 89.3323 365.2 90.3657 364.4 91.499C363.667 92.6324 362.466 93.5989 360.8 94.3989C359.133 95.1989 357 95.5991 354.4 95.5991H352.2L353.5 107.299H362.6L362.9 102.499C365.233 101.966 367.466 101.166 369.6 100.099C371.733 98.8991 373.466 97.3323 374.8 95.3989C376.133 93.3989 376.8 91.0656 376.8 88.3989C376.8 86.0656 376.333 83.9992 375.4 82.1992C374.4 80.4659 373.1 78.9988 371.5 77.7988C369.833 76.5322 367.967 75.599 365.9 74.999C363.833 74.3324 361.733 73.999 359.6 73.999C357 73.999 354.633 74.3324 352.5 74.999C350.3 75.6657 348.267 76.6657 346.4 77.999C344.533 79.2657 342.733 80.8326 341 82.6992L348.4 88.999C349.667 87.1324 351.267 85.7322 353.2 84.7988C355.066 83.7988 356.967 83.2988 358.9 83.2988C360.367 83.2988 361.566 83.4989 362.5 83.8989C363.5 84.2989 364.266 84.8992 364.8 85.6992C365.333 86.4325 365.6 87.3323 365.6 88.3989ZM351.2 116.799C351.2 118.332 351.833 119.699 353.1 120.899C354.433 122.099 356.1 122.699 358.1 122.699C360.166 122.699 361.833 122.099 363.1 120.899C364.366 119.699 365 118.332 365 116.799C365 115.199 364.366 113.799 363.1 112.599C361.833 111.399 360.166 110.799 358.1 110.799C356.1 110.799 354.433 111.399 353.1 112.599C351.833 113.799 351.2 115.199 351.2 116.799Z" fill="#202020"/>
</svg>
