<svg width="49" height="15" viewBox="0 0 49 15" fill="none" xmlns="http://www.w3.org/2000/svg">
<path d="M7.90002 1.50049H6.30005L0 14.3003L1.69995 14.2007L7.90002 1.50049ZM10.5 12.0005L11.2 5.70068L14.4 11.1006L17.6 5.70068L18.3 12.0005H20.2L18.7 1.00049L14.4 8.20068L10.1 1.00049L8.69995 12.0005H10.5ZM21.2 8.60059C21.2 9.33392 21.3666 9.96715 21.7 10.5005C22.0333 11.0338 22.4667 11.434 23 11.7007C23.6 12.034 24.2334 12.2007 24.9 12.2007C25.6334 12.2007 26.2667 12.034 26.8 11.7007C27.4 11.434 27.8666 11.0338 28.2 10.5005C28.5333 9.96715 28.7 9.33392 28.7 8.60059C28.7 7.86725 28.5333 7.23402 28.2 6.70068C27.8666 6.16735 27.4 5.76716 26.8 5.50049C26.2667 5.16715 25.6334 5.00049 24.9 5.00049C24.2334 5.00049 23.6 5.16715 23 5.50049C22.4667 5.76716 22.0333 6.16735 21.7 6.70068C21.3666 7.23402 21.2 7.86725 21.2 8.60059ZM22.9 8.60059C22.9 8.20059 23 7.83382 23.2 7.50049C23.3333 7.16715 23.5667 6.90068 23.9 6.70068C24.2334 6.50068 24.5667 6.40039 24.9 6.40039C25.3 6.40039 25.6667 6.50068 26 6.70068C26.3333 6.90068 26.5666 7.16715 26.7 7.50049C26.9 7.83382 27 8.20059 27 8.60059C27 9.00059 26.9 9.36735 26.7 9.70068C26.5666 10.034 26.3333 10.3005 26 10.5005C25.6667 10.7005 25.3 10.8003 24.9 10.8003C24.5667 10.8003 24.2334 10.7005 23.9 10.5005C23.5667 10.3005 23.3333 10.034 23.2 9.70068C23 9.36735 22.9 9.00059 22.9 8.60059ZM34.6 7.90039V12.0005H36.3V7.70068C36.3 6.83402 36.1 6.16735 35.7 5.70068C35.2999 5.23402 34.7 5.00049 33.9 5.00049C33.4334 5.00049 33.0333 5.10029 32.7 5.30029C32.3666 5.50029 32.0667 5.80068 31.8 6.20068V5.20068H30.2V12.0005H31.8V7.90039C31.8 7.56706 31.8667 7.26716 32 7.00049C32.1333 6.80049 32.3333 6.63382 32.6 6.50049C32.8 6.36716 33.0667 6.30029 33.4 6.30029C33.8 6.30029 34.1 6.43402 34.3 6.70068C34.5 6.96735 34.6 7.36706 34.6 7.90039ZM41.3 5.20068H37.4V6.60059H41.3V5.20068ZM40.2 2.80029H38.6V12.1006H40.2V2.80029ZM44.1 12.1006V0.400391H42.4V12.1006H44.1ZM47 7.90039V12.1006H48.6V7.60059C48.6 7.06725 48.5 6.60068 48.3 6.20068C48.1 5.80068 47.8333 5.50029 47.5 5.30029C47.1667 5.10029 46.7333 5.00049 46.2 5.00049C45.6666 5.00049 45.2334 5.13372 44.9 5.40039C44.5 5.60039 44.2 5.93372 44 6.40039C43.8667 6.80039 43.8 7.30039 43.8 7.90039H44.1C44.1 7.56706 44.1667 7.30059 44.3 7.10059C44.4334 6.83392 44.6334 6.63382 44.9 6.50049C45.1 6.36716 45.3666 6.30029 45.7 6.30029C46.1 6.30029 46.4 6.43402 46.6 6.70068C46.8666 6.96735 47 7.36706 47 7.90039Z" fill="#202020"/>
</svg>
