<svg width="203" height="16" viewBox="0 0 203 16" fill="none" xmlns="http://www.w3.org/2000/svg">
<path d="M0.0996094 1.29932H1.9996L5.3996 9.99927L8.8996 1.29932H10.7996V11.9993H9.3996V7.79932L9.4996 3.39929L5.9996 11.9993H4.8996L1.3996 3.39929L1.59961 7.79932V11.9993H0.0996094V1.29932ZM16.8996 3.99927V5.29932C16.6996 5.23265 16.4663 5.19922 16.1996 5.19922C15.3329 5.19922 14.7329 5.56598 14.3996 6.29932V11.9993H12.9996V3.99927H14.2996L14.3996 4.99927C14.7996 4.26593 15.4329 3.89929 16.2996 3.89929C16.5663 3.89929 16.7663 3.9326 16.8996 3.99927ZM28.8996 11.9993L27.8996 9.19922H23.4996L22.3996 11.9993H20.9996L25.0996 1.29932H26.2996L30.3996 11.9993H28.8996ZM25.5996 2.99927L23.7996 7.99927H27.3996L25.5996 2.99927ZM31.1996 7.99927V7.89929C31.1996 6.69929 31.4996 5.7326 32.0996 4.99927C32.6996 4.26593 33.4663 3.89929 34.3996 3.89929C35.3329 3.89929 36.0663 4.19932 36.5996 4.79932V0.699219H37.8996V11.9993H36.6996L36.5996 11.0992C36.0663 11.7659 35.2996 12.0992 34.2996 12.0992C33.4329 12.0992 32.6996 11.7326 32.0996 10.9993C31.4996 10.1993 31.1996 9.19927 31.1996 7.99927ZM32.5996 8.09924C32.5996 8.96591 32.7663 9.66588 33.0996 10.1992C33.4996 10.6659 34.0329 10.8993 34.6996 10.8993C35.5663 10.8993 36.1996 10.5326 36.5996 9.79932V6.19922C36.1996 5.39922 35.5663 4.99927 34.6996 4.99927C34.0329 4.99927 33.4996 5.26598 33.0996 5.79932C32.7663 6.33265 32.5996 7.09924 32.5996 8.09924ZM43.8996 3.99927V5.19922C43.6329 5.19922 43.3996 5.19922 43.1996 5.19922C42.333 5.19922 41.7329 5.56598 41.3996 6.29932V11.9993H39.9996V3.99927H41.2996L41.3996 4.89929C41.7996 4.23263 42.4329 3.89929 43.2996 3.89929C43.4996 3.89929 43.6996 3.9326 43.8996 3.99927ZM46.5996 3.99927V11.9993H45.1996V3.99927H46.5996ZM45.0996 1.89929C45.0996 1.69929 45.1663 1.53263 45.2996 1.39929C45.4996 1.19929 45.6996 1.09924 45.8996 1.09924C46.1663 1.09924 46.3663 1.19929 46.4996 1.39929C46.6996 1.53263 46.7996 1.69929 46.7996 1.89929C46.7996 2.16596 46.6996 2.36593 46.4996 2.49927C46.3663 2.6326 46.1663 2.69922 45.8996 2.69922C45.6996 2.69922 45.4996 2.6326 45.2996 2.49927C45.1663 2.36593 45.0996 2.16596 45.0996 1.89929ZM55.0996 11.9993H53.6996C53.6329 11.7993 53.5663 11.4992 53.4996 11.0992C52.8329 11.7659 52.0663 12.0992 51.1996 12.0992C50.4663 12.0992 49.8329 11.866 49.2996 11.3993C48.8329 10.9993 48.5996 10.466 48.5996 9.79932C48.5996 8.93265 48.8996 8.26598 49.4996 7.79932C50.0996 7.33265 50.9663 7.09924 52.0996 7.09924H53.4996V6.49927C53.4996 6.0326 53.3329 5.66596 52.9996 5.39929C52.7329 5.13263 52.3329 4.99927 51.7996 4.99927C51.3329 4.99927 50.9329 5.09932 50.5996 5.29932C50.2663 5.56598 50.0996 5.86589 50.0996 6.19922H48.6996C48.6996 5.79922 48.8329 5.43258 49.0996 5.09924C49.4329 4.69924 49.8329 4.39922 50.2996 4.19922C50.7663 3.99922 51.2996 3.89929 51.8996 3.89929C52.7663 3.89929 53.4663 4.13258 53.9996 4.59924C54.5329 5.06591 54.7996 5.69927 54.7996 6.49927V10.0992C54.7996 10.8326 54.8996 11.3993 55.0996 11.7993V11.9993ZM51.3996 10.9993C51.8663 10.9993 52.2663 10.8992 52.5996 10.6992C52.9996 10.4326 53.2996 10.1326 53.4996 9.79932V8.19922H52.3996C50.7329 8.19922 49.8996 8.66591 49.8996 9.59924C49.8996 10.0659 50.0329 10.3992 50.2996 10.5992C50.6329 10.8659 50.9996 10.9993 51.3996 10.9993ZM56.8996 4.09924H58.1996L58.2996 5.09924C58.8996 4.36591 59.6663 3.99927 60.5996 3.99927C62.3329 3.99927 63.1996 4.93265 63.1996 6.79932V11.9993H61.7996V6.79932C61.7996 6.19932 61.6663 5.76593 61.3996 5.49927C61.1329 5.2326 60.7329 5.09924 60.1996 5.09924C59.7996 5.09924 59.4329 5.2326 59.0996 5.49927C58.7663 5.69927 58.4996 5.99929 58.2996 6.39929V11.9993H56.8996V4.09924ZM75.5996 8.09924V8.19922C75.5996 9.39922 75.3329 10.3659 74.7996 11.0992C74.2663 11.8326 73.5329 12.1992 72.5996 12.1992C71.5996 12.1992 70.7996 11.8326 70.1996 11.0992V12.0992H68.8996V0.799316H70.2996V4.99927C70.8329 4.3326 71.5663 3.99927 72.4996 3.99927C73.4996 3.99927 74.2663 4.36591 74.7996 5.09924C75.3329 5.83258 75.5996 6.83258 75.5996 8.09924ZM74.2996 7.99927C74.2996 7.06593 74.1329 6.36596 73.7996 5.89929C73.3996 5.36596 72.8663 5.09924 72.1996 5.09924C71.3329 5.09924 70.6996 5.53263 70.2996 6.39929V9.79932C70.6996 10.666 71.3329 11.0992 72.1996 11.0992C72.8663 11.0992 73.3663 10.8327 73.6996 10.2993C74.0996 9.76598 74.2996 8.99927 74.2996 7.99927ZM78.7996 4.09924V12.0992H77.4996V4.09924H78.7996ZM77.2996 1.99927C77.2996 1.79927 77.3663 1.6326 77.4996 1.49927C77.6329 1.29927 77.8329 1.19922 78.0996 1.19922C78.3663 1.19922 78.5663 1.29927 78.6996 1.49927C78.8329 1.6326 78.8996 1.79927 78.8996 1.99927C78.8996 2.26593 78.8329 2.46591 78.6996 2.59924C78.5663 2.73258 78.3663 2.79932 78.0996 2.79932C77.8329 2.79932 77.6329 2.73258 77.4996 2.59924C77.3663 2.46591 77.2996 2.26593 77.2996 1.99927ZM82.3996 0.799316V12.0992H80.9996V0.799316H82.3996ZM90.8996 12.0992H89.4996C89.4329 11.8992 89.3663 11.5992 89.2996 11.1992C88.6996 11.8659 87.9663 12.1992 87.0996 12.1992C86.2996 12.1992 85.6329 11.9659 85.0996 11.4993C84.6329 11.0993 84.3996 10.566 84.3996 9.89929C84.3996 9.03263 84.6996 8.36596 85.2996 7.89929C85.9663 7.49929 86.8663 7.29932 87.9996 7.29932H89.2996V6.59924C89.2996 6.13258 89.1663 5.76593 88.8996 5.49927C88.5663 5.2326 88.1329 5.09924 87.5996 5.09924C87.1329 5.09924 86.7329 5.19929 86.3996 5.39929C86.0663 5.66596 85.8996 5.96598 85.8996 6.29932H84.5996C84.5996 5.89932 84.7329 5.53255 84.9996 5.19922C85.2663 4.79922 85.6329 4.49932 86.0996 4.29932C86.5663 4.09932 87.0996 3.99927 87.6996 3.99927C88.6329 3.99927 89.3329 4.23255 89.7996 4.69922C90.3329 5.16589 90.6329 5.79924 90.6996 6.59924V10.1992C90.6996 10.9326 90.7663 11.4993 90.8996 11.8993V12.0992ZM87.2996 11.0992C87.6996 11.0992 88.0996 10.9993 88.4996 10.7993C88.8329 10.5993 89.0996 10.2993 89.2996 9.89929V8.29932H88.1996C86.533 8.29932 85.6996 8.79932 85.6996 9.79932C85.6996 10.1993 85.8663 10.5326 86.1996 10.7993C86.4663 10.9993 86.8329 11.0992 87.2996 11.0992ZM92.7996 4.19922H94.0996V5.19922C94.6996 4.46589 95.4996 4.09924 96.4996 4.09924C98.1663 4.09924 98.9996 5.03263 98.9996 6.89929V12.0992H97.6996V6.89929C97.6329 6.29929 97.4996 5.86591 97.2996 5.59924C97.0329 5.33258 96.6329 5.19922 96.0996 5.19922C95.6329 5.19922 95.2329 5.33258 94.8996 5.59924C94.5663 5.79924 94.2996 6.09927 94.0996 6.49927V12.0992H92.7996V4.19922ZM106.5 1.49927V12.1992H105.1V1.49927H106.5ZM115.1 6.09924V7.19922H110.5V10.9993H115.8V12.1992H109.1V1.49927H115.8V2.69922H110.5V6.09924H115.1ZM119 1.49927V10.9993H124V12.1992H117.6V1.49927H119ZM131 1.49927V2.69922H127.5V12.1992H126.1V2.69922H122.7V1.49927H131ZM135.6 7.39929C134.4 7.06596 133.533 6.63258 133 6.09924C132.466 5.63258 132.2 5.03265 132.2 4.29932C132.2 3.43265 132.533 2.73255 133.2 2.19922C133.866 1.66589 134.733 1.39929 135.8 1.39929C136.533 1.39929 137.2 1.53265 137.8 1.79932C138.333 2.06598 138.766 2.46593 139.1 2.99927C139.433 3.46593 139.6 3.99924 139.6 4.59924H138.1C138.1 3.93258 137.9 3.43258 137.5 3.09924C137.1 2.69924 136.533 2.49927 135.8 2.49927C135.133 2.49927 134.6 2.66593 134.2 2.99927C133.8 3.26593 133.6 3.66589 133.6 4.19922C133.6 4.66589 133.766 5.03265 134.1 5.29932C134.5 5.63265 135.133 5.93255 136 6.19922C136.933 6.39922 137.633 6.66593 138.1 6.99927C138.633 7.26593 139 7.59927 139.2 7.99927C139.466 8.39927 139.6 8.89927 139.6 9.49927C139.6 10.3659 139.266 11.0326 138.6 11.4993C137.933 12.0326 137.033 12.2993 135.9 12.2993C135.166 12.2993 134.466 12.166 133.8 11.8993C133.2 11.6326 132.7 11.2326 132.3 10.6992C131.966 10.2326 131.8 9.69924 131.8 9.09924H133.2C133.2 9.69924 133.466 10.1992 134 10.5992C134.466 10.9992 135.1 11.1992 135.9 11.1992C136.633 11.1992 137.2 11.0326 137.6 10.6992C138 10.4326 138.2 10.0326 138.2 9.49927C138.2 8.96593 138 8.56598 137.6 8.29932C137.266 7.96598 136.6 7.66596 135.6 7.39929ZM144.5 8.19922V8.09924C144.5 7.36591 144.666 6.66593 145 5.99927C145.266 5.39927 145.7 4.93258 146.3 4.59924C146.833 4.26591 147.433 4.09924 148.1 4.09924C149.166 4.09924 150.033 4.46589 150.7 5.19922C151.366 5.93255 151.7 6.93255 151.7 8.19922V8.29932C151.7 9.03265 151.566 9.73263 151.3 10.3993C151.033 10.9993 150.6 11.466 150 11.7993C149.466 12.1326 148.833 12.2993 148.1 12.2993C147.033 12.2993 146.166 11.9326 145.5 11.1992C144.833 10.4659 144.5 9.46589 144.5 8.19922ZM145.9 8.29932C145.9 9.16598 146.1 9.86596 146.5 10.3993C146.9 10.9326 147.433 11.1992 148.1 11.1992C148.833 11.1992 149.4 10.9326 149.8 10.3993C150.2 9.86596 150.4 9.09924 150.4 8.09924C150.4 7.23258 150.2 6.5326 149.8 5.99927C149.333 5.46593 148.766 5.19922 148.1 5.19922C147.433 5.19922 146.9 5.46593 146.5 5.99927C146.1 6.5326 145.9 7.29932 145.9 8.29932ZM153.3 0.899292V1.69922L153.1 4.39929H152.2V0.899292H153.3ZM158.9 4.19922V5.49927C158.7 5.4326 158.466 5.39929 158.2 5.39929C157.333 5.39929 156.733 5.76593 156.4 6.49927V12.1992H155.1V4.19922H156.4V5.19922C156.866 4.46589 157.5 4.09924 158.3 4.09924C158.566 4.09924 158.766 4.13255 158.9 4.19922ZM159.7 8.09924C159.7 6.89924 159.966 5.93255 160.5 5.19922C161.1 4.46589 161.866 4.09924 162.8 4.09924C163.8 4.09924 164.566 4.43258 165.1 5.09924V4.19922H166.4V11.9993C166.4 12.9993 166.1 13.7993 165.5 14.3993C164.9 14.9993 164.066 15.2993 163 15.2993C162.466 15.2993 161.9 15.166 161.3 14.8993C160.766 14.6993 160.366 14.366 160.1 13.8993L160.8 13.0992C161.4 13.8326 162.1 14.1992 162.9 14.1992C163.566 14.1992 164.1 13.9992 164.5 13.5992C164.833 13.2659 165 12.7659 165 12.0992V11.3993C164.466 11.9993 163.733 12.2993 162.8 12.2993C161.866 12.2993 161.1 11.9326 160.5 11.1992C159.966 10.4659 159.7 9.43258 159.7 8.09924ZM161 8.29932C161 9.16598 161.2 9.86596 161.6 10.3993C161.933 10.9326 162.433 11.1992 163.1 11.1992C163.966 11.1992 164.6 10.7993 165 9.99927V6.39929C164.6 5.59929 163.966 5.19922 163.1 5.19922C162.5 5.19922 162 5.46593 161.6 5.99927C161.2 6.5326 161 7.29932 161 8.29932ZM174.7 12.1992H173.3C173.233 11.9992 173.166 11.6993 173.1 11.2993C172.5 11.966 171.766 12.2993 170.9 12.2993C170.1 12.2993 169.433 12.0992 168.9 11.6992C168.433 11.2326 168.2 10.6659 168.2 9.99927C168.2 9.1326 168.5 8.49924 169.1 8.09924C169.766 7.63258 170.666 7.39929 171.8 7.39929H173.1V6.69922C173.1 6.23255 172.966 5.86591 172.7 5.59924C172.366 5.33258 171.933 5.19922 171.4 5.19922C170.933 5.19922 170.533 5.33258 170.2 5.59924C169.866 5.79924 169.7 6.06596 169.7 6.39929H168.4C168.4 5.99929 168.533 5.63265 168.8 5.29932C169.066 4.89932 169.433 4.59929 169.9 4.39929C170.366 4.19929 170.9 4.09924 171.5 4.09924C172.433 4.09924 173.133 4.33265 173.6 4.79932C174.133 5.26598 174.433 5.89922 174.5 6.69922V10.2993C174.5 11.0326 174.566 11.5993 174.7 11.9993V12.1992ZM171.1 11.1992C171.5 11.1992 171.9 11.0993 172.3 10.8993C172.633 10.6993 172.9 10.3993 173.1 9.99927V8.39929H172C170.333 8.39929 169.5 8.89929 169.5 9.89929C169.5 10.2993 169.666 10.6326 170 10.8993C170.266 11.0993 170.633 11.1992 171.1 11.1992ZM176.6 4.29932H177.9V5.29932C178.5 4.56598 179.3 4.19922 180.3 4.19922C181.966 4.19922 182.8 5.1326 182.8 6.99927V12.1992H181.5V6.99927C181.433 6.39927 181.3 5.96589 181.1 5.69922C180.833 5.43255 180.433 5.29932 179.9 5.29932C179.433 5.29932 179.033 5.43255 178.7 5.69922C178.366 5.89922 178.1 6.19924 177.9 6.59924V12.1992H176.6V4.29932ZM186.3 4.29932V12.2993H185V4.29932H186.3ZM184.8 2.19922C184.8 1.99922 184.866 1.83255 185 1.69922C185.133 1.56589 185.333 1.49927 185.6 1.49927C185.866 1.49927 186.066 1.56589 186.2 1.69922C186.333 1.83255 186.4 1.99922 186.4 2.19922C186.4 2.46589 186.333 2.66598 186.2 2.79932C186.066 2.93265 185.866 2.99927 185.6 2.99927C185.333 2.99927 185.133 2.93265 185 2.79932C184.866 2.66598 184.8 2.46589 184.8 2.19922ZM193.1 10.1992C193.1 9.79922 192.933 9.49932 192.6 9.29932C192.333 9.09932 191.866 8.93265 191.2 8.79932C190.533 8.66598 190 8.49932 189.6 8.29932C189.2 8.09932 188.9 7.8326 188.7 7.49927C188.5 7.2326 188.4 6.89927 188.4 6.49927C188.4 5.89927 188.666 5.36596 189.2 4.89929C189.733 4.43263 190.433 4.19922 191.3 4.19922C192.233 4.19922 192.966 4.43263 193.5 4.89929C194.033 5.36596 194.3 5.96589 194.3 6.69922H193C193 6.29922 192.833 5.96589 192.5 5.69922C192.166 5.43255 191.766 5.29932 191.3 5.29932C190.833 5.29932 190.466 5.39924 190.2 5.59924C189.866 5.86591 189.7 6.16593 189.7 6.49927C189.7 6.8326 189.833 7.06589 190.1 7.19922C190.366 7.39922 190.833 7.56589 191.5 7.69922C192.166 7.83255 192.733 7.99922 193.2 8.19922C193.6 8.46589 193.9 8.7326 194.1 8.99927C194.3 9.26593 194.4 9.63258 194.4 10.0992C194.4 10.7659 194.133 11.3327 193.6 11.7993C193 12.1993 192.266 12.3993 191.4 12.3993C190.733 12.3993 190.166 12.2992 189.7 12.0992C189.166 11.8326 188.766 11.4992 188.5 11.0992C188.233 10.6992 188.1 10.266 188.1 9.79932H189.5C189.5 10.266 189.666 10.6326 190 10.8993C190.333 11.166 190.8 11.2993 191.4 11.2993C191.866 11.2993 192.266 11.1993 192.6 10.9993C192.933 10.7993 193.1 10.5326 193.1 10.1992ZM197.5 0.999268V5.29932C198.1 4.56598 198.9 4.19922 199.9 4.19922C201.566 4.19922 202.4 5.1326 202.4 6.99927V12.2993H201.1V6.99927C201.033 6.46593 200.9 6.06598 200.7 5.79932C200.433 5.53265 200.033 5.39929 199.5 5.39929C199.033 5.39929 198.633 5.49922 198.3 5.69922C197.966 5.96589 197.7 6.26591 197.5 6.59924V12.2993H196.2V0.999268H197.5Z" fill="#777777"/>
</svg>
