<svg width="213" height="16" viewBox="0 0 213 16" fill="none" xmlns="http://www.w3.org/2000/svg">
<path d="M8.29968 1.29932V11.9993H6.89966L1.59961 3.79932V11.9993H0.0996094V1.29932H1.59961L6.89966 9.59924V1.29932H8.29968ZM18.9996 9.89929C18.9996 9.49929 18.833 9.19927 18.4996 8.99927C18.233 8.79927 17.7663 8.6326 17.0996 8.49927C16.4329 8.36593 15.8996 8.19927 15.4996 7.99927C15.0996 7.79927 14.7996 7.56598 14.5996 7.29932C14.3996 6.96598 14.2997 6.63265 14.2997 6.29932C14.2997 5.63265 14.5663 5.06591 15.0996 4.59924C15.6329 4.13258 16.3329 3.89929 17.1996 3.89929C18.1329 3.89929 18.8663 4.13258 19.3997 4.59924C19.933 5.06591 20.1996 5.66596 20.1996 6.39929H18.8997C18.8997 5.99929 18.733 5.66596 18.3997 5.39929C18.0663 5.13263 17.6663 4.99927 17.1996 4.99927C16.7329 4.99927 16.3663 5.13263 16.0996 5.39929C15.7663 5.59929 15.5996 5.86589 15.5996 6.19922C15.5996 6.53255 15.733 6.76596 15.9996 6.89929C16.2663 7.09929 16.733 7.26596 17.3997 7.39929C18.0663 7.53263 18.6329 7.7326 19.0996 7.99927C19.4996 8.19927 19.7996 8.43255 19.9996 8.69922C20.1996 9.03255 20.2997 9.39932 20.2997 9.79932C20.2997 10.5326 20.033 11.0993 19.4996 11.4993C18.8996 11.8993 18.1663 12.0992 17.2997 12.0992C16.633 12.0992 16.0663 11.9993 15.5996 11.7993C15.0663 11.5993 14.6663 11.2993 14.3997 10.8993C14.133 10.4993 13.9996 10.0659 13.9996 9.59924H15.3997C15.3997 9.99924 15.5663 10.3326 15.8997 10.5992C16.233 10.8659 16.6997 10.9993 17.2997 10.9993C17.7663 10.9993 18.1663 10.8992 18.4996 10.6992C18.833 10.4992 18.9996 10.2326 18.9996 9.89929ZM28.7997 7.99927V8.09924C28.7997 9.29924 28.4997 10.2659 27.8997 10.9993C27.3663 11.7326 26.6329 12.0992 25.6996 12.0992C24.7663 12.0992 23.9997 11.7992 23.3997 11.1992V14.9993H22.0996V4.09924H23.2997L23.3997 4.99927C23.933 4.26593 24.6996 3.89929 25.6996 3.89929C26.6329 3.89929 27.3663 4.26593 27.8997 4.99927C28.4997 5.7326 28.7997 6.7326 28.7997 7.99927ZM27.3997 7.99927C27.3997 7.06593 27.1997 6.36596 26.7997 5.89929C26.4663 5.36596 25.9663 5.09924 25.2997 5.09924C24.433 5.09924 23.7997 5.46589 23.3997 6.19922V9.99927C23.7997 10.6659 24.433 10.9993 25.2997 10.9993C25.9663 10.9993 26.4663 10.766 26.7997 10.2993C27.1997 9.76598 27.3997 8.99927 27.3997 7.99927ZM33.7997 12.0992C32.733 12.0992 31.8663 11.7659 31.1996 11.0992C30.4663 10.3659 30.0996 9.43265 30.0996 8.29932V7.99927C30.0996 7.19927 30.2663 6.49929 30.5996 5.89929C30.8663 5.29929 31.2997 4.8326 31.8997 4.49927C32.433 4.09927 32.9996 3.89929 33.5996 3.89929C34.6663 3.89929 35.4663 4.23263 35.9996 4.89929C36.5996 5.63263 36.8997 6.63263 36.8997 7.89929V8.39929H31.4996C31.4996 9.19929 31.7329 9.83265 32.1996 10.2993C32.5996 10.766 33.1663 10.9993 33.8997 10.9993C34.3663 10.9993 34.7663 10.8992 35.0996 10.6992C35.4329 10.5659 35.6997 10.3326 35.8997 9.99927L36.7997 10.5992C36.133 11.5992 35.133 12.0992 33.7997 12.0992ZM33.5996 4.99927C33.0663 4.99927 32.5996 5.19924 32.1996 5.59924C31.8663 5.99924 31.633 6.56598 31.4996 7.29932H35.4996V7.19922C35.4996 6.53255 35.333 5.99924 34.9996 5.59924C34.6663 5.19924 34.1996 4.99927 33.5996 4.99927ZM44.7997 11.9993H43.2997C43.233 11.8659 43.1663 11.5992 43.0996 11.1992C42.4996 11.7992 41.7663 12.0992 40.8997 12.0992C40.0997 12.0992 39.4663 11.8993 38.9996 11.4993C38.4663 11.0326 38.1996 10.466 38.1996 9.79932C38.1996 8.99932 38.4996 8.36596 39.0996 7.89929C39.7663 7.43263 40.6663 7.19922 41.7997 7.19922H43.0996V6.59924C43.0996 6.13258 42.9663 5.73263 42.6996 5.39929C42.4329 5.13263 41.9997 4.99927 41.3997 4.99927C40.933 4.99927 40.5329 5.13263 40.1996 5.39929C39.8663 5.66596 39.6996 5.96598 39.6996 6.29932H38.3997C38.3997 5.89932 38.533 5.49924 38.7997 5.09924C39.0663 4.76591 39.433 4.49932 39.8997 4.29932C40.433 4.03265 40.9663 3.89929 41.4996 3.89929C42.433 3.89929 43.1663 4.13258 43.6996 4.59924C44.1663 5.06591 44.433 5.69927 44.4996 6.49927V10.0992C44.4996 10.8326 44.5997 11.4326 44.7997 11.8993V11.9993ZM41.0996 10.9993C41.4996 10.9993 41.8997 10.8659 42.2997 10.5992C42.6997 10.3992 42.9663 10.1326 43.0996 9.79932V8.09924H42.0996C40.4329 8.09924 39.5996 8.59924 39.5996 9.59924C39.5996 9.99924 39.733 10.3326 39.9996 10.5992C40.2663 10.8659 40.6329 10.9993 41.0996 10.9993ZM51.5996 11.9993L48.7997 8.29932L47.9996 9.19922V11.9993H46.5996V0.699219H47.9996V7.49927L48.6996 6.69922L51.1996 4.09924H52.7997L49.6996 7.39929L53.1996 11.9993H51.5996ZM57.2997 12.0992C56.233 12.0992 55.3663 11.7659 54.6996 11.0992C54.0329 10.3659 53.6996 9.39922 53.6996 8.19922V7.99927C53.6996 7.19927 53.8329 6.49929 54.0996 5.89929C54.4329 5.29929 54.8663 4.79929 55.3997 4.39929C55.933 4.06596 56.5329 3.89929 57.1996 3.89929C58.1996 3.89929 58.9996 4.23263 59.5996 4.89929C60.1329 5.56596 60.3997 6.53265 60.3997 7.79932V8.39929H55.0996C55.0996 9.19929 55.2996 9.83265 55.6996 10.2993C56.1663 10.766 56.733 10.9993 57.3997 10.9993C57.8663 10.9993 58.2663 10.8992 58.5996 10.6992C58.9329 10.4992 59.233 10.2659 59.4996 9.99927L60.2997 10.5992C59.633 11.5992 58.633 12.0992 57.2997 12.0992ZM57.1996 4.99927C56.5996 4.99927 56.133 5.19924 55.7997 5.59924C55.3997 5.99924 55.1663 6.56598 55.0996 7.29932H59.0996V7.19922C59.0329 6.53255 58.833 5.99924 58.4996 5.59924C58.1663 5.19924 57.7329 4.99927 57.1996 4.99927ZM65.7997 3.99927V5.29932C65.5997 5.23265 65.3996 5.19922 65.1996 5.19922C64.2663 5.19922 63.633 5.59929 63.2997 6.39929V11.9993H61.9996V4.09924H63.2997V4.99927C63.7663 4.26593 64.3996 3.89929 65.1996 3.89929C65.4663 3.89929 65.6664 3.9326 65.7997 3.99927ZM77.4996 7.99927V8.09924C77.4996 9.29924 77.2329 10.2659 76.6996 10.9993C76.0996 11.7326 75.333 12.0992 74.3997 12.0992C73.3997 12.0992 72.6329 11.7659 72.0996 11.0992L71.9996 11.9993H70.7997V0.699219H72.0996V4.89929C72.6996 4.23263 73.4663 3.89929 74.3997 3.89929C75.333 3.89929 76.0996 4.26593 76.6996 4.99927C77.2329 5.7326 77.4996 6.7326 77.4996 7.99927ZM76.0996 7.99927C76.0996 7.06593 75.9329 6.33265 75.5996 5.79932C75.2663 5.33265 74.7663 5.09924 74.0996 5.09924C73.1663 5.09924 72.4996 5.49932 72.0996 6.29932V9.69922C72.5663 10.5659 73.2329 10.9993 74.0996 10.9993C74.6996 10.9993 75.1996 10.7326 75.5996 10.1992C75.9329 9.73255 76.0996 8.99927 76.0996 7.99927ZM80.6996 4.09924V11.9993H79.2997V4.09924H80.6996ZM79.1996 1.99927C79.1996 1.7326 79.2663 1.53263 79.3997 1.39929C79.533 1.26596 79.733 1.19922 79.9996 1.19922C80.2663 1.19922 80.4663 1.26596 80.5996 1.39929C80.7329 1.53263 80.7997 1.7326 80.7997 1.99927C80.7997 2.19927 80.7329 2.36593 80.5996 2.49927C80.4663 2.6326 80.2663 2.69922 79.9996 2.69922C79.733 2.69922 79.533 2.6326 79.3997 2.49927C79.2663 2.36593 79.1996 2.19927 79.1996 1.99927ZM84.3997 0.699219V11.9993H82.9996V0.699219H84.3997ZM92.8997 11.9993H91.4996C91.3663 11.7993 91.2997 11.4992 91.2997 11.0992C90.633 11.7659 89.8663 12.0992 88.9996 12.0992C88.1996 12.0992 87.5663 11.8993 87.0996 11.4993C86.5663 11.0326 86.2997 10.466 86.2997 9.79932C86.2997 8.93265 86.633 8.29929 87.2997 7.89929C87.8997 7.43263 88.7663 7.19922 89.8997 7.19922H91.1996V6.59924C91.1996 6.06591 91.0664 5.66596 90.7997 5.39929C90.533 5.13263 90.1329 4.99927 89.5996 4.99927C89.0663 4.99927 88.6663 5.13263 88.3997 5.39929C88.0663 5.59929 87.8997 5.89932 87.8997 6.29932H86.4996C86.4996 5.89932 86.633 5.49924 86.8997 5.09924C87.1663 4.76591 87.5663 4.46589 88.0996 4.19922C88.5663 3.99922 89.0663 3.89929 89.5996 3.89929C90.5329 3.89929 91.2663 4.13258 91.7997 4.59924C92.333 5.06591 92.5996 5.69927 92.5996 6.49927V10.0992C92.5996 10.8326 92.6997 11.4326 92.8997 11.8993V11.9993ZM89.1996 10.8993C89.5996 10.8993 89.9997 10.7992 90.3997 10.5992C90.7997 10.3992 91.0663 10.0992 91.1996 9.69922V8.09924H90.1996C88.5329 8.09924 87.6996 8.59924 87.6996 9.59924C87.6996 9.99924 87.8329 10.3326 88.0996 10.5992C88.3663 10.7992 88.7329 10.8993 89.1996 10.8993ZM94.6996 3.99927H95.9996V4.99927C96.6663 4.26593 97.4663 3.89929 98.3997 3.89929C100.066 3.89929 100.933 4.83255 101 6.69922V11.9993H99.5996V6.69922C99.5996 6.16589 99.4663 5.76593 99.1996 5.49927C98.9329 5.16593 98.533 4.99927 97.9996 4.99927C97.5996 4.99927 97.233 5.13263 96.8997 5.39929C96.5663 5.59929 96.2996 5.89932 96.0996 6.29932V11.9993H94.6996V3.99927ZM106.4 7.99927V7.89929C106.4 7.09929 106.533 6.39932 106.8 5.79932C107.133 5.13265 107.566 4.63265 108.1 4.29932C108.633 3.96598 109.233 3.79932 109.9 3.79932C111.033 3.79932 111.933 4.16596 112.6 4.89929C113.266 5.69929 113.6 6.69929 113.6 7.89929V7.99927C113.6 8.79927 113.433 9.49924 113.1 10.0992C112.833 10.6992 112.433 11.1659 111.9 11.4993C111.3 11.8326 110.666 11.9993 110 11.9993C108.933 11.9993 108.033 11.6326 107.3 10.8993C106.7 10.166 106.4 9.19927 106.4 7.99927ZM107.7 7.99927C107.7 8.86593 107.9 9.56591 108.3 10.0992C108.7 10.6326 109.266 10.8993 110 10.8993C110.666 10.8993 111.2 10.6326 111.6 10.0992C112 9.56591 112.2 8.83263 112.2 7.89929C112.2 7.03263 112 6.29922 111.6 5.69922C111.2 5.16589 110.633 4.89929 109.9 4.89929C109.233 4.89929 108.7 5.16589 108.3 5.69922C107.9 6.23255 107.7 6.99927 107.7 7.99927ZM115.3 3.99927H116.5L116.6 4.99927C117.2 4.19927 118 3.79932 119 3.79932C120.666 3.79932 121.5 4.76589 121.5 6.69922V11.8993H120.1V6.59924C120.1 6.06591 119.966 5.66596 119.7 5.39929C119.5 5.13263 119.133 4.99927 118.6 4.99927C118.133 4.99927 117.733 5.09932 117.4 5.29932C117.066 5.56598 116.8 5.86589 116.6 6.19922V11.8993H115.3V3.99927ZM125 0.699219V11.8993H123.7V0.699219H125ZM133.4 11.8993H132C131.933 11.766 131.866 11.4992 131.8 11.0992C131.2 11.7659 130.466 12.0992 129.6 12.0992C128.8 12.0992 128.133 11.866 127.6 11.3993C127.133 10.9326 126.9 10.3659 126.9 9.69922C126.9 8.89922 127.2 8.26598 127.8 7.79932C128.466 7.33265 129.366 7.09924 130.5 7.09924H131.8V6.49927C131.8 6.0326 131.666 5.66596 131.4 5.39929C131.133 5.06596 130.7 4.89929 130.1 4.89929C129.633 4.89929 129.233 5.03265 128.9 5.29932C128.566 5.56598 128.4 5.86589 128.4 6.19922H127.1C127.1 5.79922 127.233 5.39927 127.5 4.99927C127.766 4.66593 128.133 4.39922 128.6 4.19922C129.066 3.93255 129.6 3.79932 130.2 3.79932C131.133 3.79932 131.866 4.0326 132.4 4.49927C132.866 4.96593 133.133 5.59929 133.2 6.39929V10.0992C133.2 10.8326 133.266 11.3993 133.4 11.7993V11.8993ZM129.8 10.8993C130.2 10.8993 130.6 10.7659 131 10.4993C131.4 10.2993 131.666 10.0326 131.8 9.69922V8.09924H130.7C129.1 8.09924 128.3 8.56593 128.3 9.49927C128.3 9.89927 128.433 10.2326 128.7 10.4993C128.966 10.7659 129.333 10.8993 129.8 10.8993ZM135.8 3.99927L137.8 9.89929L139.6 3.99927H141.1L137.9 13.0992C137.366 14.4326 136.566 15.0992 135.5 15.0992H135.3L134.8 14.9993V13.8993H135.1C135.566 13.8993 135.933 13.7992 136.2 13.5992C136.466 13.4659 136.666 13.1326 136.8 12.5992L137.1 11.7993L134.3 3.99927H135.8ZM142.3 3.99927H143.6V4.99927C144.2 4.19927 145 3.79932 146 3.79932C147.666 3.79932 148.5 4.76589 148.5 6.69922V11.8993H147.2V6.69922C147.2 6.09922 147.066 5.66596 146.8 5.39929C146.533 5.13263 146.133 4.99927 145.6 4.99927C145.133 4.99927 144.733 5.09932 144.4 5.29932C144.066 5.56598 143.833 5.89932 143.7 6.29932V11.8993H142.3V3.99927ZM158.9 9.79932C158.9 9.46598 158.766 9.19927 158.5 8.99927C158.233 8.79927 157.733 8.59929 157 8.39929C156.333 8.26596 155.8 8.09929 155.4 7.89929C155 7.69929 154.7 7.46589 154.5 7.19922C154.3 6.93255 154.2 6.59922 154.2 6.19922C154.2 5.53255 154.466 4.96593 155 4.49927C155.6 4.09927 156.333 3.89929 157.2 3.89929C158.066 3.89929 158.766 4.09927 159.3 4.49927C159.9 4.96593 160.2 5.56598 160.2 6.29932H158.8C158.8 5.96598 158.633 5.66596 158.3 5.39929C158.033 5.13263 157.666 4.99927 157.2 4.99927C156.666 4.99927 156.266 5.09932 156 5.29932C155.733 5.49932 155.6 5.76591 155.6 6.09924C155.6 6.43258 155.733 6.69929 156 6.89929C156.266 7.03263 156.733 7.16598 157.4 7.29932C158.066 7.49932 158.6 7.69929 159 7.89929C159.4 8.09929 159.7 8.33258 159.9 8.59924C160.166 8.93258 160.3 9.29922 160.3 9.69922C160.3 10.4326 160 10.9993 159.4 11.3993C158.866 11.866 158.133 12.0992 157.2 12.0992C156.533 12.0992 155.966 11.9659 155.5 11.6992C155.033 11.4992 154.666 11.1993 154.4 10.7993C154.133 10.3993 154 9.96593 154 9.49927H155.3C155.3 9.96593 155.5 10.3326 155.9 10.5992C156.233 10.8659 156.666 10.9993 157.2 10.9993C157.733 10.9993 158.133 10.8992 158.4 10.6992C158.733 10.4326 158.9 10.1326 158.9 9.79932ZM168.7 7.89929V7.99927C168.7 9.26593 168.433 10.2659 167.9 10.9993C167.366 11.7326 166.6 12.0992 165.6 12.0992C164.666 12.0992 163.933 11.7992 163.4 11.1992V14.9993H162V3.99927H163.3V4.89929C163.9 4.23263 164.666 3.89929 165.6 3.89929C166.6 3.89929 167.366 4.23263 167.9 4.89929C168.433 5.63263 168.7 6.63263 168.7 7.89929ZM167.4 7.89929C167.4 7.03263 167.2 6.33265 166.8 5.79932C166.4 5.26598 165.866 4.99927 165.2 4.99927C164.4 4.99927 163.8 5.36591 163.4 6.09924V9.89929C163.8 10.6326 164.4 10.9993 165.2 10.9993C165.866 10.9993 166.4 10.7326 166.8 10.1992C167.2 9.66588 167.4 8.89929 167.4 7.89929ZM173.7 12.0992C172.633 12.0992 171.766 11.7326 171.1 10.9993C170.433 10.3326 170.1 9.39922 170.1 8.19922V7.89929C170.1 7.16596 170.233 6.46598 170.5 5.79932C170.833 5.19932 171.266 4.73263 171.8 4.39929C172.333 4.06596 172.933 3.89929 173.6 3.89929C174.6 3.89929 175.4 4.23263 176 4.89929C176.533 5.56596 176.8 6.53265 176.8 7.79932V8.29932H171.4C171.466 9.09932 171.7 9.73255 172.1 10.1992C172.566 10.7326 173.133 10.9993 173.8 10.9993C174.266 10.9993 174.666 10.8992 175 10.6992C175.333 10.4992 175.633 10.2326 175.9 9.89929L176.7 10.4993C176.033 11.5659 175.033 12.0992 173.7 12.0992ZM173.6 4.99927C173 4.99927 172.533 5.19924 172.2 5.59924C171.8 5.99924 171.566 6.53255 171.5 7.19922H175.5V7.09924C175.433 6.43258 175.233 5.89927 174.9 5.49927C174.566 5.16593 174.133 4.99927 173.6 4.99927ZM184.7 11.8993H183.3C183.233 11.766 183.166 11.4992 183.1 11.0992C182.433 11.7659 181.666 12.0992 180.8 12.0992C180.066 12.0992 179.433 11.866 178.9 11.3993C178.433 10.9326 178.2 10.3659 178.2 9.69922C178.2 8.89922 178.5 8.26598 179.1 7.79932C179.7 7.33265 180.566 7.09924 181.7 7.09924H183.1V6.49927C183.1 6.0326 182.933 5.66596 182.6 5.39929C182.333 5.06596 181.933 4.89929 181.4 4.89929C180.933 4.89929 180.533 5.03265 180.2 5.29932C179.866 5.56598 179.7 5.86589 179.7 6.19922H178.3C178.3 5.79922 178.433 5.43258 178.7 5.09924C179.033 4.69924 179.433 4.39922 179.9 4.19922C180.366 3.99922 180.9 3.89929 181.5 3.89929C182.366 3.89929 183.066 4.09927 183.6 4.49927C184.133 4.96593 184.4 5.59929 184.4 6.39929V10.0992C184.4 10.8326 184.5 11.3993 184.7 11.7993V11.8993ZM181 10.8993C181.466 10.8993 181.866 10.7659 182.2 10.4993C182.6 10.2993 182.9 10.0326 183.1 9.69922V8.09924H182C180.333 8.09924 179.5 8.56593 179.5 9.49927C179.5 9.96593 179.633 10.2993 179.9 10.4993C180.233 10.7659 180.6 10.8993 181 10.8993ZM191.5 11.8993L188.8 8.19922L187.9 9.09924V11.8993H186.5V0.699219H187.9V7.49927L188.6 6.59924L191.1 3.99927H192.7L189.7 7.29932L193.1 11.8993H191.5ZM195.6 3.99927V11.8993H194.2V3.99927H195.6ZM194.2 1.89929C194.2 1.63263 194.266 1.43265 194.4 1.29932C194.533 1.16598 194.733 1.09924 195 1.09924C195.266 1.09924 195.466 1.16598 195.6 1.29932C195.733 1.43265 195.8 1.63263 195.8 1.89929C195.8 2.09929 195.733 2.26596 195.6 2.39929C195.466 2.53263 195.266 2.59924 195 2.59924C194.733 2.59924 194.533 2.53263 194.4 2.39929C194.266 2.26596 194.2 2.09929 194.2 1.89929ZM197.8 3.99927H199.1V4.99927C199.766 4.19927 200.566 3.79932 201.5 3.79932C203.166 3.79932 204.033 4.76589 204.1 6.69922V11.8993H202.7V6.69922C202.7 6.09922 202.566 5.66596 202.3 5.39929C202.033 5.13263 201.633 4.99927 201.1 4.99927C200.633 4.99927 200.233 5.09932 199.9 5.29932C199.633 5.56598 199.4 5.89932 199.2 6.29932V11.8993H197.8V3.99927ZM205.8 7.89929C205.8 6.63263 206.066 5.66593 206.6 4.99927C207.2 4.26593 207.966 3.89929 208.9 3.89929C209.833 3.89929 210.6 4.23263 211.2 4.89929V3.99927H212.5V11.6992C212.5 12.7659 212.2 13.5992 211.6 14.1992C210.933 14.7992 210.1 15.0992 209.1 15.0992C208.5 15.0992 207.933 14.9659 207.4 14.6992C206.866 14.4326 206.466 14.0992 206.2 13.6992L206.9 12.8993C207.433 13.566 208.133 13.8993 209 13.8993C209.666 13.8993 210.166 13.7326 210.5 13.3993C210.9 12.9993 211.1 12.466 211.1 11.7993V11.0992C210.566 11.7659 209.833 12.0992 208.9 12.0992C207.966 12.0992 207.2 11.7326 206.6 10.9993C206.066 10.1993 205.8 9.16596 205.8 7.89929ZM207.1 8.09924C207.1 8.96591 207.3 9.66588 207.7 10.1992C208.033 10.6659 208.533 10.8993 209.2 10.8993C210.066 10.8993 210.7 10.5326 211.1 9.79932V6.09924C210.7 5.36591 210.066 4.99927 209.2 4.99927C208.533 4.99927 208.033 5.26598 207.7 5.79932C207.3 6.26598 207.1 7.03258 207.1 8.09924Z" fill="#777777"/>
</svg>
