<svg width="497" height="18" viewBox="0 0 497 18" fill="none" xmlns="http://www.w3.org/2000/svg">
<path d="M14.5002 1.59961H10.9002V10.2993L0.200195 0.799316V16.9995H3.80017V8.29932L14.5002 17.7993V1.59961ZM20.4002 11.1997L20.1002 13.9995H28.3002L28.0002 11.1997H20.4002ZM22.0002 12.1997L24.2002 7.19971L26.4002 12.1997L26.2002 13.1997L28.1002 16.9995H32.3002L24.2002 0.599609L16.1002 16.9995H20.3002L22.2002 12.9995L22.0002 12.1997ZM41.6002 9.99951H37.7002L42.1002 16.9995H46.4002L41.6002 9.99951ZM37.6002 1.59961H33.9002V16.9995H37.6002V1.59961ZM36.2002 1.59961V4.69971H39.3002C39.7668 4.69971 40.1669 4.76608 40.5002 4.89941C40.9002 5.09941 41.2002 5.33294 41.4002 5.59961C41.6002 5.93294 41.7002 6.29971 41.7002 6.69971C41.7002 7.16637 41.6002 7.53265 41.4002 7.79932C41.2002 8.13265 40.9002 8.36618 40.5002 8.49951C40.1669 8.63284 39.7668 8.69971 39.3002 8.69971H36.2002V11.5996H39.5002C40.8335 11.5996 41.9335 11.3995 42.8002 10.9995C43.6668 10.5328 44.3335 9.93304 44.8002 9.19971C45.2668 8.46637 45.5002 7.59961 45.5002 6.59961C45.5002 5.59961 45.2668 4.73285 44.8002 3.99951C44.3335 3.19951 43.6668 2.59971 42.8002 2.19971C41.9335 1.79971 40.8335 1.59961 39.5002 1.59961H36.2002ZM61.2002 1.59961H56.6002L54.1002 5.99951L51.7002 1.59961H47.1002L51.9002 9.09961L46.6002 16.9995H51.2002L54.1002 11.7993L56.9002 16.9995H61.5002L56.3002 9.09961L61.2002 1.59961ZM67.0002 1.59961H63.2002V16.9995H73.1002V13.7993H67.0002V1.59961ZM78.2002 11.1997L77.9002 13.9995H86.1002L85.8002 11.1997H78.2002ZM79.8002 12.1997L82.0002 7.19971L84.2002 12.1997L84.1002 13.1997L85.9002 16.9995H90.1002L82.0002 0.599609L73.9002 16.9995H78.1002L80.0002 12.9995L79.8002 12.1997ZM99.4002 9.99951H95.5002L99.9002 16.9995H104.2L99.4002 9.99951ZM95.4002 1.59961H91.7002V16.9995H95.4002V1.59961ZM94.1002 1.59961V4.69971H97.1002C97.5668 4.69971 97.9668 4.76608 98.3002 4.89941C98.7002 5.09941 99.0002 5.33294 99.2002 5.59961C99.4002 5.93294 99.5002 6.29971 99.5002 6.69971C99.5002 7.16637 99.4002 7.53265 99.2002 7.79932C99.0002 8.13265 98.7002 8.36618 98.3002 8.49951C97.9668 8.63284 97.5668 8.69971 97.1002 8.69971H94.1002V11.5996H97.3002C98.6335 11.5996 99.7335 11.3995 100.6 10.9995C101.533 10.5328 102.2 9.93304 102.6 9.19971C103.067 8.46637 103.3 7.59961 103.3 6.59961C103.3 5.59961 103.067 4.73285 102.6 3.99951C102.2 3.19951 101.533 2.59971 100.6 2.19971C99.7335 1.79971 98.6335 1.59961 97.3002 1.59961H94.1002ZM114.3 11.4995L111.7 13.3994C112.1 14.1327 112.6 14.7994 113.2 15.3994C113.867 16.0661 114.6 16.5661 115.4 16.8994C116.267 17.2327 117.2 17.3994 118.2 17.3994C118.934 17.3994 119.634 17.2996 120.3 17.0996C120.967 16.8996 121.567 16.5997 122.1 16.1997C122.7 15.7997 123.134 15.2997 123.4 14.6997C123.734 14.033 123.9 13.3329 123.9 12.5996C123.9 11.9329 123.8 11.3661 123.6 10.8994C123.4 10.3661 123.1 9.89951 122.7 9.49951C122.367 9.16618 121.967 8.86628 121.5 8.59961C121.034 8.33294 120.534 8.06598 120 7.79932C119.267 7.59932 118.633 7.36628 118.1 7.09961C117.633 6.89961 117.267 6.66608 117 6.39941C116.734 6.13275 116.6 5.83285 116.6 5.49951C116.6 5.16618 116.734 4.89971 117 4.69971C117.267 4.43304 117.667 4.29932 118.2 4.29932C118.6 4.29932 118.967 4.36618 119.3 4.49951C119.634 4.69951 119.934 4.93304 120.2 5.19971C120.534 5.46637 120.8 5.76628 121 6.09961L123.9 4.49951C123.634 4.03285 123.234 3.53285 122.7 2.99951C122.234 2.46618 121.6 2.03304 120.8 1.69971C120.067 1.36637 119.2 1.19971 118.2 1.19971C117.2 1.19971 116.267 1.36637 115.4 1.69971C114.6 2.03304 113.967 2.53304 113.5 3.19971C113.034 3.86637 112.8 4.66628 112.8 5.59961C112.8 6.33294 112.934 6.96618 113.2 7.49951C113.467 8.03285 113.834 8.49941 114.3 8.89941C114.7 9.29941 115.133 9.59932 115.6 9.79932C116.067 10.066 116.5 10.2661 116.9 10.3994C117.634 10.6661 118.234 10.8996 118.7 11.0996C119.167 11.2996 119.5 11.5326 119.7 11.7993C119.9 12.066 120 12.3993 120 12.7993C120 13.266 119.834 13.6327 119.5 13.8994C119.1 14.1661 118.633 14.2993 118.1 14.2993C117.567 14.2993 117.067 14.1661 116.6 13.8994C116.2 13.6994 115.8 13.3995 115.4 12.9995C115 12.5995 114.634 12.0995 114.3 11.4995ZM130.2 1.59961H126.4V16.9995H130.2V1.59961ZM133.1 1.59961V4.89941H139.2L132 16.9995H144.3V13.7993H137.8L145.1 1.59961H133.1ZM156.8 9.29932C156.8 8.36598 156.967 7.56608 157.3 6.89941C157.7 6.16608 158.2 5.59971 158.8 5.19971C159.467 4.79971 160.267 4.59961 161.2 4.59961C162.067 4.59961 162.834 4.79971 163.5 5.19971C164.1 5.59971 164.6 6.16608 165 6.89941C165.334 7.56608 165.5 8.36598 165.5 9.29932C165.5 10.166 165.3 10.9664 164.9 11.6997C164.567 12.3664 164.067 12.8993 163.4 13.2993C162.8 13.6993 162.067 13.8994 161.2 13.8994C160.267 13.8994 159.467 13.6993 158.8 13.2993C158.2 12.8993 157.7 12.3664 157.3 11.6997C156.967 10.9664 156.8 10.166 156.8 9.29932ZM152.9 9.29932C152.9 10.4326 153.1 11.4995 153.5 12.4995C153.9 13.4995 154.467 14.3663 155.2 15.0996C155.934 15.8329 156.8 16.3993 157.8 16.7993C158.8 17.1993 159.934 17.3994 161.2 17.3994C162.4 17.3994 163.5 17.1993 164.5 16.7993C165.5 16.3993 166.367 15.8329 167.1 15.0996C167.833 14.3663 168.4 13.4995 168.8 12.4995C169.2 11.4995 169.4 10.4326 169.4 9.29932C169.4 8.09932 169.2 6.99951 168.8 5.99951C168.4 4.99951 167.833 4.13275 167.1 3.39941C166.367 2.73275 165.467 2.19932 164.4 1.79932C163.4 1.39932 162.334 1.19971 161.2 1.19971C160 1.19971 158.9 1.39932 157.9 1.79932C156.9 2.19932 156 2.73275 155.2 3.39941C154.467 4.13275 153.9 4.99951 153.5 5.99951C153.1 6.99951 152.9 8.09932 152.9 9.29932ZM176 1.59961H172.5L171.5 8.59961H173.7L176 1.59961ZM180.6 1.59961H177.1L176.2 8.59961H178.3L180.6 1.59961ZM196.1 1.59961H191.8L188.8 7.39941L185.8 1.59961H181.5L186.9 10.6997V16.9995H190.7V10.6997L196.1 1.59961ZM201.4 1.59961H197.7V16.9995H207.6V13.7993H201.4V1.59961ZM212.7 11.1997L212.4 14.0996H220.5L220.3 11.1997H212.7ZM214.3 12.2993L216.5 7.29932L218.6 12.2993L218.5 13.1997L220.4 16.9995H224.6L216.5 0.699707L208.4 16.9995H212.6L214.5 13.0996L214.3 12.2993ZM233.1 8.59961V11.4995H237.2C237.067 11.8995 236.9 12.2663 236.7 12.5996C236.5 12.9329 236.234 13.2328 235.9 13.4995C235.567 13.7662 235.167 13.9663 234.7 14.0996C234.234 14.2329 233.734 14.2993 233.2 14.2993C232.267 14.2993 231.467 14.0997 230.8 13.6997C230.067 13.2997 229.5 12.7328 229.1 11.9995C228.7 11.2662 228.5 10.366 228.5 9.29932C228.5 8.29932 228.7 7.46598 229.1 6.79932C229.567 6.06598 230.133 5.49961 230.8 5.09961C231.534 4.69961 232.334 4.49951 233.2 4.49951C234.067 4.49951 234.8 4.69961 235.4 5.09961C236 5.49961 236.467 6.03304 236.8 6.69971L240.1 4.89941C239.633 4.23275 239.067 3.63294 238.4 3.09961C237.734 2.49961 236.967 2.06598 236.1 1.79932C235.233 1.46598 234.267 1.29932 233.2 1.29932C232 1.29932 230.867 1.49941 229.8 1.89941C228.734 2.23275 227.833 2.76618 227.1 3.49951C226.3 4.23285 225.7 5.06618 225.3 5.99951C224.834 6.99951 224.6 8.09932 224.6 9.29932C224.6 10.566 224.8 11.6997 225.2 12.6997C225.667 13.6997 226.267 14.566 227 15.2993C227.734 16.0326 228.634 16.5995 229.7 16.9995C230.7 17.3328 231.833 17.4995 233.1 17.4995C234.367 17.4995 235.5 17.266 236.5 16.7993C237.5 16.3327 238.367 15.6994 239.1 14.8994C239.767 14.0994 240.267 13.1663 240.6 12.0996C240.867 11.0329 240.967 9.86628 240.9 8.59961H233.1ZM245.4 11.1997L245.2 14.0996H253.3L253.1 11.1997H245.4ZM247 12.2993L249.1 7.29932L251.3 12.2993L251.2 13.1997L253 16.9995H257.2L249.1 0.699707L241 16.9995H245.2L247.1 13.0996L247 12.2993ZM273.1 1.69971H269.5V10.2993L258.9 0.899414V17.0996H262.5V8.39941L273.1 17.7993V1.69971ZM280.2 1.69971H276.4V17.0996H280.2V1.69971ZM278.9 17.0996H281.9C283.567 17.0996 285.034 16.7997 286.3 16.1997C287.5 15.533 288.434 14.6328 289.1 13.4995C289.767 12.3662 290.1 10.9994 290.1 9.39941C290.1 7.86608 289.767 6.49932 289.1 5.29932C288.434 4.16598 287.5 3.29971 286.3 2.69971C285.034 2.03304 283.567 1.69971 281.9 1.69971H278.9V4.99951H281.8C282.333 4.99951 282.9 5.09932 283.5 5.29932C284.034 5.43265 284.5 5.66618 284.9 5.99951C285.3 6.33285 285.634 6.76598 285.9 7.29932C286.167 7.89932 286.3 8.59941 286.3 9.39941C286.3 10.2661 286.167 10.9662 285.9 11.4995C285.634 12.0995 285.3 12.5661 284.9 12.8994C284.5 13.2327 284.034 13.4663 283.5 13.5996C282.9 13.7329 282.333 13.7993 281.8 13.7993H278.9V17.0996ZM294.5 11.2993L294.3 14.1997H302.4L302.2 11.2993H294.5ZM296.1 12.3994L298.2 7.39941L300.4 12.3994L300.3 13.2993L302.1 17.0996H306.4L298.2 0.799316L290.1 17.0996H294.3L296.3 13.1997L296.1 12.3994ZM322.1 1.69971H318.6V10.3994L307.9 0.999512V17.0996H311.5V8.49951L322.1 17.8994V1.69971ZM334.7 11.2993L334.4 14.0996H342.6L342.3 11.2993H334.7ZM336.3 12.2993L338.5 7.39941L340.7 12.3994L340.5 13.2993L342.4 17.0996H346.6L338.5 0.699707L330.4 17.0996H334.6L336.5 13.1997L336.3 12.2993ZM362.4 1.59961H358.8V10.2993L348.2 0.899414V16.9995H351.7V8.39941L362.4 17.7993V1.59961ZM368.8 9.29932C368.8 8.36598 369.034 7.56608 369.5 6.89941C369.9 6.16608 370.434 5.63265 371.1 5.29932C371.833 4.96598 372.6 4.79932 373.4 4.79932C374.134 4.79932 374.8 4.89961 375.4 5.09961C375.934 5.23294 376.434 5.46598 376.9 5.79932C377.3 6.13265 377.667 6.46598 378 6.79932V2.79932C377.4 2.33265 376.734 1.96637 376 1.69971C375.267 1.36637 374.333 1.19971 373.2 1.19971C372 1.19971 370.867 1.39932 369.8 1.79932C368.734 2.19932 367.833 2.76618 367.1 3.49951C366.367 4.16618 365.8 4.99951 365.4 5.99951C365 6.99951 364.8 8.09932 364.8 9.29932C364.8 10.4993 365 11.5996 365.4 12.5996C365.8 13.5996 366.367 14.4329 367.1 15.0996C367.833 15.8329 368.734 16.3993 369.8 16.7993C370.867 17.1993 372 17.3994 373.2 17.3994C374.333 17.3994 375.267 17.2327 376 16.8994C376.734 16.6327 377.4 16.266 378 15.7993V11.7993C377.667 12.1326 377.3 12.466 376.9 12.7993C376.434 13.066 375.934 13.2995 375.4 13.4995C374.8 13.6995 374.134 13.7993 373.4 13.7993C372.6 13.7993 371.833 13.6326 371.1 13.2993C370.434 12.966 369.9 12.433 369.5 11.6997C369.034 11.033 368.8 10.2326 368.8 9.29932ZM382.1 7.19971V10.5996H393.7V7.19971H382.1ZM395.2 1.59961H391.5V16.9995H395.2V1.59961ZM384.8 1.59961H381.1V16.9995H384.8V1.59961ZM401.1 11.1997L400.8 13.9995H409L408.7 11.1997H401.1ZM402.7 12.1997L404.9 7.29932L407.1 12.1997L406.9 13.1997L408.8 16.9995H413L404.9 0.599609L396.8 16.9995H401L402.9 12.9995L402.7 12.1997ZM423.9 11.1997L423.6 13.9995H431.7L431.5 11.1997H423.9ZM425.5 12.1997L427.7 7.29932L429.8 12.2993L429.7 13.1997L431.6 16.9995H435.8L427.7 0.599609L419.6 16.9995H423.8L425.7 13.0996L425.5 12.1997ZM445.1 9.99951H441.2L445.5 16.8994H449.9L445.1 9.99951ZM441.1 1.59961H437.4V16.9995H441.1V1.59961ZM439.7 1.59961V4.69971H442.7C443.233 4.69971 443.667 4.79951 444 4.99951C444.4 5.13284 444.667 5.36637 444.8 5.69971C445 5.96637 445.1 6.33265 445.1 6.79932C445.1 7.19932 445 7.56608 444.8 7.89941C444.667 8.16608 444.4 8.39961 444 8.59961C443.667 8.73294 443.233 8.79932 442.7 8.79932H439.7V11.6997H443C444.334 11.6997 445.434 11.4662 446.3 10.9995C447.167 10.5995 447.834 10.0326 448.3 9.29932C448.767 8.49932 449 7.59961 449 6.59961C449 5.59961 448.767 4.73285 448.3 3.99951C447.834 3.26618 447.167 2.66637 446.3 2.19971C445.434 1.79971 444.334 1.59961 443 1.59961H439.7ZM451.2 1.59961V4.89941H457.3L450.2 16.9995H462.5V13.7993H456L463.3 1.59961H451.2ZM467.2 9.29932C467.2 8.36598 467.367 7.56608 467.7 6.89941C468.033 6.16608 468.533 5.63265 469.2 5.29932C469.867 4.89932 470.634 4.69971 471.5 4.69971C472.434 4.69971 473.2 4.89932 473.8 5.29932C474.467 5.63265 474.967 6.16608 475.3 6.89941C475.7 7.56608 475.9 8.36598 475.9 9.29932C475.9 10.2326 475.7 11.033 475.3 11.6997C474.967 12.433 474.467 12.966 473.8 13.2993C473.134 13.6993 472.367 13.8994 471.5 13.8994C470.634 13.8994 469.867 13.6993 469.2 13.2993C468.533 12.966 468.033 12.433 467.7 11.6997C467.367 11.033 467.2 10.2326 467.2 9.29932ZM463.2 9.29932C463.2 10.4993 463.4 11.5996 463.8 12.5996C464.2 13.5996 464.767 14.4664 465.5 15.1997C466.3 15.933 467.2 16.4994 468.2 16.8994C469.2 17.2994 470.3 17.4995 471.5 17.4995C472.7 17.4995 473.8 17.2994 474.8 16.8994C475.867 16.4994 476.767 15.933 477.5 15.1997C478.234 14.4664 478.8 13.5996 479.2 12.5996C479.6 11.5996 479.8 10.4993 479.8 9.29932C479.8 8.09932 479.6 6.99951 479.2 5.99951C478.8 5.06618 478.2 4.23285 477.4 3.49951C476.667 2.76618 475.8 2.19932 474.8 1.79932C473.8 1.39932 472.7 1.19971 471.5 1.19971C470.367 1.19971 469.267 1.39932 468.2 1.79932C467.2 2.19932 466.333 2.76618 465.6 3.49951C464.867 4.23285 464.267 5.06618 463.8 5.99951C463.4 6.99951 463.2 8.09932 463.2 9.29932ZM496.4 1.59961H492.8V10.2993L482.2 0.799316V16.9995H485.7V8.29932L496.4 17.7993V1.59961Z" fill="#005FFD"/>
</svg>
