<svg width="62" height="14" viewBox="0 0 62 14" fill="none" xmlns="http://www.w3.org/2000/svg">
<path d="M8.20001 0.299561V10.9995H6.79999L1.40002 2.79956V10.9995H0V0.299561H1.40002L6.79999 8.59961V0.299561H8.20001ZM16.8 10.9995H15.4C15.3334 10.8662 15.2667 10.5995 15.2 10.1995C14.6 10.7995 13.8334 11.0996 12.9 11.0996C12.1667 11.0996 11.5333 10.8995 11 10.4995C10.5333 10.0328 10.3 9.46623 10.3 8.79956C10.3 7.99956 10.6 7.36608 11.2 6.89941C11.8667 6.43275 12.7667 6.19946 13.9 6.19946H15.2V5.59961C15.2 5.13294 15.0667 4.73275 14.8 4.39941C14.4667 4.13275 14.0333 3.99951 13.5 3.99951C13.0333 3.99951 12.6333 4.13275 12.3 4.39941C11.9667 4.66608 11.8 4.96623 11.8 5.29956H10.4C10.4 4.89956 10.5333 4.49961 10.8 4.09961C11.1333 3.76628 11.5333 3.49956 12 3.29956C12.4667 3.03289 13 2.89941 13.6 2.89941C14.5333 2.89941 15.2333 3.13294 15.7 3.59961C16.2333 4.06628 16.5 4.69951 16.5 5.49951V9.09961C16.5 9.83294 16.6 10.4327 16.8 10.8994V10.9995ZM13.1 9.99951C13.5666 9.99951 14 9.86628 14.4 9.59961C14.7334 9.39961 15 9.13289 15.2 8.79956V7.09961H14.1C12.4333 7.09961 11.6 7.59961 11.6 8.59961C11.6 8.99961 11.7666 9.33294 12.1 9.59961C12.3666 9.86628 12.7 9.99951 13.1 9.99951ZM19.1 1.09961H20.5V3.09961H22V4.09961H20.5V8.99951C20.5 9.33284 20.5667 9.56613 20.7 9.69946C20.8333 9.89946 21.0667 9.99951 21.4 9.99951C21.5334 9.99951 21.7333 9.96608 22 9.89941V10.9995C21.6667 11.0662 21.3333 11.0996 21 11.0996C20.4 11.0996 19.9333 10.9329 19.6 10.5996C19.2666 10.1996 19.1 9.66618 19.1 8.99951V4.09961H17.7V3.09961H19.1V1.09961ZM25 2.99951V10.8994H23.7V2.99951H25ZM23.5 0.899414C23.5 0.632747 23.5667 0.432894 23.7 0.299561C23.8333 0.166227 24.0333 0.0996094 24.3 0.0996094C24.5667 0.0996094 24.7667 0.166227 24.9 0.299561C25.0334 0.432894 25.1 0.632747 25.1 0.899414C25.1 1.09941 25.0334 1.26608 24.9 1.39941C24.7667 1.53275 24.5667 1.59961 24.3 1.59961C24.0333 1.59961 23.8333 1.53275 23.7 1.39941C23.5667 1.26608 23.5 1.09941 23.5 0.899414ZM27.7 2.99951L29.8 9.09961L31.7 2.99951H33.1L30.3 10.8994H29.2L26.4 2.99951H27.7ZM37.5 10.9995C36.4333 10.9995 35.5667 10.6662 34.9 9.99951C34.2334 9.26618 33.9 8.3328 33.9 7.19946V6.89941C33.9 6.09941 34.0333 5.39956 34.3 4.79956C34.6333 4.19956 35.0666 3.73275 35.6 3.39941C36.1333 2.99941 36.7 2.79956 37.3 2.79956C38.3667 2.79956 39.2 3.13289 39.8 3.79956C40.3333 4.53289 40.6 5.53289 40.6 6.79956V7.29956H35.2C35.2667 8.09956 35.5 8.7328 35.9 9.19946C36.3667 9.66613 36.9333 9.89941 37.6 9.89941C38.0666 9.89941 38.4667 9.79961 38.8 9.59961C39.1333 9.46628 39.4333 9.23275 39.7 8.89941L40.5 9.49951C39.8333 10.4995 38.8333 10.9995 37.5 10.9995ZM37.3 3.89941C36.7667 3.89941 36.3333 4.09951 36 4.49951C35.6 4.89951 35.3667 5.46613 35.3 6.19946H39.3V6.09961C39.2333 5.43294 39.0333 4.89951 38.7 4.49951C38.3667 4.09951 37.9 3.89941 37.3 3.89941ZM49.2 6.09961C48 5.76628 47.1333 5.36608 46.6 4.89941C46.0666 4.36608 45.8 3.73285 45.8 2.99951C45.8 2.13284 46.1333 1.43275 46.8 0.899414C47.4667 0.366081 48.3334 0.0996094 49.4 0.0996094C50.1334 0.0996094 50.8 0.232845 51.4 0.499512C51.9334 0.766178 52.3667 1.16613 52.7 1.69946C53.0333 2.16613 53.2 2.69956 53.2 3.29956H51.8C51.8 2.69956 51.5666 2.19956 51.1 1.79956C50.7 1.39956 50.1334 1.19946 49.4 1.19946C48.7334 1.19946 48.2 1.36613 47.8 1.69946C47.4 2.0328 47.2 2.46618 47.2 2.99951C47.2 3.39951 47.4 3.76628 47.8 4.09961C48.1333 4.36628 48.7333 4.63275 49.6 4.89941C50.5333 5.16608 51.2333 5.4328 51.7 5.69946C52.2333 6.0328 52.6 6.39956 52.8 6.79956C53.0667 7.19956 53.2 7.66613 53.2 8.19946C53.2 9.06613 52.8667 9.76623 52.2 10.2996C51.5333 10.7662 50.6333 10.9995 49.5 10.9995C48.7667 10.9995 48.0667 10.8663 47.4 10.5996C46.8 10.3329 46.3333 9.96618 46 9.49951C45.6 8.96618 45.4 8.39956 45.4 7.79956H46.9C46.9 8.46623 47.1333 8.96623 47.6 9.29956C48.0666 9.69956 48.7 9.89941 49.5 9.89941C50.2333 9.89941 50.8 9.73275 51.2 9.39941C51.6 9.13275 51.8 8.7328 51.8 8.19946C51.8 7.66613 51.6 7.26618 51.2 6.99951C50.8667 6.73284 50.2 6.43294 49.2 6.09961ZM61.5 6.89941V6.99951C61.5 8.19951 61.2333 9.16608 60.7 9.89941C60.1 10.6327 59.3334 10.9995 58.4 10.9995C57.4667 10.9995 56.7 10.6996 56.1 10.0996V13.8994H54.8V2.99951H56L56.1 3.89941C56.6333 3.16608 57.4 2.79956 58.4 2.79956C59.3334 2.79956 60.0666 3.16608 60.6 3.89941C61.2 4.63275 61.5 5.63275 61.5 6.89941ZM60.1 6.89941C60.1 5.96608 59.9333 5.26623 59.6 4.79956C59.2 4.26623 58.6667 3.99951 58 3.99951C57.2 3.99951 56.5666 4.36628 56.1 5.09961V8.89941C56.5666 9.56608 57.2 9.89941 58 9.89941C58.6667 9.89941 59.1667 9.66613 59.5 9.19946C59.9 8.66613 60.1 7.89941 60.1 6.89941Z" fill="white"/>
</svg>
