<svg width="801" height="137" viewBox="0 0 801 137" fill="none" xmlns="http://www.w3.org/2000/svg">
<path d="M45.7003 5.49902H33.6003V28.5991L3.10034 3.19922V50.999H15.2004V27.8989L45.7003 53.2988V5.49902ZM63.1003 41.5991C63.1003 40.9325 63.2337 40.4325 63.5004 40.0991C63.767 39.6325 64.2004 39.2991 64.8004 39.0991C65.4004 38.8991 66.2003 38.7988 67.2003 38.7988C68.667 38.7988 70.0337 38.9655 71.3004 39.2988C72.6338 39.6988 73.7337 40.2657 74.6003 40.999V36.2988C74.0003 35.6988 73.1337 35.1659 72.0004 34.6992C70.9337 34.1659 69.667 33.7323 68.2003 33.3989C66.8003 33.1323 65.267 32.999 63.6003 32.999C59.8003 32.999 56.8671 33.7989 54.8004 35.3989C52.8004 37.0656 51.8004 39.3326 51.8004 42.1992C51.8004 44.2659 52.3004 45.9989 53.3004 47.3989C54.3004 48.7989 55.6003 49.8658 57.2003 50.5991C58.867 51.2658 60.667 51.5991 62.6003 51.5991C64.5337 51.5991 66.3337 51.2658 68.0004 50.5991C69.667 49.8658 71.0004 48.8324 72.0004 47.499C73.0004 46.1657 73.5004 44.5659 73.5004 42.6992L72.4004 38.7988C72.4004 40.1322 72.1337 41.2325 71.6003 42.0991C71.067 42.9658 70.367 43.6325 69.5004 44.0991C68.6337 44.4991 67.7337 44.6992 66.8004 44.6992C66.1338 44.6992 65.5337 44.5655 65.0004 44.2988C64.4004 44.0988 63.9337 43.7655 63.6003 43.2988C63.267 42.8322 63.1003 42.2658 63.1003 41.5991ZM54.1003 23.499L57.7003 30.8989C58.1003 30.6989 58.8004 30.399 59.8004 29.999C60.8004 29.599 61.9337 29.2323 63.2003 28.8989C64.5337 28.6323 65.8337 28.499 67.1003 28.499C68.0337 28.499 68.8337 28.5988 69.5004 28.7988C70.167 28.9988 70.7337 29.2992 71.2003 29.6992C71.6003 30.0326 71.9003 30.4657 72.1003 30.999C72.3003 31.4657 72.4004 32.0326 72.4004 32.6992V50.999H83.2003V29.999C83.2003 27.9324 82.5337 26.1325 81.2003 24.5991C79.9336 23.1325 78.2004 22.0322 76.0004 21.2988C73.867 20.5655 71.4336 20.1992 68.7003 20.1992C65.8336 20.1992 63.167 20.5655 60.7003 21.2988C58.2337 21.9655 56.0337 22.699 54.1003 23.499ZM108.4 21.0991H86.9004V30.1992H108.4V21.0991ZM103 10.6992H92.3004V50.999H103V10.6992ZM111.5 10.1992C111.5 11.9326 112.1 13.3323 113.3 14.3989C114.567 15.4656 116.067 15.999 117.8 15.999C119.6 15.999 121.1 15.4656 122.3 14.3989C123.567 13.3323 124.2 11.9326 124.2 10.1992C124.2 8.46589 123.567 7.06569 122.3 5.99902C121.1 4.93236 119.6 4.39893 117.8 4.39893C116.067 4.39893 114.567 4.93236 113.3 5.99902C112.1 7.06569 111.5 8.46589 111.5 10.1992ZM123.2 21.0991H112.4V50.999H123.2V21.0991ZM138.6 21.0991H126.7L144.9 54.7988L163.2 21.0991H151.3L144.9 36.2988L138.6 21.0991ZM181.8 51.6992C185.734 51.6992 189.067 50.9323 191.8 49.3989C194.6 47.8656 196.8 45.5657 198.4 42.499L188.3 40.499C187.634 41.6324 186.7 42.4991 185.5 43.0991C184.367 43.6991 183 43.999 181.4 43.999C180.067 43.999 178.934 43.6991 178 43.0991C177.067 42.4325 176.367 41.4988 175.9 40.2988C175.434 39.1655 175.234 37.7324 175.3 35.999C175.3 34.1324 175.5 32.5989 175.9 31.3989C176.367 30.1323 177.034 29.1991 177.9 28.5991C178.767 27.9325 179.834 27.5991 181.1 27.5991C182.167 27.5991 183.067 27.8656 183.8 28.3989C184.6 28.7989 185.167 29.4322 185.5 30.2988C185.967 31.0988 186.2 32.1323 186.2 33.3989C186.2 33.6656 186.1 34.0324 185.9 34.499C185.767 34.899 185.567 35.2658 185.3 35.5991L187.7 32.6992H170.1V38.3989H198C198.067 38.0656 198.1 37.6325 198.1 37.0991C198.1 36.6325 198.1 36.1325 198.1 35.5991C198.1 32.3325 197.467 29.5989 196.2 27.3989C194.867 25.1323 192.967 23.4322 190.5 22.2988C188.034 21.0988 185 20.499 181.4 20.499C177.734 20.499 174.6 21.1323 172 22.3989C169.4 23.6656 167.4 25.4655 166 27.7988C164.667 30.0655 164 32.8325 164 36.0991C164 39.2991 164.7 42.0656 166.1 44.3989C167.5 46.7323 169.534 48.5322 172.2 49.7988C174.867 51.0655 178.067 51.6992 181.8 51.6992ZM230.5 34.3989L221.9 40.5991C222.9 42.8658 224.4 44.9322 226.4 46.7988C228.334 48.6655 230.6 50.1326 233.2 51.1992C235.934 52.1992 238.867 52.6992 242 52.6992C244.2 52.6992 246.367 52.3988 248.5 51.7988C250.567 51.1988 252.434 50.2657 254.1 48.999C255.767 47.7324 257.1 46.1989 258.1 44.3989C259.1 42.5323 259.6 40.3656 259.6 37.8989C259.6 36.0989 259.3 34.4657 258.7 32.999C258.167 31.5324 257.367 30.2325 256.3 29.0991C255.3 27.8991 254.067 26.8991 252.6 26.0991C251.2 25.2325 249.667 24.4989 248 23.8989C246.067 23.1656 244.334 22.5324 242.8 21.999C241.334 21.399 240.167 20.7658 239.3 20.0991C238.5 19.4325 238.1 18.5991 238.1 17.5991C238.1 16.7325 238.467 16.0324 239.2 15.499C239.934 14.9657 240.934 14.6992 242.2 14.6992C243.134 14.6992 244.1 14.8988 245.1 15.2988C246.034 15.6988 246.9 16.2657 247.7 16.999C248.567 17.6657 249.334 18.5659 250 19.6992L259.5 14.3989C258.7 12.7989 257.534 11.2655 256 9.79883C254.467 8.19883 252.534 6.89893 250.2 5.89893C247.867 4.89893 245.1 4.39893 241.9 4.39893C238.834 4.39893 236.034 4.89893 233.5 5.89893C230.967 6.96559 228.967 8.49902 227.5 10.499C225.967 12.4324 225.2 14.8326 225.2 17.6992C225.2 19.9659 225.6 21.9325 226.4 23.5991C227.267 25.1991 228.334 26.5659 229.6 27.6992C230.934 28.8326 232.267 29.7657 233.6 30.499C235 31.1657 236.267 31.7326 237.4 32.1992C239.734 33.0659 241.5 33.7989 242.7 34.3989C244.034 34.9989 244.967 35.5992 245.5 36.1992C245.967 36.7992 246.2 37.5323 246.2 38.3989C246.2 39.5989 245.767 40.5326 244.9 41.1992C243.967 41.7992 242.8 42.0991 241.4 42.0991C240 42.0991 238.634 41.7992 237.3 41.1992C235.967 40.5992 234.734 39.7325 233.6 38.5991C232.467 37.3991 231.434 35.9989 230.5 34.3989ZM265.5 65.2988H276.7V21.0991H265.5V65.2988ZM301 36.0991C301 32.4991 300.3 29.5326 298.9 27.1992C297.567 24.7992 295.834 22.9988 293.7 21.7988C291.567 20.5988 289.3 19.999 286.9 19.999C284.3 19.999 282.034 20.6657 280.1 21.999C278.234 23.3324 276.8 25.1991 275.8 27.5991C274.867 29.9991 274.4 32.8325 274.4 36.0991C274.4 39.2991 274.867 42.099 275.8 44.499C276.8 46.9657 278.234 48.8659 280.1 50.1992C282.034 51.5326 284.3 52.1992 286.9 52.1992C289.3 52.1992 291.567 51.5989 293.7 50.3989C295.834 49.1989 297.567 47.399 298.9 44.999C300.3 42.599 301 39.6325 301 36.0991ZM289.1 36.0991C289.1 37.3658 288.834 38.499 288.3 39.499C287.767 40.4324 287 41.1325 286 41.5991C285.067 42.0658 284 42.2988 282.8 42.2988C281.8 42.2988 280.834 42.0992 279.9 41.6992C279.034 41.2326 278.267 40.5325 277.6 39.5991C277 38.6658 276.7 37.4991 276.7 36.0991C276.7 34.6991 277 33.5325 277.6 32.5991C278.267 31.6658 279.034 30.9991 279.9 30.5991C280.834 30.1325 281.8 29.8989 282.8 29.8989C284 29.8989 285.067 30.1325 286 30.5991C287 31.0658 287.767 31.7659 288.3 32.6992C288.834 33.6326 289.1 34.7658 289.1 36.0991ZM322.8 51.6992C326.8 51.6992 330.167 50.9323 332.9 49.3989C335.7 47.8656 337.9 45.5657 339.5 42.499L329.3 40.499C328.634 41.6324 327.734 42.4991 326.6 43.0991C325.467 43.6991 324.067 43.999 322.4 43.999C321.067 43.999 319.934 43.6991 319 43.0991C318.134 42.4325 317.467 41.4988 317 40.2988C316.534 39.1655 316.3 37.7324 316.3 35.999C316.3 34.1324 316.534 32.5989 317 31.3989C317.4 30.1323 318.034 29.1991 318.9 28.5991C319.767 27.9325 320.867 27.5991 322.2 27.5991C323.2 27.5991 324.067 27.8656 324.8 28.3989C325.6 28.7989 326.2 29.4322 326.6 30.2988C327 31.0988 327.2 32.1323 327.2 33.3989C327.2 33.6656 327.134 34.0324 327 34.499C326.8 34.899 326.6 35.2658 326.4 35.5991L328.8 32.6992H311.2V38.3989H339.1C339.1 38.0656 339.1 37.6325 339.1 37.0991C339.167 36.6325 339.2 36.1325 339.2 35.5991C339.2 32.3325 338.534 29.5989 337.2 27.3989C335.934 25.1323 334.067 23.4322 331.6 22.2988C329.134 21.0988 326.067 20.499 322.4 20.499C318.8 20.499 315.7 21.1323 313.1 22.3989C310.5 23.6656 308.5 25.4655 307.1 27.7988C305.7 30.0655 305 32.8325 305 36.0991C305 39.2991 305.734 42.0656 307.2 44.3989C308.6 46.7323 310.634 48.5322 313.3 49.7988C315.967 51.0655 319.134 51.6992 322.8 51.6992ZM354.1 41.6992C354.1 41.0326 354.234 40.4991 354.5 40.0991C354.767 39.6991 355.2 39.3992 355.8 39.1992C356.4 38.9326 357.2 38.7988 358.2 38.7988C359.667 38.7988 361.034 38.9989 362.3 39.3989C363.634 39.7989 364.734 40.3658 365.6 41.0991V36.3989C365 35.7323 364.167 35.1659 363.1 34.6992C361.967 34.2326 360.667 33.8324 359.2 33.499C357.8 33.1657 356.267 32.999 354.6 32.999C350.8 32.999 347.867 33.8324 345.8 35.499C343.8 37.1657 342.8 39.4322 342.8 42.2988C342.8 44.2988 343.3 46.0324 344.3 47.499C345.3 48.899 346.6 49.9659 348.2 50.6992C349.867 51.3659 351.667 51.6992 353.6 51.6992C355.6 51.6992 357.4 51.3659 359 50.6992C360.734 49.9659 362.067 48.9325 363 47.5991C364 46.2658 364.5 44.6326 364.5 42.6992L363.4 38.7988C363.4 40.1322 363.134 41.2659 362.6 42.1992C362.067 43.0659 361.367 43.7326 360.5 44.1992C359.634 44.5326 358.734 44.6992 357.8 44.6992C357.134 44.6992 356.534 44.5989 356 44.3989C355.4 44.1323 354.934 43.7989 354.6 43.3989C354.267 42.9323 354.1 42.3659 354.1 41.6992ZM345.1 23.5991L348.7 30.999C349.1 30.7324 349.8 30.4325 350.8 30.0991C351.8 29.6991 352.934 29.3324 354.2 28.999C355.534 28.7324 356.834 28.5991 358.1 28.5991C359.034 28.5991 359.834 28.6989 360.5 28.8989C361.234 29.0323 361.8 29.2992 362.2 29.6992C362.667 30.0326 362.967 30.4657 363.1 30.999C363.3 31.5324 363.4 32.1322 363.4 32.7988V50.999H374.2V30.0991C374.2 27.9658 373.534 26.1659 372.2 24.6992C370.934 23.2326 369.2 22.1323 367 21.3989C364.867 20.5989 362.434 20.1992 359.7 20.1992C356.834 20.1992 354.167 20.5655 351.7 21.2988C349.234 22.0322 347.034 22.7991 345.1 23.5991ZM391.8 0.298828H381.1V50.999H391.8V0.298828ZM415.8 21.0991H402.6L389.8 33.499L404.1 50.999H417.1L403.2 33.499L415.8 21.0991ZM436.5 51.5991C440.5 51.5991 443.867 50.8656 446.6 49.3989C449.334 47.8656 451.5 45.5657 453.1 42.499L443 40.499C442.334 41.6324 441.434 42.4991 440.3 43.0991C439.167 43.6325 437.767 43.8989 436.1 43.8989C434.767 43.8989 433.634 43.599 432.7 42.999C431.834 42.3324 431.134 41.4322 430.6 40.2988C430.134 39.0988 429.934 37.6657 430 35.999C430 34.0657 430.2 32.4988 430.6 31.2988C431.067 30.0322 431.734 29.099 432.6 28.499C433.467 27.899 434.534 27.5991 435.8 27.5991C436.867 27.5991 437.767 27.8322 438.5 28.2988C439.3 28.7655 439.9 29.4322 440.3 30.2988C440.7 31.0988 440.9 32.0988 440.9 33.2988C440.9 33.6322 440.834 33.9989 440.7 34.3989C440.5 34.8656 440.3 35.2658 440.1 35.5991L442.5 32.5991H424.9V38.3989H452.7C452.767 37.9989 452.8 37.5658 452.8 37.0991C452.867 36.5658 452.9 36.0324 452.9 35.499C452.9 32.299 452.234 29.5655 450.9 27.2988C449.634 25.0988 447.767 23.3992 445.3 22.1992C442.834 20.9992 439.767 20.3989 436.1 20.3989C432.434 20.3989 429.3 21.0322 426.7 22.2988C424.1 23.5655 422.134 25.3659 420.8 27.6992C419.4 30.0326 418.7 32.799 418.7 35.999C418.7 39.2657 419.4 42.0656 420.8 44.3989C422.267 46.6656 424.3 48.4655 426.9 49.7988C429.634 50.9988 432.834 51.5991 436.5 51.5991ZM469.6 50.999V21.0991H458.7V50.999H469.6ZM478.1 32.5991L482.8 22.8989C482.267 22.1656 481.5 21.5658 480.5 21.0991C479.5 20.5658 478.467 20.2988 477.4 20.2988C475.667 20.2988 474 20.8657 472.4 21.999C470.867 23.0657 469.6 24.5323 468.6 26.3989C467.667 28.2656 467.2 30.3988 467.2 32.7988L469.6 37.2988C469.6 35.8322 469.767 34.6326 470.1 33.6992C470.567 32.7659 471.167 32.0658 471.9 31.5991C472.634 31.0658 473.434 30.7988 474.3 30.7988C475.167 30.7988 475.867 30.9989 476.4 31.3989C477.067 31.6656 477.634 32.0658 478.1 32.5991ZM506.1 32.7988V50.999H517.9V31.5991C517.9 28.0658 517.067 25.3323 515.4 23.3989C513.734 21.3989 510.967 20.3989 507.1 20.3989C504.767 20.3989 502.834 20.8655 501.3 21.7988C499.834 22.7322 498.7 23.9657 497.9 25.499V21.0991H486.7V50.999H497.9V32.7988C497.9 31.7322 498.067 30.8325 498.4 30.0991C498.8 29.3658 499.334 28.7989 500 28.3989C500.667 28.0656 501.434 27.8989 502.3 27.8989C503.767 27.8989 504.767 28.3326 505.3 29.1992C505.834 30.0659 506.1 31.2655 506.1 32.7988ZM524.2 10.1992C524.2 11.9326 524.8 13.3323 526 14.3989C527.267 15.4656 528.767 15.999 530.5 15.999C532.3 15.999 533.8 15.4656 535 14.3989C536.267 13.3323 536.9 11.9326 536.9 10.1992C536.9 8.46589 536.267 7.06569 535 5.99902C533.8 4.93236 532.3 4.39893 530.5 4.39893C528.767 4.39893 527.267 4.93236 526 5.99902C524.8 7.06569 524.2 8.46589 524.2 10.1992ZM535.9 21.0991H525.1V50.999H535.9V21.0991ZM562.7 32.7988V50.999H574.5V31.5991C574.5 28.0658 573.667 25.3323 572 23.3989C570.334 21.3989 567.567 20.3989 563.7 20.3989C561.367 20.3989 559.467 20.8655 558 21.7988C556.467 22.7322 555.3 23.9657 554.5 25.499V21.0991H543.3V50.999H554.5V32.7988C554.5 31.7322 554.667 30.8325 555 30.0991C555.4 29.3658 555.934 28.7989 556.6 28.3989C557.267 28.0656 558.034 27.8989 558.9 27.8989C560.367 27.8989 561.367 28.3326 561.9 29.1992C562.434 30.0659 562.7 31.2655 562.7 32.7988ZM591.5 53.1992H580.7C581.034 55.8659 581.8 58.2322 583 60.2988C584.2 62.2988 586 63.8657 588.4 64.999C590.867 66.1324 594.1 66.6992 598.1 66.6992C601.3 66.6992 604.134 66.1658 606.6 65.0991C609.2 64.0325 611.267 62.2989 612.8 59.8989C614.267 57.4989 615 54.2988 615 50.2988V21.0991H604.3V50.2988C604.3 51.9655 604 53.3657 603.4 54.499C602.8 55.6324 602 56.4991 601 57.0991C600 57.6991 598.834 57.999 597.5 57.999C596.434 57.999 595.467 57.8324 594.6 57.499C593.734 57.1657 593.034 56.6657 592.5 55.999C592.034 55.3324 591.7 54.3992 591.5 53.1992ZM580.1 35.499C580.1 38.899 580.767 41.7324 582.1 43.999C583.5 46.199 585.234 47.8657 587.3 48.999C589.5 50.0657 591.767 50.5991 594.1 50.5991C596.634 50.5991 598.867 50.0323 600.8 48.8989C602.734 47.6989 604.267 45.9659 605.4 43.6992C606.6 41.4326 607.2 38.699 607.2 35.499C607.2 32.299 606.6 29.5655 605.4 27.2988C604.267 25.0988 602.734 23.3992 600.8 22.1992C598.867 20.9992 596.634 20.3989 594.1 20.3989C591.767 20.3989 589.5 20.9658 587.3 22.0991C585.234 23.2325 583.5 24.8991 582.1 27.0991C580.767 29.2991 580.1 32.099 580.1 35.499ZM591.9 35.499C591.9 34.1657 592.167 33.0325 592.7 32.0991C593.3 31.1658 594.067 30.4657 595 29.999C595.934 29.5324 596.967 29.2988 598.1 29.2988C598.834 29.2988 599.567 29.4326 600.3 29.6992C601.034 29.8992 601.734 30.2655 602.4 30.7988C603 31.3322 603.467 31.9659 603.8 32.6992C604.134 33.4992 604.3 34.4324 604.3 35.499C604.3 36.9657 604 38.1324 603.4 38.999C602.8 39.9324 602.034 40.6325 601.1 41.0991C600.1 41.5658 599.1 41.7988 598.1 41.7988C596.967 41.7988 595.934 41.5658 595 41.0991C594.067 40.5658 593.3 39.8323 592.7 38.8989C592.167 37.9656 591.9 36.8324 591.9 35.499ZM9.00037 104.399L0.400391 110.599C1.40039 112.866 2.86702 114.932 4.80035 116.799C6.73369 118.599 9.03371 120.032 11.7004 121.099C14.367 122.166 17.2671 122.699 20.4004 122.699C22.6004 122.699 24.7671 122.399 26.9004 121.799C29.0337 121.132 30.9337 120.199 32.6003 118.999C34.267 117.732 35.567 116.165 36.5004 114.299C37.5004 112.432 38.0004 110.299 38.0004 107.899C38.0004 106.032 37.7337 104.366 37.2003 102.899C36.6003 101.432 35.8004 100.132 34.8004 98.999C33.7337 97.8657 32.5003 96.8657 31.1003 95.999C29.7003 95.1324 28.167 94.3988 26.5004 93.7988C24.5004 93.1322 22.767 92.4989 21.3004 91.8989C19.767 91.2989 18.567 90.6991 17.7004 90.0991C16.9004 89.3658 16.5004 88.499 16.5004 87.499C16.5004 86.6324 16.867 85.9323 17.6003 85.3989C18.3337 84.9323 19.3337 84.6992 20.6003 84.6992C21.6003 84.6992 22.567 84.8659 23.5004 85.1992C24.5004 85.5992 25.4004 86.1656 26.2004 86.8989C27.067 87.6323 27.8337 88.5325 28.5004 89.5991L38.0004 84.2988C37.1337 82.7655 35.9337 81.2326 34.4004 79.6992C32.9337 78.1659 31.0337 76.8989 28.7004 75.8989C26.367 74.8323 23.567 74.2988 20.3004 74.2988C17.2337 74.2988 14.467 74.8323 12.0004 75.8989C9.46703 76.8989 7.43372 78.3989 5.90039 80.3989C4.36706 82.3989 3.60034 84.8326 3.60034 87.6992C3.60034 89.8992 4.03372 91.8324 4.90039 93.499C5.76706 95.1657 6.83368 96.5659 8.10034 97.6992C9.36701 98.8326 10.7003 99.7657 12.1003 100.499C13.5003 101.166 14.7671 101.699 15.9004 102.099C18.1671 102.966 19.9337 103.732 21.2004 104.399C22.467 104.999 23.3671 105.599 23.9004 106.199C24.4337 106.733 24.7004 107.432 24.7004 108.299C24.7004 109.499 24.2337 110.432 23.3004 111.099C22.4337 111.699 21.3004 111.999 19.9004 111.999C18.4337 111.999 17.0337 111.699 15.7004 111.099C14.367 110.499 13.1337 109.632 12.0004 108.499C10.867 107.366 9.86703 105.999 9.00037 104.399ZM43.9004 135.299H55.2003V91.0991H43.9004V135.299ZM79.4004 105.999C79.4004 102.466 78.7004 99.4991 77.3004 97.0991C75.9671 94.7658 74.2337 92.9659 72.1003 91.6992C70.0337 90.4992 67.8004 89.8989 65.4004 89.8989C62.7337 89.8989 60.467 90.5656 58.6003 91.8989C56.7337 93.2989 55.3004 95.1991 54.3004 97.5991C53.3004 99.9991 52.8004 102.799 52.8004 105.999C52.8004 109.266 53.3004 112.099 54.3004 114.499C55.3004 116.899 56.7337 118.799 58.6003 120.199C60.467 121.533 62.7337 122.199 65.4004 122.199C67.8004 122.199 70.0337 121.565 72.1003 120.299C74.2337 119.099 75.9671 117.332 77.3004 114.999C78.7004 112.599 79.4004 109.599 79.4004 105.999ZM67.6003 105.999C67.6003 107.332 67.3337 108.466 66.8004 109.399C66.2004 110.399 65.4337 111.132 64.5004 111.599C63.5004 112.066 62.4338 112.299 61.3004 112.299C60.3004 112.299 59.3337 112.066 58.4004 111.599C57.4671 111.132 56.7003 110.466 56.1003 109.599C55.5003 108.666 55.2003 107.466 55.2003 105.999C55.2003 104.599 55.5003 103.432 56.1003 102.499C56.7003 101.632 57.4671 100.966 58.4004 100.499C59.3337 100.032 60.3004 99.7988 61.3004 99.7988C62.4338 99.7988 63.5004 100.032 64.5004 100.499C65.4337 100.966 66.2004 101.699 66.8004 102.699C67.3337 103.566 67.6003 104.666 67.6003 105.999ZM101.3 121.599C105.234 121.599 108.567 120.866 111.3 119.399C114.1 117.866 116.3 115.566 117.9 112.499L107.8 110.499C107.134 111.632 106.2 112.499 105 113.099C103.867 113.632 102.5 113.899 100.9 113.899C99.5671 113.899 98.4337 113.599 97.5004 112.999C96.567 112.332 95.8671 111.432 95.4004 110.299C94.9337 109.099 94.7337 107.666 94.8004 105.999C94.8004 104.066 95.0004 102.499 95.4004 101.299C95.8671 100.032 96.5337 99.099 97.4004 98.499C98.2671 97.899 99.3337 97.5991 100.6 97.5991C101.667 97.5991 102.567 97.8322 103.3 98.2988C104.1 98.7655 104.667 99.4322 105 100.299C105.467 101.099 105.7 102.099 105.7 103.299C105.7 103.632 105.6 103.999 105.4 104.399C105.267 104.866 105.067 105.266 104.8 105.599L107.2 102.599H89.6003V108.399H117.5C117.567 107.999 117.6 107.566 117.6 107.099C117.6 106.566 117.6 106.032 117.6 105.499C117.6 102.299 116.967 99.5655 115.7 97.2988C114.367 95.0988 112.467 93.3992 110 92.1992C107.534 90.9992 104.5 90.3989 100.9 90.3989C97.2337 90.3989 94.1004 91.0322 91.5004 92.2988C88.9004 93.5655 86.9004 95.3659 85.5004 97.6992C84.167 100.033 83.5004 102.799 83.5004 105.999C83.5004 109.266 84.2003 112.066 85.6003 114.399C87.0003 116.666 89.0337 118.465 91.7003 119.799C94.367 120.999 97.5671 121.599 101.3 121.599ZM132.6 111.599C132.6 110.999 132.734 110.499 133 110.099C133.267 109.632 133.7 109.299 134.3 109.099C134.9 108.899 135.7 108.799 136.7 108.799C138.1 108.799 139.467 108.999 140.8 109.399C142.067 109.732 143.134 110.299 144 111.099V106.299C143.467 105.699 142.634 105.166 141.5 104.699C140.434 104.166 139.167 103.732 137.7 103.399C136.234 103.132 134.7 102.999 133.1 102.999C129.234 102.999 126.3 103.832 124.3 105.499C122.3 107.099 121.3 109.333 121.3 112.199C121.3 114.266 121.8 115.999 122.8 117.399C123.8 118.799 125.1 119.866 126.7 120.599C128.367 121.266 130.134 121.599 132 121.599C134 121.599 135.834 121.266 137.5 120.599C139.167 119.932 140.467 118.932 141.4 117.599C142.4 116.199 142.9 114.566 142.9 112.699L141.9 108.799C141.9 110.132 141.6 111.266 141 112.199C140.534 113.066 139.867 113.699 139 114.099C138.134 114.499 137.2 114.699 136.2 114.699C135.6 114.699 135 114.599 134.4 114.399C133.867 114.132 133.434 113.765 133.1 113.299C132.767 112.832 132.6 112.266 132.6 111.599ZM123.6 93.5991L127.1 100.899C127.5 100.699 128.2 100.399 129.2 99.999C130.2 99.599 131.367 99.2657 132.7 98.999C134.034 98.6657 135.334 98.499 136.6 98.499C137.467 98.499 138.267 98.5988 139 98.7988C139.667 98.9988 140.234 99.2992 140.7 99.6992C141.1 100.033 141.4 100.466 141.6 100.999C141.8 101.532 141.9 102.099 141.9 102.699V120.999H152.6V100.099C152.6 97.9658 151.967 96.1659 150.7 94.6992C149.434 93.2326 147.7 92.1323 145.5 91.3989C143.3 90.5989 140.834 90.1992 138.1 90.1992C135.3 90.1992 132.634 90.5655 130.1 91.2988C127.634 91.9655 125.467 92.7325 123.6 93.5991ZM170.2 70.2988H159.5V120.999H170.2V70.2988ZM194.3 91.0991H181L168.3 103.399L182.6 120.999H195.6L181.6 103.399L194.3 91.0991ZM199 80.2988C199 81.9655 199.6 83.3657 200.8 84.499C202.067 85.5657 203.567 86.0991 205.3 86.0991C207.1 86.0991 208.6 85.5657 209.8 84.499C211.067 83.3657 211.7 81.9655 211.7 80.2988C211.7 78.5655 211.067 77.1658 209.8 76.0991C208.6 74.9658 207.1 74.3989 205.3 74.3989C203.567 74.3989 202.067 74.9658 200.8 76.0991C199.6 77.1658 199 78.5655 199 80.2988ZM210.7 91.0991H199.9V120.999H210.7V91.0991ZM237.5 102.799V120.999H249.2V101.699C249.2 98.0992 248.4 95.3323 246.8 93.3989C245.134 91.3989 242.334 90.3989 238.4 90.3989C236.134 90.3989 234.234 90.8989 232.7 91.8989C231.234 92.7656 230.1 93.9991 229.3 95.5991V91.0991H218V120.999H229.3V102.799C229.3 101.732 229.467 100.832 229.8 100.099C230.2 99.3658 230.734 98.8324 231.4 98.499C232.067 98.1657 232.834 97.999 233.7 97.999C235.167 97.999 236.167 98.4322 236.7 99.2988C237.234 100.099 237.5 101.265 237.5 102.799ZM266.3 123.299H255.5C255.767 125.899 256.5 128.232 257.7 130.299C258.967 132.365 260.8 133.966 263.2 135.099C265.6 136.232 268.8 136.799 272.8 136.799C276 136.799 278.867 136.266 281.4 135.199C283.934 134.066 285.967 132.332 287.5 129.999C289.034 127.532 289.8 124.332 289.8 120.399V91.0991H279.1V120.399C279.1 122.066 278.8 123.466 278.2 124.599C277.6 125.666 276.8 126.533 275.8 127.199C274.8 127.733 273.6 127.999 272.2 127.999C271.2 127.999 270.267 127.832 269.4 127.499C268.534 127.232 267.834 126.766 267.3 126.099C266.767 125.366 266.434 124.432 266.3 123.299ZM254.8 105.599C254.8 108.932 255.467 111.732 256.8 113.999C258.2 116.199 259.967 117.866 262.1 118.999C264.3 120.132 266.567 120.699 268.9 120.699C271.367 120.699 273.6 120.099 275.6 118.899C277.534 117.699 279.067 115.999 280.2 113.799C281.334 111.532 281.9 108.799 281.9 105.599C281.9 102.332 281.334 99.5989 280.2 97.3989C279.067 95.1323 277.534 93.4322 275.6 92.2988C273.6 91.0988 271.367 90.499 268.9 90.499C266.567 90.499 264.3 91.0659 262.1 92.1992C259.967 93.2659 258.2 94.8991 256.8 97.0991C255.467 99.2991 254.8 102.132 254.8 105.599ZM266.7 105.599C266.7 104.266 266.967 103.133 267.5 102.199C268.034 101.266 268.8 100.566 269.8 100.099C270.734 99.5658 271.767 99.2988 272.9 99.2988C273.634 99.2988 274.367 99.4325 275.1 99.6992C275.834 99.9659 276.5 100.332 277.1 100.799C277.7 101.332 278.167 101.999 278.5 102.799C278.9 103.599 279.1 104.532 279.1 105.599C279.1 106.999 278.8 108.166 278.2 109.099C277.534 110.032 276.734 110.733 275.8 111.199C274.867 111.599 273.9 111.799 272.9 111.799C271.767 111.799 270.734 111.566 269.8 111.099C268.8 110.632 268.034 109.932 267.5 108.999C266.967 107.999 266.7 106.866 266.7 105.599ZM350.2 70.2988H339V120.999H350.2V70.2988ZM314.8 106.099C314.8 109.499 315.467 112.366 316.8 114.699C318.134 116.966 319.867 118.699 322 119.899C324.2 121.099 326.467 121.699 328.8 121.699C331.334 121.699 333.567 121.065 335.5 119.799C337.434 118.532 338.967 116.732 340.1 114.399C341.3 112.066 341.9 109.299 341.9 106.099C341.9 102.832 341.3 100.065 340.1 97.7988C338.967 95.4655 337.434 93.6656 335.5 92.3989C333.567 91.1323 331.334 90.499 328.8 90.499C326.467 90.499 324.2 91.0988 322 92.2988C319.867 93.4988 318.134 95.2324 316.8 97.499C315.467 99.8324 314.8 102.699 314.8 106.099ZM326.6 106.099C326.6 104.766 326.867 103.599 327.4 102.599C328 101.532 328.767 100.733 329.7 100.199C330.634 99.5992 331.667 99.2988 332.8 99.2988C333.8 99.2988 334.767 99.5992 335.7 100.199C336.7 100.733 337.5 101.499 338.1 102.499C338.7 103.499 339 104.699 339 106.099C339 107.499 338.7 108.699 338.1 109.699C337.5 110.699 336.7 111.499 335.7 112.099C334.767 112.632 333.8 112.899 332.8 112.899C331.667 112.899 330.634 112.599 329.7 111.999C328.767 111.466 328 110.666 327.4 109.599C326.867 108.532 326.6 107.366 326.6 106.099ZM366.5 111.699C366.5 111.033 366.634 110.499 366.9 110.099C367.167 109.699 367.6 109.399 368.2 109.199C368.8 108.933 369.6 108.799 370.6 108.799C372 108.799 373.367 108.999 374.7 109.399C375.967 109.799 377.034 110.366 377.9 111.099V106.399C377.367 105.732 376.534 105.166 375.4 104.699C374.334 104.233 373.067 103.832 371.6 103.499C370.134 103.166 368.567 102.999 366.9 102.999C363.1 102.999 360.2 103.832 358.2 105.499C356.2 107.166 355.2 109.432 355.2 112.299C355.2 114.299 355.7 116.032 356.7 117.499C357.7 118.899 359 119.966 360.6 120.699C362.2 121.366 363.967 121.699 365.9 121.699C367.9 121.699 369.734 121.366 371.4 120.699C373.067 119.966 374.367 118.932 375.3 117.599C376.3 116.266 376.8 114.633 376.8 112.699L375.8 108.799C375.8 110.132 375.5 111.266 374.9 112.199C374.434 113.066 373.767 113.733 372.9 114.199C372.034 114.533 371.1 114.699 370.1 114.699C369.5 114.699 368.9 114.599 368.3 114.399C367.767 114.132 367.3 113.799 366.9 113.399C366.634 112.932 366.5 112.366 366.5 111.699ZM357.5 93.5991L361 100.999C361.4 100.732 362.1 100.432 363.1 100.099C364.1 99.6991 365.267 99.3324 366.6 98.999C367.934 98.7324 369.234 98.5991 370.5 98.5991C371.367 98.5991 372.167 98.6989 372.9 98.8989C373.567 99.0323 374.134 99.2992 374.6 99.6992C375 100.033 375.3 100.466 375.5 100.999C375.7 101.532 375.8 102.132 375.8 102.799V120.999H386.5V100.099C386.5 97.9658 385.867 96.1659 384.6 94.6992C383.334 93.2326 381.6 92.1323 379.4 91.3989C377.2 90.5989 374.734 90.1992 372 90.1992C369.2 90.1992 366.534 90.5655 364 91.2988C361.534 92.0322 359.367 92.7991 357.5 93.5991ZM404.5 120.999V91.0991H393.5V120.999H404.5ZM413 102.699L417.7 92.999C417.167 92.2657 416.434 91.6325 415.5 91.0991C414.5 90.6325 413.434 90.3989 412.3 90.3989C410.567 90.3989 408.9 90.9658 407.3 92.0991C405.767 93.1658 404.534 94.6324 403.6 96.499C402.6 98.3657 402.1 100.465 402.1 102.799L404.5 107.299C404.5 105.899 404.7 104.732 405.1 103.799C405.5 102.799 406.067 102.066 406.8 101.599C407.534 101.132 408.334 100.899 409.2 100.899C410.067 100.899 410.8 101.066 411.4 101.399C412 101.732 412.534 102.166 413 102.699ZM423.3 109.699L419.2 117.299C420.734 118.299 422.334 119.199 424 119.999C425.734 120.799 427.534 121.399 429.4 121.799C431.4 122.265 433.467 122.499 435.6 122.499C439.334 122.499 442.2 121.699 444.2 120.099C446.2 118.499 447.2 115.999 447.2 112.599C447.2 110.732 446.8 109.232 446 108.099C445.2 106.966 444.167 106.066 442.9 105.399C441.634 104.666 440.234 103.999 438.7 103.399C437.1 102.799 435.8 102.332 434.8 101.999C433.734 101.666 432.934 101.332 432.4 100.999C431.867 100.599 431.6 100.099 431.6 99.499C431.6 99.0324 431.8 98.6656 432.2 98.3989C432.534 98.0656 433.134 97.8989 434 97.8989C435.267 97.8989 436.767 98.2991 438.5 99.0991C440.234 99.8325 441.767 100.799 443.1 101.999L446.5 94.499C445.1 93.7657 443.734 93.099 442.4 92.499C441 91.899 439.5 91.4325 437.9 91.0991C436.434 90.6991 434.8 90.499 433 90.499C430.734 90.499 428.734 90.8324 427 91.499C425.267 92.1657 423.9 93.1657 422.9 94.499C421.9 95.699 421.4 97.2325 421.4 99.0991C421.4 101.099 421.767 102.732 422.5 103.999C423.367 105.199 424.434 106.166 425.7 106.899C427.034 107.566 428.4 108.132 429.8 108.599C431.534 109.199 432.834 109.699 433.7 110.099C434.634 110.432 435.234 110.799 435.5 111.199C435.9 111.599 436.1 112.032 436.1 112.499C436.1 113.099 435.9 113.599 435.5 113.999C435.1 114.332 434.5 114.499 433.7 114.499C433.167 114.499 432.4 114.399 431.4 114.199C430.467 113.933 429.334 113.465 428 112.799C426.667 112.132 425.1 111.099 423.3 109.699ZM451.5 80.2988C451.5 81.9655 452.1 83.3657 453.3 84.499C454.567 85.5657 456.067 86.0991 457.8 86.0991C459.534 86.0991 461.034 85.5657 462.3 84.499C463.5 83.3657 464.1 81.9655 464.1 80.2988C464.1 78.5655 463.5 77.1658 462.3 76.0991C461.034 74.9658 459.534 74.3989 457.8 74.3989C456.067 74.3989 454.567 74.9658 453.3 76.0991C452.1 77.1658 451.5 78.5655 451.5 80.2988ZM463.2 91.0991H452.4V120.999H463.2V91.0991ZM480.4 123.299H469.6C469.934 125.899 470.7 128.232 471.9 130.299C473.1 132.365 474.9 133.966 477.3 135.099C479.767 136.232 483 136.799 487 136.799C490.2 136.799 493.034 136.266 495.5 135.199C498.1 134.066 500.134 132.332 501.6 129.999C503.134 127.532 503.9 124.332 503.9 120.399V91.0991H493.2V120.399C493.2 122.066 492.9 123.466 492.3 124.599C491.7 125.666 490.9 126.533 489.9 127.199C488.9 127.733 487.734 127.999 486.4 127.999C485.334 127.999 484.367 127.832 483.5 127.499C482.634 127.232 481.934 126.766 481.4 126.099C480.867 125.366 480.534 124.432 480.4 123.299ZM468.9 105.599C468.9 108.932 469.6 111.732 471 113.999C472.334 116.199 474.067 117.866 476.2 118.999C478.4 120.132 480.667 120.699 483 120.699C485.534 120.699 487.767 120.099 489.7 118.899C491.634 117.699 493.167 115.999 494.3 113.799C495.5 111.532 496.1 108.799 496.1 105.599C496.1 102.332 495.5 99.5989 494.3 97.3989C493.167 95.1323 491.634 93.4322 489.7 92.2988C487.767 91.0988 485.534 90.499 483 90.499C480.667 90.499 478.4 91.0659 476.2 92.1992C474.067 93.2659 472.334 94.8991 471 97.0991C469.6 99.2991 468.9 102.132 468.9 105.599ZM480.8 105.599C480.8 104.266 481.067 103.133 481.6 102.199C482.2 101.266 482.967 100.566 483.9 100.099C484.834 99.5658 485.867 99.2988 487 99.2988C487.734 99.2988 488.467 99.4325 489.2 99.6992C489.934 99.9659 490.6 100.332 491.2 100.799C491.867 101.332 492.367 101.999 492.7 102.799C493.034 103.599 493.2 104.532 493.2 105.599C493.2 106.999 492.9 108.166 492.3 109.099C491.7 110.032 490.9 110.733 489.9 111.199C488.967 111.599 488 111.799 487 111.799C485.867 111.799 484.834 111.566 483.9 111.099C482.967 110.632 482.2 109.932 481.6 108.999C481.067 107.999 480.8 106.866 480.8 105.599ZM520.1 111.699C520.1 111.033 520.234 110.499 520.5 110.099C520.767 109.699 521.2 109.399 521.8 109.199C522.4 108.933 523.2 108.799 524.2 108.799C525.6 108.799 526.967 108.999 528.3 109.399C529.567 109.799 530.634 110.366 531.5 111.099V106.399C530.967 105.732 530.134 105.166 529 104.699C527.934 104.233 526.667 103.832 525.2 103.499C523.734 103.166 522.2 102.999 520.6 102.999C516.734 102.999 513.8 103.832 511.8 105.499C509.8 107.166 508.8 109.432 508.8 112.299C508.8 114.299 509.3 116.032 510.3 117.499C511.3 118.899 512.6 119.966 514.2 120.699C515.867 121.366 517.634 121.699 519.5 121.699C521.5 121.699 523.334 121.366 525 120.699C526.667 119.966 527.967 118.932 528.9 117.599C529.9 116.266 530.4 114.633 530.4 112.699L529.4 108.799C529.4 110.132 529.134 111.266 528.6 112.199C528.067 113.066 527.367 113.733 526.5 114.199C525.634 114.533 524.7 114.699 523.7 114.699C523.1 114.699 522.5 114.599 521.9 114.399C521.367 114.132 520.934 113.799 520.6 113.399C520.267 112.932 520.1 112.366 520.1 111.699ZM511.1 93.5991L514.6 100.999C515 100.732 515.7 100.432 516.7 100.099C517.7 99.6991 518.867 99.3324 520.2 98.999C521.534 98.7324 522.834 98.5991 524.1 98.5991C524.967 98.5991 525.767 98.6989 526.5 98.8989C527.167 99.0323 527.734 99.2992 528.2 99.6992C528.6 100.033 528.9 100.466 529.1 100.999C529.3 101.532 529.4 102.132 529.4 102.799V120.999H540.1V100.099C540.1 97.9658 539.467 96.1659 538.2 94.6992C536.934 93.2326 535.2 92.1323 533 91.3989C530.8 90.5989 528.334 90.1992 525.6 90.1992C522.8 90.1992 520.134 90.5655 517.6 91.2988C515.134 92.0322 512.967 92.7991 511.1 93.5991ZM579.7 135.299L599.2 91.0991H587.8L578.2 115.299H584.1L574.4 91.0991H562.2L575.6 119.199L568.6 135.299H579.7ZM599.5 106.099C599.5 109.232 600.234 111.999 601.7 114.399C603.234 116.732 605.334 118.532 608 119.799C610.667 121.065 613.667 121.699 617 121.699C620.4 121.699 623.4 121.065 626 119.799C628.667 118.532 630.767 116.732 632.3 114.399C633.834 111.999 634.6 109.232 634.6 106.099C634.6 102.899 633.834 100.132 632.3 97.7988C630.767 95.4655 628.667 93.6656 626 92.3989C623.4 91.0656 620.4 90.3989 617 90.3989C613.667 90.3989 610.667 91.0656 608 92.3989C605.334 93.6656 603.234 95.4655 601.7 97.7988C600.234 100.132 599.5 102.899 599.5 106.099ZM611 106.099C611 104.699 611.267 103.532 611.8 102.599C612.334 101.599 613.067 100.832 614 100.299C614.934 99.7655 615.934 99.499 617 99.499C618.067 99.499 619.067 99.7655 620 100.299C620.934 100.832 621.667 101.599 622.2 102.599C622.734 103.532 623 104.699 623 106.099C623 107.499 622.734 108.699 622.2 109.699C621.667 110.633 620.934 111.366 620 111.899C619.067 112.366 618.067 112.599 617 112.599C615.934 112.599 614.934 112.366 614 111.899C613.067 111.366 612.334 110.633 611.8 109.699C611.267 108.699 611 107.499 611 106.099ZM639.6 101.299H651.5L636.6 120.999H667.4V110.899H655.9L669.8 91.0991H639.6V101.299ZM673.6 80.3989C673.6 82.0656 674.2 83.4324 675.4 84.499C676.667 85.5657 678.167 86.0991 679.9 86.0991C681.634 86.0991 683.1 85.5657 684.3 84.499C685.567 83.4324 686.2 82.0656 686.2 80.3989C686.2 78.6656 685.567 77.2325 684.3 76.0991C683.1 75.0325 681.634 74.499 679.9 74.499C678.167 74.499 676.667 75.0325 675.4 76.0991C674.2 77.2325 673.6 78.6656 673.6 80.3989ZM685.3 91.1992H674.5V121.099H685.3V91.1992ZM703.8 70.3989H692.6V121.099H703.8V70.3989ZM710.1 80.3989C710.1 82.0656 710.734 83.4324 712 84.499C713.267 85.5657 714.767 86.0991 716.5 86.0991C718.234 86.0991 719.7 85.5657 720.9 84.499C722.167 83.4324 722.8 82.0656 722.8 80.3989C722.8 78.6656 722.167 77.2325 720.9 76.0991C719.7 75.0325 718.234 74.499 716.5 74.499C714.767 74.499 713.267 75.0325 712 76.0991C710.734 77.2325 710.1 78.6656 710.1 80.3989ZM721.8 91.1992H711.1V121.099H721.8V91.1992ZM748.6 102.899V121.099H760.4V101.699C760.4 98.1659 759.567 95.4324 757.9 93.499C756.3 91.499 753.534 90.499 749.6 90.499C747.334 90.499 745.434 90.9656 743.9 91.8989C742.434 92.8323 741.267 94.0658 740.4 95.5991V91.1992H729.2V121.099H740.4V102.899C740.4 101.832 740.6 100.933 741 100.199C741.334 99.4659 741.834 98.9325 742.5 98.5991C743.234 98.1991 744.034 97.999 744.9 97.999C746.367 97.999 747.334 98.4322 747.8 99.2988C748.334 100.165 748.6 101.366 748.6 102.899ZM777.4 123.299H766.6C766.934 125.965 767.7 128.332 768.9 130.399C770.1 132.466 771.934 134.032 774.4 135.099C776.8 136.232 780 136.799 784 136.799C787.2 136.799 790.067 136.266 792.6 135.199C795.134 134.133 797.167 132.399 798.7 129.999C800.234 127.599 801 124.432 801 120.499V91.1992H790.2V120.499C790.2 122.099 789.9 123.466 789.3 124.599C788.767 125.732 787.967 126.599 786.9 127.199C785.9 127.799 784.734 128.099 783.4 128.099C782.334 128.099 781.367 127.932 780.5 127.599C779.634 127.332 778.967 126.832 778.5 126.099C777.967 125.432 777.6 124.499 777.4 123.299ZM766 105.599C766 108.999 766.667 111.832 768 114.099C769.4 116.299 771.167 117.966 773.3 119.099C775.434 120.166 777.667 120.699 780 120.699C782.534 120.699 784.767 120.132 786.7 118.999C788.634 117.799 790.167 116.065 791.3 113.799C792.5 111.532 793.1 108.799 793.1 105.599C793.1 102.399 792.5 99.6656 791.3 97.3989C790.167 95.1989 788.634 93.4988 786.7 92.2988C784.767 91.1655 782.534 90.5991 780 90.5991C777.667 90.5991 775.434 91.1326 773.3 92.1992C771.167 93.3326 769.4 94.9992 768 97.1992C766.667 99.3992 766 102.199 766 105.599ZM777.8 105.599C777.8 104.266 778.1 103.165 778.7 102.299C779.234 101.299 779.967 100.566 780.9 100.099C781.9 99.6325 782.967 99.3989 784.1 99.3989C784.834 99.3989 785.567 99.5322 786.3 99.7988C787.034 99.9988 787.7 100.366 788.3 100.899C788.9 101.432 789.367 102.065 789.7 102.799C790.034 103.599 790.2 104.532 790.2 105.599C790.2 107.066 789.9 108.232 789.3 109.099C788.7 110.032 787.934 110.733 787 111.199C786 111.666 785.034 111.899 784.1 111.899C782.967 111.899 781.9 111.666 780.9 111.199C779.967 110.666 779.234 109.932 778.7 108.999C778.1 108.066 777.8 106.932 777.8 105.599Z" fill="#202020"/>
</svg>
