<svg width="416" height="40" viewBox="0 0 416 40" fill="none" xmlns="http://www.w3.org/2000/svg">
<path d="M8.89999 2.29932V12.9995H7.5L2.10001 4.79932V12.9995H0.700012V2.29932H2.10001L7.5 10.5996V2.29932H8.89999ZM17.5 12.9995H16C15.9333 12.8662 15.9 12.5997 15.9 12.1997C15.2333 12.7997 14.4667 13.0996 13.6 13.0996C12.8 13.0996 12.1667 12.8995 11.7 12.4995C11.1667 12.0328 10.9 11.466 10.9 10.7993C10.9 9.99932 11.2333 9.36608 11.9 8.89941C12.5 8.43275 13.3667 8.19971 14.5 8.19971H15.8V7.59961C15.8 7.13294 15.6667 6.73275 15.4 6.39941C15.1333 6.13275 14.7333 5.99951 14.2 5.99951C13.6667 5.99951 13.2333 6.13275 12.9 6.39941C12.6333 6.66608 12.5 6.96598 12.5 7.29932H11.1C11.1 6.89932 11.2333 6.49961 11.5 6.09961C11.7667 5.76628 12.1333 5.49932 12.6 5.29932C13.1333 5.03265 13.6667 4.89941 14.2 4.89941C15.1333 4.89941 15.8667 5.13294 16.4 5.59961C16.9333 6.06628 17.2 6.69951 17.2 7.49951V11.0996C17.2 11.8329 17.3 12.4327 17.5 12.8994V12.9995ZM13.8 11.9995C14.2 11.9995 14.6 11.8663 15 11.5996C15.4 11.3996 15.6667 11.1326 15.8 10.7993V9.09961H14.8C13.1333 9.09961 12.3 9.59961 12.3 10.5996C12.3 10.9996 12.4333 11.3329 12.7 11.5996C12.9667 11.8663 13.3333 11.9995 13.8 11.9995ZM19.8 3.09961H21.2V5.09961H22.6V6.09961H21.2V10.9995C21.2 11.3328 21.2667 11.5664 21.4 11.6997C21.4667 11.8997 21.6667 11.9995 22 11.9995C22.2 11.9995 22.4333 11.9661 22.7 11.8994V12.9995C22.3 13.0662 21.9333 13.0996 21.6 13.0996C21 13.0996 20.5667 12.9329 20.3 12.5996C19.9667 12.1996 19.8 11.6662 19.8 10.9995V6.09961H18.4V5.09961H19.8V3.09961ZM25.7 4.99951V12.8994H24.3V4.99951H25.7ZM24.3 2.89941C24.3 2.63275 24.3667 2.43265 24.5 2.29932C24.6333 2.16598 24.8333 2.09961 25.1 2.09961C25.3667 2.09961 25.5667 2.16598 25.7 2.29932C25.8333 2.43265 25.9 2.63275 25.9 2.89941C25.9 3.09941 25.8333 3.26608 25.7 3.39941C25.5667 3.53275 25.3667 3.59961 25.1 3.59961C24.8333 3.59961 24.6333 3.53275 24.5 3.39941C24.3667 3.26608 24.3 3.09941 24.3 2.89941ZM28.5 4.99951L30.5 11.0996L32.5 4.99951H33.9L31 12.8994H30L27.1 4.99951H28.5ZM38.4 12.9995C37.3333 12.9995 36.4667 12.6662 35.8 11.9995C35.0667 11.2662 34.7 10.333 34.7 9.19971V8.89941C34.7 8.09941 34.8667 7.39932 35.2 6.79932C35.4667 6.19932 35.8667 5.73275 36.4 5.39941C37 4.99941 37.6 4.79932 38.2 4.79932C39.2667 4.79932 40.0667 5.13265 40.6 5.79932C41.2 6.53265 41.5 7.53265 41.5 8.79932V9.29932H36.1C36.1 10.0993 36.3333 10.733 36.8 11.1997C37.2 11.6664 37.7333 11.8994 38.4 11.8994C38.9333 11.8994 39.3667 11.7996 39.7 11.5996C40.0333 11.4663 40.3 11.2327 40.5 10.8994L41.4 11.4995C40.7333 12.4995 39.7333 12.9995 38.4 12.9995ZM38.2 5.89941C37.6667 5.89941 37.2 6.09951 36.8 6.49951C36.4667 6.89951 36.2333 7.46637 36.1 8.19971H40.1V8.09961C40.1 7.43294 39.9333 6.89951 39.6 6.49951C39.2667 6.09951 38.8 5.89941 38.2 5.89941ZM50.1 8.09961C48.9 7.76628 48.0333 7.36608 47.5 6.89941C46.9 6.36608 46.6 5.73285 46.6 4.99951C46.6 4.13284 46.9333 3.43275 47.6 2.89941C48.3333 2.36608 49.2333 2.09961 50.3 2.09961C51.0333 2.09961 51.6667 2.23285 52.2 2.49951C52.8 2.76618 53.2667 3.16637 53.6 3.69971C53.8667 4.16637 54 4.69932 54 5.29932H52.6C52.6 4.69932 52.4 4.19932 52 3.79932C51.6 3.39932 51.0333 3.19971 50.3 3.19971C49.5667 3.19971 49 3.36637 48.6 3.69971C48.2667 4.03304 48.1 4.46618 48.1 4.99951C48.1 5.39951 48.2667 5.76628 48.6 6.09961C49 6.36628 49.6333 6.63275 50.5 6.89941C51.3667 7.16608 52.0667 7.43304 52.6 7.69971C53.0667 8.03304 53.4333 8.39932 53.7 8.79932C53.9667 9.19932 54.1 9.66637 54.1 10.1997C54.1 11.0664 53.7333 11.766 53 12.2993C52.3333 12.766 51.4333 12.9995 50.3 12.9995C49.5667 12.9995 48.9 12.8663 48.3 12.5996C47.6333 12.3329 47.1333 11.9662 46.8 11.4995C46.4667 10.9662 46.3 10.3993 46.3 9.79932H47.7C47.7 10.466 47.9333 10.966 48.4 11.2993C48.8667 11.6993 49.5 11.8994 50.3 11.8994C51.1 11.8994 51.6667 11.7327 52 11.3994C52.4 11.1327 52.6 10.733 52.6 10.1997C52.6 9.66637 52.4333 9.26618 52.1 8.99951C51.7 8.73285 51.0333 8.43294 50.1 8.09961ZM62.3 8.89941V8.99951C62.3 10.1995 62.0333 11.1661 61.5 11.8994C60.9667 12.6327 60.2333 12.9995 59.3 12.9995C58.3 12.9995 57.5333 12.6996 57 12.0996V15.8994H55.6V4.99951H56.9V5.89941C57.5 5.16608 58.2667 4.79932 59.2 4.79932C60.2 4.79932 60.9667 5.16608 61.5 5.89941C62.0333 6.63275 62.3 7.63275 62.3 8.89941ZM61 8.89941C61 7.96608 60.8 7.26598 60.4 6.79932C60 6.26598 59.4667 5.99951 58.8 5.99951C58 5.99951 57.4 6.36628 57 7.09961V10.8994C57.4 11.5661 58.0334 11.8994 58.9 11.8994C59.5 11.8994 60 11.6664 60.4 11.1997C60.8 10.6664 61 9.89941 61 8.89941ZM67.3 12.9995C66.2333 12.9995 65.3667 12.6662 64.7 11.9995C64.0333 11.2662 63.7 10.333 63.7 9.19971V8.89941C63.7 8.09941 63.8667 7.39932 64.2 6.79932C64.4667 6.19932 64.8667 5.73275 65.4 5.39941C65.9334 4.99941 66.5333 4.79932 67.2 4.79932C68.2 4.79932 69 5.13265 69.6 5.79932C70.1333 6.53265 70.4 7.53265 70.4 8.79932V9.29932H65.1C65.1 10.0993 65.3333 10.733 65.8 11.1997C66.2 11.6664 66.7334 11.8994 67.4 11.8994C67.8667 11.8994 68.2666 11.7996 68.6 11.5996C68.9333 11.4663 69.2333 11.2327 69.5 10.8994L70.3 11.4995C69.6333 12.4995 68.6333 12.9995 67.3 12.9995ZM67.2 5.89941C66.6667 5.89941 66.2 6.09951 65.8 6.49951C65.4 6.89951 65.1666 7.46637 65.1 8.19971H69.1V8.09961C69.0333 7.43294 68.8333 6.89951 68.5 6.49951C68.1667 6.09951 67.7333 5.89941 67.2 5.89941ZM78.3 12.8994H76.9C76.8334 12.7661 76.7667 12.4996 76.7 12.0996C76.1 12.6996 75.3667 12.9995 74.5 12.9995C73.7 12.9995 73.0333 12.7994 72.5 12.3994C72.0333 11.9327 71.8 11.3664 71.8 10.6997C71.8 9.89971 72.1 9.26598 72.7 8.79932C73.3667 8.33265 74.2667 8.09961 75.4 8.09961H76.7V7.49951C76.7 7.03285 76.5667 6.63265 76.3 6.29932C75.9667 6.03265 75.5333 5.89941 75 5.89941C74.5333 5.89941 74.1333 6.03265 73.8 6.29932C73.4667 6.56598 73.3 6.86637 73.3 7.19971H71.9C71.9 6.79971 72.0667 6.39951 72.4 5.99951C72.6667 5.66618 73.0333 5.39971 73.5 5.19971C73.9667 4.93304 74.5 4.79932 75.1 4.79932C76.0333 4.79932 76.7333 5.03285 77.2 5.49951C77.7333 5.96618 78 6.59941 78 7.39941V10.9995C78 11.7328 78.1 12.3327 78.3 12.7993V12.8994ZM74.7 11.8994C75.1 11.8994 75.5 11.7662 75.9 11.4995C76.2334 11.2995 76.5 11.033 76.7 10.6997V8.99951H75.6C73.9333 8.99951 73.1 9.49951 73.1 10.4995C73.1 10.8995 73.2666 11.2328 73.6 11.4995C73.8666 11.7662 74.2333 11.8994 74.7 11.8994ZM85.1 12.8994L82.4 9.19971L81.5 10.0996V12.8994H80.2V1.59961H81.5V8.39941L82.3 7.59961L84.7 4.99951H86.4L83.3 8.29932L86.7 12.8994H85.1ZM90.9 12.9995C89.8334 12.9995 88.9667 12.6662 88.3 11.9995C87.6333 11.2662 87.3 10.2996 87.3 9.09961V8.89941C87.3 8.09941 87.4333 7.39932 87.7 6.79932C88.0333 6.19932 88.4667 5.69932 89 5.29932C89.5333 4.96598 90.1 4.79932 90.7 4.79932C91.7667 4.79932 92.5666 5.13265 93.1 5.79932C93.7 6.46598 94 7.43304 94 8.69971V9.29932H88.6C88.6666 10.0993 88.9 10.733 89.3 11.1997C89.7667 11.6664 90.3333 11.8994 91 11.8994C91.4667 11.8994 91.8667 11.7996 92.2 11.5996C92.5333 11.3996 92.8333 11.1661 93.1 10.8994L93.9 11.4995C93.2334 12.4995 92.2334 12.9995 90.9 12.9995ZM90.7 5.89941C90.1667 5.89941 89.7334 6.09951 89.4 6.49951C89 6.89951 88.7667 7.46637 88.7 8.19971H92.6V8.09961C92.6 7.43294 92.4333 6.89951 92.1 6.49951C91.7666 6.09951 91.3 5.89941 90.7 5.89941ZM99.4 4.89941V6.19971C99.2 6.13304 98.9667 6.09961 98.7 6.09961C97.8333 6.09961 97.2334 6.49932 96.9 7.29932V12.8994H95.6V4.99951H96.9V5.89941C97.3667 5.16608 98 4.79932 98.8 4.79932C99.0667 4.79932 99.2667 4.83275 99.4 4.89941ZM104.3 8.59961C104.3 7.46628 104.433 6.39941 104.7 5.39941C105.033 4.39941 105.5 3.46628 106.1 2.59961C106.633 1.79961 107.233 1.23275 107.9 0.899414L108.2 1.69971C107.467 2.29971 106.867 3.13304 106.4 4.19971C105.933 5.33304 105.7 6.59951 105.7 7.99951V8.59961C105.7 10.5329 106.033 12.1996 106.7 13.5996C107.1 14.3996 107.6 15.0328 108.2 15.4995L107.9 16.2993C107.233 15.966 106.6 15.3662 106 14.4995C104.867 12.8328 104.3 10.8663 104.3 8.59961ZM109.1 8.89941V8.79932C109.1 8.06598 109.267 7.39932 109.6 6.79932C109.867 6.13265 110.267 5.63265 110.8 5.29932C111.4 4.96598 112.033 4.79932 112.7 4.79932C113.767 4.79932 114.633 5.16608 115.3 5.89941C115.967 6.69941 116.3 7.69941 116.3 8.89941V8.99951C116.3 9.79951 116.167 10.4996 115.9 11.0996C115.567 11.6996 115.133 12.1662 114.6 12.4995C114.067 12.8328 113.433 12.9995 112.7 12.9995C111.633 12.9995 110.767 12.6327 110.1 11.8994C109.433 11.1661 109.1 10.1661 109.1 8.89941ZM110.5 8.99951C110.5 9.86618 110.7 10.5663 111.1 11.0996C111.5 11.6329 112.033 11.8994 112.7 11.8994C113.433 11.8994 114 11.6329 114.4 11.0996C114.8 10.5663 115 9.79932 115 8.79932C115 7.93265 114.8 7.23304 114.4 6.69971C113.933 6.16637 113.367 5.89941 112.7 5.89941C112.033 5.89941 111.5 6.16637 111.1 6.69971C110.7 7.23304 110.5 7.99951 110.5 8.99951ZM118 4.99951H119.3L119.4 5.99951C120 5.19951 120.767 4.79932 121.7 4.79932C123.367 4.79932 124.233 5.73294 124.3 7.59961V12.8994H122.9V7.59961C122.9 7.06628 122.767 6.66608 122.5 6.39941C122.233 6.13275 121.833 5.99951 121.3 5.99951C120.9 5.99951 120.533 6.09932 120.2 6.29932C119.867 6.56598 119.6 6.86637 119.4 7.19971V12.8994H118V4.99951ZM132.6 12.8994H131.2C131.133 12.7661 131.067 12.4996 131 12.0996C130.4 12.7663 129.667 13.0996 128.8 13.0996C128 13.0996 127.333 12.8661 126.8 12.3994C126.333 11.9327 126.1 11.3664 126.1 10.6997C126.1 9.89971 126.4 9.26598 127 8.79932C127.667 8.33265 128.567 8.09961 129.7 8.09961H131V7.49951C131 7.03285 130.867 6.66608 130.6 6.39941C130.267 6.06608 129.833 5.89941 129.3 5.89941C128.833 5.89941 128.433 6.03265 128.1 6.29932C127.767 6.56598 127.6 6.86637 127.6 7.19971H126.2C126.2 6.79971 126.367 6.39951 126.7 5.99951C126.967 5.66618 127.333 5.39971 127.8 5.19971C128.267 4.93304 128.8 4.79932 129.4 4.79932C130.333 4.79932 131.033 5.03285 131.5 5.49951C132.033 5.96618 132.3 6.59941 132.3 7.39941V11.0996C132.3 11.7663 132.4 12.3327 132.6 12.7993V12.8994ZM129 11.8994C129.4 11.8994 129.8 11.7662 130.2 11.4995C130.533 11.2995 130.8 11.033 131 10.6997V8.99951H129.9C128.233 8.99951 127.4 9.49951 127.4 10.4995C127.4 10.8995 127.567 11.2328 127.9 11.4995C128.167 11.7662 128.533 11.8994 129 11.8994ZM138.7 2.99951H140V4.99951H141.5V5.99951H140V10.8994C140 11.2327 140.067 11.4663 140.2 11.5996C140.333 11.7996 140.567 11.8994 140.9 11.8994C141.033 11.8994 141.233 11.866 141.5 11.7993V12.8994C141.167 12.9661 140.833 12.9995 140.5 12.9995C139.9 12.9995 139.433 12.8328 139.1 12.4995C138.833 12.0995 138.7 11.5661 138.7 10.8994V5.99951H137.2V4.99951H138.7V2.99951ZM144.6 4.89941V12.7993H143.2V4.89941H144.6ZM143.1 2.79932C143.1 2.59932 143.167 2.39971 143.3 2.19971C143.433 2.06637 143.633 1.99951 143.9 1.99951C144.167 1.99951 144.367 2.06637 144.5 2.19971C144.633 2.39971 144.7 2.59932 144.7 2.79932C144.7 2.99932 144.633 3.16598 144.5 3.29932C144.367 3.49932 144.167 3.59961 143.9 3.59961C143.633 3.59961 143.433 3.49932 143.3 3.29932C143.167 3.16598 143.1 2.99932 143.1 2.79932ZM148.2 1.59961V12.7993H146.9V1.59961H148.2ZM151.8 4.89941V12.7993H150.5V4.89941H151.8ZM150.3 2.79932C150.3 2.59932 150.367 2.39971 150.5 2.19971C150.633 2.06637 150.833 1.99951 151.1 1.99951C151.367 1.99951 151.567 2.06637 151.7 2.19971C151.833 2.39971 151.9 2.59932 151.9 2.79932C151.9 2.99932 151.833 3.16598 151.7 3.29932C151.567 3.49932 151.367 3.59961 151.1 3.59961C150.833 3.59961 150.633 3.49932 150.5 3.29932C150.367 3.16598 150.3 2.99932 150.3 2.79932ZM158.5 10.6997C158.5 10.3664 158.367 10.0994 158.1 9.89941C157.833 9.69941 157.367 9.49932 156.7 9.29932C156.033 9.16598 155.5 8.99932 155.1 8.79932C154.7 8.59932 154.4 8.36628 154.2 8.09961C154 7.76628 153.9 7.43294 153.9 7.09961C153.9 6.43294 154.167 5.86608 154.7 5.39941C155.233 4.93275 155.933 4.69971 156.8 4.69971C157.733 4.69971 158.467 4.93275 159 5.39941C159.533 5.86608 159.8 6.46637 159.8 7.19971H158.5C158.5 6.86637 158.333 6.56598 158 6.29932C157.667 6.03265 157.267 5.89941 156.8 5.89941C156.333 5.89941 155.933 5.99971 155.6 6.19971C155.333 6.39971 155.2 6.66618 155.2 6.99951C155.2 7.33285 155.333 7.59932 155.6 7.79932C155.867 7.93265 156.333 8.06637 157 8.19971C157.667 8.39971 158.233 8.59932 158.7 8.79932C159.1 8.99932 159.4 9.23285 159.6 9.49951C159.8 9.83284 159.9 10.1996 159.9 10.5996C159.9 11.3329 159.633 11.8993 159.1 12.2993C158.5 12.766 157.733 12.9995 156.8 12.9995C156.2 12.9995 155.667 12.8663 155.2 12.5996C154.667 12.3996 154.267 12.0997 154 11.6997C153.733 11.2997 153.6 10.8661 153.6 10.3994H155C155 10.8661 155.167 11.2328 155.5 11.4995C155.833 11.7662 156.267 11.8994 156.8 11.8994C157.333 11.8994 157.767 11.7662 158.1 11.4995C158.367 11.2995 158.5 11.033 158.5 10.6997ZM163.1 4.89941V12.7993H161.8V4.89941H163.1ZM161.6 2.79932C161.6 2.59932 161.667 2.39971 161.8 2.19971C161.933 2.06637 162.133 1.99951 162.4 1.99951C162.667 1.99951 162.867 2.06637 163 2.19971C163.133 2.39971 163.2 2.59932 163.2 2.79932C163.2 2.99932 163.133 3.16598 163 3.29932C162.867 3.49932 162.667 3.59961 162.4 3.59961C162.133 3.59961 161.933 3.49932 161.8 3.29932C161.667 3.16598 161.6 2.99932 161.6 2.79932ZM170.4 4.89941V12.7993H169.1V4.89941H170.4ZM168.9 2.79932C168.9 2.59932 168.967 2.39971 169.1 2.19971C169.233 2.06637 169.433 1.99951 169.7 1.99951C169.967 1.99951 170.167 2.06637 170.3 2.19971C170.433 2.39971 170.5 2.59932 170.5 2.79932C170.5 2.99932 170.433 3.16598 170.3 3.29932C170.167 3.49932 169.967 3.59961 169.7 3.59961C169.433 3.59961 169.233 3.49932 169.1 3.29932C168.967 3.16598 168.9 2.99932 168.9 2.79932ZM172.6 4.89941H173.8L173.9 5.89941C174.5 5.09941 175.3 4.69971 176.3 4.69971C177.967 4.69971 178.8 5.66628 178.8 7.59961V12.7993H177.4V7.59961C177.4 6.99961 177.267 6.56598 177 6.29932C176.8 6.03265 176.4 5.89941 175.8 5.89941C175.4 5.89941 175.033 5.99971 174.7 6.19971C174.367 6.46637 174.1 6.79971 173.9 7.19971V12.7993H172.6V4.89941ZM180.5 8.79932C180.5 7.59932 180.8 6.63275 181.4 5.89941C181.933 5.16608 182.667 4.79932 183.6 4.79932C184.6 4.79932 185.367 5.13265 185.9 5.79932L186 4.89941H187.2V12.5996C187.2 13.6663 186.9 14.4996 186.3 15.0996C185.7 15.6996 184.867 15.9995 183.8 15.9995C183.267 15.9995 182.733 15.8663 182.2 15.5996C181.6 15.3329 181.167 14.9996 180.9 14.5996L181.6 13.7993C182.2 14.5326 182.9 14.8994 183.7 14.8994C184.367 14.8994 184.9 14.6993 185.3 14.2993C185.633 13.8993 185.8 13.3664 185.8 12.6997V11.9995C185.267 12.6662 184.533 12.9995 183.6 12.9995C182.667 12.9995 181.933 12.6327 181.4 11.8994C180.8 11.0994 180.5 10.066 180.5 8.79932ZM181.9 8.99951C181.9 9.86618 182.067 10.5663 182.4 11.0996C182.8 11.5663 183.333 11.7993 184 11.7993C184.8 11.7993 185.4 11.433 185.8 10.6997V6.99951C185.4 6.26618 184.8 5.89941 184 5.89941C183.333 5.89941 182.8 6.16637 182.4 6.69971C182.067 7.23304 181.9 7.99951 181.9 8.99951ZM190.7 1.59961V12.7993H189.4V1.59961H190.7ZM194.3 4.89941V12.7993H192.9V4.89941H194.3ZM192.9 2.79932C192.9 2.59932 192.967 2.43265 193.1 2.29932C193.233 2.09932 193.433 1.99951 193.7 1.99951C193.967 1.99951 194.167 2.09932 194.3 2.29932C194.433 2.43265 194.5 2.59932 194.5 2.79932C194.5 2.99932 194.433 3.19941 194.3 3.39941C194.167 3.53275 193.967 3.59961 193.7 3.59961C193.433 3.59961 193.233 3.53275 193.1 3.39941C192.967 3.19941 192.9 2.99932 192.9 2.79932ZM202.2 5.89941L197.8 11.6997H202.4V12.7993H196.1V11.7993L200.5 5.99951H196.2V4.89941H202.2V5.89941ZM214.4 8.89941V8.99951C214.4 10.1995 214.1 11.1661 213.5 11.8994C212.967 12.6327 212.233 12.9995 211.3 12.9995C210.3 12.9995 209.533 12.6662 209 11.9995L208.9 12.8994H207.7V1.59961H209V5.79932C209.533 5.13265 210.3 4.79932 211.3 4.79932C212.233 4.79932 212.967 5.16608 213.5 5.89941C214.1 6.63275 214.4 7.63275 214.4 8.89941ZM213 8.79932C213 7.93265 212.833 7.23304 212.5 6.69971C212.1 6.23304 211.567 5.99951 210.9 5.99951C210.033 5.99951 209.4 6.39971 209 7.19971V10.5996C209.4 11.4663 210.067 11.8994 211 11.8994C211.6 11.8994 212.1 11.6329 212.5 11.0996C212.833 10.6329 213 9.86598 213 8.79932ZM215.7 8.89941V8.79932C215.7 8.06598 215.867 7.36637 216.2 6.69971C216.467 6.09971 216.867 5.63265 217.4 5.29932C218 4.96598 218.633 4.79932 219.3 4.79932C220.367 4.79932 221.233 5.16608 221.9 5.89941C222.567 6.63275 222.9 7.63275 222.9 8.89941V8.99951C222.9 9.79951 222.767 10.4996 222.5 11.0996C222.167 11.6996 221.733 12.1662 221.2 12.4995C220.667 12.8328 220.033 12.9995 219.3 12.9995C218.233 12.9995 217.367 12.6327 216.7 11.8994C216.033 11.1661 215.7 10.1661 215.7 8.89941ZM217.1 8.99951C217.1 9.86618 217.3 10.5663 217.7 11.0996C218.1 11.6329 218.633 11.8994 219.3 11.8994C220.033 11.8994 220.6 11.6329 221 11.0996C221.4 10.5663 221.6 9.79932 221.6 8.79932C221.6 7.93265 221.4 7.23304 221 6.69971C220.533 6.16637 219.967 5.89941 219.3 5.89941C218.633 5.89941 218.1 6.16637 217.7 6.69971C217.3 7.23304 217.1 7.99951 217.1 8.99951ZM224.5 1.59961V2.39941L224.3 5.09961H223.4V1.59961H224.5ZM227.7 1.59961V12.8994H226.4V1.59961H227.7ZM229.5 8.79932C229.5 7.59932 229.8 6.63275 230.4 5.89941C230.933 5.16608 231.667 4.79932 232.6 4.79932C233.6 4.79932 234.367 5.13265 234.9 5.79932L235 4.99951H236.2V12.6997C236.2 13.6997 235.9 14.4996 235.3 15.0996C234.7 15.6996 233.9 15.9995 232.9 15.9995C232.3 15.9995 231.733 15.8663 231.2 15.5996C230.667 15.3996 230.233 15.0663 229.9 14.5996L230.6 13.7993C231.2 14.5326 231.933 14.8994 232.8 14.8994C233.4 14.8994 233.9 14.6993 234.3 14.2993C234.7 13.966 234.9 13.466 234.9 12.7993V12.0996C234.3 12.6996 233.533 12.9995 232.6 12.9995C231.667 12.9995 230.933 12.6327 230.4 11.8994C229.8 11.1661 229.5 10.1326 229.5 8.79932ZM230.9 8.99951C230.9 9.86618 231.067 10.5663 231.4 11.0996C231.8 11.6329 232.333 11.8994 233 11.8994C233.867 11.8994 234.5 11.4997 234.9 10.6997V7.09961C234.433 6.36628 233.8 5.99951 233 5.99951C232.333 5.99951 231.8 6.23304 231.4 6.69971C231.067 7.23304 230.9 7.99951 230.9 8.99951ZM244.6 12.8994H243.2C243.067 12.6994 243 12.3995 243 11.9995C242.333 12.6662 241.567 12.9995 240.7 12.9995C239.9 12.9995 239.267 12.7994 238.8 12.3994C238.267 11.9327 238 11.3664 238 10.6997C238 9.83304 238.333 9.19932 239 8.79932C239.6 8.33265 240.467 8.09961 241.6 8.09961H242.9V7.39941C242.9 6.93275 242.767 6.56598 242.5 6.29932C242.233 6.03265 241.833 5.89941 241.3 5.89941C240.767 5.89941 240.333 6.03265 240 6.29932C239.733 6.49932 239.6 6.76628 239.6 7.09961H238.2C238.2 6.76628 238.333 6.39951 238.6 5.99951C238.867 5.59951 239.267 5.29961 239.8 5.09961C240.267 4.89961 240.767 4.79932 241.3 4.79932C242.233 4.79932 242.967 5.03285 243.5 5.49951C244.033 5.96618 244.3 6.59941 244.3 7.39941V10.9995C244.3 11.7328 244.4 12.3327 244.6 12.7993V12.8994ZM240.9 11.7993C241.3 11.7993 241.7 11.6995 242.1 11.4995C242.5 11.2995 242.767 10.9996 242.9 10.5996V8.99951H241.9C240.233 8.99951 239.4 9.49951 239.4 10.4995C239.4 10.8995 239.533 11.2328 239.8 11.4995C240.067 11.6995 240.433 11.7993 240.9 11.7993ZM246.4 4.89941H247.7V5.89941C248.367 5.16608 249.167 4.79932 250.1 4.79932C251.767 4.79932 252.633 5.73294 252.7 7.59961V12.8994H251.3V7.59961C251.3 7.06628 251.167 6.63265 250.9 6.29932C250.633 6.03265 250.233 5.89941 249.7 5.89941C249.233 5.89941 248.867 6.03265 248.6 6.29932C248.267 6.49932 248 6.79971 247.8 7.19971V12.8994H246.4V4.89941ZM263.3 12.7993V11.9995C262.767 12.5995 262 12.8994 261 12.8994C260.133 12.8994 259.467 12.6664 259 12.1997C258.6 11.733 258.4 10.9995 258.4 9.99951V4.89941H259.7V9.99951C259.7 11.1995 260.2 11.7993 261.2 11.7993C262.267 11.7993 262.967 11.3996 263.3 10.5996V4.89941H264.6V12.7993H263.3ZM271.3 10.6997C271.3 10.2997 271.167 9.99932 270.9 9.79932C270.633 9.59932 270.133 9.43265 269.4 9.29932C268.733 9.16598 268.2 8.99932 267.8 8.79932C267.4 8.59932 267.1 8.33285 266.9 7.99951C266.7 7.73284 266.6 7.39951 266.6 6.99951C266.6 6.39951 266.867 5.86608 267.4 5.39941C268 4.93275 268.7 4.69971 269.5 4.69971C270.433 4.69971 271.167 4.93275 271.7 5.39941C272.3 5.86608 272.6 6.46637 272.6 7.19971H271.2C271.2 6.79971 271.033 6.46637 270.7 6.19971C270.433 5.93304 270.033 5.79932 269.5 5.79932C269.033 5.79932 268.667 5.89961 268.4 6.09961C268.133 6.36628 268 6.66618 268 6.99951C268 7.33285 268.133 7.56637 268.4 7.69971C268.6 7.89971 269.067 8.06637 269.8 8.19971C270.467 8.33304 271 8.49971 271.4 8.69971C271.8 8.96637 272.1 9.23285 272.3 9.49951C272.5 9.76618 272.6 10.1329 272.6 10.5996C272.6 11.2663 272.333 11.8327 271.8 12.2993C271.2 12.6993 270.467 12.8994 269.6 12.8994C268.933 12.8994 268.367 12.7996 267.9 12.5996C267.433 12.3996 267.033 12.0997 266.7 11.6997C266.433 11.233 266.3 10.766 266.3 10.2993H267.7C267.7 10.766 267.867 11.1327 268.2 11.3994C268.533 11.6661 269 11.7993 269.6 11.7993C270.133 11.7993 270.533 11.6995 270.8 11.4995C271.133 11.2995 271.3 11.033 271.3 10.6997ZM274.9 2.89941H276.2V4.89941H277.7V5.89941H276.2V10.7993C276.2 11.1326 276.267 11.3662 276.4 11.4995C276.533 11.6995 276.767 11.7993 277.1 11.7993C277.233 11.7993 277.467 11.7664 277.8 11.6997V12.7993C277.4 12.866 277.033 12.8994 276.7 12.8994C276.1 12.8994 275.633 12.7327 275.3 12.3994C275.033 11.9994 274.9 11.466 274.9 10.7993V5.89941H273.4V4.89941H274.9V2.89941ZM278.8 8.79932V8.69971C278.8 7.89971 278.933 7.19961 279.2 6.59961C279.533 5.93294 279.967 5.43294 280.5 5.09961C281.033 4.76628 281.667 4.59961 282.4 4.59961C283.467 4.59961 284.333 4.99932 285 5.79932C285.667 6.53265 286 7.49971 286 8.69971V8.79932C286 9.59932 285.867 10.2994 285.6 10.8994C285.267 11.4994 284.833 11.966 284.3 12.2993C283.767 12.6326 283.133 12.7993 282.4 12.7993C281.333 12.7993 280.467 12.433 279.8 11.6997C279.133 10.9664 278.8 9.99932 278.8 8.79932ZM280.2 8.79932C280.2 9.66598 280.4 10.3661 280.8 10.8994C281.2 11.4327 281.733 11.6997 282.4 11.6997C283.067 11.6997 283.6 11.4327 284 10.8994C284.467 10.3661 284.7 9.63304 284.7 8.69971C284.7 7.83304 284.467 7.13294 284 6.59961C283.6 5.99961 283.067 5.69971 282.4 5.69971C281.733 5.69971 281.2 5.96618 280.8 6.49951C280.4 7.03285 280.2 7.79932 280.2 8.79932ZM293.3 5.69971L288.9 11.5996H293.5V12.6997H287.2V11.6997L291.6 5.89941H287.3V4.79932H293.3V5.69971ZM298.2 8.39941C298.2 9.46608 298.033 10.4995 297.7 11.4995C297.433 12.4995 297 13.4326 296.4 14.2993C295.8 15.166 295.2 15.7663 294.6 16.0996L294.3 15.2993C295.033 14.6993 295.633 13.7996 296.1 12.5996C296.567 11.3996 296.8 10.0328 296.8 8.49951V8.29932C296.8 7.29932 296.7 6.33275 296.5 5.39941C296.233 4.53275 295.933 3.76628 295.6 3.09961C295.2 2.36628 294.767 1.79941 294.3 1.39941L294.6 0.599609C295.2 0.932943 295.8 1.53275 296.4 2.39941C297 3.19941 297.433 4.13304 297.7 5.19971C298.033 6.19971 298.2 7.26608 298.2 8.39941ZM310.7 8.69971V8.79932C310.7 9.99932 310.4 10.9664 309.8 11.6997C309.267 12.433 308.533 12.7993 307.6 12.7993C306.6 12.7993 305.833 12.433 305.3 11.6997L305.2 12.5996H304V1.39941H305.3V5.59961C305.833 4.93294 306.6 4.59961 307.6 4.59961C308.533 4.59961 309.267 4.96637 309.8 5.69971C310.4 6.43304 310.7 7.43304 310.7 8.69971ZM309.3 8.59961C309.3 7.66628 309.133 6.96618 308.8 6.49951C308.4 5.96618 307.867 5.69971 307.2 5.69971C306.333 5.69971 305.7 6.13284 305.3 6.99951V10.3994C305.7 11.1994 306.367 11.5996 307.3 11.5996C307.9 11.5996 308.4 11.3661 308.8 10.8994C309.133 10.3661 309.3 9.59961 309.3 8.59961ZM313.8 4.69971V12.5996H312.5V4.69971H313.8ZM312.3 2.59961C312.3 2.39961 312.367 2.23294 312.5 2.09961C312.633 1.89961 312.833 1.79932 313.1 1.79932C313.367 1.79932 313.567 1.89961 313.7 2.09961C313.833 2.23294 313.9 2.39961 313.9 2.59961C313.9 2.79961 313.833 2.99971 313.7 3.19971C313.567 3.33304 313.367 3.39941 313.1 3.39941C312.833 3.39941 312.633 3.33304 312.5 3.19971C312.367 2.99971 312.3 2.79961 312.3 2.59961ZM317.4 1.39941V12.5996H316.1V1.39941H317.4ZM325.9 12.5996H324.4C324.333 12.4663 324.267 12.1993 324.2 11.7993C323.6 12.466 322.867 12.7993 322 12.7993C321.2 12.7993 320.567 12.5663 320.1 12.0996C319.567 11.6996 319.3 11.1327 319.3 10.3994C319.3 9.59941 319.633 8.96618 320.3 8.49951C320.9 8.03285 321.767 7.79932 322.9 7.79932H324.2V7.19971C324.2 6.73304 324.067 6.36628 323.8 6.09961C323.533 5.83294 323.1 5.69971 322.5 5.69971C322.033 5.69971 321.633 5.79951 321.3 5.99951C320.967 6.26618 320.8 6.56608 320.8 6.89941H319.5C319.5 6.49941 319.633 6.13265 319.9 5.79932C320.167 5.39932 320.533 5.09941 321 4.89941C321.533 4.69941 322.067 4.59961 322.6 4.59961C323.533 4.59961 324.267 4.83265 324.8 5.29932C325.267 5.69932 325.533 6.29961 325.6 7.09961V10.7993C325.6 11.5326 325.7 12.0995 325.9 12.4995V12.5996ZM322.2 11.5996C322.6 11.5996 323 11.4993 323.4 11.2993C323.8 11.0326 324.067 10.7327 324.2 10.3994V8.79932H323.2C321.533 8.79932 320.7 9.26637 320.7 10.1997C320.7 10.6664 320.833 10.9997 321.1 11.1997C321.367 11.4664 321.733 11.5996 322.2 11.5996ZM327.7 4.69971H329V5.69971C329.6 4.96637 330.4 4.59961 331.4 4.59961C333.067 4.59961 333.9 5.53275 333.9 7.39941V12.5996H332.6V7.39941C332.6 6.79941 332.467 6.36628 332.2 6.09961C331.933 5.83294 331.533 5.69971 331 5.69971C330.533 5.69971 330.133 5.83294 329.8 6.09961C329.467 6.29961 329.233 6.59951 329.1 6.99951V12.5996H327.7V4.69971ZM344.3 10.4995C344.3 10.1662 344.167 9.89971 343.9 9.69971C343.633 9.49971 343.133 9.33304 342.4 9.19971C341.733 9.06637 341.2 8.86628 340.8 8.59961C340.4 8.39961 340.1 8.16608 339.9 7.89941C339.7 7.63275 339.6 7.29941 339.6 6.89941C339.6 6.23275 339.9 5.69932 340.5 5.29932C341.033 4.83265 341.733 4.59961 342.6 4.59961C343.467 4.59961 344.167 4.83265 344.7 5.29932C345.3 5.76598 345.6 6.36628 345.6 7.09961H344.2C344.2 6.69961 344.033 6.36628 343.7 6.09961C343.433 5.83294 343.067 5.69971 342.6 5.69971C342.067 5.69971 341.667 5.79951 341.4 5.99951C341.133 6.19951 341 6.49941 341 6.89941C341 7.16608 341.133 7.39961 341.4 7.59961C341.667 7.73294 342.133 7.89961 342.8 8.09961C343.467 8.23294 344 8.39961 344.4 8.59961C344.867 8.79961 345.2 9.06608 345.4 9.39941C345.6 9.66608 345.7 10.0328 345.7 10.4995C345.7 11.1662 345.4 11.733 344.8 12.1997C344.267 12.5997 343.533 12.7993 342.6 12.7993C342 12.7993 341.433 12.6995 340.9 12.4995C340.433 12.2328 340.067 11.8995 339.8 11.4995C339.533 11.0995 339.4 10.6664 339.4 10.1997H340.7C340.767 10.6664 340.967 11.0326 341.3 11.2993C341.633 11.566 342.067 11.6997 342.6 11.6997C343.133 11.6997 343.533 11.5994 343.8 11.3994C344.133 11.1994 344.3 10.8995 344.3 10.4995ZM348.8 1.39941V5.69971C349.4 4.96637 350.167 4.59961 351.1 4.59961C352.767 4.59961 353.633 5.53275 353.7 7.39941V12.6997H352.3V7.39941C352.3 6.86608 352.167 6.43294 351.9 6.09961C351.633 5.83294 351.233 5.69971 350.7 5.69971C350.3 5.69971 349.933 5.83294 349.6 6.09961C349.267 6.29961 349 6.59951 348.8 6.99951V12.6997H347.4V1.39941H348.8ZM360.7 12.6997L360.6 11.8994C360.067 12.4994 359.3 12.7993 358.3 12.7993C357.433 12.7993 356.8 12.5663 356.4 12.0996C355.933 11.5663 355.7 10.8327 355.7 9.89941V4.69971H357.1V9.79932C357.1 10.9993 357.567 11.5996 358.5 11.5996C359.567 11.5996 360.267 11.2328 360.6 10.4995V4.69971H361.9V12.6997H360.7ZM364.1 4.69971H365.4V5.69971C366 4.96637 366.8 4.59961 367.8 4.59961C369.467 4.59961 370.3 5.53275 370.3 7.39941V12.6997H369V7.39941C369 6.86608 368.867 6.43294 368.6 6.09961C368.333 5.83294 367.933 5.69971 367.4 5.69971C366.933 5.69971 366.533 5.83294 366.2 6.09961C365.867 6.29961 365.6 6.59951 365.4 6.99951V12.6997H364.1V4.69971ZM372 8.69971V8.49951C372 7.29951 372.3 6.33294 372.9 5.59961C373.5 4.86628 374.267 4.49951 375.2 4.49951C376.133 4.49951 376.867 4.83285 377.4 5.49951V1.29932H378.7V12.5996H377.5L377.4 11.6997C376.867 12.3664 376.1 12.6997 375.1 12.6997C374.233 12.6997 373.5 12.3329 372.9 11.5996C372.3 10.8663 372 9.89971 372 8.69971ZM373.4 8.69971C373.4 9.56637 373.567 10.266 373.9 10.7993C374.3 11.3327 374.833 11.5996 375.5 11.5996C376.367 11.5996 377 11.1994 377.4 10.3994V6.79932C377 6.06598 376.367 5.69971 375.5 5.69971C374.833 5.69971 374.3 5.93275 373.9 6.39941C373.567 6.93275 373.4 7.69971 373.4 8.69971ZM387.1 12.5996H385.7C385.633 12.3996 385.567 12.0997 385.5 11.6997C384.9 12.3664 384.167 12.6997 383.3 12.6997C382.5 12.6997 381.833 12.4996 381.3 12.0996C380.833 11.6329 380.6 11.0661 380.6 10.3994C380.6 9.53275 380.9 8.89951 381.5 8.49951C382.167 8.03285 383.067 7.79932 384.2 7.79932H385.5V7.09961C385.5 6.63294 385.367 6.26618 385.1 5.99951C384.833 5.73284 384.4 5.59961 383.8 5.59961C383.333 5.59961 382.933 5.73284 382.6 5.99951C382.267 6.19951 382.1 6.46598 382.1 6.79932H380.8C380.8 6.46598 380.933 6.09971 381.2 5.69971C381.467 5.29971 381.833 4.99932 382.3 4.79932C382.767 4.59932 383.3 4.49951 383.9 4.49951C384.833 4.49951 385.567 4.73304 386.1 5.19971C386.567 5.66637 386.833 6.29961 386.9 7.09961V10.6997C386.9 11.433 386.967 12.0328 387.1 12.4995V12.5996ZM383.5 11.4995C383.9 11.4995 384.3 11.3997 384.7 11.1997C385.033 10.9997 385.3 10.6993 385.5 10.2993V8.69971H384.4C382.8 8.69971 382 9.19971 382 10.1997C382 10.5997 382.133 10.933 382.4 11.1997C382.667 11.3997 383.033 11.4995 383.5 11.4995ZM389.5 4.59961L391.5 10.5996L393.3 4.59961H394.8L391.6 13.7993C391.067 15.1326 390.267 15.7993 389.2 15.7993L389 15.6997L388.5 15.5996V14.4995L388.8 14.5996C389.267 14.5996 389.633 14.4993 389.9 14.2993C390.167 14.0993 390.367 13.766 390.5 13.2993L390.8 12.4995L388 4.59961H389.5ZM0 32.5996V32.4995C0 31.7662 0.133327 31.0661 0.399994 30.3994C0.733327 29.7994 1.16668 29.3328 1.70001 28.9995C2.23335 28.6662 2.86667 28.4995 3.60001 28.4995C4.66667 28.4995 5.53335 28.8663 6.20001 29.5996C6.86668 30.3329 7.20001 31.3329 7.20001 32.5996V32.6997C7.20001 33.433 7.03335 34.1326 6.70001 34.7993C6.43335 35.3993 6.03333 35.8664 5.5 36.1997C4.9 36.533 4.26667 36.6997 3.60001 36.6997C2.53334 36.6997 1.66667 36.3329 1 35.5996C0.333333 34.8663 0 33.8663 0 32.5996ZM1.29999 32.6997C1.29999 33.5664 1.49999 34.266 1.89999 34.7993C2.29999 35.3326 2.86667 35.5996 3.60001 35.5996C4.26667 35.5996 4.80001 35.3326 5.20001 34.7993C5.60001 34.266 5.79999 33.4995 5.79999 32.4995C5.79999 31.6328 5.60001 30.9327 5.20001 30.3994C4.80001 29.8661 4.26667 29.5996 3.60001 29.5996C2.86667 29.5996 2.29999 29.8661 1.89999 30.3994C1.49999 30.9327 1.29999 31.6997 1.29999 32.6997ZM8.70001 25.2993V26.0996L8.5 28.7993H7.60001V25.2993H8.70001ZM14.3 28.5996V29.7993C14.1 29.7993 13.9 29.7993 13.7 29.7993C12.7667 29.7993 12.1667 30.1661 11.9 30.8994V36.5996H10.5V28.5996H11.8V29.4995C12.2667 28.8328 12.9 28.4995 13.7 28.4995C13.9667 28.4995 14.1667 28.5329 14.3 28.5996ZM15.1 32.4995C15.1 31.2995 15.4 30.3329 16 29.5996C16.5333 28.8663 17.2667 28.4995 18.2 28.4995C19.2 28.4995 19.9667 28.8328 20.5 29.4995L20.6 28.5996H21.8V36.3994C21.8 37.3994 21.5 38.1993 20.9 38.7993C20.3 39.3993 19.4667 39.6997 18.4 39.6997C17.8667 39.6997 17.3333 39.566 16.8 39.2993C16.2 39.0326 15.7667 38.6993 15.5 38.2993L16.2 37.4995C16.8 38.2328 17.5 38.5996 18.3 38.5996C18.9667 38.5996 19.5 38.3995 19.9 37.9995C20.2333 37.6662 20.4 37.1327 20.4 36.3994V35.7993C19.8667 36.3993 19.1333 36.6997 18.2 36.6997C17.2667 36.6997 16.5333 36.3329 16 35.5996C15.4 34.8663 15.1 33.8328 15.1 32.4995ZM16.5 32.6997C16.5 33.5664 16.6667 34.266 17 34.7993C17.4 35.3326 17.9333 35.5996 18.6 35.5996C19.4 35.5996 20 35.1994 20.4 34.3994V30.7993C20 29.9993 19.4 29.5996 18.6 29.5996C17.9333 29.5996 17.4 29.8661 17 30.3994C16.6667 30.9327 16.5 31.6997 16.5 32.6997ZM30.2 36.5996H28.7C28.6333 36.3996 28.6 36.0997 28.6 35.6997C27.9333 36.3664 27.1667 36.6997 26.3 36.6997C25.5 36.6997 24.8667 36.4662 24.4 35.9995C23.8667 35.5995 23.6 35.0661 23.6 34.3994C23.6 33.5327 23.9333 32.8661 24.6 32.3994C25.2 31.9994 26.0667 31.7993 27.2 31.7993H28.5V31.0996C28.5 30.6329 28.3667 30.2662 28.1 29.9995C27.8333 29.7328 27.4333 29.5996 26.9 29.5996C26.3667 29.5996 25.9333 29.6994 25.6 29.8994C25.2667 30.1661 25.1 30.466 25.1 30.7993H23.8C23.8 30.3993 23.9333 30.033 24.2 29.6997C24.4667 29.2997 24.8333 28.9993 25.3 28.7993C25.8333 28.5993 26.3667 28.4995 26.9 28.4995C27.8333 28.4995 28.5667 28.733 29.1 29.1997C29.6333 29.6664 29.9 30.2996 29.9 31.0996V34.6997C29.9 35.433 30 35.9994 30.2 36.3994V36.5996ZM26.5 35.5996C26.9 35.5996 27.3 35.4993 27.7 35.2993C28.1 35.0326 28.3667 34.7327 28.5 34.3994V32.7993H27.5C25.8333 32.7993 25 33.2993 25 34.2993C25 34.6993 25.1333 34.9997 25.4 35.1997C25.6667 35.4664 26.0333 35.5996 26.5 35.5996ZM32 28.6997H33.3V29.6997C33.9 28.9664 34.7 28.5996 35.7 28.5996C37.3667 28.5996 38.2 29.5327 38.2 31.3994V36.5996H36.9V31.3994C36.9 30.7994 36.7667 30.3663 36.5 30.0996C36.2333 29.8329 35.8333 29.6997 35.3 29.6997C34.8333 29.6997 34.4333 29.8329 34.1 30.0996C33.7667 30.2996 33.5333 30.5995 33.4 30.9995V36.5996H32V28.6997ZM44.9 34.5996C44.9 34.1996 44.7667 33.8997 44.5 33.6997C44.2333 33.4997 43.7333 33.333 43 33.1997C42.3333 33.0664 41.8 32.8997 41.4 32.6997C41 32.4997 40.7 32.2327 40.5 31.8994C40.3 31.6327 40.2 31.2994 40.2 30.8994C40.2 30.2327 40.4667 29.6993 41 29.2993C41.6 28.8326 42.3333 28.5996 43.2 28.5996C44.0667 28.5996 44.7667 28.8326 45.3 29.2993C45.9 29.766 46.2 30.3663 46.2 31.0996H44.8C44.8 30.6996 44.6333 30.3663 44.3 30.0996C44.0333 29.8329 43.6667 29.6997 43.2 29.6997C42.6667 29.6997 42.2667 29.7995 42 29.9995C41.7333 30.2662 41.6 30.5661 41.6 30.8994C41.6 31.2327 41.7333 31.4663 42 31.5996C42.2667 31.7996 42.7333 31.9663 43.4 32.0996C44.0667 32.2329 44.6 32.3996 45 32.5996C45.4 32.7996 45.7 33.0661 45.9 33.3994C46.1667 33.6661 46.3 34.0328 46.3 34.4995C46.3 35.1662 46 35.733 45.4 36.1997C44.8667 36.5997 44.1333 36.7993 43.2 36.7993C42.5333 36.7993 41.9667 36.6995 41.5 36.4995C41.0333 36.2328 40.6667 35.8995 40.4 35.4995C40.1333 35.0995 40 34.6664 40 34.1997H41.3C41.3 34.6664 41.5 35.0326 41.9 35.2993C42.2333 35.566 42.6667 35.6997 43.2 35.6997C43.7333 35.6997 44.1333 35.5994 44.4 35.3994C44.7333 35.1994 44.9 34.9329 44.9 34.5996ZM49.5 28.6997V36.6997H48.1V28.6997H49.5ZM48.1 26.5996C48.1 26.3996 48.1667 26.2329 48.3 26.0996C48.4333 25.9663 48.6333 25.8994 48.9 25.8994C49.1667 25.8994 49.3667 25.9663 49.5 26.0996C49.6333 26.2329 49.7 26.3996 49.7 26.5996C49.7 26.8663 49.6333 27.0664 49.5 27.1997C49.3667 27.333 49.1667 27.3994 48.9 27.3994C48.6333 27.3994 48.4333 27.333 48.3 27.1997C48.1667 27.0664 48.1 26.8663 48.1 26.5996ZM51.7 28.6997H53V29.6997C53.6 28.9664 54.4 28.5996 55.4 28.5996C57.0667 28.5996 57.9 29.5327 57.9 31.3994V36.6997H56.6V31.3994C56.6 30.8661 56.4667 30.4664 56.2 30.1997C55.9333 29.8664 55.5333 29.6997 55 29.6997C54.5333 29.6997 54.1333 29.8329 53.8 30.0996C53.4667 30.2996 53.2333 30.5995 53.1 30.9995V36.6997H51.7V28.6997ZM65 36.5996L62.2 32.8994L61.3 33.7993V36.5996H60V25.2993H61.3V32.0996L62.1 31.2993L64.5 28.6997H66.2L63.1 31.9995L66.5 36.5996H65ZM69.1 28.6997V36.5996H67.8V28.6997H69.1ZM67.6 26.5996C67.6 26.3329 67.6667 26.1328 67.8 25.9995C67.9333 25.8662 68.1334 25.7993 68.4 25.7993C68.6667 25.7993 68.8667 25.8662 69 25.9995C69.1333 26.1328 69.2 26.3329 69.2 26.5996C69.2 26.7996 69.1333 26.9663 69 27.0996C68.8667 27.2329 68.6667 27.2993 68.4 27.2993C68.1334 27.2993 67.9333 27.2329 67.8 27.0996C67.6667 26.9663 67.6 26.7996 67.6 26.5996ZM71.2 38.6997L70.4 38.1997C70.8667 37.533 71.1333 36.8664 71.2 36.1997V34.9995H72.5V35.9995C72.5 36.5328 72.3666 37.0328 72.1 37.4995C71.9 38.0328 71.6 38.433 71.2 38.6997ZM78.4 26.6997H79.8V28.6997H81.2V29.6997H79.8V34.5996C79.8 34.9329 79.8667 35.166 80 35.2993C80.0667 35.4993 80.2666 35.5996 80.6 35.5996C80.8 35.5996 81.0333 35.5662 81.3 35.4995V36.5996C80.9 36.6663 80.5333 36.6997 80.2 36.6997C79.6 36.6997 79.1667 36.533 78.9 36.1997C78.5667 35.7997 78.4 35.2663 78.4 34.5996V29.6997H77V28.6997H78.4V26.6997ZM84.3 28.5996V36.4995H82.9V28.5996H84.3ZM82.9 26.4995C82.9 26.2995 82.9666 26.0994 83.1 25.8994C83.2333 25.7661 83.4333 25.6997 83.7 25.6997C83.9667 25.6997 84.1667 25.7661 84.3 25.8994C84.4333 26.0994 84.5 26.2995 84.5 26.4995C84.5 26.6995 84.4333 26.8662 84.3 26.9995C84.1667 27.1995 83.9667 27.2993 83.7 27.2993C83.4333 27.2993 83.2333 27.1995 83.1 26.9995C82.9666 26.8662 82.9 26.6995 82.9 26.4995ZM88 25.2993V36.4995H86.6V25.2993H88ZM91.7 28.5996V36.4995H90.3V28.5996H91.7ZM90.2 26.4995C90.2 26.2995 90.2667 26.0994 90.4 25.8994C90.5334 25.7661 90.7333 25.6997 91 25.6997C91.2667 25.6997 91.4666 25.7661 91.6 25.8994C91.7333 26.0994 91.8 26.2995 91.8 26.4995C91.8 26.6995 91.7333 26.8662 91.6 26.9995C91.4666 27.1995 91.2667 27.2993 91 27.2993C90.7333 27.2993 90.5334 27.1995 90.4 26.9995C90.2667 26.8662 90.2 26.6995 90.2 26.4995ZM93.8 38.5996L93.1 38.0996C93.5 37.4329 93.7333 36.7663 93.8 36.0996V34.8994H95.1V35.9995C95.1 36.4662 94.9667 36.9327 94.7 37.3994C94.5 37.9327 94.2 38.3329 93.8 38.5996ZM101.1 28.5996L103.1 34.4995L105 28.5996H106.4L103.2 37.6997C102.733 39.033 101.967 39.6997 100.9 39.6997H100.6L100.1 39.5996V38.4995H100.5C100.967 38.4995 101.333 38.3997 101.6 38.1997C101.8 38.0664 102 37.733 102.2 37.1997L102.5 36.3994L99.7 28.5996H101.1ZM107.1 32.5996V32.4995C107.1 31.6995 107.233 30.9994 107.5 30.3994C107.833 29.7327 108.267 29.2327 108.8 28.8994C109.333 28.5661 109.967 28.3994 110.7 28.3994C111.767 28.3994 112.633 28.7996 113.3 29.5996C113.967 30.3329 114.3 31.2995 114.3 32.4995V32.5996C114.3 33.3996 114.133 34.0997 113.8 34.6997C113.533 35.2997 113.133 35.7663 112.6 36.0996C112.067 36.4996 111.433 36.6997 110.7 36.6997C109.633 36.6997 108.767 36.2995 108.1 35.4995C107.433 34.7662 107.1 33.7996 107.1 32.5996ZM108.4 32.5996C108.4 33.5329 108.6 34.266 109 34.7993C109.467 35.3326 110.033 35.5996 110.7 35.5996C111.367 35.5996 111.9 35.2997 112.3 34.6997C112.7 34.1664 112.9 33.4328 112.9 32.4995C112.9 31.6328 112.7 30.9327 112.3 30.3994C111.9 29.8661 111.367 29.5996 110.7 29.5996C110.033 29.5996 109.5 29.8661 109.1 30.3994C108.633 30.8661 108.4 31.5996 108.4 32.5996ZM120.6 34.3994C120.6 34.0661 120.467 33.7996 120.2 33.5996C119.933 33.3996 119.433 33.1995 118.7 32.9995C118.033 32.8662 117.5 32.6995 117.1 32.4995C116.7 32.2995 116.4 32.066 116.2 31.7993C116 31.466 115.9 31.1327 115.9 30.7993C115.9 30.1327 116.2 29.5663 116.8 29.0996C117.333 28.6329 118.033 28.3994 118.9 28.3994C119.767 28.3994 120.467 28.6329 121 29.0996C121.6 29.5663 121.9 30.1661 121.9 30.8994H120.5C120.5 30.5661 120.333 30.2662 120 29.9995C119.733 29.7328 119.367 29.5996 118.9 29.5996C118.367 29.5996 117.967 29.6994 117.7 29.8994C117.433 30.0994 117.3 30.3664 117.3 30.6997C117.3 31.033 117.433 31.2995 117.7 31.4995C117.967 31.6328 118.433 31.7661 119.1 31.8994C119.767 32.0994 120.3 32.2995 120.7 32.4995C121.167 32.6995 121.5 32.933 121.7 33.1997C121.9 33.533 122 33.8993 122 34.2993C122 35.0326 121.7 35.5995 121.1 35.9995C120.567 36.4662 119.833 36.6997 118.9 36.6997C118.3 36.6997 117.733 36.566 117.2 36.2993C116.733 36.0993 116.367 35.7994 116.1 35.3994C115.833 34.9994 115.7 34.5663 115.7 34.0996H117C117.067 34.5663 117.267 34.933 117.6 35.1997C117.933 35.4664 118.367 35.5996 118.9 35.5996C119.433 35.5996 119.833 35.4664 120.1 35.1997C120.433 34.9997 120.6 34.7327 120.6 34.3994ZM125.1 25.2993V29.4995C125.7 28.7662 126.467 28.3994 127.4 28.3994C129.067 28.3994 129.933 29.366 130 31.2993V36.4995H128.6V31.2993C128.6 30.6993 128.467 30.2662 128.2 29.9995C127.933 29.7328 127.533 29.5996 127 29.5996C126.6 29.5996 126.233 29.6994 125.9 29.8994C125.567 30.1661 125.3 30.4994 125.1 30.8994V36.4995H123.7V25.2993H125.1ZM142.5 32.4995V32.5996C142.5 33.8663 142.2 34.8663 141.6 35.5996C141.067 36.3329 140.333 36.6997 139.4 36.6997C138.4 36.6997 137.633 36.3329 137.1 35.5996L137 36.4995H135.7V25.2993H137.1V29.4995C137.633 28.7662 138.4 28.3994 139.4 28.3994C140.333 28.3994 141.067 28.7662 141.6 29.4995C142.2 30.2328 142.5 31.2328 142.5 32.4995ZM141.1 32.4995C141.1 31.5662 140.933 30.8326 140.6 30.2993C140.2 29.8326 139.667 29.5996 139 29.5996C138.133 29.5996 137.5 29.9993 137.1 30.7993V34.2993C137.5 35.0993 138.133 35.4995 139 35.4995C139.667 35.4995 140.2 35.266 140.6 34.7993C140.933 34.266 141.1 33.4995 141.1 32.4995ZM143.8 32.5996V32.4995C143.8 31.6995 143.967 30.9994 144.3 30.3994C144.567 29.7327 144.967 29.2327 145.5 28.8994C146.1 28.5661 146.733 28.3994 147.4 28.3994C148.467 28.3994 149.333 28.7996 150 29.5996C150.667 30.3329 151 31.2995 151 32.4995V32.5996C151 33.3996 150.867 34.0997 150.6 34.6997C150.267 35.2997 149.833 35.7663 149.3 36.0996C148.767 36.4996 148.133 36.6997 147.4 36.6997C146.333 36.6997 145.467 36.2995 144.8 35.4995C144.133 34.7662 143.8 33.7996 143.8 32.5996ZM145.2 32.5996C145.2 33.5329 145.4 34.266 145.8 34.7993C146.2 35.3326 146.733 35.5996 147.4 35.5996C148.067 35.5996 148.633 35.2997 149.1 34.6997C149.5 34.1664 149.7 33.4328 149.7 32.4995C149.7 31.6328 149.467 30.9327 149 30.3994C148.6 29.8661 148.067 29.5996 147.4 29.5996C146.733 29.5996 146.2 29.8661 145.8 30.3994C145.4 30.8661 145.2 31.5996 145.2 32.5996ZM154.2 25.2993V36.4995H152.8V25.2993H154.2ZM162.7 36.4995H161.3C161.233 36.3662 161.167 36.0997 161.1 35.6997C160.5 36.3664 159.733 36.6997 158.8 36.6997C158.067 36.6997 157.433 36.4662 156.9 35.9995C156.433 35.5328 156.2 34.966 156.2 34.2993C156.2 33.4993 156.5 32.8661 157.1 32.3994C157.767 31.9327 158.667 31.6997 159.8 31.6997H161.1V31.0996C161.1 30.6329 160.967 30.2662 160.7 29.9995C160.367 29.6662 159.933 29.4995 159.4 29.4995C158.933 29.4995 158.533 29.6327 158.2 29.8994C157.867 30.1661 157.7 30.466 157.7 30.7993H156.3C156.3 30.3993 156.467 29.9996 156.8 29.5996C157.067 29.2663 157.433 28.9993 157.9 28.7993C158.367 28.5326 158.9 28.3994 159.5 28.3994C160.433 28.3994 161.133 28.6329 161.6 29.0996C162.133 29.5663 162.4 30.1995 162.4 30.9995V34.6997C162.4 35.3664 162.5 35.9327 162.7 36.3994V36.4995ZM159 35.4995C159.467 35.4995 159.9 35.3663 160.3 35.0996C160.633 34.8996 160.9 34.6326 161.1 34.2993V32.5996H160C158.333 32.5996 157.5 33.0996 157.5 34.0996C157.5 34.4996 157.667 34.8329 158 35.0996C158.267 35.3663 158.6 35.4995 159 35.4995ZM164.6 28.5996H165.8L165.9 29.5996C166.5 28.7996 167.3 28.3994 168.3 28.3994C169.967 28.3994 170.8 29.366 170.8 31.2993V36.4995H169.4V31.1997C169.4 30.6664 169.267 30.2662 169 29.9995C168.8 29.7328 168.4 29.5996 167.8 29.5996C167.4 29.5996 167.033 29.6994 166.7 29.8994C166.367 30.1661 166.1 30.466 165.9 30.7993V36.4995H164.6V28.5996ZM174.3 28.5996V36.4995H173V28.5996H174.3ZM172.8 26.4995C172.8 26.2995 172.867 26.0994 173 25.8994C173.133 25.7661 173.333 25.6997 173.6 25.6997C173.867 25.6997 174.067 25.7661 174.2 25.8994C174.333 26.0994 174.4 26.2995 174.4 26.4995C174.4 26.6995 174.333 26.8662 174.2 26.9995C174.067 27.1995 173.867 27.2993 173.6 27.2993C173.333 27.2993 173.133 27.1995 173 26.9995C172.867 26.8662 172.8 26.6995 172.8 26.4995ZM180.6 26.6997H182V28.5996H183.5V29.5996H182V34.5996C182 34.8663 182.067 35.0993 182.2 35.2993C182.333 35.4327 182.533 35.4995 182.8 35.4995C183 35.4995 183.233 35.4661 183.5 35.3994V36.4995C183.167 36.6328 182.8 36.6997 182.4 36.6997C181.8 36.6997 181.367 36.4996 181.1 36.0996C180.767 35.7663 180.6 35.2663 180.6 34.5996V29.5996H179.2V28.5996H180.6V26.6997ZM186.5 28.5996V36.4995H185.2V28.5996H186.5ZM185 26.4995C185 26.2995 185.067 26.1328 185.2 25.9995C185.333 25.7995 185.533 25.6997 185.8 25.6997C186.067 25.6997 186.267 25.7995 186.4 25.9995C186.533 26.1328 186.6 26.2995 186.6 26.4995C186.6 26.6995 186.533 26.8996 186.4 27.0996C186.267 27.2329 186.067 27.2993 185.8 27.2993C185.533 27.2993 185.333 27.2329 185.2 27.0996C185.067 26.8996 185 26.6995 185 26.4995ZM190.1 25.2993V36.4995H188.7V25.2993H190.1ZM193.8 28.5996V36.4995H192.4V28.5996H193.8ZM192.4 26.4995C192.4 26.2995 192.467 26.1328 192.6 25.9995C192.733 25.7995 192.933 25.6997 193.2 25.6997C193.467 25.6997 193.667 25.7995 193.8 25.9995C193.933 26.1328 194 26.2995 194 26.4995C194 26.6995 193.933 26.8996 193.8 27.0996C193.667 27.2329 193.467 27.2993 193.2 27.2993C192.933 27.2993 192.733 27.2329 192.6 27.0996C192.467 26.8996 192.4 26.6995 192.4 26.4995ZM202.9 35.5996C203.367 35.5996 203.767 35.4329 204.1 35.0996C204.5 34.8329 204.733 34.4662 204.8 33.9995H206C206 34.4662 205.867 34.8993 205.6 35.2993C205.267 35.766 204.867 36.0993 204.4 36.2993C203.933 36.566 203.433 36.6997 202.9 36.6997C201.833 36.6997 200.967 36.3329 200.3 35.5996C199.7 34.8663 199.4 33.8663 199.4 32.5996V32.3994C199.4 31.6661 199.533 30.9994 199.8 30.3994C200.067 29.7994 200.467 29.3328 201 28.9995C201.533 28.6662 202.167 28.4995 202.9 28.4995C203.767 28.4995 204.5 28.766 205.1 29.2993C205.7 29.8326 206 30.4993 206 31.2993H204.8C204.733 30.8326 204.533 30.4329 204.2 30.0996C203.8 29.7663 203.367 29.5996 202.9 29.5996C202.167 29.5996 201.633 29.8326 201.3 30.2993C200.9 30.8326 200.7 31.5662 200.7 32.4995V32.6997C200.7 33.633 200.9 34.3326 201.3 34.7993C201.633 35.3326 202.167 35.5996 202.9 35.5996ZM208.9 25.2993V29.5996C209.5 28.8663 210.3 28.4995 211.3 28.4995C212.967 28.4995 213.8 29.4326 213.8 31.2993V36.4995H212.4V31.2993C212.4 30.6993 212.267 30.2662 212 29.9995C211.8 29.7328 211.4 29.5996 210.8 29.5996C210.4 29.5996 210.033 29.7328 209.7 29.9995C209.367 30.1995 209.1 30.4994 208.9 30.8994V36.4995H207.6V25.2993H208.9ZM217.2 28.5996V36.4995H215.9V28.5996H217.2ZM215.7 26.4995C215.7 26.2995 215.767 26.1328 215.9 25.9995C216.033 25.7995 216.233 25.6997 216.5 25.6997C216.767 25.6997 216.967 25.7995 217.1 25.9995C217.233 26.1328 217.3 26.2995 217.3 26.4995C217.3 26.6995 217.233 26.8996 217.1 27.0996C216.967 27.2329 216.767 27.2993 216.5 27.2993C216.233 27.2993 216.033 27.2329 215.9 27.0996C215.767 26.8996 215.7 26.6995 215.7 26.4995ZM219 32.5996V32.4995C219 31.2328 219.3 30.2663 219.9 29.5996C220.433 28.8663 221.2 28.4995 222.2 28.4995C223.133 28.4995 223.867 28.7994 224.4 29.3994L224.5 28.5996H225.7V39.5996H224.3V35.7993C223.767 36.3993 223.067 36.6997 222.2 36.6997C221.2 36.6997 220.433 36.3329 219.9 35.5996C219.3 34.7996 219 33.7996 219 32.5996ZM220.4 32.6997C220.4 33.5664 220.567 34.266 220.9 34.7993C221.3 35.3326 221.833 35.5996 222.5 35.5996C223.3 35.5996 223.9 35.2328 224.3 34.4995V30.5996C223.9 29.9329 223.3 29.5996 222.5 29.5996C221.833 29.5996 221.333 29.8661 221 30.3994C220.6 30.8661 220.4 31.633 220.4 32.6997ZM227.5 32.5996V32.4995C227.5 31.2328 227.8 30.2663 228.4 29.5996C229 28.8663 229.767 28.4995 230.7 28.4995C231.633 28.4995 232.367 28.7994 232.9 29.3994L233 28.5996H234.2V39.5996H232.9V35.7993C232.3 36.3993 231.567 36.6997 230.7 36.6997C229.7 36.6997 228.933 36.3329 228.4 35.5996C227.8 34.7996 227.5 33.7996 227.5 32.5996ZM228.9 32.6997C228.9 33.5664 229.1 34.266 229.5 34.7993C229.833 35.3326 230.333 35.5996 231 35.5996C231.8 35.5996 232.433 35.2328 232.9 34.4995V30.5996C232.433 29.9329 231.8 29.5996 231 29.5996C230.4 29.5996 229.9 29.8661 229.5 30.3994C229.1 30.8661 228.9 31.633 228.9 32.6997ZM242.7 36.4995H241.3C241.233 36.3662 241.167 36.0997 241.1 35.6997C240.5 36.3664 239.733 36.6997 238.8 36.6997C238.067 36.6997 237.433 36.4662 236.9 35.9995C236.433 35.5995 236.2 35.0326 236.2 34.2993C236.2 33.4993 236.5 32.8661 237.1 32.3994C237.767 31.9327 238.667 31.6997 239.8 31.6997H241.1V31.0996C241.1 30.6329 240.967 30.2662 240.7 29.9995C240.367 29.7328 239.933 29.5996 239.4 29.5996C238.933 29.5996 238.533 29.6994 238.2 29.8994C237.867 30.1661 237.7 30.466 237.7 30.7993H236.3C236.3 30.3993 236.433 30.033 236.7 29.6997C237.033 29.2997 237.433 28.9993 237.9 28.7993C238.367 28.5993 238.9 28.4995 239.5 28.4995C240.433 28.4995 241.133 28.733 241.6 29.1997C242.133 29.5997 242.4 30.1995 242.4 30.9995V34.6997C242.4 35.433 242.5 35.9994 242.7 36.3994V36.4995ZM239 35.4995C239.467 35.4995 239.9 35.3997 240.3 35.1997C240.633 34.933 240.9 34.6326 241.1 34.2993V32.6997H240C238.333 32.6997 237.5 33.1663 237.5 34.0996C237.5 34.5663 237.667 34.8996 238 35.0996C238.267 35.3663 238.6 35.4995 239 35.4995ZM244.6 28.5996H245.8L245.9 29.5996C246.5 28.7996 247.3 28.3994 248.3 28.3994C249.967 28.3994 250.8 29.366 250.8 31.2993V36.4995H249.4V31.2993C249.4 30.6993 249.267 30.2662 249 29.9995C248.8 29.7328 248.4 29.5996 247.8 29.5996C247.4 29.5996 247.033 29.6994 246.7 29.8994C246.367 30.1661 246.1 30.4994 245.9 30.8994V36.4995H244.6V28.5996ZM252.5 32.5996V32.4995C252.5 31.2995 252.8 30.3329 253.4 29.5996C253.933 28.8663 254.667 28.4995 255.6 28.4995C256.533 28.4995 257.267 28.7994 257.8 29.3994V25.2993H259.2V36.4995H257.9V35.6997C257.367 36.3664 256.6 36.6997 255.6 36.6997C254.667 36.6997 253.933 36.3329 253.4 35.5996C252.8 34.7996 252.5 33.7996 252.5 32.5996ZM253.9 32.6997C253.9 33.5664 254.067 34.266 254.4 34.7993C254.8 35.266 255.333 35.4995 256 35.4995C256.8 35.4995 257.4 35.1327 257.8 34.3994V30.6997C257.4 29.9664 256.8 29.5996 256 29.5996C255.333 29.5996 254.8 29.8661 254.4 30.3994C254.067 30.9327 253.9 31.6997 253.9 32.6997ZM264.6 36.6997C263.533 36.6997 262.667 36.3329 262 35.5996C261.267 34.9329 260.9 33.9993 260.9 32.7993V32.5996C260.9 31.7996 261.067 31.0995 261.4 30.4995C261.667 29.8328 262.1 29.3328 262.7 28.9995C263.233 28.6662 263.8 28.4995 264.4 28.4995C265.467 28.4995 266.267 28.8328 266.8 29.4995C267.4 30.1662 267.7 31.1327 267.7 32.3994V32.9995H262.3C262.3 33.7328 262.533 34.3661 263 34.8994C263.4 35.3661 263.967 35.5996 264.7 35.5996C265.167 35.5996 265.567 35.4993 265.9 35.2993C266.233 35.0993 266.5 34.8328 266.7 34.4995L267.6 35.1997C266.933 36.1997 265.933 36.6997 264.6 36.6997ZM264.4 29.5996C263.867 29.5996 263.4 29.7997 263 30.1997C262.667 30.5997 262.433 31.1661 262.3 31.8994H266.3V31.7993C266.3 31.066 266.133 30.533 265.8 30.1997C265.467 29.7997 265 29.5996 264.4 29.5996ZM274.2 36.4995L271.5 32.8994L270.6 33.7993V36.4995H269.2V25.2993H270.6V32.0996L271.3 31.1997L273.8 28.5996H275.4L272.4 31.8994L275.8 36.4995H274.2ZM276.8 38.6997L276 38.0996C276.467 37.4996 276.7 36.8664 276.7 36.1997V34.8994H278.1V35.9995C278.1 36.4662 277.967 36.9662 277.7 37.4995C277.433 37.9662 277.133 38.3664 276.8 38.6997ZM284 26.6997H285.3V28.5996H286.8V29.6997H285.3V34.5996C285.3 34.9329 285.367 35.166 285.5 35.2993C285.633 35.4327 285.867 35.4995 286.2 35.4995C286.333 35.4995 286.533 35.4661 286.8 35.3994V36.4995C286.467 36.6328 286.133 36.6997 285.8 36.6997C285.2 36.6997 284.733 36.4996 284.4 36.0996C284.133 35.7663 284 35.2663 284 34.5996V29.6997H282.5V28.5996H284V26.6997ZM294.7 36.5996H293.3C293.233 36.3996 293.167 36.0997 293.1 35.6997C292.433 36.3664 291.667 36.6997 290.8 36.6997C290.067 36.6997 289.433 36.4996 288.9 36.0996C288.433 35.6329 288.2 35.0661 288.2 34.3994C288.2 33.5327 288.5 32.8661 289.1 32.3994C289.7 31.9994 290.6 31.7993 291.8 31.7993H293.1V31.0996C293.1 30.6329 292.933 30.2662 292.6 29.9995C292.333 29.7328 291.933 29.5996 291.4 29.5996C290.933 29.5996 290.533 29.6994 290.2 29.8994C289.867 30.1661 289.7 30.466 289.7 30.7993H288.3C288.3 30.3993 288.433 30.033 288.7 29.6997C289.033 29.2997 289.433 28.9993 289.9 28.7993C290.367 28.5993 290.9 28.4995 291.5 28.4995C292.367 28.4995 293.067 28.733 293.6 29.1997C294.133 29.6664 294.4 30.2996 294.4 31.0996V34.6997C294.4 35.433 294.5 35.9994 294.7 36.3994V36.5996ZM291 35.5996C291.467 35.5996 291.867 35.4993 292.2 35.2993C292.6 35.0993 292.9 34.7994 293.1 34.3994V32.7993H292C290.333 32.7993 289.5 33.2993 289.5 34.2993C289.5 34.6993 289.633 35.0326 289.9 35.2993C290.233 35.4993 290.6 35.5996 291 35.5996ZM303.3 32.6997V32.7993C303.3 33.9993 303 34.9664 302.4 35.6997C301.867 36.433 301.133 36.7993 300.2 36.7993C299.2 36.7993 298.433 36.433 297.9 35.6997L297.8 36.5996H296.5V25.3994H297.9V29.5996C298.433 28.9329 299.2 28.5996 300.2 28.5996C301.133 28.5996 301.867 28.9664 302.4 29.6997C303 30.433 303.3 31.433 303.3 32.6997ZM301.9 32.5996C301.9 31.6663 301.733 30.9662 301.4 30.4995C301 29.9662 300.467 29.6997 299.8 29.6997C298.933 29.6997 298.3 30.1328 297.9 30.9995V34.3994C298.3 35.1994 298.933 35.5996 299.8 35.5996C300.467 35.5996 301 35.3661 301.4 34.8994C301.733 34.3661 301.9 33.5996 301.9 32.5996ZM306.4 28.6997V36.5996H305.1V28.6997H306.4ZM304.9 26.5996C304.9 26.3996 304.967 26.2329 305.1 26.0996C305.233 25.8996 305.433 25.7993 305.7 25.7993C305.967 25.7993 306.167 25.8996 306.3 26.0996C306.433 26.2329 306.5 26.3996 306.5 26.5996C306.5 26.7996 306.433 26.9997 306.3 27.1997C306.167 27.333 305.967 27.3994 305.7 27.3994C305.433 27.3994 305.233 27.333 305.1 27.1997C304.967 26.9997 304.9 26.7996 304.9 26.5996ZM310 28.6997V36.5996H308.7V28.6997H310ZM308.5 26.5996C308.5 26.3996 308.567 26.2329 308.7 26.0996C308.833 25.8996 309.033 25.7993 309.3 25.7993C309.567 25.7993 309.767 25.8996 309.9 26.0996C310.033 26.2329 310.1 26.3996 310.1 26.5996C310.1 26.7996 310.033 26.9997 309.9 27.1997C309.767 27.333 309.567 27.3994 309.3 27.3994C309.033 27.3994 308.833 27.333 308.7 27.1997C308.567 26.9997 308.5 26.7996 308.5 26.5996ZM312.7 28.6997L314.7 34.6997L316.6 28.6997H318L314.8 37.8994C314.333 39.1661 313.567 39.7993 312.5 39.7993H312.2L311.7 39.6997V38.5996L312.1 38.6997C312.567 38.6997 312.933 38.5994 313.2 38.3994C313.4 38.1994 313.6 37.8661 313.8 37.3994L314.1 36.5996L311.3 28.6997H312.7ZM323.5 28.6997L325.5 34.7993L327.4 28.6997H328.8L326 36.5996H325L322.1 28.6997H323.5ZM336.4 36.5996H334.9C334.833 36.4663 334.767 36.1993 334.7 35.7993C334.1 36.466 333.367 36.7993 332.5 36.7993C331.7 36.7993 331.067 36.5663 330.6 36.0996C330.067 35.6996 329.8 35.1327 329.8 34.3994C329.8 33.5994 330.1 32.9662 330.7 32.4995C331.367 32.0328 332.267 31.7993 333.4 31.7993H334.7V31.1997C334.7 30.733 334.567 30.3663 334.3 30.0996C334.033 29.8329 333.6 29.6997 333 29.6997C332.533 29.6997 332.133 29.7995 331.8 29.9995C331.467 30.2662 331.3 30.5661 331.3 30.8994H330C330 30.4994 330.133 30.1327 330.4 29.7993C330.667 29.3993 331.033 29.0994 331.5 28.8994C332.033 28.6994 332.567 28.5996 333.1 28.5996C334.033 28.5996 334.767 28.8326 335.3 29.2993C335.767 29.6993 336.033 30.2996 336.1 31.0996V34.7993C336.1 35.5326 336.2 36.0995 336.4 36.4995V36.5996ZM332.7 35.5996C333.1 35.5996 333.5 35.4993 333.9 35.2993C334.3 35.0326 334.567 34.7327 334.7 34.3994V32.7993H333.7C332.033 32.7993 331.2 33.2664 331.2 34.1997C331.2 34.6664 331.333 34.9997 331.6 35.1997C331.867 35.4664 332.233 35.5996 332.7 35.5996ZM342.4 26.7993H343.7V28.6997H345.2V29.7993H343.7V34.6997C343.7 34.9664 343.767 35.1994 343.9 35.3994C344.033 35.5327 344.267 35.5996 344.6 35.5996C344.8 35.5996 345.033 35.5662 345.3 35.4995V36.5996C344.9 36.7329 344.533 36.7993 344.2 36.7993C343.6 36.7993 343.167 36.5997 342.9 36.1997C342.567 35.8664 342.4 35.3664 342.4 34.6997V29.7993H340.9V28.6997H342.4V26.7993ZM350.1 36.7993C349.033 36.7993 348.167 36.433 347.5 35.6997C346.833 35.033 346.5 34.0994 346.5 32.8994V32.6997C346.5 31.8997 346.633 31.1996 346.9 30.5996C347.233 29.9329 347.667 29.4329 348.2 29.0996C348.733 28.7663 349.3 28.5996 349.9 28.5996C350.967 28.5996 351.767 28.9329 352.3 29.5996C352.9 30.2663 353.2 31.2328 353.2 32.4995V33.0996H347.8C347.8 33.8329 348.033 34.4662 348.5 34.9995C348.967 35.4662 349.533 35.6997 350.2 35.6997C350.667 35.6997 351.067 35.5994 351.4 35.3994C351.733 35.1994 352.033 34.9329 352.3 34.5996L353.1 35.2993C352.433 36.2993 351.433 36.7993 350.1 36.7993ZM349.9 29.6997C349.367 29.6997 348.933 29.8993 348.6 30.2993C348.2 30.6993 347.967 31.2662 347.9 31.9995H351.8V31.8994C351.8 31.1661 351.633 30.6327 351.3 30.2993C350.967 29.8993 350.5 29.6997 349.9 29.6997ZM360.4 29.6997L356 35.4995H360.7V36.5996H354.4V35.6997L358.7 29.7993H354.4V28.6997H360.4V29.6997ZM369.1 35.6997C369.567 35.6997 369.967 35.566 370.3 35.2993C370.7 34.966 370.9 34.5997 370.9 34.1997H372.2C372.2 34.6664 372.067 35.0995 371.8 35.4995C371.467 35.8995 371.067 36.2328 370.6 36.4995C370.133 36.6995 369.633 36.7993 369.1 36.7993C368.033 36.7993 367.167 36.466 366.5 35.7993C365.9 35.066 365.6 34.066 365.6 32.7993V32.5996C365.6 31.7996 365.733 31.0995 366 30.4995C366.267 29.8995 366.667 29.4329 367.2 29.0996C367.733 28.7663 368.367 28.5996 369.1 28.5996C369.967 28.5996 370.7 28.8661 371.3 29.3994C371.9 29.9327 372.2 30.6328 372.2 31.4995H370.9C370.9 30.9662 370.733 30.533 370.4 30.1997C370 29.8664 369.567 29.6997 369.1 29.6997C368.367 29.6997 367.833 29.9662 367.5 30.4995C367.1 30.9662 366.9 31.6663 366.9 32.5996V32.8994C366.9 33.7661 367.1 34.4662 367.5 34.9995C367.833 35.4662 368.367 35.6997 369.1 35.6997ZM375.1 25.3994V29.6997C375.7 28.9664 376.5 28.5996 377.5 28.5996C379.167 28.5996 380 29.5662 380 31.4995V36.6997H378.6V31.3994C378.6 30.8661 378.467 30.4664 378.2 30.1997C378 29.933 377.6 29.7993 377 29.7993C376.6 29.7993 376.233 29.8996 375.9 30.0996C375.567 30.3663 375.3 30.6662 375.1 30.9995V36.6997H373.8V25.3994H375.1ZM383.4 28.7993V36.6997H382.1V28.7993H383.4ZM381.9 26.6997C381.9 26.433 381.967 26.2329 382.1 26.0996C382.233 25.9663 382.433 25.8994 382.7 25.8994C382.967 25.8994 383.167 25.9663 383.3 26.0996C383.433 26.2329 383.5 26.433 383.5 26.6997C383.5 26.8997 383.433 27.0664 383.3 27.1997C383.167 27.333 382.967 27.3994 382.7 27.3994C382.433 27.3994 382.233 27.333 382.1 27.1997C381.967 27.0664 381.9 26.8997 381.9 26.6997ZM385.2 32.7993V32.6997C385.2 31.433 385.5 30.433 386.1 29.6997C386.633 28.9664 387.4 28.5996 388.4 28.5996C389.333 28.5996 390.067 28.9329 390.6 29.5996L390.7 28.7993H391.9V39.6997H390.5V35.9995C389.967 36.5328 389.267 36.7993 388.4 36.7993C387.4 36.7993 386.633 36.433 386.1 35.6997C385.5 34.9664 385.2 33.9993 385.2 32.7993ZM386.6 32.7993C386.6 33.7327 386.767 34.4662 387.1 34.9995C387.5 35.4662 388.033 35.6997 388.7 35.6997C389.5 35.6997 390.1 35.3664 390.5 34.6997V30.7993C390.1 30.066 389.5 29.6997 388.7 29.6997C388.033 29.6997 387.533 29.9662 387.2 30.4995C386.8 31.0328 386.6 31.7993 386.6 32.7993ZM398.7 34.5996C398.7 34.1996 398.567 33.8997 398.3 33.6997C398.033 33.4997 397.533 33.333 396.8 33.1997C396.133 33.0664 395.6 32.8997 395.2 32.6997C394.8 32.4997 394.5 32.2327 394.3 31.8994C394.1 31.6327 394 31.2994 394 30.8994C394 30.2994 394.267 29.766 394.8 29.2993C395.4 28.8326 396.1 28.5996 396.9 28.5996C397.833 28.5996 398.567 28.8326 399.1 29.2993C399.7 29.766 400 30.3663 400 31.0996H398.6C398.6 30.6996 398.433 30.3663 398.1 30.0996C397.833 29.8329 397.433 29.6997 396.9 29.6997C396.433 29.6997 396.067 29.8329 395.8 30.0996C395.533 30.2996 395.4 30.5661 395.4 30.8994C395.4 31.2327 395.533 31.4663 395.8 31.5996C396 31.7996 396.467 31.9663 397.2 32.0996C397.867 32.2329 398.4 32.433 398.8 32.6997C399.2 32.8997 399.5 33.1327 399.7 33.3994C399.9 33.7327 400 34.0995 400 34.4995C400 35.2328 399.733 35.7997 399.2 36.1997C398.6 36.5997 397.867 36.7993 397 36.7993C396.333 36.7993 395.767 36.6995 395.3 36.4995C394.833 36.2995 394.467 35.9996 394.2 35.5996C393.867 35.1996 393.7 34.733 393.7 34.1997H395.1C395.1 34.6664 395.267 35.0326 395.6 35.2993C396 35.566 396.467 35.6997 397 35.6997C397.533 35.6997 397.933 35.5994 398.2 35.3994C398.533 35.1994 398.7 34.9329 398.7 34.5996ZM403.3 28.7993V36.6997H401.9V28.7993H403.3ZM401.9 26.6997C401.9 26.433 401.967 26.2329 402.1 26.0996C402.233 25.9663 402.433 25.8994 402.7 25.8994C402.967 25.8994 403.167 25.9663 403.3 26.0996C403.433 26.2329 403.5 26.433 403.5 26.6997C403.5 26.8997 403.433 27.0664 403.3 27.1997C403.167 27.333 402.967 27.3994 402.7 27.3994C402.433 27.3994 402.233 27.333 402.1 27.1997C401.967 27.0664 401.9 26.8997 401.9 26.6997ZM405.5 28.7993H406.8V29.7993C407.4 28.9993 408.2 28.5996 409.2 28.5996C410.867 28.5996 411.7 29.5662 411.7 31.4995V36.6997H410.4V31.3994C410.4 30.8661 410.267 30.4664 410 30.1997C409.733 29.933 409.333 29.7993 408.8 29.7993C408.333 29.7993 407.933 29.8996 407.6 30.0996C407.267 30.3663 407 30.6662 406.8 30.9995V36.6997H405.5V28.7993ZM413.8 35.9995C413.8 35.7995 413.867 35.5994 414 35.3994C414.133 35.2661 414.333 35.1997 414.6 35.1997C414.867 35.1997 415.1 35.2661 415.3 35.3994C415.433 35.5994 415.5 35.7995 415.5 35.9995C415.5 36.1995 415.433 36.3996 415.3 36.5996C415.1 36.7329 414.867 36.7993 414.6 36.7993C414.333 36.7993 414.133 36.7329 414 36.5996C413.867 36.3996 413.8 36.1995 413.8 35.9995Z" fill="#DEE3FF"/>
</svg>
