<svg width="398" height="23" viewBox="0 0 398 23" fill="none" xmlns="http://www.w3.org/2000/svg">
<path d="M14.2 1.59961H10.6V10.2993L0 0.799316V16.9995H3.59998V8.29932L14.2 17.7993V1.59961ZM20.2 11.1997L19.9 13.9995H28L27.8 11.1997H20.2ZM21.8 12.1997L24 7.19971L26.1 12.1997L26 13.1997L27.8 16.9995H32.1L24 0.599609L15.9 16.9995H20.1L22 12.9995L21.8 12.1997ZM41.7 1.59961L37.9 10.7993L34.1 1.59961H29.8L37.9 17.9995L46 1.59961H41.7ZM50.5 7.69971V9.29932H53.3C54.3667 9.29932 55.3 9.16608 56.1 8.89941C56.9666 8.56608 57.6333 8.13294 58.1 7.59961C58.5666 6.99961 58.8 6.29951 58.8 5.49951C58.8 4.63284 58.5666 3.89932 58.1 3.29932C57.6333 2.69932 56.9666 2.26618 56.1 1.99951C55.3 1.73285 54.3667 1.59961 53.3 1.59961H47.7V16.9995H53.7C54.9 16.9995 55.9667 16.8328 56.9 16.4995C57.7667 16.2328 58.4334 15.7663 58.9 15.0996C59.4334 14.4996 59.7 13.6997 59.7 12.6997C59.7 11.8997 59.5333 11.233 59.2 10.6997C58.8666 10.0997 58.4 9.63265 57.8 9.29932C57.2001 8.96598 56.5667 8.69951 55.9 8.49951C55.1667 8.36618 54.4333 8.29932 53.7 8.29932H50.5V10.2993H53.3C53.6334 10.2993 53.9667 10.3327 54.3 10.3994C54.5667 10.4661 54.8333 10.5664 55.1 10.6997C55.3 10.833 55.4666 11.0326 55.6 11.2993C55.7333 11.4993 55.8 11.7663 55.8 12.0996C55.8 12.6329 55.7 13.0326 55.5 13.2993C55.3 13.566 55 13.7661 54.6 13.8994C54.2 14.0327 53.7667 14.0996 53.3 14.0996H51.4V4.49951H52.9C53.5667 4.49951 54.0667 4.63275 54.4 4.89941C54.8 5.16608 55 5.53285 55 5.99951C55 6.39951 54.9 6.73284 54.7 6.99951C54.5666 7.19951 54.3333 7.36618 54 7.49951C53.7333 7.63284 53.3667 7.69971 52.9 7.69971H50.5ZM64.7 11.1997L64.5 13.9995H72.6L72.4 11.1997H64.7ZM66.3 12.1997L68.4 7.19971L70.6 12.1997L70.5 13.1997L72.3 16.9995H76.5L68.4 0.599609L60.3 16.9995H64.5L66.4 12.9995L66.3 12.1997ZM75.1 1.59961V4.89941H79.4V16.9995H83.1V4.89941H87.3V1.59961H75.1ZM92.8 1.59961H89V16.9995H92.8V1.59961ZM91.5 16.9995H94.5C96.1667 16.9995 97.6334 16.6996 98.9 16.0996C100.1 15.4329 101.067 14.5327 101.8 13.3994C102.467 12.2661 102.8 10.8993 102.8 9.29932C102.8 7.69932 102.467 6.33304 101.8 5.19971C101.067 4.06637 100.1 3.16618 98.9 2.49951C97.6334 1.89951 96.1667 1.59961 94.5 1.59961H91.5V4.89941H94.4C95 4.89941 95.5666 4.96628 96.1 5.09961C96.6333 5.23294 97.1 5.46598 97.5 5.79932C97.9667 6.13265 98.3 6.59971 98.5 7.19971C98.7667 7.73304 98.9 8.43265 98.9 9.29932C98.9 10.166 98.7667 10.8661 98.5 11.3994C98.3 11.9327 97.9667 12.3993 97.5 12.7993C97.1 13.1326 96.6333 13.3662 96.1 13.4995C95.5666 13.6328 95 13.6997 94.4 13.6997H91.5V16.9995ZM107.2 11.1997L106.9 13.9995H115L114.8 11.1997H107.2ZM108.8 12.1997L111 7.29932L113.1 12.1997L113 13.1997L114.9 16.9995H119.1L111 0.599609L102.9 16.9995H107.1L109 12.9995L108.8 12.1997ZM127.6 8.59961V11.3994H131.7C131.567 11.7994 131.4 12.1996 131.2 12.5996C130.933 12.9329 130.667 13.2328 130.4 13.4995C130.067 13.6995 129.667 13.8996 129.2 14.0996C128.733 14.2329 128.233 14.2993 127.7 14.2993C126.767 14.2993 125.967 14.0997 125.3 13.6997C124.567 13.2997 124 12.7328 123.6 11.9995C123.2 11.1995 123 10.2993 123 9.29932C123 8.29932 123.2 7.43304 123.6 6.69971C124.067 5.96637 124.633 5.43294 125.3 5.09961C126.033 4.69961 126.833 4.49951 127.7 4.49951C128.567 4.49951 129.3 4.69961 129.9 5.09961C130.5 5.49961 130.967 5.99961 131.3 6.59961L134.6 4.89941C134.133 4.16608 133.567 3.53285 132.9 2.99951C132.233 2.46618 131.467 2.03304 130.6 1.69971C129.733 1.43304 128.767 1.29932 127.7 1.29932C126.5 1.29932 125.367 1.46598 124.3 1.79932C123.233 2.19932 122.333 2.76618 121.6 3.49951C120.8 4.16618 120.2 4.99951 119.8 5.99951C119.333 6.99951 119.1 8.09932 119.1 9.29932C119.1 10.4993 119.3 11.633 119.7 12.6997C120.167 13.6997 120.767 14.566 121.5 15.2993C122.233 15.966 123.133 16.4994 124.2 16.8994C125.2 17.2994 126.3 17.4995 127.5 17.4995C128.833 17.4995 130 17.266 131 16.7993C132 16.3327 132.867 15.6994 133.6 14.8994C134.267 14.0327 134.733 13.0662 135 11.9995C135.333 10.9328 135.467 9.79961 135.4 8.59961H127.6ZM141.7 1.59961H137.9V16.9995H141.7V1.59961ZM148.3 18.3994L146.3 20.9995C146.633 21.1995 147 21.3996 147.4 21.5996C147.8 21.7996 148.267 21.9663 148.8 22.0996C149.333 22.2329 149.9 22.2993 150.5 22.2993C151.167 22.2993 151.8 22.1995 152.4 21.9995C153 21.8662 153.533 21.6327 154 21.2993C154.467 21.0326 154.833 20.6329 155.1 20.0996C155.367 19.5663 155.5 18.933 155.5 18.1997V1.59961H151.5V17.3994C151.5 17.9994 151.367 18.433 151.1 18.6997C150.767 18.9664 150.433 19.0996 150.1 19.0996C149.767 19.0996 149.433 19.0327 149.1 18.8994C148.833 18.7661 148.567 18.5994 148.3 18.3994ZM161.9 9.29932C161.9 8.36598 162.067 7.56608 162.4 6.89941C162.733 6.23275 163.233 5.69932 163.9 5.29932C164.567 4.89932 165.333 4.69971 166.2 4.69971C167.133 4.69971 167.9 4.89932 168.5 5.29932C169.167 5.69932 169.667 6.23275 170 6.89941C170.333 7.56608 170.5 8.36598 170.5 9.29932C170.5 10.2326 170.333 11.033 170 11.6997C169.667 12.433 169.167 12.9994 168.5 13.3994C167.833 13.7994 167.067 13.9995 166.2 13.9995C165.333 13.9995 164.567 13.7994 163.9 13.3994C163.233 12.9994 162.733 12.433 162.4 11.6997C162.067 11.033 161.9 10.2326 161.9 9.29932ZM157.9 9.29932C157.9 10.4993 158.1 11.5996 158.5 12.5996C158.9 13.5996 159.467 14.4664 160.2 15.1997C160.933 15.933 161.833 16.4994 162.9 16.8994C163.9 17.2994 165 17.4995 166.2 17.4995C167.4 17.4995 168.5 17.2994 169.5 16.8994C170.5 16.4994 171.367 15.933 172.1 15.1997C172.9 14.4664 173.5 13.5996 173.9 12.5996C174.3 11.5996 174.5 10.4993 174.5 9.29932C174.5 8.09932 174.3 7.03294 173.9 6.09961C173.433 5.09961 172.833 4.23285 172.1 3.49951C171.367 2.76618 170.5 2.23275 169.5 1.89941C168.5 1.49941 167.4 1.29932 166.2 1.29932C165 1.29932 163.9 1.49941 162.9 1.89941C161.9 2.23275 161.033 2.76618 160.3 3.49951C159.567 4.23285 158.967 5.09961 158.5 6.09961C158.1 7.03294 157.9 8.09932 157.9 9.29932ZM191.1 1.59961H187.5V10.2993L176.9 0.799316V16.9995H180.4V8.29932L191.1 17.7993V1.59961ZM198 1.59961H194.3V16.9995H204.2V13.7993H198V1.59961ZM209.7 1.59961H205.9V16.9995H209.7V1.59961ZM221.3 11.5996L218.7 13.3994C219.033 14.1327 219.533 14.8328 220.2 15.4995C220.8 16.0995 221.533 16.5661 222.4 16.8994C223.267 17.2994 224.2 17.4995 225.2 17.4995C225.867 17.4995 226.567 17.3997 227.3 17.1997C227.967 16.933 228.567 16.5997 229.1 16.1997C229.633 15.7997 230.067 15.2997 230.4 14.6997C230.667 14.0997 230.8 13.3996 230.8 12.5996C230.8 11.9329 230.7 11.3661 230.5 10.8994C230.3 10.3661 230.033 9.93294 229.7 9.59961C229.367 9.19961 228.933 8.86628 228.4 8.59961C227.933 8.33294 227.433 8.09941 226.9 7.89941C226.233 7.63275 225.633 7.39971 225.1 7.19971C224.567 6.93304 224.167 6.69951 223.9 6.49951C223.633 6.23284 223.5 5.89951 223.5 5.49951C223.5 5.16618 223.633 4.89971 223.9 4.69971C224.233 4.43304 224.633 4.29932 225.1 4.29932C225.5 4.29932 225.867 4.39961 226.2 4.59961C226.6 4.73294 226.933 4.93304 227.2 5.19971C227.467 5.46637 227.733 5.79971 228 6.19971L230.8 4.59961C230.533 4.06628 230.167 3.53285 229.7 2.99951C229.167 2.53285 228.533 2.09971 227.8 1.69971C227 1.36637 226.1 1.19971 225.1 1.19971C224.1 1.19971 223.2 1.39932 222.4 1.79932C221.6 2.13265 220.933 2.63265 220.4 3.29932C219.933 3.96598 219.7 4.73294 219.7 5.59961C219.7 6.39961 219.867 7.06628 220.2 7.59961C220.467 8.13294 220.8 8.56608 221.2 8.89941C221.6 9.29941 222.067 9.59932 222.6 9.79932C223.067 10.066 223.467 10.2661 223.8 10.3994C224.533 10.6661 225.133 10.8996 225.6 11.0996C226.067 11.3663 226.4 11.5993 226.6 11.7993C226.8 12.066 226.9 12.3993 226.9 12.7993C226.9 13.266 226.733 13.6327 226.4 13.8994C226.067 14.1661 225.633 14.2993 225.1 14.2993C224.567 14.2993 224.067 14.1995 223.6 13.9995C223.133 13.7328 222.7 13.3995 222.3 12.9995C221.9 12.5995 221.567 12.1329 221.3 11.5996ZM237 1.59961H233.3V16.9995H237V1.59961ZM235.7 1.59961V4.59961H238.7C239.433 4.59961 240 4.79971 240.4 5.19971C240.867 5.53304 241.1 5.99961 241.1 6.59961C241.1 7.26628 240.867 7.76628 240.4 8.09961C240 8.43294 239.433 8.59961 238.7 8.59961H235.7V11.5996H238.7C239.967 11.5996 241.067 11.4329 242 11.0996C242.867 10.6329 243.533 10.0326 244 9.29932C244.467 8.56598 244.7 7.66628 244.7 6.59961C244.7 5.53294 244.467 4.63275 244 3.89941C243.533 3.16608 242.867 2.59971 242 2.19971C241.067 1.79971 239.967 1.59961 238.7 1.59961H235.7ZM249.5 13.8994V16.9995H257.3V13.8994H249.5ZM249.5 1.59961V4.59961H257.2V1.59961H249.5ZM249.5 7.39941V10.3994H256.9V7.39941H249.5ZM250.6 1.59961H247V16.9995H250.6V1.59961ZM263 11.1997L262.7 13.9995H270.8L270.6 11.1997H263ZM264.6 12.1997L266.8 7.19971L268.9 12.1997L268.8 13.1997L270.6 16.9995H274.9L266.8 0.599609L258.7 16.9995H262.9L264.8 12.9995L264.6 12.1997ZM280.3 1.59961H276.5V16.9995H280.3V1.59961ZM289.9 1.59961H285.5L279.2 8.89941L285.7 16.9995H290.2L283.6 8.79932L289.9 1.59961ZM295.7 1.59961H291.9V16.9995H295.7V1.59961ZM313.1 1.59961H309.6V10.2993L298.9 0.899414V16.9995H302.5V8.39941L313.1 17.7993V1.59961ZM324 8.59961V11.3994H328.1C327.967 11.7994 327.8 12.1662 327.6 12.4995C327.333 12.8995 327.067 13.1994 326.8 13.3994C326.467 13.6661 326.067 13.8662 325.6 13.9995C325.133 14.1328 324.633 14.1997 324.1 14.1997C323.167 14.1997 322.367 13.9996 321.7 13.5996C320.967 13.1996 320.4 12.6327 320 11.8994C319.6 11.1661 319.4 10.2993 319.4 9.29932C319.4 8.29932 319.6 7.43304 320 6.69971C320.467 5.96637 321.033 5.39951 321.7 4.99951C322.433 4.66618 323.233 4.49951 324.1 4.49951C324.967 4.49951 325.7 4.69961 326.3 5.09961C326.9 5.49961 327.367 5.99961 327.7 6.59961L331 4.89941C330.533 4.16608 329.967 3.53285 329.3 2.99951C328.633 2.46618 327.867 2.03304 327 1.69971C326.133 1.36637 325.167 1.19971 324.1 1.19971C322.833 1.19971 321.7 1.39932 320.7 1.79932C319.633 2.19932 318.733 2.73275 318 3.39941C317.2 4.13275 316.6 4.99951 316.2 5.99951C315.733 6.99951 315.5 8.09932 315.5 9.29932C315.5 10.4993 315.7 11.5996 316.1 12.5996C316.567 13.5996 317.167 14.4664 317.9 15.1997C318.633 15.933 319.533 16.4994 320.6 16.8994C321.6 17.2994 322.7 17.4995 323.9 17.4995C325.233 17.4995 326.4 17.266 327.4 16.7993C328.4 16.3327 329.233 15.6994 329.9 14.8994C330.633 14.0327 331.133 13.0662 331.4 11.9995C331.733 10.9328 331.867 9.79961 331.8 8.59961H324ZM344.7 1.59961H340.9V16.9995H344.7V1.59961ZM343.4 16.9995H346.4C348.067 16.9995 349.533 16.6662 350.8 15.9995C352 15.3995 352.933 14.5327 353.6 13.3994C354.267 12.1994 354.6 10.8326 354.6 9.29932C354.6 7.69932 354.267 6.33304 353.6 5.19971C352.933 4.06637 352 3.16618 350.8 2.49951C349.533 1.89951 348.067 1.59961 346.4 1.59961H343.4V4.89941H346.3C346.833 4.89941 347.4 4.96628 348 5.09961C348.533 5.23294 349 5.46598 349.4 5.79932C349.8 6.13265 350.133 6.59971 350.4 7.19971C350.667 7.73304 350.8 8.43265 350.8 9.29932C350.8 10.0993 350.667 10.7994 350.4 11.3994C350.133 11.9327 349.8 12.3664 349.4 12.6997C349 13.0997 348.533 13.3662 348 13.4995C347.4 13.6328 346.833 13.6997 346.3 13.6997H343.4V16.9995ZM359 11.1997L358.8 13.9995H366.9L366.7 11.1997H359ZM360.6 12.1997L362.7 7.19971L364.9 12.1997L364.8 13.1997L366.6 16.9995H370.9L362.7 0.599609L354.6 16.9995H358.8L360.8 12.9995L360.6 12.1997ZM380.1 9.99951H376.3L380.6 16.9995H385L380.1 9.99951ZM376.1 1.59961H372.4V16.9995H376.1V1.59961ZM374.7 1.59961V4.69971H377.7C378.167 4.69971 378.6 4.79951 379 4.99951C379.333 5.13284 379.6 5.36637 379.8 5.69971C380 5.96637 380.1 6.29971 380.1 6.69971C380.1 7.16637 380 7.53265 379.8 7.79932C379.6 8.13265 379.333 8.36618 379 8.49951C378.6 8.69951 378.167 8.79932 377.7 8.79932H374.7V11.5996H378C379.267 11.5996 380.367 11.3995 381.3 10.9995C382.167 10.5995 382.833 9.99971 383.3 9.19971C383.7 8.46637 383.9 7.59961 383.9 6.59961C383.9 5.59961 383.7 4.73285 383.3 3.99951C382.833 3.26618 382.167 2.66637 381.3 2.19971C380.367 1.79971 379.267 1.59961 378 1.59961H374.7ZM388.3 11.5996L385.7 13.3994C386.033 14.1327 386.5 14.8328 387.1 15.4995C387.767 16.0995 388.533 16.5661 389.4 16.8994C390.267 17.2994 391.2 17.4995 392.2 17.4995C392.867 17.4995 393.533 17.3997 394.2 17.1997C394.933 16.933 395.567 16.5997 396.1 16.1997C396.633 15.7997 397.033 15.2997 397.3 14.6997C397.633 14.0997 397.8 13.3996 397.8 12.5996C397.8 11.9329 397.7 11.3661 397.5 10.8994C397.3 10.3661 397.033 9.93294 396.7 9.59961C396.3 9.19961 395.867 8.86628 395.4 8.59961C394.933 8.33294 394.433 8.09941 393.9 7.89941C393.167 7.63275 392.567 7.39971 392.1 7.19971C391.567 6.93304 391.167 6.66608 390.9 6.39941C390.633 6.13275 390.5 5.83285 390.5 5.49951C390.5 5.16618 390.633 4.89971 390.9 4.69971C391.167 4.43304 391.567 4.29932 392.1 4.29932C392.5 4.29932 392.867 4.39961 393.2 4.59961C393.6 4.73294 393.933 4.93304 394.2 5.19971C394.467 5.46637 394.7 5.79971 394.9 6.19971L397.8 4.59961C397.533 4.06628 397.133 3.53285 396.6 2.99951C396.133 2.46618 395.5 2.03304 394.7 1.69971C393.967 1.36637 393.1 1.19971 392.1 1.19971C391.1 1.19971 390.2 1.39932 389.4 1.79932C388.533 2.13265 387.867 2.63265 387.4 3.29932C386.933 3.89932 386.7 4.66628 386.7 5.59961C386.7 6.33294 386.833 6.99961 387.1 7.59961C387.433 8.13294 387.8 8.56608 388.2 8.89941C388.6 9.29941 389.033 9.59932 389.5 9.79932C390.033 10.066 390.467 10.2661 390.8 10.3994C391.533 10.6661 392.133 10.8996 392.6 11.0996C393.067 11.3663 393.4 11.5993 393.6 11.7993C393.8 12.066 393.9 12.3993 393.9 12.7993C393.9 13.266 393.733 13.6327 393.4 13.8994C393.067 14.1661 392.6 14.2993 392 14.2993C391.533 14.2993 391.067 14.1995 390.6 13.9995C390.133 13.7328 389.7 13.3995 389.3 12.9995C388.9 12.5995 388.567 12.1329 388.3 11.5996Z" fill="#005DF7"/>
</svg>
