<svg width="199" height="16" viewBox="0 0 199 16" fill="none" xmlns="http://www.w3.org/2000/svg">
<path d="M8.29968 1.29932V11.9993H6.89966L1.59961 3.79932V11.9993H0.0996094V1.29932H1.59961L6.89966 9.59924V1.29932H8.29968ZM10.2997 8.09924V7.99927C10.2997 7.19927 10.4329 6.49929 10.6996 5.89929C11.0329 5.23263 11.4663 4.73263 11.9996 4.39929C12.533 4.06596 13.1663 3.89929 13.8997 3.89929C14.9663 3.89929 15.833 4.26593 16.4996 4.99927C17.1663 5.79927 17.4996 6.79927 17.4996 7.99927V8.09924C17.4996 8.89924 17.333 9.59922 16.9996 10.1992C16.733 10.7992 16.333 11.2659 15.7997 11.5992C15.1997 11.9326 14.5663 12.0992 13.8997 12.0992C12.833 12.0992 11.9663 11.7326 11.2997 10.9993C10.633 10.2659 10.2997 9.29924 10.2997 8.09924ZM11.5996 8.09924C11.5996 8.96591 11.7996 9.66588 12.1996 10.1992C12.6663 10.7326 13.233 10.9993 13.8997 10.9993C14.5663 10.9993 15.0996 10.7326 15.4996 10.1992C15.8996 9.66588 16.0996 8.9326 16.0996 7.99927C16.0996 7.1326 15.8996 6.43263 15.4996 5.89929C15.0996 5.29929 14.5663 4.99927 13.8997 4.99927C13.233 4.99927 12.6663 5.26598 12.1996 5.79932C11.7996 6.33265 11.5996 7.09924 11.5996 8.09924ZM20.6996 0.799316V11.9993H19.2997V0.799316H20.6996ZM26.2997 8.09924V7.99927C26.2997 6.7326 26.5663 5.7326 27.0996 4.99927C27.6996 4.26593 28.4663 3.89929 29.3997 3.89929C30.333 3.89929 31.0663 4.23263 31.5996 4.89929V0.799316H32.8997V11.9993H31.6996L31.5996 11.1992C31.0663 11.7992 30.333 12.0992 29.3997 12.0992C28.4663 12.0992 27.6996 11.7326 27.0996 10.9993C26.5663 10.2659 26.2997 9.29924 26.2997 8.09924ZM27.5996 8.09924C27.5996 9.03258 27.7996 9.73255 28.1996 10.1992C28.5329 10.7326 29.0329 10.9993 29.6996 10.9993C30.5663 10.9993 31.1996 10.5993 31.5996 9.79932V6.19922C31.1996 5.46589 30.5663 5.09924 29.6996 5.09924C29.0329 5.09924 28.5329 5.33265 28.1996 5.79932C27.7996 6.33265 27.5996 7.09924 27.5996 8.09924ZM41.3997 11.9993H39.8997C39.833 11.8659 39.7663 11.5992 39.6996 11.1992C39.0996 11.7992 38.3663 12.0992 37.4996 12.0992C36.6996 12.0992 36.0663 11.8993 35.5996 11.4993C35.0663 11.0326 34.7997 10.466 34.7997 9.79932C34.7997 8.99932 35.0996 8.36596 35.6996 7.89929C36.3663 7.43263 37.2663 7.19922 38.3997 7.19922H39.6996V6.59924C39.6996 6.13258 39.5663 5.73263 39.2997 5.39929C39.033 5.13263 38.5996 4.99927 37.9996 4.99927C37.533 4.99927 37.133 5.13263 36.7997 5.39929C36.4664 5.66596 36.2997 5.96598 36.2997 6.29932H34.9996C34.9996 5.89932 35.133 5.49924 35.3997 5.09924C35.6663 4.76591 36.033 4.49932 36.4996 4.29932C37.033 4.03265 37.5663 3.89929 38.0996 3.89929C39.0329 3.89929 39.7663 4.13258 40.2997 4.59924C40.7663 5.06591 41.0329 5.69927 41.0996 6.49927V10.0992C41.0996 10.8326 41.1997 11.4326 41.3997 11.8993V11.9993ZM37.6996 10.9993C38.0996 10.9993 38.4997 10.8659 38.8997 10.5992C39.2997 10.3992 39.5662 10.1326 39.6996 9.79932V8.09924H38.6996C37.0329 8.09924 36.1996 8.59924 36.1996 9.59924C36.1996 9.99924 36.3329 10.3326 36.5996 10.5992C36.8663 10.8659 37.2329 10.9993 37.6996 10.9993ZM46.9996 3.99927V5.29932C46.7996 5.23265 46.5997 5.19922 46.3997 5.19922C45.4663 5.19922 44.8663 5.59929 44.5996 6.39929V11.9993H43.1996V4.09924H44.4996V4.99927C44.9663 4.26593 45.5997 3.89929 46.3997 3.89929C46.6663 3.89929 46.8663 3.9326 46.9996 3.99927ZM54.2997 11.9993H52.8997C52.833 11.7993 52.7663 11.4992 52.6996 11.0992C52.0329 11.7659 51.2663 12.0992 50.3997 12.0992C49.6663 12.0992 49.033 11.8993 48.4996 11.4993C48.033 11.0326 47.7997 10.466 47.7997 9.79932C47.7997 8.93265 48.0996 8.29929 48.6996 7.89929C49.2996 7.43263 50.1663 7.19922 51.2997 7.19922H52.6996V6.59924C52.6996 6.06591 52.5329 5.66596 52.1996 5.39929C51.9329 5.13263 51.533 4.99927 50.9996 4.99927C50.533 4.99927 50.133 5.13263 49.7997 5.39929C49.4664 5.59929 49.2997 5.89932 49.2997 6.29932H47.8997C47.8997 5.89932 48.033 5.49924 48.2997 5.09924C48.633 4.76591 49.033 4.46589 49.4996 4.19922C49.9663 3.99922 50.4996 3.89929 51.0996 3.89929C51.9663 3.89929 52.6663 4.13258 53.1996 4.59924C53.7329 5.06591 53.9996 5.69927 53.9996 6.49927V10.0992C53.9996 10.8326 54.0997 11.4326 54.2997 11.8993V11.9993ZM50.5996 10.8993C51.0663 10.8993 51.4664 10.7992 51.7997 10.5992C52.1997 10.3992 52.4996 10.0992 52.6996 9.69922V8.09924H51.5996C49.9329 8.09924 49.0996 8.59924 49.0996 9.59924C49.0996 9.99924 49.233 10.3326 49.4996 10.5992C49.833 10.7992 50.1996 10.8993 50.5996 10.8993ZM56.1996 3.99927H57.4996V12.8993C57.4996 14.4326 56.833 15.1992 55.4996 15.1992C55.1663 15.1992 54.8663 15.1326 54.5996 14.9993V13.9993C54.7996 13.9993 55.033 13.9993 55.2997 13.9993C55.5663 13.9993 55.7663 13.9326 55.8997 13.7993C56.0997 13.5993 56.1996 13.2993 56.1996 12.8993V3.99927ZM55.9996 1.89929C55.9996 1.69929 56.0662 1.53263 56.1996 1.39929C56.3329 1.19929 56.533 1.09924 56.7997 1.09924C57.0663 1.09924 57.2663 1.19929 57.3997 1.39929C57.533 1.53263 57.5996 1.69929 57.5996 1.89929C57.5996 2.09929 57.533 2.29927 57.3997 2.49927C57.2663 2.6326 57.0663 2.69922 56.7997 2.69922C56.533 2.69922 56.3329 2.6326 56.1996 2.49927C56.0662 2.29927 55.9996 2.09929 55.9996 1.89929ZM65.9996 11.8993H64.5996C64.5329 11.766 64.4663 11.4992 64.3997 11.0992C63.7997 11.7659 63.0662 12.0992 62.1996 12.0992C61.3996 12.0992 60.7329 11.866 60.1996 11.3993C59.7329 10.9993 59.4996 10.4326 59.4996 9.69922C59.4996 8.89922 59.7997 8.26598 60.3997 7.79932C61.0663 7.33265 61.9663 7.09924 63.0996 7.09924H64.3997V6.49927C64.3997 6.0326 64.2663 5.66596 63.9996 5.39929C63.733 5.13263 63.2996 4.99927 62.6996 4.99927C62.2329 4.99927 61.833 5.09932 61.4996 5.29932C61.1663 5.56598 60.9996 5.86589 60.9996 6.19922H59.6996C59.6996 5.79922 59.8329 5.43258 60.0996 5.09924C60.3663 4.69924 60.7329 4.39922 61.1996 4.19922C61.6663 3.99922 62.1997 3.89929 62.7997 3.89929C63.733 3.89929 64.4663 4.13258 64.9996 4.59924C65.4663 4.99924 65.733 5.59929 65.7997 6.39929V10.0992C65.7997 10.8326 65.8663 11.3993 65.9996 11.7993V11.8993ZM62.3997 10.8993C62.7997 10.8993 63.1996 10.7992 63.5996 10.5992C63.9329 10.3326 64.1997 10.0326 64.3997 9.69922V8.09924H63.2997C61.6997 8.09924 60.8997 8.56593 60.8997 9.49927C60.8997 9.96593 61.033 10.2993 61.2997 10.4993C61.5663 10.7659 61.933 10.8993 62.3997 10.8993ZM67.5996 7.99927V7.89929C67.5996 6.69929 67.8663 5.7326 68.3997 4.99927C68.9997 4.19927 69.7663 3.79932 70.6996 3.79932C71.6329 3.79932 72.3663 4.13265 72.8997 4.79932V0.699219H74.1996V11.8993H72.9996L72.8997 11.0992C72.3663 11.7659 71.6329 12.0992 70.6996 12.0992C69.7663 12.0992 68.9997 11.6993 68.3997 10.8993C67.8663 10.166 67.5996 9.19927 67.5996 7.99927ZM68.8997 7.99927C68.8997 8.9326 69.0996 9.66588 69.4996 10.1992C69.833 10.6659 70.333 10.8993 70.9996 10.8993C71.8663 10.8993 72.4997 10.5326 72.8997 9.79932V6.09924C72.4997 5.36591 71.8663 4.99927 70.9996 4.99927C70.333 4.99927 69.833 5.26598 69.4996 5.79932C69.0996 6.26598 68.8997 6.99927 68.8997 7.99927ZM82.6996 11.8993H81.1996C81.1329 11.766 81.0663 11.4992 80.9996 11.0992C80.3996 11.7659 79.6664 12.0992 78.7997 12.0992C77.9997 12.0992 77.3663 11.866 76.8997 11.3993C76.3663 10.9326 76.0996 10.3659 76.0996 9.69922C76.0996 8.89922 76.4329 8.26598 77.0996 7.79932C77.6996 7.33265 78.5663 7.09924 79.6996 7.09924H80.9996V6.49927C80.9996 6.0326 80.8663 5.66596 80.5996 5.39929C80.3329 5.06596 79.8997 4.89929 79.2997 4.89929C78.833 4.89929 78.4329 5.03265 78.0996 5.29932C77.7663 5.56598 77.5996 5.86589 77.5996 6.19922H76.2997C76.2997 5.79922 76.4329 5.39927 76.6996 4.99927C76.9663 4.66593 77.333 4.39922 77.7997 4.19922C78.333 3.93255 78.8663 3.79932 79.3997 3.79932C80.333 3.79932 81.0663 4.0326 81.5996 4.49927C82.0663 4.96593 82.333 5.59929 82.3997 6.39929V10.0992C82.3997 10.8326 82.4996 11.3993 82.6996 11.7993V11.8993ZM78.9996 10.8993C79.3996 10.8993 79.7996 10.7659 80.1996 10.4993C80.5996 10.2993 80.8663 10.0326 80.9996 9.69922V8.09924H79.9996C78.333 8.09924 77.4996 8.56593 77.4996 9.49927C77.4996 9.96593 77.633 10.2993 77.8997 10.4993C78.1663 10.7659 78.533 10.8993 78.9996 10.8993ZM84.4996 3.99927H85.7997V4.99927C86.3997 4.19927 87.1996 3.79932 88.1996 3.79932C89.8662 3.79932 90.6996 4.76589 90.6996 6.69922V11.8993H89.3997V6.69922C89.3997 6.09922 89.2663 5.66596 88.9996 5.39929C88.733 5.13263 88.333 4.99927 87.7997 4.99927C87.333 4.99927 86.9329 5.09932 86.5996 5.29932C86.2663 5.56598 86.033 5.89932 85.8997 6.29932V11.8993H84.4996V3.99927ZM103.1 8.49927H104.5C104.366 9.6326 103.966 10.5326 103.3 11.1992C102.566 11.7992 101.633 12.0992 100.5 12.0992C99.233 12.0992 98.233 11.6326 97.4996 10.6992C96.6996 9.83255 96.2997 8.63258 96.2997 7.09924V6.09924C96.2997 5.09924 96.4997 4.2326 96.8997 3.49927C97.233 2.69927 97.733 2.09922 98.3997 1.69922C98.9997 1.29922 99.7329 1.09924 100.6 1.09924C101.733 1.09924 102.666 1.43258 103.4 2.09924C104.066 2.69924 104.433 3.56589 104.5 4.69922H103.1C102.966 3.83255 102.7 3.19932 102.3 2.79932C101.9 2.46598 101.333 2.29932 100.6 2.29932C99.7329 2.29932 99.033 2.63265 98.4996 3.29932C97.9663 3.96598 97.6996 4.89924 97.6996 6.09924V7.09924C97.6996 8.29924 97.9663 9.23263 98.4996 9.89929C98.9663 10.566 99.633 10.8993 100.5 10.8993C101.3 10.8993 101.9 10.7326 102.3 10.3993C102.7 10.066 102.966 9.4326 103.1 8.49927ZM113.1 10.7993V11.8993H106.1V10.9993L109.8 6.89929C110.333 6.23263 110.7 5.69932 110.9 5.29932C111.1 4.96598 111.2 4.56591 111.2 4.09924C111.2 3.56591 111.033 3.13265 110.7 2.79932C110.366 2.39932 109.933 2.19922 109.4 2.19922C108.733 2.19922 108.2 2.39932 107.8 2.79932C107.466 3.19932 107.3 3.73263 107.3 4.39929H105.9C105.9 3.39929 106.233 2.59927 106.9 1.99927C107.5 1.39927 108.333 1.09924 109.4 1.09924C110.4 1.09924 111.166 1.36596 111.7 1.89929C112.3 2.43263 112.6 3.1326 112.6 3.99927C112.6 4.99927 111.933 6.23255 110.6 7.69922L107.7 10.7993H113.1ZM118.1 7.99927V7.89929C118.1 6.69929 118.4 5.7326 119 4.99927C119.533 4.26593 120.266 3.89929 121.2 3.89929C122.133 3.89929 122.866 4.19932 123.4 4.79932V0.699219H124.8V11.8993H123.5V11.0992C122.966 11.7659 122.2 12.0992 121.2 12.0992C120.266 12.0992 119.533 11.6993 119 10.8993C118.4 10.166 118.1 9.19927 118.1 7.99927ZM119.5 8.09924C119.5 8.96591 119.666 9.66588 120 10.1992C120.4 10.6659 120.933 10.8993 121.6 10.8993C122.4 10.8993 123 10.5326 123.4 9.79932V6.09924C123 5.36591 122.4 4.99927 121.6 4.99927C120.933 4.99927 120.4 5.26598 120 5.79932C119.666 6.26598 119.5 7.03258 119.5 8.09924ZM133.2 11.8993H131.8C131.733 11.766 131.666 11.4992 131.6 11.0992C131 11.7659 130.233 12.0992 129.3 12.0992C128.566 12.0992 127.933 11.866 127.4 11.3993C126.933 10.9326 126.7 10.3659 126.7 9.69922C126.7 8.89922 127 8.26598 127.6 7.79932C128.2 7.33265 129.1 7.09924 130.3 7.09924H131.6V6.49927C131.6 6.0326 131.433 5.66596 131.1 5.39929C130.833 5.06596 130.433 4.89929 129.9 4.89929C129.433 4.89929 129.033 5.03265 128.7 5.29932C128.366 5.56598 128.2 5.86589 128.2 6.19922H126.8C126.8 5.79922 126.933 5.43258 127.2 5.09924C127.533 4.69924 127.933 4.39922 128.4 4.19922C128.866 3.99922 129.4 3.89929 130 3.89929C130.866 3.89929 131.566 4.09927 132.1 4.49927C132.633 4.96593 132.9 5.59929 132.9 6.39929V10.0992C132.9 10.8326 133 11.3993 133.2 11.7993V11.8993ZM129.5 10.8993C129.966 10.8993 130.366 10.7659 130.7 10.4993C131.1 10.2993 131.4 10.0326 131.6 9.69922V8.09924H130.5C128.833 8.09924 128 8.56593 128 9.49927C128 9.96593 128.133 10.2993 128.4 10.4993C128.733 10.7659 129.1 10.8993 129.5 10.8993ZM138.9 3.89929V5.19922C138.7 5.13255 138.466 5.09924 138.2 5.09924C137.333 5.09924 136.733 5.49932 136.4 6.29932V11.8993H135.1V3.99927H136.4V4.89929C136.866 4.16596 137.5 3.79932 138.3 3.79932C138.566 3.79932 138.766 3.83263 138.9 3.89929ZM146.1 11.8993H144.7C144.633 11.766 144.566 11.4992 144.5 11.0992C143.9 11.7659 143.166 12.0992 142.3 12.0992C141.5 12.0992 140.866 11.866 140.4 11.3993C139.866 10.9326 139.6 10.3659 139.6 9.69922C139.6 8.89922 139.9 8.26598 140.5 7.79932C141.166 7.33265 142.066 7.09924 143.2 7.09924H144.5V6.49927C144.5 6.0326 144.366 5.66596 144.1 5.39929C143.833 5.06596 143.4 4.89929 142.8 4.89929C142.333 4.89929 141.933 5.03265 141.6 5.29932C141.266 5.56598 141.1 5.86589 141.1 6.19922H139.8C139.8 5.79922 139.933 5.39927 140.2 4.99927C140.466 4.66593 140.833 4.39922 141.3 4.19922C141.833 3.93255 142.366 3.79932 142.9 3.79932C143.833 3.79932 144.566 4.0326 145.1 4.49927C145.566 4.96593 145.833 5.59929 145.9 6.39929V10.0992C145.9 10.7659 145.966 11.3327 146.1 11.7993V11.8993ZM142.5 10.8993C142.9 10.8993 143.3 10.7659 143.7 10.4993C144.1 10.2993 144.366 10.0326 144.5 9.69922V7.99927H143.5C141.833 7.99927 141 8.49927 141 9.49927C141 9.89927 141.133 10.2326 141.4 10.4993C141.666 10.7659 142.033 10.8993 142.5 10.8993ZM148 3.99927H149.4V12.7993C149.4 14.3326 148.7 15.0992 147.3 15.0992C147.033 15.0992 146.766 15.0659 146.5 14.9993V13.8993C146.633 13.8993 146.833 13.8993 147.1 13.8993C147.433 13.8993 147.666 13.8326 147.8 13.6992C147.933 13.4992 148 13.1993 148 12.7993V3.99927ZM147.9 1.89929C147.9 1.69929 147.966 1.53263 148.1 1.39929C148.233 1.26596 148.433 1.19922 148.7 1.19922C148.966 1.19922 149.166 1.26596 149.3 1.39929C149.433 1.53263 149.5 1.69929 149.5 1.89929C149.5 2.16596 149.433 2.36593 149.3 2.49927C149.166 2.6326 148.966 2.69922 148.7 2.69922C148.433 2.69922 148.233 2.6326 148.1 2.49927C147.966 2.36593 147.9 2.16596 147.9 1.89929ZM157.9 11.9993H156.5C156.433 11.7993 156.366 11.4992 156.3 11.0992C155.633 11.7659 154.866 12.0992 154 12.0992C153.266 12.0992 152.633 11.866 152.1 11.3993C151.633 10.9993 151.4 10.466 151.4 9.79932C151.4 8.93265 151.7 8.26598 152.3 7.79932C152.9 7.39932 153.766 7.19922 154.9 7.19922H156.3V6.49927C156.3 6.0326 156.133 5.66596 155.8 5.39929C155.533 5.13263 155.133 4.99927 154.6 4.99927C154.133 4.99927 153.733 5.09932 153.4 5.29932C153.066 5.56598 152.9 5.86589 152.9 6.19922H151.5C151.5 5.79922 151.633 5.43258 151.9 5.09924C152.233 4.69924 152.633 4.39922 153.1 4.19922C153.566 3.99922 154.1 3.89929 154.7 3.89929C155.566 3.89929 156.266 4.13258 156.8 4.59924C157.333 5.06591 157.6 5.69927 157.6 6.49927V10.0992C157.6 10.8326 157.7 11.3993 157.9 11.7993V11.9993ZM154.2 10.9993C154.666 10.9993 155.066 10.8992 155.4 10.6992C155.8 10.4992 156.1 10.1993 156.3 9.79932V8.19922H155.2C153.533 8.19922 152.7 8.69922 152.7 9.69922C152.7 10.0992 152.833 10.4326 153.1 10.6992C153.433 10.8992 153.8 10.9993 154.2 10.9993ZM159.4 7.99927C159.4 6.79927 159.7 5.83258 160.3 5.09924C160.833 4.36591 161.566 3.99927 162.5 3.99927C163.5 3.99927 164.266 4.3326 164.8 4.99927L164.9 4.09924H166.1V11.8993C166.1 12.8993 165.8 13.6993 165.2 14.2993C164.6 14.8993 163.766 15.1992 162.7 15.1992C162.166 15.1992 161.633 15.066 161.1 14.7993C160.5 14.5326 160.066 14.1993 159.8 13.7993L160.5 12.9993C161.1 13.7326 161.833 14.0992 162.7 14.0992C163.3 14.0992 163.8 13.8993 164.2 13.4993C164.533 13.0993 164.7 12.566 164.7 11.8993V11.2993C164.166 11.8993 163.433 12.1992 162.5 12.1992C161.566 12.1992 160.833 11.8326 160.3 11.0992C159.7 10.2992 159.4 9.26593 159.4 7.99927ZM160.8 8.19922C160.8 9.06589 160.966 9.76598 161.3 10.2993C161.7 10.766 162.233 10.9993 162.9 10.9993C163.7 10.9993 164.3 10.6326 164.7 9.89929V6.29932C164.3 5.49932 163.7 5.09924 162.9 5.09924C162.233 5.09924 161.7 5.36596 161.3 5.89929C160.966 6.43263 160.8 7.19922 160.8 8.19922ZM174.5 11.9993H173C172.933 11.8659 172.9 11.5992 172.9 11.1992C172.233 11.8659 171.466 12.1992 170.6 12.1992C169.8 12.1992 169.166 11.9659 168.7 11.4993C168.166 11.0993 167.9 10.5326 167.9 9.79932C167.9 8.99932 168.233 8.36596 168.9 7.89929C169.5 7.43263 170.366 7.19922 171.5 7.19922H172.8V6.59924C172.8 6.13258 172.666 5.76593 172.4 5.49927C172.133 5.2326 171.733 5.09924 171.2 5.09924C170.666 5.09924 170.233 5.19929 169.9 5.39929C169.566 5.66596 169.4 5.96598 169.4 6.29932H168.1C168.1 5.89932 168.233 5.53255 168.5 5.19922C168.766 4.79922 169.133 4.49932 169.6 4.29932C170.133 4.09932 170.666 3.99927 171.2 3.99927C172.133 3.99927 172.866 4.23255 173.4 4.69922C173.933 5.09922 174.2 5.69927 174.2 6.49927V10.1992C174.2 10.9326 174.3 11.4993 174.5 11.8993V11.9993ZM170.8 10.9993C171.2 10.9993 171.6 10.8992 172 10.6992C172.4 10.4326 172.666 10.1326 172.8 9.79932V8.19922H171.8C170.133 8.19922 169.3 8.66591 169.3 9.59924C169.3 10.0659 169.433 10.3992 169.7 10.5992C169.966 10.8659 170.333 10.9993 170.8 10.9993ZM179.5 11.0992C179.966 11.0992 180.4 10.9326 180.8 10.5992C181.133 10.3326 181.333 9.96593 181.4 9.49927H182.6C182.6 9.96593 182.466 10.3993 182.2 10.7993C181.866 11.1993 181.466 11.5326 181 11.7993C180.533 12.066 180.033 12.1992 179.5 12.1992C178.433 12.1992 177.566 11.8326 176.9 11.0992C176.3 10.3659 176 9.36591 176 8.09924V7.89929C176 7.16596 176.133 6.49929 176.4 5.89929C176.666 5.29929 177.066 4.8326 177.6 4.49927C178.133 4.16593 178.766 3.99927 179.5 3.99927C180.366 3.99927 181.1 4.26598 181.7 4.79932C182.3 5.33265 182.6 5.99932 182.6 6.79932H181.4C181.333 6.33265 181.133 5.93258 180.8 5.59924C180.466 5.26591 180.033 5.09924 179.5 5.09924C178.766 5.09924 178.233 5.33265 177.9 5.79932C177.5 6.33265 177.3 7.06593 177.3 7.99927V8.19922C177.3 9.13255 177.5 9.83265 177.9 10.2993C178.233 10.8327 178.766 11.0992 179.5 11.0992ZM185.5 0.799316V5.09924C186.1 4.36591 186.9 3.99927 187.9 3.99927C189.566 3.99927 190.4 4.93265 190.4 6.79932V11.9993H189V6.79932C189 6.19932 188.866 5.76593 188.6 5.49927C188.4 5.2326 188.033 5.09924 187.5 5.09924C187.033 5.09924 186.633 5.2326 186.3 5.49927C185.966 5.69927 185.7 5.99929 185.5 6.39929V11.9993H184.2V0.799316H185.5ZM198.7 11.9993H197.3C197.166 11.8659 197.1 11.5992 197.1 11.1992C196.433 11.8659 195.666 12.1992 194.8 12.1992C194 12.1992 193.366 11.9659 192.9 11.4993C192.366 11.0326 192.1 10.466 192.1 9.79932C192.1 8.99932 192.433 8.36596 193.1 7.89929C193.7 7.43263 194.566 7.19922 195.7 7.19922H197V6.59924C197 6.13258 196.866 5.76593 196.6 5.49927C196.333 5.16593 195.933 4.99927 195.4 4.99927C194.866 4.99927 194.466 5.13263 194.2 5.39929C193.866 5.66596 193.7 5.96598 193.7 6.29932H192.3C192.3 5.89932 192.433 5.53255 192.7 5.19922C192.966 4.79922 193.366 4.49932 193.9 4.29932C194.366 4.09932 194.9 3.99927 195.5 3.99927C196.366 3.99927 197.066 4.19924 197.6 4.59924C198.133 5.06591 198.4 5.69927 198.4 6.49927V10.1992C198.4 10.9326 198.5 11.4993 198.7 11.8993V11.9993ZM195 10.9993C195.466 10.9993 195.866 10.8659 196.2 10.5992C196.6 10.3992 196.866 10.1326 197 9.79932V8.19922H196C194.333 8.19922 193.5 8.66591 193.5 9.59924C193.5 10.0659 193.633 10.3992 193.9 10.5992C194.166 10.8659 194.533 10.9993 195 10.9993Z" fill="#777777"/>
</svg>
