<svg width="316" height="26" viewBox="0 0 316 26" fill="none" xmlns="http://www.w3.org/2000/svg">
<path d="M5.2002 11.2998C5.2002 10.2331 5.40017 9.3 5.80017 8.5C6.20017 7.7 6.76685 7.06676 7.50018 6.6001C8.30018 6.2001 9.2002 6 10.2002 6C11.2002 6 12.0668 6.2001 12.8002 6.6001C13.5335 7.06676 14.1002 7.7 14.5002 8.5C14.9002 9.3 15.1002 10.2002 15.1002 11.2002C15.1002 12.2669 14.9002 13.2 14.5002 14C14.1002 14.8 13.5002 15.4332 12.7002 15.8999C11.9669 16.2999 11.1335 16.5 10.2002 16.5C9.2002 16.5 8.30018 16.2999 7.50018 15.8999C6.76685 15.4332 6.20017 14.8 5.80017 14C5.40017 13.2 5.2002 12.2669 5.2002 11.2002V11.2998ZM0.700195 11.2998C0.700195 12.6998 0.93351 13.9668 1.40018 15.1001C1.86684 16.2334 2.53351 17.2 3.40018 18C4.20018 18.8667 5.20018 19.5333 6.40018 20C7.53351 20.4 8.8002 20.6001 10.2002 20.6001C11.5335 20.6001 12.7668 20.4 13.9002 20C15.1002 19.5333 16.1002 18.8667 16.9002 18C17.7668 17.2 18.4335 16.2334 18.9002 15.1001C19.3668 13.9668 19.6002 12.6998 19.6002 11.2998C19.6002 9.96647 19.3668 8.73343 18.9002 7.6001C18.4335 6.53343 17.7668 5.56686 16.9002 4.7002C16.0335 3.9002 15.0335 3.2999 13.9002 2.8999C12.7668 2.43324 11.5335 2.2002 10.2002 2.2002C8.86686 2.2002 7.60018 2.43324 6.40018 2.8999C5.26684 3.2999 4.26684 3.9002 3.40018 4.7002C2.60018 5.56686 1.93351 6.53343 1.40018 7.6001C0.93351 8.73343 0.700195 9.96647 0.700195 11.2998ZM27.0002 2.6001H23.0002L21.9002 10.6001H24.4002L27.0002 2.6001ZM37.0002 8.6001V25.6001H40.8002V8.6001H37.0002ZM27.6002 14.2998C27.6002 15.6331 27.8668 16.7669 28.4002 17.7002C28.9335 18.6335 29.6002 19.3331 30.4002 19.7998C31.2668 20.2665 32.1669 20.5 33.1002 20.5C34.1002 20.5 34.9669 20.2335 35.7002 19.7002C36.3669 19.2335 36.9002 18.5334 37.3002 17.6001C37.7002 16.6668 37.9002 15.5665 37.9002 14.2998C37.9002 13.0998 37.7002 12.0334 37.3002 11.1001C36.9002 10.1668 36.3669 9.46667 35.7002 9C34.9669 8.46667 34.1002 8.2002 33.1002 8.2002C32.1669 8.2002 31.2668 8.43324 30.4002 8.8999C29.6002 9.36657 28.9335 10.0667 28.4002 11C27.8668 11.8667 27.6002 12.9665 27.6002 14.2998ZM31.6002 14.2998C31.6002 13.6998 31.7002 13.1998 31.9002 12.7998C32.1668 12.3998 32.5002 12.0665 32.9002 11.7998C33.3668 11.5998 33.8335 11.5 34.3002 11.5C34.7668 11.5 35.2002 11.5998 35.6002 11.7998C36.0002 11.9998 36.3335 12.3331 36.6002 12.7998C36.8669 13.1998 37.0002 13.6998 37.0002 14.2998C37.0002 14.9665 36.8669 15.4999 36.6002 15.8999C36.3335 16.2999 36.0002 16.5998 35.6002 16.7998C35.2002 16.9998 34.7668 17.1001 34.3002 17.1001C33.8335 17.1001 33.3668 16.9998 32.9002 16.7998C32.5002 16.5998 32.1668 16.2665 31.9002 15.7998C31.7002 15.3998 31.6002 14.8998 31.6002 14.2998ZM47.6002 15.6001V8.6001H43.7002V16C43.7002 17.3333 44.0335 18.4002 44.7002 19.2002C45.3669 19.9335 46.4002 20.2998 47.8002 20.2998C48.6668 20.2998 49.3668 20.1331 49.9002 19.7998C50.5002 19.4665 50.9668 18.9665 51.3002 18.2998V20.1001H55.1002V8.6001H51.3002V15.6001C51.3002 16.0668 51.2335 16.4335 51.1002 16.7002C50.9002 17.0335 50.6668 17.3 50.4002 17.5C50.0668 17.6333 49.7002 17.7002 49.3002 17.7002C48.7002 17.7002 48.2668 17.5001 48.0002 17.1001C47.7335 16.7668 47.6002 16.2668 47.6002 15.6001ZM60.5002 8.6001H56.5002L63.2002 21.3999L69.8002 8.6001H65.8002L63.2002 15L60.5002 8.6001ZM74.0002 14.2998C74.0002 13.6998 74.1335 13.1998 74.4002 12.7998C74.6669 12.3331 75.0335 11.9669 75.5002 11.7002C75.9669 11.4335 76.4669 11.2998 77.0002 11.2998C77.4002 11.2998 77.8335 11.3667 78.3002 11.5C78.7002 11.6333 79.1002 11.8334 79.5002 12.1001C79.9002 12.3001 80.2002 12.6 80.4002 13V9.2998C80.0002 9.03314 79.5002 8.8001 78.9002 8.6001C78.3002 8.4001 77.5669 8.2998 76.7002 8.2998C75.4335 8.2998 74.3002 8.56676 73.3002 9.1001C72.3002 9.56676 71.5002 10.2669 70.9002 11.2002C70.3669 12.0669 70.1002 13.0998 70.1002 14.2998C70.1002 15.4998 70.3669 16.5332 70.9002 17.3999C71.5002 18.3332 72.3002 19.0668 73.3002 19.6001C74.3002 20.0668 75.4335 20.2998 76.7002 20.2998C77.5669 20.2998 78.3002 20.2 78.9002 20C79.5002 19.8 80.0002 19.5335 80.4002 19.2002V15.6001C80.2002 15.9334 79.9002 16.2333 79.5002 16.5C79.1668 16.7667 78.7668 16.9668 78.3002 17.1001C77.9002 17.2334 77.4669 17.2998 77.0002 17.2998C76.4669 17.2998 75.9669 17.1666 75.5002 16.8999C75.0335 16.6999 74.6669 16.3666 74.4002 15.8999C74.1335 15.4332 74.0002 14.8998 74.0002 14.2998ZM86.9002 20.1001V0.600098H83.1002V20.1001H86.9002ZM90.6002 13.1001V20.1001H94.4002V12.5C94.4002 11.5667 94.2669 10.7668 94.0002 10.1001C93.7335 9.43343 93.3002 8.93343 92.7002 8.6001C92.1669 8.26676 91.4002 8.1001 90.4002 8.1001C89.4669 8.1001 88.7002 8.33314 88.1002 8.7998C87.5002 9.1998 87.0335 9.8001 86.7002 10.6001C86.4335 11.3334 86.3002 12.1668 86.3002 13.1001H86.9002C86.9002 12.6334 87.0002 12.2332 87.2002 11.8999C87.3335 11.5666 87.5669 11.3335 87.9002 11.2002C88.1669 11.0002 88.5002 10.8999 88.9002 10.8999C89.5669 10.8999 90.0002 11.1 90.2002 11.5C90.4669 11.8333 90.6002 12.3668 90.6002 13.1001ZM97.1002 4.2002C97.1002 4.8002 97.3335 5.3002 97.8002 5.7002C98.2002 6.1002 98.7002 6.2998 99.3002 6.2998C99.9002 6.2998 100.434 6.1002 100.9 5.7002C101.3 5.3002 101.5 4.8002 101.5 4.2002C101.5 3.6002 101.3 3.13314 100.9 2.7998C100.434 2.3998 99.9002 2.2002 99.3002 2.2002C98.7002 2.2002 98.2002 2.3998 97.8002 2.7998C97.3335 3.13314 97.1002 3.6002 97.1002 4.2002ZM101.1 8.6001H97.5002V20.1001H101.1V8.6001ZM111.7 13.1001V20.1001H115.6V12.7002C115.6 11.3002 115.3 10.1999 114.7 9.3999C114.034 8.66657 112.967 8.2998 111.5 8.2998C110.7 8.2998 110 8.46647 109.4 8.7998C108.8 9.13314 108.334 9.63314 108 10.2998V8.6001H104.2V20.1001H108V13.1001C108 12.6334 108.1 12.2332 108.3 11.8999C108.434 11.5666 108.667 11.3335 109 11.2002C109.267 11.0002 109.6 10.8999 110 10.8999C110.6 10.8999 111.034 11.1 111.3 11.5C111.567 11.8333 111.7 12.3668 111.7 13.1001ZM118.4 4.2002C118.4 4.8002 118.6 5.3002 119 5.7002C119.467 6.1002 120 6.2998 120.6 6.2998C121.2 6.2998 121.7 6.1002 122.1 5.7002C122.567 5.3002 122.8 4.8002 122.8 4.2002C122.8 3.6002 122.567 3.13314 122.1 2.7998C121.7 2.3998 121.2 2.2002 120.6 2.2002C120 2.2002 119.467 2.3998 119 2.7998C118.6 3.13314 118.4 3.6002 118.4 4.2002ZM122.4 8.6001H118.8V20.1001H122.4V8.6001ZM133 13.1001V20.1001H136.9V12.7002C136.9 11.3002 136.567 10.1999 135.9 9.3999C135.3 8.66657 134.267 8.2998 132.8 8.2998C131.934 8.2998 131.234 8.46647 130.7 8.7998C130.1 9.13314 129.633 9.63314 129.3 10.2998V8.6001H125.5V20.1001H129.3V13.1001C129.3 12.6334 129.4 12.2332 129.6 11.8999C129.733 11.5666 129.967 11.3335 130.3 11.2002C130.567 11.0002 130.9 10.8999 131.3 10.8999C131.9 10.8999 132.333 11.1 132.6 11.5C132.867 11.8333 133 12.3668 133 13.1001ZM143.1 20.8999H139.5C139.567 21.8999 139.834 22.8001 140.3 23.6001C140.767 24.3334 141.467 24.9332 142.4 25.3999C143.334 25.7999 144.5 26 145.9 26C147.1 26 148.167 25.7999 149.1 25.3999C150.033 24.9332 150.8 24.2666 151.4 23.3999C151.934 22.4666 152.2 21.2665 152.2 19.7998V8.6001H148.6V19.7998C148.6 20.5331 148.467 21.1334 148.2 21.6001C147.934 22.0668 147.6 22.4335 147.2 22.7002C146.734 22.9002 146.234 23 145.7 23C145.234 23 144.8 22.9331 144.4 22.7998C144.067 22.5998 143.767 22.3668 143.5 22.1001C143.3 21.7668 143.167 21.3666 143.1 20.8999ZM139.2 14.2002C139.2 15.4669 139.467 16.5332 140 17.3999C140.534 18.2666 141.2 18.9332 142 19.3999C142.867 19.7999 143.767 20 144.7 20C145.634 20 146.467 19.7665 147.2 19.2998C148 18.8331 148.6 18.1665 149 17.2998C149.467 16.4331 149.7 15.4002 149.7 14.2002C149.7 12.9335 149.467 11.8667 149 11C148.6 10.1333 148 9.46667 147.2 9C146.467 8.53333 145.634 8.2998 144.7 8.2998C143.767 8.2998 142.867 8.4999 142 8.8999C141.2 9.36657 140.534 10.0332 140 10.8999C139.467 11.7666 139.2 12.8669 139.2 14.2002ZM143.2 14.2002C143.2 13.5335 143.333 13.0001 143.6 12.6001C143.8 12.2001 144.133 11.9002 144.6 11.7002C145 11.5002 145.434 11.3999 145.9 11.3999C146.234 11.3999 146.567 11.4333 146.9 11.5C147.234 11.6333 147.5 11.8334 147.7 12.1001C147.967 12.3001 148.2 12.5666 148.4 12.8999C148.534 13.2332 148.6 13.6669 148.6 14.2002C148.6 14.8002 148.467 15.3002 148.2 15.7002C147.934 16.1002 147.6 16.4335 147.2 16.7002C146.8 16.8335 146.367 16.8999 145.9 16.8999C145.434 16.8999 145 16.8001 144.6 16.6001C144.133 16.4001 143.8 16.1002 143.6 15.7002C143.333 15.2335 143.2 14.7335 143.2 14.2002ZM162 14.2998C162 15.4998 162.267 16.5332 162.8 17.3999C163.4 18.3332 164.2 19.0668 165.2 19.6001C166.2 20.0668 167.3 20.2998 168.5 20.2998C169.767 20.2998 170.9 20.0668 171.9 19.6001C172.9 19.0668 173.667 18.3332 174.2 17.3999C174.8 16.5332 175.1 15.4998 175.1 14.2998C175.1 13.0998 174.8 12.0334 174.2 11.1001C173.667 10.2334 172.9 9.53333 171.9 9C170.9 8.53333 169.767 8.2998 168.5 8.2998C167.3 8.2998 166.2 8.53333 165.2 9C164.2 9.53333 163.4 10.2334 162.8 11.1001C162.267 12.0334 162 13.0998 162 14.2998ZM165.8 14.2998C165.8 13.6998 165.934 13.1669 166.2 12.7002C166.467 12.3002 166.8 11.9669 167.2 11.7002C167.6 11.5002 168.034 11.3999 168.5 11.3999C169.034 11.3999 169.5 11.5002 169.9 11.7002C170.3 11.9669 170.6 12.3002 170.8 12.7002C171.067 13.1669 171.2 13.6998 171.2 14.2998C171.2 14.8998 171.067 15.4332 170.8 15.8999C170.6 16.2999 170.3 16.5998 169.9 16.7998C169.5 17.0665 169.034 17.2002 168.5 17.2002C168.034 17.2002 167.6 17.0665 167.2 16.7998C166.8 16.5998 166.467 16.2999 166.2 15.8999C165.934 15.4332 165.8 14.8998 165.8 14.2998ZM188.6 8.6001H184.4L182.2 11.6001L180.1 8.6001H175.8L180.2 14.2002L175.5 20.1001H179.9L182.2 16.7002L184.6 20.1001H188.8L184.2 14.2002L188.6 8.6001ZM190.1 4.2002C190.1 4.8002 190.3 5.3002 190.7 5.7002C191.167 6.1002 191.7 6.2998 192.3 6.2998C192.9 6.2998 193.4 6.1002 193.8 5.7002C194.267 5.3002 194.5 4.8002 194.5 4.2002C194.5 3.6002 194.267 3.13314 193.8 2.7998C193.4 2.3998 192.9 2.2002 192.3 2.2002C191.7 2.2002 191.167 2.3998 190.7 2.7998C190.3 3.13314 190.1 3.6002 190.1 4.2002ZM194.1 8.6001H190.4V20.1001H194.1V8.6001ZM200.9 20.1001V8.6001H197.2V20.1001H200.9ZM204.2 12.5L205.8 9.2002C205.6 8.93353 205.334 8.7 205 8.5C204.6 8.36667 204.2 8.2998 203.8 8.2998C203.133 8.2998 202.5 8.4999 201.9 8.8999C201.367 9.2999 200.9 9.86676 200.5 10.6001C200.167 11.3334 200 12.1668 200 13.1001L200.9 14.3999C200.9 13.8666 200.967 13.4 201.1 13C201.233 12.6 201.467 12.3001 201.8 12.1001C202.067 11.9001 202.367 11.7998 202.7 11.7998C203.034 11.7998 203.333 11.8667 203.6 12C203.8 12.1333 204 12.3 204.2 12.5ZM210.3 20.8999H206.6C206.733 21.8999 207.034 22.8001 207.5 23.6001C207.967 24.3334 208.634 24.9332 209.5 25.3999C210.434 25.7999 211.633 26 213.1 26C214.233 26 215.3 25.7999 216.3 25.3999C217.234 24.9999 217.967 24.3332 218.5 23.3999C219.1 22.4666 219.4 21.2665 219.4 19.7998V8.6001H215.8V19.7998C215.8 20.5331 215.667 21.1334 215.4 21.6001C215.134 22.0668 214.8 22.4335 214.4 22.7002C213.934 22.9002 213.434 23 212.9 23C212.434 23 212 22.9331 211.6 22.7998C211.2 22.5998 210.9 22.3668 210.7 22.1001C210.5 21.7668 210.367 21.3666 210.3 20.8999ZM206.4 14.2002C206.4 15.4669 206.667 16.5332 207.2 17.3999C207.734 18.2666 208.4 18.9332 209.2 19.3999C210.067 19.7999 210.967 20 211.9 20C212.834 20 213.667 19.7665 214.4 19.2998C215.134 18.8331 215.734 18.1665 216.2 17.2998C216.6 16.4331 216.8 15.4002 216.8 14.2002C216.8 12.9335 216.6 11.8667 216.2 11C215.734 10.1333 215.134 9.46667 214.4 9C213.667 8.53333 212.834 8.2998 211.9 8.2998C210.967 8.2998 210.067 8.53333 209.2 9C208.4 9.4 207.734 10.0332 207.2 10.8999C206.667 11.7666 206.4 12.8669 206.4 14.2002ZM210.4 14.2002C210.4 13.6002 210.5 13.0668 210.7 12.6001C210.967 12.2001 211.3 11.9002 211.7 11.7002C212.167 11.5002 212.633 11.3999 213.1 11.3999C213.433 11.3999 213.767 11.4333 214.1 11.5C214.367 11.6333 214.634 11.8334 214.9 12.1001C215.167 12.3001 215.367 12.5666 215.5 12.8999C215.7 13.2999 215.8 13.7335 215.8 14.2002C215.8 14.8002 215.667 15.3002 215.4 15.7002C215.134 16.1002 214.8 16.4335 214.4 16.7002C214 16.9002 213.567 17 213.1 17C212.633 17 212.167 16.8668 211.7 16.6001C211.3 16.4001 210.967 16.1002 210.7 15.7002C210.5 15.2335 210.4 14.7335 210.4 14.2002ZM222.1 4.2002C222.1 4.8002 222.3 5.3002 222.7 5.7002C223.167 6.1002 223.7 6.2998 224.3 6.2998C224.9 6.2998 225.4 6.1002 225.8 5.7002C226.267 5.3002 226.5 4.8002 226.5 4.2002C226.5 3.6002 226.267 3.13314 225.8 2.7998C225.4 2.3998 224.9 2.2002 224.3 2.2002C223.7 2.2002 223.167 2.3998 222.7 2.7998C222.3 3.13314 222.1 3.6002 222.1 4.2002ZM226.1 8.6001H222.5V20.1001H226.1V8.6001ZM254.3 20.1001V12.7002C254.3 11.7669 254.167 10.9665 253.9 10.2998C253.7 9.63314 253.334 9.13314 252.8 8.7998C252.267 8.46647 251.533 8.2998 250.6 8.2998C249.867 8.2998 249.167 8.46647 248.5 8.7998C247.9 9.13314 247.4 9.60019 247 10.2002C246.734 9.60019 246.334 9.13314 245.8 8.7998C245.267 8.46647 244.567 8.2998 243.7 8.2998C242.9 8.2998 242.234 8.46647 241.7 8.7998C241.1 9.13314 240.667 9.63314 240.4 10.2998V8.6001H236.7V20.1001H240.4V13.1001C240.4 12.6334 240.467 12.2332 240.6 11.8999C240.733 11.5666 240.934 11.3335 241.2 11.2002C241.467 11.0002 241.767 10.8999 242.1 10.8999C242.567 10.8999 242.934 11.1 243.2 11.5C243.4 11.8333 243.5 12.3668 243.5 13.1001V20.1001H247.3V13.1001C247.3 12.6334 247.367 12.2332 247.5 11.8999C247.634 11.5666 247.833 11.3335 248.1 11.2002C248.367 11.0002 248.667 10.8999 249 10.8999C249.534 10.8999 249.9 11.1 250.1 11.5C250.367 11.8333 250.5 12.3668 250.5 13.1001V20.1001H254.3ZM260.1 16.5C260.1 16.1667 260.167 15.9331 260.3 15.7998C260.434 15.5998 260.634 15.4331 260.9 15.2998C261.167 15.2331 261.534 15.2002 262 15.2002C262.6 15.2002 263.167 15.2666 263.7 15.3999C264.234 15.5332 264.7 15.7668 265.1 16.1001V14.3999C264.9 14.1999 264.6 13.9998 264.2 13.7998C263.8 13.5998 263.3 13.4331 262.7 13.2998C262.167 13.1665 261.534 13.1001 260.8 13.1001C259.4 13.1001 258.3 13.4334 257.5 14.1001C256.7 14.7001 256.3 15.5669 256.3 16.7002C256.3 17.4335 256.5 18.1002 256.9 18.7002C257.3 19.2335 257.8 19.6332 258.4 19.8999C259 20.1666 259.667 20.2998 260.4 20.2998C261.134 20.2998 261.834 20.1666 262.5 19.8999C263.1 19.6332 263.6 19.2665 264 18.7998C264.4 18.2665 264.6 17.6332 264.6 16.8999L264.2 15.3999C264.2 15.9332 264.1 16.3998 263.9 16.7998C263.634 17.1331 263.334 17.4001 263 17.6001C262.6 17.8001 262.2 17.8999 261.8 17.8999C261.467 17.8999 261.2 17.8335 261 17.7002C260.734 17.5669 260.534 17.4002 260.4 17.2002C260.2 17.0002 260.1 16.7667 260.1 16.5ZM257.2 9.6001L258.5 12.1001C258.634 11.9668 258.9 11.8335 259.3 11.7002C259.634 11.5669 260.034 11.4331 260.5 11.2998C261.034 11.1665 261.567 11.1001 262.1 11.1001C262.434 11.1001 262.734 11.1335 263 11.2002C263.267 11.2669 263.5 11.3667 263.7 11.5C263.9 11.7 264.033 11.9001 264.1 12.1001C264.167 12.3001 264.2 12.5331 264.2 12.7998V20.1001H267.9V12C267.9 11.2 267.667 10.4999 267.2 9.8999C266.734 9.36657 266.1 8.96686 265.3 8.7002C264.5 8.36686 263.567 8.2002 262.5 8.2002C261.434 8.2002 260.434 8.36686 259.5 8.7002C258.634 8.96686 257.867 9.26676 257.2 9.6001ZM278.2 13.1001V20.1001H282.1V12.7002C282.1 11.3002 281.767 10.1999 281.1 9.3999C280.434 8.66657 279.4 8.2998 278 8.2998C277.134 8.2998 276.4 8.46647 275.8 8.7998C275.267 9.13314 274.834 9.63314 274.5 10.2998V8.6001H270.7V20.1001H274.5V13.1001C274.5 12.6334 274.567 12.2332 274.7 11.8999C274.9 11.5666 275.134 11.3335 275.4 11.2002C275.734 11.0002 276.1 10.8999 276.5 10.8999C277.1 10.8999 277.534 11.1 277.8 11.5C278.067 11.8333 278.2 12.3668 278.2 13.1001ZM285 12H290L284 20.1001H295.5V16.6001H290.5L296.3 8.6001H285V12ZM297.9 4.2002C297.9 4.8002 298.1 5.3002 298.5 5.7002C298.967 6.1002 299.5 6.2998 300.1 6.2998C300.7 6.2998 301.2 6.1002 301.6 5.7002C302.067 5.3002 302.3 4.8002 302.3 4.2002C302.3 3.6002 302.067 3.13314 301.6 2.7998C301.2 2.3998 300.7 2.2002 300.1 2.2002C299.5 2.2002 298.967 2.3998 298.5 2.7998C298.1 3.13314 297.9 3.6002 297.9 4.2002ZM301.9 8.5H298.3V20H301.9V8.5ZM308.8 0.5H305V20H308.8V0.5ZM311.5 4.2002C311.5 4.8002 311.734 5.3002 312.2 5.7002C312.6 6.1002 313.1 6.2998 313.7 6.2998C314.367 6.2998 314.9 6.1002 315.3 5.7002C315.7 5.3002 315.9 4.8002 315.9 4.2002C315.9 3.6002 315.7 3.13314 315.3 2.7998C314.9 2.3998 314.367 2.2002 313.7 2.2002C313.1 2.2002 312.6 2.3998 312.2 2.7998C311.734 3.13314 311.5 3.6002 311.5 4.2002ZM315.6 8.5H311.9V20H315.6V8.5Z" fill="white"/>
</svg>
