<svg width="303" height="26" viewBox="0 0 303 26" fill="none" xmlns="http://www.w3.org/2000/svg">
<path d="M5.2002 11.2993C5.2002 10.2326 5.40017 9.29951 5.80017 8.49951C6.20017 7.69951 6.76685 7.06628 7.50018 6.59961C8.30018 6.19961 9.2002 5.99951 10.2002 5.99951C11.2002 5.99951 12.0668 6.19961 12.8002 6.59961C13.5335 7.06628 14.1002 7.69951 14.5002 8.49951C14.9002 9.29951 15.1002 10.1997 15.1002 11.1997C15.1002 12.2664 14.9002 13.1995 14.5002 13.9995C14.1002 14.7995 13.5002 15.4327 12.7002 15.8994C11.9669 16.2994 11.1335 16.4995 10.2002 16.4995C9.2002 16.4995 8.30018 16.2994 7.50018 15.8994C6.76685 15.4327 6.20017 14.7995 5.80017 13.9995C5.40017 13.1995 5.2002 12.2664 5.2002 11.1997V11.2993ZM0.700195 11.2993C0.700195 12.6993 0.93351 13.9663 1.40018 15.0996C1.86684 16.2329 2.53351 17.1995 3.40018 17.9995C4.20018 18.8662 5.20018 19.5328 6.40018 19.9995C7.53351 20.3995 8.8002 20.5996 10.2002 20.5996C11.5335 20.5996 12.7668 20.3995 13.9002 19.9995C15.1002 19.5328 16.1002 18.8662 16.9002 17.9995C17.7668 17.1995 18.4335 16.2329 18.9002 15.0996C19.3668 13.9663 19.6002 12.6993 19.6002 11.2993C19.6002 9.96598 19.3668 8.73294 18.9002 7.59961C18.4335 6.53294 17.7668 5.56637 16.9002 4.69971C16.0335 3.89971 15.0335 3.29941 13.9002 2.89941C12.7668 2.43275 11.5335 2.19971 10.2002 2.19971C8.86686 2.19971 7.60018 2.43275 6.40018 2.89941C5.26684 3.29941 4.26684 3.89971 3.40018 4.69971C2.60018 5.56637 1.93351 6.53294 1.40018 7.59961C0.93351 8.73294 0.700195 9.96598 0.700195 11.2993ZM27.0002 2.59961H23.0002L21.9002 10.5996H24.4002L27.0002 2.59961ZM37.0002 8.59961V25.5996H40.8002V8.59961H37.0002ZM27.6002 14.2993C27.6002 15.6326 27.8668 16.7664 28.4002 17.6997C28.9335 18.633 29.6002 19.3326 30.4002 19.7993C31.2668 20.266 32.1669 20.4995 33.1002 20.4995C34.1002 20.4995 34.9669 20.233 35.7002 19.6997C36.3669 19.233 36.9002 18.5329 37.3002 17.5996C37.7002 16.6663 37.9002 15.566 37.9002 14.2993C37.9002 13.0993 37.7002 12.0329 37.3002 11.0996C36.9002 10.1663 36.3669 9.46618 35.7002 8.99951C34.9669 8.46618 34.1002 8.19971 33.1002 8.19971C32.1669 8.19971 31.2668 8.43275 30.4002 8.89941C29.6002 9.36608 28.9335 10.0662 28.4002 10.9995C27.8668 11.8662 27.6002 12.966 27.6002 14.2993ZM31.6002 14.2993C31.6002 13.6993 31.7002 13.1993 31.9002 12.7993C32.1668 12.3993 32.5002 12.066 32.9002 11.7993C33.3668 11.5993 33.8335 11.4995 34.3002 11.4995C34.7668 11.4995 35.2002 11.5993 35.6002 11.7993C36.0002 11.9993 36.3335 12.3327 36.6002 12.7993C36.8669 13.1993 37.0002 13.6993 37.0002 14.2993C37.0002 14.966 36.8669 15.4994 36.6002 15.8994C36.3335 16.2994 36.0002 16.5993 35.6002 16.7993C35.2002 16.9993 34.7668 17.0996 34.3002 17.0996C33.8335 17.0996 33.3668 16.9993 32.9002 16.7993C32.5002 16.5993 32.1668 16.266 31.9002 15.7993C31.7002 15.3993 31.6002 14.8993 31.6002 14.2993ZM47.6002 15.5996V8.59961H43.7002V15.9995C43.7002 17.3328 44.0335 18.3997 44.7002 19.1997C45.3669 19.933 46.4002 20.2993 47.8002 20.2993C48.6668 20.2993 49.3668 20.1327 49.9002 19.7993C50.5002 19.466 50.9668 18.966 51.3002 18.2993V20.0996H55.1002V8.59961H51.3002V15.5996C51.3002 16.0663 51.2335 16.433 51.1002 16.6997C50.9002 17.033 50.6668 17.2995 50.4002 17.4995C50.0668 17.6328 49.7002 17.6997 49.3002 17.6997C48.7002 17.6997 48.2668 17.4996 48.0002 17.0996C47.7335 16.7663 47.6002 16.2663 47.6002 15.5996ZM60.5002 8.59961H56.5002L63.2002 21.3994L69.8002 8.59961H65.8002L63.2002 14.9995L60.5002 8.59961ZM74.0002 14.2993C74.0002 13.6993 74.1335 13.1993 74.4002 12.7993C74.6669 12.3327 75.0335 11.9664 75.5002 11.6997C75.9669 11.433 76.4669 11.2993 77.0002 11.2993C77.4002 11.2993 77.8335 11.3662 78.3002 11.4995C78.7002 11.6328 79.1002 11.8329 79.5002 12.0996C79.9002 12.2996 80.2002 12.5995 80.4002 12.9995V9.29932C80.0002 9.03265 79.5002 8.79961 78.9002 8.59961C78.3002 8.39961 77.5669 8.29932 76.7002 8.29932C75.4335 8.29932 74.3002 8.56628 73.3002 9.09961C72.3002 9.56628 71.5002 10.2664 70.9002 11.1997C70.3669 12.0664 70.1002 13.0993 70.1002 14.2993C70.1002 15.4993 70.3669 16.5327 70.9002 17.3994C71.5002 18.3327 72.3002 19.0663 73.3002 19.5996C74.3002 20.0663 75.4335 20.2993 76.7002 20.2993C77.5669 20.2993 78.3002 20.1995 78.9002 19.9995C79.5002 19.7995 80.0002 19.533 80.4002 19.1997V15.5996C80.2002 15.9329 79.9002 16.2328 79.5002 16.4995C79.1668 16.7662 78.7668 16.9663 78.3002 17.0996C77.9002 17.2329 77.4669 17.2993 77.0002 17.2993C76.4669 17.2993 75.9669 17.1661 75.5002 16.8994C75.0335 16.6994 74.6669 16.3661 74.4002 15.8994C74.1335 15.4327 74.0002 14.8993 74.0002 14.2993ZM86.9002 20.0996V0.599609H83.1002V20.0996H86.9002ZM90.6002 13.0996V20.0996H94.4002V12.4995C94.4002 11.5662 94.2669 10.7663 94.0002 10.0996C93.7335 9.43294 93.3002 8.93294 92.7002 8.59961C92.1669 8.26628 91.4002 8.09961 90.4002 8.09961C89.4669 8.09961 88.7002 8.33265 88.1002 8.79932C87.5002 9.19932 87.0335 9.79961 86.7002 10.5996C86.4335 11.3329 86.3002 12.1663 86.3002 13.0996H86.9002C86.9002 12.6329 87.0002 12.2327 87.2002 11.8994C87.3335 11.5661 87.5669 11.333 87.9002 11.1997C88.1669 10.9997 88.5002 10.8994 88.9002 10.8994C89.5669 10.8994 90.0002 11.0995 90.2002 11.4995C90.4669 11.8328 90.6002 12.3663 90.6002 13.0996ZM97.1002 4.19971C97.1002 4.79971 97.3335 5.29971 97.8002 5.69971C98.2002 6.09971 98.7002 6.29932 99.3002 6.29932C99.9002 6.29932 100.434 6.09971 100.9 5.69971C101.3 5.29971 101.5 4.79971 101.5 4.19971C101.5 3.59971 101.3 3.13265 100.9 2.79932C100.434 2.39932 99.9002 2.19971 99.3002 2.19971C98.7002 2.19971 98.2002 2.39932 97.8002 2.79932C97.3335 3.13265 97.1002 3.59971 97.1002 4.19971ZM101.1 8.59961H97.5002V20.0996H101.1V8.59961ZM111.7 13.0996V20.0996H115.6V12.6997C115.6 11.2997 115.3 10.1994 114.7 9.39941C114.034 8.66608 112.967 8.29932 111.5 8.29932C110.7 8.29932 110 8.46598 109.4 8.79932C108.8 9.13265 108.334 9.63265 108 10.2993V8.59961H104.2V20.0996H108V13.0996C108 12.6329 108.1 12.2327 108.3 11.8994C108.434 11.5661 108.667 11.333 109 11.1997C109.267 10.9997 109.6 10.8994 110 10.8994C110.6 10.8994 111.034 11.0995 111.3 11.4995C111.567 11.8328 111.7 12.3663 111.7 13.0996ZM118.4 4.19971C118.4 4.79971 118.6 5.29971 119 5.69971C119.467 6.09971 120 6.29932 120.6 6.29932C121.2 6.29932 121.7 6.09971 122.1 5.69971C122.567 5.29971 122.8 4.79971 122.8 4.19971C122.8 3.59971 122.567 3.13265 122.1 2.79932C121.7 2.39932 121.2 2.19971 120.6 2.19971C120 2.19971 119.467 2.39932 119 2.79932C118.6 3.13265 118.4 3.59971 118.4 4.19971ZM122.4 8.59961H118.8V20.0996H122.4V8.59961ZM133 13.0996V20.0996H136.9V12.6997C136.9 11.2997 136.567 10.1994 135.9 9.39941C135.3 8.66608 134.267 8.29932 132.8 8.29932C131.934 8.29932 131.234 8.46598 130.7 8.79932C130.1 9.13265 129.633 9.63265 129.3 10.2993V8.59961H125.5V20.0996H129.3V13.0996C129.3 12.6329 129.4 12.2327 129.6 11.8994C129.733 11.5661 129.967 11.333 130.3 11.1997C130.567 10.9997 130.9 10.8994 131.3 10.8994C131.9 10.8994 132.333 11.0995 132.6 11.4995C132.867 11.8328 133 12.3663 133 13.0996ZM143.1 20.8994H139.5C139.567 21.8994 139.834 22.7996 140.3 23.5996C140.767 24.3329 141.467 24.9327 142.4 25.3994C143.334 25.7994 144.5 25.9995 145.9 25.9995C147.1 25.9995 148.167 25.7994 149.1 25.3994C150.033 24.9327 150.8 24.2661 151.4 23.3994C151.934 22.4661 152.2 21.266 152.2 19.7993V8.59961H148.6V19.7993C148.6 20.5326 148.467 21.1329 148.2 21.5996C147.934 22.0663 147.6 22.433 147.2 22.6997C146.734 22.8997 146.234 22.9995 145.7 22.9995C145.234 22.9995 144.8 22.9326 144.4 22.7993C144.067 22.5993 143.767 22.3663 143.5 22.0996C143.3 21.7663 143.167 21.3661 143.1 20.8994ZM139.2 14.1997C139.2 15.4664 139.467 16.5327 140 17.3994C140.534 18.2661 141.2 18.9327 142 19.3994C142.867 19.7994 143.767 19.9995 144.7 19.9995C145.634 19.9995 146.467 19.766 147.2 19.2993C148 18.8326 148.6 18.166 149 17.2993C149.467 16.4326 149.7 15.3997 149.7 14.1997C149.7 12.933 149.467 11.8662 149 10.9995C148.6 10.1328 148 9.46618 147.2 8.99951C146.467 8.53285 145.634 8.29932 144.7 8.29932C143.767 8.29932 142.867 8.49941 142 8.89941C141.2 9.36608 140.534 10.0327 140 10.8994C139.467 11.7661 139.2 12.8664 139.2 14.1997ZM143.2 14.1997C143.2 13.533 143.333 12.9996 143.6 12.5996C143.8 12.1996 144.133 11.8997 144.6 11.6997C145 11.4997 145.434 11.3994 145.9 11.3994C146.234 11.3994 146.567 11.4328 146.9 11.4995C147.234 11.6328 147.5 11.8329 147.7 12.0996C147.967 12.2996 148.2 12.5661 148.4 12.8994C148.534 13.2327 148.6 13.6664 148.6 14.1997C148.6 14.7997 148.467 15.2997 148.2 15.6997C147.934 16.0997 147.6 16.433 147.2 16.6997C146.8 16.833 146.367 16.8994 145.9 16.8994C145.434 16.8994 145 16.7996 144.6 16.5996C144.133 16.3996 143.8 16.0997 143.6 15.6997C143.333 15.233 143.2 14.733 143.2 14.1997ZM167.8 2.59961H163.8L162.7 10.4995H165.2L167.8 2.59961ZM173 2.59961H169L167.9 10.5996H170.4L173 2.59961ZM181.9 8.59961H174.2V11.6997H181.9V8.59961ZM179.8 4.59961H176.2V20.0996H179.8V4.59961ZM183.3 4.29932C183.3 4.89932 183.5 5.39932 183.9 5.79932C184.367 6.19932 184.9 6.39941 185.5 6.39941C186.1 6.39941 186.6 6.19932 187 5.79932C187.467 5.39932 187.7 4.89932 187.7 4.29932C187.7 3.69932 187.467 3.23275 187 2.89941C186.6 2.49941 186.1 2.29932 185.5 2.29932C184.9 2.29932 184.367 2.49941 183.9 2.89941C183.5 3.23275 183.3 3.69932 183.3 4.29932ZM187.3 8.59961H183.6V20.0996H187.3V8.59961ZM194.2 0.599609H190.4V20.0996H194.2V0.599609ZM196.9 4.29932C196.9 4.89932 197.133 5.39932 197.6 5.79932C198 6.19932 198.5 6.39941 199.1 6.39941C199.7 6.39941 200.234 6.19932 200.7 5.79932C201.1 5.39932 201.3 4.89932 201.3 4.29932C201.3 3.69932 201.1 3.23275 200.7 2.89941C200.234 2.49941 199.7 2.29932 199.1 2.29932C198.5 2.29932 198 2.49941 197.6 2.89941C197.133 3.23275 196.9 3.69932 196.9 4.29932ZM200.9 8.59961H197.3V20.0996H200.9V8.59961ZM214.7 14.3994C214.7 13.7994 214.833 13.2994 215.1 12.8994C215.367 12.4327 215.734 12.066 216.2 11.7993C216.667 11.5326 217.2 11.3994 217.8 11.3994C218.2 11.3994 218.6 11.4663 219 11.5996C219.467 11.7329 219.867 11.933 220.2 12.1997C220.6 12.3997 220.934 12.6996 221.2 13.0996V9.39941C220.8 9.13275 220.3 8.89971 219.7 8.69971C219.1 8.49971 218.367 8.39941 217.5 8.39941C216.234 8.39941 215.067 8.63294 214 9.09961C213 9.63294 212.234 10.333 211.7 11.1997C211.1 12.133 210.8 13.1994 210.8 14.3994C210.8 15.5994 211.1 16.6328 211.7 17.4995C212.234 18.4328 213 19.1329 214 19.5996C215.067 20.1329 216.234 20.3994 217.5 20.3994C218.367 20.3994 219.1 20.2996 219.7 20.0996C220.3 19.8996 220.8 19.6327 221.2 19.2993V15.6997C220.934 16.033 220.633 16.3329 220.3 16.5996C219.9 16.8663 219.5 17.0664 219.1 17.1997C218.7 17.333 218.267 17.3994 217.8 17.3994C217.2 17.3994 216.667 17.2662 216.2 16.9995C215.734 16.7328 215.367 16.3995 215.1 15.9995C214.833 15.5328 214.7 14.9994 214.7 14.3994ZM227.7 20.0996V0.599609H223.9V20.0996H227.7ZM231.4 13.0996V20.0996H235.1V12.5996C235.1 11.6663 234.967 10.8664 234.7 10.1997C234.434 9.53304 234.034 9.03304 233.5 8.69971C232.9 8.36637 232.134 8.19971 231.2 8.19971C230.267 8.19971 229.467 8.43275 228.8 8.89941C228.2 9.29941 227.767 9.89971 227.5 10.6997C227.167 11.433 227 12.2329 227 13.0996H227.7C227.7 12.6996 227.767 12.3328 227.9 11.9995C228.1 11.6662 228.333 11.4326 228.6 11.2993C228.933 11.0993 229.3 10.9995 229.7 10.9995C230.3 10.9995 230.734 11.1996 231 11.5996C231.267 11.9329 231.4 12.4329 231.4 13.0996ZM237.9 4.29932C237.9 4.89932 238.1 5.39932 238.5 5.79932C238.967 6.19932 239.5 6.39941 240.1 6.39941C240.7 6.39941 241.2 6.19932 241.6 5.79932C242.067 5.39932 242.3 4.89932 242.3 4.29932C242.3 3.69932 242.067 3.23275 241.6 2.89941C241.2 2.49941 240.7 2.29932 240.1 2.29932C239.5 2.29932 238.967 2.49941 238.5 2.89941C238.1 3.23275 237.9 3.69932 237.9 4.29932ZM241.9 8.59961H238.2V20.0996H241.9V8.59961ZM253.7 8.59961V25.5996H257.5V8.59961H253.7ZM244.3 14.3994C244.3 15.7327 244.567 16.866 245.1 17.7993C245.633 18.666 246.3 19.3326 247.1 19.7993C247.967 20.266 248.867 20.4995 249.8 20.4995C250.8 20.4995 251.667 20.266 252.4 19.7993C253.067 19.266 253.6 18.5329 254 17.5996C254.4 16.6663 254.6 15.5994 254.6 14.3994C254.6 13.1327 254.4 12.0329 254 11.0996C253.6 10.2329 253.067 9.53285 252.4 8.99951C251.667 8.46618 250.8 8.19971 249.8 8.19971C248.867 8.19971 247.967 8.43275 247.1 8.89941C246.3 9.36608 245.633 10.0662 245.1 10.9995C244.567 11.9328 244.3 13.0661 244.3 14.3994ZM248.3 14.3994C248.3 13.7994 248.4 13.2994 248.6 12.8994C248.867 12.4327 249.2 12.0994 249.6 11.8994C250.067 11.6994 250.534 11.5996 251 11.5996C251.467 11.5996 251.9 11.6994 252.3 11.8994C252.7 12.0994 253.034 12.3993 253.3 12.7993C253.567 13.266 253.7 13.7994 253.7 14.3994C253.7 14.9994 253.567 15.4994 253.3 15.8994C253.034 16.3661 252.7 16.6994 252.3 16.8994C251.9 17.0994 251.467 17.1997 251 17.1997C250.534 17.1997 250.067 17.0994 249.6 16.8994C249.2 16.6327 248.867 16.2994 248.6 15.8994C248.4 15.4994 248.3 14.9994 248.3 14.3994ZM261 15.9995L259.4 18.4995C259.934 18.8995 260.5 19.2663 261.1 19.5996C261.7 19.8663 262.367 20.0993 263.1 20.2993C263.767 20.4993 264.534 20.5996 265.4 20.5996C266.734 20.5996 267.8 20.2997 268.6 19.6997C269.333 19.033 269.7 18.0994 269.7 16.8994C269.7 16.1661 269.534 15.5997 269.2 15.1997C268.934 14.733 268.534 14.3663 268 14.0996C267.534 13.8329 267 13.566 266.4 13.2993C265.8 13.0993 265.3 12.9326 264.9 12.7993C264.5 12.666 264.2 12.4993 264 12.2993C263.8 12.166 263.7 11.9664 263.7 11.6997C263.7 11.4997 263.8 11.333 264 11.1997C264.134 11.0664 264.4 10.9995 264.8 10.9995C265.267 10.9995 265.834 11.1327 266.5 11.3994C267.1 11.7327 267.633 12.0995 268.1 12.4995L269.5 10.0996C269.034 9.76628 268.534 9.46637 268 9.19971C267.534 8.93304 267 8.73294 266.4 8.59961C265.8 8.46628 265.167 8.39941 264.5 8.39941C263.7 8.39941 262.967 8.53265 262.3 8.79932C261.7 8.99932 261.2 9.36608 260.8 9.89941C260.4 10.3661 260.2 10.9329 260.2 11.5996C260.2 12.3329 260.367 12.9327 260.7 13.3994C261.034 13.8661 261.434 14.2663 261.9 14.5996C262.434 14.8663 262.967 15.0993 263.5 15.2993C264.1 15.4326 264.567 15.5993 264.9 15.7993C265.3 15.9326 265.567 16.0993 265.7 16.2993C265.834 16.4993 265.9 16.6994 265.9 16.8994C265.9 17.1661 265.834 17.3996 265.7 17.5996C265.5 17.7329 265.2 17.7993 264.8 17.7993C264.534 17.7993 264.234 17.7664 263.9 17.6997C263.5 17.5664 263.067 17.3663 262.6 17.0996C262.133 16.8329 261.6 16.4662 261 15.9995ZM271.6 4.29932C271.6 4.89932 271.8 5.39932 272.2 5.79932C272.667 6.19932 273.2 6.39941 273.8 6.39941C274.4 6.39941 274.9 6.19932 275.3 5.79932C275.767 5.39932 276 4.89932 276 4.29932C276 3.69932 275.767 3.23275 275.3 2.89941C274.9 2.49941 274.4 2.29932 273.8 2.29932C273.2 2.29932 272.667 2.49941 272.2 2.89941C271.8 3.23275 271.6 3.69932 271.6 4.29932ZM275.6 8.59961H271.9V20.0996H275.6V8.59961ZM286.2 13.0996V20.0996H290.1V12.6997C290.1 11.3664 289.767 10.2995 289.1 9.49951C288.434 8.76618 287.4 8.39941 286 8.39941C285.134 8.39941 284.4 8.56608 283.8 8.89941C283.267 9.23275 282.834 9.73275 282.5 10.3994V8.59961H278.7V20.0996H282.5V13.0996C282.5 12.6996 282.567 12.3328 282.7 11.9995C282.9 11.6662 283.134 11.4326 283.4 11.2993C283.734 11.0993 284.1 10.9995 284.5 10.9995C285.1 10.9995 285.534 11.1996 285.8 11.5996C286.067 11.9329 286.2 12.4329 286.2 13.0996ZM297.5 2.59961H293.5L292.4 10.5996H294.8L297.5 2.59961ZM302.8 2.59961H298.8L297.7 10.5996H300.2L302.8 2.59961Z" fill="white"/>
</svg>
