<svg width="515" height="16" viewBox="0 0 515 16" fill="none" xmlns="http://www.w3.org/2000/svg">
<path d="M9.19977 6.39966V6.89966C9.19977 7.96632 8.99979 8.89958 8.59979 9.69958C8.26646 10.4996 7.76646 11.0996 7.09979 11.4996C6.43313 11.8996 5.6331 12.0996 4.69977 12.0996C3.8331 12.0996 3.06651 11.8996 2.39984 11.4996C1.73317 11.0996 1.23317 10.4996 0.899841 9.69958C0.499841 8.89958 0.299805 7.99963 0.299805 6.99963V6.39966C0.299805 5.33299 0.499841 4.43292 0.899841 3.69958C1.23317 2.89958 1.73317 2.26635 2.39984 1.79968C3.06651 1.39968 3.8331 1.19958 4.69977 1.19958C5.56643 1.19958 6.33315 1.39968 6.99982 1.79968C7.66648 2.19968 8.19979 2.79961 8.59979 3.59961C8.93313 4.39961 9.1331 5.33299 9.19977 6.39966ZM7.29987 6.89966V6.39966C7.29987 5.19966 7.06646 4.29958 6.59979 3.69958C6.19979 3.03292 5.56643 2.69958 4.69977 2.69958C3.89977 2.69958 3.26647 3.03292 2.7998 3.69958C2.3998 4.29958 2.19983 5.16635 2.19983 6.29968V6.89966C2.19983 8.09966 2.3998 9.03292 2.7998 9.69958C3.26647 10.2996 3.89977 10.5996 4.69977 10.5996C5.56643 10.5996 6.19979 10.2996 6.59979 9.69958C7.06646 9.03292 7.29987 8.09966 7.29987 6.89966ZM11.8998 0.699585V1.69958L11.6998 4.49963H10.4998V0.699585H11.8998ZM19.3998 5.19958L15.2999 10.5996H19.4998V11.9996H13.0998V10.7997L17.0998 5.49963H13.1998V4.09961H19.3998V5.19958ZM27.8998 7.99963V8.09961C27.8998 9.29961 27.6331 10.2663 27.0998 10.9996C26.5665 11.733 25.7999 12.0996 24.7999 12.0996C23.8665 12.0996 23.1331 11.7663 22.5998 11.0996V11.9996H20.8998V0.699585H22.6998V4.79968C23.2331 4.19968 23.9332 3.89966 24.7999 3.89966C25.7332 3.89966 26.4998 4.2663 27.0998 4.99963C27.6331 5.73297 27.8998 6.73297 27.8998 7.99963ZM26.0998 8.19958V7.89966C26.0998 7.03299 25.9664 6.39963 25.6998 5.99963C25.3664 5.59963 24.9332 5.39966 24.3998 5.39966C23.5998 5.39966 23.0331 5.73299 22.6998 6.39966V9.59961C23.0331 10.3329 23.5998 10.6996 24.3998 10.6996C24.9332 10.6996 25.3664 10.4663 25.6998 9.99963C25.9664 9.59963 26.0998 8.99958 26.0998 8.19958ZM32.8998 12.0996C31.7665 12.0996 30.8331 11.7663 30.0998 11.0996C29.4331 10.3663 29.0998 9.39959 29.0998 8.19958V7.99963C29.0998 7.19963 29.2332 6.49966 29.4998 5.89966C29.8332 5.23299 30.2665 4.73299 30.7999 4.39966C31.3999 4.06632 32.0331 3.89966 32.6998 3.89966C33.7664 3.89966 34.5998 4.23299 35.1998 4.89966C35.7998 5.63299 36.0998 6.63299 36.0998 7.89966V8.59961H30.8998C30.9665 9.26628 31.1665 9.76628 31.4998 10.0996C31.8998 10.4996 32.3998 10.6996 32.9998 10.6996C33.7998 10.6996 34.4665 10.3663 34.9998 9.69958L35.8998 10.5996C35.6332 11.0663 35.2331 11.4329 34.6998 11.6996C34.1664 11.9663 33.5665 12.0996 32.8998 12.0996ZM32.6998 5.29968C32.1664 5.29968 31.7665 5.46635 31.4998 5.79968C31.1665 6.19968 30.9665 6.69968 30.8998 7.29968H34.2999V7.09961C34.2332 6.49961 34.0665 6.06635 33.7999 5.79968C33.5332 5.46635 33.1664 5.29968 32.6998 5.29968ZM42.3998 11.9996L39.9998 8.59961L39.1998 9.39966V11.9996H37.3998V0.699585H39.1998V7.19958L39.7999 6.49963L41.9998 3.99963H44.0998L41.1998 7.39966L44.3998 11.9996H42.3998ZM47.1998 3.99963V11.9996H45.3998V3.99963H47.1998ZM45.3998 1.99963C45.3998 1.73297 45.4665 1.49968 45.5998 1.29968C45.7998 1.09968 46.0665 0.999634 46.3998 0.999634C46.6665 0.999634 46.8998 1.09968 47.0998 1.29968C47.2998 1.49968 47.3998 1.73297 47.3998 1.99963C47.3998 2.2663 47.2998 2.49958 47.0998 2.69958C46.8998 2.83292 46.6665 2.89966 46.3998 2.89966C46.0665 2.89966 45.7998 2.83292 45.5998 2.69958C45.4665 2.49958 45.3998 2.2663 45.3998 1.99963ZM53.5998 9.79968C53.5998 9.46635 53.4664 9.23294 53.1998 9.09961C52.9331 8.89961 52.4998 8.76625 51.8998 8.69958C51.2998 8.56625 50.7998 8.39958 50.3998 8.19958C49.5332 7.73292 49.0998 7.09968 49.0998 6.29968C49.0998 5.63302 49.3665 5.06628 49.8998 4.59961C50.4998 4.13294 51.2331 3.89966 52.0998 3.89966C53.0998 3.89966 53.8665 4.13294 54.3998 4.59961C54.9998 5.06628 55.2999 5.66632 55.2999 6.39966H53.4998C53.4998 6.06632 53.3998 5.79961 53.1998 5.59961C52.9331 5.33294 52.5665 5.19958 52.0998 5.19958C51.7665 5.19958 51.4664 5.29963 51.1998 5.49963C50.9331 5.69963 50.7999 5.93292 50.7999 6.19958C50.7999 6.46625 50.9331 6.69966 51.1998 6.89966C51.3998 7.03299 51.8665 7.16635 52.5998 7.29968C53.2665 7.49968 53.7998 7.69966 54.1998 7.89966C54.5998 8.09966 54.8998 8.33294 55.0998 8.59961C55.2998 8.93294 55.3998 9.29958 55.3998 9.69958C55.3998 10.4329 55.0998 11.033 54.4998 11.4996C53.8998 11.8996 53.1331 12.0996 52.1998 12.0996C51.5331 12.0996 50.9332 11.9997 50.3998 11.7997C49.9332 11.533 49.5331 11.1997 49.1998 10.7997C48.9331 10.3997 48.7999 9.9663 48.7999 9.49963H50.4998C50.5665 9.89963 50.7332 10.1997 50.9998 10.3997C51.3332 10.6663 51.7331 10.7997 52.1998 10.7997C52.6664 10.7997 53.0332 10.6996 53.2999 10.4996C53.4999 10.3663 53.5998 10.133 53.5998 9.79968ZM57.3998 2.09961H59.1998V3.99963H60.5998V5.39966H59.1998V9.79968C59.1998 10.0663 59.2332 10.2663 59.2999 10.3997C59.4332 10.533 59.6665 10.5996 59.9998 10.5996C60.1998 10.5996 60.3998 10.5996 60.5998 10.5996V11.9996C60.1998 12.0663 59.7998 12.0996 59.3998 12.0996C58.0665 12.0996 57.3998 11.3663 57.3998 9.89966V5.39966H56.0998V3.99963H57.3998V2.09961ZM61.3998 8.09961V7.99963C61.3998 7.19963 61.5332 6.49966 61.7999 5.89966C62.1332 5.23299 62.5665 4.73299 63.0998 4.39966C63.6998 4.06632 64.3332 3.89966 64.9998 3.89966C66.0665 3.89966 66.9331 4.2663 67.5998 4.99963C68.2665 5.6663 68.6331 6.56625 68.6998 7.69958V8.09961C68.6998 8.89961 68.5665 9.59958 68.2999 10.1996C67.9665 10.7996 67.5332 11.2663 66.9998 11.5996C66.3998 11.9329 65.7332 12.0996 64.9998 12.0996C63.9332 12.0996 63.0665 11.733 62.3998 10.9996C61.7332 10.2663 61.3998 9.29961 61.3998 8.09961ZM63.0998 8.09961C63.0998 8.89961 63.2665 9.53297 63.5998 9.99963C63.9331 10.4663 64.3998 10.6996 64.9998 10.6996C65.5998 10.6996 66.0665 10.4663 66.3998 9.99963C66.7998 9.53297 66.9998 8.8663 66.9998 7.99963C66.9998 7.19963 66.7998 6.56628 66.3998 6.09961C66.0665 5.63294 65.5998 5.39966 64.9998 5.39966C64.4665 5.39966 64.0331 5.63294 63.6998 6.09961C63.2998 6.49961 63.0998 7.16628 63.0998 8.09961ZM70.1998 4.09961H71.8998V4.99963C72.4998 4.2663 73.2664 3.89966 74.1998 3.89966C75.8664 3.89966 76.7332 4.86635 76.7999 6.79968V11.9996H74.9998V6.89966C74.9998 6.36632 74.8998 5.99968 74.6998 5.79968C74.4331 5.53302 74.0665 5.39966 73.5998 5.39966C72.8665 5.39966 72.3332 5.73299 71.9998 6.39966V11.9996H70.1998V4.09961ZM78.1998 7.99963C78.1998 6.79963 78.4998 5.83294 79.0998 5.09961C79.6331 4.36628 80.3998 3.99963 81.3998 3.99963C82.1998 3.99963 82.8665 4.26635 83.3998 4.79968V0.799683H85.1998V11.9996H83.5998L83.4998 11.1996C82.9665 11.8663 82.2665 12.1996 81.3998 12.1996C80.4665 12.1996 79.6998 11.7996 79.0998 10.9996C78.4998 10.2663 78.1998 9.2663 78.1998 7.99963ZM79.9998 8.19958C79.9998 8.99958 80.1665 9.59963 80.4998 9.99963C80.7665 10.4663 81.1999 10.6996 81.7999 10.6996C82.5332 10.6996 83.0665 10.3663 83.3998 9.69958V6.39966C83.0665 5.73299 82.5332 5.39966 81.7999 5.39966C81.2665 5.39966 80.8332 5.63294 80.4998 6.09961C80.1665 6.56628 79.9998 7.26625 79.9998 8.19958ZM93.5998 11.9996H91.7999C91.7332 11.8663 91.6665 11.633 91.5998 11.2997C90.9998 11.8997 90.2998 12.1996 89.4998 12.1996C88.6998 12.1996 88.0332 11.9663 87.4998 11.4996C87.0332 11.033 86.7999 10.4663 86.7999 9.79968C86.7999 8.93302 87.0998 8.29966 87.6998 7.89966C88.3664 7.43299 89.2665 7.19958 90.3998 7.19958H91.4998V6.69958C91.4998 6.23292 91.3998 5.89958 91.1998 5.69958C90.9331 5.43292 90.5665 5.29968 90.0998 5.29968C89.6998 5.29968 89.3665 5.39961 89.0998 5.59961C88.8331 5.79961 88.6998 6.06632 88.6998 6.39966H86.9998C86.9998 5.93299 87.1332 5.53292 87.3998 5.19958C87.6665 4.79958 88.0665 4.49968 88.5998 4.29968C89.0665 4.09968 89.5998 3.99963 90.1998 3.99963C91.1331 3.99963 91.8665 4.23292 92.3998 4.69958C92.9998 5.16625 93.2999 5.79961 93.2999 6.59961V10.1996C93.2999 10.9329 93.3998 11.4997 93.5998 11.8997V11.9996ZM89.7999 10.6996C90.1332 10.6996 90.4665 10.633 90.7999 10.4996C91.1332 10.2996 91.3665 10.0663 91.4998 9.79968V8.29968H90.5998C89.9331 8.29968 89.4331 8.39961 89.0998 8.59961C88.7665 8.86628 88.5998 9.19961 88.5998 9.59961C88.5998 9.93294 88.6998 10.1997 88.8998 10.3997C89.0998 10.5997 89.3999 10.6996 89.7999 10.6996ZM99.2999 2.09961H101.1V4.09961H102.5V5.39966H101.1V9.79968C101.1 10.133 101.167 10.3663 101.3 10.4996C101.433 10.633 101.633 10.6996 101.9 10.6996C102.1 10.6996 102.333 10.6663 102.6 10.5996V11.9996C102.2 12.0663 101.8 12.0996 101.4 12.0996C99.9998 12.0996 99.2999 11.3663 99.2999 9.89966V5.39966H97.9998V4.09961H99.2999V2.09961ZM108.7 11.8997V11.0996C108.166 11.7663 107.433 12.0996 106.5 12.0996C105.633 12.0996 104.966 11.833 104.5 11.2997C104.033 10.833 103.8 10.0996 103.8 9.09961V3.99963H105.6V9.09961C105.6 10.0996 106.033 10.5996 106.9 10.5996C107.767 10.5996 108.333 10.2996 108.6 9.69958V3.99963H110.4V11.8997H108.7ZM116.3 3.99963V5.59961C116.1 5.59961 115.866 5.59961 115.6 5.59961C114.8 5.59961 114.266 5.89963 114 6.49963V11.8997H112.2V3.99963H113.9V4.89966C114.367 4.23299 114.966 3.89966 115.7 3.89966C115.966 3.89966 116.167 3.93297 116.3 3.99963ZM119.4 3.99963V11.8997H117.6V3.99963H119.4ZM117.5 1.89966C117.5 1.63299 117.566 1.43302 117.7 1.29968C117.9 1.09968 118.166 0.999634 118.5 0.999634C118.833 0.999634 119.066 1.09968 119.2 1.29968C119.4 1.43302 119.5 1.63299 119.5 1.89966C119.5 2.16632 119.4 2.39961 119.2 2.59961C119.066 2.79961 118.833 2.89966 118.5 2.89966C118.166 2.89966 117.9 2.79961 117.7 2.59961C117.566 2.39961 117.5 2.16632 117.5 1.89966ZM128.3 7.89966V7.99963C128.3 9.2663 128 10.2663 127.4 10.9996C126.867 11.733 126.133 12.0996 125.2 12.0996C124.266 12.0996 123.533 11.7663 123 11.0996L122.9 11.8997H121.3V0.699585H123.1V4.79968C123.633 4.19968 124.333 3.89966 125.2 3.89966C126.133 3.89966 126.867 4.23299 127.4 4.89966C128 5.63299 128.3 6.63299 128.3 7.89966ZM126.5 8.09961V7.89966C126.5 7.03299 126.333 6.39963 126 5.99963C125.733 5.53297 125.3 5.29968 124.7 5.29968C123.966 5.29968 123.433 5.63302 123.1 6.29968V9.59961C123.433 10.2663 123.966 10.5996 124.7 10.5996C125.3 10.5996 125.733 10.3996 126 9.99963C126.333 9.59963 126.5 8.96628 126.5 8.09961ZM140.5 11.8997L139.6 9.39966H135.5L134.6 11.8997H132.7L136.7 1.29968H138.4L142.4 11.8997H140.5ZM137.6 3.49963L136.1 7.89966H139.1L137.6 3.49963ZM143.2 3.99963H144.9V4.89966C145.5 4.23299 146.266 3.89966 147.2 3.89966C148.866 3.89966 149.7 4.83292 149.7 6.69958V11.8997H148V6.79968C148 6.33302 147.866 5.96625 147.6 5.69958C147.4 5.43292 147.066 5.29968 146.6 5.29968C145.866 5.29968 145.333 5.63302 145 6.29968V11.8997H143.2V3.99963ZM151.2 7.99963C151.2 6.73297 151.5 5.73297 152.1 4.99963C152.7 4.2663 153.467 3.89966 154.4 3.89966C155.333 3.89966 156.033 4.19968 156.5 4.79968L156.6 3.99963H158.2V11.6996C158.2 12.7663 157.866 13.5996 157.2 14.1996C156.6 14.7996 155.733 15.0996 154.6 15.0996C154.066 15.0996 153.5 14.9663 152.9 14.6996C152.367 14.4996 151.966 14.1997 151.7 13.7997L152.5 12.6996C153.033 13.3663 153.7 13.6996 154.5 13.6996C155.1 13.6996 155.567 13.5329 155.9 13.1996C156.233 12.8663 156.4 12.3997 156.4 11.7997V11.2997C155.933 11.833 155.267 12.0996 154.4 12.0996C153.467 12.0996 152.7 11.733 152.1 10.9996C151.5 10.2663 151.2 9.2663 151.2 7.99963ZM153 8.09961C153 8.89961 153.166 9.53297 153.5 9.99963C153.833 10.4663 154.267 10.6996 154.8 10.6996C155.533 10.6996 156.067 10.3663 156.4 9.69958V6.29968C156.067 5.69968 155.567 5.39966 154.9 5.39966C154.3 5.39966 153.833 5.63294 153.5 6.09961C153.166 6.56628 153 7.23294 153 8.09961ZM161.9 0.699585V11.9996H160.2V0.699585H161.9ZM165.7 3.99963V11.9996H163.9V3.99963H165.7ZM163.8 1.99963C163.8 1.73297 163.9 1.49968 164.1 1.29968C164.233 1.09968 164.467 0.999634 164.8 0.999634C165.133 0.999634 165.4 1.09968 165.6 1.29968C165.733 1.49968 165.8 1.73297 165.8 1.99963C165.8 2.2663 165.733 2.49958 165.6 2.69958C165.4 2.83292 165.133 2.89966 164.8 2.89966C164.467 2.89966 164.233 2.83292 164.1 2.69958C163.9 2.49958 163.8 2.2663 163.8 1.99963ZM168.7 3.99963L170.4 9.39966L172 3.99963H173.9L170.8 13.1996C170.333 14.5329 169.5 15.1996 168.3 15.1996C168.033 15.1996 167.766 15.133 167.5 14.9996V13.6996H167.8C168.267 13.6996 168.6 13.5997 168.8 13.3997C169.067 13.2663 169.267 12.9996 169.4 12.5996L169.6 11.8997L166.8 3.99963H168.7ZM181.4 11.9996H179.6C179.466 11.7996 179.4 11.5329 179.4 11.1996C178.8 11.7996 178.1 12.0996 177.3 12.0996C176.5 12.0996 175.833 11.8663 175.3 11.3997C174.833 10.9997 174.6 10.4663 174.6 9.79968C174.6 8.93302 174.9 8.26635 175.5 7.79968C176.166 7.33302 177.066 7.09961 178.2 7.09961H179.3V6.59961C179.3 6.19961 179.2 5.86628 179 5.59961C178.733 5.39961 178.367 5.29968 177.9 5.29968C177.5 5.29968 177.167 5.39961 176.9 5.59961C176.633 5.79961 176.5 6.03302 176.5 6.29968H174.7C174.7 5.89968 174.866 5.49961 175.2 5.09961C175.466 4.69961 175.833 4.39958 176.3 4.19958C176.833 3.99958 177.4 3.89966 178 3.89966C178.933 3.89966 179.666 4.13294 180.2 4.59961C180.8 5.06628 181.1 5.73294 181.1 6.59961V10.0996C181.1 10.8329 181.2 11.3997 181.4 11.7997V11.9996ZM177.6 10.7997C177.933 10.7997 178.266 10.6996 178.6 10.4996C178.933 10.3663 179.167 10.133 179.3 9.79968V8.29968H178.3C177.633 8.29968 177.167 8.43292 176.9 8.69958C176.567 8.89958 176.4 9.19961 176.4 9.59961C176.4 9.99961 176.5 10.2996 176.7 10.4996C176.9 10.6996 177.2 10.7997 177.6 10.7997ZM187.8 4.09961L189.5 9.79968L191.1 4.09961H193L190.2 11.9996H188.7L185.9 4.09961H187.8ZM200.6 11.9996H198.8C198.733 11.8663 198.666 11.633 198.6 11.2997C198 11.8997 197.3 12.1996 196.5 12.1996C195.7 12.1996 195.033 11.9663 194.5 11.4996C194.033 11.033 193.8 10.4663 193.8 9.79968C193.8 8.99968 194.1 8.36632 194.7 7.89966C195.366 7.43299 196.267 7.19958 197.4 7.19958H198.5V6.69958C198.5 6.29958 198.4 5.96625 198.2 5.69958C197.933 5.43292 197.566 5.29968 197.1 5.29968C196.7 5.29968 196.366 5.39961 196.1 5.59961C195.833 5.79961 195.7 6.06632 195.7 6.39966H194C194 5.99966 194.133 5.59958 194.4 5.19958C194.667 4.79958 195.066 4.49968 195.6 4.29968C196.066 4.09968 196.6 3.99963 197.2 3.99963C198.133 3.99963 198.867 4.23292 199.4 4.69958C200 5.16625 200.3 5.79961 200.3 6.59961V10.1996C200.3 10.9329 200.4 11.4997 200.6 11.8997V11.9996ZM196.8 10.6996C197.133 10.6996 197.467 10.633 197.8 10.4996C198.133 10.2996 198.366 10.0663 198.5 9.79968V8.29968H197.6C196.933 8.29968 196.433 8.39961 196.1 8.59961C195.766 8.86628 195.6 9.19961 195.6 9.59961C195.6 9.93294 195.7 10.1997 195.9 10.3997C196.1 10.5997 196.4 10.6996 196.8 10.6996ZM212.3 11.9996L209.1 7.39966L207.9 8.69958V11.9996H206.1V1.39966H207.9V6.39966L208.9 5.09961L212.1 1.39966H214.3L210.3 6.09961L214.5 11.9996H212.3ZM221.9 11.9996H220.1C220.033 11.8663 219.967 11.633 219.9 11.2997C219.3 11.8997 218.6 12.1996 217.8 12.1996C217 12.1996 216.333 11.9663 215.8 11.4996C215.333 11.033 215.1 10.4663 215.1 9.79968C215.1 8.93302 215.4 8.29966 216 7.89966C216.666 7.43299 217.566 7.19958 218.7 7.19958H219.8V6.69958C219.8 6.23292 219.7 5.89958 219.5 5.69958C219.233 5.43292 218.867 5.29968 218.4 5.29968C218 5.29968 217.667 5.39961 217.4 5.59961C217.133 5.79961 217 6.06632 217 6.39966H215.3C215.3 5.93299 215.433 5.53292 215.7 5.19958C215.966 4.79958 216.367 4.49968 216.9 4.29968C217.367 4.09968 217.9 3.99963 218.5 3.99963C219.433 3.99963 220.166 4.23292 220.7 4.69958C221.3 5.16625 221.6 5.79961 221.6 6.59961V10.1996C221.6 10.9329 221.7 11.4997 221.9 11.8997V11.9996ZM218.1 10.6996C218.5 10.6996 218.833 10.633 219.1 10.4996C219.433 10.2996 219.667 10.0663 219.8 9.79968V8.29968H218.9C218.233 8.29968 217.733 8.39961 217.4 8.59961C217.067 8.86628 216.9 9.19961 216.9 9.59961C216.9 9.93294 217 10.1997 217.2 10.3997C217.466 10.5997 217.766 10.6996 218.1 10.6996ZM223.4 4.09961H225.1L225.2 4.99963C225.733 4.2663 226.5 3.89966 227.5 3.89966C229.1 3.89966 229.933 4.86635 230 6.79968V11.9996H228.2V6.89966C228.2 6.36632 228.1 5.99968 227.9 5.79968C227.7 5.53302 227.333 5.39966 226.8 5.39966C226.067 5.39966 225.533 5.73299 225.2 6.39966V11.9996H223.4V4.09961ZM238.4 11.9996H236.5C236.433 11.8663 236.367 11.633 236.3 11.2997C235.767 11.8997 235.1 12.1996 234.3 12.1996C233.5 12.1996 232.833 11.9663 232.3 11.4996C231.767 11.033 231.5 10.4663 231.5 9.79968C231.5 8.93302 231.833 8.29966 232.5 7.89966C233.1 7.43299 234 7.19958 235.2 7.19958H236.3V6.69958C236.3 6.23292 236.167 5.89958 235.9 5.69958C235.7 5.43292 235.367 5.29968 234.9 5.29968C234.5 5.29968 234.167 5.39961 233.9 5.59961C233.633 5.79961 233.5 6.06632 233.5 6.39966H231.7C231.7 5.93299 231.833 5.53292 232.1 5.19958C232.433 4.79958 232.833 4.49968 233.3 4.29968C233.833 4.09968 234.4 3.99963 235 3.99963C235.933 3.99963 236.666 4.23292 237.2 4.69958C237.733 5.16625 238.033 5.79961 238.1 6.59961V10.1996C238.1 10.9329 238.2 11.4997 238.4 11.8997V11.9996ZM234.6 10.6996C234.933 10.6996 235.266 10.633 235.6 10.4996C235.866 10.2996 236.1 10.0663 236.3 9.79968V8.29968H235.3C234.633 8.29968 234.133 8.39961 233.8 8.59961C233.467 8.86628 233.3 9.19961 233.3 9.59961C233.3 9.93294 233.433 10.1997 233.7 10.3997C233.9 10.5997 234.2 10.6996 234.6 10.6996ZM239.6 7.99963C239.6 6.73297 239.867 5.73297 240.4 4.99963C241 4.2663 241.766 3.89966 242.7 3.89966C243.566 3.89966 244.233 4.19968 244.7 4.79968V0.799683H246.5V11.9996H244.9L244.8 11.1996C244.267 11.7996 243.566 12.0996 242.7 12.0996C241.766 12.0996 241 11.733 240.4 10.9996C239.867 10.2663 239.6 9.2663 239.6 7.99963ZM241.4 8.09961C241.4 8.89961 241.533 9.53297 241.8 9.99963C242.133 10.4663 242.6 10.6996 243.2 10.6996C243.866 10.6996 244.366 10.3663 244.7 9.69958V6.29968C244.433 5.69968 243.933 5.39966 243.2 5.39966C242.6 5.39966 242.133 5.63294 241.8 6.09961C241.533 6.56628 241.4 7.23294 241.4 8.09961ZM254.9 11.9996H253.1C253.033 11.8663 252.967 11.633 252.9 11.2997C252.367 11.833 251.667 12.0996 250.8 12.0996C250 12.0996 249.367 11.8996 248.9 11.4996C248.367 11.033 248.1 10.4663 248.1 9.79968C248.1 8.93302 248.433 8.26635 249.1 7.79968C249.7 7.39968 250.6 7.19958 251.8 7.19958H252.9V6.59961C252.9 6.19961 252.766 5.89958 252.5 5.69958C252.3 5.43292 251.966 5.29968 251.5 5.29968C251.1 5.29968 250.766 5.39961 250.5 5.59961C250.233 5.79961 250.1 6.06632 250.1 6.39966H248.3C248.3 5.93299 248.433 5.49961 248.7 5.09961C249.033 4.76628 249.433 4.49968 249.9 4.29968C250.433 4.03302 251 3.89966 251.6 3.89966C252.533 3.89966 253.267 4.13294 253.8 4.59961C254.333 5.06628 254.6 5.73294 254.6 6.59961V10.1996C254.6 10.8663 254.7 11.433 254.9 11.8997V11.9996ZM251.2 10.6996C251.533 10.6996 251.866 10.5997 252.2 10.3997C252.466 10.2663 252.7 10.0329 252.9 9.69958V8.29968H251.9C251.233 8.29968 250.733 8.39961 250.4 8.59961C250.067 8.79961 249.9 9.13294 249.9 9.59961C249.9 9.93294 250 10.1997 250.2 10.3997C250.466 10.5997 250.8 10.6996 251.2 10.6996ZM258.4 0.699585V11.9996H256.6V0.699585H258.4ZM262.2 4.09961V11.9996H260.5V4.09961H262.2ZM260.3 1.99963C260.3 1.73297 260.366 1.49968 260.5 1.29968C260.7 1.09968 260.967 0.999634 261.3 0.999634C261.633 0.999634 261.866 1.09968 262 1.29968C262.2 1.49968 262.3 1.73297 262.3 1.99963C262.3 2.2663 262.2 2.49958 262 2.69958C261.866 2.83292 261.633 2.89966 261.3 2.89966C260.967 2.89966 260.7 2.83292 260.5 2.69958C260.366 2.49958 260.3 2.2663 260.3 1.99963ZM269 11.9996L266.7 8.59961L265.9 9.39966V11.9996H264.1V0.699585H265.9V7.19958L266.4 6.49963L268.6 4.09961H270.8L267.8 7.39966L271.1 11.9996H269ZM280.5 11.9996L280.4 11.1996C279.867 11.7996 279.133 12.0996 278.2 12.0996C277.333 12.0996 276.666 11.8663 276.2 11.3997C275.8 10.8663 275.6 10.1329 275.6 9.19958V4.09961H277.4V9.19958C277.4 10.1996 277.8 10.6996 278.6 10.6996C279.466 10.6996 280.067 10.3663 280.4 9.69958V4.09961H282.1V11.9996H280.5ZM288.5 9.79968C288.5 9.46635 288.366 9.23294 288.1 9.09961C287.833 8.89961 287.4 8.76625 286.8 8.69958C286.2 8.56625 285.7 8.39958 285.3 8.19958C284.367 7.73292 283.9 7.09968 283.9 6.29968C283.9 5.63302 284.2 5.06628 284.8 4.59961C285.4 4.13294 286.133 3.89966 287 3.89966C287.933 3.89966 288.7 4.13294 289.3 4.59961C289.9 5.06628 290.2 5.66632 290.2 6.39966H288.4C288.4 6.06632 288.266 5.79961 288 5.59961C287.733 5.33294 287.4 5.19958 287 5.19958C286.6 5.19958 286.266 5.29963 286 5.49963C285.8 5.69963 285.7 5.93292 285.7 6.19958C285.7 6.46625 285.8 6.69966 286 6.89966C286.266 7.03299 286.733 7.16635 287.4 7.29968C288.133 7.49968 288.666 7.69966 289 7.89966C289.4 8.09966 289.7 8.33294 289.9 8.59961C290.1 8.93294 290.2 9.29958 290.2 9.69958C290.2 10.4329 289.9 11.033 289.3 11.4996C288.767 11.8996 288 12.0996 287 12.0996C286.333 12.0996 285.767 11.9997 285.3 11.7997C284.767 11.533 284.366 11.1997 284.1 10.7997C283.833 10.3997 283.7 9.9663 283.7 9.49963H285.4C285.4 9.89963 285.567 10.233 285.9 10.4996C286.167 10.6996 286.533 10.7997 287 10.7997C287.466 10.7997 287.833 10.6996 288.1 10.4996C288.366 10.3663 288.5 10.133 288.5 9.79968ZM292.2 2.09961H294V4.09961H295.4V5.39966H294V9.79968C294 10.0663 294.066 10.2996 294.2 10.4996C294.333 10.633 294.533 10.6996 294.8 10.6996C295 10.6996 295.233 10.6663 295.5 10.5996V11.9996C295.033 12.0663 294.633 12.0996 294.3 12.0996C292.9 12.0996 292.2 11.3663 292.2 9.89966V5.39966H290.9V4.09961H292.2V2.09961ZM296.2 7.99963V7.89966C296.2 7.09966 296.366 6.39968 296.7 5.79968C296.966 5.13302 297.4 4.63302 298 4.29968C298.533 3.96635 299.167 3.79968 299.9 3.79968C300.967 3.79968 301.833 4.16632 302.5 4.89966C303.166 5.56632 303.533 6.46628 303.6 7.59961V7.99963C303.6 8.79963 303.433 9.49961 303.1 10.0996C302.833 10.6996 302.4 11.1663 301.8 11.4996C301.267 11.833 300.633 11.9996 299.9 11.9996C298.767 11.9996 297.866 11.633 297.2 10.8997C296.533 10.1663 296.2 9.19963 296.2 7.99963ZM298 7.99963C298 8.79963 298.166 9.43299 298.5 9.89966C298.833 10.3663 299.3 10.5996 299.9 10.5996C300.5 10.5996 300.967 10.3663 301.3 9.89966C301.633 9.43299 301.8 8.76632 301.8 7.89966C301.8 7.09966 301.633 6.4663 301.3 5.99963C300.967 5.53297 300.5 5.29968 299.9 5.29968C299.3 5.29968 298.833 5.53297 298.5 5.99963C298.166 6.39963 298 7.0663 298 7.99963ZM310.9 5.09961L306.9 10.4996H311.1V11.8997H304.7V10.6996L308.7 5.39966H304.7V3.99963H310.9V5.09961ZM314.4 0.599609V11.8997H312.6V0.599609H314.4ZM322.9 11.8997H321.1C321.033 11.6997 320.967 11.4329 320.9 11.0996C320.3 11.6996 319.6 11.9996 318.8 11.9996C318 11.9996 317.367 11.7663 316.9 11.2997C316.367 10.8997 316.1 10.3663 316.1 9.69958C316.1 8.83292 316.4 8.16625 317 7.69958C317.666 7.23292 318.566 6.99963 319.7 6.99963H320.8V6.49963C320.8 6.09963 320.7 5.7663 320.5 5.49963C320.233 5.29963 319.867 5.19958 319.4 5.19958C319 5.19958 318.667 5.29963 318.4 5.49963C318.2 5.69963 318.1 5.93292 318.1 6.19958H316.3C316.3 5.79958 316.433 5.39963 316.7 4.99963C316.966 4.59963 317.367 4.29961 317.9 4.09961C318.367 3.89961 318.9 3.79968 319.5 3.79968C320.433 3.79968 321.2 4.03297 321.8 4.49963C322.333 4.9663 322.6 5.63297 322.6 6.49963V9.99963C322.6 10.733 322.7 11.2996 322.9 11.6996V11.8997ZM319.1 10.6996C319.5 10.6996 319.833 10.5997 320.1 10.3997C320.433 10.2663 320.667 10.0329 320.8 9.69958V8.19958H319.9C319.233 8.19958 318.733 8.33294 318.4 8.59961C318.067 8.79961 317.9 9.09963 317.9 9.49963C317.9 9.89963 318 10.1997 318.2 10.3997C318.466 10.5997 318.766 10.6996 319.1 10.6996ZM328.6 3.99963V5.69958C328.4 5.63292 328.167 5.59961 327.9 5.59961C327.1 5.59961 326.567 5.89963 326.3 6.49963V11.8997H324.5V3.99963H326.2V4.89966C326.666 4.23299 327.266 3.89966 328 3.89966C328.266 3.89966 328.466 3.93297 328.6 3.99963ZM329.3 7.89966C329.3 6.69966 329.566 5.73297 330.1 4.99963C330.7 4.2663 331.467 3.89966 332.4 3.89966C333.267 3.89966 333.933 4.19968 334.4 4.79968V0.699585H336.2V11.8997H334.6L334.5 11.0996C333.966 11.7663 333.267 12.0996 332.4 12.0996C331.467 12.0996 330.7 11.733 330.1 10.9996C329.566 10.2663 329.3 9.23299 329.3 7.89966ZM331.1 8.09961C331.1 8.89961 331.233 9.53297 331.5 9.99963C331.833 10.3996 332.267 10.5996 332.8 10.5996C333.533 10.5996 334.067 10.2996 334.4 9.69958V6.29968C334.133 5.63302 333.633 5.29968 332.9 5.29968C332.3 5.29968 331.833 5.53297 331.5 5.99963C331.233 6.4663 331.1 7.16628 331.1 8.09961ZM344.6 11.8997H342.8C342.733 11.7663 342.666 11.5329 342.6 11.1996C342.066 11.7996 341.366 12.0996 340.5 12.0996C339.7 12.0996 339.066 11.8663 338.6 11.3997C338.066 10.933 337.8 10.3663 337.8 9.69958C337.8 8.89958 338.133 8.26635 338.8 7.79968C339.4 7.33302 340.3 7.09961 341.5 7.09961H342.6V6.59961C342.6 6.19961 342.466 5.86628 342.2 5.59961C342 5.33294 341.666 5.19958 341.2 5.19958C340.8 5.19958 340.466 5.29963 340.2 5.49963C339.933 5.69963 339.8 5.96635 339.8 6.29968H338C338 5.89968 338.133 5.49961 338.4 5.09961C338.733 4.69961 339.133 4.39958 339.6 4.19958C340.066 3.99958 340.633 3.89966 341.3 3.89966C342.233 3.89966 342.966 4.13294 343.5 4.59961C344.033 5.06628 344.3 5.69963 344.3 6.49963V10.0996C344.3 10.8329 344.4 11.3997 344.6 11.7997V11.8997ZM340.9 10.5996C341.233 10.5996 341.533 10.533 341.8 10.3997C342.133 10.1997 342.4 9.96625 342.6 9.69958V8.19958H341.6C340.933 8.19958 340.433 8.29963 340.1 8.49963C339.766 8.7663 339.6 9.09963 339.6 9.49963C339.6 9.83297 339.7 10.0997 339.9 10.2997C340.167 10.4997 340.5 10.5996 340.9 10.5996ZM346.2 3.99963H347.8L347.9 4.89966C348.5 4.23299 349.266 3.89966 350.2 3.89966C351.866 3.89966 352.7 4.83292 352.7 6.69958V11.8997H350.9V6.79968C350.9 6.26635 350.8 5.89958 350.6 5.69958C350.4 5.43292 350.066 5.29968 349.6 5.29968C348.866 5.29968 348.3 5.63302 347.9 6.29968V11.8997H346.2V3.99963ZM367 6.29968V6.89966C367 7.96632 366.8 8.89958 366.4 9.69958C366.067 10.4329 365.567 11.033 364.9 11.4996C364.233 11.8996 363.433 12.0996 362.5 12.0996C361.633 12.0996 360.866 11.8996 360.2 11.4996C359.533 11.033 359.033 10.4329 358.7 9.69958C358.3 8.89958 358.1 7.99963 358.1 6.99963V6.39966C358.1 5.33299 358.3 4.39961 358.7 3.59961C359.033 2.79961 359.533 2.19968 360.2 1.79968C360.866 1.33302 361.633 1.09961 362.5 1.09961C363.366 1.09961 364.133 1.33302 364.8 1.79968C365.467 2.19968 366 2.79961 366.4 3.59961C366.733 4.33294 366.933 5.23302 367 6.29968ZM365.1 6.89966V6.29968C365.1 5.16635 364.867 4.26628 364.4 3.59961C364 2.99961 363.366 2.69958 362.5 2.69958C361.7 2.69958 361.066 2.99961 360.6 3.59961C360.2 4.26628 360 5.16635 360 6.29968V6.89966C360 8.09966 360.2 8.99961 360.6 9.59961C361.066 10.2663 361.7 10.5996 362.5 10.5996C363.366 10.5996 364 10.2663 364.4 9.59961C364.867 8.99961 365.1 8.09966 365.1 6.89966ZM377.3 1.29968V11.8997H375.4L370.7 4.39966V11.8997H368.8V1.29968H370.7L375.4 8.89966V1.29968H377.3ZM381.4 1.29968V10.4996H386.2V11.8997H379.5V1.29968H381.4ZM394.7 11.8997L393.8 9.49963H389.7L388.8 11.8997H386.9L390.9 1.29968H392.6L396.6 11.8997H394.7ZM391.8 3.49963L390.2 7.99963H393.3L391.8 3.49963ZM397.8 1.19958L400.3 6.29968L402.7 1.19958H404.8L401.2 7.89966V11.8997H399.3V7.89966L395.7 1.19958H397.8ZM414.4 1.19958V11.8997H412.6L407.8 4.29968V11.8997H406V1.19958H407.8L412.6 8.79968V1.19958H414.4ZM426.1 5.09961L422 10.4996H426.3V11.8997H419.8V10.6996L423.8 5.39966H419.9V3.89966H426.1V5.09961ZM427.2 7.99963V7.89966C427.2 7.09966 427.366 6.39968 427.7 5.79968C427.966 5.19968 428.4 4.73299 429 4.39966C429.533 4.06632 430.167 3.89966 430.9 3.89966C431.967 3.89966 432.833 4.23299 433.5 4.89966C434.166 5.56632 434.533 6.46628 434.6 7.59961V8.09961C434.6 8.83294 434.433 9.53292 434.1 10.1996C433.833 10.7996 433.433 11.2663 432.9 11.5996C432.3 11.9329 431.633 12.0996 430.9 12.0996C429.767 12.0996 428.866 11.733 428.2 10.9996C427.533 10.2663 427.2 9.2663 427.2 7.99963ZM429 8.09961C429 8.89961 429.166 9.53297 429.5 9.99963C429.833 10.4663 430.3 10.6996 430.9 10.6996C431.5 10.6996 431.967 10.4663 432.3 9.99963C432.633 9.53297 432.8 8.83299 432.8 7.89966C432.8 7.09966 432.633 6.4663 432.3 5.99963C431.967 5.53297 431.5 5.29968 430.9 5.29968C430.3 5.29968 429.833 5.53297 429.5 5.99963C429.166 6.4663 429 7.16628 429 8.09961ZM435.8 7.99963V7.89966C435.8 7.09966 435.933 6.39968 436.2 5.79968C436.533 5.19968 436.966 4.73299 437.5 4.39966C438.1 4.06632 438.733 3.89966 439.4 3.89966C440.467 3.89966 441.333 4.23299 442 4.89966C442.666 5.56632 443.033 6.46628 443.1 7.59961V8.09961C443.1 8.83294 442.966 9.53292 442.7 10.1996C442.366 10.7996 441.933 11.2663 441.4 11.5996C440.867 11.9329 440.233 12.0996 439.5 12.0996C438.366 12.0996 437.467 11.733 436.8 10.9996C436.133 10.2663 435.8 9.2663 435.8 7.99963ZM437.5 8.09961C437.5 8.89961 437.7 9.53297 438.1 9.99963C438.433 10.4663 438.9 10.6996 439.5 10.6996C440.1 10.6996 440.567 10.4663 440.9 9.99963C441.233 9.53297 441.4 8.83299 441.4 7.89966C441.4 7.09966 441.2 6.4663 440.8 5.99963C440.467 5.53297 440 5.29968 439.4 5.29968C438.867 5.29968 438.433 5.53297 438.1 5.99963C437.7 6.4663 437.5 7.16628 437.5 8.09961ZM444.6 3.99963H446.3L446.4 4.79968C446.933 4.19968 447.666 3.89966 448.6 3.89966C449.666 3.89966 450.4 4.29961 450.8 5.09961C451.4 4.29961 452.233 3.89966 453.3 3.89966C454.167 3.89966 454.8 4.13294 455.2 4.59961C455.6 5.06628 455.833 5.76625 455.9 6.69958V11.8997H454.1V6.79968C454.1 6.26635 454 5.89958 453.8 5.69958C453.533 5.43292 453.166 5.29968 452.7 5.29968C452.3 5.29968 451.966 5.43292 451.7 5.69958C451.433 5.89958 451.233 6.1663 451.1 6.49963V11.8997H449.4V6.69958C449.333 5.76625 448.833 5.29968 447.9 5.29968C447.233 5.29968 446.733 5.59958 446.4 6.19958V11.8997H444.6V3.99963ZM461.1 7.89966C461.1 6.69966 461.367 5.73297 461.9 4.99963C462.5 4.2663 463.266 3.89966 464.2 3.89966C465.066 3.89966 465.767 4.19968 466.3 4.79968V0.699585H468V11.9996H466.4L466.3 11.1996C465.767 11.7996 465.066 12.0996 464.2 12.0996C463.266 12.0996 462.533 11.733 462 10.9996C461.4 10.2663 461.1 9.23299 461.1 7.89966ZM462.9 8.09961C462.9 8.89961 463.033 9.53297 463.3 9.99963C463.633 10.4663 464.1 10.6996 464.7 10.6996C465.433 10.6996 465.967 10.3663 466.3 9.69958V6.29968C465.967 5.69968 465.433 5.39966 464.7 5.39966C464.1 5.39966 463.633 5.59963 463.3 5.99963C463.033 6.4663 462.9 7.16628 462.9 8.09961ZM476.4 11.9996H474.6C474.533 11.7996 474.467 11.5329 474.4 11.1996C473.867 11.7996 473.167 12.0996 472.3 12.0996C471.5 12.0996 470.867 11.8663 470.4 11.3997C469.867 10.9997 469.6 10.4663 469.6 9.79968C469.6 8.93302 469.933 8.26635 470.6 7.79968C471.2 7.33302 472.1 7.09961 473.3 7.09961H474.4V6.59961C474.4 6.19961 474.266 5.86628 474 5.59961C473.8 5.39961 473.466 5.29968 473 5.29968C472.6 5.29968 472.266 5.39961 472 5.59961C471.733 5.79961 471.6 6.03302 471.6 6.29968H469.8C469.8 5.89968 469.933 5.49961 470.2 5.09961C470.533 4.69961 470.933 4.39958 471.4 4.19958C471.933 3.99958 472.5 3.89966 473.1 3.89966C474.033 3.89966 474.767 4.13294 475.3 4.59961C475.833 5.06628 476.1 5.73294 476.1 6.59961V10.0996C476.1 10.8329 476.2 11.3997 476.4 11.7997V11.9996ZM472.7 10.7997C473.033 10.7997 473.366 10.6996 473.7 10.4996C473.966 10.3663 474.2 10.133 474.4 9.79968V8.29968H473.4C472.733 8.29968 472.233 8.43292 471.9 8.69958C471.567 8.89958 471.4 9.19961 471.4 9.59961C471.4 9.99961 471.533 10.2996 471.8 10.4996C472 10.6996 472.3 10.7997 472.7 10.7997ZM482.2 4.09961V5.69958C481.933 5.69958 481.667 5.69958 481.4 5.69958C480.6 5.69958 480.067 5.99961 479.8 6.59961V11.9996H478V4.09961H479.7V4.99963C480.166 4.33297 480.766 3.99963 481.5 3.99963C481.766 3.99963 482 4.03294 482.2 4.09961ZM487.7 9.89966C487.7 9.56632 487.567 9.33292 487.3 9.19958C487.033 8.99958 486.6 8.83292 486 8.69958C485.4 8.56625 484.9 8.39958 484.5 8.19958C483.633 7.79958 483.2 7.19966 483.2 6.39966C483.2 5.73299 483.466 5.16625 484 4.69958C484.6 4.23292 485.333 3.99963 486.2 3.99963C487.2 3.99963 487.966 4.23292 488.5 4.69958C489.1 5.16625 489.4 5.7663 489.4 6.49963H487.6C487.6 6.1663 487.5 5.89958 487.3 5.69958C487.033 5.43292 486.666 5.29968 486.2 5.29968C485.866 5.29968 485.567 5.39961 485.3 5.59961C485.033 5.73294 484.9 5.96635 484.9 6.29968C484.9 6.56635 485.033 6.76632 485.3 6.89966C485.5 7.09966 485.966 7.26632 486.7 7.39966C487.366 7.53299 487.9 7.73297 488.3 7.99963C488.7 8.19963 489 8.43292 489.2 8.69958C489.4 9.03292 489.5 9.39968 489.5 9.79968C489.5 10.533 489.2 11.0996 488.6 11.4996C488 11.9663 487.233 12.1996 486.3 12.1996C485.633 12.1996 485.033 12.0663 484.5 11.7997C484.033 11.5997 483.633 11.2997 483.3 10.8997C483.033 10.4997 482.9 10.033 482.9 9.49963H484.6C484.666 9.9663 484.833 10.2996 485.1 10.4996C485.433 10.7663 485.833 10.8997 486.3 10.8997C486.767 10.8997 487.133 10.7996 487.4 10.5996C487.6 10.3996 487.7 10.1663 487.7 9.89966ZM492.9 0.799683V11.9996H491.1V0.799683H492.9ZM501.4 11.9996H499.6C499.533 11.8663 499.467 11.633 499.4 11.2997C498.867 11.8997 498.167 12.1996 497.3 12.1996C496.5 12.1996 495.867 11.9663 495.4 11.4996C494.867 11.033 494.6 10.4663 494.6 9.79968C494.6 8.99968 494.933 8.36632 495.6 7.89966C496.2 7.43299 497.1 7.19958 498.3 7.19958H499.3V6.69958C499.3 6.29958 499.2 5.96625 499 5.69958C498.8 5.43292 498.466 5.29968 498 5.29968C497.533 5.29968 497.2 5.39961 497 5.59961C496.733 5.79961 496.6 6.06632 496.6 6.39966H494.8C494.8 5.99966 494.933 5.59958 495.2 5.19958C495.533 4.79958 495.933 4.49968 496.4 4.29968C496.867 4.09968 497.433 3.99963 498.1 3.99963C498.966 3.99963 499.7 4.23292 500.3 4.69958C500.833 5.16625 501.1 5.79961 501.1 6.59961V10.1996C501.1 10.9329 501.2 11.4997 501.4 11.8997V11.9996ZM497.7 10.6996C498.033 10.6996 498.333 10.633 498.6 10.4996C498.933 10.2996 499.167 10.0663 499.3 9.79968V8.29968H498.4C497.733 8.29968 497.233 8.39961 496.9 8.59961C496.567 8.86628 496.4 9.19961 496.4 9.59961C496.4 9.93294 496.5 10.1997 496.7 10.3997C496.966 10.5997 497.3 10.6996 497.7 10.6996ZM507.1 4.09961V5.69958C506.9 5.69958 506.667 5.69958 506.4 5.69958C505.6 5.69958 505.067 5.99961 504.8 6.59961V11.9996H503V4.09961H504.7V4.99963C505.166 4.33297 505.766 3.99963 506.5 3.99963C506.766 3.99963 506.966 4.03294 507.1 4.09961ZM510.2 4.09961V11.9996H508.4V4.09961H510.2ZM508.3 1.99963C508.3 1.73297 508.366 1.53299 508.5 1.39966C508.7 1.19966 508.967 1.09961 509.3 1.09961C509.633 1.09961 509.866 1.19966 510 1.39966C510.2 1.53299 510.3 1.73297 510.3 1.99963C510.3 2.2663 510.2 2.49958 510 2.69958C509.866 2.89958 509.633 2.99963 509.3 2.99963C508.967 2.99963 508.7 2.89958 508.5 2.69958C508.366 2.49958 508.3 2.2663 508.3 1.99963ZM513.2 10.0996C513.533 10.0996 513.8 10.1997 514 10.3997C514.2 10.5997 514.3 10.8329 514.3 11.0996C514.3 11.4329 514.2 11.6663 514 11.7997C513.8 11.9997 513.533 12.0996 513.2 12.0996C512.866 12.0996 512.633 11.9997 512.5 11.7997C512.3 11.6663 512.2 11.4329 512.2 11.0996C512.2 10.8329 512.3 10.5997 512.5 10.3997C512.633 10.1997 512.866 10.0996 513.2 10.0996Z" fill="#202020"/>
</svg>
