<svg width="700" height="133" viewBox="0 0 700 133" fill="none" xmlns="http://www.w3.org/2000/svg">
<path d="M13.9004 24.2986C13.9004 21.7653 14.3671 19.5652 15.3004 17.6985C16.2337 15.8985 17.5671 14.4651 19.3004 13.3984C21.0337 12.3318 23.0671 11.7986 25.4004 11.7986C27.8671 11.7986 29.9671 12.3318 31.7004 13.3984C33.4337 14.4651 34.7337 15.8985 35.6004 17.6985C36.5337 19.5652 37.0004 21.7318 37.0004 24.1985C37.0004 26.6652 36.5337 28.8318 35.6004 30.6985C34.6004 32.5652 33.2337 34.0652 31.5004 35.1985C29.8337 36.1985 27.8004 36.6985 25.4004 36.6985C23.0671 36.6985 21.0337 36.1985 19.3004 35.1985C17.5671 34.0652 16.2337 32.5652 15.3004 30.6985C14.3671 28.8318 13.9004 26.6652 13.9004 24.1985V24.2986ZM0.500397 24.2986C0.500397 27.8986 1.13372 31.1985 2.40039 34.1985C3.60039 37.1318 5.3004 39.7319 7.5004 41.9985C9.76706 44.1319 12.4004 45.7985 15.4004 46.9985C18.4671 48.1985 21.8004 48.7986 25.4004 48.7986C29.0671 48.7986 32.4004 48.1985 35.4004 46.9985C38.5337 45.7985 41.2004 44.1319 43.4004 41.9985C45.6004 39.7319 47.3004 37.1318 48.5004 34.1985C49.7004 31.1985 50.3004 27.8986 50.3004 24.2986C50.3004 20.7653 49.6671 17.532 48.4004 14.5986C47.2004 11.6653 45.4671 9.1653 43.2004 7.09863C41.0004 4.9653 38.3671 3.33182 35.3004 2.19849C32.3004 0.998486 29.0004 0.398438 25.4004 0.398438C21.9337 0.398438 18.6671 0.998486 15.6004 2.19849C12.6004 3.33182 10.0004 4.9653 7.80038 7.09863C5.53372 9.1653 3.73372 11.6653 2.40039 14.5986C1.13372 17.532 0.500397 20.7653 0.500397 24.2986ZM70.4004 1.59863H58.8004L56.1004 22.6985H63.3004L70.4004 1.59863ZM76.7004 27.2986H88.6004L73.7004 47.0986H104.6V36.8984H93.1004L106.9 17.1985H76.7004V27.2986ZM110.7 6.29858C110.7 7.96525 111.3 9.33177 112.5 10.3984C113.767 11.5318 115.267 12.0986 117 12.0986C118.734 12.0986 120.234 11.5318 121.5 10.3984C122.7 9.33177 123.3 7.96525 123.3 6.29858C123.3 4.56525 122.7 3.13187 121.5 1.99854C120.234 0.931868 118.734 0.398438 117 0.398438C115.267 0.398438 113.767 0.931868 112.5 1.99854C111.3 3.13187 110.7 4.56525 110.7 6.29858ZM122.4 17.0986H111.6V46.9985H122.4V17.0986ZM149.1 28.7986V46.9985H160.9V27.6985C160.9 24.0985 160.067 21.3318 158.4 19.3984C156.8 17.3984 154.034 16.3984 150.1 16.3984C147.834 16.3984 145.934 16.8653 144.4 17.7986C142.934 18.7319 141.8 19.9652 141 21.4985V17.0986H129.7V46.9985H141V28.7986C141 27.7319 141.167 26.832 141.5 26.0986C141.9 25.3653 142.4 24.8319 143 24.4985C143.734 24.0985 144.534 23.8984 145.4 23.8984C146.867 23.8984 147.867 24.3318 148.4 25.1985C148.867 26.0652 149.1 27.2653 149.1 28.7986ZM177.9 49.1985H167.2C167.467 51.8652 168.2 54.2319 169.4 56.2986C170.6 58.3652 172.434 59.9653 174.9 61.0986C177.3 62.232 180.5 62.7986 184.5 62.7986C187.7 62.7986 190.567 62.232 193.1 61.0986C195.634 60.032 197.667 58.2984 199.2 55.8984C200.734 53.4984 201.5 50.3318 201.5 46.3984V17.0986H190.7V46.3984C190.7 47.9984 190.4 49.3652 189.8 50.4985C189.267 51.6319 188.467 52.4986 187.4 53.0986C186.4 53.6986 185.234 53.9985 183.9 53.9985C182.9 53.9985 181.967 53.8319 181.1 53.4985C180.234 53.2319 179.534 52.7319 179 51.9985C178.467 51.3319 178.1 50.3985 177.9 49.1985ZM166.5 31.5986C166.5 34.932 167.167 37.7319 168.5 39.9985C169.9 42.1985 171.667 43.8652 173.8 44.9985C175.934 46.0652 178.167 46.5986 180.5 46.5986C183.034 46.5986 185.267 46.0318 187.2 44.8984C189.2 43.6984 190.767 41.9652 191.9 39.6985C193.034 37.4985 193.6 34.7986 193.6 31.5986C193.6 28.332 193.034 25.5984 191.9 23.3984C190.767 21.1318 189.2 19.3985 187.2 18.1985C185.267 17.0652 183.034 16.4985 180.5 16.4985C178.167 16.4985 175.934 17.0652 173.8 18.1985C171.667 19.2652 169.9 20.8986 168.5 23.0986C167.167 25.2986 166.5 28.132 166.5 31.5986ZM178.3 31.5986C178.3 30.1986 178.6 29.0652 179.2 28.1985C179.734 27.1985 180.5 26.4652 181.5 25.9985C182.434 25.5319 183.467 25.2986 184.6 25.2986C185.334 25.2986 186.067 25.4318 186.8 25.6985C187.534 25.8985 188.2 26.2653 188.8 26.7986C189.4 27.3319 189.867 27.9986 190.2 28.7986C190.534 29.5319 190.7 30.4653 190.7 31.5986C190.7 32.9986 190.4 34.1653 189.8 35.0986C189.2 35.9653 188.434 36.632 187.5 37.0986C186.567 37.5653 185.6 37.7986 184.6 37.7986C183.467 37.7986 182.434 37.5653 181.5 37.0986C180.5 36.632 179.734 35.8984 179.2 34.8984C178.6 33.9651 178.3 32.8653 178.3 31.5986ZM207.7 6.29858C207.7 7.96525 208.3 9.33177 209.5 10.3984C210.767 11.5318 212.267 12.0986 214 12.0986C215.8 12.0986 217.3 11.5318 218.5 10.3984C219.767 9.33177 220.4 7.96525 220.4 6.29858C220.4 4.56525 219.767 3.13187 218.5 1.99854C217.3 0.931868 215.8 0.398438 214 0.398438C212.267 0.398438 210.767 0.931868 209.5 1.99854C208.3 3.13187 207.7 4.56525 207.7 6.29858ZM219.4 17.0986H208.6V46.9985H219.4V17.0986ZM227.1 27.2986H239L224.2 46.9985H255V36.8984H243.5L257.4 17.0986H227.1V27.2986ZM270.8 49.2986H260C260.334 51.9653 261.1 54.3318 262.3 56.3984C263.5 58.3984 265.334 59.9653 267.8 61.0986C270.2 62.232 273.4 62.7986 277.4 62.7986C280.6 62.7986 283.467 62.2652 286 61.1985C288.534 60.1318 290.567 58.3985 292.1 55.9985C293.634 53.5319 294.4 50.3318 294.4 46.3984V17.1985H283.6V46.3984C283.6 48.0651 283.3 49.4653 282.7 50.5986C282.167 51.732 281.367 52.5985 280.3 53.1985C279.3 53.7318 278.134 53.9985 276.8 53.9985C275.734 53.9985 274.767 53.8653 273.9 53.5986C273.034 53.2653 272.367 52.7653 271.9 52.0986C271.367 51.3653 271 50.4319 270.8 49.2986ZM259.4 31.5986C259.4 34.9986 260.067 37.832 261.4 40.0986C262.8 42.2986 264.567 43.9653 266.7 45.0986C268.834 46.1653 271.067 46.6985 273.4 46.6985C275.934 46.6985 278.167 46.0984 280.1 44.8984C282.034 43.7651 283.567 42.0653 284.7 39.7986C285.9 37.5319 286.5 34.7986 286.5 31.5986C286.5 28.332 285.9 25.5984 284.7 23.3984C283.567 21.1318 282.034 19.4319 280.1 18.2986C278.167 17.0986 275.934 16.4985 273.4 16.4985C271.067 16.4985 268.834 17.0652 266.7 18.1985C264.567 19.2652 262.8 20.9318 261.4 23.1985C260.067 25.3985 259.4 28.1986 259.4 31.5986ZM271.2 31.5986C271.2 30.2653 271.5 29.1318 272.1 28.1985C272.634 27.2652 273.367 26.5653 274.3 26.0986C275.3 25.632 276.367 25.3984 277.5 25.3984C278.234 25.3984 278.967 25.5319 279.7 25.7986C280.434 25.9986 281.1 26.3651 281.7 26.8984C282.3 27.3651 282.767 27.9986 283.1 28.7986C283.434 29.5986 283.6 30.532 283.6 31.5986C283.6 33.0653 283.3 34.232 282.7 35.0986C282.1 36.032 281.334 36.7318 280.4 37.1985C279.467 37.6652 278.5 37.8984 277.5 37.8984C276.367 37.8984 275.3 37.632 274.3 37.0986C273.367 36.632 272.634 35.9319 272.1 34.9985C271.5 34.0652 271.2 32.932 271.2 31.5986ZM310.5 37.6985C310.5 37.0318 310.634 36.5318 310.9 36.1985C311.167 35.7318 311.6 35.3985 312.2 35.1985C312.8 34.9985 313.6 34.8984 314.6 34.8984C316.067 34.8984 317.434 35.0651 318.7 35.3984C320.034 35.7984 321.134 36.3653 322 37.0986V32.3984C321.4 31.7984 320.534 31.2653 319.4 30.7986C318.334 30.2653 317.067 29.8319 315.6 29.4985C314.2 29.2319 312.667 29.0986 311 29.0986C307.2 29.0986 304.267 29.8985 302.2 31.4985C300.2 33.1652 299.2 35.4319 299.2 38.2986C299.2 40.3652 299.7 42.0985 300.7 43.4985C301.7 44.8985 303 45.9652 304.6 46.6985C306.267 47.3652 308.067 47.6985 310 47.6985C311.934 47.6985 313.734 47.3652 315.4 46.6985C317.134 46.0318 318.467 44.9986 319.4 43.5986C320.4 42.2653 320.9 40.6652 320.9 38.7986L319.8 34.8984C319.8 36.2318 319.534 37.3318 319 38.1985C318.467 39.0652 317.767 39.7318 316.9 40.1985C316.034 40.5985 315.134 40.7986 314.2 40.7986C313.534 40.7986 312.934 40.6985 312.4 40.4985C311.8 40.2319 311.334 39.8651 311 39.3984C310.667 38.9318 310.5 38.3652 310.5 37.6985ZM301.5 19.6985L305.1 26.9985C305.5 26.7985 306.2 26.4986 307.2 26.0986C308.2 25.6986 309.334 25.3319 310.6 24.9985C311.934 24.7319 313.234 24.5986 314.5 24.5986C315.434 24.5986 316.234 24.6984 316.9 24.8984C317.634 25.0984 318.2 25.3986 318.6 25.7986C319.067 26.1319 319.367 26.5653 319.5 27.0986C319.7 27.5653 319.8 28.1319 319.8 28.7986V47.0986H330.6V26.1985C330.6 24.0652 329.934 22.2653 328.6 20.7986C327.334 19.2653 325.6 18.1318 323.4 17.3984C321.267 16.6651 318.834 16.2986 316.1 16.2986C313.234 16.2986 310.567 16.6651 308.1 17.3984C305.634 18.0651 303.434 18.8318 301.5 19.6985ZM404 47.0986V27.6985C404 25.2985 403.734 23.2985 403.2 21.6985C402.6 19.9652 401.634 18.6653 400.3 17.7986C398.967 16.9319 397.1 16.4985 394.7 16.4985C392.634 16.4985 390.767 16.9319 389.1 17.7986C387.5 18.5986 386.134 19.7318 385 21.1985C384.4 19.6652 383.434 18.4985 382.1 17.6985C380.767 16.8985 378.9 16.4985 376.5 16.4985C374.367 16.4985 372.567 16.9651 371.1 17.8984C369.7 18.8318 368.567 20.0985 367.7 21.6985V17.1985H357V47.0986H367.7V28.8984C367.7 27.7651 367.867 26.8652 368.2 26.1985C368.534 25.3985 368.967 24.8319 369.5 24.4985C370.034 24.1652 370.667 23.9985 371.4 23.9985C372.534 23.9985 373.367 24.4319 373.9 25.2986C374.367 26.0986 374.6 27.2984 374.6 28.8984V47.0986H385.9V28.8984C385.9 27.7651 386.034 26.8652 386.3 26.1985C386.634 25.3985 387.067 24.8319 387.6 24.4985C388.2 24.1652 388.834 23.9985 389.5 23.9985C390.7 23.9985 391.534 24.4319 392 25.2986C392.534 26.0986 392.8 27.2984 392.8 28.8984V47.0986H404ZM409.5 32.0986C409.5 35.2986 410.267 38.0651 411.8 40.3984C413.267 42.7318 415.334 44.5319 418 45.7986C420.667 47.0653 423.667 47.6985 427 47.6985C430.4 47.6985 433.434 47.0653 436.1 45.7986C438.7 44.5319 440.767 42.7318 442.3 40.3984C443.9 38.0651 444.7 35.2986 444.7 32.0986C444.7 28.8986 443.9 26.1319 442.3 23.7986C440.767 21.4653 438.7 19.6651 436.1 18.3984C433.434 17.1318 430.4 16.4985 427 16.4985C423.667 16.4985 420.667 17.1318 418 18.3984C415.334 19.6651 413.267 21.4653 411.8 23.7986C410.267 26.1319 409.5 28.8986 409.5 32.0986ZM421.1 32.0986C421.1 30.7653 421.334 29.5986 421.8 28.5986C422.4 27.5986 423.167 26.8319 424.1 26.2986C424.967 25.8319 425.934 25.5986 427 25.5986C428.134 25.5986 429.134 25.8319 430 26.2986C430.934 26.8319 431.667 27.5986 432.2 28.5986C432.8 29.5986 433.1 30.7653 433.1 32.0986C433.1 33.4986 432.8 34.6985 432.2 35.6985C431.667 36.6318 430.934 37.3651 430 37.8984C429.134 38.3651 428.134 38.5986 427 38.5986C425.934 38.5986 424.967 38.3651 424.1 37.8984C423.167 37.3651 422.4 36.6318 421.8 35.6985C421.334 34.6985 421.1 33.4986 421.1 32.0986ZM451.9 35.6985L447.8 43.3984C449.334 44.3984 450.967 45.2652 452.7 45.9985C454.367 46.7985 456.134 47.4318 458 47.8984C460 48.2984 462.067 48.4985 464.2 48.4985C467.934 48.4985 470.8 47.6986 472.8 46.0986C474.867 44.4986 475.9 41.9986 475.9 38.5986C475.9 36.732 475.467 35.232 474.6 34.0986C473.867 33.032 472.834 32.1318 471.5 31.3984C470.234 30.6651 468.834 30.0319 467.3 29.4985C465.7 28.8985 464.4 28.3985 463.4 27.9985C462.334 27.6652 461.534 27.3319 461 26.9985C460.534 26.5985 460.3 26.0985 460.3 25.4985C460.3 25.0985 460.467 24.7318 460.8 24.3984C461.2 24.0651 461.8 23.8984 462.6 23.8984C463.867 23.8984 465.367 24.2986 467.1 25.0986C468.834 25.832 470.4 26.7985 471.8 27.9985L475.1 20.5986C473.767 19.7986 472.4 19.0985 471 18.4985C469.6 17.8985 468.134 17.432 466.6 17.0986C465.067 16.6986 463.4 16.4985 461.6 16.4985C459.334 16.4985 457.334 16.8653 455.6 17.5986C453.867 18.1986 452.5 19.1652 451.5 20.4985C450.5 21.7652 450 23.3318 450 25.1985C450 27.1318 450.4 28.7319 451.2 29.9985C452 31.1985 453.034 32.1651 454.3 32.8984C455.634 33.6318 457 34.2318 458.4 34.6985C460.134 35.2318 461.434 35.6986 462.3 36.0986C463.234 36.4986 463.867 36.8986 464.2 37.2986C464.534 37.6319 464.7 38.0653 464.7 38.5986C464.7 39.1986 464.5 39.6652 464.1 39.9985C463.7 40.3319 463.1 40.4985 462.3 40.4985C461.767 40.4985 461.034 40.3985 460.1 40.1985C459.1 39.9985 457.934 39.5319 456.6 38.7986C455.267 38.1319 453.7 37.0985 451.9 35.6985ZM13.8004 94.2986C13.8004 91.8319 14.2671 89.6653 15.2004 87.7986C16.1337 85.9319 17.4671 84.4985 19.2004 83.4985C20.9337 82.4319 22.9671 81.8984 25.3004 81.8984C27.7671 81.8984 29.8671 82.4319 31.6004 83.4985C33.3337 84.4985 34.6337 85.9319 35.5004 87.7986C36.4337 89.6653 36.9004 91.8319 36.9004 94.2986C36.9004 96.7653 36.4337 98.9319 35.5004 100.799C34.5671 102.665 33.2337 104.165 31.5004 105.299C29.7671 106.299 27.7004 106.799 25.3004 106.799C22.9671 106.799 20.9337 106.299 19.2004 105.299C17.4671 104.165 16.1337 102.665 15.2004 100.799C14.2671 98.9319 13.8004 96.7653 13.8004 94.2986ZM0.400391 94.2986C0.400391 97.8986 1.03372 101.165 2.30038 104.099C3.50038 107.099 5.20039 109.698 7.40039 111.898C9.66706 114.098 12.3004 115.799 15.3004 116.999C18.3671 118.199 21.7004 118.799 25.3004 118.799C28.9671 118.799 32.3337 118.199 35.4004 116.999C38.4671 115.799 41.1004 114.098 43.3004 111.898C45.5004 109.698 47.2004 107.099 48.4004 104.099C49.6004 101.165 50.2004 97.8986 50.2004 94.2986C50.2004 90.6986 49.6004 87.4653 48.4004 84.5986C47.1337 81.6653 45.4004 79.1319 43.2004 76.9985C40.9337 74.9319 38.2671 73.3318 35.2004 72.1985C32.2004 70.9985 28.9004 70.3984 25.3004 70.3984C21.8337 70.3984 18.5671 70.9985 15.5004 72.1985C12.5004 73.3318 9.90041 74.9319 7.70041 76.9985C5.43374 79.1319 3.63372 81.6653 2.30038 84.5986C1.03372 87.4653 0.400391 90.6986 0.400391 94.2986ZM75.3004 98.8984V117.099H87.1004V97.6985C87.1004 94.1652 86.2671 91.4319 84.6004 89.4985C83.0004 87.4985 80.2337 86.4985 76.3004 86.4985C74.0337 86.4985 72.1337 86.9651 70.6004 87.8984C69.1337 88.8318 67.9671 90.0653 67.1004 91.5986V87.1985H55.9004V117.099H67.1004V98.8984C67.1004 97.8318 67.3004 96.9318 67.7004 96.1985C68.0337 95.3985 68.5337 94.8319 69.2004 94.4985C69.9337 94.1652 70.7337 93.9985 71.6004 93.9985C73.0671 93.9985 74.0337 94.4319 74.5004 95.2986C75.0337 96.0986 75.3004 97.2984 75.3004 98.8984ZM105.5 66.3984H94.2004V117.099H105.5V66.3984ZM121.7 107.698C121.7 107.032 121.834 106.532 122.1 106.198C122.367 105.732 122.8 105.398 123.4 105.198C124 104.998 124.8 104.898 125.8 104.898C127.267 104.898 128.634 105.065 129.9 105.398C131.234 105.798 132.334 106.365 133.2 107.099V102.398C132.6 101.798 131.734 101.265 130.6 100.799C129.534 100.265 128.267 99.8319 126.8 99.4985C125.4 99.2319 123.867 99.0986 122.2 99.0986C118.4 99.0986 115.467 99.8985 113.4 101.499C111.4 103.165 110.4 105.432 110.4 108.299C110.4 110.365 110.9 112.099 111.9 113.499C112.9 114.899 114.2 115.965 115.8 116.698C117.467 117.365 119.267 117.698 121.2 117.698C123.134 117.698 124.934 117.365 126.6 116.698C128.267 116.032 129.6 114.999 130.6 113.599C131.6 112.265 132.1 110.665 132.1 108.799L131 104.898C131 106.232 130.734 107.332 130.2 108.198C129.667 109.065 128.967 109.732 128.1 110.198C127.234 110.598 126.334 110.799 125.4 110.799C124.734 110.799 124.134 110.665 123.6 110.398C123 110.198 122.534 109.865 122.2 109.398C121.867 108.932 121.7 108.365 121.7 107.698ZM112.7 89.6985L116.3 96.9985C116.7 96.7985 117.4 96.4986 118.4 96.0986C119.4 95.6986 120.534 95.3319 121.8 94.9985C123.134 94.7319 124.434 94.5986 125.7 94.5986C126.634 94.5986 127.434 94.6984 128.1 94.8984C128.767 95.0984 129.334 95.3986 129.8 95.7986C130.2 96.1319 130.5 96.5653 130.7 97.0986C130.9 97.5653 131 98.1319 131 98.7986V117.099H141.8V96.1985C141.8 94.0652 141.134 92.2653 139.8 90.7986C138.534 89.2653 136.8 88.1318 134.6 87.3984C132.467 86.6651 130.034 86.2986 127.3 86.2986C124.434 86.2986 121.767 86.6651 119.3 87.3984C116.834 88.0651 114.634 88.8318 112.7 89.6985ZM161.5 131.398L181 87.1985H169.6L160 111.299L165.9 111.398L156.3 87.1985H144L157.4 115.198L150.4 131.398H161.5ZM203.2 98.8984V117.099H215V97.6985C215 94.1652 214.167 91.4319 212.5 89.4985C210.9 87.4985 208.134 86.4985 204.2 86.4985C201.934 86.4985 200.034 86.9651 198.5 87.8984C197.034 88.8318 195.867 90.0653 195 91.5986V87.1985H183.8V117.099H195V98.8984C195 97.8318 195.2 96.9318 195.6 96.1985C195.934 95.3985 196.434 94.8319 197.1 94.4985C197.834 94.1652 198.634 93.9985 199.5 93.9985C200.967 93.9985 201.967 94.4319 202.5 95.2986C202.967 96.0986 203.2 97.2984 203.2 98.8984ZM252.3 66.3984H241.6V117.099H252.3V66.3984ZM276.4 87.1985H263.1L250.4 99.4985L264.7 117.099H277.7L263.7 99.4985L276.4 87.1985ZM293 105.398V87.1985H281.2V106.599C281.2 110.132 282.034 112.898 283.7 114.898C285.3 116.832 288.067 117.799 292 117.799C294.267 117.799 296.134 117.365 297.6 116.499C299.067 115.499 300.234 114.232 301.1 112.698V117.099H312.4V87.1985H301.1V105.398C301.1 106.532 300.934 107.465 300.6 108.198C300.2 108.932 299.7 109.465 299.1 109.799C298.434 110.132 297.634 110.299 296.7 110.299C295.234 110.299 294.234 109.899 293.7 109.099C293.234 108.232 293 106.998 293 105.398ZM330.5 117.099V87.1985H319.5V117.099H330.5ZM339.1 98.6985L343.7 88.9985C343.234 88.2652 342.5 87.6652 341.5 87.1985C340.5 86.6652 339.467 86.3984 338.4 86.3984C336.667 86.3984 335 86.9653 333.4 88.0986C331.867 89.232 330.6 90.732 329.6 92.5986C328.667 94.4653 328.2 96.5651 328.2 98.8984L330.5 103.398C330.5 101.998 330.7 100.799 331.1 99.7986C331.567 98.8652 332.167 98.1652 332.9 97.6985C333.634 97.2318 334.434 96.9985 335.3 96.9985C336.167 96.9985 336.867 97.1652 337.4 97.4985C338 97.8319 338.567 98.2318 339.1 98.6985ZM349.3 105.799L345.2 113.398C346.8 114.398 348.434 115.299 350.1 116.099C351.767 116.899 353.567 117.498 355.5 117.898C357.434 118.365 359.5 118.599 361.7 118.599C365.434 118.599 368.3 117.798 370.3 116.198C372.3 114.532 373.3 112.032 373.3 108.698C373.3 106.832 372.9 105.332 372.1 104.198C371.3 103.065 370.267 102.165 369 101.499C367.734 100.765 366.334 100.099 364.8 99.4985C363.2 98.8985 361.867 98.432 360.8 98.0986C359.8 97.7653 359.034 97.3985 358.5 96.9985C357.967 96.6652 357.7 96.1652 357.7 95.4985C357.7 95.0985 357.867 94.7318 358.2 94.3984C358.6 94.1318 359.234 93.9985 360.1 93.9985C361.367 93.9985 362.834 94.3985 364.5 95.1985C366.234 95.9318 367.8 96.8986 369.2 98.0986L372.5 90.5986C371.167 89.7986 369.8 89.132 368.4 88.5986C367.067 87.9986 365.6 87.5318 364 87.1985C362.467 86.7985 360.834 86.5986 359.1 86.5986C356.767 86.5986 354.734 86.932 353 87.5986C351.267 88.2653 349.9 89.2319 348.9 90.4985C347.9 91.7652 347.4 93.3318 347.4 95.1985C347.4 97.1318 347.8 98.7319 348.6 99.9985C349.4 101.265 350.467 102.265 351.8 102.999C353.067 103.665 354.434 104.232 355.9 104.698C357.634 105.298 358.934 105.765 359.8 106.099C360.734 106.499 361.334 106.899 361.6 107.299C361.934 107.632 362.1 108.065 362.1 108.599C362.1 109.199 361.9 109.665 361.5 109.999C361.167 110.399 360.567 110.599 359.7 110.599C359.167 110.599 358.434 110.465 357.5 110.198C356.567 109.998 355.434 109.565 354.1 108.898C352.767 108.165 351.167 107.132 349.3 105.799ZM397.8 98.8984V117.099H409.5V97.7986C409.5 94.1986 408.667 91.4319 407 89.4985C405.4 87.4985 402.634 86.4985 398.7 86.4985C396.434 86.4985 394.534 86.9651 393 87.8984C391.534 88.8318 390.4 90.0653 389.6 91.5986V87.1985H378.3V117.099H389.6V98.8984C389.6 97.8318 389.767 96.9318 390.1 96.1985C390.5 95.4652 391 94.932 391.6 94.5986C392.334 94.2653 393.134 94.0986 394 94.0986C395.467 94.0986 396.467 94.5318 397 95.3984C397.534 96.1984 397.8 97.3651 397.8 98.8984ZM415.9 76.3984C415.9 78.0651 416.5 79.4319 417.7 80.4985C418.967 81.6319 420.467 82.1985 422.2 82.1985C424 82.1985 425.5 81.6319 426.7 80.4985C427.967 79.4319 428.6 78.0651 428.6 76.3984C428.6 74.6651 427.967 73.232 426.7 72.0986C425.5 71.032 424 70.4985 422.2 70.4985C420.467 70.4985 418.967 71.032 417.7 72.0986C416.5 73.232 415.9 74.6651 415.9 76.3984ZM427.6 87.1985H416.8V117.099H427.6V87.1985ZM472.7 87.1985H451.2V96.2986H472.7V87.1985ZM467.3 76.7986H456.6V117.099H467.3V76.7986ZM485.8 107.799C485.8 107.132 485.934 106.598 486.2 106.198C486.4 105.798 486.834 105.465 487.5 105.198C488.1 104.998 488.9 104.898 489.9 104.898C491.3 104.898 492.667 105.099 494 105.499C495.267 105.899 496.334 106.465 497.2 107.198V102.398C496.667 101.798 495.834 101.265 494.7 100.799C493.567 100.265 492.267 99.8653 490.8 99.5986C489.4 99.2653 487.867 99.0986 486.2 99.0986C482.4 99.0986 479.467 99.932 477.4 101.599C475.467 103.265 474.5 105.532 474.5 108.398C474.5 110.398 474.967 112.132 475.9 113.599C476.9 114.932 478.2 115.965 479.8 116.698C481.467 117.432 483.267 117.799 485.2 117.799C487.2 117.799 489 117.432 490.6 116.698C492.334 116.032 493.667 115.032 494.6 113.698C495.6 112.365 496.1 110.732 496.1 108.799L495.1 104.898C495.1 106.232 494.8 107.365 494.2 108.299C493.667 109.165 492.967 109.798 492.1 110.198C491.234 110.598 490.334 110.799 489.4 110.799C488.734 110.799 488.134 110.699 487.6 110.499C487 110.232 486.534 109.899 486.2 109.499C485.934 108.965 485.8 108.399 485.8 107.799ZM476.7 89.6985L480.3 96.9985C480.7 96.7985 481.4 96.4986 482.4 96.0986C483.4 95.7653 484.534 95.432 485.8 95.0986C487.134 94.7653 488.434 94.5986 489.7 94.5986C490.634 94.5986 491.434 94.7319 492.1 94.9985C492.834 95.1319 493.4 95.3986 493.8 95.7986C494.267 96.1319 494.567 96.5653 494.7 97.0986C494.967 97.632 495.1 98.2318 495.1 98.8984V117.099H505.8V96.1985C505.8 94.0652 505.134 92.2653 503.8 90.7986C502.534 89.3319 500.8 88.2319 498.6 87.4985C496.467 86.6985 494.034 86.2986 491.3 86.2986C488.5 86.2986 485.834 86.6651 483.3 87.3984C480.834 88.1318 478.634 88.8985 476.7 89.6985ZM532.2 98.8984V117.099H543.9V97.7986C543.9 94.1986 543.1 91.4319 541.5 89.4985C539.834 87.4985 537.034 86.4985 533.1 86.4985C530.834 86.4985 528.934 86.9651 527.4 87.8984C525.934 88.8318 524.8 90.0653 524 91.5986V87.1985H512.7V117.099H524V98.8984C524 97.8318 524.167 96.9318 524.5 96.1985C524.9 95.4652 525.434 94.932 526.1 94.5986C526.767 94.2653 527.534 94.0986 528.4 94.0986C529.867 94.0986 530.867 94.5318 531.4 95.3984C531.934 96.1984 532.2 97.3651 532.2 98.8984ZM562.3 66.3984H551.1V117.099H562.3V66.3984ZM578.6 107.799C578.6 107.132 578.734 106.598 579 106.198C579.267 105.798 579.7 105.465 580.3 105.198C580.9 104.998 581.7 104.898 582.7 104.898C584.1 104.898 585.467 105.099 586.8 105.499C588.067 105.899 589.134 106.465 590 107.198V102.398C589.467 101.798 588.634 101.265 587.5 100.799C586.434 100.265 585.167 99.8653 583.7 99.5986C582.234 99.2653 580.667 99.0986 579 99.0986C575.2 99.0986 572.3 99.932 570.3 101.599C568.3 103.265 567.3 105.532 567.3 108.398C567.3 110.398 567.8 112.132 568.8 113.599C569.8 114.932 571.1 115.965 572.7 116.698C574.3 117.432 576.067 117.799 578 117.799C580 117.799 581.834 117.432 583.5 116.698C585.167 116.032 586.467 115.032 587.4 113.698C588.4 112.365 588.9 110.732 588.9 108.799L587.9 104.898C587.9 106.232 587.6 107.365 587 108.299C586.534 109.165 585.867 109.798 585 110.198C584.134 110.598 583.2 110.799 582.2 110.799C581.534 110.799 580.934 110.699 580.4 110.499C579.867 110.232 579.4 109.899 579 109.499C578.734 108.965 578.6 108.399 578.6 107.799ZM569.5 89.6985L573.1 96.9985C573.5 96.7985 574.2 96.4986 575.2 96.0986C576.2 95.6986 577.334 95.3653 578.6 95.0986C580 94.7653 581.3 94.5986 582.5 94.5986C583.434 94.5986 584.267 94.7319 585 94.9985C585.667 95.1319 586.2 95.3986 586.6 95.7986C587.067 96.1319 587.4 96.5653 587.6 97.0986C587.8 97.632 587.9 98.2318 587.9 98.8984V117.099H598.6V96.1985C598.6 94.0652 597.967 92.2653 596.7 90.7986C595.434 89.3319 593.7 88.2319 591.5 87.4985C589.3 86.6985 586.834 86.2986 584.1 86.2986C581.3 86.2986 578.634 86.6651 576.1 87.3984C573.634 88.1318 571.434 88.8985 569.5 89.6985ZM625 98.8984V117.099H636.8V97.7986C636.8 94.1986 635.967 91.4319 634.3 89.4985C632.634 87.4985 629.867 86.4985 626 86.4985C623.667 86.4985 621.734 86.9651 620.2 87.8984C618.734 88.8318 617.6 90.0653 616.8 91.5986V87.1985H605.6V117.099H616.8V98.8984C616.8 97.8318 616.967 96.9318 617.3 96.1985C617.7 95.4652 618.234 94.932 618.9 94.5986C619.567 94.2653 620.334 94.0986 621.2 94.0986C622.667 94.0986 623.667 94.5318 624.2 95.3984C624.734 96.1984 625 97.3651 625 98.8984ZM653.8 119.299H643C643.334 121.965 644.1 124.332 645.3 126.398C646.5 128.465 648.3 130.065 650.7 131.198C653.167 132.332 656.4 132.898 660.4 132.898C663.6 132.898 666.434 132.332 668.9 131.198C671.5 130.132 673.534 128.399 675 125.999C676.534 123.599 677.3 120.432 677.3 116.499V87.1985H666.6V116.499C666.6 118.099 666.3 119.465 665.7 120.599C665.1 121.732 664.3 122.598 663.3 123.198C662.3 123.798 661.134 124.099 659.8 124.099C658.734 124.099 657.767 123.932 656.9 123.599C656.034 123.332 655.334 122.832 654.8 122.099C654.267 121.432 653.934 120.499 653.8 119.299ZM642.3 101.698C642.3 105.032 643 107.832 644.4 110.099C645.734 112.299 647.467 113.965 649.6 115.099C651.8 116.165 654.067 116.698 656.4 116.698C658.934 116.698 661.167 116.132 663.1 114.999C665.034 113.799 666.567 112.065 667.7 109.799C668.9 107.599 669.5 104.898 669.5 101.698C669.5 98.4318 668.9 95.6985 667.7 93.4985C666.567 91.2319 665.034 89.4986 663.1 88.2986C661.167 87.1653 658.934 86.5986 656.4 86.5986C654.067 86.5986 651.8 87.1653 649.6 88.2986C647.467 89.3652 645.734 90.9985 644.4 93.1985C643 95.3985 642.3 98.2318 642.3 101.698ZM654.2 101.698C654.2 100.298 654.467 99.1653 655 98.2986C655.6 97.2986 656.367 96.5653 657.3 96.0986C658.234 95.632 659.267 95.3984 660.4 95.3984C661.134 95.3984 661.867 95.5319 662.6 95.7986C663.334 95.9986 664 96.3651 664.6 96.8984C665.267 97.4318 665.767 98.0984 666.1 98.8984C666.434 99.6318 666.6 100.565 666.6 101.698C666.6 103.098 666.3 104.265 665.7 105.198C665.1 106.065 664.3 106.732 663.3 107.198C662.367 107.665 661.4 107.898 660.4 107.898C659.267 107.898 658.234 107.665 657.3 107.198C656.367 106.732 655.6 105.999 655 104.999C654.467 104.065 654.2 102.965 654.2 101.698ZM699.3 71.5986H685.4L687.8 101.499H696.9L699.3 71.5986ZM685.5 112.698C685.5 114.498 686.167 115.998 687.5 117.198C688.767 118.332 690.4 118.898 692.4 118.898C694.4 118.898 696.034 118.332 697.3 117.198C698.634 115.998 699.3 114.498 699.3 112.698C699.3 110.832 698.634 109.332 697.3 108.198C696.034 107.065 694.4 106.499 692.4 106.499C690.4 106.499 688.767 107.065 687.5 108.198C686.167 109.332 685.5 110.832 685.5 112.698Z" fill="#202020"/>
</svg>
