<svg width="501" height="46" viewBox="0 0 551 46" fill="none" xmlns="http://www.w3.org/2000/svg">
<path d="M11.2998 7.20081V8.00079C11.2998 9.26746 11.0998 10.3674 10.6998 11.3008C10.2998 12.2341 9.69981 12.9342 8.89981 13.4008C8.09981 13.9342 7.19983 14.2008 6.19983 14.2008C5.19983 14.2008 4.29982 13.9342 3.49982 13.4008C2.69982 12.9342 2.09983 12.2341 1.69983 11.3008C1.29983 10.3674 1.06648 9.30077 0.999817 8.10077V7.20081C0.999817 6.00081 1.23316 4.90082 1.69983 3.90082C2.09983 2.96748 2.69982 2.26745 3.49982 1.80078C4.29982 1.26745 5.19983 1.00079 6.19983 1.00079C7.19983 1.00079 8.09981 1.26745 8.89981 1.80078C9.69981 2.26745 10.2998 2.96748 10.6998 3.90082C11.0998 4.83415 11.2998 5.93414 11.2998 7.20081ZM9.69983 8.10077V7.20081C9.69983 5.66747 9.3665 4.50081 8.69983 3.70081C8.09983 2.90081 7.2665 2.50079 6.19983 2.50079C5.13316 2.50079 4.29983 2.90081 3.69983 3.70081C3.03316 4.50081 2.69983 5.6341 2.69983 7.10077V8.00079C2.69983 9.46746 2.99982 10.6341 3.59982 11.5008C4.26649 12.3008 5.13316 12.7008 6.19983 12.7008C7.2665 12.7008 8.09983 12.3341 8.69983 11.6008C9.29983 10.8008 9.63316 9.6341 9.69983 8.10077ZM13.5998 4.50079H15.0998L15.1998 5.70081C15.9332 4.76747 16.8665 4.30078 17.9998 4.30078C20.0665 4.30078 21.0998 5.43414 21.0998 7.70081V14.0008H19.4998V7.70081C19.4998 7.03414 19.3332 6.53414 18.9998 6.20081C18.6665 5.86747 18.1998 5.70081 17.5998 5.70081C17.0665 5.70081 16.5998 5.8341 16.1998 6.10077C15.7998 6.36744 15.4665 6.73414 15.1998 7.20081V14.0008H13.5998V4.50079ZM31.0998 14.0008H29.3998C29.3331 13.8008 29.2665 13.4675 29.1998 13.0008C28.3998 13.8008 27.4998 14.2008 26.4998 14.2008C25.5665 14.2008 24.7998 13.9342 24.1998 13.4008C23.5998 12.8675 23.2998 12.2008 23.2998 11.4008C23.2998 10.4008 23.6665 9.6341 24.3998 9.10077C25.1331 8.50077 26.1998 8.20081 27.5998 8.20081H29.1998V7.50079C29.1998 6.90079 28.9998 6.4341 28.5998 6.10077C28.2665 5.76744 27.7665 5.60077 27.0998 5.60077C26.5665 5.60077 26.0998 5.76744 25.6998 6.10077C25.2998 6.36744 25.0998 6.70077 25.0998 7.10077H23.4998C23.4998 6.6341 23.6665 6.20078 23.9998 5.80078C24.3332 5.33411 24.7665 4.96747 25.2998 4.70081C25.8998 4.43414 26.5332 4.30078 27.1998 4.30078C28.3332 4.30078 29.1998 4.60081 29.7998 5.20081C30.3998 5.73414 30.7331 6.46748 30.7998 7.40082V11.8008C30.7998 12.6674 30.8998 13.3675 31.0998 13.9008V14.0008ZM26.6998 12.7008C27.2332 12.7008 27.7332 12.5674 28.1998 12.3008C28.5998 12.0341 28.9332 11.7008 29.1998 11.3008V9.40082H27.8998C25.8998 9.40082 24.8998 9.96744 24.8998 11.1008C24.8998 11.6341 25.0665 12.0341 25.3998 12.3008C25.7331 12.5674 26.1665 12.7008 26.6998 12.7008ZM38.3998 2.20081H39.9998V4.50079H41.7998V5.70081H39.9998V11.6008C39.9998 12.0008 40.0665 12.3008 40.1998 12.5008C40.3998 12.7008 40.6665 12.8008 40.9998 12.8008C41.1998 12.8008 41.4665 12.7675 41.7998 12.7008V14.0008C41.3998 14.0675 40.9998 14.1008 40.5998 14.1008C39.8665 14.1008 39.2998 13.9008 38.8998 13.5008C38.5665 13.0341 38.3998 12.4008 38.3998 11.6008V5.70081H36.5998V4.50079H38.3998V2.20081ZM45.3998 4.50079V14.0008H43.7998V4.50079H45.3998ZM43.5998 1.90082C43.5998 1.63415 43.6998 1.43411 43.8998 1.30078C44.0331 1.10078 44.2665 1.00079 44.5998 1.00079C44.9332 1.00079 45.1665 1.10078 45.2998 1.30078C45.4998 1.43411 45.5998 1.63415 45.5998 1.90082C45.5998 2.16748 45.4998 2.40077 45.2998 2.60077C45.1665 2.80077 44.9332 2.90082 44.5998 2.90082C44.2665 2.90082 44.0331 2.80077 43.8998 2.60077C43.6998 2.40077 43.5998 2.16748 43.5998 1.90082ZM49.7998 0.500793V14.0008H48.0998V0.500793H49.7998ZM54.1998 4.50079V14.0008H52.5998V4.50079H54.1998ZM52.3998 1.90082C52.3998 1.63415 52.4998 1.43411 52.6998 1.30078C52.8332 1.10078 53.0665 1.00079 53.3998 1.00079C53.7331 1.00079 53.9665 1.10078 54.0998 1.30078C54.2998 1.43411 54.3998 1.63415 54.3998 1.90082C54.3998 2.16748 54.2998 2.40077 54.0998 2.60077C53.9665 2.80077 53.7331 2.90082 53.3998 2.90082C53.0665 2.90082 52.8332 2.80077 52.6998 2.60077C52.4998 2.40077 52.3998 2.16748 52.3998 1.90082ZM62.2998 11.4008C62.2998 11.0008 62.1331 10.6675 61.7998 10.4008C61.4665 10.2008 60.8998 10.0008 60.0998 9.80078C59.2998 9.60078 58.6332 9.40081 58.0998 9.20081C57.6332 8.93414 57.2998 8.63411 57.0998 8.30078C56.8332 7.96745 56.6998 7.56744 56.6998 7.10077C56.6998 6.30077 57.0332 5.6341 57.6998 5.10077C58.3665 4.56744 59.1998 4.30078 60.1998 4.30078C61.3332 4.30078 62.2331 4.56744 62.8998 5.10077C63.5665 5.70077 63.8998 6.43411 63.8998 7.30078H62.1998C62.1998 6.83411 62.0332 6.4341 61.6998 6.10077C61.2998 5.76744 60.7998 5.60077 60.1998 5.60077C59.5998 5.60077 59.1331 5.73413 58.7998 6.00079C58.4665 6.26746 58.2998 6.60079 58.2998 7.00079C58.2998 7.40079 58.4665 7.70082 58.7998 7.90082C59.1331 8.10082 59.6998 8.30079 60.4998 8.50079C61.2998 8.70079 61.9665 8.90077 62.4998 9.10077C62.9665 9.36744 63.3332 9.66746 63.5998 10.0008C63.8665 10.4008 63.9998 10.8341 63.9998 11.3008C63.9998 12.1674 63.6331 12.8675 62.8998 13.4008C62.2331 13.8675 61.3665 14.1008 60.2998 14.1008C59.4998 14.1008 58.8331 13.9675 58.2998 13.7008C57.6998 13.4341 57.2331 13.0674 56.8998 12.6008C56.5665 12.1341 56.3998 11.6008 56.3998 11.0008H57.9998C58.0665 11.6008 58.2998 12.0341 58.6998 12.3008C59.0998 12.6341 59.6331 12.8008 60.2998 12.8008C60.8998 12.8008 61.3998 12.7008 61.7998 12.5008C62.1331 12.2341 62.2998 11.8675 62.2998 11.4008ZM67.7998 4.50079V14.0008H66.1998V4.50079H67.7998ZM66.0998 1.90082C66.0998 1.63415 66.1665 1.43411 66.2998 1.30078C66.4331 1.10078 66.6665 1.00079 66.9998 1.00079C67.3332 1.00079 67.5665 1.10078 67.6998 1.30078C67.8998 1.43411 67.9998 1.63415 67.9998 1.90082C67.9998 2.16748 67.8998 2.40077 67.6998 2.60077C67.5665 2.80077 67.3332 2.90082 66.9998 2.90082C66.6665 2.90082 66.4331 2.80077 66.2998 2.60077C66.1665 2.40077 66.0998 2.16748 66.0998 1.90082ZM76.5998 4.50079V14.0008H74.9998V4.50079H76.5998ZM74.8998 1.90082C74.8998 1.63415 74.9665 1.43411 75.0998 1.30078C75.2332 1.10078 75.4665 1.00079 75.7998 1.00079C76.1331 1.00079 76.3665 1.10078 76.4998 1.30078C76.6998 1.43411 76.7998 1.63415 76.7998 1.90082C76.7998 2.16748 76.6998 2.40077 76.4998 2.60077C76.3665 2.80077 76.1331 2.90082 75.7998 2.90082C75.4665 2.90082 75.2332 2.80077 75.0998 2.60077C74.9665 2.40077 74.8998 2.16748 74.8998 1.90082ZM79.1998 4.50079H80.7998V5.70081C81.5331 4.76747 82.4998 4.30078 83.6998 4.30078C85.6998 4.30078 86.6998 5.43414 86.6998 7.70081V14.0008H85.0998V7.70081C85.0998 7.03414 84.9332 6.53414 84.5998 6.20081C84.2665 5.86747 83.7998 5.70081 83.1998 5.70081C82.6665 5.70081 82.1998 5.8341 81.7998 6.10077C81.3998 6.36744 81.0665 6.73414 80.7998 7.20081V14.0008H79.1998V4.50079ZM88.7998 9.10077C88.7998 7.6341 89.1331 6.46744 89.7998 5.60077C90.4665 4.7341 91.3665 4.30078 92.4998 4.30078C93.6998 4.30078 94.5998 4.70079 95.1998 5.50079L95.2998 4.50079H96.7998V13.8008C96.7998 15.0008 96.4332 15.9675 95.6998 16.7008C94.9665 17.3675 93.9998 17.7008 92.7998 17.7008C92.0665 17.7008 91.3665 17.5674 90.6998 17.3008C90.0998 16.9674 89.5998 16.5674 89.1998 16.1008L90.0998 15.1008C90.7665 15.9674 91.5998 16.4008 92.5998 16.4008C93.3998 16.4008 94.0332 16.1675 94.4998 15.7008C94.9665 15.3008 95.1998 14.6674 95.1998 13.8008V13.0008C94.5332 13.8008 93.6332 14.2008 92.4998 14.2008C91.3665 14.2008 90.4665 13.7341 89.7998 12.8008C89.1331 11.9341 88.7998 10.7008 88.7998 9.10077ZM90.3998 9.30078C90.3998 10.3674 90.6332 11.2342 91.0998 11.9008C91.4998 12.5008 92.0998 12.8008 92.8998 12.8008C93.8998 12.8008 94.6665 12.3342 95.1998 11.4008V7.00079C94.6665 6.13413 93.8998 5.70081 92.8998 5.70081C92.0998 5.70081 91.4998 6.00077 91.0998 6.60077C90.6332 7.20077 90.3998 8.10078 90.3998 9.30078ZM101 0.500793V14.0008H99.3998V0.500793H101ZM105.4 4.50079V14.0008H103.7V4.50079H105.4ZM103.7 1.90082C103.7 1.70082 103.766 1.50078 103.9 1.30078C104.1 1.10078 104.333 1.00079 104.6 1.00079C104.933 1.00079 105.166 1.10078 105.3 1.30078C105.5 1.50078 105.6 1.70082 105.6 1.90082C105.6 2.16748 105.5 2.40077 105.3 2.60077C105.166 2.80077 104.933 2.90082 104.6 2.90082C104.333 2.90082 104.1 2.80077 103.9 2.60077C103.766 2.40077 103.7 2.16748 103.7 1.90082ZM114.9 5.60077L109.6 12.7008H115.1V14.0008H107.6V12.8008L112.8 5.80078H107.6V4.50079H114.9V5.60077ZM129.5 9.10077V9.30078C129.5 10.7674 129.166 11.9341 128.5 12.8008C127.833 13.6674 126.933 14.1008 125.8 14.1008C124.6 14.1008 123.666 13.6674 123 12.8008L122.9 13.9008H121.4V0.400818H123V5.50079C123.666 4.63413 124.566 4.20081 125.7 4.20081C126.9 4.20081 127.833 4.66744 128.5 5.60077C129.166 6.46744 129.5 7.6341 129.5 9.10077ZM127.8 9.10077C127.8 7.96744 127.6 7.10079 127.2 6.50079C126.733 5.90079 126.1 5.60077 125.3 5.60077C124.233 5.60077 123.466 6.10077 123 7.10077V11.2008C123.533 12.2008 124.333 12.7008 125.4 12.7008C126.133 12.7008 126.733 12.4008 127.2 11.8008C127.6 11.2008 127.8 10.3008 127.8 9.10077ZM131.1 9.20081V9.10077C131.1 8.16744 131.266 7.3341 131.6 6.60077C132 5.86744 132.5 5.30082 133.1 4.90082C133.766 4.43415 134.533 4.20081 135.4 4.20081C136.666 4.20081 137.7 4.66744 138.5 5.60077C139.3 6.46744 139.7 7.66747 139.7 9.20081V9.30078C139.7 10.2341 139.533 11.0674 139.2 11.8008C138.866 12.5341 138.366 13.1008 137.7 13.5008C137.033 13.9008 136.266 14.1008 135.4 14.1008C134.133 14.1008 133.1 13.6674 132.3 12.8008C131.5 11.8674 131.1 10.6675 131.1 9.20081ZM132.7 9.30078C132.7 10.3674 132.933 11.2008 133.4 11.8008C133.933 12.4674 134.6 12.8008 135.4 12.8008C136.2 12.8008 136.867 12.4674 137.4 11.8008C137.867 11.1341 138.1 10.2341 138.1 9.10077C138.1 8.0341 137.867 7.20077 137.4 6.60077C136.867 5.9341 136.2 5.60077 135.4 5.60077C134.6 5.60077 133.933 5.90079 133.4 6.50079C132.933 7.16746 132.7 8.10078 132.7 9.30078ZM141.6 0.400818V1.40082L141.4 4.60077H140.2L140.3 0.400818H141.6ZM145.5 0.400818V13.9008H143.8V0.400818H145.5ZM147.8 9.10077C147.8 7.6341 148.133 6.46744 148.8 5.60077C149.466 4.66744 150.366 4.20081 151.5 4.20081C152.633 4.20081 153.533 4.63413 154.2 5.50079L154.3 4.40082H155.8V13.7008C155.8 14.9008 155.433 15.8674 154.7 16.6008C153.966 17.3341 153 17.7008 151.8 17.7008C151.066 17.7008 150.366 17.5341 149.7 17.2008C149.1 16.9341 148.6 16.5341 148.2 16.0008L149.1 15.1008C149.766 15.9008 150.6 16.3008 151.6 16.3008C152.4 16.3008 153.033 16.1008 153.5 15.7008C153.966 15.2341 154.2 14.6008 154.2 13.8008V13.0008C153.533 13.7341 152.633 14.1008 151.5 14.1008C150.366 14.1008 149.466 13.6674 148.8 12.8008C148.133 11.8674 147.8 10.6341 147.8 9.10077ZM149.4 9.30078C149.4 10.3674 149.633 11.2008 150.1 11.8008C150.5 12.4008 151.1 12.7008 151.9 12.7008C152.9 12.7008 153.666 12.2341 154.2 11.3008V7.00079C153.666 6.06746 152.9 5.60077 151.9 5.60077C151.1 5.60077 150.5 5.90079 150.1 6.50079C149.633 7.16746 149.4 8.10078 149.4 9.30078ZM165.8 13.9008H164.1C164.033 13.7008 163.967 13.3675 163.9 12.9008C163.167 13.7008 162.266 14.1008 161.2 14.1008C160.266 14.1008 159.5 13.8341 158.9 13.3008C158.3 12.7674 158 12.1008 158 11.3008C158 10.3008 158.366 9.53413 159.1 9.00079C159.833 8.46746 160.9 8.20081 162.3 8.20081H163.9V7.40082C163.9 6.86748 163.7 6.4341 163.3 6.10077C162.966 5.76744 162.466 5.60077 161.8 5.60077C161.266 5.60077 160.8 5.73413 160.4 6.00079C160 6.26746 159.8 6.6341 159.8 7.10077H158.2C158.2 6.56744 158.366 6.10081 158.7 5.70081C159.033 5.23414 159.466 4.86744 160 4.60077C160.6 4.3341 161.233 4.20081 161.9 4.20081C163.033 4.20081 163.9 4.50077 164.5 5.10077C165.1 5.6341 165.433 6.36745 165.5 7.30078V11.7008C165.5 12.5675 165.6 13.2674 165.8 13.8008V13.9008ZM161.4 12.7008C161.933 12.7008 162.433 12.5674 162.9 12.3008C163.367 12.0341 163.7 11.6675 163.9 11.2008V9.30078H162.6C160.6 9.30078 159.6 9.86746 159.6 11.0008C159.6 11.5341 159.766 11.9341 160.1 12.2008C160.433 12.5341 160.867 12.7008 161.4 12.7008ZM168 4.40082H169.6V5.60077C170.333 4.66744 171.3 4.20081 172.5 4.20081C174.5 4.20081 175.5 5.3341 175.5 7.60077V13.9008H173.9V7.60077C173.9 6.9341 173.733 6.4341 173.4 6.10077C173.133 5.76744 172.666 5.60077 172 5.60077C171.466 5.60077 171 5.73413 170.6 6.00079C170.2 6.26746 169.9 6.6341 169.7 7.10077V13.9008H168V4.40082ZM188.3 13.9008V13.0008C187.633 13.7341 186.7 14.1008 185.5 14.1008C184.5 14.1008 183.733 13.8008 183.2 13.2008C182.666 12.6008 182.4 11.7341 182.4 10.6008V4.40082H184V10.5008C184 11.9675 184.6 12.7008 185.8 12.7008C187 12.7008 187.8 12.2341 188.2 11.3008V4.40082H189.9V13.9008H188.3ZM197.8 11.4008C197.8 10.9342 197.633 10.6008 197.3 10.4008C196.966 10.1342 196.4 9.90081 195.6 9.70081C194.8 9.56747 194.133 9.36744 193.6 9.10077C193.133 8.8341 192.8 8.53414 192.6 8.20081C192.333 7.86747 192.2 7.46746 192.2 7.00079C192.2 6.20079 192.533 5.53413 193.2 5.00079C193.866 4.46746 194.7 4.20081 195.7 4.20081C196.833 4.20081 197.733 4.46746 198.4 5.00079C199.067 5.60079 199.4 6.33414 199.4 7.20081H197.7C197.7 6.73414 197.533 6.33413 197.2 6.00079C196.8 5.66746 196.3 5.50079 195.7 5.50079C195.1 5.50079 194.633 5.63415 194.3 5.90082C193.966 6.16748 193.8 6.50082 193.8 6.90082C193.8 7.30082 193.966 7.60078 194.3 7.80078C194.633 8.00078 195.2 8.20082 196 8.40082C196.8 8.60082 197.466 8.8341 198 9.10077C198.466 9.30077 198.833 9.60079 199.1 10.0008C199.366 10.3341 199.5 10.7674 199.5 11.3008C199.5 12.1008 199.133 12.7674 198.4 13.3008C197.733 13.8341 196.866 14.1008 195.8 14.1008C195 14.1008 194.333 13.9675 193.8 13.7008C193.2 13.4341 192.733 13.0341 192.4 12.5008C192.067 12.0341 191.9 11.5341 191.9 11.0008H193.5C193.566 11.5341 193.8 11.9674 194.2 12.3008C194.6 12.5674 195.133 12.7008 195.8 12.7008C196.4 12.7008 196.9 12.6008 197.3 12.4008C197.633 12.1342 197.8 11.8008 197.8 11.4008ZM202.2 2.10077H203.8V4.40082H205.6V5.60077H203.8V11.5008C203.8 11.9008 203.866 12.2008 204 12.4008C204.2 12.6008 204.466 12.7008 204.8 12.7008C205 12.7008 205.266 12.6674 205.6 12.6008V13.9008C205.2 14.0342 204.766 14.1008 204.3 14.1008C203.633 14.1008 203.1 13.8675 202.7 13.4008C202.366 13.0008 202.2 12.3675 202.2 11.5008V5.60077H200.4V4.40082H202.2V2.10077ZM206.8 9.20081V9.10077C206.8 8.16744 207 7.30079 207.4 6.50079C207.733 5.76746 208.233 5.20078 208.9 4.80078C209.567 4.40078 210.333 4.20081 211.2 4.20081C212.466 4.20081 213.5 4.66744 214.3 5.60077C215.1 6.46744 215.5 7.6341 215.5 9.10077V9.30078C215.5 10.1674 215.333 10.9675 215 11.7008C214.6 12.4341 214.067 13.0341 213.4 13.5008C212.8 13.9008 212.066 14.1008 211.2 14.1008C209.866 14.1008 208.8 13.6341 208 12.7008C207.2 11.8341 206.8 10.6675 206.8 9.20081ZM208.5 9.30078C208.5 10.3008 208.733 11.1341 209.2 11.8008C209.666 12.4674 210.333 12.8008 211.2 12.8008C212 12.8008 212.633 12.4674 213.1 11.8008C213.633 11.1341 213.9 10.2341 213.9 9.10077C213.9 8.0341 213.633 7.16746 213.1 6.50079C212.633 5.90079 212 5.60077 211.2 5.60077C210.4 5.60077 209.733 5.90079 209.2 6.50079C208.733 7.16746 208.5 8.10078 208.5 9.30078ZM224.2 5.50079L218.9 12.6008H224.5V13.9008H216.9V12.7008L222.2 5.70081H217V4.40082H224.2V5.50079ZM228.1 0.400818V13.9008H226.5V0.400818H228.1ZM238.2 13.9008H236.5C236.433 13.7008 236.366 13.3341 236.3 12.8008C235.566 13.6008 234.666 14.0008 233.6 14.0008C232.666 14.0008 231.9 13.7341 231.3 13.2008C230.7 12.6675 230.4 12.0008 230.4 11.2008C230.4 10.2008 230.766 9.43415 231.5 8.90082C232.233 8.36748 233.3 8.10077 234.7 8.10077H236.3V7.30078C236.3 6.76745 236.133 6.33413 235.8 6.00079C235.466 5.66746 234.966 5.50079 234.3 5.50079C233.7 5.50079 233.2 5.63415 232.8 5.90082C232.4 6.23415 232.2 6.60079 232.2 7.00079H230.6C230.6 6.53413 230.766 6.06744 231.1 5.60077C231.433 5.1341 231.9 4.80077 232.5 4.60077C233.033 4.3341 233.667 4.20081 234.4 4.20081C235.467 4.20081 236.3 4.46746 236.9 5.00079C237.567 5.53413 237.9 6.30078 237.9 7.30078V11.6008C237.9 12.4674 238 13.1675 238.2 13.7008V13.9008ZM233.8 12.7008C234.333 12.7008 234.833 12.5674 235.3 12.3008C235.766 12.0341 236.1 11.6675 236.3 11.2008V9.30078H235C233 9.30078 232 9.86746 232 11.0008C232 11.5341 232.166 11.9341 232.5 12.2008C232.833 12.5341 233.266 12.7008 233.8 12.7008ZM245.1 4.30078V5.90082C244.833 5.83415 244.566 5.80078 244.3 5.80078C243.233 5.80078 242.5 6.26747 242.1 7.20081V13.9008H240.5V4.40082H242L242.1 5.50079C242.633 4.63413 243.366 4.20081 244.3 4.20081C244.633 4.20081 244.9 4.23411 245.1 4.30078ZM248.3 4.40082V13.9008H246.7V4.40082H248.3ZM246.5 1.90082C246.5 1.63415 246.6 1.40081 246.8 1.20081C246.933 1.00081 247.166 0.900818 247.5 0.900818C247.833 0.900818 248.066 1.00081 248.2 1.20081C248.4 1.40081 248.5 1.63415 248.5 1.90082C248.5 2.16748 248.4 2.36746 248.2 2.50079C248.066 2.70079 247.833 2.80078 247.5 2.80078C247.166 2.80078 246.933 2.70079 246.8 2.50079C246.6 2.36746 246.5 2.16748 246.5 1.90082ZM250.9 4.40082H252.4L252.5 5.50079C253.166 4.63413 254.1 4.20081 255.3 4.20081C256.633 4.20081 257.533 4.73411 258 5.80078C258.333 5.33411 258.733 4.9341 259.2 4.60077C259.733 4.3341 260.333 4.20081 261 4.20081C263.133 4.20081 264.2 5.30079 264.2 7.50079V13.9008H262.6V7.60077C262.6 6.9341 262.433 6.4341 262.1 6.10077C261.833 5.76744 261.333 5.60077 260.6 5.60077C260 5.60077 259.5 5.76744 259.1 6.10077C258.7 6.50077 258.467 7.00077 258.4 7.60077V13.9008H256.7V7.70081C256.7 6.30081 256.033 5.60077 254.7 5.60077C253.633 5.60077 252.9 6.06746 252.5 7.00079V13.9008H250.9V4.40082ZM268.4 4.40082V13.9008H266.8V4.40082H268.4ZM266.6 1.90082C266.6 1.63415 266.7 1.40081 266.9 1.20081C267.033 1.00081 267.266 0.900818 267.6 0.900818C267.933 0.900818 268.166 1.00081 268.3 1.20081C268.5 1.40081 268.6 1.63415 268.6 1.90082C268.6 2.16748 268.5 2.36746 268.3 2.50079C268.166 2.70079 267.933 2.80078 267.6 2.80078C267.266 2.80078 267.033 2.70079 266.9 2.50079C266.7 2.36746 266.6 2.16748 266.6 1.90082ZM277.8 5.60077L272.5 12.6008H278.1V13.9008H270.5V12.7008L275.8 5.80078H270.6V4.40082H277.8V5.60077ZM279.4 9.30078V9.10077C279.4 7.6341 279.733 6.46744 280.4 5.60077C281.133 4.7341 282.033 4.30078 283.1 4.30078C284.233 4.30078 285.133 4.66748 285.8 5.40082V0.500793H287.4V14.0008H285.9L285.8 12.9008C285.2 13.7008 284.3 14.1008 283.1 14.1008C282.033 14.1008 281.133 13.6674 280.4 12.8008C279.733 11.8674 279.4 10.7008 279.4 9.30078ZM281 9.30078C281 10.3674 281.233 11.2342 281.7 11.9008C282.166 12.5008 282.766 12.8008 283.5 12.8008C284.566 12.8008 285.333 12.3342 285.8 11.4008V7.00079C285.333 6.13413 284.566 5.70081 283.5 5.70081C282.766 5.70081 282.166 6.00077 281.7 6.60077C281.233 7.20077 281 8.10078 281 9.30078ZM297.5 14.0008H295.8C295.733 13.8008 295.666 13.4675 295.6 13.0008C294.8 13.7341 293.9 14.1008 292.9 14.1008C291.967 14.1008 291.2 13.8675 290.6 13.4008C290 12.8675 289.7 12.1674 289.7 11.3008C289.7 10.3008 290.066 9.53413 290.8 9.00079C291.533 8.46746 292.6 8.20081 294 8.20081H295.6V7.50079C295.6 6.90079 295.4 6.4341 295 6.10077C294.666 5.76744 294.166 5.60077 293.5 5.60077C292.966 5.60077 292.5 5.73413 292.1 6.00079C291.7 6.33413 291.5 6.70077 291.5 7.10077H289.9C289.9 6.6341 290.067 6.16747 290.4 5.70081C290.733 5.30081 291.166 4.96747 291.7 4.70081C292.3 4.43414 292.933 4.30078 293.6 4.30078C294.733 4.30078 295.6 4.56744 296.2 5.10077C296.8 5.6341 297.133 6.40082 297.2 7.40082V11.7008C297.2 12.6341 297.3 13.3341 297.5 13.8008V14.0008ZM293.1 12.8008C293.633 12.8008 294.133 12.6675 294.6 12.4008C295 12.1342 295.333 11.8008 295.6 11.4008V9.40082H294.3C292.3 9.40082 291.3 10.0008 291.3 11.2008C291.3 11.6675 291.466 12.0675 291.8 12.4008C292.133 12.6675 292.566 12.8008 293.1 12.8008ZM299.7 4.50079H301.3V5.70081C302.033 4.76747 303 4.30078 304.2 4.30078C306.2 4.30078 307.2 5.43414 307.2 7.70081V14.0008H305.6V7.70081C305.6 7.03414 305.433 6.53414 305.1 6.20081C304.833 5.86747 304.366 5.70081 303.7 5.70081C303.166 5.70081 302.7 5.8341 302.3 6.10077C301.9 6.4341 301.6 6.83411 301.4 7.30078V14.0008H299.7V4.50079ZM320.1 14.0008L316.8 9.60077L315.8 10.7008V14.0008H314.1V0.500793H315.8V8.70081L316.6 7.70081L319.6 4.50079H321.6L317.9 8.50079L322 14.0008H320.1ZM329.2 14.0008L329.1 13.1008C328.5 13.8341 327.566 14.2008 326.3 14.2008C325.3 14.2008 324.533 13.9008 324 13.3008C323.466 12.7008 323.2 11.8341 323.2 10.7008V4.50079H324.8V10.7008C324.8 12.1008 325.4 12.8008 326.6 12.8008C327.866 12.8008 328.7 12.3342 329.1 11.4008V4.50079H330.7V14.0008H329.2ZM337 12.9008C337.6 12.9008 338.133 12.7342 338.6 12.4008C339 12.0008 339.233 11.5341 339.3 11.0008H340.8C340.8 11.6008 340.6 12.1341 340.2 12.6008C339.866 13.0674 339.433 13.4674 338.9 13.8008C338.3 14.0674 337.666 14.2008 337 14.2008C335.733 14.2008 334.7 13.7675 333.9 12.9008C333.167 12.0342 332.8 10.8675 332.8 9.40082V9.10077C332.8 8.16744 332.966 7.3341 333.3 6.60077C333.633 5.86744 334.133 5.30082 334.8 4.90082C335.4 4.56748 336.133 4.40082 337 4.40082C338.066 4.40082 338.966 4.70078 339.7 5.30078C340.366 5.96745 340.733 6.80078 340.8 7.80078H339.3C339.233 7.20078 339 6.70078 338.6 6.30078C338.133 5.90078 337.6 5.70081 337 5.70081C336.2 5.70081 335.566 6.00077 335.1 6.60077C334.633 7.20077 334.4 8.06747 334.4 9.20081V9.50079C334.4 10.5675 334.633 11.4008 335.1 12.0008C335.566 12.6008 336.2 12.9008 337 12.9008ZM344.3 0.500793V5.70081C344.966 4.83414 345.9 4.40082 347.1 4.40082C349.1 4.40082 350.1 5.53411 350.1 7.80078V14.0008H348.5V7.70081C348.5 7.03414 348.333 6.53414 348 6.20081C347.733 5.86747 347.266 5.70081 346.6 5.70081C346.066 5.70081 345.6 5.86747 345.2 6.20081C344.8 6.46747 344.5 6.83411 344.3 7.30078V14.0008H342.6V0.500793H344.3ZM354.4 0.500793V14.0008H352.8V0.500793H354.4ZM358.7 4.50079V14.0008H357.1V4.50079H358.7ZM357 2.00079C357 1.73413 357.066 1.50078 357.2 1.30078C357.333 1.16745 357.567 1.10077 357.9 1.10077C358.233 1.10077 358.466 1.16745 358.6 1.30078C358.8 1.50078 358.9 1.73413 358.9 2.00079C358.9 2.26746 358.8 2.50081 358.6 2.70081C358.466 2.83414 358.233 2.90082 357.9 2.90082C357.567 2.90082 357.333 2.83414 357.2 2.70081C357.066 2.50081 357 2.26746 357 2.00079ZM373.8 9.20081V9.40082C373.8 10.8675 373.466 12.0342 372.8 12.9008C372.133 13.7675 371.233 14.2008 370.1 14.2008C368.966 14.2008 368.067 13.8341 367.4 13.1008V17.7008H365.8V4.50079H367.3V5.60077C367.966 4.80077 368.9 4.40082 370.1 4.40082C371.233 4.40082 372.133 4.80077 372.8 5.60077C373.466 6.46744 373.8 7.66747 373.8 9.20081ZM372.2 9.20081C372.2 8.13414 371.966 7.30081 371.5 6.70081C371.033 6.03414 370.4 5.70081 369.6 5.70081C368.6 5.70081 367.867 6.13413 367.4 7.00079V11.6008C367.867 12.4674 368.6 12.9008 369.6 12.9008C370.4 12.9008 371.033 12.6008 371.5 12.0008C371.966 11.3341 372.2 10.4008 372.2 9.20081ZM377.6 0.500793V14.0008H376V0.500793H377.6ZM387.8 14.0008H386.1C385.966 13.8675 385.9 13.5341 385.9 13.0008C385.1 13.8008 384.166 14.2008 383.1 14.2008C382.166 14.2008 381.4 13.9342 380.8 13.4008C380.2 12.8675 379.9 12.2008 379.9 11.4008C379.9 10.4008 380.3 9.6341 381.1 9.10077C381.833 8.56744 382.866 8.30078 384.2 8.30078H385.8V7.50079C385.8 6.96746 385.633 6.53414 385.3 6.20081C384.966 5.86747 384.466 5.70081 383.8 5.70081C383.2 5.70081 382.733 5.8341 382.4 6.10077C382 6.36744 381.8 6.73414 381.8 7.20081H380.1C380.1 6.73414 380.266 6.26745 380.6 5.80078C380.933 5.33411 381.4 4.96747 382 4.70081C382.6 4.50081 383.233 4.40082 383.9 4.40082C385.033 4.40082 385.9 4.66747 386.5 5.20081C387.1 5.73414 387.4 6.46748 387.4 7.40082V11.8008C387.4 12.6674 387.533 13.3675 387.8 13.9008V14.0008ZM383.4 12.8008C383.867 12.8008 384.333 12.6675 384.8 12.4008C385.266 12.1342 385.6 11.7674 385.8 11.3008V9.40082H384.5C382.566 9.40082 381.6 9.96744 381.6 11.1008C381.6 11.6341 381.766 12.0341 382.1 12.3008C382.433 12.6341 382.867 12.8008 383.4 12.8008ZM390.6 2.20081H392.2V4.50079H394V5.70081H392.2V11.6008C392.2 12.0008 392.267 12.3008 392.4 12.5008C392.6 12.7008 392.9 12.8008 393.3 12.8008C393.433 12.8008 393.666 12.7675 394 12.7008V14.0008C393.6 14.1341 393.2 14.2008 392.8 14.2008C392.066 14.2008 391.5 13.9675 391.1 13.5008C390.766 13.1008 390.6 12.4674 390.6 11.6008V5.70081H388.8V4.50079H390.6V2.20081ZM398.3 14.0008H396.7V5.70081H395.2V4.50079H396.7V3.50079C396.7 2.50079 396.966 1.73414 397.5 1.20081C398.033 0.600806 398.8 0.300781 399.8 0.300781C400.2 0.300781 400.567 0.36746 400.9 0.500793L400.8 1.80078C400.533 1.73411 400.266 1.70081 400 1.70081C399.466 1.70081 399.033 1.86747 398.7 2.20081C398.433 2.46747 398.3 2.90079 398.3 3.50079V4.50079H400.3V5.70081H398.3V14.0008ZM401.7 9.30078V9.20081C401.7 8.26747 401.866 7.43414 402.2 6.70081C402.6 5.96747 403.133 5.40079 403.8 5.00079C404.466 4.60079 405.2 4.40082 406 4.40082C407.333 4.40082 408.4 4.83414 409.2 5.70081C410 6.63414 410.4 7.83411 410.4 9.30078V9.40082C410.4 10.3342 410.2 11.1675 409.8 11.9008C409.466 12.6342 408.966 13.2008 408.3 13.6008C407.633 14.0008 406.866 14.2008 406 14.2008C404.733 14.2008 403.7 13.7675 402.9 12.9008C402.1 11.9675 401.7 10.7674 401.7 9.30078ZM403.3 9.40082C403.3 10.4675 403.566 11.3008 404.1 11.9008C404.566 12.5675 405.2 12.9008 406 12.9008C406.866 12.9008 407.533 12.5675 408 11.9008C408.466 11.3008 408.7 10.4008 408.7 9.20081C408.7 8.13414 408.466 7.30081 408 6.70081C407.466 6.03414 406.8 5.70081 406 5.70081C405.2 5.70081 404.566 6.03414 404.1 6.70081C403.566 7.30081 403.3 8.20082 403.3 9.40082ZM417 4.50079V6.00079C416.733 5.93413 416.466 5.90082 416.2 5.90082C415.133 5.90082 414.4 6.36745 414 7.30078V14.0008H412.4V4.50079H414V5.60077C414.533 4.80077 415.3 4.40082 416.3 4.40082C416.566 4.40082 416.8 4.43413 417 4.50079ZM418.5 4.50079H420L420.1 5.60077C420.766 4.80077 421.7 4.40082 422.9 4.40082C424.233 4.40082 425.133 4.90082 425.6 5.90082C425.933 5.43415 426.333 5.06745 426.8 4.80078C427.333 4.53411 427.933 4.40082 428.6 4.40082C430.733 4.40082 431.8 5.50081 431.8 7.70081V14.0008H430.2V7.80078C430.2 7.13411 430.033 6.63411 429.7 6.30078C429.433 5.90078 428.933 5.70081 428.2 5.70081C427.533 5.70081 427 5.90078 426.6 6.30078C426.266 6.63411 426.066 7.10081 426 7.70081V14.0008H424.3V7.80078C424.3 6.40078 423.633 5.70081 422.3 5.70081C421.233 5.70081 420.5 6.16744 420.1 7.10077V14.0008H418.5V4.50079ZM441.8 14.1008H440.1C440.033 13.9008 439.967 13.5674 439.9 13.1008C439.167 13.8341 438.266 14.2008 437.2 14.2008C436.266 14.2008 435.5 13.9342 434.9 13.4008C434.3 12.8675 434 12.2008 434 11.4008C434 10.4008 434.366 9.6341 435.1 9.10077C435.833 8.56744 436.9 8.30078 438.3 8.30078H439.9V7.50079C439.9 6.96746 439.733 6.53414 439.4 6.20081C439.067 5.86747 438.567 5.70081 437.9 5.70081C437.3 5.70081 436.8 5.8341 436.4 6.10077C436 6.4341 435.8 6.80081 435.8 7.20081H434.2C434.2 6.73414 434.366 6.26745 434.7 5.80078C435.033 5.33411 435.5 5.00078 436.1 4.80078C436.633 4.53411 437.266 4.40082 438 4.40082C439.066 4.40082 439.9 4.66747 440.5 5.20081C441.166 5.73414 441.5 6.50079 441.5 7.50079V11.8008C441.5 12.6674 441.6 13.3675 441.8 13.9008V14.1008ZM437.4 12.9008C437.933 12.9008 438.433 12.7675 438.9 12.5008C439.367 12.2341 439.7 11.9008 439.9 11.5008V9.50079H438.6C436.6 9.50079 435.6 10.1008 435.6 11.3008C435.6 11.7674 435.766 12.1342 436.1 12.4008C436.433 12.7342 436.867 12.9008 437.4 12.9008ZM450.1 0.600769V5.80078C450.833 4.86745 451.767 4.40082 452.9 4.40082C454.967 4.40082 456 5.53411 456 7.80078V14.1008H454.4V7.80078C454.4 7.13411 454.233 6.63411 453.9 6.30078C453.567 5.96745 453.1 5.80078 452.5 5.80078C451.966 5.80078 451.5 5.93414 451.1 6.20081C450.7 6.53414 450.366 6.90078 450.1 7.30078V14.1008H448.5V0.600769H450.1ZM466 14.1008H464.3C464.166 13.9008 464.066 13.5674 464 13.1008C463.266 13.9008 462.366 14.3008 461.3 14.3008C460.366 14.3008 459.6 14.0341 459 13.5008C458.4 12.9675 458.1 12.3008 458.1 11.5008C458.1 10.5008 458.466 9.73414 459.2 9.20081C460 8.66747 461.067 8.40082 462.4 8.40082H464V7.60077C464 7.06744 463.833 6.60081 463.5 6.20081C463.166 5.86747 462.666 5.70081 462 5.70081C461.4 5.70081 460.9 5.86747 460.5 6.20081C460.166 6.46747 460 6.80081 460 7.20081H458.3C458.3 6.73414 458.466 6.30082 458.8 5.90082C459.133 5.43415 459.6 5.06745 460.2 4.80078C460.8 4.53411 461.433 4.40082 462.1 4.40082C463.166 4.40082 464.033 4.70078 464.7 5.30078C465.3 5.83411 465.6 6.56746 465.6 7.50079V11.9008C465.6 12.7675 465.733 13.4675 466 14.0008V14.1008ZM461.6 12.8008C462.066 12.8008 462.533 12.6675 463 12.4008C463.466 12.1342 463.8 11.8008 464 11.4008V9.50079H462.7C460.7 9.50079 459.7 10.0675 459.7 11.2008C459.7 11.7341 459.9 12.1342 460.3 12.4008C460.633 12.6675 461.066 12.8008 461.6 12.8008ZM468.2 4.60077H469.7L469.8 5.60077C470.466 4.80077 471.4 4.40082 472.6 4.40082C473.933 4.40082 474.833 4.90082 475.3 5.90082C475.633 5.43415 476.033 5.06745 476.5 4.80078C477.033 4.53411 477.633 4.40082 478.3 4.40082C480.433 4.40082 481.5 5.50081 481.5 7.70081V14.1008H479.9V7.80078C479.9 7.13411 479.733 6.63411 479.4 6.30078C479.133 5.96745 478.633 5.80078 477.9 5.80078C477.233 5.80078 476.733 5.96745 476.4 6.30078C476 6.70078 475.766 7.20078 475.7 7.80078V14.1008H474V7.80078C474 6.46745 473.333 5.80078 472 5.80078C470.933 5.80078 470.2 6.2341 469.8 7.10077V14.1008H468.2V4.60077ZM483.6 9.40082V9.30078C483.6 7.83411 483.933 6.63414 484.6 5.70081C485.266 4.83414 486.166 4.40082 487.3 4.40082C488.433 4.40082 489.333 4.76746 490 5.50079V0.600769H491.6V14.1008H490.1L490 13.1008C489.333 13.9008 488.433 14.3008 487.3 14.3008C486.233 14.3008 485.333 13.8342 484.6 12.9008C483.933 12.0342 483.6 10.8675 483.6 9.40082ZM485.2 9.40082C485.2 10.5342 485.433 11.4008 485.9 12.0008C486.3 12.6008 486.9 12.9008 487.7 12.9008C488.766 12.9008 489.533 12.4341 490 11.5008V7.10077C489.466 6.2341 488.7 5.80078 487.7 5.80078C486.9 5.80078 486.3 6.10081 485.9 6.70081C485.433 7.30081 485.2 8.20082 485.2 9.40082ZM501.7 14.1008H500C499.866 13.9008 499.8 13.5674 499.8 13.1008C499 13.9008 498.066 14.3008 497 14.3008C496.066 14.3008 495.3 14.0341 494.7 13.5008C494.1 12.9675 493.8 12.2675 493.8 11.4008C493.8 10.4675 494.2 9.70077 495 9.10077C495.733 8.56744 496.766 8.30078 498.1 8.30078H499.7V7.60077C499.7 7.00077 499.533 6.53414 499.2 6.20081C498.866 5.86747 498.366 5.70081 497.7 5.70081C497.1 5.70081 496.633 5.8341 496.3 6.10077C495.9 6.4341 495.7 6.80081 495.7 7.20081H494C494 6.73414 494.166 6.26745 494.5 5.80078C494.833 5.40078 495.3 5.06745 495.9 4.80078C496.5 4.53411 497.133 4.40082 497.8 4.40082C498.933 4.40082 499.8 4.66747 500.4 5.20081C501 5.73414 501.333 6.50079 501.4 7.50079V11.9008C501.4 12.7675 501.5 13.4342 501.7 13.9008V14.1008ZM497.3 12.9008C497.833 12.9008 498.3 12.7675 498.7 12.5008C499.166 12.2341 499.5 11.9008 499.7 11.5008V9.50079H498.5C496.5 9.50079 495.5 10.1008 495.5 11.3008C495.5 11.7674 495.666 12.1675 496 12.5008C496.333 12.7675 496.766 12.9008 497.3 12.9008ZM515.2 5.80078L509.9 12.8008H515.5V14.1008H507.9V12.9008L513.2 6.00079H508V4.60077H515.2V5.80078ZM516.7 9.50079V9.40082C516.7 8.46748 516.9 7.60078 517.3 6.80078C517.633 6.06745 518.133 5.50077 518.8 5.10077C519.466 4.70077 520.2 4.50079 521 4.50079C522.333 4.50079 523.4 4.96748 524.2 5.90082C525 6.76748 525.4 7.93415 525.4 9.40082V9.50079C525.4 10.4341 525.2 11.2675 524.8 12.0008C524.466 12.7341 523.966 13.3341 523.3 13.8008C522.633 14.2008 521.866 14.4008 521 14.4008C519.733 14.4008 518.7 13.9341 517.9 13.0008C517.1 12.1341 516.7 10.9675 516.7 9.50079ZM518.3 9.50079C518.3 10.5675 518.566 11.4341 519.1 12.1008C519.566 12.7008 520.2 13.0008 521 13.0008C521.866 13.0008 522.533 12.7008 523 12.1008C523.466 11.4341 523.7 10.5342 523.7 9.40082C523.7 8.33415 523.466 7.46745 523 6.80078C522.533 6.13411 521.866 5.80078 521 5.80078C520.2 5.80078 519.566 6.13411 519.1 6.80078C518.566 7.46745 518.3 8.36746 518.3 9.50079ZM527 9.50079V9.40082C527 8.46748 527.166 7.60078 527.5 6.80078C527.9 6.06745 528.433 5.50077 529.1 5.10077C529.7 4.70077 530.433 4.50079 531.3 4.50079C532.566 4.50079 533.6 4.96748 534.4 5.90082C535.2 6.76748 535.6 7.93415 535.6 9.40082V9.50079C535.6 10.4341 535.433 11.2675 535.1 12.0008C534.766 12.7341 534.266 13.3341 533.6 13.8008C532.933 14.2008 532.166 14.4008 531.3 14.4008C530.033 14.4008 529 13.9341 528.2 13.0008C527.4 12.1341 527 10.9675 527 9.50079ZM528.6 9.50079C528.6 10.5675 528.833 11.4341 529.3 12.1008C529.833 12.7008 530.5 13.0008 531.3 13.0008C532.1 13.0008 532.766 12.7008 533.3 12.1008C533.766 11.4341 534 10.5342 534 9.40082C534 8.33415 533.766 7.46745 533.3 6.80078C532.766 6.13411 532.1 5.80078 531.3 5.80078C530.5 5.80078 529.833 6.13411 529.3 6.80078C528.833 7.46745 528.6 8.36746 528.6 9.50079ZM537.7 4.70081H539.2V5.70081C539.933 4.90081 540.9 4.50079 542.1 4.50079C543.433 4.50079 544.333 5.00079 544.8 6.00079C545.133 5.60079 545.533 5.23415 546 4.90082C546.533 4.63415 547.133 4.50079 547.8 4.50079C549.866 4.50079 550.933 5.60078 551 7.80078V14.2008H549.4V7.90082C549.4 7.23415 549.233 6.73415 548.9 6.40082C548.567 6.06748 548.033 5.90082 547.3 5.90082C546.7 5.90082 546.2 6.06748 545.8 6.40082C545.4 6.80082 545.166 7.30082 545.1 7.90082V14.2008H543.5V8.00079C543.5 6.60079 542.833 5.90082 541.5 5.90082C540.433 5.90082 539.7 6.33414 539.3 7.20081V14.2008H537.7V4.70081ZM0.799805 37.5008V37.4008C0.799805 35.9342 1.13314 34.7675 1.7998 33.9008C2.53314 32.9675 3.46649 32.5008 4.59982 32.5008C5.66649 32.5008 6.53316 32.9008 7.19983 33.7008V28.7008H8.7998V42.2008H7.2998V41.2008C6.63314 42.0008 5.69982 42.4008 4.49982 42.4008C3.43315 42.4008 2.53314 41.9341 1.7998 41.0008C1.13314 40.1341 0.799805 38.9675 0.799805 37.5008ZM2.39981 37.6008C2.39981 38.6674 2.63316 39.5008 3.09982 40.1008C3.56649 40.7008 4.19982 41.0008 4.99982 41.0008C5.99982 41.0008 6.73316 40.5341 7.19983 39.6008V35.2008C6.73316 34.3341 5.99982 33.9008 4.99982 33.9008C4.19982 33.9008 3.56649 34.2008 3.09982 34.8008C2.63316 35.4008 2.39981 36.3341 2.39981 37.6008ZM18.8998 42.2008H17.1998C17.1332 42.0008 17.0665 41.6675 16.9998 41.2008C16.2665 42.0008 15.3665 42.4008 14.2998 42.4008C13.3665 42.4008 12.5998 42.1341 11.9998 41.6008C11.3998 41.0674 11.0998 40.4008 11.0998 39.6008C11.0998 38.6008 11.4665 37.8341 12.1998 37.3008C12.9332 36.7008 13.9998 36.4008 15.3998 36.4008H16.9998V35.7008C16.9998 35.1008 16.8332 34.6341 16.4998 34.3008C16.1665 33.9674 15.6665 33.8008 14.9998 33.8008C14.3998 33.8008 13.8998 33.9674 13.4998 34.3008C13.0998 34.5674 12.8998 34.9008 12.8998 35.3008H11.2998C11.2998 34.8341 11.4665 34.4008 11.7998 34.0008C12.1331 33.5341 12.5998 33.1675 13.1998 32.9008C13.7332 32.6342 14.3665 32.5008 15.0998 32.5008C16.1665 32.5008 16.9998 32.7674 17.5998 33.3008C18.2665 33.9008 18.5998 34.6674 18.5998 35.6008V40.0008C18.5998 40.8675 18.6998 41.5674 18.8998 42.1008V42.2008ZM14.4998 40.9008C15.0332 40.9008 15.5332 40.7675 15.9998 40.5008C16.4665 40.2341 16.7998 39.9008 16.9998 39.5008V37.5008H15.6998C13.6998 37.5008 12.6998 38.1008 12.6998 39.3008C12.6998 39.8341 12.8665 40.2341 13.1998 40.5008C13.5332 40.7675 13.9665 40.9008 14.4998 40.9008ZM25.6998 32.6008V34.1008C25.4998 34.0341 25.2331 34.0008 24.8998 34.0008C23.8331 34.0008 23.1331 34.4675 22.7998 35.4008V42.2008H21.0998V32.7008H22.6998L22.7998 33.8008C23.3331 32.9341 24.0665 32.5008 24.9998 32.5008C25.3332 32.5008 25.5665 32.5341 25.6998 32.6008ZM32.7998 39.6008C32.7998 39.2008 32.6331 38.8674 32.2998 38.6008C31.9665 38.4008 31.3665 38.2008 30.4998 38.0008C29.6998 37.8008 29.0665 37.6008 28.5998 37.4008C28.1332 37.1342 27.7665 36.8341 27.4998 36.5008C27.2998 36.1675 27.1998 35.7674 27.1998 35.3008C27.1998 34.5008 27.5332 33.8341 28.1998 33.3008C28.7998 32.7674 29.6332 32.5008 30.6998 32.5008C31.7665 32.5008 32.6331 32.7674 33.2998 33.3008C33.9665 33.8341 34.2998 34.5342 34.2998 35.4008H32.6998C32.6998 35.0008 32.4998 34.6341 32.0998 34.3008C31.6998 33.9674 31.2332 33.8008 30.6998 33.8008C30.0998 33.8008 29.6331 33.9341 29.2998 34.2008C28.9665 34.4675 28.7998 34.8008 28.7998 35.2008C28.7998 35.6008 28.9665 35.9008 29.2998 36.1008C29.5665 36.3008 30.0998 36.5008 30.8998 36.7008C31.7665 36.8341 32.4331 37.0341 32.8998 37.3008C33.4331 37.5674 33.7998 37.8675 33.9998 38.2008C34.2665 38.6008 34.3998 39.0341 34.3998 39.5008C34.3998 40.3675 34.0665 41.0674 33.3998 41.6008C32.7331 42.0674 31.8332 42.3008 30.6998 42.3008C29.9665 42.3008 29.2998 42.1675 28.6998 41.9008C28.0998 41.6342 27.6331 41.2674 27.2998 40.8008C26.9665 40.3341 26.7998 39.8008 26.7998 39.2008H28.4998C28.4998 39.8008 28.6998 40.2341 29.0998 40.5008C29.4998 40.8341 30.0332 41.0008 30.6998 41.0008C31.3665 41.0008 31.8665 40.8674 32.1998 40.6008C32.5998 40.4008 32.7998 40.0674 32.7998 39.6008ZM38.2998 28.7008V42.2008H36.6998V28.7008H38.2998ZM48.3998 42.2008H46.6998C46.6332 42.0008 46.5665 41.6675 46.4998 41.2008C45.7665 41.9341 44.8665 42.3008 43.7998 42.3008C42.8665 42.3008 42.0998 42.0341 41.4998 41.5008C40.8998 40.9675 40.5998 40.3008 40.5998 39.5008C40.5998 38.5008 40.9665 37.7341 41.6998 37.2008C42.4332 36.6675 43.4998 36.4008 44.8998 36.4008H46.4998V35.6008C46.4998 35.0674 46.3332 34.6341 45.9998 34.3008C45.6665 33.9674 45.1665 33.8008 44.4998 33.8008C43.8998 33.8008 43.3998 33.9341 42.9998 34.2008C42.5998 34.5341 42.3998 34.9008 42.3998 35.3008H40.7998C40.7998 34.8341 40.9665 34.3675 41.2998 33.9008C41.6331 33.5008 42.0998 33.1675 42.6998 32.9008C43.2332 32.6342 43.8665 32.5008 44.5998 32.5008C45.6665 32.5008 46.4998 32.7674 47.0998 33.3008C47.7665 33.8341 48.0998 34.6008 48.0998 35.6008V39.9008C48.0998 40.7675 48.1998 41.4675 48.3998 42.0008V42.2008ZM43.9998 41.0008C44.5332 41.0008 45.0332 40.8674 45.4998 40.6008C45.9665 40.3341 46.2998 40.0008 46.4998 39.6008V37.6008H45.1998C43.1998 37.6008 42.1998 38.2008 42.1998 39.4008C42.1998 39.8675 42.3665 40.2674 42.6998 40.6008C43.0332 40.8674 43.4665 41.0008 43.9998 41.0008ZM55.2998 32.7008V34.2008C55.0331 34.1341 54.7665 34.1008 54.4998 34.1008C53.4332 34.1008 52.6998 34.5675 52.2998 35.5008V42.2008H50.6998V32.7008H52.1998L52.2998 33.8008C52.8331 32.9341 53.5665 32.5008 54.4998 32.5008C54.8332 32.5008 55.0998 32.5675 55.2998 32.7008ZM58.4998 32.7008V42.2008H56.8998V32.7008H58.4998ZM56.6998 30.2008C56.6998 29.9341 56.7998 29.7008 56.9998 29.5008C57.1332 29.3008 57.3665 29.2008 57.6998 29.2008C58.0332 29.2008 58.2665 29.3008 58.3998 29.5008C58.5998 29.7008 58.6998 29.9341 58.6998 30.2008C58.6998 30.4675 58.5998 30.6674 58.3998 30.8008C58.2665 31.0008 58.0332 31.1008 57.6998 31.1008C57.3665 31.1008 57.1332 31.0008 56.9998 30.8008C56.7998 30.6674 56.6998 30.4675 56.6998 30.2008ZM65.0998 37.5008V37.4008C65.0998 36.4675 65.2998 35.6342 65.6998 34.9008C66.0332 34.1008 66.5332 33.5008 67.1998 33.1008C67.8665 32.7008 68.5998 32.5008 69.3998 32.5008C70.7331 32.5008 71.7998 32.9675 72.5998 33.9008C73.3998 34.7675 73.7998 35.9675 73.7998 37.5008V37.6008C73.7998 38.5341 73.5998 39.3674 73.1998 40.1008C72.8665 40.8341 72.3665 41.4008 71.6998 41.8008C71.0332 42.2008 70.2665 42.4008 69.3998 42.4008C68.1331 42.4008 67.0998 41.9674 66.2998 41.1008C65.4998 40.1674 65.0998 38.9675 65.0998 37.5008ZM66.6998 37.6008C66.6998 38.6674 66.9665 39.5008 67.4998 40.1008C67.9665 40.7674 68.5998 41.1008 69.3998 41.1008C70.2665 41.1008 70.9331 40.7674 71.3998 40.1008C71.8665 39.4341 72.0998 38.5342 72.0998 37.4008C72.0998 36.3342 71.8665 35.4674 71.3998 34.8008C70.9331 34.2008 70.2665 33.9008 69.3998 33.9008C68.5998 33.9008 67.9665 34.2008 67.4998 34.8008C66.9665 35.4674 66.6998 36.4008 66.6998 37.6008ZM77.5998 28.7008V42.2008H75.8998V28.7008H77.5998ZM81.9998 32.7008V42.2008H80.3998V32.7008H81.9998ZM80.1998 30.2008C80.1998 29.9341 80.2998 29.7008 80.4998 29.5008C80.6332 29.3008 80.8665 29.2008 81.1998 29.2008C81.5332 29.2008 81.7665 29.3008 81.8998 29.5008C82.0998 29.7008 82.1998 29.9341 82.1998 30.2008C82.1998 30.4675 82.0998 30.6674 81.8998 30.8008C81.7665 31.0008 81.5332 31.1008 81.1998 31.1008C80.8665 31.1008 80.6332 31.0008 80.4998 30.8008C80.2998 30.6674 80.1998 30.4675 80.1998 30.2008ZM84.5998 32.7008H86.0998L86.1998 33.9008C86.9332 32.9675 87.8665 32.5008 88.9998 32.5008C90.9998 32.5008 92.0332 33.6342 92.0998 35.9008V42.2008H90.3998V35.9008C90.3998 35.2342 90.2665 34.7342 89.9998 34.4008C89.6665 34.0675 89.1665 33.9008 88.4998 33.9008C87.9665 33.9008 87.5332 34.0341 87.1998 34.3008C86.7998 34.6341 86.4665 35.0008 86.1998 35.4008V42.2008H84.5998V32.7008ZM94.0998 37.4008C94.0998 35.9342 94.4665 34.7675 95.1998 33.9008C95.8665 32.9675 96.7665 32.5008 97.8998 32.5008C99.0331 32.5008 99.9332 32.9341 100.6 33.8008L100.7 32.7008H102.2V42.0008C102.2 43.2008 101.833 44.1675 101.1 44.9008C100.366 45.6342 99.3665 46.0008 98.0998 46.0008C97.4332 46.0008 96.7665 45.8341 96.0998 45.5008C95.4332 45.2341 94.9332 44.8341 94.5998 44.3008L95.4998 43.4008C96.1665 44.2008 96.9998 44.6008 97.9998 44.6008C98.7998 44.6008 99.4331 44.4008 99.8998 44.0008C100.3 43.5341 100.5 42.9008 100.5 42.1008V41.3008C99.8998 42.0341 99.0331 42.4008 97.8998 42.4008C96.7665 42.4008 95.8665 41.9674 95.1998 41.1008C94.4665 40.1674 94.0998 38.9342 94.0998 37.4008ZM95.7998 37.6008C95.7998 38.6674 95.9998 39.5008 96.3998 40.1008C96.8665 40.7008 97.4998 41.0008 98.2998 41.0008C99.2998 41.0008 100.033 40.5341 100.5 39.6008V35.3008C100.033 34.3674 99.2998 33.9008 98.2998 33.9008C97.4998 33.9008 96.8665 34.2008 96.3998 34.8008C95.9998 35.4674 95.7998 36.4008 95.7998 37.6008ZM104.7 41.4008C104.7 41.1342 104.766 40.9008 104.9 40.7008C105.1 40.5008 105.366 40.4008 105.7 40.4008C106.033 40.4008 106.266 40.5008 106.4 40.7008C106.6 40.9008 106.7 41.1342 106.7 41.4008C106.7 41.6675 106.6 41.9008 106.4 42.1008C106.266 42.2341 106.033 42.3008 105.7 42.3008C105.366 42.3008 105.1 42.2341 104.9 42.1008C104.766 41.9008 104.7 41.6675 104.7 41.4008ZM114.7 29.4008L118 35.9008L121.3 29.4008H123.2L118.8 37.5008V42.2008H117.1V37.5008L112.7 29.4008H114.7ZM123.7 37.5008V37.4008C123.7 36.4675 123.866 35.6342 124.2 34.9008C124.6 34.1675 125.133 33.6008 125.8 33.2008C126.466 32.7341 127.2 32.5008 128 32.5008C129.266 32.5008 130.3 32.9675 131.1 33.9008C131.9 34.7675 132.3 35.9675 132.3 37.5008V37.6008C132.3 38.5341 132.133 39.3674 131.8 40.1008C131.466 40.8341 130.966 41.4008 130.3 41.8008C129.633 42.2008 128.866 42.4008 128 42.4008C126.733 42.4008 125.7 41.9674 124.9 41.1008C124.1 40.1674 123.7 38.9675 123.7 37.5008ZM125.3 37.6008C125.3 38.6674 125.566 39.5008 126.1 40.1008C126.566 40.7674 127.2 41.1008 128 41.1008C128.866 41.1008 129.533 40.7674 130 40.1008C130.466 39.4341 130.7 38.5342 130.7 37.4008C130.7 36.3342 130.466 35.5008 130 34.9008C129.466 34.2342 128.8 33.9008 128 33.9008C127.2 33.9008 126.566 34.2008 126.1 34.8008C125.566 35.4674 125.3 36.4008 125.3 37.6008ZM140.4 42.2008L137 37.8008L136 38.9008V42.2008H134.4V28.7008H136V36.9008L136.9 35.9008L139.9 32.7008H141.8L138.1 36.7008L142.3 42.2008H140.4ZM145.3 32.7008V42.2008H143.7V32.7008H145.3ZM143.5 30.2008C143.5 29.9341 143.566 29.7008 143.7 29.5008C143.9 29.3675 144.166 29.3008 144.5 29.3008C144.766 29.3008 145 29.3675 145.2 29.5008C145.333 29.7008 145.4 29.9341 145.4 30.2008C145.4 30.4675 145.333 30.7008 145.2 30.9008C145 31.0342 144.766 31.1008 144.5 31.1008C144.166 31.1008 143.9 31.0342 143.7 30.9008C143.566 30.7008 143.5 30.4675 143.5 30.2008ZM151.9 37.5008V37.4008C151.9 36.4675 152.067 35.6342 152.4 34.9008C152.8 34.1675 153.333 33.6008 154 33.2008C154.6 32.7341 155.333 32.5008 156.2 32.5008C157.466 32.5008 158.5 32.9675 159.3 33.9008C160.1 34.7675 160.5 35.9675 160.5 37.5008V37.6008C160.5 38.5341 160.333 39.3674 160 40.1008C159.666 40.8341 159.166 41.4008 158.5 41.8008C157.833 42.2008 157.066 42.4008 156.2 42.4008C154.933 42.4008 153.9 41.9674 153.1 41.1008C152.3 40.1674 151.9 38.9675 151.9 37.5008ZM153.5 37.6008C153.5 38.6674 153.733 39.5008 154.2 40.1008C154.733 40.7674 155.4 41.1008 156.2 41.1008C157.066 41.1008 157.733 40.7674 158.2 40.1008C158.666 39.4341 158.9 38.5342 158.9 37.4008C158.9 36.3342 158.666 35.5008 158.2 34.9008C157.666 34.2342 157 33.9008 156.2 33.9008C155.4 33.9008 154.766 34.2008 154.3 34.8008C153.766 35.4674 153.5 36.4008 153.5 37.6008ZM162.4 28.7008V29.7008L162.2 32.9008H161.1V28.7008H162.4ZM171.3 33.9008L166 40.9008H171.6V42.2008H164.1V41.0008L169.3 34.1008H164.1V32.7008H171.3V33.9008ZM175.2 32.8008V42.3008H173.6V32.8008H175.2ZM173.4 30.2008C173.4 30.0008 173.5 29.8008 173.7 29.6008C173.833 29.4008 174.067 29.3008 174.4 29.3008C174.733 29.3008 174.966 29.4008 175.1 29.6008C175.233 29.8008 175.3 30.0008 175.3 30.2008C175.3 30.4675 175.233 30.7008 175.1 30.9008C174.966 31.1008 174.733 31.2008 174.4 31.2008C174.067 31.2008 173.833 31.1008 173.7 30.9008C173.5 30.7008 173.4 30.4675 173.4 30.2008ZM177.8 32.8008H179.3L179.4 34.0008C180.133 33.0675 181.066 32.6008 182.2 32.6008C184.2 32.6008 185.233 33.7341 185.3 36.0008V42.3008H183.6V36.0008C183.6 35.3341 183.466 34.8341 183.2 34.5008C182.866 34.1675 182.366 34.0008 181.7 34.0008C181.166 34.0008 180.7 34.1342 180.3 34.4008C179.9 34.6675 179.6 35.0341 179.4 35.5008V42.3008H177.8V32.8008ZM187.3 37.5008C187.3 35.9675 187.667 34.7675 188.4 33.9008C189.067 33.0342 189.966 32.6008 191.1 32.6008C192.233 32.6008 193.133 33.0008 193.8 33.8008L193.9 32.8008H195.4V42.1008C195.4 43.3008 195.033 44.2675 194.3 45.0008C193.566 45.6675 192.566 46.0008 191.3 46.0008C190.633 46.0008 189.966 45.8674 189.3 45.6008C188.633 45.3341 188.133 44.9342 187.8 44.4008L188.6 43.4008C189.333 44.2675 190.2 44.7008 191.2 44.7008C192 44.7008 192.633 44.4675 193.1 44.0008C193.5 43.6008 193.7 43.0008 193.7 42.2008V41.3008C193.033 42.1008 192.166 42.5008 191.1 42.5008C189.966 42.5008 189.067 42.0341 188.4 41.1008C187.667 40.2341 187.3 39.0341 187.3 37.5008ZM189 37.6008C189 38.6674 189.2 39.5341 189.6 40.2008C190.066 40.8008 190.7 41.1008 191.5 41.1008C192.5 41.1008 193.233 40.6341 193.7 39.7008V35.3008C193.233 34.4341 192.5 34.0008 191.5 34.0008C190.7 34.0008 190.066 34.3008 189.6 34.9008C189.2 35.5008 189 36.4008 189 37.6008ZM199.6 32.8008V42.3008H197.9V32.8008H199.6ZM197.9 30.3008C197.9 30.0341 197.966 29.8008 198.1 29.6008C198.3 29.4008 198.533 29.3008 198.8 29.3008C199.133 29.3008 199.4 29.4008 199.6 29.6008C199.733 29.8008 199.8 30.0341 199.8 30.3008C199.8 30.5674 199.733 30.7675 199.6 30.9008C199.4 31.1008 199.133 31.2008 198.8 31.2008C198.533 31.2008 198.3 31.1008 198.1 30.9008C197.966 30.7675 197.9 30.5674 197.9 30.3008ZM209.1 33.9008L203.8 41.0008H209.3V42.3008H201.8V41.1008L207 34.1008H201.9V32.8008H209.1V33.9008ZM210.6 37.4008C210.6 35.9342 210.966 34.7675 211.7 33.9008C212.366 33.0342 213.267 32.6008 214.4 32.6008C215.533 32.6008 216.433 33.0008 217.1 33.8008L217.2 32.7008H218.7V42.0008C218.7 43.2675 218.333 44.2342 217.6 44.9008C216.866 45.6342 215.866 46.0008 214.6 46.0008C213.933 46.0008 213.266 45.8341 212.6 45.5008C211.933 45.2341 211.433 44.8341 211.1 44.3008L212 43.4008C212.666 44.2675 213.5 44.7008 214.5 44.7008C215.3 44.7008 215.933 44.4675 216.4 44.0008C216.8 43.5341 217 42.9008 217 42.1008V41.3008C216.4 42.0341 215.533 42.4008 214.4 42.4008C213.267 42.4008 212.366 41.9674 211.7 41.1008C210.966 40.1674 210.6 38.9342 210.6 37.4008ZM212.3 37.6008C212.3 38.6674 212.5 39.5008 212.9 40.1008C213.367 40.7008 214 41.0008 214.8 41.0008C215.8 41.0008 216.533 40.5341 217 39.6008V35.3008C216.533 34.3674 215.8 33.9008 214.8 33.9008C214 33.9008 213.367 34.2342 212.9 34.9008C212.5 35.5008 212.3 36.4008 212.3 37.6008ZM228.7 42.2008H227C226.933 42.0675 226.866 41.7341 226.8 41.2008C226 42.0008 225.1 42.4008 224.1 42.4008C223.166 42.4008 222.4 42.1341 221.8 41.6008C221.2 41.0674 220.9 40.4008 220.9 39.6008C220.9 38.6008 221.266 37.8341 222 37.3008C222.733 36.7674 223.8 36.5008 225.2 36.5008H226.7V35.7008C226.7 35.1675 226.533 34.7342 226.2 34.4008C225.866 34.0675 225.366 33.9008 224.7 33.9008C224.166 33.9008 223.7 34.0341 223.3 34.3008C222.9 34.5674 222.7 34.9342 222.7 35.4008H221.1C221.1 34.9342 221.266 34.4675 221.6 34.0008C221.933 33.5341 222.367 33.1675 222.9 32.9008C223.5 32.7008 224.133 32.6008 224.8 32.6008C225.933 32.6008 226.8 32.8675 227.4 33.4008C228 33.9342 228.333 34.6674 228.4 35.6008V40.0008C228.4 40.8675 228.5 41.5674 228.7 42.1008V42.2008ZM224.3 41.0008C224.833 41.0008 225.333 40.8674 225.8 40.6008C226.2 40.3341 226.5 39.9675 226.7 39.5008V37.6008H225.5C223.5 37.6008 222.5 38.1674 222.5 39.3008C222.5 39.8341 222.666 40.2341 223 40.5008C223.333 40.8341 223.766 41.0008 224.3 41.0008ZM237.1 32.7008V42.2008H235.5V32.7008H237.1ZM235.4 30.2008C235.4 29.9341 235.466 29.7008 235.6 29.5008C235.733 29.3008 235.966 29.2008 236.3 29.2008C236.633 29.2008 236.866 29.3008 237 29.5008C237.2 29.7008 237.3 29.9341 237.3 30.2008C237.3 30.4675 237.2 30.6674 237 30.8008C236.866 31.0008 236.633 31.1008 236.3 31.1008C235.966 31.1008 235.733 31.0008 235.6 30.8008C235.466 30.6674 235.4 30.4675 235.4 30.2008ZM239.7 32.7008H241.3V33.9008C242.033 32.9675 243 32.5008 244.2 32.5008C246.2 32.5008 247.2 33.6342 247.2 35.9008V42.2008H245.6V35.9008C245.6 35.2342 245.433 34.7342 245.1 34.4008C244.766 34.0675 244.3 33.9008 243.7 33.9008C243.166 33.9008 242.7 34.0341 242.3 34.3008C241.9 34.5674 241.566 34.9342 241.3 35.4008V42.2008H239.7V32.7008ZM249.3 37.5008V37.4008C249.3 35.9342 249.633 34.7675 250.3 33.9008C250.966 32.9675 251.866 32.5008 253 32.5008C254.133 32.5008 255.033 32.9008 255.7 33.7008V28.7008H257.3V42.2008H255.8L255.7 41.2008C255.033 42.0008 254.133 42.4008 253 42.4008C251.866 42.4008 250.966 41.9341 250.3 41.0008C249.633 40.1341 249.3 38.9675 249.3 37.5008ZM250.9 37.6008C250.9 38.6674 251.1 39.5008 251.5 40.1008C251.966 40.7008 252.6 41.0008 253.4 41.0008C254.4 41.0008 255.166 40.5341 255.7 39.6008V35.2008C255.166 34.3341 254.4 33.9008 253.4 33.9008C252.6 33.9008 251.966 34.2008 251.5 34.8008C251.1 35.4008 250.9 36.3341 250.9 37.6008ZM261.6 32.7008V42.2008H259.9V32.7008H261.6ZM259.9 30.2008C259.9 29.9341 259.966 29.7008 260.1 29.5008C260.3 29.3008 260.533 29.2008 260.8 29.2008C261.133 29.2008 261.4 29.3008 261.6 29.5008C261.733 29.7008 261.8 29.9341 261.8 30.2008C261.8 30.4675 261.733 30.6674 261.6 30.8008C261.4 31.0008 261.133 31.1008 260.8 31.1008C260.533 31.1008 260.3 31.0008 260.1 30.8008C259.966 30.6674 259.9 30.4675 259.9 30.2008ZM265 32.7008L267.4 40.0008L269.7 32.7008H271.4L268 42.2008H266.7L263.3 32.7008H265ZM274.8 32.7008V42.2008H273.1V32.7008H274.8ZM273.1 30.2008C273.1 29.9341 273.166 29.7008 273.3 29.5008C273.5 29.3008 273.733 29.2008 274 29.2008C274.333 29.2008 274.6 29.3008 274.8 29.5008C274.933 29.7008 275 29.9341 275 30.2008C275 30.4675 274.933 30.6674 274.8 30.8008C274.6 31.0008 274.333 31.1008 274 31.1008C273.733 31.1008 273.5 31.0008 273.3 30.8008C273.166 30.6674 273.1 30.4675 273.1 30.2008ZM277 37.5008V37.4008C277 35.9342 277.366 34.7675 278.1 33.9008C278.766 32.9675 279.666 32.5008 280.8 32.5008C281.933 32.5008 282.8 32.9008 283.4 33.7008V28.7008H285.1V42.2008H283.6L283.5 41.2008C282.833 42.0008 281.933 42.4008 280.8 42.4008C279.666 42.4008 278.766 41.9341 278.1 41.0008C277.366 40.1341 277 38.9675 277 37.5008ZM278.7 37.6008C278.7 38.6674 278.9 39.5008 279.3 40.1008C279.766 40.7008 280.4 41.0008 281.2 41.0008C282.2 41.0008 282.933 40.5341 283.4 39.6008V35.2008C282.933 34.3341 282.2 33.9008 281.2 33.9008C280.4 33.9008 279.766 34.2008 279.3 34.8008C278.9 35.4008 278.7 36.3341 278.7 37.6008ZM293.5 42.2008V41.3008C292.833 42.0341 291.9 42.4008 290.7 42.4008C289.7 42.4008 288.933 42.1008 288.4 41.5008C287.867 40.9008 287.6 40.0342 287.6 38.9008V32.7008H289.2V38.8008C289.2 40.2674 289.767 41.0008 290.9 41.0008C292.167 41.0008 293 40.5341 293.4 39.6008V32.7008H295V42.2008H293.5ZM305.1 42.2008H303.4C303.333 42.0008 303.266 41.6675 303.2 41.2008C302.466 42.0008 301.566 42.4008 300.5 42.4008C299.566 42.4008 298.8 42.1341 298.2 41.6008C297.6 41.0674 297.3 40.4008 297.3 39.6008C297.3 38.6008 297.667 37.8341 298.4 37.3008C299.2 36.7008 300.266 36.4008 301.6 36.4008H303.2V35.7008C303.2 35.1008 303.033 34.6341 302.7 34.3008C302.366 33.9674 301.866 33.8008 301.2 33.8008C300.6 33.8008 300.1 33.9674 299.7 34.3008C299.3 34.5674 299.1 34.9008 299.1 35.3008H297.5C297.5 34.8341 297.666 34.4008 298 34.0008C298.333 33.5341 298.8 33.1675 299.4 32.9008C299.933 32.6342 300.566 32.5008 301.3 32.5008C302.366 32.5008 303.2 32.7674 303.8 33.3008C304.466 33.9008 304.8 34.6674 304.8 35.6008V40.0008C304.8 40.8675 304.9 41.5674 305.1 42.1008V42.2008ZM300.7 40.9008C301.233 40.9008 301.733 40.7675 302.2 40.5008C302.666 40.2341 303 39.9008 303.2 39.5008V37.6008H301.9C299.9 37.6008 298.9 38.1674 298.9 39.3008C298.9 39.8341 299.067 40.2341 299.4 40.5008C299.733 40.7675 300.166 40.9008 300.7 40.9008ZM309.1 28.7008V42.2008H307.5V28.7008H309.1ZM322.1 42.2008L322 41.2008C321.4 41.9341 320.466 42.3008 319.2 42.3008C318.2 42.3008 317.433 42.0341 316.9 41.5008C316.367 40.9008 316.1 40.0008 316.1 38.8008V32.7008H317.7V38.8008C317.7 40.2674 318.3 41.0008 319.5 41.0008C320.766 41.0008 321.6 40.5341 322 39.6008V32.7008H323.6V42.2008H322.1ZM331.7 39.6008C331.7 39.2008 331.533 38.8674 331.2 38.6008C330.866 38.4008 330.267 38.2008 329.4 38.0008C328.6 37.8008 327.966 37.6008 327.5 37.4008C326.966 37.1342 326.6 36.8341 326.4 36.5008C326.2 36.1675 326.1 35.7674 326.1 35.3008C326.1 34.5008 326.4 33.8341 327 33.3008C327.666 32.7674 328.533 32.5008 329.6 32.5008C330.666 32.5008 331.533 32.7674 332.2 33.3008C332.866 33.9008 333.2 34.6341 333.2 35.5008H331.6C331.6 35.0341 331.4 34.6341 331 34.3008C330.6 33.9674 330.133 33.8008 329.6 33.8008C329 33.8008 328.533 33.9341 328.2 34.2008C327.866 34.4675 327.7 34.8008 327.7 35.2008C327.7 35.6008 327.833 35.9008 328.1 36.1008C328.433 36.3008 329 36.5008 329.8 36.7008C330.6 36.8341 331.266 37.0341 331.8 37.3008C332.333 37.5674 332.7 37.8675 332.9 38.2008C333.167 38.6008 333.3 39.0341 333.3 39.5008C333.3 40.3675 332.966 41.0674 332.3 41.6008C331.566 42.0674 330.666 42.3008 329.6 42.3008C328.866 42.3008 328.2 42.1675 327.6 41.9008C327 41.6342 326.533 41.2674 326.2 40.8008C325.866 40.3341 325.7 39.8008 325.7 39.2008H327.4C327.4 39.8008 327.6 40.2341 328 40.5008C328.4 40.8341 328.933 41.0008 329.6 41.0008C330.2 41.0008 330.7 40.8674 331.1 40.6008C331.5 40.4008 331.7 40.0674 331.7 39.6008ZM336 30.4008H337.6V32.7008H339.4V33.9008H337.6V39.8008C337.6 40.2008 337.666 40.5008 337.8 40.7008C338 40.9008 338.3 41.0008 338.7 41.0008C338.833 41.0008 339.067 40.9341 339.4 40.8008V42.2008C339 42.2675 338.6 42.3008 338.2 42.3008C337.466 42.3008 336.9 42.1008 336.5 41.7008C336.166 41.2341 336 40.6008 336 39.8008V33.9008H334.3V32.7008H336V30.4008ZM340.7 37.4008V37.3008C340.7 36.3674 340.866 35.5341 341.2 34.8008C341.6 34.0674 342.133 33.5008 342.8 33.1008C343.4 32.7008 344.133 32.5008 345 32.5008C346.266 32.5008 347.3 32.9341 348.1 33.8008C348.9 34.7341 349.3 35.9342 349.3 37.4008V37.5008C349.3 38.4341 349.133 39.2675 348.8 40.0008C348.466 40.7341 347.966 41.3008 347.3 41.7008C346.633 42.1008 345.866 42.3008 345 42.3008C343.733 42.3008 342.7 41.8675 341.9 41.0008C341.1 40.1341 340.7 38.9342 340.7 37.4008ZM342.3 37.5008C342.3 38.5675 342.533 39.4341 343 40.1008C343.533 40.7008 344.2 41.0008 345 41.0008C345.866 41.0008 346.533 40.7008 347 40.1008C347.466 39.4341 347.7 38.5008 347.7 37.3008C347.7 36.3008 347.466 35.4674 347 34.8008C346.466 34.1341 345.8 33.8008 345 33.8008C344.2 33.8008 343.566 34.1341 343.1 34.8008C342.566 35.4008 342.3 36.3008 342.3 37.5008ZM358.1 33.8008L352.8 40.8008H358.3V42.2008H350.8V41.0008L356 34.0008H350.9V32.7008H358.1V33.8008ZM365.2 30.3008H366.8V32.6008H368.6V33.9008H366.8V39.8008C366.8 40.1341 366.9 40.4008 367.1 40.6008C367.233 40.8008 367.5 40.9008 367.9 40.9008C368.033 40.9008 368.266 40.8674 368.6 40.8008V42.1008C368.2 42.2341 367.8 42.3008 367.4 42.3008C366.667 42.3008 366.1 42.0674 365.7 41.6008C365.366 41.2008 365.2 40.6008 365.2 39.8008V33.9008H363.5V32.6008H365.2V30.3008ZM378.1 42.1008H376.4C376.267 41.9008 376.166 41.5674 376.1 41.1008C375.366 41.9008 374.467 42.3008 373.4 42.3008C372.467 42.3008 371.7 42.0341 371.1 41.5008C370.5 40.9675 370.2 40.3008 370.2 39.5008C370.2 38.5008 370.566 37.7341 371.3 37.2008C372.1 36.6675 373.166 36.4008 374.5 36.4008H376.1V35.6008C376.1 35.0674 375.933 34.6341 375.6 34.3008C375.266 33.9008 374.766 33.7008 374.1 33.7008C373.5 33.7008 373 33.8675 372.6 34.2008C372.2 34.4675 372 34.8008 372 35.2008H370.4C370.4 34.7341 370.567 34.3008 370.9 33.9008C371.233 33.4342 371.7 33.0674 372.3 32.8008C372.9 32.5341 373.533 32.4008 374.2 32.4008C375.266 32.4008 376.133 32.7008 376.8 33.3008C377.4 33.8341 377.7 34.5675 377.7 35.5008V39.9008C377.7 40.7675 377.833 41.4675 378.1 42.0008V42.1008ZM373.7 40.8008C374.166 40.8008 374.633 40.6675 375.1 40.4008C375.566 40.2008 375.9 39.8675 376.1 39.4008V37.5008H374.8C372.8 37.5008 371.8 38.0675 371.8 39.2008C371.8 39.7341 372 40.1342 372.4 40.4008C372.733 40.6675 373.166 40.8008 373.7 40.8008ZM380.3 32.6008H381.8L381.9 33.8008C382.633 32.8674 383.566 32.4008 384.7 32.4008C386.7 32.4008 387.733 33.5341 387.8 35.8008V42.1008H386.1V35.8008C386.1 35.1341 385.966 34.6341 385.7 34.3008C385.366 33.9674 384.866 33.8008 384.2 33.8008C383.666 33.8008 383.2 33.9341 382.8 34.2008C382.4 34.4675 382.1 34.8341 381.9 35.3008V42.1008H380.3V32.6008ZM392 28.6008V42.1008H390.4V28.6008H392ZM402.1 42.1008H400.4C400.333 41.9008 400.266 41.5674 400.2 41.1008C399.466 41.9008 398.566 42.3008 397.5 42.3008C396.566 42.3008 395.8 42.0341 395.2 41.5008C394.6 40.9675 394.3 40.3008 394.3 39.5008C394.3 38.5008 394.667 37.7341 395.4 37.2008C396.133 36.6008 397.2 36.3008 398.6 36.3008H400.2V35.6008C400.2 35.0008 400.033 34.5341 399.7 34.2008C399.366 33.8675 398.866 33.7008 398.2 33.7008C397.6 33.7008 397.1 33.8675 396.7 34.2008C396.3 34.4675 396.1 34.8008 396.1 35.2008H394.5C394.5 34.7341 394.666 34.2674 395 33.8008C395.333 33.4008 395.766 33.0674 396.3 32.8008C396.9 32.5341 397.566 32.4008 398.3 32.4008C399.366 32.4008 400.2 32.6675 400.8 33.2008C401.466 33.7341 401.8 34.5008 401.8 35.5008V39.9008C401.8 40.7675 401.9 41.4342 402.1 41.9008V42.1008ZM397.7 40.9008C398.233 40.9008 398.733 40.7675 399.2 40.5008C399.666 40.2341 400 39.9008 400.2 39.5008V37.5008H398.9C396.9 37.5008 395.9 38.1008 395.9 39.3008C395.9 39.7674 396.067 40.1675 396.4 40.5008C396.733 40.7675 397.166 40.9008 397.7 40.9008ZM404.3 32.6008H405.9V33.8008C406.633 32.9341 407.6 32.5008 408.8 32.5008C410.8 32.5008 411.8 33.6342 411.8 35.9008V42.1008H410.2V35.9008C410.2 35.1675 410.033 34.6341 409.7 34.3008C409.433 33.9674 408.966 33.8008 408.3 33.8008C407.766 33.8008 407.3 33.9674 406.9 34.3008C406.5 34.5674 406.2 34.9342 406 35.4008V42.1008H404.3V32.6008ZM413.9 37.3008C413.9 35.8341 414.233 34.6674 414.9 33.8008C415.567 32.9341 416.466 32.5008 417.6 32.5008C418.8 32.5008 419.733 32.9008 420.4 33.7008V32.6008H421.9V41.9008C421.9 43.1675 421.533 44.1341 420.8 44.8008C420.066 45.5341 419.1 45.9008 417.9 45.9008C417.233 45.9008 416.567 45.7675 415.9 45.5008C415.233 45.1675 414.733 44.7674 414.4 44.3008L415.2 43.3008C415.933 44.1674 416.8 44.6008 417.8 44.6008C418.6 44.6008 419.2 44.3675 419.6 43.9008C420.066 43.4342 420.3 42.8008 420.3 42.0008V41.2008C419.633 41.9341 418.733 42.3008 417.6 42.3008C416.533 42.3008 415.633 41.8675 414.9 41.0008C414.233 40.0675 413.9 38.8341 413.9 37.3008ZM415.5 37.5008C415.5 38.5675 415.733 39.4008 416.2 40.0008C416.6 40.6675 417.2 41.0008 418 41.0008C419.066 41.0008 419.833 40.5341 420.3 39.6008V35.2008C419.766 34.3341 419 33.9008 418 33.9008C417.266 33.9008 416.666 34.2008 416.2 34.8008C415.733 35.4008 415.5 36.3008 415.5 37.5008ZM424.4 41.3008C424.4 41.0341 424.5 40.8008 424.7 40.6008C424.833 40.4008 425.067 40.3008 425.4 40.3008C425.733 40.3008 426 40.4008 426.2 40.6008C426.333 40.8008 426.4 41.0341 426.4 41.3008C426.4 41.5674 426.333 41.8008 426.2 42.0008C426 42.2008 425.733 42.3008 425.4 42.3008C425.067 42.3008 424.833 42.2008 424.7 42.0008C424.5 41.8008 424.4 41.5674 424.4 41.3008Z" fill="#777777"/>
</svg>
