<svg width="218" height="26" viewBox="0 0 218 26" fill="none" xmlns="http://www.w3.org/2000/svg">
<path d="M5.10019 11.3C5.10019 10.2334 5.3002 9.3 5.7002 8.5C6.16686 7.7 6.76685 7.09995 7.50018 6.69995C8.23352 6.23328 9.10019 6 10.1002 6C11.1002 6 11.9669 6.23328 12.7002 6.69995C13.4335 7.09995 14.0002 7.7 14.4002 8.5C14.8002 9.3 15.0002 10.2334 15.0002 11.3C15.0002 12.3 14.8002 13.2 14.4002 14C14.0002 14.8 13.4335 15.4 12.7002 15.8C11.9669 16.2667 11.1002 16.5 10.1002 16.5C9.10019 16.5 8.23352 16.2667 7.50018 15.8C6.76685 15.4 6.16686 14.8 5.7002 14C5.3002 13.2 5.10019 12.3 5.10019 11.3ZM0.700195 11.3C0.700195 12.6334 0.900171 13.8667 1.30017 15C1.76684 16.1333 2.4335 17.1 3.30017 17.9C4.16684 18.7667 5.16684 19.4334 6.30017 19.9C7.4335 20.3 8.70019 20.5 10.1002 20.5C11.4335 20.5 12.7002 20.3 13.9002 19.9C15.0335 19.4334 16.0002 18.7667 16.8002 17.9C17.6668 17.1 18.3335 16.1333 18.8002 15C19.2668 13.8667 19.5002 12.6334 19.5002 11.3C19.5002 9.90005 19.2668 8.63333 18.8002 7.5C18.3335 6.43333 17.6668 5.49995 16.8002 4.69995C15.9335 3.83328 14.9335 3.20005 13.8002 2.80005C12.6668 2.33338 11.4335 2.09998 10.1002 2.09998C8.76686 2.09998 7.53351 2.33338 6.40018 2.80005C5.20018 3.20005 4.20018 3.83328 3.40018 4.69995C2.53351 5.49995 1.86684 6.43333 1.40018 7.5C0.93351 8.63333 0.700195 9.90005 0.700195 11.3ZM29.3002 13V20H33.2002V12.6C33.2002 11.2 32.8669 10.1334 32.2002 9.40002C31.6002 8.60002 30.5669 8.19995 29.1002 8.19995C28.2335 8.19995 27.5335 8.40005 27.0002 8.80005C26.4002 9.13338 25.9335 9.59995 25.6002 10.2V8.5H21.8002V20H25.6002V13C25.6002 12.5333 25.7002 12.1334 25.9002 11.8C26.0335 11.5334 26.2669 11.3 26.6002 11.1C26.8669 10.9666 27.2002 10.9 27.6002 10.9C28.2002 10.9 28.6335 11.0667 28.9002 11.4C29.1668 11.8 29.3002 12.3333 29.3002 13ZM40.0002 0.5H36.2002V20H40.0002V0.5ZM45.9002 16.4C45.9002 16.1334 45.9669 15.9 46.1002 15.7C46.2335 15.5 46.4335 15.3667 46.7002 15.3C46.9669 15.1667 47.3002 15.1 47.7002 15.1C48.3002 15.1 48.8668 15.1667 49.4002 15.3C49.9335 15.5 50.4002 15.7333 50.8002 16V14.3C50.6002 14.1 50.3002 13.9 49.9002 13.7C49.5002 13.5 49.0002 13.3333 48.4002 13.2C47.8668 13.0666 47.2669 13 46.6002 13C45.1335 13 44.0002 13.3333 43.2002 14C42.4669 14.6667 42.1002 15.5333 42.1002 16.6C42.1002 17.4 42.2669 18.0666 42.6002 18.6C43.0002 19.1333 43.5002 19.5334 44.1002 19.8C44.7669 20.1334 45.4669 20.3 46.2002 20.3C46.9335 20.3 47.6002 20.1667 48.2002 19.9C48.8669 19.6334 49.4002 19.2333 49.8002 18.7C50.2002 18.2333 50.4002 17.6 50.4002 16.8L50.0002 15.3C50.0002 15.9 49.8669 16.3666 49.6002 16.7C49.4002 17.1 49.1002 17.3667 48.7002 17.5C48.3669 17.7 47.9669 17.8 47.5002 17.8C47.2335 17.8 46.9669 17.7666 46.7002 17.7C46.4335 17.5666 46.2335 17.4 46.1002 17.2C45.9669 16.9333 45.9002 16.6667 45.9002 16.4ZM42.9002 9.5L44.2002 12C44.3335 11.9333 44.6002 11.8333 45.0002 11.7C45.3335 11.5 45.7668 11.3333 46.3002 11.2C46.7668 11.1333 47.2668 11.1 47.8002 11.1C48.1335 11.1 48.4335 11.1333 48.7002 11.2C48.9669 11.2666 49.2002 11.3667 49.4002 11.5C49.6002 11.6333 49.7335 11.8 49.8002 12C49.9335 12.2 50.0002 12.4667 50.0002 12.8V20H53.6002V11.9C53.6002 11.1 53.3668 10.4334 52.9002 9.90002C52.4335 9.30002 51.8002 8.86664 51.0002 8.59998C50.2002 8.33331 49.3002 8.19995 48.3002 8.19995C47.1668 8.19995 46.1668 8.33331 45.3002 8.59998C44.3668 8.86664 43.5668 9.16667 42.9002 9.5ZM60.6002 25.5L68.1002 8.5H64.2002L60.5002 17.7H62.5002L58.7002 8.5H54.6002L59.6002 19.1L56.8002 25.5H60.6002ZM76.8002 13V20H80.7002V12.6C80.7002 11.2 80.3669 10.1334 79.7002 9.40002C79.1002 8.60002 78.0669 8.19995 76.6002 8.19995C75.7335 8.19995 75.0335 8.40005 74.5002 8.80005C73.9002 9.13338 73.4335 9.59995 73.1002 10.2V8.5H69.3002V20H73.1002V13C73.1002 12.5333 73.2002 12.1334 73.4002 11.8C73.5335 11.5334 73.7669 11.3 74.1002 11.1C74.3669 10.9666 74.7002 10.9 75.1002 10.9C75.7002 10.9 76.1335 11.0667 76.4002 11.4C76.6668 11.8 76.8002 12.3333 76.8002 13ZM95.9002 2.5H91.6002V20H95.9002V2.5ZM102.4 16.5V20H111.2V16.5H102.4ZM102.4 2.5V6H111.2V2.5H102.4ZM102.4 9.09998V12.5H110.7V9.09998H102.4ZM103.7 2.5H99.6002V20H103.7V2.5ZM118.9 2.5H114.7V20H126V16.4H118.9V2.5ZM124.4 2.5V6.30005H129.2V20H133.4V6.30005H138.3V2.5H124.4ZM142.1 13.8L139.1 15.9C139.5 16.7667 140.067 17.5667 140.8 18.3C141.534 18.9667 142.367 19.5 143.3 19.9C144.3 20.3 145.367 20.5 146.5 20.5C147.3 20.5 148.1 20.4 148.9 20.2C149.634 19.9333 150.3 19.5666 150.9 19.1C151.567 18.6333 152.067 18.0667 152.4 17.4C152.734 16.6667 152.9 15.8667 152.9 15C152.9 14.2667 152.8 13.6333 152.6 13.1C152.333 12.5 152 12 151.6 11.6C151.2 11.1333 150.734 10.7334 150.2 10.4C149.667 10.1334 149.1 9.86664 148.5 9.59998C147.7 9.33331 147 9.06672 146.4 8.80005C145.8 8.53338 145.367 8.26667 145.1 8C144.767 7.73333 144.6 7.36669 144.6 6.90002C144.6 6.56669 144.767 6.26667 145.1 6C145.433 5.73333 145.9 5.59998 146.5 5.59998C146.9 5.59998 147.3 5.70002 147.7 5.90002C148.1 6.03336 148.467 6.26664 148.8 6.59998C149.133 6.93331 149.434 7.29995 149.7 7.69995L152.9 5.90002C152.567 5.30002 152.133 4.69998 151.6 4.09998C151 3.49998 150.267 2.99998 149.4 2.59998C148.6 2.26664 147.6 2.09998 146.4 2.09998C145.267 2.09998 144.234 2.29995 143.3 2.69995C142.367 3.09995 141.633 3.66669 141.1 4.40002C140.567 5.13336 140.3 6.03331 140.3 7.09998C140.3 7.96664 140.467 8.70005 140.8 9.30005C141.133 9.90005 141.534 10.4 142 10.8C142.467 11.2 142.967 11.5667 143.5 11.9C144.034 12.1667 144.534 12.3667 145 12.5C145.8 12.7667 146.467 13.0334 147 13.3C147.534 13.5667 147.9 13.8333 148.1 14.1C148.367 14.3666 148.5 14.7333 148.5 15.2C148.5 15.7333 148.3 16.1667 147.9 16.5C147.5 16.7667 147 16.9 146.4 16.9C145.8 16.9 145.234 16.8 144.7 16.6C144.167 16.3333 143.667 15.9667 143.2 15.5C142.8 15.0333 142.433 14.4667 142.1 13.8ZM166.5 0.5H162.9V20H166.5V0.5ZM175.2 8.5H170.7L165.7 13.2L171.2 20H175.7L170.3 13.2L175.2 8.5ZM181 15.5V8.5H177.1V15.9C177.1 17.3 177.4 18.4 178 19.2C178.667 19.9333 179.734 20.3 181.2 20.3C182.067 20.3 182.767 20.1334 183.3 19.8C183.9 19.4 184.367 18.9 184.7 18.3V20H188.5V8.5H184.7V15.5C184.7 15.9667 184.6 16.3666 184.4 16.7C184.267 17.0333 184.034 17.2667 183.7 17.4C183.434 17.6 183.1 17.7 182.7 17.7C182.1 17.7 181.667 17.5 181.4 17.1C181.134 16.7 181 16.1667 181 15.5ZM195.2 20V8.5H191.4V20H195.2ZM198.6 12.4L200.2 9.19995C200 8.86662 199.7 8.63333 199.3 8.5C198.9 8.3 198.5 8.19995 198.1 8.19995C197.5 8.19995 196.9 8.43336 196.3 8.90002C195.7 9.30002 195.234 9.86664 194.9 10.6C194.5 11.3333 194.3 12.1333 194.3 13L195.2 14.4C195.2 13.8 195.3 13.3 195.5 12.9C195.634 12.5667 195.833 12.3 196.1 12.1C196.367 11.9 196.7 11.8 197.1 11.8C197.433 11.8 197.7 11.8334 197.9 11.9C198.167 12.0334 198.4 12.2 198.6 12.4ZM202.4 15.9L200.8 18.4C201.334 18.7334 201.9 19.0667 202.5 19.4C203.1 19.7334 203.767 20 204.5 20.2C205.167 20.4 205.934 20.5 206.8 20.5C208.133 20.5 209.2 20.2 210 19.6C210.734 18.9333 211.1 18 211.1 16.8C211.1 16.0667 210.933 15.5 210.6 15.1C210.333 14.6333 209.934 14.2667 209.4 14C208.934 13.7333 208.4 13.4666 207.8 13.2C207.2 13 206.7 12.8333 206.3 12.7C205.9 12.5666 205.6 12.4 205.4 12.2C205.2 12.0666 205.1 11.8666 205.1 11.6C205.1 11.4 205.2 11.2333 205.4 11.1C205.534 10.9666 205.8 10.9 206.2 10.9C206.667 10.9 207.234 11.0334 207.9 11.3C208.5 11.5667 209.034 11.9334 209.5 12.4L210.9 10C210.434 9.66667 209.934 9.36664 209.4 9.09998C208.934 8.83331 208.4 8.63333 207.8 8.5C207.2 8.36667 206.567 8.30005 205.9 8.30005C205.1 8.30005 204.367 8.43328 203.7 8.69995C203.1 8.89995 202.6 9.23328 202.2 9.69995C201.8 10.2333 201.6 10.8333 201.6 11.5C201.6 12.2333 201.767 12.8334 202.1 13.3C202.433 13.7667 202.834 14.1334 203.3 14.4C203.834 14.7334 204.367 15 204.9 15.2C205.5 15.3333 205.967 15.5 206.3 15.7C206.7 15.8333 206.967 16 207.1 16.2C207.233 16.3333 207.3 16.5334 207.3 16.8C207.3 17.0667 207.233 17.3 207.1 17.5C206.9 17.6333 206.6 17.7 206.2 17.7C205.934 17.7 205.633 17.6666 205.3 17.6C204.9 17.4666 204.467 17.2667 204 17C203.534 16.7333 203 16.3667 202.4 15.9ZM213 4.19995C213 4.79995 213.2 5.29995 213.6 5.69995C214.067 6.03328 214.6 6.19995 215.2 6.19995C215.8 6.19995 216.3 6.03328 216.7 5.69995C217.167 5.29995 217.4 4.79995 217.4 4.19995C217.4 3.59995 217.167 3.09995 216.7 2.69995C216.3 2.36662 215.8 2.19995 215.2 2.19995C214.6 2.19995 214.067 2.36662 213.6 2.69995C213.2 3.09995 213 3.59995 213 4.19995ZM217 8.5H213.3V20H217V8.5Z" fill="#202020"/>
</svg>
