<svg width="577" height="16" viewBox="0 0 577 16" fill="none" xmlns="http://www.w3.org/2000/svg">
<path d="M9.19977 6.40063V6.90063C9.19977 7.9673 8.99979 8.90068 8.59979 9.70068C8.26646 10.5007 7.76646 11.1007 7.09979 11.5007C6.43313 11.9007 5.6331 12.1008 4.69977 12.1008C3.8331 12.1008 3.06651 11.9007 2.39984 11.5007C1.73317 11.1007 1.23317 10.5007 0.899841 9.70068C0.499841 8.90068 0.299805 8.00073 0.299805 7.00073V6.40063C0.299805 5.33397 0.499841 4.43402 0.899841 3.70068C1.23317 2.90068 1.73317 2.26745 2.39984 1.80078C3.06651 1.40078 3.8331 1.20068 4.69977 1.20068C5.56643 1.20068 6.33315 1.40078 6.99982 1.80078C7.66648 2.20078 8.19979 2.80083 8.59979 3.60083C8.93313 4.40083 9.1331 5.33397 9.19977 6.40063ZM7.29987 6.90063V6.40063C7.29987 5.20063 7.06646 4.30068 6.59979 3.70068C6.19979 3.03402 5.56643 2.70068 4.69977 2.70068C3.89977 2.70068 3.26647 3.03402 2.7998 3.70068C2.3998 4.30068 2.19983 5.16745 2.19983 6.30078V6.90063C2.19983 8.10063 2.3998 9.03402 2.7998 9.70068C3.26647 10.3007 3.89977 10.6008 4.69977 10.6008C5.56643 10.6008 6.19979 10.3007 6.59979 9.70068C7.06646 9.03402 7.29987 8.10063 7.29987 6.90063ZM10.7999 4.10083H12.4998V5.00073C13.0998 4.2674 13.8665 3.90063 14.7999 3.90063C16.4665 3.90063 17.3332 4.86745 17.3998 6.80078V12.0007H15.5998V6.90063C15.5998 6.3673 15.4664 6.00078 15.1998 5.80078C14.9998 5.53411 14.6664 5.40063 14.1998 5.40063C13.4664 5.40063 12.9331 5.73397 12.5998 6.40063V12.0007H10.7999V4.10083ZM21.0998 0.800781V12.0007H19.2999V0.800781H21.0998ZM29.5998 12.0007H27.7999C27.6665 11.8674 27.5665 11.6341 27.4998 11.3008C26.9665 11.9008 26.2998 12.2007 25.4998 12.2007C24.6998 12.2007 24.0332 11.9674 23.4998 11.5007C23.0332 11.0341 22.7999 10.4674 22.7999 9.80078C22.7999 8.93411 23.0998 8.30063 23.6998 7.90063C24.2998 7.43397 25.1998 7.20068 26.3998 7.20068H27.4998V6.70068C27.4998 6.23402 27.3665 5.90068 27.0998 5.70068C26.8998 5.43402 26.5665 5.30078 26.0998 5.30078C25.6998 5.30078 25.3665 5.40083 25.0998 5.60083C24.8331 5.80083 24.6998 6.0673 24.6998 6.40063H22.8998C22.8998 5.93397 23.0665 5.53402 23.3998 5.20068C23.6665 4.80068 24.0332 4.50078 24.4998 4.30078C25.0332 4.10078 25.5998 4.00073 26.1998 4.00073C27.1331 4.00073 27.8665 4.23402 28.3998 4.70068C28.9332 5.16735 29.2332 5.80083 29.2999 6.60083V10.2007C29.2999 10.934 29.3998 11.5006 29.5998 11.9006V12.0007ZM25.7999 10.7007C26.1332 10.7007 26.4665 10.6341 26.7999 10.5007C27.1332 10.3007 27.3665 10.0674 27.4998 9.80078V8.30078H26.4998C25.8332 8.30078 25.3332 8.40083 24.9998 8.60083C24.6665 8.8675 24.4998 9.20083 24.4998 9.60083C24.4998 9.93416 24.6332 10.2006 24.8998 10.4006C25.0998 10.6006 25.3999 10.7007 25.7999 10.7007ZM32.0998 4.10083L33.7999 9.50073L35.3998 4.10083H37.2999L34.1998 13.2007C33.6664 14.534 32.8331 15.2007 31.6998 15.2007C31.4331 15.2007 31.1332 15.1675 30.7999 15.1008V13.7007H31.1998C31.5998 13.7007 31.9331 13.6341 32.1998 13.5007C32.3998 13.3007 32.5664 13.0008 32.6998 12.6008L32.9998 12.0007L30.1998 4.10083H32.0998ZM38.2999 4.10083H39.9998V5.00073C40.5998 4.2674 41.3665 3.90063 42.2999 3.90063C43.9665 3.90063 44.7999 4.86745 44.7999 6.80078V12.0007H43.0998V6.90063C43.0998 6.3673 42.9664 6.00078 42.6998 5.80078C42.4998 5.53411 42.1664 5.40063 41.6998 5.40063C40.9664 5.40063 40.4331 5.73397 40.0998 6.40063V12.0007H38.2999V4.10083ZM50.7999 2.20068H52.5998V4.10083H53.9998V5.40063H52.5998V9.80078C52.5998 10.1341 52.6665 10.3674 52.7999 10.5007C52.9332 10.6341 53.1332 10.7007 53.3998 10.7007C53.5998 10.7007 53.8331 10.6675 54.0998 10.6008V12.0007C53.6331 12.1341 53.2332 12.2007 52.8998 12.2007C51.4998 12.2007 50.7999 11.434 50.7999 9.90063V5.40063H49.4998V4.10083H50.7999V2.20068ZM61.8998 12.1008H60.0998C60.0331 11.9008 59.9665 11.6341 59.8998 11.3008C59.3665 11.9008 58.6665 12.2007 57.7999 12.2007C56.9999 12.2007 56.3665 11.9674 55.8998 11.5007C55.3665 11.0341 55.0998 10.4674 55.0998 9.80078C55.0998 9.00078 55.4331 8.3673 56.0998 7.90063C56.6998 7.43397 57.5999 7.20068 58.7999 7.20068H59.7999V6.70068C59.7999 6.30068 59.6998 5.96735 59.4998 5.70068C59.2998 5.43402 58.9665 5.30078 58.4998 5.30078C58.0332 5.30078 57.6998 5.40083 57.4998 5.60083C57.2332 5.80083 57.0998 6.0673 57.0998 6.40063H55.2999C55.2999 6.00063 55.4331 5.60068 55.6998 5.20068C56.0331 4.80068 56.4332 4.50078 56.8998 4.30078C57.3665 4.10078 57.9331 4.00073 58.5998 4.00073C59.4665 4.00073 60.1999 4.23402 60.7999 4.70068C61.3332 5.16735 61.5998 5.80083 61.5998 6.60083V10.2007C61.5998 10.934 61.6998 11.5006 61.8998 11.9006V12.1008ZM58.1998 10.8008C58.5331 10.8008 58.8331 10.7342 59.0998 10.6008C59.4331 10.4008 59.6665 10.1673 59.7999 9.90063V8.40063H58.8998C58.2332 8.40063 57.7332 8.53411 57.3998 8.80078C57.0665 9.00078 56.8998 9.30068 56.8998 9.70068C56.8998 10.034 56.9998 10.3007 57.1998 10.5007C57.4664 10.7007 57.7998 10.8008 58.1998 10.8008ZM64.3998 0.900635V1.80078L64.1998 4.70068H63.0998V0.900635H64.3998ZM67.6998 0.900635V12.1008H65.9998V0.900635H67.6998ZM71.4998 4.20068V12.1008H69.6998V4.20068H71.4998ZM69.5998 2.10083C69.5998 1.83416 69.6998 1.63407 69.8998 1.50073C70.0332 1.30073 70.2665 1.20068 70.5998 1.20068C70.9331 1.20068 71.1998 1.30073 71.3998 1.50073C71.5332 1.63407 71.5998 1.83416 71.5998 2.10083C71.5998 2.3675 71.5332 2.60078 71.3998 2.80078C71.1998 3.00078 70.9331 3.10083 70.5998 3.10083C70.2665 3.10083 70.0332 3.00078 69.8998 2.80078C69.6998 2.60078 69.5998 2.3675 69.5998 2.10083ZM73.3998 4.20068H75.0998L75.1998 5.00073C75.7331 4.40073 76.4998 4.10083 77.4998 4.10083C78.4998 4.10083 79.1998 4.50078 79.5998 5.30078C80.1998 4.50078 81.0331 4.10083 82.0998 4.10083C82.9665 4.10083 83.5998 4.33411 83.9998 4.80078C84.4665 5.26745 84.6998 5.9673 84.6998 6.90063V12.1008H82.8998V7.00073C82.8998 6.4674 82.7998 6.10063 82.5998 5.90063C82.3331 5.63397 81.9665 5.50073 81.4998 5.50073C81.0998 5.50073 80.7665 5.60078 80.4998 5.80078C80.2332 6.06745 80.0332 6.36735 79.8998 6.70068V12.1008H78.1998V6.90063C78.1331 5.9673 77.6331 5.50073 76.6998 5.50073C76.0331 5.50073 75.5331 5.80063 75.1998 6.40063V12.1008H73.3998V4.20068ZM94.6998 10.0007C94.6998 9.6674 94.5665 9.43411 94.2999 9.30078C94.0332 9.10078 93.5998 8.93411 92.9998 8.80078C92.3998 8.66745 91.8998 8.53397 91.4998 8.40063C90.5665 7.93397 90.0998 7.30073 90.0998 6.50073C90.0998 5.83407 90.3998 5.26745 90.9998 4.80078C91.5998 4.33411 92.3331 4.10083 93.1998 4.10083C94.1331 4.10083 94.8998 4.33411 95.4998 4.80078C96.0998 5.26745 96.3998 5.8675 96.3998 6.60083H94.5998C94.5998 6.2675 94.4664 6.00078 94.1998 5.80078C93.9331 5.53411 93.5998 5.40063 93.1998 5.40063C92.7998 5.40063 92.4664 5.50068 92.1998 5.70068C91.9998 5.90068 91.8998 6.13397 91.8998 6.40063C91.8998 6.6673 91.9998 6.8674 92.1998 7.00073C92.4664 7.20073 92.9331 7.3674 93.5998 7.50073C94.3331 7.63407 94.8664 7.83416 95.1998 8.10083C95.5998 8.30083 95.8998 8.53411 96.0998 8.80078C96.2998 9.13411 96.3998 9.50063 96.3998 9.90063C96.3998 10.634 96.0998 11.2008 95.4998 11.6008C94.9665 12.0675 94.1998 12.3008 93.1998 12.3008C92.5331 12.3008 91.9665 12.1673 91.4998 11.9006C90.9665 11.7006 90.5665 11.4007 90.2999 11.0007C90.0332 10.6007 89.8998 10.1674 89.8998 9.70068H91.5998C91.5998 10.1007 91.7665 10.4008 92.0998 10.6008C92.3665 10.8675 92.7331 11.0007 93.1998 11.0007C93.6664 11.0007 94.0332 10.9007 94.2999 10.7007C94.5665 10.5007 94.6998 10.2674 94.6998 10.0007ZM97.5998 8.20068V8.10083C97.5998 7.3675 97.7665 6.6674 98.0998 6.00073C98.4331 5.40073 98.8665 4.93416 99.3998 4.60083C99.9332 4.2675 100.567 4.10083 101.3 4.10083C102.367 4.10083 103.233 4.43416 103.9 5.10083C104.567 5.7675 104.933 6.70063 105 7.90063V8.30078C105 9.03411 104.866 9.73397 104.6 10.4006C104.266 11.0006 103.833 11.4674 103.3 11.8008C102.7 12.1341 102.033 12.3008 101.3 12.3008C100.233 12.3008 99.3331 11.934 98.5998 11.2007C97.9331 10.4674 97.5998 9.46735 97.5998 8.20068ZM99.3998 8.30078C99.3998 9.10078 99.5665 9.73402 99.8998 10.2007C100.233 10.6674 100.7 10.9006 101.3 10.9006C101.9 10.9006 102.366 10.6674 102.7 10.2007C103.033 9.73402 103.2 9.03416 103.2 8.10083C103.2 7.30083 103.033 6.66735 102.7 6.20068C102.366 5.73402 101.9 5.50073 101.3 5.50073C100.7 5.50073 100.233 5.73402 99.8998 6.20068C99.5665 6.66735 99.3998 7.36745 99.3998 8.30078ZM108.3 0.900635V5.10083C108.833 4.43416 109.566 4.10083 110.5 4.10083C112.166 4.10083 113 5.0674 113 7.00073V12.2007H111.3V7.00073C111.3 6.4674 111.167 6.10063 110.9 5.90063C110.7 5.63397 110.367 5.50073 109.9 5.50073C109.167 5.50073 108.633 5.83407 108.3 6.50073V12.2007H106.5V0.900635H108.3ZM121.4 12.2007H119.6C119.533 12.0007 119.467 11.734 119.4 11.4006C118.8 12.0006 118.1 12.3008 117.3 12.3008C116.5 12.3008 115.867 12.0675 115.4 11.6008C114.867 11.1342 114.6 10.5673 114.6 9.90063C114.6 9.10063 114.9 8.4674 115.5 8.00073C116.166 7.53407 117.066 7.30078 118.2 7.30078H119.3V6.80078C119.3 6.40078 119.2 6.06745 119 5.80078C118.733 5.53411 118.367 5.40063 117.9 5.40063C117.5 5.40063 117.167 5.50068 116.9 5.70068C116.7 5.90068 116.6 6.1674 116.6 6.50073H114.8C114.8 6.10073 114.933 5.70078 115.2 5.30078C115.466 4.90078 115.867 4.60063 116.4 4.40063C116.867 4.20063 117.4 4.10083 118 4.10083C118.933 4.10083 119.7 4.33411 120.3 4.80078C120.833 5.26745 121.1 5.90068 121.1 6.70068V10.3008C121.1 11.0341 121.2 11.6007 121.4 12.0007V12.2007ZM117.6 10.9006C118 10.9006 118.333 10.834 118.6 10.7007C118.933 10.5007 119.167 10.2674 119.3 10.0007V8.50073H118.4C117.733 8.50073 117.233 8.63397 116.9 8.90063C116.567 9.10063 116.4 9.40078 116.4 9.80078C116.4 10.1341 116.5 10.4008 116.7 10.6008C116.966 10.8008 117.266 10.9006 117.6 10.9006ZM127.4 10.1008C127.4 9.7675 127.266 9.50078 127 9.30078C126.733 9.16745 126.3 9.03397 125.7 8.90063C125.1 8.7673 124.6 8.60063 124.2 8.40063C123.333 8.00063 122.9 7.40083 122.9 6.60083C122.9 5.8675 123.166 5.26745 123.7 4.80078C124.3 4.40078 125.033 4.20068 125.9 4.20068C126.9 4.20068 127.666 4.43397 128.2 4.90063C128.8 5.3673 129.1 5.96735 129.1 6.70068H127.3C127.3 6.36735 127.167 6.06745 126.9 5.80078C126.7 5.60078 126.367 5.50073 125.9 5.50073C125.567 5.50073 125.266 5.60078 125 5.80078C124.733 5.93411 124.6 6.1674 124.6 6.50073C124.6 6.7674 124.733 6.9675 125 7.10083C125.2 7.23416 125.633 7.40083 126.3 7.60083C127.033 7.73416 127.6 7.90083 128 8.10083C128.4 8.30083 128.7 8.5673 128.9 8.90063C129.1 9.1673 129.2 9.53407 129.2 10.0007C129.2 10.6674 128.9 11.234 128.3 11.7007C127.7 12.1674 126.933 12.4006 126 12.4006C125.333 12.4006 124.733 12.2674 124.2 12.0007C123.733 11.8007 123.333 11.5008 123 11.1008C122.733 10.6342 122.6 10.1674 122.6 9.70068H124.3C124.367 10.1674 124.533 10.5007 124.8 10.7007C125.133 10.9007 125.533 11.0007 126 11.0007C126.466 11.0007 126.833 10.9341 127.1 10.8008C127.3 10.6008 127.4 10.3675 127.4 10.1008ZM132.6 4.30078V12.2007H130.8V4.30078H132.6ZM130.7 2.20068C130.7 1.93402 130.8 1.73416 131 1.60083C131.2 1.40083 131.433 1.30078 131.7 1.30078C132.033 1.30078 132.3 1.40083 132.5 1.60083C132.7 1.73416 132.8 1.93402 132.8 2.20068C132.8 2.46735 132.7 2.70063 132.5 2.90063C132.3 3.10063 132.033 3.20068 131.7 3.20068C131.433 3.20068 131.2 3.10063 131 2.90063C130.8 2.70063 130.7 2.46735 130.7 2.20068ZM134.2 8.20068C134.2 7.00068 134.5 6.03411 135.1 5.30078C135.633 4.56745 136.4 4.20068 137.4 4.20068C138.2 4.20068 138.867 4.4674 139.4 5.00073V1.00073H141.2V12.2007H139.6L139.5 11.4006C138.966 12.0673 138.233 12.4006 137.3 12.4006C136.433 12.4006 135.7 12.0341 135.1 11.3008C134.5 10.5008 134.2 9.46735 134.2 8.20068ZM136 8.40063C136 9.20063 136.166 9.80068 136.5 10.2007C136.766 10.6674 137.2 10.9006 137.8 10.9006C138.533 10.9006 139.067 10.5673 139.4 9.90063V6.60083C139.067 5.93416 138.533 5.60083 137.8 5.60083C137.267 5.60083 136.833 5.83411 136.5 6.30078C136.166 6.76745 136 7.4673 136 8.40063ZM149.6 12.2007H147.8C147.733 12.0674 147.666 11.8341 147.6 11.5007C147 12.1007 146.3 12.4006 145.5 12.4006C144.7 12.4006 144.033 12.1674 143.5 11.7007C143.033 11.234 142.8 10.6674 142.8 10.0007C142.8 9.13407 143.1 8.50083 143.7 8.10083C144.366 7.63416 145.267 7.40063 146.4 7.40063H147.5V6.90063C147.5 6.50063 147.4 6.1673 147.2 5.90063C146.933 5.63397 146.566 5.50073 146.1 5.50073C145.7 5.50073 145.366 5.60078 145.1 5.80078C144.833 6.00078 144.7 6.2675 144.7 6.60083H143C143 6.13416 143.133 5.73397 143.4 5.40063C143.667 5.00063 144.066 4.70073 144.6 4.50073C145.066 4.30073 145.6 4.20068 146.2 4.20068C147.133 4.20068 147.867 4.43397 148.4 4.90063C149 5.3673 149.3 6.00078 149.3 6.80078V10.4006C149.3 11.134 149.4 11.7008 149.6 12.1008V12.2007ZM145.8 10.9006C146.133 10.9006 146.467 10.834 146.8 10.7007C147.133 10.5007 147.366 10.2674 147.5 10.0007V8.50073H146.5C145.9 8.50073 145.433 8.60078 145.1 8.80078C144.766 9.06745 144.6 9.40078 144.6 9.80078C144.6 10.1341 144.7 10.4008 144.9 10.6008C145.1 10.8008 145.4 10.9006 145.8 10.9006ZM156.7 7.30078L155.2 6.90063L155.8 1.50073H161.6V3.10083H157.3L157 5.60083C157.533 5.33416 158.1 5.20068 158.7 5.20068C159.7 5.20068 160.466 5.53402 161 6.20068C161.6 6.80068 161.9 7.66745 161.9 8.80078C161.9 9.86745 161.6 10.734 161 11.4006C160.333 12.0006 159.467 12.3008 158.4 12.3008C157.4 12.3008 156.6 12.0341 156 11.5007C155.333 10.9674 154.967 10.2341 154.9 9.30078H156.6C156.666 9.83411 156.866 10.2341 157.2 10.5007C157.533 10.7674 157.933 10.9006 158.4 10.9006C158.933 10.9006 159.366 10.7008 159.7 10.3008C159.966 9.96745 160.1 9.43402 160.1 8.70068C160.1 8.10068 159.933 7.60068 159.6 7.20068C159.266 6.80068 158.8 6.60083 158.2 6.60083C157.866 6.60083 157.6 6.66745 157.4 6.80078C157.2 6.86745 156.966 7.03411 156.7 7.30078ZM168.2 4.30078L169.9 9.70068L171.5 4.30078H173.4L170.3 13.4006C169.833 14.734 169 15.4006 167.8 15.4006C167.533 15.4006 167.266 15.3674 167 15.3008V13.9006H167.3C167.767 13.9006 168.1 13.834 168.3 13.7007C168.567 13.5007 168.733 13.2008 168.8 12.8008L169.1 12.2007L166.3 4.30078H168.2ZM176.3 4.30078V12.2007H174.5V4.30078H176.3ZM174.5 2.20068C174.5 1.93402 174.566 1.70073 174.7 1.50073C174.9 1.3674 175.166 1.30078 175.5 1.30078C175.766 1.30078 176 1.3674 176.2 1.50073C176.4 1.70073 176.5 1.93402 176.5 2.20068C176.5 2.46735 176.4 2.70063 176.2 2.90063C176 3.10063 175.766 3.20068 175.5 3.20068C175.166 3.20068 174.9 3.10063 174.7 2.90063C174.566 2.70063 174.5 2.46735 174.5 2.20068ZM180.2 1.00073V12.2007H178.4V1.00073H180.2ZM181.8 8.20068C181.8 7.00068 182.066 6.00068 182.6 5.20068C183.2 4.46735 183.967 4.10083 184.9 4.10083C185.767 4.10083 186.466 4.40073 187 5.00073V1.00073H188.7V12.2007H187.1L187 11.4006C186.466 12.0006 185.767 12.3008 184.9 12.3008C183.967 12.3008 183.233 11.934 182.7 11.2007C182.1 10.4674 181.8 9.46735 181.8 8.20068ZM183.6 8.30078C183.6 9.10078 183.733 9.73402 184 10.2007C184.333 10.6674 184.8 10.9006 185.4 10.9006C186.133 10.9006 186.666 10.5673 187 9.90063V6.50073C186.666 5.90073 186.133 5.60083 185.4 5.60083C184.8 5.60083 184.333 5.83411 184 6.30078C183.733 6.76745 183.6 7.43411 183.6 8.30078ZM197.1 12.2007H195.3C195.233 12.0674 195.166 11.8341 195.1 11.5007C194.566 12.0341 193.866 12.3008 193 12.3008C192.266 12.3008 191.633 12.1007 191.1 11.7007C190.566 11.234 190.3 10.6674 190.3 10.0007C190.3 9.13407 190.633 8.4674 191.3 8.00073C191.9 7.60073 192.8 7.40063 194 7.40063H195.1V6.80078C195.1 6.40078 194.966 6.10063 194.7 5.90063C194.5 5.63397 194.166 5.50073 193.7 5.50073C193.3 5.50073 192.966 5.60078 192.7 5.80078C192.433 6.00078 192.3 6.2675 192.3 6.60083H190.5C190.5 6.13416 190.633 5.70078 190.9 5.30078C191.233 4.96745 191.633 4.70073 192.1 4.50073C192.633 4.23407 193.2 4.10083 193.8 4.10083C194.733 4.10083 195.466 4.33411 196 4.80078C196.533 5.26745 196.8 5.93411 196.8 6.80078V10.4006C196.8 11.0673 196.9 11.6342 197.1 12.1008V12.2007ZM193.4 10.9006C193.733 10.9006 194.067 10.8008 194.4 10.6008C194.667 10.4675 194.9 10.2674 195.1 10.0007V8.50073H194.1C193.433 8.50073 192.933 8.60078 192.6 8.80078C192.266 9.00078 192.1 9.33411 192.1 9.80078C192.1 10.1341 192.233 10.4008 192.5 10.6008C192.7 10.8008 193 10.9006 193.4 10.9006ZM198.7 4.30078H200.4V5.20068C201 4.46735 201.766 4.10083 202.7 4.10083C204.366 4.10083 205.2 5.03397 205.2 6.90063V12.2007H203.5V7.00073C203.5 6.53407 203.366 6.1673 203.1 5.90063C202.9 5.70063 202.566 5.60083 202.1 5.60083C201.366 5.60083 200.833 5.90073 200.5 6.50073V12.2007H198.7V4.30078ZM210.5 8.30078V8.20068C210.5 7.40068 210.633 6.70083 210.9 6.10083C211.233 5.43416 211.666 4.93416 212.2 4.60083C212.8 4.2675 213.433 4.10083 214.1 4.10083C215.166 4.10083 216.033 4.46735 216.7 5.20068C217.366 5.86735 217.733 6.7673 217.8 7.90063V8.30078C217.8 9.10078 217.667 9.80063 217.4 10.4006C217.067 11.0006 216.633 11.4674 216.1 11.8008C215.5 12.1341 214.833 12.3008 214.1 12.3008C213.033 12.3008 212.166 11.934 211.5 11.2007C210.833 10.4674 210.5 9.50078 210.5 8.30078ZM212.2 8.30078C212.2 9.10078 212.366 9.73402 212.7 10.2007C213.033 10.6674 213.5 10.9006 214.1 10.9006C214.766 10.9006 215.233 10.6674 215.5 10.2007C215.9 9.73402 216.1 9.06735 216.1 8.20068C216.1 7.40068 215.9 6.76745 215.5 6.30078C215.166 5.83411 214.7 5.60083 214.1 5.60083C213.566 5.60083 213.133 5.83411 212.8 6.30078C212.4 6.70078 212.2 7.36745 212.2 8.30078ZM223.5 4.20068V5.90063C223.233 5.83397 223 5.80078 222.8 5.80078C221.933 5.80078 221.366 6.13411 221.1 6.80078V12.2007H219.3V4.30078H221L221.1 5.20068C221.5 4.46735 222.1 4.10083 222.9 4.10083C223.1 4.10083 223.3 4.13402 223.5 4.20068ZM225.4 2.40063H227.2V4.30078H228.6V5.60083H227.2V10.0007C227.2 10.3341 227.267 10.5674 227.4 10.7007C227.533 10.834 227.733 10.9006 228 10.9006C228.2 10.9006 228.4 10.8674 228.6 10.8008V12.2007C228.2 12.2674 227.833 12.3008 227.5 12.3008C226.1 12.3008 225.4 11.5675 225.4 10.1008V5.60083H224.1V4.30078H225.4V2.40063ZM231.9 4.30078V12.2007H230.1V4.30078H231.9ZM230 2.20068C230 1.93402 230.066 1.73416 230.2 1.60083C230.4 1.40083 230.666 1.30078 231 1.30078C231.333 1.30078 231.566 1.40083 231.7 1.60083C231.9 1.73416 232 1.93402 232 2.20068C232 2.46735 231.9 2.70063 231.7 2.90063C231.566 3.10063 231.333 3.20068 231 3.20068C230.666 3.20068 230.4 3.10063 230.2 2.90063C230.066 2.70063 230 2.46735 230 2.20068ZM233.5 8.20068C233.5 6.93402 233.767 5.93402 234.3 5.20068C234.9 4.53402 235.666 4.20068 236.6 4.20068C237.533 4.20068 238.233 4.50083 238.7 5.10083L238.8 4.30078H240.4V15.3008H238.6V11.6008C238.133 12.1342 237.466 12.4006 236.6 12.4006C235.666 12.4006 234.9 12.0341 234.3 11.3008C233.767 10.5674 233.5 9.53402 233.5 8.20068ZM235.3 8.40063C235.3 9.20063 235.433 9.83411 235.7 10.3008C236.033 10.7674 236.5 11.0007 237.1 11.0007C237.766 11.0007 238.266 10.7008 238.6 10.1008V6.50073C238.266 5.90073 237.766 5.60083 237.1 5.60083C236.5 5.60083 236.033 5.83411 235.7 6.30078C235.433 6.70078 235.3 7.40063 235.3 8.40063ZM246.5 2.40063H248.3V4.30078H249.7V5.60083H248.3V10.0007C248.3 10.3341 248.366 10.5674 248.5 10.7007C248.633 10.834 248.833 10.9006 249.1 10.9006C249.3 10.9006 249.5 10.8674 249.7 10.8008V12.2007C249.3 12.334 248.933 12.4006 248.6 12.4006C247.2 12.4006 246.5 11.6342 246.5 10.1008V5.60083H245.2V4.30078H246.5V2.40063ZM257.6 12.3008H255.8C255.733 12.1008 255.666 11.8341 255.6 11.5007C255 12.1007 254.3 12.4006 253.5 12.4006C252.7 12.4006 252.066 12.1674 251.6 11.7007C251.066 11.234 250.8 10.6674 250.8 10.0007C250.8 9.20073 251.1 8.5675 251.7 8.10083C252.366 7.63416 253.267 7.40063 254.4 7.40063H255.5V6.90063C255.5 6.50063 255.4 6.1673 255.2 5.90063C254.933 5.63397 254.566 5.50073 254.1 5.50073C253.7 5.50073 253.366 5.60078 253.1 5.80078C252.833 6.00078 252.7 6.2675 252.7 6.60083H251C251 6.20083 251.133 5.80063 251.4 5.40063C251.667 5.00063 252.066 4.70073 252.6 4.50073C253.066 4.30073 253.6 4.20068 254.2 4.20068C255.133 4.20068 255.9 4.43397 256.5 4.90063C257.033 5.3673 257.3 6.03397 257.3 6.90063V10.4006C257.3 11.134 257.4 11.7008 257.6 12.1008V12.3008ZM253.8 11.0007C254.2 11.0007 254.533 10.9341 254.8 10.8008C255.133 10.6008 255.366 10.3675 255.5 10.1008V8.60083H254.6C253.933 8.60083 253.433 8.73407 253.1 9.00073C252.766 9.20073 252.6 9.50063 252.6 9.90063C252.6 10.234 252.7 10.5007 252.9 10.7007C253.167 10.9007 253.467 11.0007 253.8 11.0007ZM259.2 4.40063H261V13.0007C261 13.8007 260.8 14.434 260.4 14.9006C260 15.3006 259.4 15.5007 258.6 15.5007C258.333 15.5007 258.033 15.4673 257.7 15.4006V14.0007C257.9 14.0674 258.1 14.1008 258.3 14.1008C258.9 14.1008 259.2 13.7675 259.2 13.1008V4.40063ZM259.1 2.30078C259.1 2.03411 259.167 1.83402 259.3 1.70068C259.5 1.50068 259.766 1.40063 260.1 1.40063C260.433 1.40063 260.667 1.50068 260.8 1.70068C261 1.83402 261.1 2.03411 261.1 2.30078C261.1 2.56745 261 2.80073 260.8 3.00073C260.667 3.20073 260.433 3.30078 260.1 3.30078C259.766 3.30078 259.5 3.20073 259.3 3.00073C259.167 2.80073 259.1 2.56745 259.1 2.30078ZM267.1 4.40063V6.00073C266.833 6.00073 266.567 6.00073 266.3 6.00073C265.5 6.00073 264.966 6.30063 264.7 6.90063V12.3008H262.9V4.40063H264.6L264.7 5.30078C265.1 4.63411 265.667 4.30078 266.4 4.30078C266.667 4.30078 266.9 4.33397 267.1 4.40063ZM270.1 4.40063V12.3008H268.3V4.40063H270.1ZM268.2 2.30078C268.2 2.03411 268.3 1.83402 268.5 1.70068C268.633 1.50068 268.866 1.40063 269.2 1.40063C269.533 1.40063 269.8 1.50068 270 1.70068C270.133 1.83402 270.2 2.03411 270.2 2.30078C270.2 2.56745 270.133 2.80073 270 3.00073C269.8 3.20073 269.533 3.30078 269.2 3.30078C268.866 3.30078 268.633 3.20073 268.5 3.00073C268.3 2.80073 268.2 2.56745 268.2 2.30078ZM279 8.30078V8.40063C279 9.6673 278.733 10.6673 278.2 11.4006C277.666 12.134 276.9 12.5007 275.9 12.5007C274.967 12.5007 274.233 12.1674 273.7 11.5007V12.3008H272V1.10083H273.8V5.20068C274.333 4.60068 275.033 4.30078 275.9 4.30078C276.833 4.30078 277.6 4.63411 278.2 5.30078C278.733 6.03411 279 7.03411 279 8.30078ZM277.2 8.50073V8.30078C277.2 7.43411 277.067 6.80063 276.8 6.40063C276.467 5.93397 276 5.70068 275.4 5.70068C274.667 5.70068 274.133 6.03402 273.8 6.70068V10.0007C274.133 10.6674 274.7 11.0007 275.5 11.0007C276.033 11.0007 276.467 10.8006 276.8 10.4006C277.067 10.0006 277.2 9.3674 277.2 8.50073ZM287 12.3008H285.2C285.133 12.1674 285.066 11.9342 285 11.6008C284.466 12.2008 283.767 12.5007 282.9 12.5007C282.1 12.5007 281.466 12.2674 281 11.8008C280.466 11.3341 280.2 10.7675 280.2 10.1008C280.2 9.23416 280.533 8.60068 281.2 8.20068C281.8 7.73402 282.7 7.50073 283.9 7.50073H285V7.00073C285 6.53407 284.866 6.20073 284.6 6.00073C284.4 5.73407 284.066 5.60083 283.6 5.60083C283.2 5.60083 282.866 5.70063 282.6 5.90063C282.333 6.10063 282.2 6.36735 282.2 6.70068H280.4C280.4 6.23402 280.533 5.83407 280.8 5.50073C281.133 5.10073 281.533 4.80083 282 4.60083C282.533 4.40083 283.1 4.30078 283.7 4.30078C284.633 4.30078 285.367 4.53407 285.9 5.00073C286.433 5.4674 286.7 6.10063 286.7 6.90063V10.5007C286.7 11.2341 286.8 11.8007 287 12.2007V12.3008ZM283.3 11.0007C283.633 11.0007 283.967 10.9341 284.3 10.8008C284.567 10.6008 284.8 10.3675 285 10.1008V8.60083H284C283.333 8.60083 282.833 8.70063 282.5 8.90063C282.166 9.1673 282 9.50063 282 9.90063C282 10.234 282.133 10.5007 282.4 10.7007C282.6 10.9007 282.9 11.0007 283.3 11.0007ZM288.6 4.40063H290.3V5.20068C290.9 4.53402 291.666 4.20068 292.6 4.20068C293.666 4.20068 294.4 4.60063 294.8 5.40063C295.4 4.60063 296.2 4.20068 297.2 4.20068C298.066 4.20068 298.733 4.4674 299.2 5.00073C299.6 5.4674 299.8 6.1675 299.8 7.10083V12.3008H298.1V7.10083C298.1 6.63416 297.966 6.2674 297.7 6.00073C297.5 5.80073 297.133 5.70068 296.6 5.70068C296.2 5.70068 295.866 5.80073 295.6 6.00073C295.4 6.20073 295.233 6.50063 295.1 6.90063V12.3008H293.3V7.10083C293.3 6.1675 292.833 5.70068 291.9 5.70068C291.167 5.70068 290.667 6.00083 290.4 6.60083V12.3008H288.6V4.40063ZM303.6 4.40063V12.3008H301.8V4.40063H303.6ZM301.7 2.30078C301.7 2.03411 301.767 1.83402 301.9 1.70068C302.1 1.50068 302.366 1.40063 302.7 1.40063C303.033 1.40063 303.267 1.50068 303.4 1.70068C303.6 1.83402 303.7 2.03411 303.7 2.30078C303.7 2.56745 303.6 2.80073 303.4 3.00073C303.267 3.20073 303.033 3.30078 302.7 3.30078C302.366 3.30078 302.1 3.20073 301.9 3.00073C301.767 2.80073 301.7 2.56745 301.7 2.30078ZM311.5 5.50073L307.4 10.9006H311.6V12.3008H305.2V11.2007L309.2 5.80078H305.3V4.40063H311.5V5.50073ZM323.7 8.30078V8.40063C323.7 9.6673 323.433 10.6673 322.9 11.4006C322.367 12.0673 321.633 12.4006 320.7 12.4006C319.766 12.4006 319.033 12.0673 318.5 11.4006L318.4 12.3008H316.8V1.00073H318.6V5.10083C319.066 4.50083 319.733 4.20068 320.6 4.20068C321.6 4.20068 322.367 4.56745 322.9 5.30078C323.433 6.03411 323.7 7.03411 323.7 8.30078ZM322 8.50073V8.30078C322 7.43411 321.833 6.76745 321.5 6.30078C321.233 5.90078 320.8 5.70068 320.2 5.70068C319.4 5.70068 318.866 6.03402 318.6 6.70068V10.0007C318.866 10.6674 319.4 11.0007 320.2 11.0007C320.733 11.0007 321.166 10.8006 321.5 10.4006C321.766 9.93397 321.933 9.30073 322 8.50073ZM327.1 4.40063V12.3008H325.3V4.40063H327.1ZM325.3 2.30078C325.3 2.03411 325.366 1.80083 325.5 1.60083C325.7 1.4675 325.967 1.40063 326.3 1.40063C326.567 1.40063 326.8 1.4675 327 1.60083C327.2 1.80083 327.3 2.03411 327.3 2.30078C327.3 2.56745 327.2 2.80073 327 3.00073C326.8 3.20073 326.567 3.30078 326.3 3.30078C325.967 3.30078 325.7 3.20073 325.5 3.00073C325.366 2.80073 325.3 2.56745 325.3 2.30078ZM331 1.00073V12.3008H329.2V1.00073H331ZM339.5 12.3008H337.7C337.633 12.1674 337.566 11.9342 337.5 11.6008C336.9 12.1342 336.2 12.4006 335.4 12.4006C334.6 12.4006 333.933 12.2008 333.4 11.8008C332.933 11.3341 332.7 10.7675 332.7 10.1008C332.7 9.23416 333 8.5675 333.6 8.10083C334.266 7.70083 335.167 7.50073 336.3 7.50073H337.4V6.90063C337.4 6.50063 337.3 6.20073 337.1 6.00073C336.833 5.73407 336.466 5.60083 336 5.60083C335.6 5.60083 335.266 5.70063 335 5.90063C334.733 6.10063 334.6 6.36735 334.6 6.70068H332.9C332.9 6.23402 333.033 5.80063 333.3 5.40063C333.567 5.0673 333.966 4.7674 334.5 4.50073C334.966 4.30073 335.5 4.20068 336.1 4.20068C337.033 4.20068 337.767 4.43397 338.3 4.90063C338.9 5.3673 339.2 6.03397 339.2 6.90063V10.5007C339.2 11.1674 339.3 11.734 339.5 12.2007V12.3008ZM335.7 11.0007C336.033 11.0007 336.366 10.9007 336.7 10.7007C337.033 10.5674 337.267 10.3341 337.4 10.0007V8.60083H336.4C335.8 8.60083 335.333 8.70063 335 8.90063C334.666 9.10063 334.5 9.43397 334.5 9.90063C334.5 10.234 334.6 10.5007 334.8 10.7007C335 10.9007 335.3 11.0007 335.7 11.0007ZM341 4.30078H342.7L342.8 5.30078C343.333 4.56745 344.1 4.20068 345.1 4.20068C346.7 4.20068 347.533 5.13407 347.6 7.00073V12.3008H345.8V7.10083C345.8 6.63416 345.7 6.2674 345.5 6.00073C345.233 5.80073 344.867 5.70068 344.4 5.70068C343.667 5.70068 343.133 6.00083 342.8 6.60083V12.3008H341V4.30078ZM357.6 10.0007C357.6 9.73407 357.466 9.50078 357.2 9.30078C356.933 9.16745 356.5 9.03397 355.9 8.90063C355.3 8.7673 354.8 8.60063 354.4 8.40063C353.467 8.00063 353 7.3674 353 6.50073C353 5.83407 353.3 5.26745 353.9 4.80078C354.5 4.33411 355.233 4.10083 356.1 4.10083C357.033 4.10083 357.8 4.33411 358.4 4.80078C359 5.26745 359.3 5.90068 359.3 6.70068H357.5C357.5 6.30068 357.366 6.00078 357.1 5.80078C356.833 5.60078 356.5 5.50073 356.1 5.50073C355.7 5.50073 355.366 5.56735 355.1 5.70068C354.9 5.90068 354.8 6.1674 354.8 6.50073C354.8 6.7674 354.9 6.9675 355.1 7.10083C355.366 7.23416 355.833 7.40083 356.5 7.60083C357.166 7.73416 357.7 7.90083 358.1 8.10083C358.5 8.30083 358.8 8.5673 359 8.90063C359.2 9.1673 359.3 9.50063 359.3 9.90063C359.3 10.634 359 11.234 358.4 11.7007C357.8 12.1007 357.033 12.3008 356.1 12.3008C355.433 12.3008 354.867 12.2007 354.4 12.0007C353.867 11.7341 353.466 11.4007 353.2 11.0007C352.933 10.6007 352.8 10.1674 352.8 9.70068H354.5C354.5 10.1007 354.666 10.434 355 10.7007C355.266 10.9007 355.633 11.0007 356.1 11.0007C356.566 11.0007 356.933 10.9007 357.2 10.7007C357.466 10.5674 357.6 10.3341 357.6 10.0007ZM362.8 4.30078V12.2007H361V4.30078H362.8ZM360.9 2.20068C360.9 1.93402 361 1.70073 361.2 1.50073C361.333 1.3674 361.567 1.30078 361.9 1.30078C362.233 1.30078 362.466 1.3674 362.6 1.50073C362.8 1.70073 362.9 1.93402 362.9 2.20068C362.9 2.46735 362.8 2.70063 362.6 2.90063C362.466 3.10063 362.233 3.20068 361.9 3.20068C361.567 3.20068 361.333 3.10063 361.2 2.90063C361 2.70063 360.9 2.46735 360.9 2.20068ZM370.7 5.40063L366.6 10.8008H370.8V12.2007H364.4V11.0007L368.4 5.70068H364.5V4.30078H370.7V5.40063ZM371.8 8.10083C371.8 6.90083 372.1 5.93402 372.7 5.20068C373.3 4.46735 374.066 4.10083 375 4.10083C375.933 4.10083 376.633 4.40073 377.1 5.00073L377.2 4.20068H378.8V11.9006C378.8 12.9673 378.467 13.8006 377.8 14.4006C377.2 15.0006 376.333 15.3008 375.2 15.3008C374.666 15.3008 374.1 15.1673 373.5 14.9006C372.966 14.7006 372.567 14.4007 372.3 14.0007L373.1 12.9006C373.633 13.5673 374.3 13.9006 375.1 13.9006C375.7 13.9006 376.166 13.734 376.5 13.4006C376.833 13.0673 377 12.6007 377 12.0007V11.5007C376.533 12.0341 375.866 12.3008 375 12.3008C374.066 12.3008 373.3 11.934 372.7 11.2007C372.1 10.4674 371.8 9.43416 371.8 8.10083ZM373.6 8.30078C373.6 9.10078 373.766 9.73402 374.1 10.2007C374.433 10.6674 374.867 10.9006 375.4 10.9006C376.133 10.9006 376.666 10.5673 377 9.90063V6.50073C376.666 5.90073 376.166 5.60083 375.5 5.60083C374.9 5.60083 374.433 5.83411 374.1 6.30078C373.766 6.70078 373.6 7.36745 373.6 8.30078ZM387.2 12.2007H385.4C385.333 12.0007 385.266 11.734 385.2 11.4006C384.6 12.0006 383.9 12.3008 383.1 12.3008C382.3 12.3008 381.666 12.0675 381.2 11.6008C380.666 11.2008 380.4 10.6674 380.4 10.0007C380.4 9.13407 380.7 8.4674 381.3 8.00073C381.967 7.53407 382.866 7.30078 384 7.30078H385.1V6.80078C385.1 6.40078 385 6.06745 384.8 5.80078C384.533 5.60078 384.166 5.50073 383.7 5.50073C383.3 5.50073 382.966 5.60078 382.7 5.80078C382.433 6.00078 382.3 6.23407 382.3 6.50073H380.6C380.6 6.10073 380.733 5.70078 381 5.30078C381.266 4.90078 381.666 4.60063 382.2 4.40063C382.666 4.20063 383.2 4.10083 383.8 4.10083C384.733 4.10083 385.5 4.33411 386.1 4.80078C386.633 5.26745 386.9 5.93411 386.9 6.80078V10.3008C386.9 11.0341 387 11.6007 387.2 12.0007V12.2007ZM383.4 11.0007C383.8 11.0007 384.133 10.9007 384.4 10.7007C384.733 10.5674 384.966 10.3341 385.1 10.0007V8.50073H384.2C383.533 8.50073 383.033 8.63397 382.7 8.90063C382.366 9.10063 382.2 9.40078 382.2 9.80078C382.2 10.2008 382.3 10.5007 382.5 10.7007C382.766 10.9007 383.067 11.0007 383.4 11.0007ZM399.1 12.2007H397.2C397.133 12.0674 397.066 11.8341 397 11.5007C396.466 12.1007 395.8 12.4006 395 12.4006C394.2 12.4006 393.533 12.1674 393 11.7007C392.466 11.234 392.2 10.6674 392.2 10.0007C392.2 9.20073 392.533 8.5675 393.2 8.10083C393.8 7.63416 394.7 7.40063 395.9 7.40063H397V6.90063C397 6.50063 396.866 6.1673 396.6 5.90063C396.4 5.63397 396.066 5.50073 395.6 5.50073C395.2 5.50073 394.866 5.60078 394.6 5.80078C394.333 6.00078 394.2 6.2675 394.2 6.60083H392.4C392.4 6.20083 392.533 5.80063 392.8 5.40063C393.133 5.00063 393.533 4.70073 394 4.50073C394.533 4.30073 395.1 4.20068 395.7 4.20068C396.633 4.20068 397.367 4.43397 397.9 4.90063C398.433 5.3673 398.733 6.00078 398.8 6.80078V10.4006C398.8 11.134 398.9 11.7008 399.1 12.1008V12.2007ZM395.3 10.9006C395.633 10.9006 395.967 10.834 396.3 10.7007C396.567 10.5007 396.8 10.2674 397 10.0007V8.50073H396C395.333 8.50073 394.833 8.60078 394.5 8.80078C394.166 9.06745 394 9.40078 394 9.80078C394 10.1341 394.133 10.4008 394.4 10.6008C394.6 10.8008 394.9 10.9006 395.3 10.9006ZM405.1 10.1008C405.1 9.7675 404.966 9.50078 404.7 9.30078C404.433 9.16745 404 9.03397 403.4 8.90063C402.8 8.7673 402.3 8.60063 401.9 8.40063C400.967 8.00063 400.5 7.40083 400.5 6.60083C400.5 5.8675 400.8 5.26745 401.4 4.80078C401.933 4.33411 402.666 4.10083 403.6 4.10083C404.533 4.10083 405.3 4.3673 405.9 4.90063C406.5 5.3673 406.8 5.96735 406.8 6.70068H405C405 6.36735 404.866 6.06745 404.6 5.80078C404.333 5.60078 404 5.50073 403.6 5.50073C403.2 5.50073 402.866 5.60078 402.6 5.80078C402.4 5.93411 402.3 6.1674 402.3 6.50073C402.3 6.7674 402.4 6.9675 402.6 7.10083C402.8 7.23416 403.266 7.40083 404 7.60083C404.666 7.73416 405.2 7.90083 405.6 8.10083C406 8.30083 406.3 8.5673 406.5 8.90063C406.7 9.1673 406.8 9.53407 406.8 10.0007C406.8 10.6674 406.5 11.234 405.9 11.7007C405.3 12.1674 404.533 12.4006 403.6 12.4006C402.933 12.4006 402.367 12.2674 401.9 12.0007C401.367 11.8007 400.966 11.4674 400.7 11.0007C400.433 10.6007 400.3 10.1674 400.3 9.70068H402C402 10.1674 402.166 10.5007 402.5 10.7007C402.766 10.9007 403.133 11.0007 403.6 11.0007C404.066 11.0007 404.433 10.9341 404.7 10.8008C404.966 10.6008 405.1 10.3675 405.1 10.1008ZM408.8 2.40063H410.6V4.30078H412V5.60083H410.6V10.0007C410.6 10.3341 410.667 10.5674 410.8 10.7007C410.867 10.834 411.067 10.9006 411.4 10.9006C411.6 10.9006 411.8 10.8674 412 10.8008V12.2007C411.6 12.334 411.233 12.4006 410.9 12.4006C409.5 12.4006 408.8 11.6342 408.8 10.1008V5.60083H407.5V4.30078H408.8V2.40063ZM412.8 8.30078V8.20068C412.8 7.40068 412.967 6.70083 413.3 6.10083C413.567 5.50083 414 5.03402 414.6 4.70068C415.133 4.36735 415.766 4.20068 416.5 4.20068C417.566 4.20068 418.433 4.53402 419.1 5.20068C419.766 5.86735 420.133 6.7673 420.2 7.90063V8.40063C420.2 9.13397 420.033 9.83407 419.7 10.5007C419.433 11.1007 419 11.5673 418.4 11.9006C417.867 12.234 417.233 12.4006 416.5 12.4006C415.366 12.4006 414.467 12.0341 413.8 11.3008C413.133 10.5674 412.8 9.56745 412.8 8.30078ZM414.6 8.40063C414.6 9.20063 414.766 9.83411 415.1 10.3008C415.433 10.7674 415.9 11.0007 416.5 11.0007C417.1 11.0007 417.567 10.7674 417.9 10.3008C418.233 9.83411 418.4 9.13402 418.4 8.20068C418.4 7.40068 418.233 6.76745 417.9 6.30078C417.567 5.83411 417.1 5.60083 416.5 5.60083C415.9 5.60083 415.433 5.83411 415.1 6.30078C414.766 6.76745 414.6 7.4673 414.6 8.40063ZM422.7 4.30078L424.3 9.70068L425.9 4.30078H427.8L424.7 13.4006C424.233 14.734 423.4 15.4006 422.2 15.4006C421.933 15.4006 421.667 15.3674 421.4 15.3008V13.9006L421.7 14.0007C422.166 14.0007 422.5 13.9007 422.7 13.7007C422.966 13.5674 423.167 13.3006 423.3 12.9006L423.5 12.2007L420.7 4.30078H422.7ZM428.5 8.20068C428.5 7.00068 428.8 6.03411 429.4 5.30078C429.933 4.56745 430.666 4.20068 431.6 4.20068C432.466 4.20068 433.166 4.50083 433.7 5.10083V1.00073H435.5V12.2007H433.8V11.4006C433.267 12.0673 432.533 12.4006 431.6 12.4006C430.666 12.4006 429.933 12.0341 429.4 11.3008C428.8 10.5674 428.5 9.53402 428.5 8.20068ZM430.3 8.40063C430.3 9.20063 430.467 9.83411 430.8 10.3008C431.067 10.7008 431.5 10.9006 432.1 10.9006C432.833 10.9006 433.366 10.6007 433.7 10.0007V6.60083C433.366 5.93416 432.833 5.60083 432.1 5.60083C431.5 5.60083 431.067 5.83411 430.8 6.30078C430.467 6.76745 430.3 7.4673 430.3 8.40063ZM439.2 4.30078V12.2007H437.4V4.30078H439.2ZM437.3 2.30078C437.3 2.03411 437.4 1.80083 437.6 1.60083C437.8 1.40083 438.033 1.30078 438.3 1.30078C438.633 1.30078 438.9 1.40083 439.1 1.60083C439.233 1.80083 439.3 2.03411 439.3 2.30078C439.3 2.56745 439.233 2.7673 439.1 2.90063C438.9 3.10063 438.633 3.20068 438.3 3.20068C438.033 3.20068 437.8 3.10063 437.6 2.90063C437.4 2.7673 437.3 2.56745 437.3 2.30078ZM443.1 1.00073V12.2007H441.3V1.00073H443.1ZM450.1 4.30078L451.6 6.90063L453.1 4.30078H455.1L452.7 8.20068L455.2 12.2007H453.2L451.6 9.50073L450 12.2007H448.1L450.6 8.20068L448.2 4.30078H450.1ZM458.1 4.30078V12.2007H456.3V4.30078H458.1ZM456.3 2.30078C456.3 2.03411 456.366 1.80083 456.5 1.60083C456.7 1.40083 456.967 1.30078 457.3 1.30078C457.567 1.30078 457.8 1.40083 458 1.60083C458.2 1.80083 458.3 2.03411 458.3 2.30078C458.3 2.56745 458.2 2.7673 458 2.90063C457.8 3.10063 457.567 3.20068 457.3 3.20068C456.967 3.20068 456.7 3.10063 456.5 2.90063C456.366 2.7673 456.3 2.56745 456.3 2.30078ZM466 5.40063L462 10.8008H466.2V12.2007H459.8V11.1008L463.8 5.80078H459.8V4.30078H466V5.40063ZM467.6 4.30078H469.3V5.10083C469.9 4.43416 470.666 4.10083 471.6 4.10083C472.666 4.10083 473.4 4.53397 473.8 5.40063C474.4 4.53397 475.2 4.10083 476.2 4.10083C477.133 4.10083 477.8 4.3673 478.2 4.90063C478.6 5.3673 478.8 6.0674 478.8 7.00073V12.2007H477.1V7.10083C477.1 6.5675 476.966 6.20073 476.7 6.00073C476.5 5.73407 476.133 5.60083 475.6 5.60083C475.2 5.60083 474.9 5.70063 474.7 5.90063C474.433 6.1673 474.233 6.46745 474.1 6.80078V12.2007H472.3V7.00073C472.3 6.0674 471.833 5.60083 470.9 5.60083C470.167 5.60083 469.667 5.90073 469.4 6.50073V12.2007H467.6V4.30078ZM487.2 12.2007H485.4C485.333 12.0674 485.266 11.8341 485.2 11.5007C484.666 12.1007 483.966 12.4006 483.1 12.4006C482.3 12.4006 481.666 12.1674 481.2 11.7007C480.666 11.234 480.4 10.6674 480.4 10.0007C480.4 9.20073 480.733 8.5675 481.4 8.10083C482 7.63416 482.9 7.40063 484.1 7.40063H485.1V6.90063C485.1 6.50063 485 6.1673 484.8 5.90063C484.6 5.63397 484.267 5.50073 483.8 5.50073C483.333 5.50073 483 5.60078 482.8 5.80078C482.533 6.00078 482.4 6.2675 482.4 6.60083H480.6C480.6 6.20083 480.733 5.80063 481 5.40063C481.333 5.00063 481.733 4.70073 482.2 4.50073C482.666 4.30073 483.233 4.20068 483.9 4.20068C484.833 4.20068 485.566 4.43397 486.1 4.90063C486.633 5.3673 486.9 6.00078 486.9 6.80078V10.4006C486.9 11.134 487 11.7008 487.2 12.1008V12.2007ZM483.5 10.9006C483.833 10.9006 484.133 10.834 484.4 10.7007C484.733 10.5007 484.966 10.2674 485.1 10.0007V8.50073H484.2C483.533 8.50073 483.033 8.60078 482.7 8.80078C482.366 9.06745 482.2 9.40078 482.2 9.80078C482.2 10.1341 482.3 10.4008 482.5 10.6008C482.766 10.8008 483.1 10.9006 483.5 10.9006ZM489.2 2.40063H491V4.30078H492.4V5.60083H491V10.0007C491 10.3341 491.066 10.5674 491.2 10.7007C491.333 10.834 491.533 10.9006 491.8 10.9006C492 10.9006 492.233 10.8674 492.5 10.8008V12.2007C492.1 12.334 491.7 12.4006 491.3 12.4006C489.9 12.4006 489.2 11.6342 489.2 10.1008V5.60083H487.9V4.30078H489.2V2.40063ZM502.4 12.2007L500.1 8.80078L499.3 9.70068V12.2007H497.5V1.00073H499.3V7.50073L499.9 6.80078L502 4.30078H504.2L501.2 7.60083L504.5 12.2007H502.4ZM505 8.30078V8.20068C505 7.40068 505.133 6.70083 505.4 6.10083C505.733 5.50083 506.166 5.03402 506.7 4.70068C507.3 4.36735 507.933 4.20068 508.6 4.20068C509.666 4.20068 510.533 4.53402 511.2 5.20068C511.866 5.86735 512.233 6.7673 512.3 7.90063V8.40063C512.3 9.13397 512.167 9.83407 511.9 10.5007C511.567 11.1007 511.133 11.5673 510.6 11.9006C510.066 12.234 509.433 12.4006 508.7 12.4006C507.566 12.4006 506.666 12.0341 506 11.3008C505.333 10.5674 505 9.56745 505 8.30078ZM506.7 8.40063C506.7 9.20063 506.9 9.83411 507.3 10.3008C507.633 10.7674 508.1 11.0007 508.7 11.0007C509.3 11.0007 509.766 10.7674 510.1 10.3008C510.433 9.83411 510.6 9.13402 510.6 8.20068C510.6 7.40068 510.4 6.76745 510 6.30078C509.666 5.83411 509.2 5.60083 508.6 5.60083C508.066 5.60083 507.633 5.83411 507.3 6.30078C506.9 6.76745 506.7 7.4673 506.7 8.40063ZM514.2 1.00073V1.90063L514.1 4.80078H512.9V1.00073H514.2ZM519.8 4.30078V5.90063C519.6 5.90063 519.366 5.90063 519.1 5.90063C518.3 5.90063 517.766 6.20078 517.5 6.80078V12.2007H515.7V4.30078H517.4V5.20068C517.867 4.53402 518.466 4.20068 519.2 4.20068C519.466 4.20068 519.667 4.23411 519.8 4.30078ZM525.4 10.1008C525.4 9.7675 525.266 9.53397 525 9.40063C524.733 9.20063 524.3 9.03397 523.7 8.90063C523.1 8.7673 522.6 8.60063 522.2 8.40063C521.333 8.00063 520.9 7.40083 520.9 6.60083C520.9 5.93416 521.166 5.3673 521.7 4.90063C522.3 4.43397 523.033 4.20068 523.9 4.20068C524.833 4.20068 525.6 4.43397 526.2 4.90063C526.8 5.3673 527.1 5.96735 527.1 6.70068H525.3C525.3 6.36735 525.167 6.10063 524.9 5.90063C524.633 5.63397 524.3 5.50073 523.9 5.50073C523.5 5.50073 523.2 5.60078 523 5.80078C522.733 5.93411 522.6 6.1674 522.6 6.50073C522.6 6.7674 522.7 6.9675 522.9 7.10083C523.167 7.30083 523.633 7.4675 524.3 7.60083C525.033 7.73416 525.6 7.93402 526 8.20068C526.4 8.40068 526.7 8.63397 526.9 8.90063C527.033 9.23397 527.1 9.60073 527.1 10.0007C527.1 10.7341 526.833 11.3007 526.3 11.7007C525.7 12.1674 524.9 12.4006 523.9 12.4006C523.3 12.4006 522.733 12.2674 522.2 12.0007C521.666 11.8007 521.266 11.5008 521 11.1008C520.733 10.7008 520.6 10.234 520.6 9.70068H522.3C522.367 10.1674 522.533 10.5007 522.8 10.7007C523.067 10.9674 523.466 11.1008 524 11.1008C524.466 11.1008 524.8 11.0008 525 10.8008C525.266 10.6008 525.4 10.3675 525.4 10.1008ZM535.2 12.2007H533.4C533.333 12.0674 533.266 11.8341 533.2 11.5007C532.666 12.1007 531.966 12.4006 531.1 12.4006C530.3 12.4006 529.666 12.1674 529.2 11.7007C528.666 11.234 528.4 10.6674 528.4 10.0007C528.4 9.20073 528.733 8.5675 529.4 8.10083C530 7.63416 530.9 7.40063 532.1 7.40063H533.2V6.90063C533.2 6.50063 533.067 6.1673 532.8 5.90063C532.6 5.63397 532.267 5.50073 531.8 5.50073C531.4 5.50073 531.067 5.60078 530.8 5.80078C530.533 6.00078 530.4 6.2675 530.4 6.60083H528.6C528.6 6.20083 528.733 5.80063 529 5.40063C529.333 5.00063 529.733 4.70073 530.2 4.50073C530.733 4.30073 531.3 4.20068 531.9 4.20068C532.833 4.20068 533.566 4.43397 534.1 4.90063C534.633 5.3673 534.9 6.00078 534.9 6.80078V10.4006C534.9 11.134 535 11.7008 535.2 12.1008V12.2007ZM531.5 10.9006C531.833 10.9006 532.166 10.834 532.5 10.7007C532.766 10.5007 533 10.2674 533.2 10.0007V8.50073H532.2C531.533 8.50073 531.033 8.60078 530.7 8.80078C530.366 9.06745 530.2 9.40078 530.2 9.80078C530.2 10.1341 530.333 10.4008 530.6 10.6008C530.8 10.8008 531.1 10.9006 531.5 10.9006ZM537.3 2.40063H539V4.30078H540.4V5.60083H539V10.0007C539 10.3341 539.066 10.5674 539.2 10.7007C539.333 10.834 539.567 10.9006 539.9 10.9006C540.1 10.9006 540.3 10.8674 540.5 10.8008V12.2007C540.1 12.334 539.7 12.4006 539.3 12.4006C537.967 12.4006 537.3 11.6342 537.3 10.1008V5.60083H536V4.30078H537.3V2.40063ZM548.3 12.2007H546.5C546.433 12.0674 546.367 11.8341 546.3 11.5007C545.767 12.1007 545.066 12.4006 544.2 12.4006C543.466 12.4006 542.833 12.1674 542.3 11.7007C541.767 11.234 541.5 10.6674 541.5 10.0007C541.5 9.20073 541.833 8.5675 542.5 8.10083C543.1 7.63416 544 7.40063 545.2 7.40063H546.3V6.90063C546.3 6.50063 546.167 6.1673 545.9 5.90063C545.7 5.63397 545.367 5.50073 544.9 5.50073C544.5 5.50073 544.167 5.60078 543.9 5.80078C543.633 6.00078 543.5 6.2675 543.5 6.60083H541.7C541.7 6.20083 541.833 5.80063 542.1 5.40063C542.433 5.00063 542.833 4.70073 543.3 4.50073C543.833 4.30073 544.4 4.20068 545 4.20068C545.933 4.20068 546.666 4.43397 547.2 4.90063C547.733 5.3673 548 6.00078 548 6.80078V10.4006C548 11.134 548.1 11.7008 548.3 12.1008V12.2007ZM544.6 10.9006C544.933 10.9006 545.266 10.834 545.6 10.7007C545.866 10.5007 546.1 10.2674 546.3 10.0007V8.50073H545.3C544.633 8.50073 544.133 8.60078 543.8 8.80078C543.467 9.06745 543.3 9.40078 543.3 9.80078C543.3 10.1341 543.433 10.4008 543.7 10.6008C543.9 10.8008 544.2 10.9006 544.6 10.9006ZM549.9 4.30078H551.6V5.10083C552.2 4.50083 552.967 4.20068 553.9 4.20068C554.967 4.20068 555.7 4.60063 556.1 5.40063C556.7 4.60063 557.5 4.20068 558.5 4.20068C559.366 4.20068 560.033 4.43397 560.5 4.90063C560.9 5.3673 561.1 6.0674 561.1 7.00073V12.2007H559.4V7.10083C559.4 6.5675 559.266 6.20073 559 6.00073C558.8 5.73407 558.433 5.60083 557.9 5.60083C557.5 5.60083 557.167 5.70063 556.9 5.90063C556.7 6.1673 556.533 6.46745 556.4 6.80078V12.2007H554.6V7.00073C554.6 6.0674 554.133 5.60083 553.2 5.60083C552.466 5.60083 551.966 5.90073 551.7 6.50073V12.2007H549.9V4.30078ZM564.9 4.30078V12.2007H563.1V4.30078H564.9ZM563 2.30078C563 2.03411 563.066 1.80083 563.2 1.60083C563.4 1.40083 563.666 1.30078 564 1.30078C564.333 1.30078 564.566 1.40083 564.7 1.60083C564.9 1.80083 565 2.03411 565 2.30078C565 2.56745 564.9 2.7673 564.7 2.90063C564.566 3.10063 564.333 3.20068 564 3.20068C563.666 3.20068 563.4 3.10063 563.2 2.90063C563.066 2.7673 563 2.56745 563 2.30078ZM572.8 5.50073L568.7 10.8008H572.9V12.2007H566.5V11.1008L570.5 5.80078H566.6V4.30078H572.8V5.50073ZM575.5 10.4006C575.833 10.4006 576.066 10.5007 576.2 10.7007C576.4 10.9007 576.5 11.134 576.5 11.4006C576.5 11.734 576.4 11.9675 576.2 12.1008C576.066 12.3008 575.833 12.4006 575.5 12.4006C575.166 12.4006 574.9 12.3008 574.7 12.1008C574.5 11.9675 574.4 11.734 574.4 11.4006C574.4 11.134 574.5 10.9007 574.7 10.7007C574.9 10.5007 575.166 10.4006 575.5 10.4006Z" fill="#202020"/>
</svg>
