<svg width="219" height="26" viewBox="0 0 219 26" fill="none" xmlns="http://www.w3.org/2000/svg">
<path d="M5.10022 11.3C5.10022 10.2334 5.3002 9.3 5.7002 8.5C6.16686 7.7 6.76691 7.09995 7.50024 6.69995C8.23358 6.23328 9.10022 6 10.1002 6C11.1002 6 11.9669 6.23328 12.7002 6.69995C13.4335 7.09995 14.0003 7.7 14.4003 8.5C14.8003 9.3 15.0002 10.2334 15.0002 11.3C15.0002 12.3 14.8003 13.2 14.4003 14C14.0003 14.8 13.4335 15.4 12.7002 15.8C11.9669 16.2667 11.1002 16.5 10.1002 16.5C9.10022 16.5 8.23358 16.2667 7.50024 15.8C6.76691 15.4 6.16686 14.8 5.7002 14C5.3002 13.2 5.10022 12.3 5.10022 11.3ZM0.700195 11.3C0.700195 12.6334 0.900293 13.8667 1.30029 15C1.76696 16.1333 2.43363 17.1 3.30029 17.9C4.16696 18.7667 5.16696 19.4334 6.30029 19.9C7.43363 20.3 8.70022 20.5 10.1002 20.5C11.4336 20.5 12.7003 20.3 13.9003 19.9C15.0336 19.4334 16.0003 18.7667 16.8003 17.9C17.667 17.1 18.3336 16.1333 18.8003 15C19.267 13.8667 19.5002 12.6334 19.5002 11.3C19.5002 9.90005 19.267 8.63333 18.8003 7.5C18.3336 6.43333 17.667 5.49995 16.8003 4.69995C15.9336 3.83328 14.9336 3.20005 13.8003 2.80005C12.667 2.33338 11.4336 2.09998 10.1002 2.09998C8.76689 2.09998 7.5336 2.33338 6.40027 2.80005C5.20027 3.20005 4.20027 3.83328 3.40027 4.69995C2.5336 5.49995 1.86694 6.43333 1.40027 7.5C0.933602 8.63333 0.700195 9.90005 0.700195 11.3ZM29.3003 13V20H33.2002V12.6C33.2002 11.2 32.8669 10.1334 32.2002 9.40002C31.6002 8.60002 30.5669 8.19995 29.1002 8.19995C28.2336 8.19995 27.5336 8.40005 27.0002 8.80005C26.4002 9.13338 25.9336 9.59995 25.6002 10.2V8.5H21.8003V20H25.6002V13C25.6002 12.5333 25.7003 12.1334 25.9003 11.8C26.0336 11.5334 26.2669 11.3 26.6002 11.1C26.8669 10.9666 27.2002 10.9 27.6002 10.9C28.2002 10.9 28.6336 11.0667 28.9003 11.4C29.1669 11.8 29.3003 12.3333 29.3003 13ZM40.0002 0.5H36.2002V20H40.0002V0.5ZM45.9003 16.4C45.9003 16.1334 45.9669 15.9 46.1002 15.7C46.2336 15.5 46.4335 15.3667 46.7002 15.3C46.9669 15.1667 47.3002 15.1 47.7002 15.1C48.3002 15.1 48.8669 15.1667 49.4003 15.3C49.9336 15.5 50.4003 15.7333 50.8003 16V14.3C50.6003 14.1 50.3003 13.9 49.9003 13.7C49.5003 13.5 49.0003 13.3333 48.4003 13.2C47.8669 13.0666 47.2669 13 46.6002 13C45.1336 13 44.0002 13.3333 43.2002 14C42.4669 14.6667 42.1002 15.5333 42.1002 16.6C42.1002 17.4 42.2669 18.0666 42.6002 18.6C43.0002 19.1333 43.5002 19.5334 44.1002 19.8C44.7669 20.1334 45.4669 20.3 46.2002 20.3C46.9335 20.3 47.6002 20.1667 48.2002 19.9C48.8669 19.6334 49.4003 19.2333 49.8003 18.7C50.2003 18.2333 50.4003 17.6 50.4003 16.8L50.0002 15.3C50.0002 15.9 49.8669 16.3666 49.6002 16.7C49.4002 17.1 49.1002 17.3667 48.7002 17.5C48.3669 17.7 47.9669 17.8 47.5002 17.8C47.2336 17.8 46.9669 17.7666 46.7002 17.7C46.4335 17.5666 46.2336 17.4 46.1002 17.2C45.9669 16.9333 45.9003 16.6667 45.9003 16.4ZM42.9003 9.5L44.2002 12C44.3335 11.9333 44.6002 11.8333 45.0002 11.7C45.3336 11.5 45.767 11.3333 46.3003 11.2C46.767 11.1333 47.267 11.1 47.8003 11.1C48.1336 11.1 48.4335 11.1333 48.7002 11.2C48.9669 11.2666 49.2003 11.3667 49.4003 11.5C49.6003 11.6333 49.7336 11.8 49.8003 12C49.9336 12.2 50.0002 12.4667 50.0002 12.8V20H53.6002V11.9C53.6002 11.1 53.3669 10.4334 52.9003 9.90002C52.4336 9.30002 51.8002 8.86664 51.0002 8.59998C50.2002 8.33331 49.3003 8.19995 48.3003 8.19995C47.167 8.19995 46.167 8.33331 45.3003 8.59998C44.367 8.86664 43.5669 9.16667 42.9003 9.5ZM60.6002 25.5L68.1002 8.5H64.2002L60.5002 17.7H62.5002L58.7002 8.5H54.6002L59.6002 19.1L56.8003 25.5H60.6002ZM76.8003 13V20H80.7002V12.6C80.7002 11.2 80.3669 10.1334 79.7002 9.40002C79.1002 8.60002 78.0669 8.19995 76.6002 8.19995C75.7336 8.19995 75.0336 8.40005 74.5002 8.80005C73.9002 9.13338 73.4336 9.59995 73.1002 10.2V8.5H69.3003V20H73.1002V13C73.1002 12.5333 73.2003 12.1334 73.4003 11.8C73.5336 11.5334 73.7669 11.3 74.1002 11.1C74.3669 10.9666 74.7002 10.9 75.1002 10.9C75.7002 10.9 76.1336 11.0667 76.4003 11.4C76.6669 11.8 76.8003 12.3333 76.8003 13ZM93.5002 13.8L90.5002 16C90.9002 16.8 91.4669 17.5667 92.2002 18.3C92.9335 18.9667 93.7669 19.5333 94.7002 20C95.7002 20.4 96.7669 20.6 97.9003 20.6C98.7003 20.6 99.5003 20.4666 100.3 20.2C101.1 19.9333 101.8 19.5666 102.4 19.1C103 18.6333 103.467 18.0667 103.8 17.4C104.2 16.6667 104.4 15.8667 104.4 15C104.4 14.2667 104.267 13.6333 104 13.1C103.8 12.5 103.467 12 103 11.6C102.6 11.1333 102.134 10.7667 101.6 10.5C101.067 10.1667 100.5 9.89995 99.9003 9.69995C99.1003 9.36662 98.4003 9.06672 97.8003 8.80005C97.267 8.60005 96.8336 8.33333 96.5002 8C96.1669 7.73333 96.0002 7.4 96.0002 7C96.0002 6.6 96.1669 6.26667 96.5002 6C96.8336 5.73333 97.3003 5.59998 97.9003 5.59998C98.3669 5.59998 98.7669 5.70002 99.1002 5.90002C99.5002 6.10002 99.8669 6.33331 100.2 6.59998C100.534 6.93331 100.834 7.29995 101.1 7.69995L104.3 5.90002C104.034 5.30002 103.6 4.69998 103 4.09998C102.467 3.56664 101.767 3.09995 100.9 2.69995C100.034 2.29995 99.0003 2.09998 97.8003 2.09998C96.667 2.09998 95.6335 2.29995 94.7002 2.69995C93.8335 3.09995 93.1002 3.66669 92.5002 4.40002C91.9669 5.13336 91.7002 6.03331 91.7002 7.09998C91.7002 7.96664 91.8669 8.70005 92.2002 9.30005C92.5335 9.90005 92.9336 10.4 93.4003 10.8C93.8669 11.2667 94.3669 11.6334 94.9003 11.9C95.5003 12.1667 96.0003 12.3667 96.4003 12.5C97.2669 12.8333 97.9336 13.1 98.4003 13.3C98.9336 13.5667 99.3335 13.8666 99.6002 14.2C99.8002 14.4 99.9003 14.7333 99.9003 15.2C99.9003 15.7333 99.7003 16.1667 99.3003 16.5C98.9003 16.8333 98.4003 17 97.8003 17C97.2003 17 96.6336 16.8666 96.1002 16.6C95.5669 16.3333 95.1002 15.9667 94.7002 15.5C94.2335 15.0333 93.8336 14.4667 93.5002 13.8ZM111.4 2.5H107.2V20H111.4V2.5ZM109.8 2.5V6H113.3C114.1 6 114.767 6.19998 115.3 6.59998C115.767 6.93331 116 7.46662 116 8.19995C116 8.93328 115.767 9.50002 115.3 9.90002C114.767 10.3 114.1 10.5 113.3 10.5H109.8V13.9H113.3C114.767 13.9 116 13.7 117 13.3C118 12.8334 118.767 12.1667 119.3 11.3C119.834 10.4334 120.1 9.39995 120.1 8.19995C120.1 6.99995 119.834 5.99995 119.3 5.19995C118.767 4.33328 118 3.66662 117 3.19995C116 2.73328 114.767 2.5 113.3 2.5H109.8ZM125.5 16.5V20H134.3V16.5H125.5ZM125.5 2.5V6H134.3V2.5H125.5ZM125.5 9.09998V12.5H133.9V9.09998H125.5ZM126.7 2.5H122.7V20H126.7V2.5ZM140.8 13.4L140.5 16.6H149.7L149.5 13.4H140.8ZM142.6 14.6L145 8.90002L147.5 14.6L147.4 15.7L149.5 20H154.3L145 1.40002L135.8 20H140.6L142.8 15.5L142.6 14.6ZM160.5 2.5H156.1V20H160.5V2.5ZM171.4 2.5H166.4L159.2 10.9L166.6 20H171.7L164.3 10.7L171.4 2.5ZM177.9 2.5H173.6V20H177.9V2.5ZM197.7 2.5H193.6V12.4L181.6 1.69995V20H185.6V10.2L197.7 20.9V2.5ZM210.1 10.4V13.7H214.7C214.567 14.1 214.367 14.5333 214.1 15C213.834 15.3333 213.534 15.6667 213.2 16C212.8 16.2667 212.367 16.5 211.9 16.7C211.367 16.8333 210.767 16.9 210.1 16.9C209.1 16.9 208.2 16.6666 207.4 16.2C206.6 15.7333 205.967 15.1 205.5 14.3C205.034 13.4334 204.8 12.4334 204.8 11.3C204.8 10.1 205.034 9.10005 205.5 8.30005C206.034 7.50005 206.7 6.86669 207.5 6.40002C208.3 6.00002 209.167 5.80005 210.1 5.80005C211.167 5.80005 212.034 6.03333 212.7 6.5C213.367 6.96667 213.9 7.53328 214.3 8.19995L218 6.30005C217.467 5.43338 216.834 4.69998 216.1 4.09998C215.3 3.49998 214.434 2.99998 213.5 2.59998C212.5 2.26664 211.367 2.09998 210.1 2.09998C208.767 2.09998 207.5 2.33338 206.3 2.80005C205.1 3.20005 204.067 3.79998 203.2 4.59998C202.334 5.39998 201.634 6.36667 201.1 7.5C200.634 8.63333 200.4 9.90005 200.4 11.3C200.4 12.6334 200.634 13.9 201.1 15.1C201.567 16.2333 202.234 17.2 203.1 18C203.967 18.8 204.967 19.4334 206.1 19.9C207.3 20.3667 208.6 20.6 210 20.6C211.467 20.6 212.767 20.3334 213.9 19.8C215.1 19.2667 216.067 18.5333 216.8 17.6C217.6 16.6666 218.167 15.5667 218.5 14.3C218.9 13.1 219.034 11.8 218.9 10.4H210.1Z" fill="#202020"/>
</svg>
