<svg width="93" height="13" viewBox="0 0 93 13" fill="none" xmlns="http://www.w3.org/2000/svg">
<path d="M8.7002 6.30078V7.00098C8.7002 8.06764 8.53353 9.00078 8.2002 9.80078C7.86686 10.5341 7.36686 11.101 6.7002 11.501C6.1002 11.901 5.36685 12.1011 4.50018 12.1011C3.63352 12.1011 2.86686 11.901 2.2002 11.501C1.6002 11.101 1.1002 10.5341 0.700195 9.80078C0.366862 9.00078 0.200195 8.10107 0.200195 7.10107V6.30078C0.200195 5.30078 0.366862 4.40107 0.700195 3.60107C1.03353 2.80107 1.53353 2.20078 2.2002 1.80078C2.86686 1.40078 3.60021 1.20117 4.40021 1.20117C5.26687 1.20117 6.03353 1.40078 6.7002 1.80078C7.36686 2.20078 7.86686 2.80107 8.2002 3.60107C8.53353 4.40107 8.7002 5.30078 8.7002 6.30078ZM7.30017 7.10107V6.30078C7.30017 5.03411 7.06683 4.06755 6.60016 3.40088C6.06683 2.73421 5.33354 2.40088 4.40021 2.40088C3.53354 2.40088 2.8335 2.73421 2.30017 3.40088C1.8335 4.06755 1.60016 5.00117 1.60016 6.20117V7.00098C1.60016 8.26764 1.8335 9.23421 2.30017 9.90088C2.8335 10.6342 3.56685 11.001 4.50018 11.001C5.36685 11.001 6.06683 10.6676 6.60016 10.001C7.06683 9.33431 7.30017 8.36774 7.30017 7.10107ZM10.6002 4.10107H11.9002L12.0002 5.10107C12.6002 4.30107 13.3668 3.90088 14.3002 3.90088C15.9668 3.90088 16.8335 4.86745 16.9002 6.80078V12.001H15.5002V6.80078C15.5002 6.20078 15.3668 5.76764 15.1002 5.50098C14.8335 5.23431 14.4335 5.10107 13.9002 5.10107C13.5002 5.10107 13.1335 5.20088 12.8002 5.40088C12.4668 5.66755 12.2002 6.00088 12.0002 6.40088V12.001H10.6002V4.10107ZM20.4002 0.800781V12.001H19.0002V0.800781H20.4002ZM24.1002 4.10107V12.001H22.7002V4.10107H24.1002ZM22.7002 2.00098C22.7002 1.80098 22.7335 1.60088 22.8002 1.40088C23.0002 1.26755 23.2335 1.20117 23.5002 1.20117C23.7002 1.20117 23.9002 1.26755 24.1002 1.40088C24.2335 1.60088 24.3002 1.80098 24.3002 2.00098C24.3002 2.20098 24.2335 2.36764 24.1002 2.50098C23.9002 2.70098 23.7002 2.80078 23.5002 2.80078C23.2335 2.80078 23.0002 2.70098 22.8002 2.50098C22.7335 2.36764 22.7002 2.20098 22.7002 2.00098ZM26.3002 4.10107H27.6002V5.10107C28.2002 4.36774 29.0002 4.00098 30.0002 4.00098C31.6668 4.00098 32.5002 4.93411 32.5002 6.80078V12.001H31.2002V6.80078C31.2002 6.20078 31.0668 5.76764 30.8002 5.50098C30.5335 5.23431 30.1335 5.10107 29.6002 5.10107C29.1335 5.10107 28.7335 5.23431 28.4002 5.50098C28.0669 5.70098 27.8002 6.00088 27.6002 6.40088V12.001H26.3002V4.10107ZM37.8002 12.2012C36.7335 12.2012 35.8669 11.8344 35.2002 11.1011C34.5335 10.4344 34.2002 9.50078 34.2002 8.30078V8.10107C34.2002 7.30107 34.3669 6.60098 34.7002 6.00098C34.9669 5.33431 35.3669 4.83431 35.9002 4.50098C36.4335 4.16764 37.0335 4.00098 37.7002 4.00098C38.7002 4.00098 39.5002 4.33431 40.1002 5.00098C40.6335 5.66764 40.9002 6.63421 40.9002 7.90088V8.50098H35.6002C35.6002 9.23431 35.8335 9.86755 36.3002 10.4009C36.7002 10.8675 37.2335 11.1011 37.9002 11.1011C38.3669 11.1011 38.7668 11.0008 39.1002 10.8008C39.4335 10.6008 39.7335 10.3343 40.0002 10.001L40.8002 10.7012C40.1335 11.7012 39.1335 12.2012 37.8002 12.2012ZM37.7002 5.10107C37.1669 5.10107 36.7002 5.30117 36.3002 5.70117C35.9002 6.10117 35.6668 6.66755 35.6002 7.40088H39.6002V7.30078C39.5335 6.56745 39.3335 6.03451 39.0002 5.70117C38.6669 5.30117 38.2335 5.10107 37.7002 5.10107ZM52.9002 8.70117H54.3002C54.1668 9.83451 53.7335 10.7008 53.0002 11.3008C52.3335 11.9008 51.4002 12.2012 50.2002 12.2012C48.9335 12.2012 47.9335 11.7341 47.2002 10.8008C46.4669 9.93411 46.1002 8.73451 46.1002 7.20117V6.20117C46.1002 5.20117 46.2668 4.33441 46.6002 3.60107C46.9335 2.80107 47.4335 2.20078 48.1002 1.80078C48.7668 1.40078 49.5335 1.20117 50.4002 1.20117C51.5335 1.20117 52.4335 1.53451 53.1002 2.20117C53.7668 2.80117 54.1668 3.66745 54.3002 4.80078H52.9002C52.7669 3.93411 52.5002 3.33431 52.1002 3.00098C51.7002 2.60098 51.1335 2.40088 50.4002 2.40088C49.4669 2.40088 48.7335 2.73421 48.2002 3.40088C47.7335 4.06755 47.5002 5.00117 47.5002 6.20117V7.30078C47.5002 8.43411 47.7335 9.33431 48.2002 10.001C48.6669 10.6676 49.3335 11.001 50.2002 11.001C51.0002 11.001 51.6002 10.8343 52.0002 10.501C52.4669 10.1676 52.7669 9.56784 52.9002 8.70117ZM55.6002 8.10107V8.00098C55.6002 7.20098 55.7668 6.50088 56.1002 5.90088C56.3668 5.30088 56.8002 4.83431 57.4002 4.50098C57.9335 4.16764 58.5335 4.00098 59.2002 4.00098C60.2669 4.00098 61.1335 4.36774 61.8002 5.10107C62.4668 5.83441 62.8002 6.83441 62.8002 8.10107V8.20117C62.8002 8.93451 62.6669 9.63411 62.4002 10.3008C62.1335 10.9008 61.7002 11.3678 61.1002 11.7012C60.5668 12.0345 59.9335 12.2012 59.2002 12.2012C58.1335 12.2012 57.2668 11.8344 56.6002 11.1011C55.9335 10.3677 55.6002 9.36774 55.6002 8.10107ZM57.0002 8.20117C57.0002 9.06784 57.2002 9.76745 57.6002 10.3008C58.0002 10.8341 58.5335 11.1011 59.2002 11.1011C59.9335 11.1011 60.5002 10.8341 60.9002 10.3008C61.3002 9.76745 61.5002 9.00098 61.5002 8.00098C61.5002 7.13431 61.3002 6.43421 60.9002 5.90088C60.4335 5.36755 59.8669 5.10107 59.2002 5.10107C58.5335 5.10107 58.0002 5.36755 57.6002 5.90088C57.2002 6.43421 57.0002 7.20117 57.0002 8.20117ZM69.5002 12.001L69.4002 11.3008C68.8669 11.9008 68.1002 12.2012 67.1002 12.2012C66.2335 12.2012 65.6002 11.9676 65.2002 11.501C64.7335 10.9676 64.5002 10.2341 64.5002 9.30078V4.10107H65.9002V9.20117C65.9002 10.4012 66.3668 11.001 67.3002 11.001C68.3668 11.001 69.0669 10.6342 69.4002 9.90088V4.10107H70.7002V12.001H69.5002ZM76.7002 4.10107V5.30078C76.5002 5.30078 76.3002 5.30078 76.1002 5.30078C75.1668 5.30078 74.5668 5.66755 74.3002 6.40088V12.001H72.9002V4.10107H74.2002V5.00098C74.6669 4.33431 75.3002 4.00098 76.1002 4.00098C76.3668 4.00098 76.5669 4.03441 76.7002 4.10107ZM82.6002 9.90088C82.6002 9.56755 82.4669 9.30107 82.2002 9.10107C81.9335 8.90107 81.4335 8.73441 80.7002 8.60107C80.0335 8.46774 79.5002 8.26764 79.1002 8.00098C78.7002 7.80098 78.4002 7.56745 78.2002 7.30078C78.0002 7.03411 77.9002 6.70078 77.9002 6.30078C77.9002 5.63411 78.1669 5.10117 78.7002 4.70117C79.3002 4.23451 80.0002 4.00098 80.8002 4.00098C81.7335 4.00098 82.4669 4.23451 83.0002 4.70117C83.6002 5.16784 83.9002 5.76764 83.9002 6.50098H82.5002C82.5002 6.10098 82.3335 5.76764 82.0002 5.50098C81.7335 5.23431 81.3335 5.10107 80.8002 5.10107C80.3335 5.10107 79.9669 5.20088 79.7002 5.40088C79.4335 5.60088 79.3002 5.90078 79.3002 6.30078C79.3002 6.56745 79.4335 6.80098 79.7002 7.00098C79.9002 7.13431 80.3668 7.30098 81.1002 7.50098C81.7668 7.63431 82.3002 7.80098 82.7002 8.00098C83.1002 8.20098 83.4002 8.46745 83.6002 8.80078C83.8002 9.06745 83.9002 9.43421 83.9002 9.90088C83.9002 10.5675 83.6335 11.1344 83.1002 11.6011C82.5002 12.0011 81.7669 12.2012 80.9002 12.2012C80.2335 12.2012 79.6669 12.1009 79.2002 11.9009C78.7335 11.6342 78.3668 11.3009 78.1002 10.9009C77.7668 10.5009 77.6002 10.0677 77.6002 9.60107H79.0002C79.0002 10.0677 79.1668 10.4345 79.5002 10.7012C79.9002 10.9678 80.3669 11.1011 80.9002 11.1011C81.4335 11.1011 81.8335 11.0008 82.1002 10.8008C82.4335 10.6008 82.6002 10.3009 82.6002 9.90088ZM89.0002 12.2012C87.9335 12.2012 87.0669 11.8344 86.4002 11.1011C85.7335 10.4344 85.4002 9.50078 85.4002 8.30078V8.10107C85.4002 7.30107 85.5335 6.60098 85.8002 6.00098C86.1335 5.33431 86.5668 4.83431 87.1002 4.50098C87.6335 4.16764 88.2002 4.00098 88.8002 4.00098C89.8668 4.00098 90.6669 4.33431 91.2002 5.00098C91.8002 5.66764 92.1002 6.63421 92.1002 7.90088V8.50098H86.7002C86.7002 9.23431 86.9335 9.86755 87.4002 10.4009C87.8669 10.8675 88.4335 11.1011 89.1002 11.1011C89.5668 11.1011 89.9668 11.0008 90.3002 10.8008C90.6335 10.6008 90.9335 10.3343 91.2002 10.001L92.0002 10.7012C91.3335 11.7012 90.3335 12.2012 89.0002 12.2012ZM88.8002 5.10107C88.2668 5.10107 87.8335 5.30117 87.5002 5.70117C87.1002 6.10117 86.8668 6.66755 86.8002 7.40088H90.7002V7.30078C90.7002 6.56745 90.5335 6.03451 90.2002 5.70117C89.8669 5.30117 89.4002 5.10107 88.8002 5.10107Z" fill="#777777"/>
</svg>
