<svg width="52" height="12" viewBox="0 0 52 12" fill="none" xmlns="http://www.w3.org/2000/svg">
<path d="M8.80029 5.29883V5.99902C8.80029 7.06569 8.63363 7.99883 8.30029 8.79883C7.96696 9.53216 7.46696 10.099 6.80029 10.499C6.13363 10.899 5.36691 11.0991 4.50024 11.0991C3.70024 11.0991 2.96696 10.899 2.30029 10.499C1.63363 10.099 1.13363 9.53216 0.800293 8.79883C0.46696 7.99883 0.266862 7.09912 0.200195 6.09912V5.29883C0.200195 4.29883 0.400293 3.39912 0.800293 2.59912C1.13363 1.79912 1.63363 1.19883 2.30029 0.798828C2.96696 0.398828 3.70024 0.199219 4.50024 0.199219C5.36691 0.199219 6.13363 0.398828 6.80029 0.798828C7.46696 1.19883 7.96696 1.79912 8.30029 2.59912C8.63363 3.39912 8.80029 4.29883 8.80029 5.29883ZM7.40027 6.09912V5.29883C7.40027 4.03216 7.16686 3.06559 6.7002 2.39893C6.16686 1.73226 5.43358 1.39893 4.50024 1.39893C3.63358 1.39893 2.9336 1.73226 2.40027 2.39893C1.9336 3.06559 1.66689 3.99922 1.60022 5.19922V5.99902C1.60022 7.26569 1.86694 8.23226 2.40027 8.89893C2.9336 9.63226 3.63358 9.99902 4.50024 9.99902C5.43358 9.99902 6.13355 9.66569 6.60022 8.99902C7.13355 8.33236 7.40027 7.36579 7.40027 6.09912ZM19.1002 0.298828V10.999H17.7002L12.3003 2.79883V10.999H10.9003V0.298828H12.3003L17.7002 8.59912V0.298828H19.1002ZM23.0002 0.298828V9.89893H28.1002V10.999H21.6002V0.298828H23.0002ZM31.2002 0.298828V10.999H29.8003V0.298828H31.2002ZM41.9003 0.298828V10.999H40.5002L35.2002 2.79883V10.999H33.8003V0.298828H35.2002L40.5002 8.59912V0.298828H41.9003ZM50.5002 4.89893V6.09912H45.9003V9.89893H51.2002V10.999H44.4003V0.298828H51.1002V1.49902H45.9003V4.89893H50.5002Z" fill="#777777"/>
</svg>
