<svg width="113" height="16" viewBox="0 0 113 16" fill="none" xmlns="http://www.w3.org/2000/svg">
<path d="M4.5 7.79883H1.89999V11.999H0.5V1.29883H4.5C5.63333 1.29883 6.53335 1.59922 7.20001 2.19922C7.86668 2.79922 8.20001 3.59912 8.20001 4.59912C8.20001 5.59912 7.86668 6.39902 7.20001 6.99902C6.60001 7.53236 5.7 7.79883 4.5 7.79883ZM1.89999 2.49902V6.69922H4.5C5.23333 6.69922 5.80001 6.49912 6.20001 6.09912C6.60001 5.76579 6.79999 5.26579 6.79999 4.59912C6.79999 3.99912 6.60001 3.49912 6.20001 3.09912C5.80001 2.69912 5.26667 2.49902 4.60001 2.49902H1.89999ZM15.9 11.999H14.5C14.4333 11.8657 14.3667 11.5992 14.3 11.1992C13.7 11.7992 12.9667 12.0991 12.1 12.0991C11.3 12.0991 10.6333 11.899 10.1 11.499C9.63334 11.0324 9.39999 10.4655 9.39999 9.79883C9.39999 8.99883 9.69999 8.36559 10.3 7.89893C10.9667 7.43226 11.8667 7.19922 13 7.19922H14.3V6.59912C14.3 6.13245 14.1667 5.73226 13.9 5.39893C13.5667 5.13226 13.1333 4.99902 12.6 4.99902C12.1333 4.99902 11.7333 5.13226 11.4 5.39893C11.0667 5.66559 10.9 5.96549 10.9 6.29883H9.5C9.5 5.89883 9.66667 5.49912 10 5.09912C10.2667 4.76579 10.6333 4.49883 11.1 4.29883C11.5667 4.03216 12.1 3.89893 12.7 3.89893C13.6333 3.89893 14.3333 4.13245 14.8 4.59912C15.3333 5.06579 15.6333 5.69902 15.7 6.49902V10.0991C15.7 10.8325 15.7667 11.4323 15.9 11.8989V11.999ZM12.3 10.999C12.7 10.999 13.1 10.8658 13.5 10.5991C13.8333 10.3991 14.1 10.1322 14.3 9.79883V8.09912H13.2C11.5333 8.09912 10.7 8.59912 10.7 9.59912C10.7 9.99912 10.8667 10.3325 11.2 10.5991C11.4667 10.8658 11.8333 10.999 12.3 10.999ZM21.6 3.99902V5.29883C21.4 5.23216 21.1667 5.19922 20.9 5.19922C20.0333 5.19922 19.4333 5.59893 19.1 6.39893V11.999H17.8V4.09912H19.1V4.99902C19.5667 4.26569 20.2 3.89893 21 3.89893C21.2667 3.89893 21.4667 3.93236 21.6 3.99902ZM23.7 2.09912H25.1V4.09912H26.5V5.09912H25.1V9.99902C25.1 10.3324 25.1667 10.5659 25.3 10.6992C25.4333 10.8992 25.6333 10.999 25.9 10.999C26.1 10.999 26.3333 10.9656 26.6 10.8989V11.999C26.2 12.0657 25.8333 12.0991 25.5 12.0991C24.9 12.0991 24.4667 11.9325 24.2 11.5991C23.8667 11.1991 23.7 10.6657 23.7 9.99902V5.09912H22.3V4.09912H23.7V2.09912ZM28.1 3.99902H29.4V4.99902C30 4.19902 30.8 3.79883 31.8 3.79883C33.4667 3.79883 34.3 4.76589 34.3 6.69922V11.8989H33V6.69922C33 6.09922 32.8667 5.66559 32.6 5.39893C32.3333 5.13226 31.9333 4.99902 31.4 4.99902C30.9333 4.99902 30.5333 5.09883 30.2 5.29883C29.8667 5.5655 29.6333 5.89883 29.5 6.29883V11.8989H28.1V3.99902ZM39.7 12.0991C38.6333 12.0991 37.7667 11.7324 37.1 10.999C36.3667 10.3324 36 9.39922 36 8.19922V7.89893C36 7.16559 36.1667 6.46549 36.5 5.79883C36.7667 5.19883 37.2 4.73226 37.8 4.39893C38.3333 4.06559 38.9 3.89893 39.5 3.89893C40.5667 3.89893 41.3667 4.23226 41.9 4.89893C42.5 5.56559 42.8 6.53216 42.8 7.79883V8.39893H37.4C37.4 9.13226 37.6333 9.73255 38.1 10.1992C38.5 10.7326 39.0667 10.999 39.8 10.999C40.2667 10.999 40.6667 10.8992 41 10.6992C41.3333 10.4992 41.6 10.2323 41.8 9.89893L42.7 10.499C42.0333 11.5657 41.0333 12.0991 39.7 12.0991ZM39.5 4.99902C38.9667 4.99902 38.5 5.19912 38.1 5.59912C37.7667 5.99912 37.5333 6.53255 37.4 7.19922H41.4V7.09912C41.4 6.43245 41.2333 5.89902 40.9 5.49902C40.5667 5.16569 40.1 4.99902 39.5 4.99902ZM48.2 3.99902V5.19922C48 5.19922 47.7667 5.19922 47.5 5.19922C46.6333 5.19922 46.0333 5.56549 45.7 6.29883V11.8989H44.3V3.99902H45.7V4.89893C46.1 4.23226 46.7333 3.89893 47.6 3.89893C47.8667 3.89893 48.0667 3.93236 48.2 3.99902ZM56.5 7.19922C55.3 6.86589 54.4 6.43226 53.8 5.89893C53.2667 5.36559 53 4.73236 53 3.99902C53 3.19902 53.3333 2.49893 54 1.89893C54.6667 1.36559 55.5667 1.09912 56.7 1.09912C57.3667 1.09912 58 1.23236 58.6 1.49902C59.2 1.83236 59.6333 2.23255 59.9 2.69922C60.2333 3.23255 60.4 3.76549 60.4 4.29883H59C59 3.69883 58.8 3.19883 58.4 2.79883C58 2.46549 57.4333 2.29883 56.7 2.29883C55.9667 2.29883 55.4 2.43255 55 2.69922C54.6 3.03255 54.4 3.46569 54.4 3.99902C54.4 4.46569 54.6 4.83245 55 5.09912C55.4 5.43245 56.0333 5.69893 56.9 5.89893C57.7667 6.16559 58.4667 6.46549 59 6.79883C59.4667 7.0655 59.8333 7.39883 60.1 7.79883C60.3 8.19883 60.4 8.66589 60.4 9.19922C60.4 10.0659 60.0667 10.7655 59.4 11.2988C58.7333 11.8322 57.8333 12.0991 56.7 12.0991C55.9667 12.0991 55.3 11.9659 54.7 11.6992C54.0333 11.3659 53.5333 10.9657 53.2 10.499C52.8667 10.0324 52.7 9.4655 52.7 8.79883H54.1C54.1 9.4655 54.3333 9.99893 54.8 10.3989C55.2667 10.7323 55.9 10.8989 56.7 10.8989C57.4333 10.8989 58 10.7657 58.4 10.499C58.8 10.1657 59 9.73255 59 9.19922C59 8.66589 58.8333 8.26569 58.5 7.99902C58.1 7.73236 57.4333 7.46589 56.5 7.19922ZM68.7 7.89893V8.09912C68.7 9.29912 68.4333 10.2657 67.9 10.999C67.3667 11.7324 66.6333 12.0991 65.7 12.0991C64.7 12.0991 63.9333 11.7992 63.4 11.1992V14.999H62V3.99902H63.3V4.89893C63.9 4.23226 64.6667 3.89893 65.6 3.89893C66.6 3.89893 67.3667 4.23226 67.9 4.89893C68.4333 5.63226 68.7 6.63226 68.7 7.89893ZM67.4 7.89893C67.4 7.03226 67.2 6.33216 66.8 5.79883C66.4 5.26549 65.8667 4.99902 65.2 4.99902C64.4 4.99902 63.8 5.36579 63.4 6.09912V9.89893C63.8 10.6323 64.4 10.999 65.2 10.999C65.8667 10.999 66.4 10.7326 66.8 10.1992C67.2 9.66588 67.4 8.89893 67.4 7.89893ZM73.7 12.0991C72.6333 12.0991 71.7667 11.7324 71.1 10.999C70.4333 10.3324 70.1 9.39922 70.1 8.19922V7.89893C70.1 7.16559 70.2333 6.46549 70.5 5.79883C70.8333 5.19883 71.2667 4.73226 71.8 4.39893C72.3333 4.06559 72.9333 3.89893 73.6 3.89893C74.6 3.89893 75.4 4.23226 76 4.89893C76.5333 5.56559 76.8 6.53216 76.8 7.79883V8.39893H71.5C71.5 9.13226 71.7 9.73255 72.1 10.1992C72.5667 10.7326 73.1333 10.999 73.8 10.999C74.2667 10.999 74.6667 10.8992 75 10.6992C75.3333 10.4992 75.6333 10.2323 75.9 9.89893L76.7 10.499C76.0333 11.5657 75.0333 12.0991 73.7 12.0991ZM73.6 4.99902C73 4.99902 72.5333 5.19912 72.2 5.59912C71.8 5.99912 71.5667 6.53255 71.5 7.19922H75.5V7.09912C75.4333 6.43245 75.2333 5.89902 74.9 5.49902C74.5667 5.16569 74.1333 4.99902 73.6 4.99902ZM84.7 11.8989H83.3C83.2333 11.7656 83.1667 11.4991 83.1 11.0991C82.4333 11.7658 81.6667 12.0991 80.8 12.0991C80.0667 12.0991 79.4333 11.8656 78.9 11.3989C78.4333 10.9323 78.2 10.3659 78.2 9.69922C78.2 8.89922 78.5 8.26549 79.1 7.79883C79.7 7.33216 80.6 7.09912 81.8 7.09912H83.1V6.49902C83.1 6.03236 82.9333 5.66559 82.6 5.39893C82.3333 5.06559 81.9333 4.89893 81.4 4.89893C80.9333 4.89893 80.5333 5.03216 80.2 5.29883C79.8667 5.5655 79.7 5.86589 79.7 6.19922H78.3C78.3 5.79922 78.4333 5.43245 78.7 5.09912C79.0333 4.69912 79.4333 4.39922 79.9 4.19922C80.3667 3.99922 80.9 3.89893 81.5 3.89893C82.3667 3.89893 83.0667 4.09902 83.6 4.49902C84.1333 4.96569 84.4 5.59893 84.4 6.39893V10.0991C84.4 10.8325 84.5 11.3988 84.7 11.7988V11.8989ZM81 10.8989C81.4667 10.8989 81.8667 10.7657 82.2 10.499C82.6 10.299 82.9 10.0326 83.1 9.69922V8.09912H82C80.3333 8.09912 79.5 8.56569 79.5 9.49902C79.5 9.96569 79.6333 10.299 79.9 10.499C80.2333 10.7657 80.6 10.8989 81 10.8989ZM91.5 11.8989L88.8 8.19922L87.9 9.09912V11.8989H86.6V0.699219H87.9V7.49902L88.6 6.59912L91.1 3.99902H92.8L89.7 7.29883L93.1 11.8989H91.5ZM95.6 3.99902V11.8989H94.3V3.99902H95.6ZM94.1 1.89893C94.1 1.69893 94.1667 1.49883 94.3 1.29883C94.4333 1.16549 94.6333 1.09912 94.9 1.09912C95.1667 1.09912 95.3667 1.16549 95.5 1.29883C95.6333 1.49883 95.7 1.69893 95.7 1.89893C95.7 2.09893 95.6333 2.26559 95.5 2.39893C95.3667 2.59893 95.1667 2.69922 94.9 2.69922C94.6333 2.69922 94.4333 2.59893 94.3 2.39893C94.1667 2.26559 94.1 2.09893 94.1 1.89893ZM97.7 3.99902H99L99.1 4.99902C99.7 4.19902 100.467 3.79883 101.4 3.79883C103.067 3.79883 103.933 4.76589 104 6.69922V11.8989H102.6V6.69922C102.6 6.09922 102.467 5.66559 102.2 5.39893C101.933 5.13226 101.533 4.99902 101 4.99902C100.6 4.99902 100.233 5.09883 99.9 5.29883C99.5667 5.5655 99.3 5.89883 99.1 6.29883V11.8989H97.7V3.99902ZM105.7 7.89893C105.7 6.69893 105.967 5.73236 106.5 4.99902C107.1 4.26569 107.867 3.89893 108.8 3.89893C109.8 3.89893 110.567 4.23226 111.1 4.89893V3.99902H112.4V11.6992C112.4 12.7659 112.1 13.5992 111.5 14.1992C110.9 14.7992 110.067 15.0991 109 15.0991C108.467 15.0991 107.9 14.9659 107.3 14.6992C106.767 14.4326 106.367 14.0992 106.1 13.6992L106.8 12.8989C107.4 13.5656 108.1 13.8989 108.9 13.8989C109.567 13.8989 110.1 13.7323 110.5 13.3989C110.833 12.9989 111 12.4655 111 11.7988V11.0991C110.467 11.7658 109.733 12.0991 108.8 12.0991C107.867 12.0991 107.1 11.7324 106.5 10.999C105.967 10.199 105.7 9.16559 105.7 7.89893ZM107 8.09912C107 8.96579 107.2 9.66588 107.6 10.1992C107.933 10.6659 108.433 10.8989 109.1 10.8989C109.967 10.8989 110.6 10.5322 111 9.79883V6.09912C110.6 5.36579 109.967 4.99902 109.1 4.99902C108.5 4.99902 108 5.26549 107.6 5.79883C107.2 6.33216 107 7.09912 107 8.09912Z" fill="#777777"/>
</svg>
