<svg width="226" height="15" viewBox="0 0 226 15" fill="none" xmlns="http://www.w3.org/2000/svg">
<path d="M4.19971 7.7998H1.69971V12H0.299805V1.2998H4.19971C5.39971 1.2998 6.33309 1.6002 6.99976 2.2002C7.66642 2.8002 7.99976 3.6001 7.99976 4.6001C7.99976 5.6001 7.66642 6.4 6.99976 7C6.33309 7.53333 5.39971 7.7998 4.19971 7.7998ZM1.69971 2.5V6.7002H4.19971C4.99971 6.7002 5.59976 6.5001 5.99976 6.1001C6.39976 5.76676 6.59973 5.26676 6.59973 4.6001C6.59973 4.0001 6.39976 3.5001 5.99976 3.1001C5.59976 2.7001 5.03314 2.5 4.2998 2.5H1.69971ZM12.6997 12.1001C11.633 12.1001 10.7664 11.7668 10.0997 11.1001C9.43306 10.3668 9.09973 9.43314 9.09973 8.2998V8C9.09973 7.2 9.2664 6.4999 9.59973 5.8999C9.8664 5.2999 10.2665 4.83333 10.7998 4.5C11.3331 4.1 11.9331 3.8999 12.5997 3.8999C13.5997 3.8999 14.3998 4.23324 14.9998 4.8999C15.5331 5.63324 15.7998 6.63324 15.7998 7.8999V8.3999H10.4998C10.4998 9.1999 10.6997 9.83314 11.0997 10.2998C11.5664 10.7665 12.1331 11 12.7998 11C13.2665 11 13.6664 10.9002 13.9998 10.7002C14.3331 10.5669 14.6331 10.3333 14.8998 10L15.6997 10.6001C15.033 11.6001 14.033 12.1001 12.6997 12.1001ZM12.5997 5C12.0664 5 11.5997 5.2001 11.1997 5.6001C10.7997 6.0001 10.5664 6.56647 10.4998 7.2998H14.4998V7.2002C14.4331 6.53353 14.2331 6.0001 13.8998 5.6001C13.5664 5.2001 13.1331 5 12.5997 5ZM21.1997 4V5.2998C20.9997 5.23314 20.7997 5.2002 20.5997 5.2002C19.6664 5.2002 19.0665 5.5999 18.7998 6.3999V12H17.3998V4.1001H18.6997V5C19.1664 4.26667 19.7997 3.8999 20.5997 3.8999C20.8664 3.8999 21.0664 3.93333 21.1997 4ZM24.5997 12H23.2998V5.1001H21.9998V4.1001H23.2998V3.2998C23.2998 2.43314 23.4998 1.76647 23.8998 1.2998C24.3664 0.833138 25.0331 0.600098 25.8998 0.600098C26.1664 0.600098 26.4665 0.633529 26.7998 0.700195L26.6997 1.7998C26.4997 1.7998 26.2664 1.7998 25.9998 1.7998C25.5331 1.7998 25.1998 1.9001 24.9998 2.1001C24.7331 2.36676 24.5997 2.73353 24.5997 3.2002V4.1001H26.2998V5.1001H24.5997V12ZM30.8998 12.2002C29.8331 12.2002 28.9665 11.8334 28.2998 11.1001C27.6331 10.4334 27.2998 9.4998 27.2998 8.2998V8C27.2998 7.26667 27.433 6.56657 27.6997 5.8999C28.033 5.2999 28.4664 4.83333 28.9998 4.5C29.5331 4.16667 30.0997 4 30.6997 4C31.7664 4 32.5664 4.33333 33.0997 5C33.6997 5.66667 33.9998 6.63324 33.9998 7.8999V8.3999H28.5997C28.6664 9.1999 28.8998 9.83314 29.2998 10.2998C29.7665 10.8331 30.3331 11.1001 30.9998 11.1001C31.4664 11.1001 31.8664 10.9998 32.1997 10.7998C32.533 10.5998 32.8331 10.3333 33.0997 10L33.8998 10.6001C33.2331 11.6668 32.2331 12.2002 30.8998 12.2002ZM30.6997 5.1001C30.1664 5.1001 29.7331 5.3002 29.3998 5.7002C28.9998 6.1002 28.7664 6.63314 28.6997 7.2998H32.5997V7.2002C32.5997 6.53353 32.4331 6.0001 32.0997 5.6001C31.7664 5.26676 31.2997 5.1001 30.6997 5.1001ZM38.6997 11.1001C39.233 11.1001 39.6664 10.9334 39.9998 10.6001C40.3998 10.3334 40.5997 9.96667 40.5997 9.5H41.8998C41.8998 9.96667 41.7331 10.3998 41.3998 10.7998C41.1331 11.1998 40.7665 11.5331 40.2998 11.7998C39.7665 12.0665 39.233 12.2002 38.6997 12.2002C37.633 12.2002 36.7997 11.8334 36.1997 11.1001C35.533 10.3668 35.1997 9.36676 35.1997 8.1001V7.8999C35.1997 7.0999 35.3331 6.3998 35.5997 5.7998C35.9331 5.1998 36.3664 4.73324 36.8998 4.3999C37.4331 4.13324 38.033 4 38.6997 4C39.633 4 40.3664 4.23353 40.8998 4.7002C41.4998 5.23353 41.8331 5.93314 41.8998 6.7998H40.5997C40.5997 6.33314 40.3998 5.93343 39.9998 5.6001C39.6664 5.26676 39.233 5.1001 38.6997 5.1001C38.033 5.1001 37.4997 5.33314 37.0997 5.7998C36.7664 6.33314 36.5997 7.06667 36.5997 8V8.2002C36.5997 9.13353 36.7664 9.83314 37.0997 10.2998C37.4997 10.8331 38.033 11.1001 38.6997 11.1001ZM43.8998 2.2002H45.2998V4.1001H46.6997V5.1001H45.2998V10.1001C45.2998 10.3668 45.3664 10.5998 45.4998 10.7998C45.5664 10.9331 45.7664 11 46.0997 11C46.2997 11 46.5331 10.9666 46.7998 10.8999V12C46.3998 12.1333 46.033 12.2002 45.6997 12.2002C45.0997 12.2002 44.6664 12.0001 44.3998 11.6001C44.0664 11.2668 43.8998 10.7668 43.8998 10.1001V5.1001H42.4998V4.1001H43.8998V2.2002ZM53.9998 12H52.6997V5.2002H51.3998V4.1001H52.6997V3.2998C52.6997 2.43314 52.9331 1.76647 53.3998 1.2998C53.8664 0.833138 54.4998 0.600098 55.2998 0.600098C55.6331 0.600098 55.933 0.666471 56.1997 0.799805V1.8999C55.933 1.83324 55.6664 1.7998 55.3998 1.7998C54.9998 1.7998 54.6664 1.93353 54.3998 2.2002C54.1331 2.46686 53.9998 2.83314 53.9998 3.2998V4.1001H55.6997V5.2002H53.9998V12ZM56.8998 8V7.8999C56.8998 7.16657 57.0331 6.46647 57.2998 5.7998C57.6331 5.1998 58.0664 4.73324 58.5997 4.3999C59.1331 4.06657 59.7664 3.8999 60.4998 3.8999C61.5664 3.8999 62.4331 4.26667 63.0997 5C63.7664 5.73333 64.0997 6.73333 64.0997 8V8.1001C64.0997 8.83343 63.9331 9.53353 63.5997 10.2002C63.3331 10.8002 62.9331 11.2668 62.3998 11.6001C61.8664 11.9334 61.2331 12.1001 60.4998 12.1001C59.4331 12.1001 58.5664 11.7333 57.8998 11C57.2331 10.2667 56.8998 9.26667 56.8998 8ZM58.1997 8.1001C58.1997 8.96676 58.3998 9.66686 58.7998 10.2002C59.2665 10.7335 59.8331 11 60.4998 11C61.1664 11 61.6997 10.7335 62.0997 10.2002C62.4997 9.66686 62.6997 8.8999 62.6997 7.8999C62.6997 7.03324 62.4997 6.33314 62.0997 5.7998C61.6997 5.26647 61.1664 5 60.4998 5C59.8331 5 59.2998 5.26647 58.8998 5.7998C58.4331 6.33314 58.1997 7.1001 58.1997 8.1001ZM69.5997 4V5.2998C69.3997 5.23314 69.1998 5.2002 68.9998 5.2002C68.0664 5.2002 67.4331 5.56647 67.0997 6.2998V12H65.7998V4H67.0997V5C67.5664 4.26667 68.1998 3.8999 68.9998 3.8999C69.2664 3.8999 69.4664 3.93333 69.5997 4ZM79.1997 9.8999C79.1997 9.4999 79.0665 9.2 78.7998 9C78.5331 8.8 78.0331 8.63333 77.2998 8.5C76.6331 8.36667 76.0997 8.2 75.6997 8C75.2997 7.8 74.9998 7.53353 74.7998 7.2002C74.5998 6.93353 74.4998 6.6002 74.4998 6.2002C74.4998 5.53353 74.7665 5.0001 75.2998 4.6001C75.8998 4.13343 76.6331 3.8999 77.4998 3.8999C78.3664 3.8999 79.0664 4.13343 79.5997 4.6001C80.1997 5.06676 80.4998 5.66657 80.4998 6.3999H79.0997C79.0997 5.9999 78.9331 5.66657 78.5997 5.3999C78.3331 5.13324 77.9664 5 77.4998 5C76.9664 5 76.5665 5.0998 76.2998 5.2998C76.0331 5.56647 75.8998 5.86686 75.8998 6.2002C75.8998 6.53353 76.0331 6.76657 76.2998 6.8999C76.5665 7.0999 77.033 7.26657 77.6997 7.3999C78.3664 7.53324 78.8998 7.6999 79.2998 7.8999C79.6998 8.0999 79.9997 8.36686 80.1997 8.7002C80.3997 8.96686 80.4998 9.33314 80.4998 9.7998C80.4998 10.4665 80.233 11.0333 79.6997 11.5C79.0997 11.9 78.3664 12.1001 77.4998 12.1001C76.8331 12.1001 76.2665 11.9998 75.7998 11.7998C75.3331 11.5331 74.9664 11.1998 74.6997 10.7998C74.3664 10.3998 74.1997 9.96667 74.1997 9.5H75.5997C75.5997 9.96667 75.7664 10.3334 76.0997 10.6001C76.4997 10.8668 76.9664 11 77.4998 11C78.0331 11 78.433 10.9002 78.6997 10.7002C79.033 10.5002 79.1997 10.2332 79.1997 9.8999ZM82.2998 4H83.5997V4.8999C84.1997 4.23324 84.9998 3.8999 85.9998 3.8999C87.0664 3.8999 87.7997 4.33353 88.1997 5.2002C88.4664 4.8002 88.8331 4.46686 89.2998 4.2002C89.6998 4.0002 90.1998 3.8999 90.7998 3.8999C92.5331 3.8999 93.3998 4.83353 93.3998 6.7002V12H92.0997V6.7002C92.0997 6.16686 91.9664 5.76667 91.6997 5.5C91.433 5.16667 90.9998 5 90.3998 5C89.8664 5 89.4331 5.16667 89.0997 5.5C88.7664 5.76667 88.5664 6.16686 88.4998 6.7002V12H87.1997V6.7998C87.1997 5.5998 86.6331 5 85.4998 5C84.6331 5 84.033 5.4002 83.6997 6.2002V12H82.2998V4ZM101.8 11.8999H100.4C100.266 11.7666 100.2 11.5001 100.2 11.1001C99.533 11.7001 98.7664 12 97.8998 12C97.0998 12 96.4664 11.7999 95.9998 11.3999C95.4664 10.9332 95.1997 10.3669 95.1997 9.7002C95.1997 8.9002 95.533 8.26647 96.1997 7.7998C96.7997 7.33314 97.6665 7.1001 98.7998 7.1001H100.1V6.5C100.1 6.03333 99.9664 5.63314 99.6997 5.2998C99.433 5.03314 99.0331 4.8999 98.4998 4.8999C97.9664 4.8999 97.533 5.03314 97.1997 5.2998C96.933 5.4998 96.7998 5.8002 96.7998 6.2002H95.3998C95.3998 5.8002 95.5331 5.4 95.7998 5C96.0665 4.66667 96.4664 4.36676 96.9998 4.1001C97.4664 3.9001 97.9664 3.7998 98.4998 3.7998C99.4331 3.7998 100.166 4.03333 100.7 4.5C101.233 4.96667 101.5 5.5999 101.5 6.3999V10C101.5 10.7333 101.6 11.3331 101.8 11.7998V11.8999ZM98.0997 10.7998C98.4997 10.7998 98.8998 10.7 99.2998 10.5C99.6998 10.3 99.9664 10.0335 100.1 9.7002V8H99.0997C97.4331 8 96.5997 8.5 96.5997 9.5C96.5997 9.9 96.7331 10.2333 96.9998 10.5C97.2664 10.7 97.6331 10.7998 98.0997 10.7998ZM105.1 0.600098V11.8999H103.7V0.600098H105.1ZM108.8 0.600098V11.8999H107.4V0.600098H108.8ZM114.7 3.8999H116V4.7998C116.6 4.13314 117.4 3.7998 118.4 3.7998C119.466 3.7998 120.2 4.23343 120.6 5.1001C120.866 4.7001 121.233 4.4002 121.7 4.2002C122.1 3.93353 122.6 3.7998 123.2 3.7998C124.933 3.7998 125.8 4.73343 125.8 6.6001V11.8999H124.5V6.6001C124.5 6.06676 124.366 5.66657 124.1 5.3999C123.833 5.13324 123.4 5 122.8 5C122.266 5 121.833 5.13324 121.5 5.3999C121.166 5.73324 120.966 6.13343 120.9 6.6001V11.8999H119.6V6.7002C119.6 5.56686 119.033 5 117.9 5C116.966 5 116.366 5.36676 116.1 6.1001V11.8999H114.7V3.8999ZM134.2 11.7998H132.7C132.633 11.6665 132.6 11.4 132.6 11C131.933 11.6 131.166 11.8999 130.3 11.8999C129.5 11.8999 128.866 11.6998 128.4 11.2998C127.866 10.8331 127.6 10.2668 127.6 9.6001C127.6 8.8001 127.933 8.16686 128.6 7.7002C129.2 7.23353 130.066 7 131.2 7H132.5V6.3999C132.5 5.93324 132.366 5.53353 132.1 5.2002C131.833 4.93353 131.433 4.7998 130.9 4.7998C130.366 4.7998 129.933 4.93353 129.6 5.2002C129.266 5.4002 129.1 5.7001 129.1 6.1001H127.8C127.8 5.7001 127.933 5.2999 128.2 4.8999C128.466 4.56657 128.833 4.26667 129.3 4C129.833 3.8 130.366 3.7002 130.9 3.7002C131.833 3.7002 132.566 3.93324 133.1 4.3999C133.633 4.86657 133.9 5.4998 133.9 6.2998V9.8999C133.9 10.6332 134 11.2335 134.2 11.7002V11.7998ZM130.5 10.7002C130.9 10.7002 131.3 10.5999 131.7 10.3999C132.1 10.1999 132.366 9.93343 132.5 9.6001V7.8999H131.5C129.833 7.8999 129 8.3999 129 9.3999C129 9.7999 129.133 10.1332 129.4 10.3999C129.666 10.5999 130.033 10.7002 130.5 10.7002ZM139.8 3.7998V5.1001C139.6 5.03343 139.4 5 139.2 5C138.266 5 137.666 5.4002 137.4 6.2002V11.7998H136V3.8999H137.3L137.4 4.7998C137.8 4.06647 138.4 3.7002 139.2 3.7002C139.466 3.7002 139.666 3.73314 139.8 3.7998ZM146.1 11.7998L143.3 8.1001L142.4 9V11.7998H141.1V0.5H142.4V7.2998L143.2 6.5L145.6 3.8999H147.3L144.2 7.2002L147.6 11.7998H146.1ZM151.9 11.8999C150.833 11.8999 149.966 11.5666 149.3 10.8999C148.633 10.1666 148.3 9.2 148.3 8V7.7998C148.3 6.9998 148.433 6.3002 148.7 5.7002C149.033 5.1002 149.466 4.6002 150 4.2002C150.533 3.86686 151.133 3.7002 151.8 3.7002C152.8 3.7002 153.6 4.03353 154.2 4.7002C154.733 5.36686 155 6.33343 155 7.6001V8.2002H149.6C149.666 9.0002 149.9 9.63343 150.3 10.1001C150.766 10.5668 151.333 10.7998 152 10.7998C152.466 10.7998 152.866 10.7 153.2 10.5C153.533 10.3 153.833 10.0665 154.1 9.7998L154.9 10.3999C154.233 11.3999 153.233 11.8999 151.9 11.8999ZM151.8 4.7998C151.2 4.7998 150.733 4.9999 150.4 5.3999C150 5.7999 149.766 6.36676 149.7 7.1001H153.7V7C153.633 6.33333 153.433 5.7999 153.1 5.3999C152.766 4.9999 152.333 4.7998 151.8 4.7998ZM157.1 1.8999H158.4V3.8999H159.9V4.8999H158.4V9.7998C158.4 10.1331 158.466 10.3667 158.6 10.5C158.733 10.7 158.966 10.7998 159.3 10.7998C159.433 10.7998 159.633 10.7669 159.9 10.7002V11.7998C159.566 11.8665 159.233 11.8999 158.9 11.8999C158.3 11.8999 157.833 11.7332 157.5 11.3999C157.233 10.9999 157.1 10.4665 157.1 9.7998V4.8999H155.6V3.8999H157.1V1.8999ZM162.9 3.7998V11.7002H161.6V3.7998H162.9ZM161.4 1.7002C161.4 1.43353 161.466 1.23343 161.6 1.1001C161.733 0.966764 161.933 0.899902 162.2 0.899902C162.466 0.899902 162.666 0.966764 162.8 1.1001C162.933 1.23343 163 1.43353 163 1.7002C163 1.9002 162.933 2.06686 162.8 2.2002C162.666 2.33353 162.466 2.3999 162.2 2.3999C161.933 2.3999 161.733 2.33353 161.6 2.2002C161.466 2.06686 161.4 1.9002 161.4 1.7002ZM165.1 3.7998H166.3L166.4 4.7998C167 3.9998 167.8 3.6001 168.8 3.6001C170.466 3.6001 171.3 4.56667 171.3 6.5V11.7002H169.9V6.5C169.9 5.9 169.766 5.46686 169.5 5.2002C169.3 4.93353 168.933 4.7998 168.4 4.7998C167.933 4.7998 167.533 4.9001 167.2 5.1001C166.866 5.36676 166.6 5.7001 166.4 6.1001V11.7002H165.1V3.7998ZM173 7.7002C173 6.43353 173.3 5.46647 173.9 4.7998C174.433 4.06647 175.166 3.7002 176.1 3.7002C177.1 3.7002 177.866 4.03353 178.4 4.7002L178.5 3.7998H179.7V11.5C179.7 12.5667 179.4 13.4 178.8 14C178.2 14.5333 177.366 14.7998 176.3 14.7998C175.766 14.7998 175.233 14.7 174.7 14.5C174.166 14.2333 173.733 13.9 173.4 13.5L174.1 12.7002C174.7 13.3669 175.433 13.7002 176.3 13.7002C176.9 13.7002 177.4 13.5335 177.8 13.2002C178.133 12.8002 178.3 12.2668 178.3 11.6001V10.8999C177.766 11.5666 177.033 11.8999 176.1 11.8999C175.166 11.8999 174.433 11.5002 173.9 10.7002C173.3 9.96686 173 8.96686 173 7.7002ZM174.4 7.7998C174.4 8.73314 174.566 9.46667 174.9 10C175.3 10.4667 175.833 10.7002 176.5 10.7002C177.3 10.7002 177.9 10.3334 178.3 9.6001V5.8999C177.9 5.16657 177.3 4.7998 176.5 4.7998C175.833 4.7998 175.3 5.06676 174.9 5.6001C174.566 6.06676 174.4 6.7998 174.4 7.7998ZM186 1.8999H187.3V3.7998H188.8V4.7998H187.3V9.7998C187.3 10.0665 187.366 10.3 187.5 10.5C187.633 10.6333 187.866 10.7002 188.2 10.7002C188.333 10.7002 188.533 10.6668 188.8 10.6001V11.7002C188.466 11.8335 188.133 11.8999 187.8 11.8999C187.2 11.8999 186.733 11.6998 186.4 11.2998C186.133 10.9665 186 10.4665 186 9.7998V4.7998H184.5V3.7998H186V1.8999ZM193.7 11.8999C192.566 11.8999 191.666 11.5331 191 10.7998C190.333 10.1331 190 9.2 190 8V7.7998C190 6.9998 190.166 6.26676 190.5 5.6001C190.766 5.0001 191.166 4.53353 191.7 4.2002C192.233 3.86686 192.833 3.7002 193.5 3.7002C194.5 3.7002 195.3 4.03353 195.9 4.7002C196.433 5.36686 196.7 6.33343 196.7 7.6001V8.2002H191.4C191.4 8.93353 191.633 9.56676 192.1 10.1001C192.5 10.5668 193.033 10.7998 193.7 10.7998C194.166 10.7998 194.566 10.7 194.9 10.5C195.233 10.3 195.533 10.0335 195.8 9.7002L196.6 10.3999C195.933 11.3999 194.966 11.8999 193.7 11.8999ZM193.5 4.7998C192.966 4.7998 192.5 4.9999 192.1 5.3999C191.766 5.7999 191.533 6.36676 191.4 7.1001H195.4V7C195.333 6.26667 195.133 5.73324 194.8 5.3999C194.466 4.9999 194.033 4.7998 193.5 4.7998ZM204.6 11.7002H203.2C203.133 11.5669 203.066 11.2999 203 10.8999C202.4 11.5666 201.666 11.8999 200.8 11.8999C200 11.8999 199.333 11.6669 198.8 11.2002C198.333 10.8002 198.1 10.2333 198.1 9.5C198.1 8.7 198.4 8.06676 199 7.6001C199.666 7.13343 200.566 6.8999 201.7 6.8999H203V6.2998C203 5.83314 202.866 5.46686 202.6 5.2002C202.266 4.93353 201.833 4.7998 201.3 4.7998C200.833 4.7998 200.433 4.9001 200.1 5.1001C199.766 5.36676 199.6 5.66667 199.6 6H198.2C198.2 5.6 198.366 5.23324 198.7 4.8999C198.966 4.4999 199.333 4.2 199.8 4C200.266 3.8 200.8 3.7002 201.4 3.7002C202.333 3.7002 203.033 3.93324 203.5 4.3999C204.033 4.7999 204.3 5.4002 204.3 6.2002V9.8999C204.3 10.6332 204.4 11.2001 204.6 11.6001V11.7002ZM201 10.7002C201.4 10.7002 201.8 10.5999 202.2 10.3999C202.533 10.1332 202.8 9.83333 203 9.5V7.8999H201.9C200.233 7.8999 199.4 8.36647 199.4 9.2998C199.4 9.76647 199.566 10.0998 199.9 10.2998C200.166 10.5665 200.533 10.7002 201 10.7002ZM206.5 3.7998H207.7L207.8 4.7002C208.4 4.03353 209.166 3.7002 210.1 3.7002C211.233 3.7002 212 4.0999 212.4 4.8999C212.666 4.56657 213 4.26667 213.4 4C213.866 3.8 214.366 3.7002 214.9 3.7002C216.633 3.7002 217.533 4.5999 217.6 6.3999V11.7002H216.2V6.5C216.2 5.9 216.066 5.46686 215.8 5.2002C215.533 4.93353 215.1 4.7998 214.5 4.7998C214.033 4.7998 213.633 4.96647 213.3 5.2998C212.966 5.56647 212.766 5.96667 212.7 6.5V11.7002H211.3V6.5C211.3 5.36667 210.733 4.7998 209.6 4.7998C208.733 4.7998 208.133 5.16657 207.8 5.8999V11.7002H206.5V3.7998ZM224.2 9.6001C224.2 9.26676 224.066 8.9998 223.8 8.7998C223.533 8.5998 223.066 8.43314 222.4 8.2998C221.666 8.16647 221.1 7.96686 220.7 7.7002C220.3 7.5002 220 7.26667 219.8 7C219.666 6.73333 219.6 6.4 219.6 6C219.6 5.33333 219.866 4.7999 220.4 4.3999C220.933 3.93324 221.633 3.7002 222.5 3.7002C223.366 3.7002 224.1 3.93324 224.7 4.3999C225.233 4.86657 225.5 5.46686 225.5 6.2002H224.2C224.2 5.8002 224.033 5.46686 223.7 5.2002C223.366 4.93353 222.966 4.7998 222.5 4.7998C222.033 4.7998 221.633 4.9001 221.3 5.1001C221.033 5.3001 220.9 5.6 220.9 6C220.9 6.26667 221.033 6.5002 221.3 6.7002C221.566 6.83353 222.033 7.0002 222.7 7.2002C223.366 7.33353 223.933 7.5002 224.4 7.7002C224.8 7.9002 225.1 8.16667 225.3 8.5C225.5 8.76667 225.6 9.13343 225.6 9.6001C225.6 10.2668 225.3 10.8331 224.7 11.2998C224.166 11.6998 223.433 11.8999 222.5 11.8999C221.9 11.8999 221.366 11.8001 220.9 11.6001C220.366 11.3334 219.966 11.0001 219.7 10.6001C219.433 10.2001 219.3 9.76647 219.3 9.2998H220.6C220.666 9.76647 220.866 10.1332 221.2 10.3999C221.533 10.6666 221.966 10.7998 222.5 10.7998C223.033 10.7998 223.466 10.7 223.8 10.5C224.066 10.3 224.2 10.0001 224.2 9.6001Z" fill="#777777"/>
</svg>
