<svg width="45" height="13" viewBox="0 0 45 13" fill="none" xmlns="http://www.w3.org/2000/svg">
<path d="M4.49963 7.79883H1.99963V11.999H0.599609V1.29883H4.49963C5.69963 1.29883 6.63302 1.59922 7.29968 2.19922C7.96635 2.79922 8.29968 3.59912 8.29968 4.59912C8.29968 5.59912 7.96635 6.39902 7.29968 6.99902C6.63302 7.53236 5.69963 7.79883 4.49963 7.79883ZM1.99963 2.49902V6.69922H4.49963C5.29963 6.69922 5.89968 6.49912 6.29968 6.09912C6.69968 5.76579 6.89966 5.26579 6.89966 4.59912C6.89966 3.99912 6.69968 3.49912 6.29968 3.09912C5.89968 2.69912 5.33294 2.49902 4.59961 2.49902H1.99963ZM9.39966 8.09912V7.99902C9.39966 7.19902 9.56633 6.49893 9.89966 5.89893C10.1663 5.23226 10.5663 4.73226 11.0996 4.39893C11.6996 4.06559 12.333 3.89893 12.9996 3.89893C14.0663 3.89893 14.9329 4.26569 15.5996 4.99902C16.2663 5.79902 16.5996 6.79902 16.5996 7.99902V8.09912C16.5996 8.89912 16.4663 9.59922 16.1996 10.1992C15.8663 10.7992 15.433 11.2658 14.8997 11.5991C14.3663 11.9325 13.733 12.0991 12.9996 12.0991C11.933 12.0991 11.0663 11.7324 10.3997 10.999C9.73299 10.2657 9.39966 9.29912 9.39966 8.09912ZM10.7997 8.09912C10.7997 8.96579 10.9997 9.66588 11.3997 10.1992C11.7997 10.7326 12.333 10.999 12.9996 10.999C13.733 10.999 14.2996 10.7326 14.6996 10.1992C15.0996 9.66588 15.2997 8.93236 15.2997 7.99902C15.2997 7.13236 15.0996 6.43226 14.6996 5.89893C14.2329 5.29893 13.6663 4.99902 12.9996 4.99902C12.333 4.99902 11.7997 5.26549 11.3997 5.79883C10.9997 6.33216 10.7997 7.09912 10.7997 8.09912ZM19.7997 0.699219V11.999H18.3997V0.699219H19.7997ZM28.2997 11.999H26.8997C26.833 11.8657 26.7663 11.5992 26.6996 11.1992C26.0996 11.7992 25.3663 12.0991 24.4996 12.0991C23.6996 12.0991 23.033 11.899 22.4996 11.499C22.033 11.0324 21.7997 10.4655 21.7997 9.79883C21.7997 8.99883 22.0996 8.36559 22.6996 7.89893C23.3663 7.43226 24.2663 7.19922 25.3997 7.19922H26.6996V6.59912C26.6996 6.13245 26.5663 5.73226 26.2997 5.39893C25.9663 5.13226 25.533 4.99902 24.9996 4.99902C24.533 4.99902 24.133 5.13226 23.7997 5.39893C23.4663 5.66559 23.2997 5.96549 23.2997 6.29883H21.8997C21.8997 5.89883 22.0663 5.49912 22.3997 5.09912C22.6663 4.76579 23.033 4.49883 23.4996 4.29883C23.9663 4.03216 24.4996 3.89893 25.0996 3.89893C26.0329 3.89893 26.7329 4.13245 27.1996 4.59912C27.7329 5.06579 28.0329 5.69902 28.0996 6.49902V10.0991C28.0996 10.8325 28.1663 11.4323 28.2997 11.8989V11.999ZM24.6996 10.999C25.0996 10.999 25.4997 10.8658 25.8997 10.5991C26.233 10.3991 26.4996 10.1322 26.6996 9.79883V8.09912H25.5996C23.9329 8.09912 23.0996 8.59912 23.0996 9.59912C23.0996 9.99912 23.2663 10.3325 23.5996 10.5991C23.8663 10.8658 24.2329 10.999 24.6996 10.999ZM30.1996 4.09912H31.4996V5.09912C32.0996 4.29912 32.8997 3.89893 33.8997 3.89893C35.5663 3.89893 36.3997 4.83255 36.3997 6.69922V11.999H35.0996V6.69922C35.0329 6.16589 34.8996 5.76569 34.6996 5.49902C34.4329 5.23236 34.033 5.09912 33.4996 5.09912C33.033 5.09912 32.633 5.19893 32.2997 5.39893C31.9663 5.66559 31.6996 5.96549 31.4996 6.29883V11.999H30.1996V4.09912ZM38.0996 8.09912V7.99902C38.0996 6.79902 38.3996 5.79902 38.9996 4.99902C39.533 4.26569 40.2663 3.89893 41.1996 3.89893C42.1329 3.89893 42.8996 4.23226 43.4996 4.89893V0.798828H44.7997V11.999H43.5996L43.4996 11.1992C42.9663 11.8659 42.1996 12.1992 41.1996 12.1992C40.3329 12.1992 39.5996 11.799 38.9996 10.999C38.3996 10.2657 38.0996 9.29912 38.0996 8.09912ZM39.4996 8.09912C39.4996 9.03245 39.6663 9.73255 39.9996 10.1992C40.3996 10.7326 40.9329 10.999 41.5996 10.999C42.4663 10.999 43.0996 10.5988 43.4996 9.79883V6.19922C43.033 5.46589 42.3996 5.09912 41.5996 5.09912C40.9329 5.09912 40.3996 5.36559 39.9996 5.89893C39.6663 6.36559 39.4996 7.09912 39.4996 8.09912Z" fill="#777777"/>
</svg>
