<svg width="235" height="16" viewBox="0 0 235 16" fill="none" xmlns="http://www.w3.org/2000/svg">
<path d="M4.09961 7.79932H1.59961V11.9993H0.0996094V1.29932H4.09961C5.23294 1.29932 6.13296 1.59922 6.79962 2.19922C7.46629 2.79922 7.79962 3.59924 7.79962 4.59924C7.79962 5.59924 7.46629 6.39927 6.79962 6.99927C6.19962 7.5326 5.29961 7.79932 4.09961 7.79932ZM1.59961 2.49927V6.69922H4.09961C4.83294 6.69922 5.39962 6.49924 5.79962 6.09924C6.19962 5.76591 6.39966 5.26591 6.39966 4.59924C6.39966 3.99924 6.19962 3.49924 5.79962 3.09924C5.39962 2.69924 4.86631 2.49927 4.19965 2.49927H1.59961ZM13.1996 3.99927V5.29932C12.9996 5.23265 12.7996 5.19922 12.5996 5.19922C11.6663 5.19922 11.0663 5.59929 10.7996 6.39929V11.9993H9.39966V4.09924H10.6996V4.99927C11.1663 4.26593 11.7996 3.89929 12.5996 3.89929C12.8663 3.89929 13.0663 3.9326 13.1996 3.99927ZM17.5996 12.0992C16.5329 12.0992 15.6663 11.7659 14.9996 11.0992C14.333 10.3659 13.9996 9.43265 13.9996 8.29932V7.99927C13.9996 7.19927 14.133 6.49929 14.3997 5.89929C14.733 5.29929 15.1663 4.8326 15.6996 4.49927C16.233 4.09927 16.833 3.89929 17.4996 3.89929C18.4996 3.89929 19.2997 4.23263 19.8997 4.89929C20.433 5.63263 20.6996 6.63263 20.6996 7.89929V8.39929H15.2996C15.3663 9.19929 15.5996 9.83265 15.9996 10.2993C16.4663 10.766 17.033 10.9993 17.6996 10.9993C18.1663 10.9993 18.5663 10.8992 18.8997 10.6992C19.233 10.5659 19.533 10.3326 19.7996 9.99927L20.5996 10.5992C19.9329 11.5992 18.9329 12.0992 17.5996 12.0992ZM17.4996 4.99927C16.8996 4.99927 16.4329 5.19924 16.0996 5.59924C15.6996 5.99924 15.4663 6.56598 15.3997 7.29932H19.3997V7.19922C19.333 6.53255 19.133 5.99924 18.7996 5.59924C18.4663 5.19924 18.033 4.99927 17.4996 4.99927ZM25.0996 6.89929V7.99927H21.4996V6.89929H25.0996ZM27.8997 4.09924V11.9993H26.5996V4.09924H27.8997ZM26.3997 1.99927C26.3997 1.7326 26.4663 1.53263 26.5996 1.39929C26.7329 1.26596 26.933 1.19922 27.1996 1.19922C27.4663 1.19922 27.6663 1.26596 27.7996 1.39929C27.933 1.53263 27.9996 1.7326 27.9996 1.99927C27.9996 2.19927 27.933 2.36593 27.7996 2.49927C27.6663 2.6326 27.4663 2.69922 27.1996 2.69922C26.933 2.69922 26.7329 2.6326 26.5996 2.49927C26.4663 2.36593 26.3997 2.19927 26.3997 1.99927ZM29.9996 4.09924H31.2996L31.3997 5.09924C31.9997 4.29924 32.7663 3.89929 33.6996 3.89929C35.3663 3.89929 36.233 4.86598 36.2996 6.79932V11.9993H34.8997V6.79932C34.8997 6.19932 34.7663 5.76593 34.4996 5.49927C34.233 5.2326 33.833 5.09924 33.2996 5.09924C32.8996 5.09924 32.533 5.19929 32.1996 5.39929C31.8663 5.66596 31.5997 5.99929 31.3997 6.39929V11.9993H29.9996V4.09924ZM38.7996 2.19922H40.0996V4.09924H41.5996V5.09924H40.0996V10.0992C40.0996 10.3659 40.1663 10.5993 40.2996 10.7993C40.433 10.9326 40.6663 10.9993 40.9996 10.9993C41.1996 10.9993 41.433 10.966 41.6996 10.8993V11.9993C41.2996 12.1326 40.9329 12.1992 40.5996 12.1992C39.9996 12.1992 39.5663 11.9992 39.2996 11.5992C38.9663 11.2659 38.7996 10.7659 38.7996 10.0992V5.09924H37.3997V4.09924H38.7996V2.19922ZM46.4996 12.1992C45.433 12.1992 44.5663 11.8326 43.8997 11.0992C43.233 10.4326 42.8997 9.49932 42.8997 8.29932V8.09924C42.8997 7.29924 43.033 6.59927 43.2996 5.99927C43.633 5.3326 44.0663 4.8326 44.5996 4.49927C45.1329 4.16593 45.6996 3.99927 46.2996 3.99927C47.3663 3.99927 48.1663 4.3326 48.6996 4.99927C49.2996 5.66593 49.5996 6.63263 49.5996 7.89929V8.49927H44.1996C44.2663 9.2326 44.4997 9.86596 44.8997 10.3993C45.3663 10.866 45.9329 11.0992 46.5996 11.0992C47.0663 11.0992 47.4663 10.9993 47.7996 10.7993C48.133 10.5993 48.433 10.3326 48.6996 9.99927L49.4996 10.6992C48.833 11.6992 47.833 12.1992 46.4996 12.1992ZM46.2996 5.09924C45.7663 5.09924 45.333 5.29922 44.9996 5.69922C44.5996 6.09922 44.3663 6.66596 44.2996 7.39929H48.1996V7.29932C48.1996 6.56598 48.033 6.03255 47.6996 5.69922C47.3663 5.29922 46.8996 5.09924 46.2996 5.09924ZM54.9996 4.09924V5.29932C54.7996 5.29932 54.5663 5.29932 54.2996 5.29932C53.433 5.29932 52.833 5.66596 52.4996 6.39929V11.9993H51.1996V4.09924H52.4996V4.99927C52.9663 4.3326 53.5997 3.99927 54.3997 3.99927C54.6663 3.99927 54.8663 4.03258 54.9996 4.09924ZM56.1996 4.09924H57.4996V4.99927C58.0996 4.3326 58.8997 3.99927 59.8997 3.99927C61.033 3.99927 61.7996 4.39922 62.1996 5.19922C62.4663 4.86589 62.7996 4.56598 63.1996 4.29932C63.5996 4.09932 64.0996 3.99927 64.6996 3.99927C66.433 3.99927 67.2996 4.89922 67.2996 6.69922V11.9993H65.9996V6.79932C65.9996 6.26598 65.8663 5.8326 65.5996 5.49927C65.3329 5.2326 64.8996 5.09924 64.2996 5.09924C63.7663 5.09924 63.333 5.26591 62.9996 5.59924C62.6663 5.86591 62.4996 6.26598 62.4996 6.79932V11.9993H61.0996V6.89929C61.0996 5.69929 60.533 5.09924 59.3997 5.09924C58.533 5.09924 57.9329 5.49932 57.5996 6.29932V11.9993H56.1996V4.09924ZM72.6996 12.1992C71.633 12.1992 70.733 11.8659 69.9996 11.1992C69.333 10.4659 68.9996 9.49932 68.9996 8.29932V8.09924C68.9996 7.29924 69.1663 6.59927 69.4996 5.99927C69.7663 5.3326 70.1663 4.8326 70.6996 4.49927C71.2996 4.16593 71.8996 3.99927 72.4996 3.99927C73.4996 3.99927 74.2997 4.3326 74.8997 4.99927C75.4997 5.66593 75.7996 6.63263 75.7996 7.89929V8.49927H70.3997C70.3997 9.29927 70.6329 9.93263 71.0996 10.3993C71.4996 10.866 72.033 11.0992 72.6996 11.0992C73.233 11.0992 73.6663 10.9993 73.9996 10.7993C74.333 10.5993 74.5996 10.3326 74.7996 9.99927L75.6996 10.6992C75.033 11.6992 74.033 12.1992 72.6996 12.1992ZM72.4996 5.09924C71.9663 5.09924 71.4996 5.29922 71.0996 5.69922C70.7663 6.09922 70.533 6.66596 70.3997 7.39929H74.3997V7.29932C74.333 6.56598 74.133 6.03255 73.7996 5.69922C73.533 5.29922 73.0996 5.09924 72.4996 5.09924ZM76.9996 8.09924V7.99927C76.9996 6.79927 77.2997 5.83258 77.8997 5.09924C78.433 4.36591 79.1663 3.99927 80.0996 3.99927C81.0329 3.99927 81.7663 4.29929 82.2996 4.89929V0.799316H83.6996V12.0992H82.3997V11.1992C81.8663 11.8659 81.0996 12.1992 80.0996 12.1992C79.1663 12.1992 78.433 11.8326 77.8997 11.0992C77.2997 10.3659 76.9996 9.36591 76.9996 8.09924ZM78.3997 8.19922C78.3997 9.06589 78.5663 9.76598 78.8997 10.2993C79.2997 10.8327 79.7997 11.0992 80.3997 11.0992C81.2663 11.0992 81.8996 10.6993 82.2996 9.89929V6.29932C81.8996 5.49932 81.2996 5.09924 80.4996 5.09924C79.833 5.09924 79.2997 5.36596 78.8997 5.89929C78.5663 6.43263 78.3997 7.19922 78.3997 8.19922ZM87.2996 4.09924V12.0992H85.8997V4.09924H87.2996ZM85.7996 1.99927C85.7996 1.79927 85.8663 1.6326 85.9996 1.49927C86.133 1.36593 86.3329 1.29932 86.5996 1.29932C86.8663 1.29932 87.0663 1.36593 87.1996 1.49927C87.333 1.6326 87.3997 1.79927 87.3997 1.99927C87.3997 2.26593 87.333 2.46591 87.1996 2.59924C87.0663 2.73258 86.8663 2.79932 86.5996 2.79932C86.3329 2.79932 86.133 2.73258 85.9996 2.59924C85.8663 2.46591 85.7996 2.26593 85.7996 1.99927ZM95.7996 12.0992H94.3997C94.2663 11.8992 94.1996 11.5992 94.1996 11.1992C93.533 11.8659 92.7663 12.1992 91.8997 12.1992C91.0997 12.1992 90.4663 11.9992 89.9996 11.5992C89.4663 11.1326 89.1996 10.566 89.1996 9.89929C89.1996 9.03263 89.533 8.39927 90.1996 7.99927C90.7996 7.5326 91.6663 7.29932 92.7996 7.29932H94.1996V6.59924C94.1996 6.13258 94.033 5.76593 93.6996 5.49927C93.433 5.2326 93.033 5.09924 92.4996 5.09924C92.033 5.09924 91.633 5.2326 91.2996 5.49927C90.9663 5.69927 90.7996 5.96598 90.7996 6.29932H89.3997C89.3997 5.89932 89.533 5.53255 89.7996 5.19922C90.0663 4.79922 90.4663 4.49932 90.9996 4.29932C91.4663 4.09932 91.9996 3.99927 92.5996 3.99927C93.4663 3.99927 94.1663 4.23255 94.6996 4.69922C95.233 5.16589 95.4996 5.79924 95.4996 6.59924V10.1992C95.4996 10.9326 95.5996 11.5326 95.7996 11.9993V12.0992ZM92.0996 10.9993C92.5663 10.9993 92.9663 10.8992 93.2996 10.6992C93.6996 10.4992 93.9996 10.1993 94.1996 9.79932V8.19922H93.0996C91.4329 8.19922 90.5996 8.69922 90.5996 9.69922C90.5996 10.0992 90.733 10.4326 90.9996 10.6992C91.2663 10.8992 91.6329 10.9993 92.0996 10.9993ZM98.0996 2.19922H99.4996V4.09924H100.9V5.19922H99.4996V10.0992C99.4996 10.4326 99.5663 10.666 99.6996 10.7993C99.833 10.9326 100.033 10.9993 100.3 10.9993C100.5 10.9993 100.733 10.9993 101 10.9993V12.0992C100.666 12.1659 100.3 12.1992 99.8997 12.1992C99.2997 12.1992 98.8663 11.9992 98.5996 11.5992C98.2663 11.2659 98.0996 10.7659 98.0996 10.0992V5.19922H96.6996V4.09924H98.0996V2.19922ZM105.8 12.1992C104.733 12.1992 103.866 11.8659 103.2 11.1992C102.533 10.4659 102.2 9.49932 102.2 8.29932V8.09924C102.2 7.29924 102.333 6.59927 102.6 5.99927C102.933 5.3326 103.366 4.8326 103.9 4.49927C104.433 4.16593 105.033 3.99927 105.7 3.99927C106.7 3.99927 107.5 4.3326 108.1 4.99927C108.633 5.66593 108.9 6.63263 108.9 7.89929V8.49927H103.5C103.566 9.29927 103.8 9.93263 104.2 10.3993C104.666 10.866 105.233 11.0992 105.9 11.0992C106.366 11.0992 106.766 10.9993 107.1 10.7993C107.433 10.5993 107.733 10.3326 108 9.99927L108.8 10.6992C108.133 11.6992 107.133 12.1992 105.8 12.1992ZM105.7 5.09924C105.1 5.09924 104.633 5.29922 104.3 5.69922C103.9 6.09922 103.666 6.66596 103.6 7.39929H107.6V7.29932C107.533 6.56598 107.333 6.03255 107 5.69922C106.666 5.29922 106.233 5.09924 105.7 5.09924ZM113.9 8.09924V7.99927C113.9 6.79927 114.166 5.83258 114.7 5.09924C115.3 4.36591 116.066 3.99927 117 3.99927C117.933 3.99927 118.666 4.3326 119.2 4.99927V0.799316H120.5V12.0992H119.3L119.2 11.1992C118.666 11.8659 117.933 12.1992 117 12.1992C116.066 12.1992 115.3 11.8326 114.7 11.0992C114.166 10.3659 113.9 9.36591 113.9 8.09924ZM115.2 8.19922C115.2 9.06589 115.4 9.76598 115.8 10.2993C116.133 10.8327 116.633 11.0992 117.3 11.0992C118.166 11.0992 118.8 10.6993 119.2 9.89929V6.29932C118.8 5.49932 118.166 5.09924 117.3 5.09924C116.633 5.09924 116.133 5.36596 115.8 5.89929C115.4 6.43263 115.2 7.19922 115.2 8.19922ZM129 12.0992H127.5C127.433 11.8992 127.4 11.5992 127.4 11.1992C126.733 11.8659 125.966 12.1992 125.1 12.1992C124.3 12.1992 123.666 11.9992 123.2 11.5992C122.666 11.1326 122.4 10.566 122.4 9.89929C122.4 9.03263 122.733 8.39927 123.4 7.99927C124 7.5326 124.866 7.29932 126 7.29932H127.3V6.59924C127.3 6.13258 127.166 5.76593 126.9 5.49927C126.633 5.2326 126.233 5.09924 125.7 5.09924C125.166 5.09924 124.733 5.2326 124.4 5.49927C124.066 5.69927 123.9 5.96598 123.9 6.29932H122.6C122.6 5.89932 122.733 5.53255 123 5.19922C123.266 4.79922 123.633 4.49932 124.1 4.29932C124.633 4.09932 125.166 3.99927 125.7 3.99927C126.633 3.99927 127.366 4.23255 127.9 4.69922C128.433 5.16589 128.7 5.79924 128.7 6.59924V10.1992C128.7 10.9326 128.8 11.5326 129 11.9993V12.0992ZM125.3 10.9993C125.7 10.9993 126.1 10.8992 126.5 10.6992C126.9 10.4992 127.166 10.1993 127.3 9.79932V8.19922H126.3C124.633 8.19922 123.8 8.69922 123.8 9.69922C123.8 10.0992 123.933 10.4326 124.2 10.6992C124.466 10.8992 124.833 10.9993 125.3 10.9993ZM134.6 4.09924V5.29932C134.4 5.29932 134.2 5.29932 134 5.29932C133.066 5.29932 132.466 5.66596 132.2 6.39929V12.0992H130.8V4.09924H132.1L132.2 4.99927C132.6 4.3326 133.2 3.99927 134 3.99927C134.266 3.99927 134.466 4.03258 134.6 4.09924ZM141.9 12.0992H140.5C140.433 11.8992 140.366 11.5992 140.3 11.1992C139.7 11.8659 138.933 12.1992 138 12.1992C137.266 12.1992 136.633 11.9659 136.1 11.4993C135.633 11.0993 135.4 10.566 135.4 9.89929C135.4 9.03263 135.7 8.36596 136.3 7.89929C136.9 7.43263 137.8 7.19922 139 7.19922H140.3V6.59924C140.3 6.13258 140.133 5.76593 139.8 5.49927C139.533 5.2326 139.133 5.09924 138.6 5.09924C138.133 5.09924 137.733 5.19929 137.4 5.39929C137.066 5.66596 136.9 5.96598 136.9 6.29932H135.5C135.5 5.89932 135.633 5.53255 135.9 5.19922C136.233 4.79922 136.633 4.49932 137.1 4.29932C137.566 4.09932 138.1 3.99927 138.7 3.99927C139.566 3.99927 140.266 4.23255 140.8 4.69922C141.333 5.16589 141.6 5.79924 141.6 6.59924V10.1992C141.6 10.9326 141.7 11.4993 141.9 11.8993V12.0992ZM138.2 11.0992C138.666 11.0992 139.066 10.9993 139.4 10.7993C139.8 10.5326 140.1 10.2326 140.3 9.89929V8.29932H139.2C137.533 8.29932 136.7 8.76589 136.7 9.69922C136.7 10.1659 136.833 10.4992 137.1 10.6992C137.433 10.9659 137.8 11.0992 138.2 11.0992ZM143.8 4.19922H145.2V13.0992C145.2 14.5659 144.5 15.2993 143.1 15.2993C142.766 15.2993 142.5 15.2659 142.3 15.1992V14.0992C142.433 14.1659 142.633 14.1992 142.9 14.1992C143.166 14.1992 143.4 14.0993 143.6 13.8993C143.733 13.766 143.8 13.4992 143.8 13.0992V4.19922ZM143.7 2.09924C143.7 1.89924 143.766 1.69927 143.9 1.49927C144.033 1.36593 144.2 1.29932 144.4 1.29932C144.666 1.29932 144.866 1.36593 145 1.49927C145.2 1.6326 145.3 1.83258 145.3 2.09924C145.3 2.29924 145.2 2.46591 145 2.59924C144.866 2.73258 144.666 2.79932 144.4 2.79932C144.2 2.79932 144.033 2.73258 143.9 2.59924C143.766 2.46591 143.7 2.29924 143.7 2.09924ZM153.6 12.0992H152.2C152.133 11.9659 152.066 11.6993 152 11.2993C151.4 11.966 150.666 12.2993 149.8 12.2993C149 12.2993 148.366 12.0659 147.9 11.5992C147.366 11.1326 147.1 10.566 147.1 9.89929C147.1 9.09929 147.4 8.46593 148 7.99927C148.666 7.5326 149.566 7.29932 150.7 7.29932H152V6.69922C152 6.23255 151.866 5.86591 151.6 5.59924C151.333 5.26591 150.9 5.09924 150.3 5.09924C149.833 5.09924 149.433 5.2326 149.1 5.49927C148.766 5.76593 148.6 6.06596 148.6 6.39929H147.3C147.3 5.99929 147.433 5.59922 147.7 5.19922C147.966 4.86589 148.333 4.59929 148.8 4.39929C149.333 4.13263 149.866 3.99927 150.4 3.99927C151.333 3.99927 152.066 4.23255 152.6 4.69922C153.066 5.16589 153.333 5.79924 153.4 6.59924V10.2993C153.4 10.966 153.466 11.5326 153.6 11.9993V12.0992ZM150 11.0992C150.4 11.0992 150.8 10.9659 151.2 10.6992C151.6 10.4992 151.866 10.2326 152 9.89929V8.19922H151C149.333 8.19922 148.5 8.69922 148.5 9.69922C148.5 10.0992 148.633 10.4326 148.9 10.6992C149.166 10.9659 149.533 11.0992 150 11.0992ZM159.7 2.19922H161V4.19922H162.5V5.19922H161V10.0992C161 10.4326 161.066 10.666 161.2 10.7993C161.333 10.9993 161.566 11.0992 161.9 11.0992C162.1 11.0992 162.333 11.0659 162.6 10.9993V12.0992C162.2 12.1659 161.833 12.1992 161.5 12.1992C160.9 12.1992 160.466 12.0326 160.2 11.6992C159.866 11.2992 159.7 10.7659 159.7 10.0992V5.19922H158.2V4.19922H159.7V2.19922ZM170.4 11.9993H169C168.933 11.8659 168.866 11.5992 168.8 11.1992C168.2 11.8659 167.466 12.1992 166.6 12.1992C165.8 12.1992 165.133 11.9659 164.6 11.4993C164.133 11.0326 163.9 10.466 163.9 9.79932C163.9 8.99932 164.2 8.36596 164.8 7.89929C165.466 7.43263 166.366 7.19922 167.5 7.19922H168.8V6.59924C168.8 6.13258 168.666 5.76593 168.4 5.49927C168.066 5.16593 167.633 4.99927 167.1 4.99927C166.633 4.99927 166.233 5.13263 165.9 5.39929C165.566 5.66596 165.4 5.96598 165.4 6.29932H164C164 5.89932 164.166 5.49924 164.5 5.09924C164.766 4.76591 165.133 4.49932 165.6 4.29932C166.066 4.03265 166.6 3.89929 167.2 3.89929C168.133 3.89929 168.833 4.13258 169.3 4.59924C169.833 5.06591 170.1 5.69927 170.1 6.49927V10.1992C170.1 10.8659 170.2 11.4326 170.4 11.8993V11.9993ZM166.8 10.9993C167.2 10.9993 167.6 10.8659 168 10.5992C168.333 10.3992 168.6 10.1326 168.8 9.79932V8.09924H167.7C166.033 8.09924 165.2 8.59924 165.2 9.59924C165.2 9.99924 165.366 10.3326 165.7 10.5992C165.966 10.8659 166.333 10.9993 166.8 10.9993ZM173.7 0.699219V11.9993H172.4V0.699219H173.7ZM182.2 11.9993H180.7C180.633 11.8659 180.6 11.5992 180.6 11.1992C179.933 11.7992 179.166 12.0992 178.3 12.0992C177.5 12.0992 176.866 11.8993 176.4 11.4993C175.866 11.0326 175.6 10.466 175.6 9.79932C175.6 8.99932 175.933 8.36596 176.6 7.89929C177.2 7.43263 178.066 7.19922 179.2 7.19922H180.5V6.59924C180.5 6.13258 180.366 5.73263 180.1 5.39929C179.833 5.13263 179.433 4.99927 178.9 4.99927C178.366 4.99927 177.933 5.13263 177.6 5.39929C177.266 5.59929 177.1 5.89932 177.1 6.29932H175.8C175.8 5.89932 175.933 5.49924 176.2 5.09924C176.466 4.76591 176.833 4.46589 177.3 4.19922C177.833 3.99922 178.366 3.89929 178.9 3.89929C179.833 3.89929 180.566 4.13258 181.1 4.59924C181.633 5.06591 181.9 5.69927 181.9 6.49927V10.0992C181.9 10.8326 182 11.4326 182.2 11.8993V11.9993ZM178.5 10.8993C178.9 10.8993 179.3 10.7992 179.7 10.5992C180.1 10.3992 180.366 10.1326 180.5 9.79932V8.09924H179.5C177.833 8.09924 177 8.59924 177 9.59924C177 9.99924 177.133 10.3326 177.4 10.5992C177.666 10.7992 178.033 10.8993 178.5 10.8993ZM190.7 7.99927V8.09924C190.7 9.29924 190.433 10.2659 189.9 10.9993C189.3 11.7326 188.533 12.0992 187.6 12.0992C186.6 12.0992 185.833 11.7659 185.3 11.0992V11.9993H184V0.699219H185.4V4.89929C185.933 4.23263 186.666 3.89929 187.6 3.89929C188.6 3.89929 189.366 4.26593 189.9 4.99927C190.433 5.7326 190.7 6.7326 190.7 7.99927ZM189.4 7.89929C189.4 7.03263 189.2 6.33265 188.8 5.79932C188.466 5.33265 187.966 5.09924 187.3 5.09924C186.433 5.09924 185.8 5.49932 185.4 6.29932V9.69922C185.8 10.5659 186.433 10.9993 187.3 10.9993C187.966 10.9993 188.466 10.7326 188.8 10.1992C189.2 9.73255 189.4 8.96596 189.4 7.89929ZM199.4 12.0992C198.333 12.0992 197.466 11.7659 196.8 11.0992C196.133 10.3659 195.8 9.39922 195.8 8.19922V7.99927C195.8 7.19927 195.933 6.49929 196.2 5.89929C196.533 5.23263 196.966 4.73263 197.5 4.39929C198.033 4.06596 198.633 3.89929 199.3 3.89929C200.3 3.89929 201.1 4.23263 201.7 4.89929C202.233 5.56596 202.5 6.53265 202.5 7.79932V8.39929H197.1C197.166 9.19929 197.4 9.83265 197.8 10.2993C198.266 10.766 198.833 10.9993 199.5 10.9993C199.966 10.9993 200.366 10.8992 200.7 10.6992C201.033 10.4992 201.333 10.2326 201.6 9.89929L202.4 10.5992C201.733 11.5992 200.733 12.0992 199.4 12.0992ZM199.3 4.99927C198.7 4.99927 198.233 5.19924 197.9 5.59924C197.5 5.99924 197.266 6.56598 197.2 7.29932H201.2V7.19922C201.133 6.53255 200.933 5.99924 200.6 5.59924C200.266 5.19924 199.833 4.99927 199.3 4.99927ZM204.6 2.09924H205.9V3.99927H207.4V5.09924H205.9V9.99927C205.9 10.3326 205.966 10.5659 206.1 10.6992C206.233 10.8992 206.466 10.9993 206.8 10.9993C206.933 10.9993 207.133 10.966 207.4 10.8993V11.9993C207.066 12.0659 206.733 12.0992 206.4 12.0992C205.8 12.0992 205.333 11.9326 205 11.5992C204.733 11.1992 204.6 10.6659 204.6 9.99927V5.09924H203.1V3.99927H204.6V2.09924ZM210.5 4.09924V11.9993H209.1V4.09924H210.5ZM209 1.99927C209 1.7326 209.066 1.53263 209.2 1.39929C209.333 1.26596 209.533 1.19922 209.8 1.19922C210.066 1.19922 210.266 1.26596 210.4 1.39929C210.533 1.53263 210.6 1.7326 210.6 1.99927C210.6 2.19927 210.533 2.36593 210.4 2.49927C210.266 2.6326 210.066 2.69922 209.8 2.69922C209.533 2.69922 209.333 2.6326 209.2 2.49927C209.066 2.36593 209 2.19927 209 1.99927ZM214.1 0.699219V11.9993H212.8V0.699219H214.1ZM222.6 11.9993H221.1C221.033 11.8659 221 11.5992 221 11.1992C220.333 11.7992 219.566 12.0992 218.7 12.0992C217.9 12.0992 217.266 11.8993 216.8 11.4993C216.266 11.0326 216 10.466 216 9.79932C216 8.99932 216.333 8.36596 217 7.89929C217.6 7.43263 218.466 7.19922 219.6 7.19922H220.9V6.59924C220.9 6.13258 220.766 5.73263 220.5 5.39929C220.233 5.13263 219.833 4.99927 219.3 4.99927C218.766 4.99927 218.333 5.13263 218 5.39929C217.733 5.59929 217.6 5.89932 217.6 6.29932H216.2C216.2 5.89932 216.333 5.49924 216.6 5.09924C216.866 4.76591 217.233 4.46589 217.7 4.19922C218.233 3.99922 218.766 3.89929 219.3 3.89929C220.233 3.89929 220.966 4.13258 221.5 4.59924C222.033 5.06591 222.3 5.69927 222.3 6.49927V10.0992C222.3 10.8326 222.4 11.4326 222.6 11.8993V11.9993ZM218.9 10.8993C219.3 10.8993 219.7 10.7992 220.1 10.5992C220.5 10.3992 220.766 10.1326 220.9 9.79932V8.09924H219.9C218.233 8.09924 217.4 8.59924 217.4 9.59924C217.4 9.99924 217.533 10.3326 217.8 10.5992C218.066 10.7992 218.433 10.8993 218.9 10.8993ZM224.1 7.99927V7.89929C224.1 6.69929 224.366 5.7326 224.9 4.99927C225.5 4.26593 226.266 3.89929 227.2 3.89929C228.133 3.89929 228.866 4.23263 229.4 4.89929V0.699219H230.8V11.9993H229.5V11.0992C228.9 11.7659 228.133 12.0992 227.2 12.0992C226.266 12.0992 225.5 11.7326 224.9 10.9993C224.366 10.2659 224.1 9.26593 224.1 7.99927ZM225.4 8.09924C225.4 8.96591 225.6 9.66588 226 10.1992C226.4 10.7326 226.9 10.9993 227.5 10.9993C228.366 10.9993 229 10.5993 229.4 9.79932V6.19922C229 5.46589 228.366 5.09924 227.5 5.09924C226.9 5.09924 226.4 5.33265 226 5.79932C225.6 6.33265 225.4 7.09924 225.4 8.09924ZM234.3 3.99927V11.9993H233V3.99927H234.3ZM232.8 1.89929C232.8 1.69929 232.866 1.53263 233 1.39929C233.133 1.26596 233.333 1.19922 233.6 1.19922C233.866 1.19922 234.066 1.26596 234.2 1.39929C234.333 1.53263 234.4 1.69929 234.4 1.89929C234.4 2.16596 234.333 2.36593 234.2 2.49927C234.066 2.6326 233.866 2.69922 233.6 2.69922C233.333 2.69922 233.133 2.6326 233 2.49927C232.866 2.36593 232.8 2.16596 232.8 1.89929Z" fill="white"/>
</svg>
