<svg width="233" height="26" viewBox="0 0 233 26" fill="none" xmlns="http://www.w3.org/2000/svg">
<path d="M4.90021 2.5H0.700195V20H4.90021V2.5ZM3.30017 2.5V6H6.7002C7.56686 6 8.23353 6.16667 8.7002 6.5C9.23353 6.9 9.50018 7.46662 9.50018 8.19995C9.50018 8.93328 9.23353 9.50002 8.7002 9.90002C8.23353 10.3 7.56686 10.5 6.7002 10.5H3.30017V13.9H6.7002C8.23353 13.9 9.50018 13.7 10.5002 13.3C11.5002 12.7667 12.2668 12.1 12.8002 11.3C13.2668 10.4334 13.5002 9.39995 13.5002 8.19995C13.5002 6.99995 13.2668 5.99995 12.8002 5.19995C12.2668 4.33328 11.5002 3.66662 10.5002 3.19995C9.50018 2.73328 8.23353 2.5 6.7002 2.5H3.30017ZM19.1002 20V8.5H15.4002V20H19.1002ZM22.4002 12.4L24.0002 9.19995C23.8002 8.86662 23.5335 8.63333 23.2002 8.5C22.8002 8.3 22.4002 8.19995 22.0002 8.19995C21.3335 8.19995 20.7002 8.40005 20.1002 8.80005C19.5668 9.26672 19.1002 9.83333 18.7002 10.5C18.3669 11.2333 18.2002 12.0667 18.2002 13L19.1002 14.3C19.1002 13.7667 19.1668 13.3 19.3002 12.9C19.4335 12.5 19.6668 12.2 20.0002 12C20.2668 11.8 20.5669 11.7 20.9002 11.7C21.2335 11.7 21.5335 11.7667 21.8002 11.9C22.0002 12.0334 22.2002 12.2 22.4002 12.4ZM31.1002 20.2C32.5668 20.2666 33.8002 20 34.8002 19.4C35.8668 18.8 36.7002 17.9334 37.3002 16.8L33.9002 16C33.6335 16.5333 33.2668 16.9333 32.8002 17.2C32.3335 17.4 31.7668 17.5 31.1002 17.5C30.5002 17.5 30.0002 17.4 29.6002 17.2C29.2002 16.9333 28.9002 16.5333 28.7002 16C28.5002 15.5333 28.4002 14.9333 28.4002 14.2C28.4002 13.4 28.5002 12.7667 28.7002 12.3C28.9002 11.7667 29.2002 11.4 29.6002 11.2C29.9335 10.9333 30.4002 10.8 31.0002 10.8C31.4669 10.8 31.8669 10.9 32.2002 11.1C32.5335 11.3 32.7669 11.5667 32.9002 11.9C33.1002 12.3 33.2002 12.7333 33.2002 13.2C33.2002 13.3333 33.1668 13.5 33.1002 13.7C33.0335 13.8333 32.9669 13.9666 32.9002 14.1L33.8002 13H26.7002V15H37.2002C37.2669 14.9333 37.3002 14.8 37.3002 14.6C37.3002 14.4 37.3002 14.2333 37.3002 14.1C37.3002 12.8333 37.0335 11.7667 36.5002 10.9C36.0335 10.0334 35.3335 9.4 34.4002 9C33.5335 8.53333 32.4335 8.30005 31.1002 8.30005C29.7668 8.30005 28.6002 8.53333 27.6002 9C26.6002 9.46667 25.8669 10.1333 25.4002 11C24.8669 11.9333 24.6002 13.0334 24.6002 14.3C24.6002 15.5 24.8669 16.5334 25.4002 17.4C25.9335 18.3334 26.6668 19.0333 27.6002 19.5C28.6002 20.0333 29.7668 20.3 31.1002 20.3V20.2ZM38.2002 12.3V15.6H43.5002V12.3H38.2002ZM44.9002 4.09998C44.9002 4.69998 45.1335 5.19998 45.6002 5.59998C46.0002 5.93331 46.5002 6.09998 47.1002 6.09998C47.7002 6.09998 48.2335 5.93331 48.7002 5.59998C49.1002 5.19998 49.3002 4.69998 49.3002 4.09998C49.3002 3.49998 49.1002 2.99998 48.7002 2.59998C48.2335 2.26664 47.7002 2.09998 47.1002 2.09998C46.5002 2.09998 46.0002 2.26664 45.6002 2.59998C45.1335 2.99998 44.9002 3.49998 44.9002 4.09998ZM48.9002 8.40002H45.3002V19.9H48.9002V8.40002ZM57.9002 20.2C59.3669 20.1333 60.6002 19.8334 61.6002 19.3C62.6668 18.7 63.5002 17.8333 64.1002 16.7L60.7002 15.9C60.4335 16.4334 60.0335 16.8333 59.5002 17.1C59.0335 17.3 58.4668 17.4 57.8002 17.4C57.2668 17.4 56.8002 17.3 56.4002 17.1C56.0002 16.7666 55.7002 16.3667 55.5002 15.9C55.3002 15.3667 55.2002 14.7666 55.2002 14.1C55.2002 13.3 55.3002 12.6666 55.5002 12.2C55.7002 11.6666 55.9668 11.3 56.3002 11.1C56.7002 10.8333 57.2002 10.7 57.8002 10.7C58.2002 10.7 58.5669 10.8 58.9002 11C59.2335 11.2 59.5002 11.4667 59.7002 11.8C59.9002 12.2 60.0002 12.6333 60.0002 13.1C60.0002 13.2333 59.9669 13.4 59.9002 13.6C59.8335 13.7333 59.7669 13.8667 59.7002 14L60.6002 12.9H53.5002V14.9H64.0002C64.0002 14.8334 64.0002 14.7 64.0002 14.5C64.0002 14.3 64.0002 14.1333 64.0002 14C64.0002 12.7333 63.7668 11.6667 63.3002 10.8C62.8335 9.93338 62.1335 9.30002 61.2002 8.90002C60.2669 8.36669 59.1335 8.09998 57.8002 8.09998C56.4668 8.09998 55.3335 8.36669 54.4002 8.90002C53.4002 9.36669 52.6335 10.0334 52.1002 10.9C51.6335 11.8334 51.4002 12.9333 51.4002 14.2C51.4002 15.4 51.6669 16.4334 52.2002 17.3C52.7335 18.2334 53.4669 18.9334 54.4002 19.4C55.4002 19.8667 56.5669 20.1 57.9002 20.1V20.2ZM70.2002 0.5H66.4002V20H70.2002V0.5ZM79.5002 8.5H71.8002V11.6H79.5002V8.5ZM77.4002 4.5H73.8002V20H77.4002V4.5ZM81.7002 15.9L80.1002 18.4C80.6335 18.7334 81.2002 19.0667 81.8002 19.4C82.4002 19.7334 83.0335 20 83.7002 20.2C84.4335 20.4 85.2002 20.5 86.0002 20.5C87.4002 20.5 88.4669 20.2 89.2002 19.6C90.0002 18.9333 90.4002 18 90.4002 16.8C90.4002 16.0667 90.2335 15.5 89.9002 15.1C89.6335 14.6333 89.2335 14.2667 88.7002 14C88.1669 13.7333 87.6002 13.4666 87.0002 13.2C86.4669 13 86.0002 12.8333 85.6002 12.7C85.2002 12.5666 84.9002 12.4 84.7002 12.2C84.5002 12.0666 84.4002 11.8666 84.4002 11.6C84.4002 11.4 84.4668 11.2333 84.6002 11.1C84.8002 10.9666 85.0669 10.9 85.4002 10.9C85.9335 10.9 86.5002 11.0334 87.1002 11.3C87.7668 11.5667 88.3335 11.9334 88.8002 12.4L90.1002 10C89.7002 9.66667 89.2335 9.36664 88.7002 9.09998C88.1669 8.83331 87.6335 8.63333 87.1002 8.5C86.5002 8.36667 85.8669 8.30005 85.2002 8.30005C84.4002 8.30005 83.6668 8.39998 83.0002 8.59998C82.3335 8.86664 81.8335 9.23328 81.5002 9.69995C81.1002 10.2333 80.9002 10.8333 80.9002 11.5C80.9002 12.2333 81.0669 12.8334 81.4002 13.3C81.7335 13.7667 82.1335 14.1334 82.6002 14.4C83.0668 14.7334 83.6002 14.9666 84.2002 15.1C84.8002 15.3 85.2668 15.5 85.6002 15.7C86.0002 15.8333 86.2669 16 86.4002 16.2C86.5335 16.3333 86.6002 16.5334 86.6002 16.8C86.6002 17.0667 86.5002 17.3 86.3002 17.5C86.1668 17.6333 85.9002 17.7 85.5002 17.7C85.2335 17.7 84.9002 17.6666 84.5002 17.6C84.1668 17.4666 83.7668 17.2667 83.3002 17C82.8335 16.7333 82.3002 16.3667 81.7002 15.9ZM99.3002 14.3C99.3002 15.5 99.5668 16.5334 100.1 17.4C100.7 18.3334 101.5 19.0333 102.5 19.5C103.5 20.0333 104.634 20.3 105.9 20.3C107.1 20.3 108.2 20.0333 109.2 19.5C110.2 19.0333 111 18.3334 111.6 17.4C112.133 16.5334 112.4 15.5 112.4 14.3C112.4 13.0334 112.133 11.9666 111.6 11.1C111 10.1666 110.2 9.46667 109.2 9C108.2 8.46667 107.1 8.19995 105.9 8.19995C104.634 8.19995 103.5 8.46667 102.5 9C101.5 9.46667 100.7 10.1666 100.1 11.1C99.5668 11.9666 99.3002 13.0334 99.3002 14.3ZM103.2 14.3C103.2 13.7 103.3 13.1666 103.5 12.7C103.767 12.3 104.1 11.9666 104.5 11.7C104.9 11.5 105.367 11.4 105.9 11.4C106.367 11.4 106.8 11.5 107.2 11.7C107.6 11.9666 107.934 12.3 108.2 12.7C108.4 13.1666 108.5 13.7 108.5 14.3C108.5 14.9 108.4 15.4 108.2 15.8C107.934 16.2 107.6 16.5334 107.2 16.8C106.8 17 106.367 17.1 105.9 17.1C105.367 17.1 104.9 17 104.5 16.8C104.1 16.5334 103.767 16.2 103.5 15.8C103.3 15.4 103.2 14.9 103.2 14.3ZM122.2 13V20H126.1V12.6C126.1 11.2666 125.767 10.2 125.1 9.40002C124.433 8.60002 123.4 8.19995 122 8.19995C121.134 8.19995 120.4 8.40005 119.8 8.80005C119.267 9.13338 118.834 9.59995 118.5 10.2V8.5H114.7V20H118.5V13C118.5 12.6 118.567 12.2334 118.7 11.9C118.9 11.5667 119.134 11.3 119.4 11.1C119.734 10.9666 120.1 10.9 120.5 10.9C121.1 10.9 121.534 11.0667 121.8 11.4C122.067 11.8 122.2 12.3333 122.2 13ZM132.9 0.5H129.1V20H132.9V0.5ZM138.7 16.4C138.7 16.1334 138.767 15.9 138.9 15.7C139.034 15.5 139.234 15.3667 139.5 15.3C139.767 15.1667 140.133 15.1 140.6 15.1C141.2 15.1 141.767 15.2 142.3 15.4C142.834 15.5334 143.3 15.7666 143.7 16.1V14.4C143.5 14.2 143.2 13.9666 142.8 13.7C142.4 13.5 141.9 13.3333 141.3 13.2C140.767 13.1333 140.134 13.1 139.4 13.1C138 13.1 136.9 13.4 136.1 14C135.3 14.6667 134.9 15.5333 134.9 16.6C134.9 17.4 135.1 18.0666 135.5 18.6C135.9 19.1333 136.4 19.5667 137 19.9C137.6 20.1667 138.267 20.3 139 20.3C139.734 20.3 140.433 20.1667 141.1 19.9C141.7 19.6334 142.2 19.2333 142.6 18.7C143 18.2333 143.2 17.6334 143.2 16.9L142.8 15.4C142.8 15.9334 142.7 16.3666 142.5 16.7C142.234 17.1 141.933 17.4 141.6 17.6C141.2 17.7333 140.8 17.8 140.4 17.8C140.067 17.8 139.8 17.7666 139.6 17.7C139.333 17.5666 139.134 17.4 139 17.2C138.8 17 138.7 16.7334 138.7 16.4ZM135.8 9.5L137.1 12.1C137.233 11.9666 137.5 11.8333 137.9 11.7C138.234 11.5 138.633 11.3333 139.1 11.2C139.633 11.1333 140.167 11.1 140.7 11.1C141.034 11.1 141.333 11.1333 141.6 11.2C141.867 11.2666 142.1 11.3667 142.3 11.5C142.5 11.6333 142.634 11.8333 142.7 12.1C142.767 12.3 142.8 12.5334 142.8 12.8V20H146.5V11.9C146.5 11.1 146.267 10.4334 145.8 9.90002C145.334 9.36669 144.7 8.93331 143.9 8.59998C143.1 8.33331 142.167 8.19995 141.1 8.19995C140.033 8.19995 139.033 8.33331 138.1 8.59998C137.233 8.93331 136.467 9.23333 135.8 9.5ZM153.4 25.5L160.9 8.5H157.1L153.4 17.7H155.3L151.6 8.5H147.5L152.4 19.1L149.6 25.5H153.4ZM169.7 13V20H173.6V12.6C173.6 11.2666 173.267 10.2 172.6 9.40002C171.933 8.60002 170.9 8.19995 169.5 8.19995C168.634 8.19995 167.9 8.40005 167.3 8.80005C166.767 9.13338 166.334 9.59995 166 10.2V8.5H162.2V20H166V13C166 12.6 166.067 12.2334 166.2 11.9C166.4 11.5667 166.634 11.3 166.9 11.1C167.234 10.9666 167.6 10.9 168 10.9C168.6 10.9 169.034 11.0667 169.3 11.4C169.567 11.8 169.7 12.3333 169.7 13ZM187.7 0.5H184V20H187.7V0.5ZM196.3 8.5H191.8L186.9 13.3L192.4 20H196.8L191.4 13.3L196.3 8.5ZM202.2 15.5V8.5H198.2V15.9C198.2 17.2334 198.534 18.3 199.2 19.1C199.867 19.9 200.934 20.3 202.4 20.3C203.2 20.3 203.9 20.1 204.5 19.7C205.034 19.3666 205.5 18.9 205.9 18.3V20H209.6V8.5H205.9V15.5C205.9 15.9 205.8 16.2666 205.6 16.6C205.467 16.9333 205.234 17.1667 204.9 17.3C204.634 17.5 204.3 17.6 203.9 17.6C203.234 17.6 202.8 17.4333 202.6 17.1C202.333 16.7 202.2 16.1667 202.2 15.5ZM216.3 20V8.5H212.6V20H216.3ZM219.6 12.4L221.3 9.09998C221.1 8.83331 220.8 8.60002 220.4 8.40002C220 8.26669 219.6 8.19995 219.2 8.19995C218.534 8.19995 217.934 8.40005 217.4 8.80005C216.8 9.20005 216.3 9.76667 215.9 10.5C215.567 11.2333 215.4 12.0667 215.4 13L216.3 14.3C216.3 13.7667 216.367 13.3 216.5 12.9C216.7 12.5 216.934 12.2 217.2 12C217.467 11.8 217.8 11.7 218.2 11.7C218.534 11.7 218.8 11.7667 219 11.9C219.2 12.0334 219.4 12.2 219.6 12.4ZM223.5 15.8L221.9 18.3C222.434 18.7 223 19.0667 223.6 19.4C224.2 19.7334 224.834 20 225.5 20.2C226.234 20.3333 227 20.4 227.8 20.4C229.2 20.4 230.267 20.1 231 19.5C231.8 18.9 232.2 17.9666 232.2 16.7C232.2 15.9666 232.033 15.4 231.7 15C231.433 14.5333 231.034 14.1667 230.5 13.9C229.967 13.6334 229.4 13.4 228.8 13.2C228.267 12.9333 227.8 12.7333 227.4 12.6C227 12.4666 226.7 12.3333 226.5 12.2C226.3 12 226.2 11.8 226.2 11.6C226.2 11.3333 226.267 11.1333 226.4 11C226.6 10.8667 226.867 10.8 227.2 10.8C227.733 10.8 228.3 10.9667 228.9 11.3C229.567 11.5667 230.133 11.9334 230.6 12.4L231.9 9.90002C231.5 9.56669 231.034 9.29998 230.5 9.09998C229.967 8.83331 229.434 8.60002 228.9 8.40002C228.3 8.26669 227.667 8.19995 227 8.19995C226.2 8.19995 225.467 8.33331 224.8 8.59998C224.134 8.86664 223.634 9.23328 223.3 9.69995C222.9 10.1666 222.7 10.7667 222.7 11.5C222.7 12.2333 222.867 12.8334 223.2 13.3C223.533 13.7667 223.934 14.1334 224.4 14.4C224.867 14.6667 225.4 14.9 226 15.1C226.6 15.3 227.067 15.4666 227.4 15.6C227.8 15.8 228.067 15.9666 228.2 16.1C228.333 16.3 228.4 16.5334 228.4 16.8C228.4 17.0667 228.3 17.2667 228.1 17.4C227.967 17.6 227.7 17.7 227.3 17.7C227.034 17.7 226.7 17.6333 226.3 17.5C225.967 17.3667 225.567 17.1667 225.1 16.9C224.633 16.6334 224.1 16.2667 223.5 15.8Z" fill="white"/>
</svg>
