<svg width="162" height="16" viewBox="0 0 162 16" fill="none" xmlns="http://www.w3.org/2000/svg">
<path d="M8.69962 6.29883V6.99902C8.69962 8.06569 8.53295 8.96589 8.19962 9.69922C7.86628 10.4326 7.39959 10.9989 6.79959 11.3989L8.69962 12.8989L7.79959 13.7988L5.4996 11.999C5.16627 12.0657 4.7996 12.0991 4.3996 12.0991C3.53293 12.0991 2.79962 11.899 2.19962 11.499C1.53295 11.099 0.999609 10.5322 0.599609 9.79883C0.266276 8.99883 0.0996094 8.09912 0.0996094 7.09912V6.29883C0.0996094 5.29883 0.266276 4.39912 0.599609 3.59912C0.999609 2.79912 1.49961 2.19883 2.09961 1.79883C2.76628 1.39883 3.53293 1.19922 4.3996 1.19922C5.26626 1.19922 5.99961 1.39883 6.59961 1.79883C7.26628 2.19883 7.79962 2.79912 8.19962 3.59912C8.53295 4.39912 8.69962 5.29883 8.69962 6.29883ZM7.29959 7.09912V6.29883C7.29959 5.03216 7.03294 4.06559 6.4996 3.39893C6.03294 2.73226 5.33293 2.39893 4.3996 2.39893C3.53293 2.39893 2.83292 2.73226 2.29959 3.39893C1.76626 4.06559 1.4996 4.99922 1.4996 6.19922V6.99902C1.4996 8.19902 1.76626 9.16559 2.29959 9.89893C2.76626 10.6323 3.46626 10.999 4.3996 10.999C5.33293 10.999 6.03294 10.6657 6.4996 9.99902C7.03294 9.33236 7.29959 8.36579 7.29959 7.09912ZM10.2996 8.09912V7.99902C10.2996 7.19902 10.4329 6.49893 10.6996 5.89893C11.0329 5.23226 11.4663 4.73226 11.9996 4.39893C12.5329 4.06559 13.1663 3.89893 13.8996 3.89893C14.9663 3.89893 15.8329 4.26569 16.4996 4.99902C17.1663 5.79902 17.4996 6.79902 17.4996 7.99902V8.09912C17.4996 8.89912 17.3329 9.59922 16.9996 10.1992C16.7329 10.7992 16.3329 11.2658 15.7996 11.5991C15.2663 11.9325 14.6329 12.0991 13.8996 12.0991C12.8329 12.0991 11.9663 11.7324 11.2996 10.999C10.6329 10.2657 10.2996 9.29912 10.2996 8.09912ZM11.5996 8.09912C11.5996 8.96579 11.7996 9.66588 12.1996 10.1992C12.6663 10.7326 13.2329 10.999 13.8996 10.999C14.5663 10.999 15.0996 10.7326 15.4996 10.1992C15.8996 9.66588 16.0996 8.93236 16.0996 7.99902C16.0996 7.13236 15.8996 6.43226 15.4996 5.89893C15.0996 5.29893 14.5663 4.99902 13.8996 4.99902C13.2329 4.99902 12.6996 5.26549 12.2996 5.79883C11.8329 6.33216 11.5996 7.09912 11.5996 8.09912ZM18.9996 0.699219V1.59912L18.8996 4.29883H17.8996V0.699219H18.9996ZM24.7996 9.89893C24.7996 9.49893 24.6663 9.19902 24.3996 8.99902C24.1329 8.79902 23.6663 8.63236 22.9996 8.49902C22.3329 8.36569 21.7996 8.19902 21.3996 7.99902C20.9996 7.79902 20.6996 7.5655 20.4996 7.29883C20.2996 6.96549 20.1996 6.63216 20.1996 6.29883C20.1996 5.63216 20.4663 5.06579 20.9996 4.59912C21.5329 4.13245 22.2329 3.89893 23.0996 3.89893C24.0329 3.89893 24.7663 4.13245 25.2996 4.59912C25.8329 5.06579 26.0996 5.66559 26.0996 6.39893H24.7996C24.7996 5.99893 24.6329 5.66559 24.2996 5.39893C23.9663 5.13226 23.5663 4.99902 23.0996 4.99902C22.6329 4.99902 22.2329 5.13226 21.8996 5.39893C21.6329 5.59893 21.4996 5.86589 21.4996 6.19922C21.4996 6.53255 21.6329 6.76559 21.8996 6.89893C22.1663 7.09893 22.6329 7.26559 23.2996 7.39893C23.9663 7.53226 24.5329 7.73236 24.9996 7.99902C25.3996 8.19902 25.6996 8.43255 25.8996 8.69922C26.0996 9.03255 26.1996 9.39883 26.1996 9.79883C26.1996 10.5322 25.9329 11.099 25.3996 11.499C24.7996 11.899 24.0329 12.0991 23.0996 12.0991C22.4996 12.0991 21.9663 11.9988 21.4996 11.7988C20.9663 11.5988 20.5663 11.2989 20.2996 10.8989C20.0329 10.4989 19.8996 10.0658 19.8996 9.59912H21.2996C21.2996 9.99912 21.4663 10.3325 21.7996 10.5991C22.1329 10.8658 22.5663 10.999 23.0996 10.999C23.6329 10.999 24.0663 10.8992 24.3996 10.6992C24.6663 10.4992 24.7996 10.2323 24.7996 9.89893ZM29.2996 0.699219V4.99902C29.8996 4.26569 30.6996 3.89893 31.6996 3.89893C33.3663 3.89893 34.1996 4.86549 34.1996 6.79883V11.999H32.7996V6.79883C32.7996 6.19883 32.6996 5.76569 32.4996 5.49902C32.2329 5.23236 31.8329 5.09912 31.2996 5.09912C30.8329 5.09912 30.4329 5.19893 30.0996 5.39893C29.7663 5.66559 29.4996 5.99893 29.2996 6.39893V11.999H27.9996V0.699219H29.2996ZM37.5996 4.09912V11.999H36.2996V4.09912H37.5996ZM36.0996 1.99902C36.0996 1.73236 36.1663 1.53226 36.2996 1.39893C36.4329 1.26559 36.6329 1.19922 36.8996 1.19922C37.1663 1.19922 37.3663 1.26559 37.4996 1.39893C37.6329 1.53226 37.6996 1.73236 37.6996 1.99902C37.6996 2.19902 37.6329 2.36569 37.4996 2.49902C37.3663 2.63236 37.1663 2.69922 36.8996 2.69922C36.6329 2.69922 36.4329 2.63236 36.2996 2.49902C36.1663 2.36569 36.0996 2.19902 36.0996 1.99902ZM39.7996 4.09912H40.9996L41.0996 4.99902C41.6329 4.26569 42.3996 3.89893 43.3996 3.89893C44.5329 3.89893 45.2996 4.33255 45.6996 5.19922C45.9663 4.79922 46.2996 4.49883 46.6996 4.29883C47.0996 4.03216 47.5996 3.89893 48.1996 3.89893C49.9329 3.89893 50.8329 4.83255 50.8996 6.69922V11.999H49.4996V6.79883C49.4996 6.19883 49.3663 5.76569 49.0996 5.49902C48.8329 5.23236 48.3996 5.09912 47.7996 5.09912C47.3329 5.09912 46.9329 5.23236 46.5996 5.49902C46.2663 5.83236 46.0663 6.23255 45.9996 6.69922V11.999H44.5996V6.79883C44.5996 5.66549 44.0329 5.09912 42.8996 5.09912C42.0329 5.09912 41.4329 5.46589 41.0996 6.19922V11.999H39.7996V4.09912ZM56.0996 11.0991C56.5663 11.0991 56.9996 10.9325 57.3996 10.5991C57.7329 10.3325 57.9329 9.96569 57.9996 9.49902H59.1996C59.1996 9.96569 59.0663 10.3988 58.7996 10.7988C58.4663 11.1988 58.0663 11.5322 57.5996 11.7988C57.1329 12.0655 56.6329 12.1992 56.0996 12.1992C55.0329 12.1992 54.1663 11.8325 53.4996 11.0991C52.8996 10.3658 52.5996 9.36579 52.5996 8.09912V7.89893C52.5996 7.16559 52.7329 6.49893 52.9996 5.89893C53.2663 5.23226 53.6663 4.76569 54.1996 4.49902C54.7329 4.16569 55.3663 3.99902 56.0996 3.99902C56.9663 3.99902 57.6996 4.26549 58.2996 4.79883C58.8996 5.33216 59.1996 5.99883 59.1996 6.79883H57.9996C57.9329 6.33216 57.7329 5.93245 57.3996 5.59912C56.9996 5.26579 56.5663 5.09912 56.0996 5.09912C55.3663 5.09912 54.8329 5.33216 54.4996 5.79883C54.0996 6.33216 53.8996 7.06569 53.8996 7.99902V8.19922C53.8996 9.13255 54.0996 9.83216 54.4996 10.2988C54.8329 10.8322 55.3663 11.0991 56.0996 11.0991ZM62.0996 0.798828V5.09912C62.6996 4.36579 63.4996 3.99902 64.4996 3.99902C66.1663 3.99902 66.9996 4.93216 66.9996 6.79883V11.999H65.5996V6.79883C65.5996 6.19883 65.4663 5.76569 65.1996 5.49902C64.9996 5.23236 64.5996 5.09912 63.9996 5.09912C63.5996 5.09912 63.2329 5.23236 62.8996 5.49902C62.5663 5.69902 62.2996 5.99893 62.0996 6.39893V11.999H60.7996V0.798828H62.0996ZM75.2996 11.999H73.8996C73.7663 11.8657 73.6996 11.5992 73.6996 11.1992C73.033 11.8659 72.2663 12.1992 71.3996 12.1992C70.5996 12.1992 69.9663 11.9657 69.4996 11.499C68.9663 11.0324 68.6996 10.4655 68.6996 9.79883C68.6996 8.99883 69.033 8.36559 69.6996 7.89893C70.2996 7.43226 71.1663 7.19922 72.2996 7.19922H73.5996V6.59912C73.5996 6.13245 73.4663 5.76569 73.1996 5.49902C72.9329 5.16569 72.5329 4.99902 71.9996 4.99902C71.4663 4.99902 71.0663 5.13226 70.7996 5.39893C70.4663 5.66559 70.2996 5.96549 70.2996 6.29883H68.8996C68.8996 5.89883 69.0329 5.53255 69.2996 5.19922C69.5663 4.79922 69.9663 4.49883 70.4996 4.29883C70.9663 4.09883 71.4663 3.99902 71.9996 3.99902C72.9329 3.99902 73.6663 4.19912 74.1996 4.59912C74.7329 5.06579 74.9996 5.69902 74.9996 6.49902V10.1992C74.9996 10.9326 75.0996 11.4989 75.2996 11.8989V11.999ZM71.5996 10.999C71.9996 10.999 72.3996 10.8658 72.7996 10.5991C73.1996 10.3991 73.4663 10.1322 73.5996 9.79883V8.19922H72.5996C70.9329 8.19922 70.0996 8.66579 70.0996 9.59912C70.0996 10.0658 70.2329 10.3991 70.4996 10.5991C70.7663 10.8658 71.1329 10.999 71.5996 10.999ZM82.2996 4.09912V11.999H80.9996V4.09912H82.2996ZM80.7996 1.99902C80.7996 1.79902 80.8663 1.59893 80.9996 1.39893C81.1329 1.26559 81.3329 1.19922 81.5996 1.19922C81.8663 1.19922 82.0663 1.26559 82.1996 1.39893C82.3329 1.59893 82.3996 1.79902 82.3996 1.99902C82.3996 2.19902 82.3329 2.36569 82.1996 2.49902C82.0663 2.63236 81.8663 2.69922 81.5996 2.69922C81.3329 2.69922 81.1329 2.63236 80.9996 2.49902C80.8663 2.36569 80.7996 2.19902 80.7996 1.99902ZM84.3996 4.09912H85.6996V4.99902C86.2996 4.26569 87.0996 3.89893 88.0996 3.89893C89.1663 3.89893 89.8996 4.33255 90.2996 5.19922C90.5663 4.79922 90.9329 4.49883 91.3996 4.29883C91.7996 4.03216 92.2996 3.89893 92.8996 3.89893C94.6329 3.89893 95.4996 4.83255 95.4996 6.69922V11.999H94.1996V6.79883C94.1996 6.19883 94.0663 5.76569 93.7996 5.49902C93.5329 5.23236 93.0996 5.09912 92.4996 5.09912C91.9663 5.09912 91.533 5.23236 91.1996 5.49902C90.8663 5.83236 90.6663 6.23255 90.5996 6.69922V11.999H89.2996V6.79883C89.2996 5.66549 88.7329 5.09912 87.5996 5.09912C86.7329 5.09912 86.1329 5.46589 85.7996 6.19922V11.999H84.3996V4.09912ZM102.5 11.999L99.7996 8.39893L98.8996 9.19922V11.999H97.5996V0.798828H98.8996V7.59912L99.6996 6.69922L102.1 4.09912H103.8L100.7 7.39893L104.1 11.999H102.5ZM104.8 8.09912V7.99902C104.8 7.19902 104.966 6.49893 105.3 5.89893C105.566 5.29893 105.966 4.83236 106.5 4.49902C107.1 4.16569 107.733 3.99902 108.4 3.99902C109.466 3.99902 110.333 4.36579 111 5.09912C111.666 5.83245 112 6.83245 112 8.09912V8.19922C112 8.93255 111.866 9.59922 111.6 10.1992C111.266 10.8659 110.833 11.3659 110.3 11.6992C109.766 12.0326 109.133 12.1992 108.4 12.1992C107.333 12.1992 106.466 11.8325 105.8 11.0991C105.133 10.2991 104.8 9.29912 104.8 8.09912ZM106.2 8.19922C106.2 9.06589 106.4 9.76549 106.8 10.2988C107.2 10.8322 107.733 11.0991 108.4 11.0991C109.066 11.0991 109.633 10.8322 110.1 10.2988C110.5 9.76549 110.7 8.99902 110.7 7.99902C110.7 7.13236 110.466 6.43226 110 5.89893C109.6 5.36559 109.066 5.09912 108.4 5.09912C107.733 5.09912 107.2 5.36559 106.8 5.89893C106.4 6.43226 106.2 7.19922 106.2 8.19922ZM113.7 4.09912H115V5.09912C115.666 4.36579 116.466 3.99902 117.4 3.99902C119.066 3.99902 119.9 4.93216 119.9 6.79883V11.999H118.6V6.79883C118.6 6.19883 118.466 5.76569 118.2 5.49902C117.933 5.23236 117.533 5.09912 117 5.09912C116.533 5.09912 116.133 5.23236 115.8 5.49902C115.533 5.69902 115.3 5.99893 115.1 6.39893V11.999H113.7V4.09912ZM123.5 4.09912V12.0991H122.1V4.09912H123.5ZM122 1.99902C122 1.79902 122.066 1.63236 122.2 1.49902C122.333 1.29902 122.533 1.19922 122.8 1.19922C123.066 1.19922 123.266 1.29902 123.4 1.49902C123.533 1.63236 123.6 1.79902 123.6 1.99902C123.6 2.26569 123.533 2.46579 123.4 2.59912C123.266 2.73245 123.066 2.79883 122.8 2.79883C122.533 2.79883 122.333 2.73245 122.2 2.59912C122.066 2.46579 122 2.26569 122 1.99902ZM126.3 4.09912L128.3 10.0991L130.1 4.09912H131.6L128.4 13.2988C127.866 14.6322 127.066 15.2988 126 15.2988L125.8 15.1992L125.3 15.0991V13.999L125.6 14.0991C126.066 14.0991 126.433 13.9988 126.7 13.7988C126.966 13.5988 127.166 13.2655 127.3 12.7988L127.6 11.999L124.8 4.09912H126.3ZM139 12.0991H137.6C137.533 11.8991 137.466 11.5992 137.4 11.1992C136.733 11.8659 135.966 12.1992 135.1 12.1992C134.366 12.1992 133.733 11.9657 133.2 11.499C132.733 11.099 132.5 10.5656 132.5 9.89893C132.5 9.03226 132.8 8.36559 133.4 7.89893C134 7.49893 134.866 7.29883 136 7.29883H137.4V6.59912C137.4 6.13245 137.233 5.76569 136.9 5.49902C136.633 5.23236 136.233 5.09912 135.7 5.09912C135.233 5.09912 134.833 5.19893 134.5 5.39893C134.166 5.66559 134 5.96549 134 6.29883H132.6C132.6 5.89883 132.733 5.53255 133 5.19922C133.333 4.79922 133.733 4.49883 134.2 4.29883C134.666 4.09883 135.2 3.99902 135.8 3.99902C136.666 3.99902 137.366 4.23255 137.9 4.69922C138.433 5.16589 138.7 5.79912 138.7 6.59912V10.1992C138.7 10.9326 138.8 11.4989 139 11.8989V12.0991ZM135.3 11.0991C135.766 11.0991 136.166 10.9988 136.5 10.7988C136.9 10.5322 137.2 10.2323 137.4 9.89893V8.29883H136.3C134.633 8.29883 133.8 8.79883 133.8 9.79883C133.8 10.1988 133.933 10.4992 134.2 10.6992C134.533 10.9659 134.9 11.0991 135.3 11.0991ZM141.3 2.29883H142.7V4.19922H144.2V5.29883H142.7V10.1992C142.7 10.5326 142.766 10.7656 142.9 10.8989C143.033 11.0323 143.266 11.0991 143.6 11.0991C143.733 11.0991 143.933 11.0657 144.2 10.999V12.0991C143.866 12.2325 143.533 12.2988 143.2 12.2988C142.6 12.2988 142.133 12.0992 141.8 11.6992C141.466 11.3659 141.3 10.8659 141.3 10.1992V5.29883H139.9V4.19922H141.3V2.29883ZM147.2 0.898926V12.1992H145.9V0.898926H147.2ZM155.6 12.1992H154.2C154.133 11.9992 154.066 11.6988 154 11.2988C153.4 11.9655 152.666 12.2988 151.8 12.2988C151 12.2988 150.366 12.0658 149.9 11.5991C149.366 11.1991 149.1 10.6657 149.1 9.99902C149.1 9.13236 149.4 8.46569 150 7.99902C150.666 7.59902 151.566 7.39893 152.7 7.39893H154V6.69922C154 6.23255 153.866 5.86579 153.6 5.59912C153.333 5.33245 152.9 5.19922 152.3 5.19922C151.833 5.19922 151.433 5.29902 151.1 5.49902C150.766 5.76569 150.6 6.06559 150.6 6.39893H149.3C149.3 5.99893 149.433 5.63216 149.7 5.29883C149.966 4.89883 150.333 4.59893 150.8 4.39893C151.266 4.19893 151.8 4.09912 152.4 4.09912C153.333 4.09912 154.066 4.33216 154.6 4.79883C155.066 5.26549 155.333 5.89922 155.4 6.69922V10.2988C155.4 11.0322 155.466 11.599 155.6 11.999V12.1992ZM152 11.1992C152.4 11.1992 152.8 11.0989 153.2 10.8989C153.6 10.6323 153.866 10.3324 154 9.99902V8.39893H152.9C151.3 8.39893 150.5 8.89893 150.5 9.89893C150.5 10.2989 150.633 10.6323 150.9 10.8989C151.166 11.0989 151.533 11.1992 152 11.1992ZM161.3 4.29883V5.49902C161.1 5.49902 160.9 5.49902 160.7 5.49902C159.766 5.49902 159.133 5.86579 158.8 6.59912V12.1992H157.5V4.29883H158.8V5.19922C159.266 4.53255 159.9 4.19922 160.7 4.19922C160.966 4.19922 161.166 4.23216 161.3 4.29883Z" fill="#777777"/>
</svg>
