<svg width="270" height="62" viewBox="0 0 270 62" fill="none" xmlns="http://www.w3.org/2000/svg">
<path d="M9.30005 12.1001H4.90002L9.80005 20H14.7L9.30005 12.1001ZM4.80005 2.5H0.599976V20H4.80005V2.5ZM3.19995 2.5V6.1001H6.69995C7.23328 6.1001 7.69998 6.1999 8.09998 6.3999C8.49998 6.5999 8.83331 6.86662 9.09998 7.19995C9.29998 7.53328 9.40002 7.93324 9.40002 8.3999C9.40002 8.86657 9.29998 9.29995 9.09998 9.69995C8.83331 10.0333 8.49998 10.2666 8.09998 10.3999C7.69998 10.5999 7.23328 10.7 6.69995 10.7H3.19995V14H7C8.46667 14 9.69995 13.7333 10.7 13.2C11.7 12.7333 12.4667 12.0666 13 11.2C13.5333 10.3333 13.8 9.36672 13.8 8.30005C13.8 7.16672 13.5333 6.16672 13 5.30005C12.4667 4.43338 11.7 3.76672 10.7 3.30005C9.69995 2.76672 8.46667 2.5 7 2.5H3.19995ZM20.8 2.5H16.6V14.3C16.6 15.3667 16.7666 16.3333 17.1 17.2C17.4333 18 17.9333 18.6666 18.6 19.2C19.2666 19.7333 20 20.1332 20.8 20.3999C21.6667 20.6666 22.6 20.8 23.6 20.8C24.6 20.8 25.5 20.6666 26.3 20.3999C27.1667 20.1332 27.9333 19.7333 28.6 19.2C29.2666 18.6666 29.7666 18 30.1 17.2C30.4333 16.3333 30.6 15.3667 30.6 14.3V2.5H26.4V14C26.4 14.8667 26.1666 15.5668 25.7 16.1001C25.2333 16.7001 24.5333 17 23.6 17C22.6666 17 21.9667 16.7001 21.5 16.1001C21.0333 15.5668 20.8 14.8667 20.8 14V2.5ZM36.1 13.8L33.2 15.8999C33.6 16.7666 34.1667 17.5667 34.9 18.3C35.5667 18.9667 36.4 19.4999 37.4 19.8999C38.4 20.2999 39.4666 20.5 40.6 20.5C41.4 20.5 42.1667 20.4 42.9 20.2C43.7 19.9333 44.4 19.5668 45 19.1001C45.6 18.6334 46.1 18.0666 46.5 17.3999C46.8333 16.6666 47 15.8667 47 15C47 14.2667 46.9 13.6 46.7 13C46.4333 12.4667 46.1 11.9667 45.7 11.5C45.2999 11.1 44.8334 10.7332 44.3 10.3999C43.7667 10.1332 43.2 9.86676 42.6 9.6001C41.7333 9.33343 41.0333 9.06672 40.5 8.80005C39.9 8.53338 39.4333 8.26667 39.1 8C38.8333 7.66667 38.7 7.2999 38.7 6.8999C38.7 6.56657 38.8666 6.26667 39.2 6C39.4666 5.73333 39.9 5.6001 40.5 5.6001C40.9667 5.6001 41.4 5.6999 41.8 5.8999C42.2001 6.03324 42.5667 6.26676 42.9 6.6001C43.2334 6.86676 43.5 7.23328 43.7 7.69995L47 5.8999C46.6667 5.2999 46.2333 4.7001 45.7 4.1001C45.1 3.5001 44.3667 3.03328 43.5 2.69995C42.6333 2.29995 41.6333 2.1001 40.5 2.1001C39.3667 2.1001 38.3334 2.29995 37.4 2.69995C36.4667 3.09995 35.7333 3.66657 35.2 4.3999C34.6666 5.13324 34.4 6 34.4 7C34.4 7.93333 34.5667 8.70005 34.9 9.30005C35.1667 9.90005 35.5666 10.4 36.1 10.8C36.5666 11.2 37.0666 11.5666 37.6 11.8999C38.1333 12.1666 38.6 12.3667 39 12.5C39.8667 12.7667 40.5666 13.0334 41.1 13.3C41.6333 13.5667 42 13.8334 42.2 14.1001C42.4666 14.3668 42.6 14.7333 42.6 15.2C42.6 15.7333 42.4 16.1667 42 16.5C41.6 16.7667 41.0667 16.8999 40.4 16.8999C39.8667 16.8999 39.3334 16.7667 38.8 16.5C38.2667 16.3 37.7667 15.9667 37.3 15.5C36.9 15.0333 36.5 14.4667 36.1 13.8ZM55.6 2.5V6.30005H60.4V20H64.6V6.30005H69.4V2.5H55.6ZM75.7 2.5H71.4V20H75.7V2.5ZM83.6 2.5H79.4V20H90.7V16.3999H83.6V2.5ZM96.9 2.5H92.6V20H96.9V2.5ZM111.5 20V0.5H107.7V20H111.5ZM120.9 14.2C120.9 12.9333 120.633 11.8332 120.1 10.8999C119.567 10.0332 118.9 9.36657 118.1 8.8999C117.3 8.43324 116.4 8.19995 115.4 8.19995C114.467 8.19995 113.633 8.43324 112.9 8.8999C112.167 9.36657 111.567 10.0667 111.1 11C110.7 11.8667 110.5 12.9333 110.5 14.2C110.5 15.4 110.7 16.4666 111.1 17.3999C111.567 18.3332 112.167 19.0333 112.9 19.5C113.633 19.9667 114.467 20.2 115.4 20.2C116.4 20.2 117.3 19.9667 118.1 19.5C118.9 19.0333 119.567 18.3667 120.1 17.5C120.633 16.5667 120.9 15.4666 120.9 14.2ZM116.9 14.2C116.9 14.8 116.8 15.3334 116.6 15.8C116.333 16.2 116 16.5334 115.6 16.8C115.133 17 114.667 17.1001 114.2 17.1001C113.733 17.1001 113.3 17 112.9 16.8C112.5 16.6 112.167 16.2667 111.9 15.8C111.633 15.3334 111.5 14.8 111.5 14.2C111.5 13.6 111.633 13.0668 111.9 12.6001C112.167 12.2001 112.5 11.8668 112.9 11.6001C113.3 11.4001 113.733 11.3 114.2 11.3C114.667 11.3 115.133 11.4001 115.6 11.6001C116 11.8668 116.333 12.2001 116.6 12.6001C116.8 13.0668 116.9 13.6 116.9 14.2ZM122.5 14.2C122.5 15.4 122.8 16.4666 123.4 17.3999C123.933 18.2666 124.7 18.9667 125.7 19.5C126.7 19.9667 127.833 20.2 129.1 20.2C130.367 20.2 131.467 19.9667 132.4 19.5C133.4 18.9667 134.2 18.2666 134.8 17.3999C135.4 16.4666 135.7 15.4 135.7 14.2C135.7 13 135.4 11.9333 134.8 11C134.2 10.1333 133.4 9.43324 132.4 8.8999C131.467 8.43324 130.367 8.19995 129.1 8.19995C127.833 8.19995 126.7 8.43324 125.7 8.8999C124.7 9.43324 123.933 10.1333 123.4 11C122.8 11.9333 122.5 13 122.5 14.2ZM126.4 14.2C126.4 13.6 126.533 13.0668 126.8 12.6001C127 12.2001 127.3 11.8668 127.7 11.6001C128.1 11.4001 128.567 11.3 129.1 11.3C129.567 11.3 130 11.4001 130.4 11.6001C130.8 11.8668 131.133 12.2001 131.4 12.6001C131.667 13.0668 131.8 13.6 131.8 14.2C131.8 14.8 131.667 15.3334 131.4 15.8C131.133 16.2 130.8 16.5 130.4 16.7C130 16.9666 129.567 17.1001 129.1 17.1001C128.567 17.1001 128.1 16.9666 127.7 16.7C127.3 16.5 127 16.2 126.8 15.8C126.533 15.3334 126.4 14.8 126.4 14.2ZM142.3 2.5H138.3L137.2 10.3999H139.7L142.3 2.5ZM149.1 25.5L156.6 8.5H152.7L149 17.7H151L147.3 8.5H143.1L148.1 19.1001L145.3 25.5H149.1ZM157.6 4.19995C157.6 4.79995 157.833 5.29995 158.3 5.69995C158.7 6.03328 159.2 6.19995 159.8 6.19995C160.4 6.19995 160.933 6.03328 161.4 5.69995C161.8 5.29995 162 4.79995 162 4.19995C162 3.59995 161.8 3.09995 161.4 2.69995C160.933 2.36662 160.4 2.19995 159.8 2.19995C159.2 2.19995 158.7 2.36662 158.3 2.69995C157.833 3.09995 157.6 3.59995 157.6 4.19995ZM161.6 8.5H158V20H161.6V8.5ZM167.9 14.3C167.9 13.7 168.033 13.1666 168.3 12.7C168.567 12.3 168.933 11.9666 169.4 11.7C169.867 11.4333 170.4 11.3 171 11.3C171.4 11.3 171.8 11.3667 172.2 11.5C172.667 11.6333 173.067 11.8334 173.4 12.1001C173.8 12.3001 174.133 12.6 174.4 13V9.30005C174 8.96672 173.5 8.73343 172.9 8.6001C172.3 8.4001 171.567 8.30005 170.7 8.30005C169.433 8.30005 168.267 8.53333 167.2 9C166.2 9.53333 165.433 10.2334 164.9 11.1001C164.3 12.0334 164 13.1 164 14.3C164 15.5 164.3 16.5332 164.9 17.3999C165.433 18.3332 166.2 19.0333 167.2 19.5C168.267 20.0333 169.433 20.3 170.7 20.3C171.567 20.3 172.3 20.2 172.9 20C173.5 19.8 174 19.5333 174.4 19.2V15.6001C174.133 15.9334 173.833 16.2333 173.5 16.5C173.1 16.7 172.7 16.9001 172.3 17.1001C171.9 17.2334 171.467 17.3 171 17.3C170.4 17.3 169.867 17.1666 169.4 16.8999C168.933 16.6332 168.567 16.2999 168.3 15.8999C168.033 15.4332 167.9 14.9 167.9 14.3ZM180.9 20V0.5H177.1V20H180.9ZM184.6 13V20H188.3V12.5C188.3 11.5667 188.167 10.7668 187.9 10.1001C187.633 9.43343 187.233 8.93343 186.7 8.6001C186.1 8.26676 185.333 8.1001 184.4 8.1001C183.467 8.1001 182.667 8.33338 182 8.80005C181.4 9.20005 180.967 9.8001 180.7 10.6001C180.367 11.2668 180.2 12.0667 180.2 13H180.9C180.9 12.5333 180.967 12.1666 181.1 11.8999C181.3 11.5666 181.533 11.3333 181.8 11.2C182.133 11 182.5 10.8999 182.9 10.8999C183.5 10.8999 183.933 11.1 184.2 11.5C184.467 11.8333 184.6 12.3333 184.6 13ZM194.2 16.3999C194.2 16.1332 194.267 15.9 194.4 15.7C194.533 15.5 194.733 15.3667 195 15.3C195.267 15.1667 195.633 15.1001 196.1 15.1001C196.7 15.1001 197.233 15.1999 197.7 15.3999C198.233 15.5332 198.7 15.7668 199.1 16.1001V14.3999C198.9 14.1999 198.6 13.9666 198.2 13.7C197.8 13.5666 197.333 13.4 196.8 13.2C196.267 13.1333 195.633 13.1001 194.9 13.1001C193.5 13.1001 192.4 13.4 191.6 14C190.8 14.6667 190.4 15.5334 190.4 16.6001C190.4 17.4001 190.6 18.0668 191 18.6001C191.333 19.2001 191.833 19.6332 192.5 19.8999C193.1 20.1666 193.767 20.3 194.5 20.3C195.233 20.3 195.933 20.1666 196.6 19.8999C197.2 19.6332 197.7 19.2333 198.1 18.7C198.5 18.2333 198.7 17.6332 198.7 16.8999L198.3 15.3999C198.3 15.9332 198.2 16.3666 198 16.7C197.733 17.1 197.433 17.4001 197.1 17.6001C196.7 17.7334 196.3 17.8 195.9 17.8C195.567 17.8 195.267 17.7666 195 17.7C194.8 17.5666 194.6 17.4 194.4 17.2C194.267 17 194.2 16.7332 194.2 16.3999ZM191.3 9.5L192.5 12.1001C192.7 11.9668 192.967 11.8333 193.3 11.7C193.7 11.5 194.133 11.3333 194.6 11.2C195.133 11.1333 195.633 11.1001 196.1 11.1001C196.5 11.1001 196.833 11.1333 197.1 11.2C197.367 11.2666 197.6 11.3667 197.8 11.5C197.933 11.6333 198.067 11.8334 198.2 12.1001C198.267 12.2334 198.3 12.4667 198.3 12.8V20H201.9V11.8999C201.9 11.0999 201.667 10.4332 201.2 9.8999C200.733 9.36657 200.1 8.93343 199.3 8.6001C198.5 8.33343 197.6 8.19995 196.6 8.19995C195.533 8.19995 194.533 8.33343 193.6 8.6001C192.667 8.93343 191.9 9.23333 191.3 9.5ZM212.9 15.8L211.3 18.3C211.833 18.7667 212.4 19.1667 213 19.5C213.6 19.7667 214.233 20 214.9 20.2C215.633 20.4 216.4 20.5 217.2 20.5C218.6 20.5 219.667 20.2001 220.4 19.6001C221.2 18.9334 221.6 18 221.6 16.8C221.6 16.0667 221.433 15.5001 221.1 15.1001C220.833 14.6334 220.433 14.2667 219.9 14C219.367 13.7333 218.8 13.4666 218.2 13.2C217.667 13 217.2 12.8333 216.8 12.7C216.4 12.5666 216.1 12.4 215.9 12.2C215.7 12.0666 215.6 11.8668 215.6 11.6001C215.6 11.4001 215.667 11.2334 215.8 11.1001C216 10.9668 216.267 10.8999 216.6 10.8999C217.133 10.8999 217.7 11.0334 218.3 11.3C218.967 11.5667 219.533 11.9332 220 12.3999L221.3 10C220.9 9.66667 220.433 9.36676 219.9 9.1001C219.367 8.83343 218.833 8.63333 218.3 8.5C217.7 8.36667 217.067 8.30005 216.4 8.30005C215.6 8.30005 214.867 8.4001 214.2 8.6001C213.533 8.86676 213.033 9.23328 212.7 9.69995C212.3 10.2333 212.1 10.8333 212.1 11.5C212.1 12.2333 212.267 12.8334 212.6 13.3C212.933 13.7667 213.333 14.1667 213.8 14.5C214.267 14.7 214.8 14.9001 215.4 15.1001C216 15.3001 216.467 15.5 216.8 15.7C217.2 15.8333 217.467 16 217.6 16.2C217.733 16.4 217.8 16.6 217.8 16.8C217.8 17.0667 217.7 17.3 217.5 17.5C217.367 17.6333 217.1 17.7 216.7 17.7C216.433 17.7 216.1 17.6668 215.7 17.6001C215.367 17.4668 214.967 17.2667 214.5 17C214.033 16.7333 213.5 16.3334 212.9 15.8ZM223.4 4.19995C223.4 4.79995 223.633 5.29995 224.1 5.69995C224.5 6.03328 225 6.19995 225.6 6.19995C226.267 6.19995 226.8 6.03328 227.2 5.69995C227.6 5.29995 227.8 4.79995 227.8 4.19995C227.8 3.59995 227.6 3.09995 227.2 2.69995C226.8 2.36662 226.267 2.19995 225.6 2.19995C225 2.19995 224.5 2.36662 224.1 2.69995C223.633 3.09995 223.4 3.59995 223.4 4.19995ZM227.5 8.5H223.8V20H227.5V8.5ZM230.5 12H235.5L229.5 20H241V16.6001H236L241.8 8.5H230.5V12ZM0 39.3C0 39.9 0.199976 40.3666 0.599976 40.7C1.06664 41.1 1.59995 41.3 2.19995 41.3C2.79995 41.3 3.29995 41.1 3.69995 40.7C4.16662 40.3666 4.40002 39.9 4.40002 39.3C4.40002 38.7001 4.16662 38.2001 3.69995 37.8C3.29995 37.4 2.79995 37.2 2.19995 37.2C1.59995 37.2 1.06664 37.4 0.599976 37.8C0.199976 38.2001 0 38.7001 0 39.3ZM4 43.6001H0.300049V55.1001H4V43.6001ZM7.69995 50.8999L6.09998 53.3999C6.63331 53.7999 7.20005 54.1667 7.80005 54.5C8.40005 54.8333 9.06672 55.1 9.80005 55.3C10.4667 55.5 11.2333 55.6001 12.1 55.6001C13.4333 55.6001 14.5 55.2668 15.3 54.6001C16.0334 54.0001 16.4 53.0667 16.4 51.8C16.4 51.1334 16.2334 50.5668 15.9 50.1001C15.6334 49.7001 15.2333 49.3333 14.7 49C14.2333 48.7333 13.7 48.5 13.1 48.3C12.5 48.1 12 47.9334 11.6 47.8C11.2 47.6 10.9 47.4334 10.7 47.3C10.5 47.1 10.4 46.9 10.4 46.7C10.4 46.4333 10.5 46.2334 10.7 46.1001C10.8333 45.9668 11.1 45.8999 11.5 45.8999C11.9667 45.8999 12.5333 46.0666 13.2 46.3999C13.8 46.6666 14.3334 47.0333 14.8 47.5L16.2 45C15.7333 44.6667 15.2333 44.4 14.7 44.2C14.2333 43.9333 13.7 43.7334 13.1 43.6001C12.5 43.4001 11.8666 43.3 11.2 43.3C10.4 43.3 9.66667 43.4333 9 43.7C8.4 43.9666 7.9 44.3334 7.5 44.8C7.1 45.2667 6.90002 45.8668 6.90002 46.6001C6.90002 47.3334 7.06669 47.9332 7.40002 48.3999C7.73336 48.8666 8.13331 49.2333 8.59998 49.5C9.13331 49.7667 9.66662 50 10.2 50.2C10.8 50.4 11.2666 50.5666 11.6 50.7C12 50.9 12.2667 51.1 12.4 51.3C12.5334 51.4334 12.6 51.6332 12.6 51.8999C12.6 52.1666 12.5334 52.3667 12.4 52.5C12.2 52.7 11.9 52.8 11.5 52.8C11.2333 52.8 10.9333 52.7334 10.6 52.6001C10.2 52.5334 9.76672 52.3668 9.30005 52.1001C8.83338 51.7668 8.29995 51.3666 7.69995 50.8999ZM24.8 43.6001H17.1V46.7H24.8V43.6001ZM22.8 39.6001H19.2V55.1001H22.8V39.6001ZM29.4 51.5C29.4 51.2333 29.4666 51 29.6 50.8C29.7333 50.6 29.9333 50.4666 30.2 50.3999C30.4666 50.2666 30.8 50.2 31.2 50.2C31.8 50.2 32.3667 50.3 32.9 50.5C33.4334 50.6333 33.9 50.8334 34.3 51.1001V49.5C34.1 49.2333 33.8 49 33.4 48.8C33 48.6 32.5 48.4334 31.9 48.3C31.3667 48.1667 30.7666 48.1001 30.1 48.1001C28.6333 48.1001 27.5 48.4334 26.7 49.1001C25.9666 49.7668 25.6 50.6333 25.6 51.7C25.6 52.5 25.7666 53.1666 26.1 53.7C26.5 54.2333 27 54.6667 27.6 55C28.2666 55.2667 28.9666 55.3999 29.7 55.3999C30.4333 55.3999 31.1 55.2667 31.7 55C32.3666 54.7333 32.9 54.3334 33.3 53.8C33.7001 53.3334 33.9 52.7333 33.9 52L33.5 50.5C33.5 51.0333 33.3666 51.4667 33.1 51.8C32.9 52.2001 32.6 52.4668 32.2 52.6001C31.8666 52.8001 31.4667 52.8999 31 52.8999C30.7333 52.8999 30.4666 52.8667 30.2 52.8C29.9333 52.6667 29.7333 52.5 29.6 52.3C29.4666 52.1 29.4 51.8333 29.4 51.5ZM26.4 44.6001L27.7 47.1001C27.8333 47.0334 28.1 46.9334 28.5 46.8C28.8333 46.6 29.2667 46.4334 29.8 46.3C30.2667 46.2334 30.7667 46.2 31.3 46.2C31.6334 46.2 31.9333 46.2334 32.2 46.3C32.4666 46.3667 32.7 46.4668 32.9 46.6001C33.1 46.7334 33.2334 46.9001 33.3 47.1001C33.4334 47.3001 33.5 47.5666 33.5 47.8999V55.1001H37.1V47C37.1 46.2 36.8667 45.5333 36.4 45C35.9334 44.4667 35.3 44.0333 34.5 43.7C33.7 43.4333 32.8 43.3 31.8 43.3C30.6667 43.3 29.6667 43.4333 28.8 43.7C27.8667 43.9666 27.0667 44.2668 26.4 44.6001ZM43.1 55.8999H39.5C39.5667 56.9666 39.8334 57.8668 40.3 58.6001C40.7667 59.4001 41.4667 59.9999 42.4 60.3999C43.3334 60.8666 44.5 61.1001 45.9 61.1001C47.1 61.1001 48.1666 60.9 49.1 60.5C50.0333 60.0333 50.8 59.3332 51.4 58.3999C52 57.5332 52.3 56.3666 52.3 54.8999V43.6001H48.6V54.8999C48.6 55.5666 48.4666 56.1334 48.2 56.6001C48 57.0668 47.6666 57.4333 47.2 57.7C46.7999 57.9666 46.3334 58.1001 45.8 58.1001C45.2667 58.1001 44.8333 58 44.5 57.8C44.1 57.6667 43.7667 57.4334 43.5 57.1001C43.3 56.7668 43.1666 56.3666 43.1 55.8999ZM39.2 49.2C39.2 50.4666 39.4667 51.5332 40 52.3999C40.5333 53.2666 41.2333 53.9332 42.1 54.3999C42.9 54.8666 43.7666 55.1001 44.7 55.1001C45.7 55.1001 46.5667 54.8666 47.3 54.3999C48.0334 53.9332 48.6 53.2666 49 52.3999C49.4667 51.5332 49.7 50.4666 49.7 49.2C49.7 47.9333 49.4667 46.8667 49 46C48.6 45.1333 48.0334 44.5001 47.3 44.1001C46.5667 43.6334 45.7 43.3999 44.7 43.3999C43.7666 43.3999 42.9 43.6 42.1 44C41.2333 44.4667 40.5333 45.1333 40 46C39.4667 46.8667 39.2 47.9333 39.2 49.2ZM43.2 49.2C43.2 48.6 43.3333 48.1 43.6 47.7C43.8666 47.2999 44.2 46.9666 44.6 46.7C45 46.5 45.4667 46.3999 46 46.3999C46.2667 46.3999 46.5667 46.4668 46.9 46.6001C47.2334 46.7334 47.5334 46.9001 47.8 47.1001C48.0667 47.3668 48.2667 47.6667 48.4 48C48.5334 48.3333 48.6 48.7333 48.6 49.2C48.6 49.7999 48.4666 50.3334 48.2 50.8C47.9333 51.2001 47.6 51.5 47.2 51.7C46.7999 51.9 46.4 52 46 52C45.4667 52 45 51.9 44.6 51.7C44.2 51.5 43.8666 51.1666 43.6 50.7C43.3333 50.2999 43.2 49.7999 43.2 49.2ZM58.1 51.5C58.1 51.2333 58.1667 51 58.3 50.8C58.4334 50.6 58.6334 50.4666 58.9 50.3999C59.1667 50.2666 59.5333 50.2 60 50.2C60.5333 50.2 61.0666 50.3 61.6 50.5C62.1333 50.6333 62.6 50.8334 63 51.1001V49.5C62.8 49.2333 62.5 49 62.1 48.8C61.7 48.6 61.2333 48.4334 60.7 48.3C60.1 48.1667 59.4667 48.1001 58.8 48.1001C57.3334 48.1001 56.2333 48.4334 55.5 49.1001C54.7 49.7668 54.3 50.6333 54.3 51.7C54.3 52.5 54.4667 53.1666 54.8 53.7C55.2001 54.2333 55.7001 54.6667 56.3 55C56.9667 55.2667 57.6667 55.3999 58.4 55.3999C59.1334 55.3999 59.8 55.2667 60.4 55C61.0667 54.7333 61.6 54.3334 62 53.8C62.4 53.3334 62.6 52.7333 62.6 52L62.2 50.5C62.2 51.0333 62.0667 51.4667 61.8 51.8C61.6 52.2001 61.3 52.4668 60.9 52.6001C60.5667 52.8001 60.1666 52.8999 59.7 52.8999C59.4333 52.8999 59.1667 52.8667 58.9 52.8C58.6334 52.6667 58.4334 52.5 58.3 52.3C58.1667 52.1 58.1 51.8333 58.1 51.5ZM55.1 44.6001L56.4 47.1001C56.6 47.0334 56.8666 46.9334 57.2 46.8C57.6 46.6 58.0333 46.4334 58.5 46.3C58.9667 46.2334 59.4667 46.2 60 46.2C60.3333 46.2 60.6334 46.2334 60.9 46.3C61.2334 46.3667 61.4666 46.4668 61.6 46.6001C61.8 46.7334 61.9333 46.9001 62 47.1001C62.1333 47.3001 62.2 47.5666 62.2 47.8999V55.1001H65.8V47C65.8 46.2 65.5666 45.5333 65.1 45C64.6333 44.4667 64 44.0333 63.2 43.7C62.4 43.4333 61.5 43.3 60.5 43.3C59.4333 43.3 58.4333 43.4333 57.5 43.7C56.5667 43.9666 55.7666 44.2668 55.1 44.6001ZM76.1 48.1001V55.1001H80V47.7C80 46.2999 79.7 45.2333 79.1 44.5C78.4333 43.7 77.3667 43.3 75.9 43.3C75.1 43.3 74.4 43.4999 73.8 43.8999C73.2001 44.2332 72.7334 44.7001 72.4 45.3V43.6001H68.6V55.1001H72.4V48.1001C72.4 47.6334 72.5 47.2667 72.7 47C72.8333 46.6667 73.0667 46.4 73.4 46.2C73.6667 46.0666 74 46 74.4 46C75 46 75.4333 46.1667 75.7 46.5C75.9666 46.9 76.1 47.4334 76.1 48.1001ZM90.5 47H95.5L89.4 55.1001H100.9V51.7H96L101.7 43.6001H90.5V47ZM102.5 49.3C102.5 50.5 102.8 51.5667 103.4 52.5C103.933 53.3667 104.7 54.0668 105.7 54.6001C106.7 55.0668 107.833 55.3 109.1 55.3C110.367 55.3 111.467 55.0668 112.4 54.6001C113.4 54.0668 114.2 53.3667 114.8 52.5C115.4 51.5667 115.7 50.5 115.7 49.3C115.7 48.1 115.4 47.0666 114.8 46.2C114.2 45.2666 113.4 44.5668 112.4 44.1001C111.467 43.5668 110.367 43.3 109.1 43.3C107.833 43.3 106.7 43.5668 105.7 44.1001C104.7 44.5668 103.933 45.2666 103.4 46.2C102.8 47.0666 102.5 48.1 102.5 49.3ZM106.4 49.3C106.4 48.7001 106.533 48.2001 106.8 47.8C107 47.3334 107.3 47 107.7 46.8C108.1 46.5334 108.567 46.3999 109.1 46.3999C109.567 46.3999 110 46.5334 110.4 46.8C110.8 47 111.133 47.3334 111.4 47.8C111.667 48.2001 111.8 48.7001 111.8 49.3C111.8 49.9 111.667 50.4332 111.4 50.8999C111.133 51.2999 110.8 51.6332 110.4 51.8999C110 52.0999 109.567 52.2 109.1 52.2C108.567 52.2 108.1 52.0999 107.7 51.8999C107.3 51.6332 107 51.2999 106.8 50.8999C106.533 50.4332 106.4 49.9 106.4 49.3ZM117.2 49.3C117.2 50.5 117.5 51.5667 118.1 52.5C118.633 53.3667 119.4 54.0668 120.4 54.6001C121.4 55.0668 122.533 55.3 123.8 55.3C125.067 55.3 126.2 55.0668 127.2 54.6001C128.2 54.0668 128.967 53.3667 129.5 52.5C130.1 51.5667 130.4 50.5 130.4 49.3C130.4 48.1 130.1 47.0666 129.5 46.2C128.967 45.2666 128.2 44.5668 127.2 44.1001C126.2 43.5668 125.067 43.3 123.8 43.3C122.533 43.3 121.4 43.5668 120.4 44.1001C119.4 44.5668 118.633 45.2666 118.1 46.2C117.5 47.0666 117.2 48.1 117.2 49.3ZM121.1 49.3C121.1 48.7001 121.233 48.2001 121.5 47.8C121.767 47.3334 122.1 47 122.5 46.8C122.9 46.5334 123.333 46.3999 123.8 46.3999C124.267 46.3999 124.7 46.5334 125.1 46.8C125.567 47 125.9 47.3334 126.1 47.8C126.367 48.2001 126.5 48.7001 126.5 49.3C126.5 49.9 126.367 50.4332 126.1 50.8999C125.9 51.2999 125.567 51.6332 125.1 51.8999C124.7 52.0999 124.267 52.2 123.8 52.2C123.333 52.2 122.9 52.0999 122.5 51.8999C122.1 51.6332 121.767 51.2999 121.5 50.8999C121.233 50.4332 121.1 49.9 121.1 49.3ZM150.2 55.1001V47.7C150.2 46.7666 150.067 45.9667 149.8 45.3C149.6 44.6334 149.233 44.1334 148.7 43.8C148.167 43.4667 147.467 43.3 146.6 43.3C145.8 43.3 145.1 43.4667 144.5 43.8C143.833 44.1334 143.3 44.6 142.9 45.2C142.7 44.6 142.333 44.1334 141.8 43.8C141.267 43.4667 140.533 43.3 139.6 43.3C138.8 43.3 138.133 43.4667 137.6 43.8C137.067 44.2001 136.633 44.7001 136.3 45.3V43.6001H132.6V55.1001H136.3V48.1001C136.3 47.6334 136.367 47.2332 136.5 46.8999C136.633 46.5666 136.833 46.3333 137.1 46.2C137.367 46.0666 137.667 46 138 46C138.533 46 138.9 46.1667 139.1 46.5C139.3 46.8333 139.4 47.3668 139.4 48.1001V55.1001H143.2V48.1001C143.2 47.6334 143.267 47.2332 143.4 46.8999C143.6 46.5666 143.8 46.3333 144 46.2C144.267 46.0666 144.567 46 144.9 46C145.433 46 145.8 46.1667 146 46.5C146.267 46.8333 146.4 47.3668 146.4 48.1001V55.1001H150.2ZM160 49.3C160 50.5 160.267 51.5667 160.8 52.5C161.4 53.3667 162.2 54.0668 163.2 54.6001C164.2 55.0668 165.3 55.3 166.5 55.3C167.767 55.3 168.9 55.0668 169.9 54.6001C170.9 54.0668 171.667 53.3667 172.2 52.5C172.8 51.5667 173.1 50.5 173.1 49.3C173.1 48.1 172.8 47.0666 172.2 46.2C171.667 45.2666 170.9 44.5668 169.9 44.1001C168.9 43.5668 167.767 43.3 166.5 43.3C165.3 43.3 164.2 43.5668 163.2 44.1001C162.2 44.5668 161.4 45.2666 160.8 46.2C160.267 47.0666 160 48.1 160 49.3ZM163.8 49.3C163.8 48.7001 163.933 48.2001 164.2 47.8C164.467 47.3334 164.8 47 165.2 46.8C165.6 46.5334 166.033 46.3999 166.5 46.3999C167.033 46.3999 167.5 46.5334 167.9 46.8C168.3 47 168.6 47.3334 168.8 47.8C169.067 48.2001 169.2 48.7001 169.2 49.3C169.2 49.9 169.067 50.4332 168.8 50.8999C168.6 51.2999 168.3 51.6332 167.9 51.8999C167.5 52.0999 167.033 52.2 166.5 52.2C166.033 52.2 165.6 52.0999 165.2 51.8999C164.8 51.6332 164.467 51.2999 164.2 50.8999C163.933 50.4332 163.8 49.9 163.8 49.3ZM179.8 37.6001H175.8L174.7 45.6001H177.1L179.8 37.6001ZM189.8 43.6001V60.6001H193.6V43.6001H189.8ZM180.4 49.3C180.4 50.6334 180.667 51.7666 181.2 52.7C181.733 53.6333 182.4 54.3334 183.2 54.8C184.067 55.2667 184.967 55.5 185.9 55.5C186.9 55.5 187.767 55.2333 188.5 54.7C189.233 54.1666 189.767 53.4668 190.1 52.6001C190.5 51.6668 190.7 50.5667 190.7 49.3C190.7 48.0334 190.5 46.9668 190.1 46.1001C189.767 45.1668 189.233 44.4332 188.5 43.8999C187.767 43.4332 186.9 43.2 185.9 43.2C184.967 43.2 184.067 43.4332 183.2 43.8999C182.4 44.3666 181.733 45.0332 181.2 45.8999C180.667 46.8332 180.4 47.9667 180.4 49.3ZM184.4 49.3C184.4 48.7001 184.533 48.2001 184.8 47.8C185 47.4 185.333 47.0667 185.8 46.8C186.2 46.6 186.633 46.5 187.1 46.5C187.567 46.5 188 46.6 188.4 46.8C188.8 47 189.133 47.3334 189.4 47.8C189.667 48.2001 189.8 48.7001 189.8 49.3C189.8 49.9 189.667 50.4332 189.4 50.8999C189.133 51.2999 188.8 51.6 188.4 51.8C188 52 187.567 52.1001 187.1 52.1001C186.633 52.1001 186.2 52 185.8 51.8C185.333 51.6 185 51.2667 184.8 50.8C184.533 50.4 184.4 49.9 184.4 49.3ZM196.3 39.2C196.3 39.7999 196.5 40.2999 196.9 40.7C197.367 41.1 197.9 41.3 198.5 41.3C199.1 41.3 199.6 41.1 200 40.7C200.467 40.2999 200.7 39.7999 200.7 39.2C200.7 38.6 200.467 38.1334 200 37.8C199.6 37.4 199.1 37.2 198.5 37.2C197.9 37.2 197.367 37.4 196.9 37.8C196.5 38.1334 196.3 38.6 196.3 39.2ZM200.3 43.6001H196.7V55.1001H200.3V43.6001ZM209.8 43.6001H202.1V46.7H209.8V43.6001ZM207.7 39.6001H204.1V55.1001H207.7V39.6001ZM215.3 50.6001V43.6001H211.4V51C211.4 52.3333 211.7 53.4 212.3 54.2C212.967 55 214.033 55.3999 215.5 55.3999C216.367 55.3999 217.067 55.2001 217.6 54.8C218.2 54.4667 218.667 53.9999 219 53.3999V55.1001H222.8V43.6001H219V50.6001C219 51.0668 218.9 51.4333 218.7 51.7C218.567 52.0333 218.333 52.3 218 52.5C217.733 52.6333 217.4 52.7 217 52.7C216.4 52.7 215.967 52.5333 215.7 52.2C215.433 51.7999 215.3 51.2668 215.3 50.6001ZM228.2 43.6001H224.2L230.8 56.3999L237.5 43.6001H233.5L230.8 50L228.2 43.6001ZM241.7 49.3C241.7 48.7667 241.833 48.2667 242.1 47.8C242.367 47.3334 242.733 46.9666 243.2 46.7C243.733 46.4333 244.267 46.3 244.8 46.3C245.2 46.3 245.633 46.3667 246.1 46.5C246.5 46.6333 246.9 46.8334 247.3 47.1001C247.633 47.3668 247.933 47.6667 248.2 48V44.3C247.8 44.0334 247.3 43.8001 246.7 43.6001C246.1 43.4001 245.367 43.3 244.5 43.3C243.233 43.3 242.1 43.5668 241.1 44.1001C240.1 44.5668 239.3 45.2666 238.7 46.2C238.1 47.0666 237.8 48.1 237.8 49.3C237.8 50.5 238.1 51.5667 238.7 52.5C239.3 53.3667 240.1 54.0668 241.1 54.6001C242.1 55.0668 243.233 55.3 244.5 55.3C245.367 55.3 246.1 55.2 246.7 55C247.3 54.8 247.8 54.5667 248.2 54.3V50.6001C247.933 50.9334 247.633 51.2333 247.3 51.5C246.967 51.7667 246.567 51.9668 246.1 52.1001C245.7 52.2334 245.267 52.3 244.8 52.3C244.267 52.3 243.733 52.1666 243.2 51.8999C242.733 51.6999 242.367 51.3666 242.1 50.8999C241.833 50.4332 241.7 49.9 241.7 49.3ZM254.7 55.1001V35.6001H250.9V55.1001H254.7ZM258.4 48.1001V55.1001H262.2V47.5C262.2 46.5667 262.067 45.7668 261.8 45.1001C261.533 44.4334 261.1 43.9334 260.5 43.6001C259.9 43.2668 259.133 43.1001 258.2 43.1001C257.267 43.1001 256.5 43.3334 255.9 43.8C255.3 44.2667 254.833 44.8668 254.5 45.6001C254.233 46.3334 254.1 47.1668 254.1 48.1001H254.7C254.7 47.6334 254.8 47.2332 255 46.8999C255.133 46.6332 255.367 46.4 255.7 46.2C255.967 46 256.3 45.8999 256.7 45.8999C257.3 45.8999 257.733 46.1 258 46.5C258.267 46.8333 258.4 47.3668 258.4 48.1001ZM264.9 39.2C264.9 39.7999 265.1 40.2999 265.5 40.7C265.967 41.1 266.5 41.3 267.1 41.3C267.7 41.3 268.2 41.1 268.6 40.7C269.067 40.2999 269.3 39.7999 269.3 39.2C269.3 38.6 269.067 38.1334 268.6 37.8C268.2 37.4 267.7 37.2 267.1 37.2C266.5 37.2 265.967 37.4 265.5 37.8C265.1 38.1334 264.9 38.6 264.9 39.2ZM268.9 43.6001H265.3V55.1001H268.9V43.6001Z" fill="#202020"/>
</svg>
