<svg width="54" height="12" viewBox="0 0 54 12" fill="none" xmlns="http://www.w3.org/2000/svg">
<path d="M6.19995 10.9995L3.90002 6.69946H1.40002V10.9995H0V0.299561H3.5C4.7 0.299561 5.63338 0.599463 6.30005 1.19946C6.96672 1.7328 7.30005 2.49951 7.30005 3.49951C7.30005 4.16618 7.09995 4.76623 6.69995 5.29956C6.36662 5.76623 5.86662 6.13275 5.19995 6.39941L7.80005 10.8994V10.9995H6.19995ZM1.30005 1.49951V5.49951H3.5C4.16667 5.49951 4.73328 5.33285 5.19995 4.99951C5.59995 4.66618 5.80005 4.16618 5.80005 3.49951C5.80005 2.89951 5.59995 2.39951 5.19995 1.99951C4.79995 1.66618 4.23333 1.49951 3.5 1.49951H1.30005ZM15.2 0.299561H16.6V7.59961C16.6 8.59961 16.3 9.43294 15.7 10.0996C15.0333 10.6996 14.1666 11.0329 13.1 11.0996H12.7C11.5666 11.0996 10.6667 10.7995 10 10.1995C9.26667 9.59946 8.90002 8.73294 8.90002 7.59961V0.299561H10.3V7.59961C10.3 8.33294 10.5 8.93275 10.9 9.39941C11.3667 9.79941 11.9666 9.99951 12.7 9.99951C13.5 9.99951 14.1333 9.79941 14.6 9.39941C15 8.93275 15.2 8.33294 15.2 7.59961V0.299561ZM22 6.19946C20.8 5.86613 19.9 5.43275 19.3 4.89941C18.7667 4.36608 18.5 3.73285 18.5 2.99951C18.5 2.19951 18.8333 1.49941 19.5 0.899414C20.1667 0.366081 21.0666 0.0996094 22.2 0.0996094C22.8666 0.0996094 23.5 0.232845 24.1 0.499512C24.7 0.832845 25.1334 1.2328 25.4 1.69946C25.7334 2.2328 25.9 2.76623 25.9 3.29956H24.5C24.5 2.69956 24.3 2.19956 23.9 1.79956C23.5 1.46623 22.9333 1.29956 22.2 1.29956C21.4666 1.29956 20.9 1.4328 20.5 1.69946C20.1 2.0328 19.9 2.46618 19.9 2.99951C19.9 3.46618 20.1 3.83294 20.5 4.09961C20.9 4.43294 21.5334 4.69941 22.4 4.89941C23.2667 5.16608 23.9667 5.46623 24.5 5.79956C24.9667 6.06623 25.3333 6.39956 25.6 6.79956C25.8 7.19956 25.9 7.66613 25.9 8.19946C25.9 9.06613 25.5667 9.76623 24.9 10.2996C24.2334 10.8329 23.3333 11.0996 22.2 11.0996C21.4666 11.0996 20.8 10.9661 20.2 10.6995C19.5333 10.3661 19.0333 9.96618 18.7 9.49951C18.3666 9.03285 18.2 8.46623 18.2 7.79956H19.6C19.6 8.46623 19.8334 8.99941 20.3 9.39941C20.7667 9.73275 21.4 9.89941 22.2 9.89941C22.9333 9.89941 23.5 9.76618 23.9 9.49951C24.3 9.16618 24.5 8.7328 24.5 8.19946C24.5 7.66613 24.3333 7.26618 24 6.99951C23.6 6.73284 22.9333 6.46613 22 6.19946ZM38.5 0.299561V1.39941H35.1V10.8994H33.7V1.39941H30.3V0.299561H38.5ZM41.6 0.299561V10.8994H40.2V0.299561H41.6ZM45.5 0.299561V9.79956H50.6V10.8994H44.1V0.299561H45.5ZM53.7 0.299561V10.8994H52.3V0.299561H53.7Z" fill="white"/>
</svg>
