<svg width="75" height="16" viewBox="0 0 75 16" fill="none" xmlns="http://www.w3.org/2000/svg">
<path d="M3.79999 7.20068C2.59999 6.86735 1.73335 6.4674 1.20001 6.00073C0.666679 5.4674 0.399994 4.83416 0.399994 4.10083C0.399994 3.23416 0.733327 2.53407 1.39999 2.00073C2.06666 1.4674 2.93333 1.20068 4 1.20068C4.73333 1.20068 5.36666 1.33416 5.89999 1.60083C6.49999 1.8675 6.96665 2.26745 7.29999 2.80078C7.56665 3.26745 7.70001 3.80063 7.70001 4.40063H6.29999C6.29999 3.80063 6.10001 3.30063 5.70001 2.90063C5.30001 2.50063 4.73333 2.30078 4 2.30078C3.26667 2.30078 2.73333 2.46745 2.39999 2.80078C1.99999 3.13411 1.79999 3.5675 1.79999 4.10083C1.79999 4.50083 1.96665 4.86735 2.29999 5.20068C2.69999 5.46735 3.33335 5.73407 4.20001 6.00073C5.06668 6.2674 5.76665 6.53411 6.29999 6.80078C6.76665 7.13411 7.13333 7.50063 7.39999 7.90063C7.66666 8.30063 7.79999 8.76745 7.79999 9.30078C7.79999 10.1674 7.46665 10.8673 6.79999 11.4006C6.06665 11.8673 5.13333 12.1008 4 12.1008C3.33333 12.1008 2.66667 11.9674 2 11.7007C1.33333 11.434 0.833333 11.0675 0.5 10.6008C0.166667 10.0675 0 9.50064 0 8.90063H1.39999C1.39999 9.5673 1.63334 10.0673 2.10001 10.4006C2.63334 10.8006 3.26667 11.0007 4 11.0007C4.8 11.0007 5.39999 10.8341 5.79999 10.5007C6.13332 10.2341 6.29999 9.83412 6.29999 9.30078C6.29999 8.76745 6.13332 8.3675 5.79999 8.10083C5.46665 7.83416 4.79999 7.53402 3.79999 7.20068ZM9.39999 11.3008C9.39999 11.0341 9.46667 10.834 9.60001 10.7007C9.73334 10.5674 9.93335 10.5007 10.2 10.5007C10.4667 10.5007 10.6667 10.5674 10.8 10.7007C11 10.834 11.1 11.0341 11.1 11.3008C11.1 11.5008 11 11.7006 10.8 11.9006C10.6667 12.034 10.4667 12.1008 10.2 12.1008C9.93335 12.1008 9.73334 12.034 9.60001 11.9006C9.46667 11.7006 9.39999 11.5008 9.39999 11.3008ZM20.2 12.0007H17.2V1.30078H20.2C21.1333 1.30078 21.9667 1.53407 22.7 2.00073C23.4333 2.40073 23.9667 2.96735 24.3 3.70068C24.7 4.43402 24.9 5.30078 24.9 6.30078V7.00073C24.9 8.00073 24.7333 8.8675 24.4 9.60083C24 10.4008 23.4333 11.0006 22.7 11.4006C21.9667 11.8006 21.1333 12.0007 20.2 12.0007ZM20.3 2.50073H18.6V10.9006H20.1C21.1667 10.9006 22 10.5341 22.6 9.80078C23.2 9.13411 23.5 8.20073 23.5 7.00073V6.30078C23.5 5.10078 23.2333 4.1674 22.7 3.50073C22.1 2.83407 21.3 2.50073 20.3 2.50073ZM31.8 12.0007L31.7 11.2007C31.2333 11.8007 30.4667 12.1008 29.4 12.1008C28.6 12.1008 27.9667 11.8673 27.5 11.4006C27.0333 10.934 26.8 10.2007 26.8 9.20068V4.10083H28.2V9.20068C28.2 10.4007 28.6667 11.0007 29.6 11.0007C30.6667 11.0007 31.3667 10.6008 31.7 9.80078V4.10083H33.1V12.0007H31.8ZM43 7.80078H40.4V12.0007H39V1.30078H43C44.1333 1.30078 45.0333 1.60068 45.7 2.20068C46.3667 2.80068 46.7 3.60083 46.7 4.60083C46.7 5.60083 46.3667 6.40073 45.7 7.00073C45.1 7.53407 44.2 7.80078 43 7.80078ZM40.4 2.50073V6.70068H43C43.7333 6.70068 44.3 6.50083 44.7 6.10083C45.1 5.7675 45.3 5.2675 45.3 4.60083C45.3 4.00083 45.1 3.50083 44.7 3.10083C44.3 2.70083 43.7333 2.50073 43 2.50073H40.4ZM49.8 0.800781V12.0007H48.4V0.800781H49.8ZM51.6 8.10083V8.00073C51.6 7.20073 51.7667 6.50063 52.1 5.90063C52.3667 5.23397 52.7667 4.73397 53.3 4.40063C53.9 4.0673 54.5333 3.90063 55.2 3.90063C56.2667 3.90063 57.1333 4.2674 57.8 5.00073C58.4667 5.80073 58.8 6.80073 58.8 8.00073V8.10083C58.8 8.90083 58.6667 9.60068 58.4 10.2007C58.0667 10.8007 57.6333 11.2675 57.1 11.6008C56.5666 11.9342 55.9333 12.1008 55.2 12.1008C54.1333 12.1008 53.2667 11.7341 52.6 11.0007C51.9333 10.2674 51.6 9.30083 51.6 8.10083ZM53 8.10083C53 8.9675 53.2 9.66735 53.6 10.2007C54 10.734 54.5333 11.0007 55.2 11.0007C55.9333 11.0007 56.5 10.734 56.9 10.2007C57.3 9.66735 57.5 8.93407 57.5 8.00073C57.5 7.13407 57.3 6.43397 56.9 5.90063C56.4334 5.30063 55.8667 5.00073 55.2 5.00073C54.5333 5.00073 54 5.26745 53.6 5.80078C53.2 6.33411 53 7.10083 53 8.10083ZM60.2 8.10083V8.00073C60.2 7.20073 60.3333 6.50063 60.6 5.90063C60.9333 5.23397 61.3667 4.73397 61.9 4.40063C62.4334 4.0673 63.0667 3.90063 63.8 3.90063C64.8667 3.90063 65.7334 4.2674 66.4 5.00073C67.0667 5.80073 67.4 6.80073 67.4 8.00073V8.10083C67.4 8.90083 67.2334 9.60068 66.9 10.2007C66.6334 10.8007 66.2333 11.2675 65.7 11.6008C65.1667 11.9342 64.5333 12.1008 63.8 12.1008C62.7333 12.1008 61.8667 11.7341 61.2 11.0007C60.5333 10.2674 60.2 9.30083 60.2 8.10083ZM61.5 8.10083C61.5 8.9675 61.7 9.66735 62.1 10.2007C62.5666 10.734 63.1333 11.0007 63.8 11.0007C64.4667 11.0007 65 10.734 65.4 10.2007C65.8 9.66735 66 8.93407 66 8.00073C66 7.13407 65.8 6.43397 65.4 5.90063C65 5.30063 64.4667 5.00073 63.8 5.00073C63.1333 5.00073 62.6 5.26745 62.2 5.80078C61.7333 6.33411 61.5 7.10083 61.5 8.10083ZM69.6 4.10083L71.6 10.0007L73.4 4.10083H74.9L71.7 13.2007C71.1667 14.534 70.3667 15.2007 69.3 15.2007H69.1L68.6 15.1008V14.0007H68.9C69.3667 14.0007 69.7333 13.9007 70 13.7007C70.2667 13.5674 70.4666 13.234 70.6 12.7007L70.9 11.9006L68.1 4.10083H69.6Z" fill="#777777"/>
</svg>
