<svg width="234" height="16" viewBox="0 0 234 16" fill="none" xmlns="http://www.w3.org/2000/svg">
<path d="M4.29999 7.19958C3.09999 6.86625 2.23335 6.4663 1.70001 5.99963C1.10001 5.4663 0.799988 4.83294 0.799988 4.09961C0.799988 3.23294 1.13332 2.53297 1.79999 1.99963C2.46665 1.4663 3.36667 1.19958 4.5 1.19958C5.23333 1.19958 5.86666 1.33294 6.39999 1.59961C6.99999 1.86628 7.43335 2.26635 7.70001 2.79968C8.03335 3.26635 8.20001 3.79966 8.20001 4.39966H6.79999C6.79999 3.79966 6.60001 3.29966 6.20001 2.89966C5.80001 2.49966 5.23333 2.29968 4.5 2.29968C3.76667 2.29968 3.19999 2.46635 2.79999 2.79968C2.46665 3.13302 2.29999 3.56628 2.29999 4.09961C2.29999 4.49961 2.46665 4.86625 2.79999 5.19958C3.19999 5.46625 3.83335 5.73297 4.70001 5.99963C5.56668 6.2663 6.26665 6.53302 6.79999 6.79968C7.26665 7.13302 7.63333 7.49966 7.89999 7.89966C8.09999 8.29966 8.20001 8.76635 8.20001 9.29968C8.20001 10.1663 7.86668 10.8663 7.20001 11.3997C6.53335 11.8663 5.63333 12.0996 4.5 12.0996C3.76667 12.0996 3.1 11.9663 2.5 11.6996C1.83333 11.4329 1.33333 11.0663 1 10.5996C0.666667 10.0663 0.5 9.49966 0.5 8.89966H1.89999C1.89999 9.56633 2.13334 10.0663 2.60001 10.3997C3.06667 10.7997 3.7 10.9996 4.5 10.9996C5.23333 10.9996 5.80001 10.833 6.20001 10.4996C6.60001 10.233 6.79999 9.83302 6.79999 9.29968C6.79999 8.76635 6.63332 8.36628 6.29999 8.09961C5.89999 7.83294 5.23332 7.53292 4.29999 7.19958ZM11.2 0.699585V4.99963C11.8 4.2663 12.5667 3.89966 13.5 3.89966C15.1667 3.89966 16.0333 4.86635 16.1 6.79968V11.9996H14.7V6.79968C14.7 6.19968 14.5667 5.7663 14.3 5.49963C14.0333 5.23297 13.6333 5.09961 13.1 5.09961C12.7 5.09961 12.3333 5.19966 12 5.39966C11.6667 5.66633 11.4 5.99966 11.2 6.39966V11.9996H9.79999V0.699585H11.2ZM24.5 11.9996H23C22.9333 11.8663 22.8667 11.5996 22.8 11.1996C22.2 11.7996 21.4667 12.0996 20.6 12.0996C19.8 12.0996 19.1667 11.8996 18.7 11.4996C18.1667 11.033 17.9 10.4663 17.9 9.79968C17.9 8.99968 18.2 8.36632 18.8 7.89966C19.4667 7.43299 20.3667 7.19958 21.5 7.19958H22.8V6.59961C22.8 6.13294 22.6667 5.73299 22.4 5.39966C22.1333 5.13299 21.7 4.99963 21.1 4.99963C20.6333 4.99963 20.2333 5.13299 19.9 5.39966C19.5667 5.66633 19.4 5.96635 19.4 6.29968H18.1C18.1 5.89968 18.2333 5.49961 18.5 5.09961C18.7667 4.76628 19.1333 4.49968 19.6 4.29968C20.1333 4.03302 20.6667 3.89966 21.2 3.89966C22.1333 3.89966 22.8667 4.13294 23.4 4.59961C23.8667 5.06628 24.1333 5.69963 24.2 6.49963V10.0996C24.2 10.8329 24.3 11.433 24.5 11.8997V11.9996ZM20.8 10.9996C21.2 10.9996 21.6 10.8663 22 10.5996C22.4 10.3996 22.6667 10.133 22.8 9.79968V8.09961H21.8C20.1333 8.09961 19.3 8.59961 19.3 9.59961C19.3 9.99961 19.4333 10.3329 19.7 10.5996C19.9667 10.8663 20.3333 10.9996 20.8 10.9996ZM27.2 4.09961L29 6.99963L30.7 4.09961H32.3L29.7 7.99963L32.4 11.9996H30.8L29 8.99963L27.1 11.9996H25.6L28.2 7.99963L25.7 4.09961H27.2ZM38.3 9.89966C38.3 9.49966 38.1667 9.19963 37.9 8.99963C37.6333 8.79963 37.1333 8.63297 36.4 8.49963C35.7333 8.3663 35.2 8.19963 34.8 7.99963C34.4 7.79963 34.1 7.53292 33.9 7.19958C33.7 6.93292 33.6 6.59959 33.6 6.19958C33.6 5.59959 33.8667 5.06628 34.4 4.59961C35 4.13294 35.7 3.89966 36.5 3.89966C37.4333 3.89966 38.1667 4.13294 38.7 4.59961C39.3 5.06628 39.6 5.66632 39.6 6.39966H38.2C38.2 5.99966 38.0333 5.66633 37.7 5.39966C37.4333 5.13299 37.0333 4.99963 36.5 4.99963C36.0333 4.99963 35.6667 5.09968 35.4 5.29968C35.1333 5.56635 35 5.86625 35 6.19958C35 6.53292 35.1 6.76632 35.3 6.89966C35.5667 7.09966 36.0333 7.26632 36.7 7.39966C37.4333 7.53299 38 7.69966 38.4 7.89966C38.8 8.16633 39.1 8.43292 39.3 8.69958C39.5 8.96625 39.6 9.33302 39.6 9.79968C39.6 10.4663 39.3333 11.033 38.8 11.4996C38.2 11.8996 37.4667 12.0996 36.6 12.0996C35.9333 12.0996 35.3667 11.9997 34.9 11.7997C34.4333 11.5997 34.0333 11.2997 33.7 10.8997C33.4333 10.433 33.3 9.9663 33.3 9.49963H34.7C34.7 9.9663 34.8667 10.3329 35.2 10.5996C35.5333 10.8663 36 10.9996 36.6 10.9996C37.0667 10.9996 37.4667 10.8996 37.8 10.6996C38.1333 10.4996 38.3 10.233 38.3 9.89966ZM42.9 4.09961V11.9996H41.5V4.09961H42.9ZM41.5 1.99963C41.5 1.73297 41.5333 1.53299 41.6 1.39966C41.8 1.26632 42 1.19958 42.2 1.19958C42.4667 1.19958 42.6667 1.26632 42.8 1.39966C43 1.53299 43.1 1.73297 43.1 1.99963C43.1 2.19963 43 2.3663 42.8 2.49963C42.6667 2.63297 42.4667 2.69958 42.2 2.69958C42 2.69958 41.8 2.63297 41.6 2.49963C41.5333 2.3663 41.5 2.19963 41.5 1.99963ZM45.7 4.09961L47.7 9.99963L49.5 4.09961H51L47.8 13.1996C47.2667 14.5329 46.4667 15.1996 45.4 15.1996H45.2L44.7 15.0996V13.9996H45C45.4667 13.9996 45.8333 13.8996 46.1 13.6996C46.3667 13.4996 46.5667 13.1663 46.7 12.6996L47 11.8997L44.2 4.09961H45.7ZM55.6 7.99963V7.89966C55.6 7.16632 55.7333 6.49966 56 5.89966C56.3333 5.23299 56.7667 4.73299 57.3 4.39966C57.8333 4.06632 58.4667 3.89966 59.2 3.89966C60.2667 3.89966 61.1333 4.2663 61.8 4.99963C62.4667 5.79963 62.8 6.79963 62.8 7.99963V8.09961C62.8 8.89961 62.6333 9.59958 62.3 10.1996C62.0333 10.7996 61.6333 11.2663 61.1 11.5996C60.5 11.9329 59.8667 12.0996 59.2 12.0996C58.1333 12.0996 57.2667 11.733 56.6 10.9996C55.9333 10.2663 55.6 9.2663 55.6 7.99963ZM56.9 8.09961C56.9 8.96628 57.1 9.66625 57.5 10.1996C57.9 10.7329 58.4667 10.9996 59.2 10.9996C59.8667 10.9996 60.4 10.7329 60.8 10.1996C61.2 9.66625 61.4 8.89966 61.4 7.89966C61.4 7.03299 61.2 6.33302 60.8 5.79968C60.4 5.26635 59.8667 4.99963 59.2 4.99963C58.4667 4.99963 57.9 5.26635 57.5 5.79968C57.1 6.33302 56.9 7.09961 56.9 8.09961ZM64.3 0.699585V1.49963L64.1 4.19958H63.2V0.699585H64.3ZM65.3 7.99963C65.3 6.73297 65.6 5.73297 66.2 4.99963C66.7333 4.2663 67.5 3.89966 68.5 3.89966C69.4333 3.89966 70.1667 4.23299 70.7 4.89966L70.8 4.09961H72V14.9996H70.7V11.2997C70.1 11.833 69.3667 12.0996 68.5 12.0996C67.5 12.0996 66.7333 11.733 66.2 10.9996C65.6 10.2663 65.3 9.2663 65.3 7.99963ZM66.7 8.09961C66.7 9.03294 66.9 9.73292 67.3 10.1996C67.6333 10.7329 68.1333 10.9996 68.8 10.9996C69.6 10.9996 70.2333 10.6663 70.7 9.99963V6.09961C70.2333 5.36628 69.6 4.99963 68.8 4.99963C68.1333 4.99963 67.6333 5.26635 67.3 5.79968C66.9 6.33302 66.7 7.09961 66.7 8.09961ZM75.7 4.09961V11.9996H74.3V4.09961H75.7ZM74.2 1.99963C74.2 1.73297 74.2667 1.53299 74.4 1.39966C74.5333 1.26632 74.7333 1.19958 75 1.19958C75.2667 1.19958 75.4667 1.26632 75.6 1.39966C75.7333 1.53299 75.8 1.73297 75.8 1.99963C75.8 2.19963 75.7333 2.3663 75.6 2.49963C75.4667 2.63297 75.2667 2.69958 75 2.69958C74.7333 2.69958 74.5333 2.63297 74.4 2.49963C74.2667 2.3663 74.2 2.19963 74.2 1.99963ZM78.4 2.09961H79.7V4.09961H81.2V5.09961H79.7V9.99963C79.7 10.333 79.7667 10.5663 79.9 10.6996C80.0333 10.8996 80.2667 10.9996 80.6 10.9996C80.7333 10.9996 80.9333 10.9663 81.2 10.8997V11.9996C80.8667 12.0663 80.5333 12.0996 80.2 12.0996C79.6 12.0996 79.1333 11.9329 78.8 11.5996C78.5333 11.1996 78.4 10.6663 78.4 9.99963V5.09961H76.9V4.09961H78.4V2.09961ZM87.7 11.8997V11.0996C87.1667 11.6996 86.3667 11.9996 85.3 11.9996C84.5 11.9996 83.8667 11.7663 83.4 11.2997C83 10.833 82.7667 10.0996 82.7 9.09961V3.99963H84.1V9.09961C84.1 10.2996 84.6 10.8997 85.6 10.8997C86.6 10.8997 87.2667 10.4996 87.6 9.69958V3.99963H89V11.8997H87.7ZM91.6 3.99963L93.6 10.0996L95.6 3.99963H97L94.2 11.8997H93.1L90.2 3.99963H91.6ZM101.4 10.8997C101.867 10.8997 102.3 10.7663 102.7 10.4996C103.033 10.233 103.233 9.86632 103.3 9.39966H104.5C104.5 9.86632 104.367 10.2996 104.1 10.6996C103.767 11.0996 103.367 11.4329 102.9 11.6996C102.433 11.8996 101.933 11.9996 101.4 11.9996C100.333 11.9996 99.4667 11.6663 98.8 10.9996C98.2 10.2663 97.9 9.2663 97.9 7.99963V7.79968C97.9 6.99968 98.0333 6.29958 98.3 5.69958C98.5667 5.09959 98.9667 4.63302 99.5 4.29968C100.033 3.96635 100.667 3.79968 101.4 3.79968C102.267 3.79968 103 4.06628 103.6 4.59961C104.2 5.13294 104.5 5.83292 104.5 6.69958H103.3C103.233 6.16625 103.033 5.73299 102.7 5.39966C102.367 5.06632 101.933 4.89966 101.4 4.89966C100.733 4.89966 100.2 5.16625 99.8 5.69958C99.4 6.16625 99.2 6.86635 99.2 7.79968V8.09961C99.2 9.03294 99.4 9.73292 99.8 10.1996C100.2 10.6663 100.733 10.8997 101.4 10.8997ZM107.4 0.699585V4.89966C108 4.16632 108.8 3.79968 109.8 3.79968C111.467 3.79968 112.3 4.76625 112.3 6.69958V11.8997H110.9V6.69958C110.9 6.09959 110.8 5.66633 110.6 5.39966C110.333 5.13299 109.933 4.99963 109.4 4.99963C108.933 4.99963 108.533 5.09968 108.2 5.29968C107.867 5.56635 107.6 5.89968 107.4 6.29968V11.8997H106.1V0.699585H107.4ZM115.7 3.99963V11.8997H114.4V3.99963H115.7ZM114.2 1.89966C114.2 1.63299 114.267 1.43302 114.4 1.29968C114.533 1.16635 114.733 1.09961 115 1.09961C115.267 1.09961 115.467 1.16635 115.6 1.29968C115.733 1.43302 115.8 1.63299 115.8 1.89966C115.8 2.09966 115.733 2.26632 115.6 2.39966C115.467 2.53299 115.267 2.59961 115 2.59961C114.733 2.59961 114.533 2.53299 114.4 2.39966C114.267 2.26632 114.2 2.09966 114.2 1.89966ZM128.3 7.89966V7.99963C128.3 9.19963 128 10.1663 127.4 10.8997C126.867 11.633 126.133 11.9996 125.2 11.9996C124.2 11.9996 123.433 11.6663 122.9 10.9996L122.8 11.8997H121.6V0.699585H122.9V4.79968C123.5 4.13302 124.267 3.79968 125.2 3.79968C126.133 3.79968 126.9 4.16632 127.5 4.89966C128.033 5.63299 128.3 6.63299 128.3 7.89966ZM126.9 7.89966C126.9 6.96632 126.733 6.23292 126.4 5.69958C126.067 5.23292 125.567 4.99963 124.9 4.99963C123.967 4.99963 123.3 5.39958 122.9 6.19958V9.69958C123.367 10.4996 124.033 10.8997 124.9 10.8997C125.5 10.8997 126 10.6329 126.4 10.0996C126.733 9.63294 126.9 8.89966 126.9 7.89966ZM131.5 3.99963V11.8997H130.1V3.99963H131.5ZM130 1.89966C130 1.63299 130.067 1.43302 130.2 1.29968C130.333 1.16635 130.533 1.09961 130.8 1.09961C131.067 1.09961 131.267 1.16635 131.4 1.29968C131.533 1.43302 131.6 1.63299 131.6 1.89966C131.6 2.09966 131.533 2.26632 131.4 2.39966C131.267 2.53299 131.067 2.59961 130.8 2.59961C130.533 2.59961 130.333 2.53299 130.2 2.39966C130.067 2.26632 130 2.09966 130 1.89966ZM135.1 0.699585V11.8997H133.8V0.699585H135.1ZM143.6 11.8997H142.2C142.067 11.7663 142 11.4996 142 11.0996C141.333 11.6996 140.567 11.9996 139.7 11.9996C138.9 11.9996 138.267 11.7997 137.8 11.3997C137.267 10.933 137 10.3663 137 9.69958C137 8.89958 137.333 8.26635 138 7.79968C138.6 7.33302 139.467 7.09961 140.6 7.09961H141.9V6.49963C141.9 6.03297 141.767 5.63302 141.5 5.29968C141.233 5.03302 140.833 4.89966 140.3 4.89966C139.767 4.89966 139.333 5.03302 139 5.29968C138.733 5.56635 138.6 5.86625 138.6 6.19958H137.2C137.2 5.79958 137.333 5.39963 137.6 4.99963C137.867 4.6663 138.267 4.39959 138.8 4.19958C139.267 3.93292 139.767 3.79968 140.3 3.79968C141.233 3.79968 141.967 4.03297 142.5 4.49963C143.033 4.9663 143.3 5.59966 143.3 6.39966V9.99963C143.3 10.733 143.4 11.333 143.6 11.7997V11.8997ZM139.9 10.8997C140.3 10.8997 140.7 10.7663 141.1 10.4996C141.5 10.2996 141.767 10.0329 141.9 9.69958V7.99963H140.9C139.233 7.99963 138.4 8.49963 138.4 9.49963C138.4 9.89963 138.533 10.233 138.8 10.4996C139.067 10.7663 139.433 10.8997 139.9 10.8997ZM145.4 3.99963H146.7V4.99963C147.367 4.19963 148.167 3.79968 149.1 3.79968C150.767 3.79968 151.633 4.73294 151.7 6.59961V11.8997H150.3V6.59961C150.3 6.06628 150.167 5.66633 149.9 5.39966C149.633 5.13299 149.233 4.99963 148.7 4.99963C148.3 4.99963 147.933 5.09968 147.6 5.29968C147.267 5.56635 147 5.86625 146.8 6.19958V11.8997H145.4V3.99963ZM163.1 4.89966L158.7 10.7997H163.3V11.8997H157V10.8997L161.4 5.09961H157.1V3.99963H163.1V4.89966ZM164.4 7.89966V7.79968C164.4 6.99968 164.533 6.29958 164.8 5.69958C165.133 5.09959 165.567 4.63302 166.1 4.29968C166.633 3.96635 167.267 3.79968 168 3.79968C169.067 3.79968 169.933 4.16632 170.6 4.89966C171.267 5.63299 171.6 6.63299 171.6 7.89966V7.99963C171.6 8.73297 171.433 9.43294 171.1 10.0996C170.833 10.6996 170.433 11.1663 169.9 11.4996C169.3 11.833 168.667 11.9996 168 11.9996C166.933 11.9996 166.067 11.633 165.4 10.8997C164.733 10.1663 164.4 9.16632 164.4 7.89966ZM165.7 7.99963C165.7 8.8663 165.9 9.56628 166.3 10.0996C166.767 10.6329 167.333 10.8997 168 10.8997C168.667 10.8997 169.2 10.6329 169.6 10.0996C170 9.56628 170.2 8.79968 170.2 7.79968C170.2 6.93302 170 6.23292 169.6 5.69958C169.2 5.16625 168.667 4.89966 168 4.89966C167.333 4.89966 166.767 5.16625 166.3 5.69958C165.9 6.23292 165.7 6.99963 165.7 7.99963ZM172.9 7.89966V7.79968C172.9 6.99968 173.067 6.29958 173.4 5.69958C173.667 5.09959 174.1 4.63302 174.7 4.29968C175.233 3.96635 175.833 3.79968 176.5 3.79968C177.567 3.79968 178.433 4.16632 179.1 4.89966C179.767 5.63299 180.1 6.63299 180.1 7.89966V7.99963C180.1 8.73297 179.967 9.43294 179.7 10.0996C179.433 10.6996 179 11.1663 178.4 11.4996C177.867 11.833 177.233 11.9996 176.5 11.9996C175.433 11.9996 174.567 11.633 173.9 10.8997C173.233 10.1663 172.9 9.16632 172.9 7.89966ZM174.3 7.99963C174.3 8.8663 174.5 9.56628 174.9 10.0996C175.3 10.6329 175.833 10.8997 176.5 10.8997C177.233 10.8997 177.8 10.6329 178.2 10.0996C178.6 9.56628 178.8 8.79968 178.8 7.79968C178.8 6.93302 178.6 6.23292 178.2 5.69958C177.733 5.16625 177.167 4.89966 176.5 4.89966C175.833 4.89966 175.3 5.16625 174.9 5.69958C174.5 6.23292 174.3 6.99963 174.3 7.99963ZM181.8 3.89966H183.1V4.79968C183.7 4.13302 184.5 3.79968 185.5 3.79968C186.633 3.79968 187.4 4.23294 187.8 5.09961C188.067 4.69961 188.4 4.36628 188.8 4.09961C189.2 3.89961 189.7 3.79968 190.3 3.79968C192.033 3.79968 192.9 4.69963 192.9 6.49963V11.7997H191.6V6.59961C191.6 6.06628 191.467 5.66633 191.2 5.39966C190.933 5.06632 190.5 4.89966 189.9 4.89966C189.367 4.89966 188.933 5.06632 188.6 5.39966C188.267 5.66633 188.1 6.06628 188.1 6.59961V11.7997H186.7V6.69958C186.7 5.49959 186.133 4.89966 185 4.89966C184.133 4.89966 183.533 5.29961 183.2 6.09961V11.7997H181.8V3.89966ZM198.3 7.89966V7.79968C198.3 7.06635 198.467 6.36625 198.8 5.69958C199.133 5.09959 199.567 4.63302 200.1 4.29968C200.633 3.96635 201.233 3.79968 201.9 3.79968C203.033 3.79968 203.9 4.16632 204.5 4.89966C205.233 5.63299 205.6 6.63299 205.6 7.89966V7.99963C205.6 8.79963 205.433 9.49961 205.1 10.0996C204.833 10.6996 204.4 11.1663 203.8 11.4996C203.267 11.833 202.633 11.9996 201.9 11.9996C200.833 11.9996 199.967 11.633 199.3 10.8997C198.633 10.1663 198.3 9.16632 198.3 7.89966ZM199.7 7.99963C199.7 8.8663 199.9 9.56628 200.3 10.0996C200.7 10.6329 201.233 10.8997 201.9 10.8997C202.633 10.8997 203.2 10.6329 203.6 10.0996C204 9.56628 204.2 8.79968 204.2 7.79968C204.2 6.93302 204 6.23292 203.6 5.69958C203.2 5.16625 202.633 4.89966 201.9 4.89966C201.233 4.89966 200.7 5.16625 200.3 5.69958C199.9 6.23292 199.7 6.99963 199.7 7.99963ZM211.1 3.89966V5.19958C210.9 5.13292 210.667 5.09961 210.4 5.09961C209.533 5.09961 208.933 5.46625 208.6 6.19958V11.8997H207.3V3.89966H208.6V4.89966C209.067 4.16632 209.7 3.79968 210.5 3.79968C210.767 3.79968 210.967 3.83299 211.1 3.89966ZM211.9 7.89966V7.79968C211.9 6.59968 212.167 5.63299 212.7 4.89966C213.3 4.16632 214.067 3.79968 215 3.79968C215.933 3.79968 216.667 4.09959 217.2 4.69958L217.3 3.89966H218.5V14.8997H217.2V11.0996C216.667 11.6996 215.933 11.9996 215 11.9996C214.067 11.9996 213.3 11.633 212.7 10.8997C212.167 10.1663 211.9 9.16632 211.9 7.89966ZM213.2 7.99963C213.2 8.93297 213.4 9.63294 213.8 10.0996C214.2 10.6329 214.7 10.8997 215.3 10.8997C216.1 10.8997 216.733 10.533 217.2 9.79968V5.99963C216.733 5.2663 216.133 4.89966 215.4 4.89966C214.733 4.89966 214.2 5.16625 213.8 5.69958C213.4 6.23292 213.2 6.99963 213.2 7.99963ZM227 11.8997H225.6C225.533 11.6997 225.467 11.3996 225.4 10.9996C224.8 11.6663 224.067 11.9996 223.2 11.9996C222.4 11.9996 221.733 11.7997 221.2 11.3997C220.733 10.933 220.5 10.3663 220.5 9.69958C220.5 8.83292 220.8 8.19968 221.4 7.79968C222.067 7.33302 222.967 7.09961 224.1 7.09961H225.4V6.39966C225.4 5.93299 225.267 5.56635 225 5.29968C224.667 5.03302 224.233 4.89966 223.7 4.89966C223.233 4.89966 222.833 5.03302 222.5 5.29968C222.167 5.49968 222 5.76628 222 6.09961H220.6C220.6 5.76628 220.767 5.39963 221.1 4.99963C221.367 4.59963 221.733 4.29961 222.2 4.09961C222.667 3.89961 223.2 3.79968 223.8 3.79968C224.733 3.79968 225.433 4.03297 225.9 4.49963C226.433 4.9663 226.7 5.59966 226.7 6.39966V9.99963C226.7 10.733 226.8 11.333 227 11.7997V11.8997ZM223.4 10.7997C223.8 10.7997 224.2 10.6996 224.6 10.4996C224.933 10.2996 225.2 9.99961 225.4 9.59961V7.99963H224.3C222.633 7.99963 221.8 8.49963 221.8 9.49963C221.8 9.89963 221.967 10.233 222.3 10.4996C222.567 10.6996 222.933 10.7997 223.4 10.7997ZM230.3 0.599609V11.8997H229V0.599609H230.3ZM233.9 3.89966V11.8997H232.6V3.89966H233.9ZM232.4 1.79968C232.4 1.59968 232.467 1.43302 232.6 1.29968C232.733 1.09968 232.933 0.999634 233.2 0.999634C233.467 0.999634 233.667 1.09968 233.8 1.29968C233.933 1.43302 234 1.59968 234 1.79968C234 2.06635 233.933 2.26632 233.8 2.39966C233.667 2.53299 233.467 2.59961 233.2 2.59961C232.933 2.59961 232.733 2.53299 232.6 2.39966C232.467 2.26632 232.4 2.06635 232.4 1.79968Z" fill="#777777"/>
</svg>
