<svg width="445" height="18" viewBox="0 0 445 18" fill="none" xmlns="http://www.w3.org/2000/svg">
<path d="M2.89984 11.5986L0.299805 13.499C0.699805 14.2324 1.1998 14.899 1.7998 15.499C2.46647 16.099 3.19982 16.599 3.99982 16.999C4.86648 17.3324 5.7998 17.499 6.7998 17.499C7.53314 17.499 8.23317 17.3992 8.89984 17.1992C9.63317 16.9326 10.2332 16.5992 10.6998 16.1992C11.2998 15.7992 11.7332 15.2992 11.9998 14.6992C12.3331 14.0992 12.4998 13.3986 12.4998 12.5986C12.4998 11.9986 12.3998 11.4327 12.1998 10.8994C11.9998 10.4327 11.6998 9.99863 11.2998 9.59863C10.9665 9.19863 10.5665 8.8653 10.0998 8.59863C9.63313 8.33197 9.13313 8.09941 8.59979 7.89941C7.86646 7.63275 7.23316 7.39922 6.69983 7.19922C6.23316 6.99922 5.86646 6.76569 5.59979 6.49902C5.33313 6.23236 5.19983 5.89902 5.19983 5.49902C5.19983 5.16569 5.33313 4.89922 5.59979 4.69922C5.86646 4.49922 6.26647 4.39941 6.7998 4.39941C7.1998 4.39941 7.56651 4.4653 7.89984 4.59863C8.23317 4.73197 8.56651 4.93255 8.89984 5.19922C9.16651 5.46589 9.39979 5.79922 9.59979 6.19922L12.4998 4.59863C12.2332 4.0653 11.8331 3.53236 11.2998 2.99902C10.8331 2.53236 10.1998 2.13216 9.39984 1.79883C8.66651 1.39883 7.7998 1.19922 6.7998 1.19922C5.7998 1.19922 4.86648 1.39883 3.99982 1.79883C3.19982 2.13216 2.56646 2.63216 2.09979 3.29883C1.63313 3.96549 1.39984 4.73197 1.39984 5.59863C1.39984 6.39863 1.53314 7.0653 1.7998 7.59863C2.06647 8.13197 2.43317 8.56608 2.89984 8.89941C3.29984 9.29941 3.73316 9.63275 4.19983 9.89941C4.6665 10.0994 5.09982 10.2661 5.49982 10.3994C6.23315 10.6661 6.83314 10.8986 7.2998 11.0986C7.76647 11.3653 8.0998 11.6327 8.2998 11.8994C8.4998 12.0994 8.59979 12.3988 8.59979 12.7988C8.59979 13.2655 8.43313 13.6327 8.09979 13.8994C7.69979 14.1661 7.23316 14.2988 6.69983 14.2988C6.1665 14.2988 5.6665 14.199 5.19983 13.999C4.79983 13.799 4.39982 13.4657 3.99982 12.999C3.59982 12.599 3.23317 12.132 2.89984 11.5986ZM18.7998 1.59863H14.9998V16.999H18.7998V1.59863ZM21.6998 1.59863V4.89941H27.7998L20.5998 16.999H32.8998V13.7988H26.4998L33.6998 1.59863H21.6998ZM45.9998 1.59863H42.1998V11.8994C42.1998 12.8994 42.3665 13.7657 42.6998 14.499C43.0332 15.1657 43.4665 15.7655 43.9998 16.2988C44.5998 16.6988 45.2665 17.0322 45.9998 17.2988C46.7332 17.4988 47.5332 17.5986 48.3998 17.5986C49.2665 17.5986 50.0665 17.4988 50.7998 17.2988C51.5998 17.0322 52.2665 16.6988 52.7998 16.2988C53.3998 15.7655 53.8331 15.1657 54.0998 14.499C54.4331 13.7657 54.5998 12.8994 54.5998 11.8994V1.59863H50.8998V11.6992C50.8998 12.4326 50.6998 13.0653 50.2998 13.5986C49.8998 14.0653 49.2665 14.2988 48.3998 14.2988C47.5998 14.2988 46.9998 14.0653 46.5998 13.5986C46.1998 13.0653 45.9998 12.4326 45.9998 11.6992V1.59863ZM60.8998 9.29883C60.8998 8.29883 61.1331 7.46549 61.5998 6.79883C61.9998 6.13216 62.5332 5.63216 63.1998 5.29883C63.9332 4.96549 64.7331 4.79883 65.5998 4.79883C66.3331 4.79883 66.9665 4.89863 67.4998 5.09863C68.0331 5.23197 68.5331 5.46549 68.9998 5.79883C69.4665 6.13216 69.8665 6.46549 70.1998 6.79883V2.79883C69.5332 2.33216 68.8331 1.93197 68.0998 1.59863C67.3665 1.33197 66.4331 1.19922 65.2998 1.19922C64.0998 1.19922 62.9665 1.39883 61.8998 1.79883C60.8998 2.19883 59.9998 2.73275 59.1998 3.39941C58.4665 4.13275 57.8998 4.99902 57.4998 5.99902C57.0998 6.99902 56.8998 8.09883 56.8998 9.29883C56.8998 10.4988 57.0998 11.5986 57.4998 12.5986C57.8998 13.532 58.4665 14.3653 59.1998 15.0986C59.9998 15.832 60.8998 16.3988 61.8998 16.7988C62.9665 17.1322 64.0998 17.2988 65.2998 17.2988C66.4331 17.2988 67.3665 17.1661 68.0998 16.8994C68.8331 16.6327 69.5332 16.2655 70.1998 15.7988V11.7988C69.8665 12.1322 69.4665 12.4655 68.9998 12.7988C68.5331 13.0655 68.0331 13.299 67.4998 13.499C66.9665 13.699 66.3331 13.7988 65.5998 13.7988C64.7331 13.7988 63.9332 13.6322 63.1998 13.2988C62.5332 12.8988 61.9998 12.3659 61.5998 11.6992C61.1331 11.0326 60.8998 10.2322 60.8998 9.29883ZM74.1998 7.19922V10.499H85.8998V7.19922H74.1998ZM87.1998 1.59863H83.4998V16.999H87.1998V1.59863ZM76.7998 1.59863H73.0998V16.999H76.7998V1.59863ZM93.9998 1.59863H90.2998V11.8994C90.2998 12.8994 90.4665 13.7327 90.7998 14.3994C91.1331 15.1327 91.5665 15.7326 92.0998 16.1992C92.6998 16.6659 93.3665 17.0322 94.0998 17.2988C94.8331 17.4988 95.6331 17.5986 96.4998 17.5986C97.3665 17.5986 98.1665 17.4988 98.8998 17.2988C99.6998 17.0322 100.367 16.6659 100.9 16.1992C101.5 15.7326 101.933 15.1327 102.2 14.3994C102.533 13.7327 102.7 12.8994 102.7 11.8994V1.59863H98.9998V11.6992C98.9998 12.4326 98.7998 13.0324 98.3998 13.499C97.9332 14.0324 97.2998 14.2988 96.4998 14.2988C95.6998 14.2988 95.0665 14.0324 94.5998 13.499C94.1998 13.0324 93.9998 12.4326 93.9998 11.6992V1.59863ZM120.1 1.59863H116.5V10.1992L105.8 0.798828V16.999H109.4V8.29883L120.1 17.6992V1.59863ZM133 9.29883C133 8.43216 133.166 7.63275 133.5 6.89941C133.833 6.23275 134.333 5.69883 135 5.29883C135.666 4.89883 136.433 4.69922 137.3 4.69922C138.233 4.69922 139 4.89883 139.6 5.29883C140.266 5.69883 140.766 6.23275 141.1 6.89941C141.5 7.63275 141.7 8.43216 141.7 9.29883C141.7 10.2322 141.5 11.0326 141.1 11.6992C140.766 12.4326 140.266 12.9994 139.6 13.3994C138.933 13.7994 138.166 13.999 137.3 13.999C136.433 13.999 135.666 13.7994 135 13.3994C134.333 12.9994 133.833 12.4326 133.5 11.6992C133.166 11.0326 133 10.2322 133 9.29883ZM129 9.29883C129 10.4988 129.2 11.5986 129.6 12.5986C130 13.5986 130.566 14.4659 131.3 15.1992C132.1 15.9326 133 16.4994 134 16.8994C135 17.2994 136.1 17.499 137.3 17.499C138.5 17.499 139.6 17.2994 140.6 16.8994C141.666 16.4994 142.566 15.9326 143.3 15.1992C144.033 14.4659 144.6 13.5986 145 12.5986C145.4 11.5986 145.6 10.4988 145.6 9.29883C145.6 8.09883 145.4 7.03197 145 6.09863C144.6 5.09863 144 4.23236 143.2 3.49902C142.466 2.76569 141.6 2.23275 140.6 1.89941C139.6 1.49941 138.5 1.29883 137.3 1.29883C136.166 1.29883 135.066 1.49941 134 1.89941C133 2.23275 132.133 2.76569 131.4 3.49902C130.667 4.23236 130.066 5.09863 129.6 6.09863C129.2 7.03197 129 8.09883 129 9.29883ZM152.2 1.59863H148.7L147.7 8.59863H149.9L152.2 1.59863ZM153.2 1.59863V4.99902H157.4V16.999H161.1V4.99902H165.4V1.59863H153.2ZM167.5 11.1992L167.3 14.0986H175.4L175.2 11.1992H167.5ZM169.1 12.2988L171.2 7.29883L173.4 12.2988L173.3 13.1992L175.1 16.999H179.3L171.2 0.699219L163.1 16.999H167.3L169.2 13.0986L169.1 12.2988ZM190.1 1.69922V4.79883H197V1.69922H190.1ZM190.1 7.89941V10.8994H196.7V7.89941H190.1ZM191.2 1.69922H187.7V17.0986H191.2V1.69922ZM202.9 9.39941C202.9 8.46608 203.067 7.66569 203.4 6.99902C203.8 6.26569 204.333 5.69883 205 5.29883C205.6 4.89883 206.366 4.69922 207.3 4.69922C208.166 4.69922 208.933 4.89883 209.6 5.29883C210.2 5.69883 210.7 6.26569 211.1 6.99902C211.433 7.66569 211.6 8.46608 211.6 9.39941C211.6 10.2661 211.4 11.0655 211 11.7988C210.666 12.4655 210.166 12.9994 209.5 13.3994C208.9 13.7994 208.166 13.999 207.3 13.999C206.366 13.999 205.6 13.7994 205 13.3994C204.333 12.9994 203.8 12.4655 203.4 11.7988C203.067 11.0655 202.9 10.2661 202.9 9.39941ZM199 9.39941C199 10.5327 199.2 11.5986 199.6 12.5986C200 13.5986 200.566 14.4659 201.3 15.1992C202.033 15.9326 202.9 16.4994 203.9 16.8994C204.9 17.2994 206.033 17.499 207.3 17.499C208.5 17.499 209.6 17.2994 210.6 16.8994C211.6 16.4994 212.466 15.9326 213.2 15.1992C213.933 14.4659 214.5 13.5986 214.9 12.5986C215.3 11.5986 215.5 10.5327 215.5 9.39941C215.5 8.19941 215.3 7.09863 214.9 6.09863C214.5 5.09863 213.933 4.23236 213.2 3.49902C212.466 2.83236 211.566 2.29941 210.5 1.89941C209.5 1.49941 208.433 1.29883 207.3 1.29883C206.1 1.29883 205 1.49941 204 1.89941C203 2.29941 202.1 2.83236 201.3 3.49902C200.566 4.23236 200 5.09863 199.6 6.09863C199.2 7.09863 199 8.19941 199 9.39941ZM230.2 1.69922H225.9L222.9 7.39941L219.9 1.69922H215.6L221 10.7988V17.0986H224.8V10.7988L230.2 1.69922ZM235.6 1.69922H231.8V17.0986H235.6V1.69922ZM234.2 17.0986H237.3C238.966 17.0986 240.433 16.7653 241.7 16.0986C242.9 15.4986 243.833 14.6324 244.5 13.499C245.166 12.299 245.5 10.9327 245.5 9.39941C245.5 7.79941 245.166 6.43216 244.5 5.29883C243.833 4.16549 242.9 3.2653 241.7 2.59863C240.433 1.99863 238.966 1.69922 237.3 1.69922H234.2V4.99902H237.1C237.7 4.99902 238.266 5.06589 238.8 5.19922C239.4 5.33255 239.9 5.56608 240.3 5.89941C240.7 6.23275 241.033 6.69883 241.3 7.29883C241.566 7.83216 241.7 8.53275 241.7 9.39941C241.7 10.1994 241.566 10.899 241.3 11.499C241.033 12.0324 240.7 12.4655 240.3 12.7988C239.9 13.1322 239.4 13.3986 238.8 13.5986C238.266 13.732 237.7 13.7988 237.1 13.7988H234.2V17.0986ZM249.6 11.6992L247 13.499C247.333 14.2324 247.833 14.932 248.5 15.5986C249.1 16.1986 249.833 16.6657 250.7 16.999C251.566 17.399 252.5 17.5986 253.5 17.5986C254.233 17.5986 254.933 17.4988 255.6 17.2988C256.266 17.0322 256.867 16.6988 257.4 16.2988C257.933 15.8988 258.366 15.3988 258.7 14.7988C259.033 14.1988 259.2 13.4992 259.2 12.6992C259.2 12.0326 259.1 11.4657 258.9 10.999C258.7 10.4657 258.4 10.0326 258 9.69922C257.666 9.29922 257.266 8.96589 256.8 8.69922C256.333 8.43255 255.833 8.19902 255.3 7.99902C254.566 7.73236 253.933 7.49883 253.4 7.29883C252.933 7.03216 252.533 6.76569 252.2 6.49902C251.933 6.23236 251.8 5.93197 251.8 5.59863C251.8 5.2653 251.966 4.99883 252.3 4.79883C252.566 4.53216 252.966 4.39941 253.5 4.39941C253.9 4.39941 254.266 4.49922 254.6 4.69922C254.933 4.83255 255.233 5.03216 255.5 5.29883C255.833 5.5655 256.1 5.89883 256.3 6.29883L259.1 4.69922C258.833 4.16589 258.466 3.63197 258 3.09863C257.466 2.5653 256.833 2.13216 256.1 1.79883C255.366 1.46549 254.467 1.29883 253.4 1.29883C252.4 1.29883 251.5 1.49941 250.7 1.89941C249.9 2.23275 249.266 2.73275 248.8 3.39941C248.333 3.99941 248.1 4.76589 248.1 5.69922C248.1 6.49922 248.233 7.16589 248.5 7.69922C248.766 8.23255 249.1 8.66569 249.5 8.99902C249.966 9.39902 250.433 9.69941 250.9 9.89941C251.367 10.1661 251.8 10.3657 252.2 10.499C252.933 10.7657 253.533 10.9992 254 11.1992C254.4 11.4659 254.7 11.6994 254.9 11.8994C255.167 12.1661 255.3 12.4994 255.3 12.8994C255.3 13.3661 255.1 13.7324 254.7 13.999C254.367 14.2657 253.933 14.3994 253.4 14.3994C252.867 14.3994 252.367 14.2986 251.9 14.0986C251.433 13.832 251 13.4986 250.6 13.0986C250.266 12.6986 249.933 12.2326 249.6 11.6992ZM264.3 11.2988L264.1 14.0986H272.2L272 11.2988H264.3ZM265.9 12.2988L268 7.29883L270.2 12.2988L270.1 13.2988L271.9 17.0986H276.2L268 0.699219L259.9 17.0986H264.1L266.1 13.0986L265.9 12.2988ZM281.5 1.69922H277.7V17.0986H287.6V13.8994H281.5V1.69922ZM293.1 1.69922H289.4V17.0986H293.1V1.69922ZM306 17.0986L307 9.29883L311.2 15.6992L315.4 9.29883L316.3 17.0986H320.2L317.7 0.899414L311.2 10.2988L304.6 0.899414L302.1 17.0986H306ZM325.3 11.2988L325 14.0986H333.1L332.9 11.2988H325.3ZM326.9 12.2988L329.1 7.39941L331.2 12.3994L331.1 13.2988L333 17.0986H337.2L329.1 0.699219L321 17.0986H325.2L327.1 13.0986L326.9 12.2988ZM341.2 9.39941C341.2 8.53275 341.366 7.73236 341.7 6.99902C342.1 6.33236 342.633 5.79941 343.3 5.39941C343.967 4.99941 344.733 4.79883 345.6 4.79883C346.6 4.79883 347.433 5.03236 348.1 5.49902C348.766 5.96569 349.3 6.56549 349.7 7.29883C350.1 8.09883 350.3 8.93216 350.3 9.79883C350.3 10.7322 350.1 11.5326 349.7 12.1992C349.3 12.8659 348.8 13.3988 348.2 13.7988C347.533 14.1322 346.733 14.2988 345.8 14.2988C344.933 14.2988 344.166 14.0992 343.5 13.6992C342.766 13.2992 342.2 12.7324 341.8 11.999C341.4 11.2657 341.2 10.3994 341.2 9.39941ZM337.2 9.39941C337.2 10.5994 337.4 11.6992 337.8 12.6992C338.2 13.6992 338.8 14.5655 339.6 15.2988C340.333 16.0322 341.2 16.599 342.2 16.999C343.266 17.399 344.4 17.5986 345.6 17.5986C346.8 17.5986 347.9 17.399 348.9 16.999C349.9 16.599 350.766 16.0322 351.5 15.2988C352.233 14.5655 352.8 13.6992 353.2 12.6992C353.6 11.6992 353.8 10.5994 353.8 9.39941C353.8 8.19941 353.6 7.13255 353.2 6.19922C352.8 5.19922 352.233 4.33197 351.5 3.59863C350.766 2.8653 349.9 2.33236 348.9 1.99902C347.9 1.59902 346.8 1.39941 345.6 1.39941C344.4 1.39941 343.3 1.59902 342.3 1.99902C341.3 2.33236 340.4 2.8653 339.6 3.59863C338.866 4.33197 338.3 5.19922 337.9 6.19922C337.433 7.13255 337.2 8.19941 337.2 9.39941ZM348.2 10.499H344.3L351.6 17.3994H355.6L348.2 10.499ZM360.2 9.39941C360.2 8.46608 360.366 7.66569 360.7 6.99902C361.033 6.26569 361.533 5.69883 362.2 5.29883C362.866 4.89883 363.633 4.69922 364.5 4.69922C365.433 4.69922 366.2 4.89883 366.8 5.29883C367.467 5.69883 367.967 6.26569 368.3 6.99902C368.633 7.66569 368.8 8.46608 368.8 9.39941C368.8 10.2661 368.633 11.0655 368.3 11.7988C367.967 12.4655 367.467 12.9994 366.8 13.3994C366.133 13.7994 365.366 13.999 364.5 13.999C363.633 13.999 362.866 13.7994 362.2 13.3994C361.533 12.9994 361.033 12.4655 360.7 11.7988C360.366 11.0655 360.2 10.2661 360.2 9.39941ZM356.2 9.39941C356.2 10.5994 356.4 11.6992 356.8 12.6992C357.2 13.6992 357.766 14.5655 358.5 15.2988C359.233 16.0322 360.133 16.599 361.2 16.999C362.2 17.399 363.3 17.5986 364.5 17.5986C365.7 17.5986 366.8 17.399 367.8 16.999C368.867 16.599 369.766 16.0322 370.5 15.2988C371.233 14.5655 371.8 13.6992 372.2 12.6992C372.6 11.6992 372.8 10.5994 372.8 9.39941C372.8 8.19941 372.6 7.09863 372.2 6.09863C371.8 5.1653 371.2 4.33197 370.4 3.59863C369.667 2.8653 368.8 2.29941 367.8 1.89941C366.8 1.49941 365.7 1.29883 364.5 1.29883C363.366 1.29883 362.266 1.49941 361.2 1.89941C360.2 2.29941 359.333 2.8653 358.6 3.59863C357.866 4.33197 357.267 5.1653 356.8 6.09863C356.4 7.09863 356.2 8.19941 356.2 9.39941ZM378.9 1.69922H375.2V17.0986H385.1V13.8994H378.9V1.69922ZM390.1 11.2988L389.9 14.0986H398L397.8 11.2988H390.1ZM391.7 12.2988L393.8 7.29883L396 12.2988L395.9 13.2988L397.7 17.0986H401.9L393.8 0.699219L385.7 17.0986H389.9L391.8 13.0986L391.7 12.2988ZM407.3 1.69922H403.6V17.0986H413.5V13.8994H407.3V1.69922ZM418.6 11.2988L418.3 14.0986H426.5L426.2 11.2988H418.6ZM420.2 12.2988L422.4 7.39941L424.5 12.3994L424.4 13.2988L426.3 17.0986H430.5L422.4 0.798828L414.3 17.0986H418.5L420.4 13.1992L420.2 12.2988ZM439.8 10.0986H435.9L440.2 16.999H444.6L439.8 10.0986ZM435.8 1.69922H432.1V17.0986H435.8V1.69922ZM434.4 1.69922V4.89941H437.4C437.933 4.89941 438.366 4.9653 438.7 5.09863C439.1 5.23197 439.366 5.46549 439.5 5.79883C439.7 6.0655 439.8 6.43275 439.8 6.89941C439.8 7.29941 439.7 7.66569 439.5 7.99902C439.366 8.26569 439.1 8.49922 438.7 8.69922C438.366 8.83255 437.933 8.89941 437.4 8.89941H434.4V11.7988H437.7C439.033 11.7988 440.133 11.5653 441 11.0986C441.866 10.6986 442.533 10.1327 443 9.39941C443.466 8.59941 443.7 7.69922 443.7 6.69922C443.7 5.69922 443.466 4.83197 443 4.09863C442.533 3.3653 441.866 2.76549 441 2.29883C440.133 1.89883 439.033 1.69922 437.7 1.69922H434.4Z" fill="#005FFD"/>
</svg>
