<svg width="439" height="18" viewBox="0 0 439 18" fill="none" xmlns="http://www.w3.org/2000/svg">
<path d="M2.89984 11.6001L0.299805 13.5C0.699805 14.2333 1.1998 14.9 1.7998 15.5C2.46647 16.1 3.19982 16.6 3.99982 17C4.86648 17.3333 5.7998 17.5 6.7998 17.5C7.53314 17.5 8.23317 17.4002 8.89984 17.2002C9.63317 16.9335 10.2332 16.6002 10.6998 16.2002C11.2998 15.8002 11.7332 15.3002 11.9998 14.7002C12.3331 14.1002 12.4998 13.4001 12.4998 12.6001C12.4998 12.0001 12.3998 11.4332 12.1998 10.8999C11.9998 10.4332 11.6998 10.0001 11.2998 9.6001C10.9665 9.2001 10.5665 8.86676 10.0998 8.6001C9.63313 8.33343 9.13313 8.0999 8.59979 7.8999C7.86646 7.63324 7.23316 7.4002 6.69983 7.2002C6.23316 7.0002 5.86646 6.76667 5.59979 6.5C5.33313 6.23333 5.19983 5.9 5.19983 5.5C5.19983 5.16667 5.33313 4.9002 5.59979 4.7002C5.86646 4.5002 6.26647 4.3999 6.7998 4.3999C7.1998 4.3999 7.56651 4.46676 7.89984 4.6001C8.23317 4.73343 8.56651 4.93353 8.89984 5.2002C9.16651 5.46686 9.39979 5.8002 9.59979 6.2002L12.4998 4.6001C12.2332 4.06676 11.8331 3.53333 11.2998 3C10.8331 2.53333 10.1998 2.13314 9.39984 1.7998C8.66651 1.3998 7.7998 1.2002 6.7998 1.2002C5.7998 1.2002 4.86648 1.3998 3.99982 1.7998C3.19982 2.13314 2.56646 2.63314 2.09979 3.2998C1.63313 3.96647 1.39984 4.73343 1.39984 5.6001C1.39984 6.4001 1.53314 7.06676 1.7998 7.6001C2.06647 8.13343 2.43317 8.56657 2.89984 8.8999C3.29984 9.2999 3.73316 9.63324 4.19983 9.8999C4.6665 10.0999 5.09982 10.2666 5.49982 10.3999C6.23315 10.6666 6.83314 10.9001 7.2998 11.1001C7.76647 11.3668 8.0998 11.6332 8.2998 11.8999C8.4998 12.0999 8.59979 12.3998 8.59979 12.7998C8.59979 13.2665 8.43313 13.6332 8.09979 13.8999C7.69979 14.1666 7.23316 14.2998 6.69983 14.2998C6.1665 14.2998 5.6665 14.2 5.19983 14C4.79983 13.8 4.39982 13.4667 3.99982 13C3.59982 12.6 3.23317 12.1334 2.89984 11.6001ZM18.7998 1.6001H14.9998V17H18.7998V1.6001ZM21.6998 1.6001V4.8999H27.7998L20.5998 17H32.8998V13.7998H26.4998L33.6998 1.6001H21.6998ZM42.2998 8.6001V11.3999H46.3998C46.2665 11.7999 46.0665 12.2001 45.7998 12.6001C45.5998 12.9334 45.3331 13.2333 44.9998 13.5C44.6665 13.7 44.2665 13.9001 43.7998 14.1001C43.3998 14.1668 42.8998 14.2002 42.2998 14.2002C41.4331 14.2002 40.6332 14.0335 39.8998 13.7002C39.2332 13.2335 38.6998 12.6332 38.2998 11.8999C37.8998 11.1666 37.6998 10.2998 37.6998 9.2998C37.6998 8.2998 37.8998 7.43353 38.2998 6.7002C38.6998 5.96686 39.2665 5.43343 39.9998 5.1001C40.6665 4.7001 41.4331 4.5 42.2998 4.5C43.2331 4.5 43.9665 4.7001 44.4998 5.1001C45.1665 5.5001 45.6665 6.0001 45.9998 6.6001L49.2998 4.8999C48.8331 4.16657 48.2332 3.53333 47.4998 3C46.8998 2.46667 46.1665 2.03353 45.2998 1.7002C44.4331 1.36686 43.4331 1.2002 42.2998 1.2002C41.0998 1.2002 39.9665 1.3998 38.8998 1.7998C37.8998 2.1998 36.9998 2.73324 36.1998 3.3999C35.3998 4.13324 34.7998 5 34.3998 6C33.9998 7 33.7998 8.0998 33.7998 9.2998C33.7998 10.4998 33.9998 11.6001 34.3998 12.6001C34.7998 13.6001 35.3665 14.4669 36.0998 15.2002C36.8998 15.9335 37.7998 16.4999 38.7998 16.8999C39.7998 17.2999 40.9332 17.5 42.1998 17.5C43.5332 17.5 44.6998 17.2665 45.6998 16.7998C46.6998 16.3331 47.5332 15.6999 48.1998 14.8999C48.8665 14.0332 49.3665 13.0667 49.6998 12C50.0332 10.9333 50.1665 9.8001 50.0998 8.6001H42.2998ZM54.5998 11.2002L54.2998 14H62.3998L62.1998 11.2002H54.5998ZM56.1998 12.2002L58.3998 7.2998L60.4998 12.2002L60.3998 13.2002L62.2998 17H66.4998L58.3998 0.600098L50.2998 17H54.4998L56.3998 13L56.1998 12.2002ZM87.6998 1.6001H83.0998L80.5998 6.1001L78.2998 1.6001H73.6998L78.3998 9.1001L73.0998 17H77.6998L80.5998 11.8999L83.3998 17H87.9998L82.8998 9.1001L87.6998 1.6001ZM93.4998 1.6001H89.6998V17H93.4998V1.6001ZM96.3998 1.6001V4.8999H102.5L95.2998 17H107.6V13.7998H101.2L108.4 1.6001H96.3998ZM113.5 17L114.4 9.2002L118.6 15.6001L122.8 9.2002L123.8 17H127.7L125.2 0.799805L118.6 10.2002L112.1 0.799805L109.6 17H113.5ZM132.7 11.2002L132.5 14H140.6L140.4 11.2002H132.7ZM134.3 12.2002L136.4 7.2998L138.6 12.2998L138.5 13.2002L140.3 17H144.5L136.4 0.600098L128.3 17H132.5L134.4 13.1001L134.3 12.2002ZM143.1 1.5V4.8999H147.4V16.8999H151.1V4.8999H155.3V1.5H143.1ZM166.7 9.2002C166.7 8.33353 166.867 7.53314 167.2 6.7998C167.6 6.13314 168.133 5.6002 168.8 5.2002C169.466 4.8002 170.233 4.6001 171.1 4.6001C172.1 4.6001 172.933 4.83314 173.6 5.2998C174.333 5.76647 174.867 6.36676 175.2 7.1001C175.6 7.9001 175.8 8.73343 175.8 9.6001C175.8 10.5334 175.6 11.3333 175.2 12C174.867 12.6667 174.367 13.2001 173.7 13.6001C173.033 13.9334 172.267 14.1001 171.4 14.1001C170.533 14.1001 169.733 13.9 169 13.5C168.266 13.1 167.7 12.5331 167.3 11.7998C166.9 11.0665 166.7 10.2002 166.7 9.2002ZM162.7 9.2002C162.7 10.4002 162.9 11.5 163.3 12.5C163.766 13.5 164.366 14.3668 165.1 15.1001C165.833 15.8334 166.7 16.3998 167.7 16.7998C168.766 17.1998 169.9 17.3999 171.1 17.3999C172.3 17.3999 173.4 17.1998 174.4 16.7998C175.4 16.3998 176.266 15.8334 177 15.1001C177.733 14.3668 178.3 13.5 178.7 12.5C179.1 11.5 179.3 10.4002 179.3 9.2002C179.3 8.0002 179.1 6.93333 178.7 6C178.3 5 177.733 4.13324 177 3.3999C176.266 2.66657 175.4 2.13314 174.4 1.7998C173.4 1.3998 172.3 1.2002 171.1 1.2002C169.9 1.2002 168.8 1.3998 167.8 1.7998C166.8 2.13314 165.9 2.66657 165.1 3.3999C164.366 4.13324 163.8 5 163.4 6C162.933 6.93333 162.7 8.0002 162.7 9.2002ZM173.7 10.2998H169.8L177.1 17.2002H181.1L173.7 10.2998ZM186.4 1.5H182.6V16.8999H186.4V1.5ZM193.4 1.5H189.6V16.8999H199.5V13.7002H193.4V1.5ZM205 1.5H201.3V16.8999H205V1.5ZM210 11.5L207.4 13.3999C207.733 14.1332 208.233 14.7999 208.9 15.3999C209.5 15.9999 210.233 16.4999 211.1 16.8999C211.966 17.2332 212.9 17.3999 213.9 17.3999C214.633 17.3999 215.333 17.3001 216 17.1001C216.666 16.8334 217.266 16.5001 217.8 16.1001C218.333 15.7001 218.766 15.2001 219.1 14.6001C219.433 14.0001 219.6 13.3 219.6 12.5C219.6 11.9 219.5 11.3331 219.3 10.7998C219.1 10.3331 218.8 9.9 218.4 9.5C218.067 9.1 217.666 8.76667 217.2 8.5C216.733 8.23333 216.233 7.9998 215.7 7.7998C214.966 7.53314 214.333 7.3001 213.8 7.1001C213.333 6.9001 212.933 6.66657 212.6 6.3999C212.333 6.13324 212.2 5.7999 212.2 5.3999C212.2 5.06657 212.367 4.8001 212.7 4.6001C212.966 4.4001 213.367 4.2998 213.9 4.2998C214.3 4.2998 214.666 4.36667 215 4.5C215.333 4.63333 215.633 4.83343 215.9 5.1001C216.233 5.36676 216.5 5.7001 216.7 6.1001L219.5 4.5C219.233 3.96667 218.867 3.43324 218.4 2.8999C217.867 2.43324 217.233 2.03353 216.5 1.7002C215.766 1.36686 214.866 1.2002 213.8 1.2002C212.8 1.2002 211.9 1.36686 211.1 1.7002C210.3 2.03353 209.666 2.53353 209.2 3.2002C208.733 3.86686 208.5 4.63333 208.5 5.5C208.5 6.3 208.633 6.96667 208.9 7.5C209.167 8.03333 209.5 8.4999 209.9 8.8999C210.367 9.23324 210.833 9.53314 211.3 9.7998C211.766 9.9998 212.2 10.1665 212.6 10.2998C213.333 10.5665 213.933 10.8334 214.4 11.1001C214.8 11.3001 215.1 11.5331 215.3 11.7998C215.566 11.9998 215.7 12.3002 215.7 12.7002C215.7 13.1669 215.5 13.5331 215.1 13.7998C214.766 14.0665 214.333 14.2002 213.8 14.2002C213.266 14.2002 212.766 14.0999 212.3 13.8999C211.833 13.6999 211.4 13.3666 211 12.8999C210.666 12.4999 210.333 12.0333 210 11.5ZM223.1 7.1001V10.5H234.7V7.1001H223.1ZM236.2 1.5H232.4V16.8999H236.2V1.5ZM225.8 1.5H222.1V16.8999H225.8V1.5ZM243.2 1.5H239.4V16.8999H243.2V1.5ZM241.8 16.8999H244.9C246.567 16.8999 248.033 16.6 249.3 16C250.5 15.3333 251.433 14.4331 252.1 13.2998C252.766 12.1665 253.1 10.8002 253.1 9.2002C253.1 7.6002 252.766 6.23343 252.1 5.1001C251.433 3.96676 250.5 3.06657 249.3 2.3999C248.033 1.7999 246.567 1.5 244.9 1.5H241.8V4.7998H244.8C245.333 4.7998 245.867 4.86667 246.4 5C247 5.13333 247.5 5.36686 247.9 5.7002C248.3 6.1002 248.633 6.56676 248.9 7.1001C249.167 7.63343 249.3 8.33353 249.3 9.2002C249.3 10.0669 249.167 10.7665 248.9 11.2998C248.633 11.8998 248.3 12.3669 247.9 12.7002C247.5 13.0335 247 13.2666 246.4 13.3999C245.867 13.5332 245.333 13.6001 244.8 13.6001H241.8V16.8999ZM257.5 11.1001L257.3 13.8999H265.4L265.2 11.1001H257.5ZM259.1 12.1001L261.2 7.2002L263.4 12.2002L263.3 13.1001L265.1 16.8999H269.3L261.2 0.5L253.1 16.8999H257.3L259.3 12.8999L259.1 12.1001ZM285.1 1.5H281.6V10.2002L270.9 0.700195V16.8999H274.5V8.2002L285.1 17.7002V1.5ZM298 16.8999L299 9L303.2 15.5L307.4 9L308.3 16.8999H312.2L309.7 0.700195L303.2 10.1001L296.6 0.700195L294.1 16.8999H298ZM317.3 11.1001L317 13.8999H325.1L324.9 11.1001H317.3ZM318.9 12.1001L321.1 7.1001L323.2 12.1001L323.1 13.1001L325 16.8999H329.2L321.1 0.5L313 16.8999H317.2L319.1 12.8999L318.9 12.1001ZM333.8 16.8999L334.7 9L338.9 15.5L343.2 9L344.1 16.8999H348L345.5 0.700195L338.9 10.1001L332.4 0.700195L329.9 16.8999H333.8ZM364.6 1.5H361V10.2002L350.4 0.700195V16.8999H353.9V8.2002L364.6 17.7002V1.5ZM371.4 1.5H367.7V11.7998C367.7 12.7998 367.866 13.6331 368.2 14.2998C368.533 15.0331 368.966 15.6334 369.5 16.1001C370.033 16.5668 370.7 16.9335 371.5 17.2002C372.233 17.4002 373.033 17.5 373.9 17.5C374.767 17.5 375.567 17.4002 376.3 17.2002C377.1 16.9335 377.767 16.5668 378.3 16.1001C378.833 15.6334 379.266 15.0331 379.6 14.2998C379.933 13.6331 380.1 12.7998 380.1 11.7998V1.5H376.4V11.5C376.4 12.3 376.2 12.9332 375.8 13.3999C375.333 13.9332 374.7 14.2002 373.9 14.2002C373.1 14.2002 372.466 13.9332 372 13.3999C371.6 12.9332 371.4 12.3 371.4 11.5V1.5ZM397.5 1.5H393.9V10.2002L383.2 0.799805V16.8999H386.8V8.2998L397.5 17.7002V1.5ZM403.7 16.8999L404.7 9.1001L408.9 15.5L413.1 9.1001L414 16.8999H417.9L415.4 0.700195L408.9 10.1001L402.3 0.700195L399.8 16.8999H403.7ZM424.1 1.5H420.3V16.8999H424.1V1.5ZM427 1.5V4.7998H433.1L425.9 16.8999H438.2V13.7002H431.8L439 1.5H427Z" fill="#005FFD"/>
</svg>
