<svg width="61" height="16" viewBox="0 0 61 16" fill="none" xmlns="http://www.w3.org/2000/svg">
<path d="M4.20038 7.19922C2.93371 6.86589 2.0337 6.46593 1.50037 5.99927C0.967033 5.46593 0.700378 4.8327 0.700378 4.09937C0.700378 3.2327 1.03371 2.5326 1.70038 1.99927C2.36705 1.46593 3.23369 1.19922 4.30035 1.19922C5.03369 1.19922 5.70035 1.3327 6.30035 1.59937C6.83369 1.86603 7.26701 2.26598 7.60034 2.79932C7.93368 3.26598 8.10034 3.79917 8.10034 4.39917H6.70038C6.70038 3.79917 6.50034 3.29917 6.10034 2.89917C5.63368 2.49917 5.03369 2.29932 4.30035 2.29932C3.63369 2.29932 3.10038 2.46598 2.70038 2.79932C2.30038 3.13265 2.10034 3.56603 2.10034 4.09937C2.10034 4.49937 2.30038 4.86589 2.70038 5.19922C3.03371 5.46589 3.66701 5.7326 4.60034 5.99927C5.46701 6.26593 6.13368 6.53265 6.60034 6.79932C7.13368 7.13265 7.50038 7.49917 7.70038 7.89917C7.96705 8.29917 8.10034 8.76598 8.10034 9.29932C8.10034 10.166 7.76701 10.8658 7.10034 11.3992C6.43368 11.8658 5.53372 12.0994 4.40039 12.0994C3.66706 12.0994 2.96702 11.9659 2.30035 11.6992C1.70035 11.4326 1.23372 11.066 0.900391 10.5994C0.567057 10.066 0.400391 9.49917 0.400391 8.89917H1.80035C1.80035 9.56584 2.0337 10.0658 2.50037 10.3992C2.96703 10.7992 3.60039 10.9993 4.40039 10.9993C5.13372 10.9993 5.70034 10.8326 6.10034 10.4993C6.50034 10.2326 6.70038 9.83265 6.70038 9.29932C6.70038 8.76598 6.53371 8.36603 6.20038 8.09937C5.80038 7.8327 5.13371 7.53255 4.20038 7.19922ZM16.4004 7.99927V8.09937C16.4004 9.29937 16.1337 10.2659 15.6003 10.9993C15.0003 11.7326 14.2337 12.0994 13.3004 12.0994C12.367 12.0994 11.6337 11.7992 11.1003 11.1992V14.9993H9.70038V4.09937H10.9004L11.0004 4.99927C11.5337 4.26593 12.3004 3.89917 13.3004 3.89917C14.2337 3.89917 15.0003 4.26593 15.6003 4.99927C16.1337 5.7326 16.4004 6.7326 16.4004 7.99927ZM15.0004 7.99927C15.0004 7.06593 14.8337 6.36584 14.5004 5.89917C14.1004 5.36584 13.5671 5.09937 12.9004 5.09937C12.1004 5.09937 11.5003 5.46589 11.1003 6.19922V9.99927C11.5003 10.6659 12.1004 10.9993 12.9004 10.9993C13.5671 10.9993 14.1004 10.766 14.5004 10.2993C14.8337 9.76598 15.0004 8.99927 15.0004 7.99927ZM21.4004 12.0994C20.3337 12.0994 19.467 11.766 18.8004 11.0994C18.1337 10.366 17.8004 9.43265 17.8004 8.29932V7.99927C17.8004 7.19927 17.9337 6.49917 18.2004 5.89917C18.5337 5.29917 18.967 4.8326 19.5004 4.49927C20.0337 4.09927 20.6004 3.89917 21.2004 3.89917C22.267 3.89917 23.067 4.2325 23.6003 4.89917C24.2003 5.6325 24.5004 6.6325 24.5004 7.89917V8.39917H19.1003C19.167 9.19917 19.4004 9.83265 19.8004 10.2993C20.267 10.766 20.8337 10.9993 21.5004 10.9993C21.967 10.9993 22.367 10.8992 22.7004 10.6992C23.0337 10.5659 23.3337 10.3326 23.6003 9.99927L24.4004 10.5994C23.7337 11.5994 22.7337 12.0994 21.4004 12.0994ZM21.2004 4.99927C20.667 4.99927 20.2337 5.19937 19.9004 5.59937C19.5004 5.99937 19.267 6.56598 19.2004 7.29932H23.1003V7.19922C23.1003 6.53255 22.9337 5.99937 22.6003 5.59937C22.267 5.19937 21.8004 4.99927 21.2004 4.99927ZM32.4004 11.9993H31.0004C30.867 11.8659 30.8004 11.5992 30.8004 11.1992C30.1337 11.7992 29.367 12.0994 28.5004 12.0994C27.7004 12.0994 27.067 11.8993 26.6003 11.4993C26.067 11.0326 25.8004 10.466 25.8004 9.79932C25.8004 8.99932 26.1337 8.36584 26.8004 7.89917C27.4004 7.4325 28.2671 7.19922 29.4004 7.19922H30.7004V6.59937C30.7004 6.1327 30.567 5.7325 30.3004 5.39917C30.0337 5.1325 29.6337 4.99927 29.1003 4.99927C28.567 4.99927 28.1671 5.1325 27.9004 5.39917C27.5671 5.66584 27.4004 5.96598 27.4004 6.29932H26.0004C26.0004 5.89932 26.1337 5.49937 26.4004 5.09937C26.6671 4.76603 27.067 4.49932 27.6003 4.29932C28.067 4.03265 28.567 3.89917 29.1003 3.89917C30.0337 3.89917 30.767 4.1327 31.3004 4.59937C31.8337 5.06603 32.1003 5.69927 32.1003 6.49927V10.0994C32.1003 10.8327 32.2004 11.4325 32.4004 11.8992V11.9993ZM28.7004 10.9993C29.1004 10.9993 29.5004 10.866 29.9004 10.5994C30.3004 10.3994 30.567 10.1326 30.7004 9.79932V8.09937H29.7004C28.0337 8.09937 27.2004 8.59937 27.2004 9.59937C27.2004 9.99936 27.3337 10.3327 27.6003 10.5994C27.867 10.866 28.2337 10.9993 28.7004 10.9993ZM39.2004 11.9993L36.4004 8.29932L35.6003 9.19922V11.9993H34.2004V0.699219H35.6003V7.49927L36.3004 6.69922L38.8004 4.09937H40.4004L37.3004 7.39917L40.8004 11.9993H39.2004ZM43.3004 4.09937V11.9993H41.9004V4.09937H43.3004ZM41.9004 1.99927C41.9004 1.7326 41.967 1.5325 42.1003 1.39917C42.2337 1.26584 42.4337 1.19922 42.7004 1.19922C42.967 1.19922 43.167 1.26584 43.3004 1.39917C43.4337 1.5325 43.5004 1.7326 43.5004 1.99927C43.5004 2.19927 43.4337 2.36593 43.3004 2.49927C43.167 2.6326 42.967 2.69922 42.7004 2.69922C42.4337 2.69922 42.2337 2.6326 42.1003 2.49927C41.967 2.36593 41.9004 2.19927 41.9004 1.99927ZM45.5004 4.09937H46.8004V5.09937C47.4004 4.29937 48.2004 3.89917 49.2004 3.89917C50.867 3.89917 51.7004 4.83255 51.7004 6.69922V11.9993H50.4004V6.69922C50.4004 6.16589 50.267 5.76593 50.0004 5.49927C49.7337 5.2326 49.3337 5.09937 48.8004 5.09937C48.3337 5.09937 47.9337 5.19917 47.6003 5.39917C47.267 5.66584 47.0337 5.96598 46.9004 6.29932V11.9993H45.5004V4.09937ZM53.5004 7.99927C53.5004 6.7326 53.767 5.7326 54.3004 4.99927C54.9004 4.26593 55.667 3.89917 56.6003 3.89917C57.5337 3.89917 58.267 4.26593 58.8004 4.99927L58.9004 4.09937H60.1003V11.7993C60.1003 12.866 59.8004 13.6659 59.2004 14.1992C58.6004 14.7992 57.8004 15.0994 56.8004 15.0994C56.2004 15.0994 55.6337 14.9993 55.1003 14.7993C54.567 14.5326 54.1671 14.1993 53.9004 13.7993L54.6003 12.8992C55.1337 13.6325 55.8337 13.9993 56.7004 13.9993C57.367 13.9993 57.867 13.8326 58.2004 13.4993C58.6004 13.0993 58.8004 12.5658 58.8004 11.8992V11.1992C58.267 11.8659 57.5337 12.1992 56.6003 12.1992C55.667 12.1992 54.9004 11.7993 54.3004 10.9993C53.767 10.2659 53.5004 9.26593 53.5004 7.99927ZM54.8004 8.09937C54.8004 9.0327 55.0004 9.73255 55.4004 10.1992C55.7337 10.7326 56.2337 10.9993 56.9004 10.9993C57.7671 10.9993 58.4004 10.5993 58.8004 9.79932V6.19922C58.4004 5.46589 57.7671 5.09937 56.9004 5.09937C56.2337 5.09937 55.7337 5.36584 55.4004 5.89917C55.0004 6.36584 54.8004 7.09937 54.8004 8.09937Z" fill="white"/>
</svg>
