<svg width="99" height="21" viewBox="0 0 99 21" fill="none" xmlns="http://www.w3.org/2000/svg">
<path d="M3.80035 13.8999L0.900391 16C1.30039 16.8 1.86701 17.5665 2.60034 18.2998C3.26701 18.9665 4.10034 19.5333 5.10034 20C6.10034 20.4 7.16702 20.6001 8.30035 20.6001C9.10035 20.6001 9.86701 20.4669 10.6003 20.2002C11.4003 19.9335 12.1004 19.5668 12.7004 19.1001C13.3004 18.6334 13.8004 18.0666 14.2004 17.3999C14.5337 16.7332 14.7004 15.9333 14.7004 15C14.7004 14.2667 14.6004 13.6334 14.4004 13.1001C14.1337 12.5001 13.8004 12.0001 13.4004 11.6001C13.0004 11.1334 12.5337 10.7667 12.0004 10.5C11.467 10.1667 10.9004 9.9002 10.3004 9.7002C9.43369 9.36686 8.73371 9.0999 8.20038 8.8999C7.60038 8.63324 7.13369 8.33333 6.80035 8C6.53369 7.73333 6.40039 7.4 6.40039 7C6.40039 6.6 6.56706 6.26667 6.90039 6C7.16706 5.73333 7.60038 5.6001 8.20038 5.6001C8.66705 5.6001 9.10037 5.6999 9.50037 5.8999C9.90037 6.0999 10.267 6.33343 10.6003 6.6001C10.9337 6.93343 11.2004 7.3002 11.4004 7.7002L14.7004 5.8999C14.367 5.2999 13.9337 4.7001 13.4004 4.1001C12.8004 3.56676 12.067 3.1002 11.2004 2.7002C10.3337 2.3002 9.33371 2.1001 8.20038 2.1001C7.06705 2.1001 6.03368 2.3002 5.10034 2.7002C4.16701 3.1002 3.43372 3.66657 2.90039 4.3999C2.36706 5.13324 2.10034 6.03343 2.10034 7.1001C2.10034 7.96676 2.26701 8.6998 2.60034 9.2998C2.86701 9.89981 3.26702 10.4332 3.80035 10.8999C4.26702 11.2999 4.76702 11.6332 5.30035 11.8999C5.83369 12.1666 6.30038 12.3667 6.70038 12.5C7.56705 12.8333 8.26702 13.1332 8.80035 13.3999C9.33369 13.5999 9.70039 13.8334 9.90039 14.1001C10.1671 14.4334 10.3004 14.8002 10.3004 15.2002C10.3004 15.7335 10.1004 16.1667 9.70038 16.5C9.30038 16.8333 8.76701 17 8.10034 17C7.56701 17 7.0337 16.8668 6.50037 16.6001C5.96703 16.3334 5.46703 15.9667 5.00037 15.5C4.60037 15.0333 4.20035 14.4999 3.80035 13.8999ZM23.5004 8.5H15.8004V11.6001H23.5004V8.5ZM21.5004 4.5H17.8004V20H21.5004V4.5ZM28.0004 16.3999C28.0004 16.1332 28.067 15.9002 28.2004 15.7002C28.3337 15.5002 28.5337 15.3665 28.8004 15.2998C29.067 15.1665 29.4337 15.1001 29.9004 15.1001C30.5004 15.1001 31.067 15.1999 31.6003 15.3999C32.1337 15.5332 32.6004 15.7333 33.0004 16V14.3999C32.8004 14.1332 32.5003 13.9331 32.1003 13.7998C31.7003 13.5998 31.2003 13.4331 30.6003 13.2998C30.067 13.0998 29.4337 13 28.7004 13C27.3004 13 26.2004 13.3333 25.4004 14C24.6004 14.6667 24.2004 15.5334 24.2004 16.6001C24.2004 17.4001 24.4004 18.0668 24.8004 18.6001C25.2004 19.2001 25.7004 19.6332 26.3004 19.8999C26.9004 20.1666 27.567 20.2998 28.3004 20.2998C29.0337 20.2998 29.7337 20.1666 30.4004 19.8999C31.0004 19.6332 31.5004 19.2665 31.9004 18.7998C32.3004 18.2665 32.5004 17.6332 32.5004 16.8999L32.1003 15.3999C32.1003 15.9332 32.0004 16.3669 31.8004 16.7002C31.5337 17.1002 31.2337 17.3667 30.9004 17.5C30.5004 17.7 30.1004 17.7998 29.7004 17.7998C29.367 17.7998 29.1004 17.7669 28.9004 17.7002C28.6337 17.5669 28.4337 17.4002 28.3004 17.2002C28.1004 17.0002 28.0004 16.7332 28.0004 16.3999ZM25.1003 9.5L26.4004 12.1001C26.5337 11.9668 26.8004 11.8335 27.2004 11.7002C27.5337 11.5002 27.9337 11.3665 28.4004 11.2998C28.9337 11.1665 29.467 11.1001 30.0004 11.1001C30.3337 11.1001 30.6337 11.1335 30.9004 11.2002C31.1671 11.2669 31.4003 11.3667 31.6003 11.5C31.8003 11.6333 31.9337 11.8334 32.0004 12.1001C32.067 12.3001 32.1003 12.5331 32.1003 12.7998V20H35.8004V11.8999C35.8004 11.0999 35.567 10.4332 35.1003 9.8999C34.6337 9.36657 34.0004 8.96686 33.2004 8.7002C32.4004 8.36686 31.4671 8.2002 30.4004 8.2002C29.3337 8.2002 28.3337 8.33343 27.4004 8.6001C26.5337 8.86676 25.767 9.16667 25.1003 9.5ZM46.1003 13V20H50.0004V12.6001C50.0004 11.2001 49.667 10.1332 49.0004 9.3999C48.3337 8.66657 47.3004 8.2998 45.9004 8.2998C45.0337 8.2998 44.3004 8.46647 43.7004 8.7998C43.167 9.13314 42.7337 9.63314 42.4004 10.2998V8.5H38.6003V20H42.4004V13C42.4004 12.6 42.467 12.2332 42.6003 11.8999C42.8003 11.5666 43.0337 11.3335 43.3004 11.2002C43.6337 11.0002 44.0004 10.8999 44.4004 10.8999C45.0004 10.8999 45.4337 11.1 45.7004 11.5C45.967 11.8333 46.1003 12.3333 46.1003 13ZM65.5004 0.5H61.7004V20H65.5004V0.5ZM52.3004 14.2998C52.3004 15.5665 52.567 16.6333 53.1003 17.5C53.6337 18.4333 54.3003 19.1334 55.1003 19.6001C55.967 20.0668 56.867 20.2998 57.8004 20.2998C58.7337 20.2998 59.567 20.0333 60.3004 19.5C61.0337 19.0333 61.6337 18.3667 62.1003 17.5C62.5003 16.5667 62.7004 15.4998 62.7004 14.2998C62.7004 13.0331 62.5003 11.9668 62.1003 11.1001C61.6337 10.1668 61.0337 9.46667 60.3004 9C59.567 8.53333 58.7337 8.2998 57.8004 8.2998C56.867 8.2998 55.967 8.53333 55.1003 9C54.3003 9.46667 53.6337 10.1333 53.1003 11C52.567 11.8667 52.3004 12.9665 52.3004 14.2998ZM56.3004 14.2998C56.3004 13.6998 56.4003 13.1669 56.6003 12.7002C56.867 12.3002 57.2003 11.9669 57.6003 11.7002C58.067 11.4335 58.5337 11.2998 59.0004 11.2998C59.467 11.2998 59.9004 11.4335 60.3004 11.7002C60.7004 11.9002 61.0337 12.2335 61.3004 12.7002C61.567 13.1669 61.7004 13.6998 61.7004 14.2998C61.7004 14.8998 61.567 15.4332 61.3004 15.8999C61.0337 16.2999 60.7004 16.6332 60.3004 16.8999C59.9004 17.0999 59.467 17.2002 59.0004 17.2002C58.5337 17.2002 58.067 17.0999 57.6003 16.8999C57.2003 16.6332 56.867 16.2999 56.6003 15.8999C56.4003 15.4332 56.3004 14.8998 56.3004 14.2998ZM71.3004 16.3999C71.3004 16.1332 71.367 15.9002 71.5004 15.7002C71.6337 15.5002 71.8337 15.3665 72.1003 15.2998C72.367 15.1665 72.7337 15.1001 73.2004 15.1001C73.8004 15.1001 74.3337 15.1999 74.8004 15.3999C75.3337 15.5332 75.8004 15.7333 76.2004 16V14.3999C76.0004 14.1999 75.7004 13.9998 75.3004 13.7998C74.9004 13.5998 74.4337 13.4331 73.9004 13.2998C73.3671 13.0998 72.7337 13 72.0004 13C70.6004 13 69.5004 13.3333 68.7004 14C67.9004 14.6667 67.5004 15.5334 67.5004 16.6001C67.5004 17.4001 67.7003 18.0668 68.1003 18.6001C68.4337 19.2001 68.9337 19.6332 69.6003 19.8999C70.2003 20.1666 70.867 20.2998 71.6003 20.2998C72.3337 20.2998 73.0337 20.1666 73.7004 19.8999C74.3004 19.6332 74.8004 19.2665 75.2004 18.7998C75.6004 18.2665 75.8004 17.6332 75.8004 16.8999L75.4004 15.3999C75.4004 15.9332 75.3003 16.3669 75.1003 16.7002C74.8337 17.1002 74.5337 17.3667 74.2004 17.5C73.8004 17.7 73.4004 17.7998 73.0004 17.7998C72.667 17.7998 72.367 17.7669 72.1003 17.7002C71.9003 17.5669 71.7004 17.4002 71.5004 17.2002C71.367 17.0002 71.3004 16.7332 71.3004 16.3999ZM68.4004 9.5L69.6003 12.1001C69.8003 11.9668 70.0671 11.8335 70.4004 11.7002C70.8004 11.5002 71.2337 11.3665 71.7004 11.2998C72.2337 11.1665 72.7337 11.1001 73.2004 11.1001C73.6004 11.1001 73.9337 11.1335 74.2004 11.2002C74.467 11.2669 74.7004 11.3667 74.9004 11.5C75.0337 11.6333 75.167 11.8334 75.3004 12.1001C75.367 12.3001 75.4004 12.5331 75.4004 12.7998V20H79.0004V11.8999C79.0004 11.0999 78.767 10.4332 78.3004 9.8999C77.8337 9.36657 77.2004 8.96686 76.4004 8.7002C75.6004 8.36686 74.7004 8.2002 73.7004 8.2002C72.6337 8.2002 71.6337 8.33343 70.7004 8.6001C69.767 8.86676 69.0004 9.16667 68.4004 9.5ZM85.6003 20V8.5H81.9004V20H85.6003ZM88.9004 12.3999L90.5004 9.2002C90.3004 8.93353 90.0003 8.7 89.6003 8.5C89.267 8.36667 88.8671 8.2998 88.4004 8.2998C87.8004 8.2998 87.2003 8.4999 86.6003 8.8999C86.0003 9.2999 85.5337 9.86676 85.2004 10.6001C84.867 11.3334 84.7004 12.1333 84.7004 13L85.6003 14.3999C85.6003 13.7999 85.667 13.3333 85.8004 13C85.9337 12.6 86.1337 12.3001 86.4004 12.1001C86.7337 11.9001 87.0671 11.7998 87.4004 11.7998C87.7337 11.7998 88.0004 11.8667 88.2004 12C88.467 12.0667 88.7004 12.1999 88.9004 12.3999ZM98.5004 8.5H90.8004V11.7002H98.5004V8.5ZM96.4004 4.5H92.8004V20H96.4004V4.5Z" fill="#202020"/>
</svg>
