<svg width="377" height="21" viewBox="0 0 377 21" fill="none" xmlns="http://www.w3.org/2000/svg">
<path d="M3.5 13.8999L0.5 16C0.9 16.8 1.46662 17.5665 2.19995 18.2998C2.93328 18.9665 3.76662 19.5333 4.69995 20C5.69995 20.4 6.76669 20.6001 7.90002 20.6001C8.70002 20.6001 9.50005 20.4669 10.3 20.2002C11.1 19.9335 11.8 19.5668 12.4 19.1001C13 18.6334 13.4667 18.0666 13.8 17.3999C14.2 16.7332 14.4 15.9333 14.4 15C14.4 14.2667 14.2667 13.6334 14 13.1001C13.8 12.5001 13.4667 12.0001 13 11.6001C12.6 11.1334 12.1333 10.7667 11.6 10.5C11.0666 10.1667 10.5 9.9002 9.90002 9.7002C9.10002 9.36686 8.40005 9.0999 7.80005 8.8999C7.26672 8.63324 6.83333 8.33333 6.5 8C6.16667 7.73333 6 7.4 6 7C6 6.6 6.16667 6.26667 6.5 6C6.83333 5.73333 7.30002 5.6001 7.90002 5.6001C8.36669 5.6001 8.76664 5.6999 9.09998 5.8999C9.49998 6.0999 9.86662 6.33343 10.2 6.6001C10.5333 6.93343 10.8333 7.3002 11.1 7.7002L14.3 5.8999C14.0334 5.2999 13.6 4.7001 13 4.1001C12.4667 3.56676 11.7667 3.1002 10.9 2.7002C10.0334 2.3002 9.00005 2.1001 7.80005 2.1001C6.66672 2.1001 5.63328 2.3002 4.69995 2.7002C3.83328 3.1002 3.1 3.66657 2.5 4.3999C1.96667 5.13324 1.69995 6.03343 1.69995 7.1001C1.69995 7.96676 1.86662 8.6998 2.19995 9.2998C2.53328 9.89981 2.93336 10.4332 3.40002 10.8999C3.86669 11.2999 4.36669 11.6332 4.90002 11.8999C5.50002 12.1666 6.00002 12.3667 6.40002 12.5C7.26669 12.8333 7.93336 13.1332 8.40002 13.3999C8.93336 13.5999 9.33331 13.8334 9.59998 14.1001C9.79998 14.4334 9.90002 14.8002 9.90002 15.2002C9.90002 15.7335 9.70005 16.1667 9.30005 16.5C8.90005 16.8333 8.40005 17 7.80005 17C7.20005 17 6.63331 16.8668 6.09998 16.6001C5.56664 16.3334 5.09995 15.9667 4.69995 15.5C4.23328 15.0333 3.83333 14.4999 3.5 13.8999ZM23.2 8.5H15.5V11.6001H23.2V8.5ZM21.1 4.5H17.5V20H21.1V4.5ZM28.5 20V8.5H24.8V20H28.5ZM31.8 12.3999L33.4 9.2002C33.2 8.93353 32.9 8.7 32.5 8.5C32.1667 8.36667 31.7667 8.2998 31.3 8.2998C30.7 8.2998 30.1 8.4999 29.5 8.8999C28.9 9.2999 28.4333 9.86676 28.1 10.6001C27.7666 11.3334 27.6 12.1333 27.6 13L28.5 14.3999C28.5 13.7999 28.5666 13.3333 28.7 13C28.8333 12.6 29.0334 12.3001 29.3 12.1001C29.6334 11.9001 29.9667 11.7998 30.3 11.7998C30.6334 11.7998 30.9 11.8667 31.1 12C31.3666 12.0667 31.6 12.1999 31.8 12.3999ZM40.5 20.2998C41.9667 20.2998 43.2 19.9999 44.2 19.3999C45.2666 18.8666 46.1 18.0332 46.7 16.8999L43.3 16C43.0334 16.5333 42.6333 16.9335 42.1 17.2002C41.6333 17.4002 41.0667 17.5 40.4 17.5C39.8667 17.5 39.4 17.4002 39 17.2002C38.6 16.9335 38.3 16.5333 38.1 16C37.9 15.5333 37.8 14.9335 37.8 14.2002C37.8 13.4669 37.9 12.8331 38.1 12.2998C38.3 11.7665 38.5667 11.4002 38.9 11.2002C39.3 10.9335 39.8 10.7998 40.4 10.7998C40.8 10.7998 41.1667 10.9001 41.5 11.1001C41.8333 11.3001 42.1 11.6 42.3 12C42.5 12.3333 42.6 12.7665 42.6 13.2998C42.6 13.3665 42.5667 13.5002 42.5 13.7002C42.4333 13.9002 42.3667 14.0334 42.3 14.1001L43.2 13H36.1V15.1001H46.6C46.6 14.9668 46.6 14.8335 46.6 14.7002C46.6 14.5002 46.6 14.3001 46.6 14.1001C46.6 12.9001 46.3667 11.8667 45.9 11C45.4334 10.1333 44.7334 9.46667 43.8 9C42.8667 8.53333 41.7334 8.2998 40.4 8.2998C39.0667 8.2998 37.9333 8.53333 37 9C36 9.46667 35.2333 10.1668 34.7 11.1001C34.2333 11.9668 34 13.0331 34 14.2998C34 15.4998 34.2667 16.5667 34.8 17.5C35.3334 18.3667 36.0667 19.0333 37 19.5C38 20.0333 39.1667 20.2998 40.5 20.2998ZM54.8 20.2998C56.2667 20.2998 57.5 19.9999 58.5 19.3999C59.5667 18.8666 60.4 18.0332 61 16.8999L57.6 16C57.3333 16.5333 56.9667 16.9335 56.5 17.2002C56.0333 17.4002 55.4667 17.5 54.8 17.5C54.2001 17.5 53.7001 17.4002 53.3 17.2002C52.9 16.9335 52.6 16.5333 52.4 16C52.2 15.5333 52.1 14.9335 52.1 14.2002C52.1 13.4669 52.2 12.8331 52.4 12.2998C52.6 11.7665 52.9 11.4002 53.3 11.2002C53.6334 10.9335 54.1 10.7998 54.7 10.7998C55.1666 10.7998 55.5667 10.9001 55.9 11.1001C56.2334 11.3001 56.4666 11.6 56.6 12C56.8 12.3333 56.9 12.7665 56.9 13.2998C56.9 13.3665 56.8667 13.5002 56.8 13.7002C56.7334 13.9002 56.6666 14.0334 56.6 14.1001L57.5 13H50.4V15.1001H60.9C60.9667 14.9668 61 14.8335 61 14.7002C61 14.5002 61 14.3001 61 14.1001C61 12.9001 60.7333 11.8667 60.2 11C59.7333 10.1333 59.0333 9.46667 58.1 9C57.2333 8.53333 56.1334 8.2998 54.8 8.2998C53.4667 8.2998 52.3 8.53333 51.3 9C50.3 9.46667 49.5666 10.1668 49.1 11.1001C48.5666 11.9668 48.3 13.0331 48.3 14.2998C48.3 15.4998 48.5666 16.5667 49.1 17.5C49.6333 18.3667 50.3667 19.0333 51.3 19.5C52.3 20.0333 53.4667 20.2998 54.8 20.2998ZM69.6 8.5H61.9V11.7002H69.6V8.5ZM67.6 4.5H64V20H67.6V4.5ZM83.3 2.5H79.1V20H83.3V2.5ZM81.8 2.5V5.8999H85.2C86.0666 5.8999 86.7333 6.1 87.2 6.5C87.6666 6.9 87.9 7.46686 87.9 8.2002C87.9 8.93353 87.6666 9.46647 87.2 9.7998C86.7333 10.1998 86.0666 10.3999 85.2 10.3999H81.8V13.8999H85.2C86.6666 13.8999 87.9 13.6669 88.9 13.2002C89.9 12.7335 90.6666 12.0669 91.2 11.2002C91.7333 10.3335 92 9.33353 92 8.2002C92 7.0002 91.7333 5.96676 91.2 5.1001C90.6666 4.23343 89.9 3.6002 88.9 3.2002C87.9 2.73353 86.6666 2.5 85.2 2.5H81.8ZM99.4 20.2002C100.867 20.2002 102.133 19.9332 103.2 19.3999C104.2 18.7999 105 17.9331 105.6 16.7998L102.2 16C101.933 16.4667 101.567 16.8334 101.1 17.1001C100.633 17.3668 100.067 17.5 99.4 17.5C98.8 17.5 98.3 17.3668 97.9 17.1001C97.5 16.8334 97.2 16.4667 97 16C96.8 15.4667 96.7 14.8669 96.7 14.2002C96.7 13.4002 96.8 12.7665 97 12.2998C97.2 11.7665 97.5 11.3668 97.9 11.1001C98.3 10.8334 98.7667 10.7002 99.3 10.7002C99.7667 10.7002 100.167 10.8 100.5 11C100.833 11.2 101.1 11.4999 101.3 11.8999C101.433 12.2332 101.5 12.6669 101.5 13.2002C101.5 13.3335 101.467 13.4668 101.4 13.6001C101.4 13.8001 101.333 13.9668 101.2 14.1001L102.1 12.8999H95V15H105.5C105.567 14.8667 105.6 14.7334 105.6 14.6001C105.6 14.4001 105.6 14.2 105.6 14C105.6 12.8 105.367 11.7666 104.9 10.8999C104.367 10.0332 103.667 9.36657 102.8 8.8999C101.867 8.43324 100.733 8.2002 99.4 8.2002C98.0667 8.2002 96.9 8.43324 95.9 8.8999C94.9667 9.43324 94.2333 10.1333 93.7 11C93.1666 11.9333 92.9 13.0002 92.9 14.2002C92.9 15.4002 93.1666 16.4666 93.7 17.3999C94.2333 18.2666 95 18.9667 96 19.5C96.9333 19.9667 98.0667 20.2002 99.4 20.2002ZM111.6 20V8.5H107.9V20H111.6ZM114.9 12.2998L116.6 9.1001C116.4 8.83343 116.1 8.5999 115.7 8.3999C115.3 8.26657 114.9 8.2002 114.5 8.2002C113.833 8.2002 113.233 8.39981 112.7 8.7998C112.1 9.1998 111.6 9.76667 111.2 10.5C110.867 11.2333 110.7 12.0667 110.7 13L111.6 14.2998C111.6 13.7665 111.667 13.2999 111.8 12.8999C112 12.4999 112.233 12.2 112.5 12C112.767 11.8 113.1 11.7002 113.5 11.7002C113.833 11.7002 114.1 11.7666 114.3 11.8999C114.5 12.0332 114.7 12.1999 114.9 12.3999V12.2998ZM125 8.3999H117.1V11.5H125V8.3999ZM124.6 4L126.1 1.2002C125.9 1.06686 125.667 0.900195 125.4 0.700195C125.133 0.500195 124.8 0.333529 124.4 0.200195C124 0.066862 123.5 0 122.9 0C121.967 0 121.167 0.166667 120.5 0.5C119.9 0.833333 119.433 1.2999 119.1 1.8999C118.767 2.4999 118.6 3.23343 118.6 4.1001V19.8999H122.2V5.1001C122.2 4.7001 122.267 4.36676 122.4 4.1001C122.467 3.83343 122.6 3.66676 122.8 3.6001C122.933 3.46676 123.133 3.3999 123.4 3.3999C123.6 3.3999 123.8 3.43333 124 3.5C124.2 3.63333 124.4 3.8 124.6 4ZM126.1 14.1001C126.1 15.3001 126.367 16.3665 126.9 17.2998C127.5 18.1665 128.3 18.8666 129.3 19.3999C130.3 19.8666 131.433 20.1001 132.7 20.1001C133.9 20.1001 135 19.8666 136 19.3999C137 18.8666 137.8 18.1665 138.4 17.2998C138.933 16.3665 139.2 15.3001 139.2 14.1001C139.2 12.9001 138.933 11.8667 138.4 11C137.8 10.0667 137 9.36657 136 8.8999C135 8.36657 133.9 8.1001 132.7 8.1001C131.433 8.1001 130.3 8.36657 129.3 8.8999C128.3 9.36657 127.5 10.0667 126.9 11C126.367 11.8667 126.1 12.9001 126.1 14.1001ZM130 14.1001C130 13.5001 130.1 13.0001 130.3 12.6001C130.567 12.1334 130.9 11.8001 131.3 11.6001C131.7 11.3334 132.167 11.2002 132.7 11.2002C133.167 11.2002 133.6 11.3334 134 11.6001C134.4 11.8001 134.733 12.1334 135 12.6001C135.2 13.0001 135.3 13.5001 135.3 14.1001C135.3 14.7001 135.2 15.2335 135 15.7002C134.733 16.1002 134.4 16.4335 134 16.7002C133.6 16.9002 133.167 17 132.7 17C132.167 17 131.7 16.9002 131.3 16.7002C130.9 16.4335 130.567 16.1002 130.3 15.7002C130.1 15.2335 130 14.7001 130 14.1001ZM145.2 19.8999V8.3999H141.5V19.8999H145.2ZM148.5 12.2998L150.1 9.1001C149.9 8.76676 149.633 8.53324 149.3 8.3999C148.9 8.1999 148.5 8.1001 148.1 8.1001C147.433 8.1001 146.8 8.3002 146.2 8.7002C145.667 9.16686 145.2 9.73324 144.8 10.3999C144.467 11.1332 144.3 11.9666 144.3 12.8999L145.2 14.2002C145.2 13.6669 145.267 13.1998 145.4 12.7998C145.533 12.3998 145.767 12.0999 146.1 11.8999C146.367 11.6999 146.667 11.6001 147 11.6001C147.333 11.6001 147.633 11.6665 147.9 11.7998C148.1 11.9331 148.3 12.0998 148.5 12.2998ZM169.3 19.8999V12.5C169.3 11.5667 169.167 10.7668 168.9 10.1001C168.7 9.43343 168.333 8.93343 167.8 8.6001C167.267 8.26676 166.567 8.1001 165.7 8.1001C164.9 8.1001 164.2 8.26676 163.6 8.6001C162.933 8.93343 162.4 9.4 162 10C161.8 9.4 161.433 8.93343 160.9 8.6001C160.367 8.26676 159.633 8.1001 158.7 8.1001C157.9 8.1001 157.233 8.26676 156.7 8.6001C156.167 9.0001 155.733 9.5001 155.4 10.1001V8.3999H151.7V19.8999H155.4V12.8999C155.4 12.4332 155.467 12.0335 155.6 11.7002C155.733 11.3669 155.933 11.1333 156.2 11C156.467 10.8667 156.767 10.7998 157.1 10.7998C157.633 10.7998 158 10.9665 158.2 11.2998C158.4 11.6331 158.5 12.1666 158.5 12.8999V19.8999H162.3V12.8999C162.3 12.4332 162.367 12.0335 162.5 11.7002C162.7 11.3669 162.9 11.1333 163.1 11C163.367 10.8667 163.667 10.7998 164 10.7998C164.533 10.7998 164.9 10.9665 165.1 11.2998C165.367 11.6331 165.5 12.1666 165.5 12.8999V19.8999H169.3ZM175.2 16.2998C175.2 16.0331 175.267 15.8001 175.4 15.6001C175.533 15.4001 175.733 15.2334 176 15.1001C176.267 15.0334 176.6 15 177 15C177.6 15 178.167 15.0669 178.7 15.2002C179.233 15.4002 179.7 15.6332 180.1 15.8999V14.2002C179.9 14.0002 179.6 13.8001 179.2 13.6001C178.8 13.4001 178.3 13.2334 177.7 13.1001C177.167 12.9668 176.567 12.8999 175.9 12.8999C174.433 12.8999 173.3 13.2332 172.5 13.8999C171.767 14.4999 171.4 15.3667 171.4 16.5C171.4 17.3 171.567 17.9667 171.9 18.5C172.3 19.0333 172.8 19.4335 173.4 19.7002C174.067 19.9669 174.767 20.1001 175.5 20.1001C176.233 20.1001 176.9 19.9998 177.5 19.7998C178.167 19.5331 178.7 19.1334 179.1 18.6001C179.5 18.0668 179.7 17.4335 179.7 16.7002L179.3 15.2002C179.3 15.7335 179.167 16.2001 178.9 16.6001C178.7 16.9334 178.4 17.1999 178 17.3999C177.667 17.5999 177.267 17.7002 176.8 17.7002C176.533 17.7002 176.267 17.6333 176 17.5C175.733 17.4333 175.533 17.3001 175.4 17.1001C175.267 16.8334 175.2 16.5665 175.2 16.2998ZM172.2 9.3999L173.5 11.8999C173.633 11.8332 173.9 11.7 174.3 11.5C174.633 11.3667 175.067 11.2334 175.6 11.1001C176.067 10.9668 176.567 10.8999 177.1 10.8999C177.433 10.8999 177.733 10.9333 178 11C178.267 11.0667 178.5 11.1999 178.7 11.3999C178.9 11.5332 179.033 11.6999 179.1 11.8999C179.233 12.0999 179.3 12.3334 179.3 12.6001V19.8999H182.9V11.7998C182.9 10.9998 182.667 10.3331 182.2 9.7998C181.733 9.1998 181.1 8.76667 180.3 8.5C179.5 8.23333 178.6 8.1001 177.6 8.1001C176.467 8.1001 175.467 8.23333 174.6 8.5C173.667 8.76667 172.867 9.06657 172.2 9.3999ZM193.2 12.8999V19.8999H197.1V12.5C197.1 11.1 196.767 10.0331 196.1 9.2998C195.5 8.4998 194.467 8.1001 193 8.1001C192.133 8.1001 191.433 8.26676 190.9 8.6001C190.3 9.0001 189.833 9.5001 189.5 10.1001V8.3999H185.7V19.8999H189.5V12.8999C189.5 12.4332 189.6 12.0335 189.8 11.7002C189.933 11.4335 190.167 11.2 190.5 11C190.767 10.8667 191.1 10.7998 191.5 10.7998C192.1 10.7998 192.533 10.9665 192.8 11.2998C193.067 11.6998 193.2 12.2332 193.2 12.8999ZM203.3 14.1001C203.3 13.5668 203.433 13.0668 203.7 12.6001C203.967 12.1334 204.333 11.7667 204.8 11.5C205.267 11.2333 205.767 11.1001 206.3 11.1001C206.7 11.1001 207.133 11.1665 207.6 11.2998C208 11.4331 208.4 11.6332 208.8 11.8999C209.2 12.1666 209.5 12.4665 209.7 12.7998V9.1001C209.3 8.83343 208.8 8.5999 208.2 8.3999C207.6 8.1999 206.867 8.1001 206 8.1001C204.733 8.1001 203.6 8.36657 202.6 8.8999C201.6 9.36657 200.8 10.0667 200.2 11C199.667 11.8667 199.4 12.9001 199.4 14.1001C199.4 15.3001 199.667 16.3665 200.2 17.2998C200.8 18.1665 201.6 18.8666 202.6 19.3999C203.6 19.8666 204.733 20.1001 206 20.1001C206.867 20.1001 207.6 20.0332 208.2 19.8999C208.8 19.6999 209.3 19.4334 209.7 19.1001V15.3999C209.5 15.7999 209.2 16.0998 208.8 16.2998C208.467 16.5665 208.067 16.7666 207.6 16.8999C207.2 17.0332 206.767 17.1001 206.3 17.1001C205.767 17.1001 205.267 16.9998 204.8 16.7998C204.333 16.5331 203.967 16.1669 203.7 15.7002C203.433 15.3002 203.3 14.7668 203.3 14.1001ZM218.3 20.1001C219.767 20.1001 221 19.8331 222 19.2998C223.067 18.6998 223.9 17.8335 224.5 16.7002L221.1 15.8999C220.833 16.4332 220.433 16.8 219.9 17C219.433 17.2667 218.867 17.3999 218.2 17.3999C217.667 17.3999 217.2 17.2667 216.8 17C216.4 16.7333 216.1 16.3666 215.9 15.8999C215.7 15.3666 215.6 14.7668 215.6 14.1001C215.6 13.3001 215.7 12.6669 215.9 12.2002C216.1 11.6669 216.367 11.2667 216.7 11C217.1 10.8 217.6 10.7002 218.2 10.7002C218.6 10.7002 218.967 10.8 219.3 11C219.633 11.2 219.9 11.4665 220.1 11.7998C220.3 12.1998 220.4 12.6334 220.4 13.1001C220.4 13.2334 220.367 13.4001 220.3 13.6001C220.233 13.7334 220.167 13.8667 220.1 14L221 12.7998H213.9V14.8999H224.4C224.4 14.8332 224.4 14.7 224.4 14.5C224.4 14.3 224.4 14.1333 224.4 14C224.4 12.7333 224.167 11.6665 223.7 10.7998C223.233 9.93314 222.533 9.26647 221.6 8.7998C220.667 8.33314 219.533 8.1001 218.2 8.1001C216.867 8.1001 215.733 8.36657 214.8 8.8999C213.8 9.36657 213.033 10.0332 212.5 10.8999C212.033 11.8332 211.8 12.9001 211.8 14.1001C211.8 15.3668 212.067 16.4331 212.6 17.2998C213.133 18.2331 213.867 18.9332 214.8 19.3999C215.8 19.8666 216.967 20.1001 218.3 20.1001ZM227 18.2002C227 18.8002 227.2 19.3331 227.6 19.7998C228.067 20.2665 228.633 20.5 229.3 20.5C230.033 20.5 230.6 20.2665 231 19.7998C231.467 19.3331 231.7 18.8002 231.7 18.2002C231.7 17.5335 231.467 17.0001 231 16.6001C230.6 16.1334 230.033 15.8999 229.3 15.8999C228.633 15.8999 228.067 16.1334 227.6 16.6001C227.2 17.0001 227 17.5335 227 18.2002ZM227 8.7998C227 9.46647 227.2 10.0333 227.6 10.5C228.067 10.9667 228.633 11.2002 229.3 11.2002C230.033 11.2002 230.6 10.9667 231 10.5C231.467 10.0333 231.7 9.46647 231.7 8.7998C231.7 8.1998 231.467 7.66686 231 7.2002C230.6 6.73353 230.033 6.5 229.3 6.5C228.633 6.5 228.067 6.73353 227.6 7.2002C227.2 7.66686 227 8.1998 227 8.7998ZM246.3 11.1001C246.3 10.0334 246.533 9.13324 247 8.3999C247.467 7.5999 248.1 7.0001 248.9 6.6001C249.7 6.2001 250.567 6 251.5 6C252.367 6 253.1 6.0998 253.7 6.2998C254.367 6.4998 254.933 6.8002 255.4 7.2002C255.933 7.53353 256.4 7.8998 256.8 8.2998V3.7998C256.067 3.1998 255.3 2.76667 254.5 2.5C253.633 2.16667 252.567 2 251.3 2C249.9 2 248.6 2.2001 247.4 2.6001C246.2 3.06676 245.2 3.7 244.4 4.5C243.533 5.3 242.867 6.26657 242.4 7.3999C241.933 8.53324 241.7 9.76676 241.7 11.1001C241.7 12.5001 241.933 13.7666 242.4 14.8999C242.867 15.9666 243.533 16.9331 244.4 17.7998C245.2 18.5998 246.2 19.2001 247.4 19.6001C248.6 20.0668 249.9 20.2998 251.3 20.2998C252.567 20.2998 253.633 20.1331 254.5 19.7998C255.3 19.4665 256.067 19.0333 256.8 18.5V14C256.4 14.4 255.933 14.7668 255.4 15.1001C254.933 15.4334 254.367 15.6999 253.7 15.8999C253.1 16.1666 252.367 16.2998 251.5 16.2998C250.567 16.2998 249.7 16.1002 248.9 15.7002C248.1 15.3002 247.467 14.6999 247 13.8999C246.533 13.0999 246.3 12.1668 246.3 11.1001ZM262.8 16.2998C262.8 16.0331 262.867 15.8001 263 15.6001C263.133 15.4001 263.333 15.2334 263.6 15.1001C263.867 15.0334 264.2 15 264.6 15C265.2 15 265.767 15.0669 266.3 15.2002C266.833 15.4002 267.3 15.6332 267.7 15.8999V14.2002C267.5 14.0002 267.2 13.8001 266.8 13.6001C266.4 13.4001 265.9 13.2334 265.3 13.1001C264.767 12.9668 264.167 12.8999 263.5 12.8999C262.033 12.8999 260.9 13.2332 260.1 13.8999C259.367 14.4999 259 15.3667 259 16.5C259 17.3 259.167 17.9667 259.5 18.5C259.9 19.0333 260.4 19.4335 261 19.7002C261.667 19.9669 262.367 20.1001 263.1 20.1001C263.833 20.1001 264.5 19.9998 265.1 19.7998C265.767 19.5331 266.3 19.1334 266.7 18.6001C267.1 18.0668 267.3 17.4335 267.3 16.7002L266.9 15.2002C266.9 15.7335 266.767 16.2001 266.5 16.6001C266.3 16.9334 266 17.1999 265.6 17.3999C265.267 17.5999 264.867 17.7002 264.4 17.7002C264.133 17.7002 263.867 17.6333 263.6 17.5C263.333 17.4333 263.133 17.3001 263 17.1001C262.867 16.8334 262.8 16.5665 262.8 16.2998ZM259.8 9.3999L261.1 11.8999C261.233 11.8332 261.5 11.7 261.9 11.5C262.233 11.3667 262.667 11.2334 263.2 11.1001C263.667 10.9668 264.167 10.8999 264.7 10.8999C265.033 10.8999 265.333 10.9333 265.6 11C265.867 11.0667 266.1 11.1999 266.3 11.3999C266.5 11.5332 266.633 11.6999 266.7 11.8999C266.833 12.0999 266.9 12.3334 266.9 12.6001V19.8999H270.5V11.7998C270.5 10.9998 270.267 10.3331 269.8 9.7998C269.333 9.1998 268.7 8.76667 267.9 8.5C267.1 8.23333 266.2 8.1001 265.2 8.1001C264.067 8.1001 263.067 8.23333 262.2 8.5C261.267 8.76667 260.467 9.06657 259.8 9.3999ZM277.1 0.399902H273.3V19.8999H277.1V0.399902ZM283.9 0.399902H280.1V19.8999H283.9V0.399902ZM301.1 8.3999H293.3V11.5H301.1V8.3999ZM300.7 4L302.2 1.2998C302.067 1.0998 301.867 0.900195 301.6 0.700195C301.267 0.500195 300.9 0.333529 300.5 0.200195C300.1 0.066862 299.633 0 299.1 0C298.1 0 297.3 0.166667 296.7 0.5C296.033 0.833333 295.533 1.2999 295.2 1.8999C294.867 2.56657 294.7 3.33353 294.7 4.2002V19.8999H298.4V5.1001C298.4 4.7001 298.433 4.36676 298.5 4.1001C298.633 3.9001 298.767 3.73343 298.9 3.6001C299.1 3.46676 299.333 3.3999 299.6 3.3999C299.8 3.3999 300 3.46676 300.2 3.6001C300.4 3.66676 300.567 3.8 300.7 4ZM302.2 14.2002C302.2 15.4002 302.5 16.4331 303.1 17.2998C303.633 18.2331 304.4 18.9332 305.4 19.3999C306.4 19.9332 307.533 20.2002 308.8 20.2002C310.067 20.2002 311.2 19.9332 312.2 19.3999C313.2 18.9332 313.967 18.2331 314.5 17.2998C315.1 16.4331 315.4 15.4002 315.4 14.2002C315.4 12.9335 315.1 11.8667 314.5 11C313.967 10.0667 313.2 9.36657 312.2 8.8999C311.2 8.36657 310.067 8.1001 308.8 8.1001C307.533 8.1001 306.4 8.36657 305.4 8.8999C304.4 9.36657 303.633 10.0667 303.1 11C302.5 11.8667 302.2 12.9335 302.2 14.2002ZM306.1 14.2002C306.1 13.6002 306.233 13.0668 306.5 12.6001C306.767 12.2001 307.1 11.8668 307.5 11.6001C307.9 11.4001 308.333 11.2998 308.8 11.2998C309.267 11.2998 309.7 11.4001 310.1 11.6001C310.567 11.8668 310.9 12.2001 311.1 12.6001C311.367 13.0668 311.5 13.6002 311.5 14.2002C311.5 14.8002 311.367 15.3002 311.1 15.7002C310.9 16.1002 310.567 16.4335 310.1 16.7002C309.7 16.9002 309.267 17 308.8 17C308.333 17 307.9 16.9002 307.5 16.7002C307.1 16.4335 306.767 16.1002 306.5 15.7002C306.233 15.3002 306.1 14.8002 306.1 14.2002ZM321.4 19.8999V8.3999H317.6V19.8999H321.4ZM324.8 12.2998L326.4 9.1001C326.2 8.76676 325.9 8.53324 325.5 8.3999C325.1 8.1999 324.7 8.1001 324.3 8.1001C323.7 8.1001 323.1 8.33314 322.5 8.7998C321.9 9.1998 321.433 9.76667 321.1 10.5C320.7 11.1667 320.5 11.9666 320.5 12.8999L321.4 14.2002C321.4 13.6669 321.5 13.1998 321.7 12.7998C321.833 12.4665 322.033 12.2 322.3 12C322.567 11.8 322.9 11.7002 323.3 11.7002C323.633 11.7002 323.9 11.7331 324.1 11.7998C324.367 11.9331 324.6 12.0998 324.8 12.2998ZM338.9 13.2998L338.6 16.5H347.9L347.6 13.2998H338.9ZM340.7 14.5L343.2 8.7998L345.6 14.5L345.5 15.6001L347.6 19.8999H352.4L343.2 1.2998L334 19.8999H338.7L340.9 15.3999L340.7 14.5ZM357.6 19.8999V8.3999H353.8V19.8999H357.6ZM361 12.2998L362.6 9.1001C362.4 8.83343 362.1 8.5999 361.7 8.3999C361.3 8.26657 360.9 8.2002 360.5 8.2002C359.9 8.2002 359.3 8.39981 358.7 8.7998C358.1 9.1998 357.633 9.76667 357.3 10.5C356.9 11.2333 356.7 12.0332 356.7 12.8999L357.6 14.2998C357.6 13.6998 357.7 13.2332 357.9 12.8999C358.033 12.4999 358.233 12.2 358.5 12C358.767 11.8 359.1 11.7002 359.5 11.7002C359.833 11.7002 360.1 11.7666 360.3 11.8999C360.567 11.9666 360.8 12.0998 361 12.2998ZM370.5 8.3999H362.8V11.6001H370.5V8.3999ZM368.5 4.3999H364.9V19.8999H368.5V4.3999ZM372.3 18.2002C372.3 18.8002 372.533 19.3331 373 19.7998C373.467 20.2665 374.033 20.5 374.7 20.5C375.367 20.5 375.933 20.2665 376.4 19.7998C376.8 19.3331 377 18.8002 377 18.2002C377 17.5335 376.8 16.9667 376.4 16.5C375.933 16.1 375.367 15.8999 374.7 15.8999C374.033 15.8999 373.467 16.1 373 16.5C372.533 16.9667 372.3 17.5335 372.3 18.2002Z" fill="#FF5219"/>
</svg>
