<svg width="89" height="14" viewBox="0 0 89 14" fill="none" xmlns="http://www.w3.org/2000/svg">
<path d="M4.70032 6.19922C3.50032 5.86589 2.60037 5.46569 2.00037 4.99902C1.46703 4.46569 1.20032 3.83245 1.20032 3.09912C1.20032 2.23245 1.53365 1.53236 2.20032 0.999023C2.86698 0.46569 3.73375 0.199219 4.80042 0.199219C5.53375 0.199219 6.20042 0.332454 6.80042 0.599121C7.40041 0.865788 7.83367 1.26549 8.10034 1.79883C8.43368 2.26549 8.60034 2.79893 8.60034 3.39893H7.20032C7.20032 2.79893 7.00034 2.29893 6.60034 1.89893C6.20034 1.49893 5.60042 1.29883 4.80042 1.29883C4.13375 1.29883 3.60032 1.46549 3.20032 1.79883C2.80032 2.13216 2.60034 2.56579 2.60034 3.09912C2.60034 3.49912 2.80032 3.86589 3.20032 4.19922C3.53365 4.46589 4.16701 4.73236 5.10034 4.99902C5.96701 5.26569 6.66698 5.53216 7.20032 5.79883C7.66698 6.13216 8.03375 6.49893 8.30042 6.89893C8.50041 7.29893 8.60034 7.76549 8.60034 8.29883C8.60034 9.16549 8.26701 9.86559 7.60034 10.3989C6.93368 10.8656 6.03372 11.0991 4.90039 11.0991C4.16706 11.0991 3.50039 10.9659 2.90039 10.6992C2.23372 10.4326 1.73372 10.0658 1.40039 9.59912C1.06706 9.06579 0.900391 8.49893 0.900391 7.89893H2.30042C2.30042 8.56559 2.5337 9.06559 3.00037 9.39893C3.46703 9.79893 4.10039 9.99902 4.90039 9.99902C5.63372 9.99902 6.20034 9.83236 6.60034 9.49902C7.00034 9.23236 7.20032 8.83216 7.20032 8.29883C7.20032 7.76549 7.03365 7.36579 6.70032 7.09912C6.30032 6.83245 5.63365 6.53255 4.70032 6.19922ZM15.1003 10.999V10.1992C14.567 10.7992 13.8004 11.0991 12.8004 11.0991C11.9337 11.0991 11.3004 10.8656 10.9004 10.3989C10.4337 9.93226 10.2003 9.19922 10.2003 8.19922V3.09912H11.6003V8.19922C11.6003 9.39922 12.067 9.99902 13.0004 9.99902C14.067 9.99902 14.767 9.59883 15.1003 8.79883V3.09912H16.4004V10.999H15.1003ZM25.2003 6.99902V7.09912C25.2003 8.29912 24.9004 9.26569 24.3004 9.99902C23.7671 10.7324 23.0337 11.0991 22.1003 11.0991C21.167 11.0991 20.4004 10.7992 19.8004 10.1992V13.999H18.5004V3.09912H19.7003L19.8004 3.99902C20.3337 3.26569 21.1003 2.89893 22.1003 2.89893C23.0337 2.89893 23.7671 3.26569 24.3004 3.99902C24.9004 4.73236 25.2003 5.73236 25.2003 6.99902ZM23.8004 6.99902C23.8004 6.06569 23.6337 5.36559 23.3004 4.89893C22.9004 4.36559 22.367 4.09912 21.7003 4.09912C20.9003 4.09912 20.2671 4.46589 19.8004 5.19922V8.99902C20.2004 9.66569 20.8337 9.99902 21.7003 9.99902C22.367 9.99902 22.867 9.76549 23.2003 9.29883C23.6003 8.76549 23.8004 7.99902 23.8004 6.99902ZM33.6003 6.99902V7.09912C33.6003 8.29912 33.3337 9.26569 32.8004 9.99902C32.2004 10.7324 31.4337 11.0991 30.5004 11.0991C29.567 11.0991 28.8337 10.7992 28.3004 10.1992V13.999H26.9004V3.09912H28.1003L28.2003 3.99902C28.7337 3.26569 29.5004 2.89893 30.5004 2.89893C31.4337 2.89893 32.2004 3.26569 32.8004 3.99902C33.3337 4.73236 33.6003 5.73236 33.6003 6.99902ZM32.2003 6.99902C32.2003 6.06569 32.0337 5.36559 31.7003 4.89893C31.3003 4.36559 30.767 4.09912 30.1003 4.09912C29.3003 4.09912 28.7004 4.46589 28.3004 5.19922V8.99902C28.7004 9.66569 29.3003 9.99902 30.1003 9.99902C30.767 9.99902 31.3003 9.76549 31.7003 9.29883C32.0337 8.76549 32.2003 7.99902 32.2003 6.99902ZM35.0004 7.09912V6.99902C35.0004 6.19902 35.1337 5.49893 35.4004 4.89893C35.7337 4.23226 36.167 3.73226 36.7003 3.39893C37.2337 3.06559 37.867 2.89893 38.6003 2.89893C39.667 2.89893 40.5336 3.26569 41.2003 3.99902C41.867 4.79902 42.2003 5.79902 42.2003 6.99902V7.09912C42.2003 7.89912 42.0336 8.59922 41.7003 9.19922C41.4337 9.79922 41.0337 10.2658 40.5004 10.5991C39.9004 10.9325 39.267 11.0991 38.6003 11.0991C37.5337 11.0991 36.667 10.7324 36.0004 9.99902C35.3337 9.26569 35.0004 8.29912 35.0004 7.09912ZM36.3004 7.09912C36.3004 7.96579 36.5004 8.66588 36.9004 9.19922C37.3004 9.73255 37.867 9.99902 38.6003 9.99902C39.267 9.99902 39.8003 9.73255 40.2003 9.19922C40.6003 8.66588 40.8004 7.93236 40.8004 6.99902C40.8004 6.13236 40.6003 5.43226 40.2003 4.89893C39.8003 4.29893 39.267 3.99902 38.6003 3.99902C37.867 3.99902 37.3004 4.26549 36.9004 4.79883C36.5004 5.33216 36.3004 6.09912 36.3004 7.09912ZM47.7003 2.99902V4.29883C47.5003 4.23216 47.267 4.19922 47.0004 4.19922C46.1337 4.19922 45.5336 4.59893 45.2003 5.39893V10.999H43.9004V3.09912H45.2003V3.99902C45.667 3.26569 46.3003 2.89893 47.1003 2.89893C47.367 2.89893 47.567 2.93236 47.7003 2.99902ZM49.8004 1.19922H51.1003V3.09912H52.6003V4.09912H51.1003V8.99902C51.1003 9.33236 51.1671 9.59883 51.3004 9.79883C51.4338 9.93216 51.667 9.99902 52.0004 9.99902C52.2004 9.99902 52.4337 9.96559 52.7003 9.89893V10.999C52.3003 11.0657 51.9337 11.0991 51.6003 11.0991C51.0003 11.0991 50.5671 10.9325 50.3004 10.5991C49.9671 10.1991 49.8004 9.66569 49.8004 8.99902V4.09912H48.4004V3.09912H49.8004V1.19922ZM64.8004 9.89893V10.999H57.8004V9.99902L61.5004 5.89893C62.0337 5.29893 62.4003 4.79893 62.6003 4.39893C62.8003 3.99893 62.9004 3.59922 62.9004 3.19922C62.9004 2.66589 62.7337 2.23226 62.4004 1.89893C62.0671 1.49893 61.6337 1.29883 61.1003 1.29883C60.4337 1.29883 59.9004 1.49893 59.5004 1.89893C59.1004 2.29893 58.9004 2.83236 58.9004 3.49902H57.6003C57.6003 2.49902 57.9004 1.69912 58.5004 1.09912C59.167 0.499121 60.0337 0.199219 61.1003 0.199219C62.1003 0.199219 62.8671 0.46569 63.4004 0.999023C64.0004 1.53236 64.3004 2.23245 64.3004 3.09912C64.3004 4.09912 63.6337 5.33216 62.3004 6.79883L59.4004 9.89893H64.8004ZM72.0004 0.398926V7.39893H73.5004V8.49902H72.0004V10.999H70.6003V8.49902H65.8004V7.69922L70.5004 0.398926H72.0004ZM70.5004 2.49902L67.4004 7.39893H70.7003V2.19922L70.5004 2.49902ZM75.8004 3.09912L77.5004 5.99902L79.2003 3.09912H80.8004L78.2003 6.99902L80.9004 10.999H79.3004L77.5004 8.09912L75.7003 10.999H74.1003L76.8004 6.99902L74.2003 3.09912H75.8004ZM89.0004 0.398926V1.09912L84.6003 10.999H83.2003L87.6003 1.49902H81.8004V0.398926H89.0004Z" fill="#777777"/>
</svg>
