<svg width="129" height="13" viewBox="0 0 129 13" fill="none" xmlns="http://www.w3.org/2000/svg">
<path d="M9.40039 0.299194V1.79919H6.1004V10.9992H4.20041V1.79919H0.900391V0.299194H9.40039ZM16.8004 10.9992L15.9004 8.49921H11.8004L10.9004 10.9992H9.0004L13.0004 0.299194H14.7004L18.7004 10.9992H16.8004ZM13.9004 2.59918L12.3004 6.99921H15.4004L13.9004 2.59918ZM28.5004 0.399231V10.9992H26.6004L21.9004 3.49921V10.9992H20.0004V0.399231H21.9004L26.6004 7.99921V0.399231H28.5004ZM32.7004 0.399231V10.9992H30.8004V0.399231H32.7004ZM40.6004 8.29919C40.6004 7.83253 40.4337 7.46589 40.1004 7.19922C39.7671 6.93255 39.1671 6.6659 38.3004 6.39923C37.4337 6.13256 36.7337 5.86585 36.2004 5.59918C35.2671 4.93252 34.8004 4.13255 34.8004 3.19922C34.8004 2.33255 35.1337 1.59921 35.8004 0.999207C36.5337 0.465873 37.4671 0.199219 38.6004 0.199219C39.3337 0.199219 40.0004 0.332515 40.6004 0.599182C41.1337 0.865849 41.5671 1.26586 41.9004 1.79919C42.2337 2.26586 42.4004 2.83254 42.4004 3.49921H40.6004C40.6004 2.89921 40.4004 2.46589 40.0004 2.19922C39.6671 1.86589 39.2004 1.69922 38.6004 1.69922C37.9337 1.69922 37.4337 1.83252 37.1004 2.09918C36.7671 2.36585 36.6004 2.73255 36.6004 3.19922C36.6004 3.59922 36.8004 3.89918 37.2004 4.09918C37.5337 4.36585 38.1337 4.63256 39.0004 4.89923C39.8004 5.1659 40.4671 5.46586 41.0004 5.79919C41.4671 6.06586 41.8337 6.39919 42.1004 6.79919C42.3004 7.19919 42.4004 7.69919 42.4004 8.29919C42.4004 9.16586 42.0671 9.8659 41.4004 10.3992C40.7337 10.9326 39.8004 11.1992 38.6004 11.1992C37.8671 11.1992 37.1671 11.0326 36.5004 10.6992C35.8337 10.4326 35.3337 10.0658 35.0004 9.59918C34.6671 9.06585 34.5004 8.46586 34.5004 7.79919H36.3004C36.3004 8.39919 36.5004 8.86589 36.9004 9.19922C37.3004 9.53255 37.8671 9.69922 38.6004 9.69922C39.2671 9.69922 39.7671 9.56586 40.1004 9.29919C40.4337 9.03253 40.6004 8.69919 40.6004 8.29919ZM52.5004 0.399231V10.9992H50.7004V6.29919H45.9004V10.9992H44.1004V0.399231H45.9004V4.79919H50.7004V0.399231H52.5004ZM56.6004 0.399231V10.9992H54.8004V0.399231H56.6004ZM62.7004 10.9992H58.9004V0.399231H62.5004C63.7004 0.399231 64.6337 0.632515 65.3004 1.09918C65.9004 1.56585 66.2004 2.26589 66.2004 3.19922C66.2004 3.73255 66.0671 4.19918 65.8004 4.59918C65.5337 4.93252 65.1671 5.23254 64.7004 5.49921C65.2337 5.63254 65.6671 5.93256 66.0004 6.39923C66.3337 6.79923 66.5004 7.29923 66.5004 7.89923C66.5004 8.89923 66.1671 9.66589 65.5004 10.1992C64.8337 10.7326 63.9004 10.9992 62.7004 10.9992ZM62.9004 6.19922H60.7004V9.49921H62.8004C63.3337 9.49921 63.7671 9.36585 64.1004 9.09918C64.4337 8.83252 64.6004 8.43256 64.6004 7.89923C64.6004 6.7659 64.0337 6.19922 62.9004 6.19922ZM60.7004 1.89923V4.79919H62.5004C63.1004 4.79919 63.5671 4.69921 63.9004 4.49921C64.2337 4.23254 64.4004 3.83253 64.4004 3.29919C64.4004 2.83253 64.2337 2.46589 63.9004 2.19922C63.6337 1.99922 63.1671 1.89923 62.5004 1.89923H60.7004ZM78.3004 7.59918H80.2004C80.0671 8.73252 79.6337 9.59922 78.9004 10.1992C78.1671 10.8659 77.2004 11.1992 76.0004 11.1992C75.1337 11.1992 74.4004 10.9992 73.8004 10.5992C73.1337 10.1992 72.6337 9.59919 72.3004 8.79919C71.9004 8.06586 71.7004 7.23253 71.7004 6.29919V5.29919C71.7004 4.29919 71.9004 3.39918 72.3004 2.59918C72.6337 1.86585 73.1337 1.26586 73.8004 0.799194C74.4671 0.399194 75.2337 0.199219 76.1004 0.199219C77.3004 0.199219 78.2337 0.532552 78.9004 1.19922C79.6337 1.79922 80.0671 2.69923 80.2004 3.89923H78.3004C78.2337 3.09923 78.0337 2.53255 77.7004 2.19922C77.3004 1.86589 76.7671 1.69922 76.1004 1.69922C75.3004 1.69922 74.6671 1.99918 74.2004 2.59918C73.8004 3.19918 73.6004 4.06589 73.6004 5.19922V6.09918C73.6004 7.29918 73.8004 8.19919 74.2004 8.79919C74.6004 9.39919 75.2004 9.69922 76.0004 9.69922C76.7337 9.69922 77.3004 9.53255 77.7004 9.19922C78.0337 8.86589 78.2337 8.33252 78.3004 7.59918ZM90.3004 0.399231V10.9992H88.5004V6.29919H83.7004V10.9992H81.8004V0.399231H83.7004V4.79919H88.5004V0.399231H90.3004ZM94.4004 0.399231V10.9992H92.6004V0.399231H94.4004ZM105.1 5.39923V5.99921C105.1 6.99921 104.934 7.86585 104.6 8.59918C104.334 9.33252 103.9 9.93256 103.3 10.3992L105.1 11.7992L103.9 12.8992L101.7 11.0992C101.367 11.1658 101.034 11.1992 100.7 11.1992C99.8337 11.1992 99.0671 10.9659 98.4004 10.4992C97.7337 10.0992 97.2004 9.49922 96.8004 8.69922C96.4671 7.96589 96.3004 7.06587 96.3004 5.99921V5.39923C96.3004 4.39923 96.4671 3.49922 96.8004 2.69922C97.2004 1.89922 97.7337 1.29923 98.4004 0.899231C99.0671 0.432564 99.8337 0.199219 100.7 0.199219C101.567 0.199219 102.334 0.399194 103 0.799194C103.667 1.26586 104.2 1.86585 104.6 2.59918C104.934 3.39918 105.1 4.33256 105.1 5.39923ZM103.3 5.99921V5.39923C103.3 4.19923 103.067 3.29922 102.6 2.69922C102.134 2.09922 101.5 1.79919 100.7 1.79919C99.9004 1.79919 99.2671 2.09922 98.8004 2.69922C98.3337 3.29922 98.1004 4.16586 98.1004 5.29919V5.99921C98.1004 7.13254 98.3337 8.03255 98.8004 8.69922C99.2671 9.29922 99.9004 9.59918 100.7 9.59918C101.5 9.59918 102.134 9.29922 102.6 8.69922C103.067 8.09922 103.3 7.19921 103.3 5.99921ZM109 0.399231V10.9992H107.1V0.399231H109ZM116.9 8.29919C116.9 7.83253 116.734 7.46589 116.4 7.19922C116.067 6.93255 115.467 6.6659 114.6 6.39923C113.734 6.13256 113.034 5.86585 112.5 5.59918C111.567 4.93252 111.1 4.13255 111.1 3.19922C111.1 2.33255 111.434 1.59921 112.1 0.999207C112.834 0.465873 113.767 0.199219 114.9 0.199219C115.634 0.199219 116.267 0.332515 116.8 0.599182C117.4 0.865849 117.867 1.26586 118.2 1.79919C118.534 2.26586 118.7 2.83254 118.7 3.49921H116.9C116.9 2.89921 116.7 2.46589 116.3 2.19922C115.967 1.86589 115.467 1.69922 114.8 1.69922C114.2 1.69922 113.734 1.83252 113.4 2.09918C113.067 2.36585 112.9 2.73255 112.9 3.19922C112.9 3.59922 113.1 3.89918 113.5 4.09918C113.834 4.36585 114.434 4.63256 115.3 4.89923C116.1 5.1659 116.767 5.46586 117.3 5.79919C117.767 6.06586 118.134 6.39919 118.4 6.79919C118.6 7.19919 118.7 7.69919 118.7 8.29919C118.7 9.16586 118.367 9.8659 117.7 10.3992C117.034 10.9326 116.1 11.1992 114.9 11.1992C114.167 11.1992 113.467 11.0326 112.8 10.6992C112.134 10.4326 111.634 10.0658 111.3 9.59918C110.9 9.06585 110.7 8.46586 110.7 7.79919H112.6C112.6 8.39919 112.8 8.86589 113.2 9.19922C113.6 9.53255 114.167 9.69922 114.9 9.69922C115.567 9.69922 116.067 9.56586 116.4 9.29919C116.734 9.03253 116.9 8.69919 116.9 8.29919ZM128.8 0.399231V10.9992H127V6.29919H122.2V10.9992H120.3V0.399231H122.2V4.79919H127V0.399231H128.8Z" fill="white"/>
</svg>
