<svg width="390" height="21" viewBox="0 0 390 21" fill="none" xmlns="http://www.w3.org/2000/svg">
<path d="M0.799805 2.49951V6.29932H5.59973V19.9995H9.7998V6.29932H14.6997V2.49951H0.799805ZM19.4998 20.2993C20.9664 20.2326 22.1997 19.9327 23.1997 19.3994C24.2664 18.8661 25.0997 18.0327 25.6997 16.8994L22.2998 15.9995C22.0331 16.5328 21.6664 16.8996 21.1997 17.0996C20.733 17.3663 20.1664 17.4995 19.4998 17.4995C18.8998 17.4995 18.3998 17.3663 17.9998 17.0996C17.5998 16.8329 17.2997 16.4662 17.0997 15.9995C16.8997 15.4662 16.7998 14.8664 16.7998 14.1997C16.7998 13.4664 16.8997 12.8327 17.0997 12.2993C17.2997 11.766 17.5998 11.3663 17.9998 11.0996C18.3331 10.8996 18.7998 10.7993 19.3998 10.7993C19.8664 10.7993 20.2664 10.8996 20.5997 11.0996C20.9331 11.2996 21.1665 11.5661 21.2998 11.8994C21.4998 12.2994 21.5997 12.733 21.5997 13.1997C21.5997 13.333 21.5664 13.4997 21.4998 13.6997C21.4331 13.833 21.3665 13.9663 21.2998 14.0996L22.1997 12.8994H15.0997V15.0996H25.5997C25.6664 14.9663 25.6997 14.7996 25.6997 14.5996C25.6997 14.4663 25.6997 14.2996 25.6997 14.0996C25.6997 12.8329 25.4331 11.7661 24.8998 10.8994C24.4331 10.0327 23.7331 9.36608 22.7998 8.89941C21.9331 8.43275 20.8331 8.19971 19.4998 8.19971C18.1664 8.19971 16.9998 8.46618 15.9998 8.99951C14.9998 9.46618 14.2665 10.1663 13.7998 11.0996C13.2665 11.9663 12.9998 12.9997 12.9998 14.1997C12.9998 15.4664 13.2665 16.5327 13.7998 17.3994C14.3331 18.3327 15.0664 19.0328 15.9998 19.4995C16.9998 19.9662 18.1664 20.1997 19.4998 20.1997V20.2993ZM30.8998 16.4995C30.8998 16.2328 30.9664 15.9993 31.0997 15.7993C31.2331 15.5993 31.433 15.4326 31.6997 15.2993C31.9664 15.2326 32.3331 15.1997 32.7998 15.1997C33.3998 15.1997 33.9331 15.2995 34.3998 15.4995C34.9331 15.6328 35.3998 15.8329 35.7998 16.0996V14.4995C35.5998 14.2328 35.2998 13.9993 34.8998 13.7993C34.4998 13.5993 34.0331 13.4326 33.4998 13.2993C32.9664 13.166 32.3331 13.0996 31.5997 13.0996C30.1997 13.0996 29.0998 13.4329 28.2998 14.0996C27.4998 14.6996 27.0997 15.5664 27.0997 16.6997C27.0997 17.4997 27.2997 18.1664 27.6997 18.6997C28.033 19.233 28.533 19.6662 29.1997 19.9995C29.7997 20.1995 30.4664 20.2993 31.1997 20.2993C31.933 20.2993 32.6331 20.1995 33.2998 19.9995C33.8998 19.7328 34.3998 19.3326 34.7998 18.7993C35.1998 18.266 35.3998 17.6662 35.3998 16.9995L34.9998 15.4995C34.9998 15.9662 34.8997 16.3993 34.6997 16.7993C34.433 17.1327 34.1331 17.3996 33.7998 17.5996C33.3998 17.7996 32.9997 17.8994 32.5997 17.8994C32.2664 17.8994 31.9664 17.833 31.6997 17.6997C31.4997 17.633 31.2997 17.4993 31.0997 17.2993C30.9664 17.0993 30.8998 16.8328 30.8998 16.4995ZM27.9998 9.59961L29.1997 12.0996C29.3997 12.0329 29.6664 11.8997 29.9998 11.6997C30.3998 11.5664 30.8331 11.4326 31.2998 11.2993C31.8331 11.2326 32.3331 11.1997 32.7998 11.1997C33.1998 11.1997 33.5331 11.1997 33.7998 11.1997C34.0665 11.2664 34.2998 11.3996 34.4998 11.5996C34.6331 11.7329 34.7664 11.8996 34.8998 12.0996C34.9664 12.2996 34.9998 12.5326 34.9998 12.7993V20.0996H38.5997V11.9995C38.5997 11.1995 38.3664 10.5328 37.8998 9.99951C37.4331 9.46618 36.7998 9.03304 35.9998 8.69971C35.1998 8.43304 34.2998 8.29932 33.2998 8.29932C32.2331 8.29932 31.2331 8.43304 30.2998 8.69971C29.3665 8.96637 28.5998 9.26628 27.9998 9.59961ZM44.5997 14.2993C44.5997 13.766 44.7331 13.266 44.9998 12.7993C45.2664 12.3993 45.6331 12.033 46.0997 11.6997C46.6331 11.433 47.1664 11.2993 47.6997 11.2993C48.0997 11.2993 48.5331 11.3662 48.9998 11.4995C49.3998 11.6328 49.7997 11.8329 50.1997 12.0996C50.533 12.3663 50.8331 12.6662 51.0997 12.9995V9.29932C50.6997 9.03265 50.1997 8.83304 49.5997 8.69971C48.9997 8.43304 48.2664 8.29932 47.3998 8.29932C46.1331 8.29932 44.9998 8.56628 43.9998 9.09961C42.9998 9.56628 42.1997 10.2664 41.5997 11.1997C40.9997 12.0664 40.6997 13.0993 40.6997 14.2993C40.6997 15.566 40.9997 16.6328 41.5997 17.4995C42.1997 18.3662 42.9998 19.0663 43.9998 19.5996C44.9998 20.0663 46.1331 20.2993 47.3998 20.2993C48.2664 20.2993 48.9997 20.2329 49.5997 20.0996C50.1997 19.8996 50.6997 19.6327 51.0997 19.2993V15.5996C50.8331 15.9996 50.533 16.2995 50.1997 16.4995C49.8664 16.7662 49.4664 16.9997 48.9998 17.1997C48.5998 17.2664 48.1664 17.2993 47.6997 17.2993C47.1664 17.2993 46.6331 17.1995 46.0997 16.9995C45.6331 16.7328 45.2664 16.3995 44.9998 15.9995C44.7331 15.5328 44.5997 14.966 44.5997 14.2993ZM57.5997 20.0996V0.599609H53.7998V20.0996H57.5997ZM61.2998 13.0996V20.0996H65.0997V12.4995C65.0997 11.5662 64.9664 10.7997 64.6997 10.1997C64.433 9.53304 63.9998 9.03304 63.3998 8.69971C62.7998 8.36637 62.0331 8.19971 61.0997 8.19971C60.1664 8.19971 59.3998 8.39932 58.7998 8.79932C58.1998 9.26598 57.7331 9.86628 57.3998 10.5996C57.1331 11.3329 56.9998 12.1663 56.9998 13.0996H57.5997C57.5997 12.6329 57.6998 12.2662 57.8998 11.9995C58.0331 11.6662 58.2664 11.3997 58.5997 11.1997C58.8664 11.0664 59.1997 10.9995 59.5997 10.9995C60.1997 10.9995 60.6331 11.1662 60.8998 11.4995C61.1664 11.8995 61.2998 12.4329 61.2998 13.0996ZM73.8998 20.2993C75.3664 20.2993 76.5997 20.0328 77.5997 19.4995C78.5997 18.9662 79.3998 18.1328 79.9998 16.9995L76.6997 16.0996C76.3664 16.6329 75.9664 16.9997 75.4998 17.1997C75.0331 17.4664 74.4665 17.5996 73.7998 17.5996C73.1998 17.5996 72.6998 17.4664 72.2998 17.1997C71.8998 16.933 71.5998 16.5663 71.3998 16.0996C71.1998 15.5663 71.0997 14.966 71.0997 14.2993C71.1664 13.566 71.2664 12.9327 71.3998 12.3994C71.5998 11.8661 71.8998 11.4664 72.2998 11.1997C72.6998 10.9997 73.1664 10.8994 73.6997 10.8994C74.1664 10.8994 74.5664 10.9997 74.8998 11.1997C75.2331 11.3997 75.4997 11.6662 75.6997 11.9995C75.8997 12.3995 75.9998 12.8327 75.9998 13.2993C75.9998 13.4326 75.9664 13.5993 75.8998 13.7993C75.8331 13.9326 75.7664 14.0664 75.6997 14.1997L76.5997 12.9995H69.4998V15.1997H79.9998C79.9998 15.0664 79.9998 14.8997 79.9998 14.6997C79.9998 14.5664 79.9998 14.3997 79.9998 14.1997C79.9998 12.933 79.7665 11.8662 79.2998 10.9995C78.8331 10.1328 78.133 9.46618 77.1997 8.99951C76.2664 8.53285 75.1331 8.29932 73.7998 8.29932C72.4665 8.29932 71.2998 8.56628 70.2998 9.09961C69.3665 9.56628 68.6331 10.2664 68.0997 11.1997C67.5664 12.0664 67.2998 13.0993 67.2998 14.2993C67.2998 15.566 67.5664 16.6328 68.0997 17.4995C68.6331 18.4328 69.3998 19.1329 70.3998 19.5996C71.3998 20.0663 72.5664 20.2993 73.8998 20.2993ZM86.0997 20.0996V8.59961H82.2998V20.0996H86.0997ZM89.4998 12.4995L91.0997 9.29932C90.8997 8.96598 90.5997 8.73294 90.1997 8.59961C89.7997 8.39961 89.3998 8.29932 88.9998 8.29932C88.3998 8.29932 87.7997 8.53285 87.1997 8.99951C86.5997 9.39951 86.1331 9.96637 85.7998 10.6997C85.3998 11.3664 85.1997 12.1663 85.1997 13.0996L86.0997 14.3994C86.0997 13.8661 86.1998 13.3995 86.3998 12.9995C86.5331 12.6662 86.7331 12.3997 86.9998 12.1997C87.2664 11.933 87.5998 11.7993 87.9998 11.7993C88.3331 11.7993 88.5998 11.8662 88.7998 11.9995C89.0665 12.1328 89.2998 12.2995 89.4998 12.4995ZM102.5 13.9995L99.4998 16.0996C99.8998 16.8996 100.466 17.6661 101.2 18.3994C101.933 19.0661 102.766 19.5995 103.7 19.9995C104.7 20.4662 105.766 20.6997 106.9 20.6997C107.7 20.6997 108.5 20.566 109.3 20.2993C110.1 20.0326 110.8 19.6664 111.4 19.1997C112 18.733 112.466 18.1662 112.8 17.4995C113.2 16.8328 113.4 16.0329 113.4 15.0996C113.4 14.3663 113.266 13.733 113 13.1997C112.8 12.5997 112.466 12.0997 112 11.6997C111.6 11.233 111.133 10.8663 110.6 10.5996C110.066 10.2663 109.5 9.96637 108.9 9.69971C108.1 9.43304 107.4 9.19951 106.8 8.99951C106.266 8.73285 105.833 8.43294 105.5 8.09961C105.166 7.83294 105 7.49961 105 7.09961C105 6.69961 105.166 6.36628 105.5 6.09961C105.833 5.83294 106.3 5.69971 106.9 5.69971C107.366 5.69971 107.766 5.79951 108.1 5.99951C108.5 6.13284 108.866 6.36637 109.2 6.69971C109.533 7.03304 109.833 7.39932 110.1 7.79932L113.3 5.99951C113.033 5.39951 112.6 4.79971 112 4.19971C111.466 3.59971 110.766 3.13265 109.9 2.79932C109.033 2.39932 108 2.19971 106.8 2.19971C105.666 2.19971 104.633 2.39932 103.7 2.79932C102.833 3.19932 102.1 3.76618 101.5 4.49951C100.966 5.23285 100.7 6.13304 100.7 7.19971C100.7 8.06637 100.866 8.79941 101.2 9.39941C101.533 9.99941 101.933 10.5328 102.4 10.9995C102.866 11.3995 103.366 11.7328 103.9 11.9995C104.5 12.2662 105 12.4663 105.4 12.5996C106.266 12.9329 106.933 13.2328 107.4 13.4995C107.933 13.6995 108.333 13.933 108.6 14.1997C108.8 14.533 108.9 14.8993 108.9 15.2993C108.9 15.8327 108.7 16.2663 108.3 16.5996C107.9 16.8663 107.4 16.9995 106.8 16.9995C106.2 16.9995 105.633 16.8997 105.1 16.6997C104.566 16.433 104.1 16.0663 103.7 15.5996C103.233 15.1329 102.833 14.5995 102.5 13.9995ZM118.7 16.4995C118.7 16.2328 118.766 15.9993 118.9 15.7993C119.033 15.5993 119.233 15.4326 119.5 15.2993C119.766 15.2326 120.133 15.1997 120.6 15.1997C121.2 15.1997 121.766 15.2995 122.3 15.4995C122.833 15.6328 123.3 15.8329 123.7 16.0996V14.4995C123.5 14.2328 123.2 13.9993 122.8 13.7993C122.4 13.5993 121.9 13.4326 121.3 13.2993C120.766 13.166 120.133 13.0996 119.4 13.0996C118 13.0996 116.9 13.4329 116.1 14.0996C115.3 14.6996 114.9 15.5664 114.9 16.6997C114.9 17.4997 115.1 18.1664 115.5 18.6997C115.9 19.233 116.4 19.6662 117 19.9995C117.6 20.1995 118.266 20.2993 119 20.2993C119.733 20.2993 120.433 20.1995 121.1 19.9995C121.7 19.7328 122.2 19.3326 122.6 18.7993C123 18.266 123.2 17.6662 123.2 16.9995L122.8 15.4995C122.8 15.9662 122.7 16.3993 122.5 16.7993C122.233 17.1327 121.933 17.3996 121.6 17.5996C121.2 17.7996 120.8 17.8994 120.4 17.8994C120.066 17.8994 119.8 17.833 119.6 17.6997C119.333 17.633 119.133 17.4993 119 17.2993C118.8 17.0993 118.7 16.8328 118.7 16.4995ZM115.8 9.59961L117.1 12.0996C117.233 12.0329 117.5 11.8997 117.9 11.6997C118.233 11.5664 118.633 11.4326 119.1 11.2993C119.633 11.2326 120.166 11.1997 120.7 11.1997C121.033 11.1997 121.333 11.1997 121.6 11.1997C121.866 11.2664 122.1 11.3996 122.3 11.5996C122.5 11.7329 122.633 11.8996 122.7 12.0996C122.766 12.2996 122.8 12.5326 122.8 12.7993V20.0996H126.5V11.9995C126.5 11.1995 126.266 10.5328 125.8 9.99951C125.333 9.46618 124.7 9.03304 123.9 8.69971C123.1 8.43304 122.166 8.29932 121.1 8.29932C120.033 8.29932 119.033 8.43304 118.1 8.69971C117.233 8.96637 116.466 9.26628 115.8 9.59961ZM146.8 20.0996V12.6997C146.8 11.7664 146.7 10.966 146.5 10.2993C146.233 9.63265 145.833 9.13265 145.3 8.79932C144.833 8.46598 144.133 8.29932 143.2 8.29932C142.4 8.29932 141.7 8.46598 141.1 8.79932C140.5 9.13265 140 9.59971 139.6 10.1997C139.333 9.59971 138.933 9.13265 138.4 8.79932C137.866 8.46598 137.166 8.29932 136.3 8.29932C135.5 8.29932 134.8 8.46598 134.2 8.79932C133.666 9.19932 133.233 9.69932 132.9 10.2993V8.59961H129.3V20.0996H132.9V13.0996C132.9 12.6329 132.966 12.2327 133.1 11.8994C133.3 11.6327 133.5 11.3997 133.7 11.1997C133.966 11.0664 134.266 10.9995 134.6 10.9995C135.133 10.9995 135.5 11.1662 135.7 11.4995C135.966 11.8328 136.1 12.3663 136.1 13.0996V20.0996H139.9V13.0996C139.9 12.6329 139.966 12.2327 140.1 11.8994C140.233 11.6327 140.433 11.3997 140.7 11.1997C140.966 11.0664 141.266 10.9995 141.6 10.9995C142.133 10.9995 142.5 11.1662 142.7 11.4995C142.9 11.8328 143 12.3663 143 13.0996V20.0996H146.8ZM152.7 16.4995C152.7 16.2328 152.766 15.9993 152.9 15.7993C153.033 15.5993 153.233 15.4326 153.5 15.2993C153.766 15.2326 154.133 15.1997 154.6 15.1997C155.2 15.1997 155.733 15.2995 156.2 15.4995C156.733 15.6328 157.2 15.8329 157.6 16.0996V14.4995C157.4 14.2328 157.1 13.9993 156.7 13.7993C156.3 13.5993 155.833 13.4326 155.3 13.2993C154.766 13.166 154.133 13.0996 153.4 13.0996C152 13.0996 150.9 13.4329 150.1 14.0996C149.3 14.6996 148.9 15.5664 148.9 16.6997C148.9 17.4997 149.1 18.1664 149.5 18.6997C149.833 19.233 150.333 19.6662 151 19.9995C151.6 20.1995 152.266 20.2993 153 20.2993C153.733 20.2993 154.433 20.1995 155.1 19.9995C155.7 19.7328 156.2 19.3326 156.6 18.7993C157 18.266 157.2 17.6662 157.2 16.9995L156.8 15.4995C156.8 15.9662 156.7 16.3993 156.5 16.7993C156.233 17.1327 155.933 17.3996 155.6 17.5996C155.2 17.7996 154.8 17.8994 154.4 17.8994C154.066 17.8994 153.766 17.833 153.5 17.6997C153.3 17.633 153.1 17.4993 152.9 17.2993C152.766 17.0993 152.7 16.8328 152.7 16.4995ZM149.8 9.59961L151 12.0996C151.2 12.0329 151.466 11.8997 151.8 11.6997C152.2 11.5664 152.633 11.4326 153.1 11.2993C153.633 11.2326 154.133 11.1997 154.6 11.1997C155 11.1997 155.333 11.1997 155.6 11.1997C155.866 11.2664 156.1 11.3996 156.3 11.5996C156.433 11.7329 156.566 11.8996 156.7 12.0996C156.766 12.2996 156.8 12.5326 156.8 12.7993V20.0996H160.4V11.9995C160.4 11.1995 160.166 10.5328 159.7 9.99951C159.233 9.46618 158.6 9.03304 157.8 8.69971C157 8.43304 156.1 8.29932 155.1 8.29932C154.033 8.29932 153.033 8.43304 152.1 8.69971C151.166 8.96637 150.4 9.26628 149.8 9.59961ZM170.7 13.0996V20.0996H174.7V12.6997C174.7 11.2997 174.366 10.2328 173.7 9.49951C173.033 8.69951 172 8.29932 170.6 8.29932C169.733 8.29932 169 8.46598 168.4 8.79932C167.866 9.19932 167.433 9.69932 167.1 10.2993V8.59961H163.3V20.0996H167.1V13.0996C167.1 12.6329 167.166 12.2662 167.3 11.9995C167.5 11.6662 167.733 11.3997 168 11.1997C168.333 11.0664 168.7 10.9995 169.1 10.9995C169.7 10.9995 170.1 11.1662 170.3 11.4995C170.566 11.8995 170.7 12.4329 170.7 13.0996ZM184 8.59961H176.3V11.6997H184V8.59961ZM181.9 4.59961H178.3V20.0996H181.9V4.59961ZM188.5 16.4995C188.5 16.2328 188.566 15.9993 188.7 15.7993C188.833 15.5993 189.033 15.4661 189.3 15.3994C189.566 15.2661 189.933 15.1997 190.4 15.1997C191 15.1997 191.533 15.2995 192 15.4995C192.533 15.6328 193 15.8329 193.4 16.0996V14.4995C193.2 14.2328 192.9 14.0327 192.5 13.8994C192.1 13.6994 191.633 13.5327 191.1 13.3994C190.566 13.1994 189.933 13.0996 189.2 13.0996C187.8 13.0996 186.7 13.4329 185.9 14.0996C185.1 14.7663 184.7 15.633 184.7 16.6997C184.7 17.4997 184.9 18.1664 185.3 18.6997C185.633 19.2997 186.133 19.7328 186.8 19.9995C187.4 20.2662 188.066 20.3994 188.8 20.3994C189.533 20.3994 190.233 20.2662 190.9 19.9995C191.5 19.7328 192 19.3661 192.4 18.8994C192.8 18.3661 193 17.7328 193 16.9995L192.6 15.4995C192.6 16.0328 192.5 16.466 192.3 16.7993C192.033 17.1993 191.733 17.4663 191.4 17.5996C191 17.7996 190.6 17.8994 190.2 17.8994C189.866 17.8994 189.566 17.866 189.3 17.7993C189.1 17.666 188.9 17.4993 188.7 17.2993C188.566 17.0993 188.5 16.8328 188.5 16.4995ZM185.6 9.59961L186.8 12.0996C187 12.0329 187.266 11.9326 187.6 11.7993C188 11.5993 188.433 11.4661 188.9 11.3994C189.433 11.2661 189.933 11.1997 190.4 11.1997C190.8 11.1997 191.133 11.2326 191.4 11.2993C191.666 11.366 191.9 11.4663 192.1 11.5996C192.233 11.7329 192.366 11.8996 192.5 12.0996C192.566 12.2996 192.6 12.5661 192.6 12.8994V20.0996H196.2V11.9995C196.2 11.1995 195.966 10.5328 195.5 9.99951C195.033 9.46618 194.4 9.03304 193.6 8.69971C192.8 8.43304 191.9 8.29932 190.9 8.29932C189.833 8.29932 188.833 8.43304 187.9 8.69971C186.966 8.96637 186.2 9.26628 185.6 9.59961ZM210.3 20.0996V0.599609H206.5V20.0996H210.3ZM219.7 14.3994C219.7 13.0661 219.433 11.9663 218.9 11.0996C218.433 10.2329 217.766 9.56628 216.9 9.09961C216.1 8.63294 215.233 8.39941 214.3 8.39941C213.3 8.39941 212.433 8.63294 211.7 9.09961C210.966 9.56628 210.366 10.2664 209.9 11.1997C209.5 12.0664 209.3 13.1327 209.3 14.3994C209.3 15.5994 209.5 16.6663 209.9 17.5996C210.366 18.4663 210.966 19.1329 211.7 19.5996C212.433 20.1329 213.3 20.3994 214.3 20.3994C215.233 20.3994 216.1 20.1664 216.9 19.6997C217.766 19.233 218.433 18.5329 218.9 17.5996C219.433 16.7329 219.7 15.6661 219.7 14.3994ZM215.8 14.3994C215.8 14.9994 215.666 15.4994 215.4 15.8994C215.133 16.3661 214.8 16.7328 214.4 16.9995C214 17.1995 213.533 17.2993 213 17.2993C212.6 17.2993 212.166 17.1995 211.7 16.9995C211.3 16.7328 210.966 16.3995 210.7 15.9995C210.433 15.5328 210.3 14.9994 210.3 14.3994C210.3 13.7327 210.433 13.1993 210.7 12.7993C210.966 12.3327 211.3 11.9993 211.7 11.7993C212.166 11.5326 212.6 11.3994 213 11.3994C213.533 11.3994 214 11.5326 214.4 11.7993C214.8 11.9993 215.133 12.3327 215.4 12.7993C215.666 13.266 215.8 13.7994 215.8 14.3994ZM221.8 4.29932C221.8 4.89932 222 5.39932 222.4 5.79932C222.866 6.19932 223.4 6.39941 224 6.39941C224.6 6.39941 225.1 6.19932 225.5 5.79932C225.966 5.39932 226.2 4.89932 226.2 4.29932C226.2 3.69932 225.966 3.23275 225.5 2.89941C225.1 2.49941 224.6 2.29932 224 2.29932C223.4 2.29932 222.866 2.49941 222.4 2.89941C222 3.23275 221.8 3.69932 221.8 4.29932ZM225.8 8.59961H222.2V20.0996H225.8V8.59961ZM232.7 0.599609H228.9V20.0996H232.7V0.599609ZM238.6 16.4995C238.6 16.2328 238.666 15.9993 238.8 15.7993C238.933 15.5993 239.133 15.4661 239.4 15.3994C239.666 15.2661 240.033 15.1997 240.5 15.1997C241.033 15.1997 241.566 15.2995 242.1 15.4995C242.633 15.6328 243.1 15.8329 243.5 16.0996V14.4995C243.3 14.2328 243 14.0327 242.6 13.8994C242.2 13.6994 241.733 13.5327 241.2 13.3994C240.6 13.1994 239.966 13.0996 239.3 13.0996C237.833 13.0996 236.733 13.4329 236 14.0996C235.2 14.7663 234.8 15.633 234.8 16.6997C234.8 17.4997 234.966 18.1664 235.3 18.6997C235.7 19.2997 236.2 19.7328 236.8 19.9995C237.466 20.2662 238.166 20.3994 238.9 20.3994C239.633 20.3994 240.3 20.2662 240.9 19.9995C241.566 19.7328 242.1 19.3661 242.5 18.8994C242.9 18.3661 243.1 17.7328 243.1 16.9995L242.7 15.4995C242.7 16.0328 242.566 16.466 242.3 16.7993C242.1 17.1993 241.8 17.4663 241.4 17.5996C241.066 17.7996 240.666 17.8994 240.2 17.8994C239.933 17.8994 239.666 17.866 239.4 17.7993C239.133 17.666 238.933 17.4993 238.8 17.2993C238.666 17.0993 238.6 16.8328 238.6 16.4995ZM235.6 9.59961L236.9 12.0996C237.1 12.0329 237.366 11.9326 237.7 11.7993C238.1 11.5993 238.533 11.4661 239 11.3994C239.466 11.2661 239.966 11.1997 240.5 11.1997C240.833 11.1997 241.133 11.2326 241.4 11.2993C241.733 11.366 241.966 11.4663 242.1 11.5996C242.3 11.7329 242.433 11.8996 242.5 12.0996C242.633 12.2996 242.7 12.5661 242.7 12.8994V20.0996H246.3V11.9995C246.3 11.1995 246.066 10.5328 245.6 9.99951C245.133 9.46618 244.5 9.03304 243.7 8.69971C242.9 8.43304 242 8.29932 241 8.29932C239.933 8.29932 238.933 8.43304 238 8.69971C237.066 8.96637 236.266 9.26628 235.6 9.59961ZM256.6 13.0996V20.0996H260.5V12.6997C260.5 11.2997 260.2 10.2328 259.6 9.49951C258.933 8.76618 257.866 8.39941 256.4 8.39941C255.6 8.39941 254.9 8.56608 254.3 8.89941C253.7 9.23275 253.233 9.73275 252.9 10.3994V8.59961H249.1V20.0996H252.9V13.0996C252.9 12.6329 253 12.2662 253.2 11.9995C253.333 11.6662 253.566 11.3997 253.9 11.1997C254.166 11.0664 254.5 10.9995 254.9 10.9995C255.5 10.9995 255.933 11.1996 256.2 11.5996C256.466 11.9329 256.6 12.4329 256.6 13.0996ZM271 12.0996H276L269.9 20.0996H281.4V16.6997H276.5L282.2 8.59961H271V12.0996ZM283 14.3994C283 15.5994 283.3 16.6663 283.9 17.5996C284.433 18.4663 285.2 19.1664 286.2 19.6997C287.2 20.1664 288.333 20.3994 289.6 20.3994C290.866 20.3994 291.966 20.1664 292.9 19.6997C293.9 19.1664 294.7 18.4663 295.3 17.5996C295.9 16.6663 296.2 15.5994 296.2 14.3994C296.2 13.1994 295.9 12.166 295.3 11.2993C294.7 10.366 293.9 9.66637 292.9 9.19971C291.966 8.66637 290.866 8.39941 289.6 8.39941C288.333 8.39941 287.2 8.66637 286.2 9.19971C285.2 9.66637 284.433 10.366 283.9 11.2993C283.3 12.166 283 13.1994 283 14.3994ZM286.9 14.3994C286.9 13.8661 287.033 13.3661 287.3 12.8994C287.5 12.4327 287.8 12.0994 288.2 11.8994C288.6 11.6994 289.066 11.5996 289.6 11.5996C290.066 11.5996 290.5 11.6994 290.9 11.8994C291.3 12.0994 291.633 12.4327 291.9 12.8994C292.166 13.3661 292.3 13.8661 292.3 14.3994C292.3 14.9994 292.166 15.5328 291.9 15.9995C291.633 16.3995 291.3 16.7328 290.9 16.9995C290.5 17.1995 290.066 17.2993 289.6 17.2993C289.066 17.2993 288.6 17.1995 288.2 16.9995C287.8 16.7328 287.5 16.3995 287.3 15.9995C287.033 15.5328 286.9 14.9994 286.9 14.3994ZM297.7 14.3994C297.7 15.5994 298 16.6663 298.6 17.5996C299.133 18.4663 299.9 19.1664 300.9 19.6997C301.9 20.1664 303.033 20.3994 304.3 20.3994C305.566 20.3994 306.7 20.1664 307.7 19.6997C308.7 19.1664 309.466 18.4663 310 17.5996C310.6 16.6663 310.9 15.5994 310.9 14.3994C310.9 13.1994 310.6 12.166 310 11.2993C309.466 10.366 308.7 9.66637 307.7 9.19971C306.7 8.66637 305.566 8.39941 304.3 8.39941C303.033 8.39941 301.9 8.66637 300.9 9.19971C299.9 9.66637 299.133 10.366 298.6 11.2993C298 12.166 297.7 13.1994 297.7 14.3994ZM301.6 14.3994C301.6 13.8661 301.733 13.3661 302 12.8994C302.266 12.4327 302.6 12.0994 303 11.8994C303.4 11.6994 303.833 11.5996 304.3 11.5996C304.766 11.5996 305.2 11.6994 305.6 11.8994C306.066 12.0994 306.4 12.4327 306.6 12.8994C306.866 13.3661 307 13.8661 307 14.3994C307 14.9994 306.866 15.5328 306.6 15.9995C306.4 16.3995 306.066 16.7328 305.6 16.9995C305.2 17.1995 304.766 17.2993 304.3 17.2993C303.833 17.2993 303.4 17.1995 303 16.9995C302.6 16.7328 302.266 16.3995 302 15.9995C301.733 15.5328 301.6 14.9994 301.6 14.3994ZM330.7 20.1997V12.7993C330.7 11.866 330.566 11.0661 330.3 10.3994C330.1 9.73275 329.733 9.23275 329.2 8.89941C328.666 8.56608 327.966 8.39941 327.1 8.39941C326.3 8.39941 325.6 8.56608 325 8.89941C324.333 9.23275 323.8 9.69932 323.4 10.2993C323.2 9.69932 322.833 9.23275 322.3 8.89941C321.766 8.56608 321.033 8.39941 320.1 8.39941C319.3 8.39941 318.633 8.56608 318.1 8.89941C317.566 9.29941 317.133 9.79941 316.8 10.3994V8.69971H313.1V20.1997H316.8V13.1997C316.8 12.733 316.866 12.3328 317 11.9995C317.133 11.7328 317.333 11.4993 317.6 11.2993C317.866 11.166 318.166 11.0996 318.5 11.0996C319.033 11.0996 319.4 11.2663 319.6 11.5996C319.8 11.9329 319.9 12.4664 319.9 13.1997V20.1997H323.7V13.1997C323.7 12.733 323.766 12.3328 323.9 11.9995C324.1 11.7328 324.3 11.4993 324.5 11.2993C324.766 11.166 325.066 11.0996 325.4 11.0996C325.933 11.0996 326.3 11.2663 326.5 11.5996C326.766 11.9329 326.9 12.4664 326.9 13.1997V20.1997H330.7ZM353.6 0.699707H349.9V20.1997H353.6V0.699707ZM340.5 14.3994C340.5 15.7327 340.733 16.833 341.2 17.6997C341.733 18.633 342.433 19.2997 343.3 19.6997C344.1 20.1664 344.966 20.3994 345.9 20.3994C346.9 20.3994 347.766 20.1664 348.5 19.6997C349.233 19.233 349.833 18.5329 350.3 17.5996C350.7 16.7329 350.9 15.6661 350.9 14.3994C350.9 13.1994 350.7 12.133 350.3 11.1997C349.833 10.333 349.233 9.66637 348.5 9.19971C347.766 8.66637 346.9 8.39941 345.9 8.39941C344.966 8.39941 344.1 8.63294 343.3 9.09961C342.433 9.56628 341.733 10.2664 341.2 11.1997C340.733 12.0664 340.5 13.1327 340.5 14.3994ZM344.4 14.3994C344.4 13.8661 344.533 13.3661 344.8 12.8994C345.066 12.4327 345.4 12.0994 345.8 11.8994C346.2 11.6327 346.666 11.4995 347.2 11.4995C347.6 11.4995 348 11.5993 348.4 11.7993C348.866 12.066 349.233 12.4327 349.5 12.8994C349.766 13.2994 349.9 13.7994 349.9 14.3994C349.9 15.0661 349.766 15.6329 349.5 16.0996C349.233 16.4996 348.866 16.8329 348.4 17.0996C348 17.2996 347.6 17.3994 347.2 17.3994C346.666 17.3994 346.2 17.2996 345.8 17.0996C345.4 16.8329 345.066 16.4662 344.8 15.9995C344.533 15.5328 344.4 14.9994 344.4 14.3994ZM359.5 16.5996C359.5 16.3329 359.566 16.0994 359.7 15.8994C359.833 15.6994 360.033 15.5327 360.3 15.3994C360.566 15.3327 360.933 15.2993 361.4 15.2993C361.933 15.2993 362.466 15.3996 363 15.5996C363.533 15.7329 364 15.933 364.4 16.1997V14.5996C364.2 14.3329 363.9 14.0994 363.5 13.8994C363.1 13.6994 362.633 13.5327 362.1 13.3994C361.5 13.2661 360.866 13.1997 360.2 13.1997C358.733 13.1997 357.633 13.533 356.9 14.1997C356.1 14.7997 355.7 15.666 355.7 16.7993C355.7 17.5993 355.866 18.266 356.2 18.7993C356.6 19.3326 357.1 19.7663 357.7 20.0996C358.366 20.2996 359.066 20.3994 359.8 20.3994C360.533 20.3994 361.2 20.2996 361.8 20.0996C362.466 19.8329 363 19.4327 363.4 18.8994C363.8 18.3661 364 17.7663 364 17.0996L363.6 15.5996C363.6 16.0663 363.466 16.4994 363.2 16.8994C363 17.2327 362.7 17.4997 362.3 17.6997C361.966 17.8997 361.566 17.9995 361.1 17.9995C360.833 17.9995 360.566 17.9326 360.3 17.7993C360.033 17.7326 359.833 17.5994 359.7 17.3994C359.566 17.1994 359.5 16.9329 359.5 16.5996ZM356.5 9.69971L357.8 12.1997C358 12.133 358.266 11.9993 358.6 11.7993C359 11.666 359.433 11.5327 359.9 11.3994C360.366 11.2661 360.866 11.1997 361.4 11.1997C361.733 11.1997 362.033 11.2326 362.3 11.2993C362.633 11.366 362.866 11.4997 363 11.6997C363.2 11.833 363.333 11.9997 363.4 12.1997C363.533 12.3997 363.6 12.6327 363.6 12.8994V20.1997H367.2V12.0996C367.2 11.2996 366.966 10.6329 366.5 10.0996C366.033 9.49961 365.4 9.06598 364.6 8.79932C363.8 8.53265 362.9 8.39941 361.9 8.39941C360.833 8.39941 359.833 8.53265 358.9 8.79932C357.966 9.06598 357.166 9.36637 356.5 9.69971ZM373.8 20.1997V8.69971H370V20.1997H373.8ZM377.2 12.5996L378.8 9.39941C378.6 9.06608 378.3 8.83304 377.9 8.69971C377.5 8.49971 377.1 8.39941 376.7 8.39941C376.1 8.39941 375.5 8.63294 374.9 9.09961C374.3 9.49961 373.833 10.033 373.5 10.6997C373.1 11.433 372.9 12.2664 372.9 13.1997L373.8 14.4995C373.8 13.9662 373.9 13.4996 374.1 13.0996C374.233 12.7663 374.433 12.4664 374.7 12.1997C374.966 11.9997 375.3 11.8994 375.7 11.8994C376.033 11.8994 376.3 11.9663 376.5 12.0996C376.766 12.2329 377 12.3996 377.2 12.5996ZM381 15.9995L379.4 18.4995C379.933 18.8995 380.5 19.2663 381.1 19.5996C381.7 19.9329 382.366 20.1994 383.1 20.3994C383.766 20.5994 384.533 20.6997 385.4 20.6997C386.733 20.6997 387.8 20.3664 388.6 19.6997C389.333 19.0997 389.7 18.1661 389.7 16.8994C389.7 16.2327 389.533 15.6664 389.2 15.1997C388.933 14.7997 388.533 14.4329 388 14.0996C387.533 13.8329 387 13.5994 386.4 13.3994C385.8 13.1994 385.3 13.0327 384.9 12.8994C384.5 12.6994 384.2 12.5327 384 12.3994C383.8 12.1994 383.7 11.9993 383.7 11.7993C383.7 11.5326 383.8 11.333 384 11.1997C384.133 11.133 384.4 11.0996 384.8 11.0996C385.266 11.0996 385.833 11.2328 386.5 11.4995C387.1 11.7662 387.633 12.1329 388.1 12.5996L389.5 10.0996C389.033 9.76628 388.533 9.49932 388 9.29932C387.533 9.03265 387 8.83304 386.4 8.69971C385.8 8.49971 385.166 8.39941 384.5 8.39941C383.7 8.39941 382.966 8.53265 382.3 8.79932C381.7 9.06598 381.2 9.43275 380.8 9.89941C380.4 10.3661 380.2 10.9664 380.2 11.6997C380.2 12.433 380.366 13.0328 380.7 13.4995C381.033 13.9662 381.433 14.3329 381.9 14.5996C382.433 14.8663 382.966 15.0993 383.5 15.2993C384.1 15.4993 384.566 15.666 384.9 15.7993C385.3 15.9993 385.566 16.1994 385.7 16.3994C385.833 16.5327 385.9 16.7328 385.9 16.9995C385.9 17.2662 385.833 17.4663 385.7 17.5996C385.5 17.7996 385.2 17.8994 384.8 17.8994C384.533 17.8994 384.233 17.833 383.9 17.6997C383.5 17.633 383.066 17.4664 382.6 17.1997C382.133 16.8664 381.6 16.4662 381 15.9995Z" fill="#202020"/>
</svg>
