<svg width="204" height="16" viewBox="0 0 204 16" fill="none" xmlns="http://www.w3.org/2000/svg">
<path d="M8.90018 1.29883V2.49902H5.50018V11.999H4.10019V2.49902H0.700195V1.29883H8.90018ZM11.7002 4.09912V11.999H10.3002V4.09912H11.7002ZM10.3002 1.99902C10.3002 1.73236 10.3668 1.53226 10.5002 1.39893C10.6335 1.26559 10.8335 1.19922 11.1002 1.19922C11.3669 1.19922 11.5669 1.26559 11.7002 1.39893C11.8335 1.53226 11.9002 1.73236 11.9002 1.99902C11.9002 2.19902 11.8335 2.36569 11.7002 2.49902C11.5669 2.63236 11.3669 2.69922 11.1002 2.69922C10.8335 2.69922 10.6335 2.63236 10.5002 2.49902C10.3668 2.36569 10.3002 2.19902 10.3002 1.99902ZM19.6002 4.99902L15.2002 10.8989H19.8002V11.999H13.5002V10.999L17.9002 5.19922H13.6002V4.09912H19.6002V4.99902ZM22.8002 3.99902V11.8989H21.5002V3.99902H22.8002ZM21.3002 1.89893C21.3002 1.69893 21.3668 1.53226 21.5002 1.39893C21.6335 1.19893 21.8335 1.09912 22.1002 1.09912C22.3669 1.09912 22.5669 1.19893 22.7002 1.39893C22.8335 1.53226 22.9002 1.69893 22.9002 1.89893C22.9002 2.09893 22.8335 2.29902 22.7002 2.49902C22.5669 2.63236 22.3669 2.69922 22.1002 2.69922C21.8335 2.69922 21.6335 2.63236 21.5002 2.49902C21.3668 2.29902 21.3002 2.09893 21.3002 1.89893ZM24.9002 3.99902H26.2002V4.89893C26.8002 4.23226 27.6002 3.89893 28.6002 3.89893C29.7335 3.89893 30.5002 4.29912 30.9002 5.09912C31.1668 4.76579 31.5002 4.46589 31.9002 4.19922C32.3002 3.99922 32.8002 3.89893 33.4002 3.89893C35.1335 3.89893 36.0002 4.79912 36.0002 6.59912V11.8989H34.7002V6.69922C34.7002 6.16589 34.5668 5.73226 34.3002 5.39893C34.0335 5.13226 33.6002 4.99902 33.0002 4.99902C32.4669 4.99902 32.0335 5.16569 31.7002 5.49902C31.3669 5.76569 31.2002 6.16589 31.2002 6.69922V11.8989H29.8002V6.69922C29.8002 5.56589 29.2335 4.99902 28.1002 4.99902C27.2335 4.99902 26.6335 5.39922 26.3002 6.19922V11.8989H24.9002V3.99902ZM39.6002 0.699219V11.999H38.2002V0.699219H39.6002ZM48.1002 11.999H46.7002C46.5669 11.799 46.5002 11.4991 46.5002 11.0991C45.8335 11.7658 45.0669 12.0991 44.2002 12.0991C43.4002 12.0991 42.7668 11.899 42.3002 11.499C41.7668 11.0324 41.5002 10.4655 41.5002 9.79883C41.5002 8.93216 41.8335 8.26549 42.5002 7.79883C43.1002 7.39883 43.9669 7.19922 45.1002 7.19922H46.4002V6.49902C46.4002 6.03236 46.2668 5.66559 46.0002 5.39893C45.7335 5.13226 45.3335 4.99902 44.8002 4.99902C44.2668 4.99902 43.8669 5.13226 43.6002 5.39893C43.2669 5.59893 43.1002 5.86589 43.1002 6.19922H41.7002C41.7002 5.79922 41.8335 5.43245 42.1002 5.09912C42.3669 4.69912 42.7668 4.39922 43.3002 4.19922C43.7668 3.99922 44.2668 3.89893 44.8002 3.89893C45.7335 3.89893 46.4669 4.13245 47.0002 4.59912C47.5335 5.06579 47.8002 5.69902 47.8002 6.49902V10.0991C47.8002 10.8325 47.9002 11.3988 48.1002 11.7988V11.999ZM44.4002 10.999C44.8002 10.999 45.2002 10.8992 45.6002 10.6992C46.0002 10.4992 46.2668 10.1988 46.4002 9.79883V8.19922H45.4002C43.7335 8.19922 42.9002 8.69922 42.9002 9.69922C42.9002 10.0992 43.0335 10.4326 43.3002 10.6992C43.5668 10.8992 43.9335 10.999 44.4002 10.999ZM54.5002 9.89893C54.5002 9.56559 54.3669 9.29912 54.1002 9.09912C53.8335 8.89912 53.3669 8.73245 52.7002 8.59912C52.0335 8.39912 51.4669 8.19902 51.0002 7.99902C50.6002 7.79902 50.3335 7.5655 50.2002 7.29883C50.0002 7.03216 49.9002 6.69883 49.9002 6.29883C49.9002 5.63216 50.1669 5.09922 50.7002 4.69922C51.2335 4.23255 51.9335 3.99902 52.8002 3.99902C53.6668 3.99902 54.4002 4.23255 55.0002 4.69922C55.5335 5.16589 55.8002 5.76569 55.8002 6.49902H54.5002C54.5002 6.09902 54.3335 5.76569 54.0002 5.49902C53.6669 5.23236 53.2668 5.09912 52.8002 5.09912C52.3335 5.09912 51.9335 5.19893 51.6002 5.39893C51.3335 5.59893 51.2002 5.89883 51.2002 6.29883C51.2002 6.5655 51.3335 6.79902 51.6002 6.99902C51.8669 7.13236 52.3335 7.29902 53.0002 7.49902C53.6669 7.63236 54.2335 7.79902 54.7002 7.99902C55.1002 8.19902 55.4002 8.46549 55.6002 8.79883C55.8002 9.06549 55.9002 9.43226 55.9002 9.89893C55.9002 10.5656 55.6002 11.1325 55.0002 11.5991C54.4669 11.9991 53.7335 12.1992 52.8002 12.1992C52.2002 12.1992 51.6669 12.0989 51.2002 11.8989C50.6669 11.6323 50.2668 11.2989 50.0002 10.8989C49.7335 10.4989 49.6002 10.0658 49.6002 9.59912H50.9002C50.9668 10.0658 51.1669 10.4326 51.5002 10.6992C51.8335 10.9659 52.2668 11.0991 52.8002 11.0991C53.3335 11.0991 53.7669 10.9988 54.1002 10.7988C54.3669 10.5988 54.5002 10.2989 54.5002 9.89893ZM59.0002 0.798828V5.09912C59.6002 4.36579 60.4002 3.99902 61.4002 3.99902C63.0668 3.99902 63.9002 4.93216 63.9002 6.79883V11.999H62.5002V6.79883C62.5002 6.19883 62.3669 5.76569 62.1002 5.49902C61.9002 5.23236 61.5002 5.09912 60.9002 5.09912C60.5002 5.09912 60.1335 5.23236 59.8002 5.49902C59.4668 5.69902 59.2002 5.99893 59.0002 6.39893V11.999H57.7002V0.798828H59.0002ZM66.3002 2.19922H67.7002V4.09912H69.2002V5.19922H67.7002V10.0991C67.7002 10.4325 67.7668 10.6655 67.9002 10.7988C68.0335 10.9322 68.2669 10.999 68.6002 10.999C68.7335 10.999 68.9335 10.9656 69.2002 10.8989V11.999C68.8669 12.1324 68.5335 12.1992 68.2002 12.1992C67.6002 12.1992 67.1335 11.9991 66.8002 11.5991C66.4668 11.2658 66.3002 10.7658 66.3002 10.0991V5.19922H64.9002V4.09912H66.3002V2.19922ZM72.2002 4.09912V12.0991H70.9002V4.09912H72.2002ZM70.7002 1.99902C70.7002 1.79902 70.7668 1.63236 70.9002 1.49902C71.0335 1.36569 71.2335 1.29883 71.5002 1.29883C71.7669 1.29883 71.9669 1.36569 72.1002 1.49902C72.2335 1.63236 72.3002 1.79902 72.3002 1.99902C72.3002 2.26569 72.2335 2.46579 72.1002 2.59912C71.9669 2.73245 71.7669 2.79883 71.5002 2.79883C71.2335 2.79883 71.0335 2.73245 70.9002 2.59912C70.7668 2.46579 70.7002 2.26569 70.7002 1.99902ZM78.2002 4.09912V5.39893C78.0002 5.33226 77.7669 5.29883 77.5002 5.29883C76.6335 5.29883 76.0335 5.66559 75.7002 6.39893V12.0991H74.4002V4.09912H75.7002V5.09912C76.1669 4.36579 76.8002 3.99902 77.6002 3.99902C77.8669 3.99902 78.0669 4.03245 78.2002 4.09912ZM80.9002 0.798828V12.0991H79.5002V0.798828H80.9002ZM84.6002 4.09912V12.0991H83.2002V4.09912H84.6002ZM83.2002 1.99902C83.2002 1.79902 83.2668 1.63236 83.4002 1.49902C83.5335 1.36569 83.7335 1.29883 84.0002 1.29883C84.2669 1.29883 84.4669 1.36569 84.6002 1.49902C84.7335 1.63236 84.8002 1.79902 84.8002 1.99902C84.8002 2.26569 84.7335 2.46579 84.6002 2.59912C84.4669 2.73245 84.2669 2.79883 84.0002 2.79883C83.7335 2.79883 83.5335 2.73245 83.4002 2.59912C83.2668 2.46579 83.2002 2.26569 83.2002 1.99902ZM88.3002 0.798828V12.0991H86.9002V0.798828H88.3002ZM90.2002 7.99902C90.2002 6.79902 90.4669 5.83245 91.0002 5.09912C91.6002 4.36579 92.3668 3.99902 93.3002 3.99902C94.2335 3.99902 94.9669 4.33236 95.5002 4.99902L95.6002 4.09912H96.9002V11.8989C96.9002 12.8989 96.5668 13.6988 95.9002 14.2988C95.3002 14.8988 94.5002 15.1992 93.5002 15.1992C92.9002 15.1992 92.3335 15.0655 91.8002 14.7988C91.2668 14.5988 90.8669 14.2655 90.6002 13.7988L91.3002 12.999C91.8335 13.7324 92.5335 14.0991 93.4002 14.0991C94.0668 14.0991 94.5668 13.899 94.9002 13.499C95.3002 13.1657 95.5002 12.6657 95.5002 11.999V11.2988C94.9669 11.8988 94.2335 12.1992 93.3002 12.1992C92.3668 12.1992 91.6002 11.8325 91.0002 11.0991C90.4669 10.3658 90.2002 9.33236 90.2002 7.99902ZM91.5002 8.19922C91.5002 9.06589 91.7002 9.76549 92.1002 10.2988C92.4335 10.8322 92.9335 11.0991 93.6002 11.0991C94.4669 11.0991 95.1002 10.6989 95.5002 9.89893V6.29883C95.1002 5.49883 94.4669 5.09912 93.6002 5.09912C92.9335 5.09912 92.4335 5.36559 92.1002 5.89893C91.7002 6.43226 91.5002 7.19922 91.5002 8.19922ZM105.2 12.0991H103.8C103.734 11.8991 103.667 11.5992 103.6 11.1992C103 11.8659 102.234 12.1992 101.3 12.1992C100.567 12.1992 99.9335 11.9991 99.4002 11.5991C98.9335 11.1325 98.7002 10.5656 98.7002 9.89893C98.7002 9.03226 99.0002 8.39902 99.6002 7.99902C100.267 7.53236 101.167 7.29883 102.3 7.29883H103.6V6.59912C103.6 6.13245 103.467 5.76569 103.2 5.49902C102.867 5.23236 102.434 5.09912 101.9 5.09912C101.434 5.09912 101.034 5.23236 100.7 5.49902C100.367 5.69902 100.2 5.96549 100.2 6.29883H98.8002C98.8002 5.89883 98.9335 5.53255 99.2002 5.19922C99.5335 4.79922 99.9335 4.49883 100.4 4.29883C100.867 4.09883 101.4 3.99902 102 3.99902C102.934 3.99902 103.634 4.23255 104.1 4.69922C104.634 5.16589 104.9 5.79912 104.9 6.59912V10.1992C104.9 10.9326 105 11.4989 105.2 11.8989V12.0991ZM101.5 11.0991C101.967 11.0991 102.367 10.9988 102.7 10.7988C103.1 10.5988 103.4 10.2989 103.6 9.89893V8.29883H102.5C100.834 8.29883 100 8.79883 100 9.79883C100 10.1988 100.134 10.5322 100.4 10.7988C100.734 10.9988 101.1 11.0991 101.5 11.0991ZM107.1 4.19922H108.3L108.4 5.19922C109 4.46589 109.8 4.09912 110.8 4.09912C112.467 4.09912 113.3 5.03226 113.3 6.89893V12.0991H111.9V6.89893C111.9 6.29893 111.767 5.86579 111.5 5.59912C111.3 5.33245 110.9 5.19922 110.3 5.19922C109.9 5.19922 109.534 5.33245 109.2 5.59912C108.867 5.79912 108.6 6.09902 108.4 6.49902V12.0991H107.1V4.19922ZM123.4 4.19922L125.4 10.2988L127.3 4.19922H128.7L125.9 12.1992H124.8L122 4.19922H123.4ZM131.5 4.19922V12.1992H130.2V4.19922H131.5ZM130 2.09912C130 1.89912 130.067 1.73245 130.2 1.59912C130.334 1.46579 130.534 1.39893 130.8 1.39893C131.067 1.39893 131.267 1.46579 131.4 1.59912C131.534 1.73245 131.6 1.89912 131.6 2.09912C131.6 2.36579 131.534 2.56589 131.4 2.69922C131.267 2.83255 131.067 2.89893 130.8 2.89893C130.534 2.89893 130.334 2.83255 130.2 2.69922C130.067 2.56589 130 2.36579 130 2.09912ZM133.3 8.19922V8.09912C133.3 6.89912 133.6 5.93255 134.2 5.19922C134.734 4.46589 135.467 4.09912 136.4 4.09912C137.334 4.09912 138.067 4.43245 138.6 5.09912V0.898926H140V12.1992H138.7V11.2988C138.167 11.9655 137.4 12.2988 136.4 12.2988C135.467 12.2988 134.734 11.9326 134.2 11.1992C133.6 10.4659 133.3 9.46589 133.3 8.19922ZM134.7 8.29883C134.7 9.16549 134.867 9.86559 135.2 10.3989C135.6 10.9323 136.1 11.1992 136.7 11.1992C137.567 11.1992 138.2 10.799 138.6 9.99902V6.39893C138.2 5.66559 137.6 5.29883 136.8 5.29883C136.133 5.29883 135.6 5.53236 135.2 5.99902C134.867 6.53236 134.7 7.29883 134.7 8.29883ZM145.4 12.2988C144.334 12.2988 143.467 11.9655 142.8 11.2988C142.067 10.5655 141.7 9.59893 141.7 8.39893V8.19922C141.7 7.39922 141.867 6.69912 142.2 6.09912C142.467 5.49912 142.867 4.99912 143.4 4.59912C144 4.26579 144.6 4.09912 145.2 4.09912C146.267 4.09912 147.067 4.43245 147.6 5.09912C148.2 5.76579 148.5 6.73236 148.5 7.99902V8.59912H143.1C143.1 9.39912 143.334 10.0324 143.8 10.499C144.2 10.9657 144.734 11.1992 145.4 11.1992C145.934 11.1992 146.367 11.0989 146.7 10.8989C147.034 10.6989 147.3 10.4325 147.5 10.0991L148.4 10.7988C147.734 11.7988 146.734 12.2988 145.4 12.2988ZM145.2 5.19922C144.667 5.19922 144.2 5.39883 143.8 5.79883C143.467 6.19883 143.234 6.76569 143.1 7.49902H147.1V7.39893C147.1 6.73226 146.934 6.19883 146.6 5.79883C146.267 5.39883 145.8 5.19922 145.2 5.19922ZM149.7 8.19922V8.09912C149.7 7.36579 149.834 6.66569 150.1 5.99902C150.434 5.39902 150.867 4.93245 151.4 4.59912C151.934 4.26579 152.567 4.09912 153.3 4.09912C154.367 4.09912 155.234 4.46589 155.9 5.19922C156.567 5.93255 156.9 6.93255 156.9 8.19922V8.29883C156.9 9.09883 156.734 9.79893 156.4 10.3989C156.134 10.9989 155.734 11.4655 155.2 11.7988C154.667 12.1322 154.034 12.2988 153.3 12.2988C152.234 12.2988 151.367 11.9326 150.7 11.1992C150.034 10.4659 149.7 9.46589 149.7 8.19922ZM151 8.29883C151 9.16549 151.2 9.86559 151.6 10.3989C152.067 10.9323 152.633 11.1992 153.3 11.1992C153.967 11.1992 154.5 10.9323 154.9 10.3989C155.3 9.86559 155.5 9.09912 155.5 8.09912C155.5 7.23245 155.3 6.53236 154.9 5.99902C154.5 5.46569 153.967 5.19922 153.3 5.19922C152.633 5.19922 152.1 5.46569 151.7 5.99902C151.234 6.53236 151 7.29883 151 8.29883ZM158.3 8.19922V8.09912C158.3 6.89912 158.567 5.93255 159.1 5.19922C159.7 4.46589 160.467 4.09912 161.4 4.09912C162.334 4.09912 163.067 4.43245 163.6 5.09912V0.898926H164.9V12.1992H163.7L163.6 11.2988C163.067 11.9655 162.334 12.2988 161.4 12.2988C160.467 12.2988 159.7 11.9326 159.1 11.1992C158.567 10.4659 158.3 9.46589 158.3 8.19922ZM159.6 8.29883C159.6 9.16549 159.8 9.86559 160.2 10.3989C160.534 10.9323 161.034 11.1992 161.7 11.1992C162.567 11.1992 163.2 10.799 163.6 9.99902V6.39893C163.2 5.66559 162.567 5.29883 161.7 5.29883C161.034 5.29883 160.534 5.53236 160.2 5.99902C159.8 6.53236 159.6 7.29883 159.6 8.29883ZM173.4 12.1992H171.9C171.834 11.9992 171.767 11.6988 171.7 11.2988C171.1 11.9655 170.367 12.2988 169.5 12.2988C168.7 12.2988 168.067 12.0992 167.6 11.6992C167.067 11.2326 166.8 10.6657 166.8 9.99902C166.8 9.13236 167.133 8.49912 167.8 8.09912C168.4 7.63245 169.267 7.39893 170.4 7.39893H171.7V6.69922C171.7 6.23255 171.567 5.86579 171.3 5.59912C171.034 5.33245 170.6 5.19922 170 5.19922C169.534 5.19922 169.133 5.33245 168.8 5.59912C168.467 5.79912 168.3 6.06559 168.3 6.39893H167C167 6.06559 167.134 5.69883 167.4 5.29883C167.667 4.89883 168.034 4.59893 168.5 4.39893C169.034 4.19893 169.567 4.09912 170.1 4.09912C171.034 4.09912 171.767 4.33216 172.3 4.79883C172.834 5.26549 173.1 5.89922 173.1 6.69922V10.2988C173.1 11.0322 173.2 11.6325 173.4 12.0991V12.1992ZM169.7 11.0991C170.1 11.0991 170.5 10.9988 170.9 10.7988C171.3 10.5988 171.567 10.2989 171.7 9.89893V8.29883H170.7C169.034 8.29883 168.2 8.79883 168.2 9.79883C168.2 10.1988 168.334 10.5322 168.6 10.7988C168.867 10.9988 169.234 11.0991 169.7 11.0991ZM179 4.19922V5.39893C178.8 5.39893 178.6 5.39893 178.4 5.39893C177.467 5.39893 176.867 5.76569 176.6 6.49902V12.1992H175.2V4.19922H176.5V5.09912C176.967 4.43245 177.6 4.09912 178.4 4.09912C178.667 4.09912 178.867 4.13255 179 4.19922ZM184.9 10.0991C184.9 9.69912 184.767 9.39922 184.5 9.19922C184.234 8.99922 183.734 8.83255 183 8.69922C182.334 8.56589 181.8 8.39922 181.4 8.19922C181 7.93255 180.7 7.66559 180.5 7.39893C180.3 7.13226 180.2 6.79893 180.2 6.39893C180.2 5.73226 180.467 5.19883 181 4.79883C181.6 4.33216 182.334 4.09912 183.2 4.09912C184.067 4.09912 184.767 4.33216 185.3 4.79883C185.9 5.26549 186.2 5.86579 186.2 6.59912H184.8C184.8 6.19912 184.633 5.86579 184.3 5.59912C184.034 5.33245 183.667 5.19922 183.2 5.19922C182.667 5.19922 182.267 5.29902 182 5.49902C181.734 5.69902 181.6 5.99893 181.6 6.39893C181.6 6.73226 181.734 6.96579 182 7.09912C182.267 7.29912 182.734 7.46579 183.4 7.59912C184.067 7.73245 184.6 7.89912 185 8.09912C185.4 8.29912 185.7 8.56559 185.9 8.89893C186.167 9.16559 186.3 9.53236 186.3 9.99902C186.3 10.6657 186 11.2326 185.4 11.6992C184.867 12.0992 184.134 12.2988 183.2 12.2988C182.534 12.2988 181.967 12.199 181.5 11.999C181.034 11.7324 180.667 11.399 180.4 10.999C180.134 10.599 180 10.1659 180 9.69922H181.3C181.3 10.1659 181.467 10.5322 181.8 10.7988C182.2 11.0655 182.667 11.1992 183.2 11.1992C183.734 11.1992 184.134 11.0989 184.4 10.8989C184.734 10.6989 184.9 10.4325 184.9 10.0991ZM189.5 0.898926V12.1992H188.1V0.898926H189.5ZM198 12.1992H196.6C196.534 11.9992 196.467 11.6988 196.4 11.2988C195.8 11.9655 195.034 12.2988 194.1 12.2988C193.367 12.2988 192.734 12.0658 192.2 11.5991C191.734 11.1991 191.5 10.6657 191.5 9.99902C191.5 9.13236 191.8 8.46569 192.4 7.99902C193.067 7.59902 193.967 7.39893 195.1 7.39893H196.4V6.69922C196.4 6.23255 196.267 5.86579 196 5.59912C195.667 5.33245 195.234 5.19922 194.7 5.19922C194.234 5.19922 193.834 5.29902 193.5 5.49902C193.167 5.76569 193 6.06559 193 6.39893H191.6C191.6 5.99893 191.767 5.63216 192.1 5.29883C192.367 4.89883 192.734 4.59893 193.2 4.39893C193.667 4.19893 194.2 4.09912 194.8 4.09912C195.734 4.09912 196.434 4.33216 196.9 4.79883C197.434 5.26549 197.7 5.89922 197.7 6.69922V10.2988C197.7 11.0322 197.8 11.599 198 11.999V12.1992ZM194.3 11.1992C194.767 11.1992 195.2 11.0989 195.6 10.8989C195.934 10.6323 196.2 10.3324 196.4 9.99902V8.39893H195.3C193.633 8.39893 192.8 8.89893 192.8 9.89893C192.8 10.2989 192.967 10.5988 193.3 10.7988C193.567 11.0655 193.9 11.1992 194.3 11.1992ZM203.7 4.29883V5.49902C203.5 5.49902 203.267 5.49902 203 5.49902C202.134 5.49902 201.534 5.86579 201.2 6.59912V12.1992H199.9V4.29883H201.2V5.19922C201.667 4.53255 202.3 4.19922 203.1 4.19922C203.367 4.19922 203.567 4.23216 203.7 4.29883Z" fill="#777777"/>
</svg>
