<svg width="130" height="15" viewBox="0 0 130 15" fill="none" xmlns="http://www.w3.org/2000/svg">
<path d="M8.90018 1.2998V2.5H5.50018V12H4.10019V2.5H0.700195V1.2998H8.90018ZM9.10019 8.1001V8C9.10019 7.2 9.26686 6.4999 9.60019 5.8999C9.93352 5.23324 10.3668 4.73324 10.9002 4.3999C11.4335 4.06657 12.0335 3.8999 12.7002 3.8999C13.8335 3.8999 14.7335 4.26667 15.4002 5C16.0668 5.8 16.4002 6.8 16.4002 8V8.1001C16.4002 8.9001 16.2335 9.60019 15.9002 10.2002C15.6335 10.8002 15.2002 11.2668 14.6002 11.6001C14.0669 11.9334 13.4668 12.1001 12.8002 12.1001C11.6668 12.1001 10.7669 11.7333 10.1002 11C9.43352 10.2667 9.10019 9.3001 9.10019 8.1001ZM10.5002 8.1001C10.5002 8.96676 10.7002 9.66686 11.1002 10.2002C11.5002 10.7335 12.0668 11 12.8002 11C13.4668 11 14.0002 10.7335 14.4002 10.2002C14.8002 9.66686 15.0002 8.93333 15.0002 8C15.0002 7.13333 14.8002 6.43324 14.4002 5.8999C14.0002 5.2999 13.4335 5 12.7002 5C12.0335 5 11.5002 5.26647 11.1002 5.7998C10.7002 6.33314 10.5002 7.1001 10.5002 8.1001ZM17.9002 0.700195V1.6001L17.7002 4.2998H16.8002V0.700195H17.9002ZM21.2002 0.700195V12H19.8002V0.700195H21.2002ZM24.8002 4.1001V12H23.5002V4.1001H24.8002ZM23.3002 2C23.3002 1.73333 23.3668 1.53324 23.5002 1.3999C23.6335 1.26657 23.8335 1.2002 24.1002 1.2002C24.3669 1.2002 24.5669 1.26657 24.7002 1.3999C24.8335 1.53324 24.9002 1.73333 24.9002 2C24.9002 2.2 24.8335 2.36667 24.7002 2.5C24.5669 2.63333 24.3669 2.7002 24.1002 2.7002C23.8335 2.7002 23.6335 2.63333 23.5002 2.5C23.3668 2.36667 23.3002 2.2 23.3002 2ZM26.6002 8.1001V8C26.6002 6.73333 26.9002 5.73333 27.5002 5C28.0335 4.26667 28.8002 3.8999 29.8002 3.8999C30.7335 3.8999 31.4669 4.23324 32.0002 4.8999L32.1002 4.1001H33.3002V15H32.0002V11.2998C31.4002 11.8331 30.6668 12.1001 29.8002 12.1001C28.8002 12.1001 28.0335 11.7333 27.5002 11C26.9002 10.2667 26.6002 9.3001 26.6002 8.1001ZM28.0002 8.1001C28.0002 9.03343 28.2002 9.76647 28.6002 10.2998C28.9335 10.7665 29.4335 11 30.1002 11C30.9002 11 31.5335 10.6667 32.0002 10V6.1001C31.5335 5.36676 30.9002 5 30.1002 5C29.4335 5 28.9335 5.26647 28.6002 5.7998C28.2002 6.33314 28.0002 7.1001 28.0002 8.1001ZM39.9002 1.2998L42.9002 10.1001L46.0002 1.2998H47.5002L43.6002 12H42.3002L38.4002 1.2998H39.9002ZM50.4002 1.2998V12H49.0002V1.2998H50.4002ZM56.9002 7.7998H54.4002V12H53.0002V1.2998H56.9002C58.1002 1.2998 59.0335 1.6002 59.7002 2.2002C60.3669 2.8002 60.7002 3.6001 60.7002 4.6001C60.7002 5.6001 60.3669 6.4 59.7002 7C59.0335 7.53333 58.1002 7.7998 56.9002 7.7998ZM54.4002 2.5V6.7002H56.9002C57.7002 6.7002 58.3002 6.5001 58.7002 6.1001C59.1002 5.76676 59.3002 5.26676 59.3002 4.6001C59.3002 4.0001 59.1002 3.5001 58.7002 3.1001C58.3002 2.7001 57.7335 2.5 57.0002 2.5H54.4002ZM72.7002 8V8.1001C72.7002 9.3001 72.4002 10.2667 71.8002 11C71.2668 11.7333 70.5335 12.1001 69.6002 12.1001C68.6002 12.1001 67.8335 11.8002 67.3002 11.2002V15H66.0002V4.1001H67.2002L67.3002 5C67.8335 4.26667 68.6002 3.8999 69.6002 3.8999C70.5335 3.8999 71.2668 4.26667 71.8002 5C72.4002 5.73333 72.7002 6.73333 72.7002 8ZM71.3002 8C71.3002 7.06667 71.1002 6.36657 70.7002 5.8999C70.3669 5.36657 69.8669 5.1001 69.2002 5.1001C68.3335 5.1001 67.7002 5.46686 67.3002 6.2002V10C67.7002 10.6667 68.3335 11 69.2002 11C69.8669 11 70.3669 10.7665 70.7002 10.2998C71.1002 9.76647 71.3002 9 71.3002 8ZM75.9002 0.700195V12H74.5002V0.700195H75.9002ZM84.4002 12H83.0002C82.8669 11.8667 82.8002 11.6002 82.8002 11.2002C82.1335 11.8002 81.3669 12.1001 80.5002 12.1001C79.7002 12.1001 79.0669 11.9 78.6002 11.5C78.0669 11.0333 77.8002 10.4665 77.8002 9.7998C77.8002 8.9998 78.1335 8.36657 78.8002 7.8999C79.4002 7.43324 80.2668 7.2002 81.4002 7.2002H82.7002V6.6001C82.7002 6.13343 82.5668 5.73324 82.3002 5.3999C82.0335 5.13324 81.6335 5 81.1002 5C80.5669 5 80.1668 5.13324 79.9002 5.3999C79.5668 5.66657 79.4002 5.96647 79.4002 6.2998H78.0002C78.0002 5.8998 78.1335 5.5001 78.4002 5.1001C78.6668 4.76676 79.0669 4.4998 79.6002 4.2998C80.0669 4.03314 80.5669 3.8999 81.1002 3.8999C82.0335 3.8999 82.7668 4.13343 83.3002 4.6001C83.8335 5.06676 84.1002 5.7 84.1002 6.5V10.1001C84.1002 10.8334 84.2002 11.4332 84.4002 11.8999V12ZM80.7002 11C81.1002 11 81.5002 10.8668 81.9002 10.6001C82.3002 10.4001 82.5669 10.1331 82.7002 9.7998V8.1001H81.7002C80.0335 8.1001 79.2002 8.6001 79.2002 9.6001C79.2002 10.0001 79.3335 10.3334 79.6002 10.6001C79.8669 10.8668 80.2335 11 80.7002 11ZM86.7002 2.1001H88.1002V4.1001H89.5002V5.1001H88.1002V10C88.1002 10.3333 88.1668 10.5669 88.3002 10.7002C88.4335 10.9002 88.6335 11 88.9002 11C89.1002 11 89.3335 10.9666 89.6002 10.8999V12C89.2002 12.0667 88.8335 12.1001 88.5002 12.1001C87.9002 12.1001 87.4669 11.9334 87.2002 11.6001C86.8669 11.2001 86.7002 10.6667 86.7002 10V5.1001H85.3002V4.1001H86.7002V2.1001ZM93.1002 11.8999H91.8002V5H90.5002V4H91.8002V3.2002C91.8002 2.33353 92.0335 1.66686 92.5002 1.2002C92.9669 0.733529 93.6002 0.5 94.4002 0.5C94.7335 0.5 95.0335 0.533431 95.3002 0.600098V1.7002C95.0335 1.7002 94.7669 1.7002 94.5002 1.7002C94.1002 1.7002 93.7669 1.8 93.5002 2C93.2335 2.26667 93.1002 2.63343 93.1002 3.1001V4H94.8002V5H93.1002V11.8999ZM96.0002 8V7.8999C96.0002 7.0999 96.1335 6.3998 96.4002 5.7998C96.7335 5.1998 97.1669 4.73324 97.7002 4.3999C98.2335 4.06657 98.8669 3.8999 99.6002 3.8999C100.667 3.8999 101.534 4.26667 102.2 5C102.867 5.73333 103.2 6.73333 103.2 8C103.2 8.8 103.034 9.5001 102.7 10.1001C102.434 10.7001 102.034 11.2001 101.5 11.6001C100.967 11.9334 100.334 12.1001 99.6002 12.1001C98.5335 12.1001 97.6668 11.7333 97.0002 11C96.3335 10.2 96.0002 9.2 96.0002 8ZM97.3002 8C97.3002 8.93333 97.5002 9.66686 97.9002 10.2002C98.3668 10.7335 98.9335 11 99.6002 11C100.267 11 100.8 10.7335 101.2 10.2002C101.6 9.60019 101.8 8.83324 101.8 7.8999C101.8 7.03324 101.6 6.33314 101.2 5.7998C100.8 5.26647 100.267 5 99.6002 5C98.9335 5 98.4002 5.26647 98.0002 5.7998C97.5335 6.33314 97.3002 7.06667 97.3002 8ZM108.7 4V5.2002C108.5 5.2002 108.3 5.2002 108.1 5.2002C107.167 5.2002 106.534 5.56647 106.2 6.2998V11.8999H104.9V4H106.2V4.8999C106.667 4.23324 107.3 3.8999 108.1 3.8999C108.367 3.8999 108.567 3.93333 108.7 4ZM110 4H111.2L111.3 4.8999C111.834 4.23324 112.6 3.8999 113.6 3.8999C114.734 3.8999 115.5 4.3001 115.9 5.1001C116.167 4.76676 116.5 4.46686 116.9 4.2002C117.3 4.0002 117.8 3.8999 118.4 3.8999C120.134 3.8999 121.034 4.8001 121.1 6.6001V11.8999H119.7V6.7002C119.7 6.1002 119.567 5.66657 119.3 5.3999C119.034 5.13324 118.6 5 118 5C117.534 5 117.134 5.16667 116.8 5.5C116.467 5.76667 116.267 6.16686 116.2 6.7002V11.8999H114.8V6.7002C114.8 5.56686 114.234 5 113.1 5C112.234 5 111.634 5.36676 111.3 6.1001V11.8999H110V4ZM129.4 11.8999H128C127.934 11.7666 127.867 11.5001 127.8 11.1001C127.2 11.7668 126.467 12.1001 125.6 12.1001C124.8 12.1001 124.134 11.8666 123.6 11.3999C123.134 10.9999 122.9 10.4665 122.9 9.7998C122.9 8.93314 123.2 8.26647 123.8 7.7998C124.467 7.33314 125.367 7.1001 126.5 7.1001H127.8V6.5C127.8 6.03333 127.667 5.66657 127.4 5.3999C127.067 5.13324 126.634 5 126.1 5C125.634 5 125.234 5.0998 124.9 5.2998C124.567 5.56647 124.4 5.86686 124.4 6.2002H123C123 5.8002 123.167 5.43343 123.5 5.1001C123.767 4.7001 124.134 4.4002 124.6 4.2002C125.067 4.0002 125.6 3.8999 126.2 3.8999C127.134 3.8999 127.834 4.13343 128.3 4.6001C128.834 5.0001 129.1 5.5999 129.1 6.3999V10.1001C129.1 10.8334 129.2 11.3998 129.4 11.7998V11.8999ZM125.8 10.8999C126.2 10.8999 126.6 10.8001 127 10.6001C127.334 10.3334 127.6 10.0335 127.8 9.7002V8.1001H126.7C125.034 8.1001 124.2 8.56667 124.2 9.5C124.2 9.96667 124.367 10.3 124.7 10.5C124.967 10.7667 125.334 10.8999 125.8 10.8999Z" fill="#777777"/>
</svg>
