<svg width="65" height="16" viewBox="0 0 65 16" fill="none" xmlns="http://www.w3.org/2000/svg">
<path d="M8.99976 1.50078L5.89978 8.90078L2.7998 1.50078H0.799805L5.89978 12.6008L11.0997 1.50078H8.99976ZM11.5997 9.90078C11.5997 9.63411 11.6665 9.43411 11.7998 9.30078C11.8665 9.16745 12.0331 9.06744 12.2998 9.00078C12.4998 8.86744 12.7664 8.80078 13.0997 8.80078C13.4997 8.80078 13.8664 8.86744 14.1997 9.00078C14.533 9.06744 14.8664 9.23411 15.1997 9.50078V8.60078C15.0664 8.53411 14.8997 8.43411 14.6997 8.30078C14.4997 8.16745 14.2331 8.03411 13.8998 7.90078C13.5664 7.83411 13.1664 7.80078 12.6997 7.80078C11.833 7.80078 11.1664 8.00078 10.6997 8.40078C10.233 8.73411 9.99976 9.23411 9.99976 9.90078C9.99976 10.4341 10.0998 10.8341 10.2998 11.1008C10.4998 11.4341 10.7997 11.7008 11.1997 11.9008C11.5997 12.1008 11.9998 12.2008 12.3998 12.2008C12.7998 12.2008 13.1997 12.1008 13.5997 11.9008C13.9997 11.7674 14.2998 11.5674 14.4998 11.3008C14.7664 10.9674 14.8998 10.6008 14.8998 10.2008L14.6997 9.30078C14.6997 9.63411 14.5998 9.93411 14.3998 10.2008C14.2664 10.4008 14.0665 10.5674 13.7998 10.7008C13.5331 10.8341 13.2331 10.9008 12.8998 10.9008C12.6331 10.9008 12.3997 10.8674 12.1997 10.8008C12.0664 10.7341 11.9331 10.6341 11.7998 10.5008C11.6665 10.3008 11.5997 10.1008 11.5997 9.90078ZM10.4998 5.80078L11.0997 6.90078C11.2331 6.83411 11.3997 6.73411 11.5997 6.60078C11.7997 6.53411 12.0331 6.46745 12.2998 6.40078C12.5665 6.33411 12.8664 6.30078 13.1997 6.30078C13.3997 6.30078 13.5998 6.30078 13.7998 6.30078C13.9998 6.36745 14.1665 6.43411 14.2998 6.50078C14.4331 6.56744 14.5331 6.70078 14.5997 6.90078C14.6664 7.03411 14.6997 7.20078 14.6997 7.40078V12.0008H16.2998V7.10078C16.2998 6.63411 16.1664 6.23411 15.8998 5.90078C15.6331 5.56745 15.2998 5.33411 14.8998 5.20078C14.4331 5.00078 13.9331 4.90078 13.3998 4.90078C12.7331 4.90078 12.1664 5.00078 11.6997 5.20078C11.1664 5.40077 10.7664 5.60078 10.4998 5.80078ZM19.6997 0.300781H18.0997V12.0008H19.6997V0.300781ZM24.1997 5.10078H22.1997L19.2998 8.00078L22.4998 12.0008H24.4998L21.1997 8.00078L24.1997 5.10078ZM26.5997 9.80078C26.5997 9.60078 26.6665 9.43411 26.7998 9.30078C26.8665 9.10078 27.0331 8.96745 27.2998 8.90078C27.4998 8.83411 27.7664 8.80078 28.0997 8.80078C28.4997 8.80078 28.8664 8.83411 29.1997 8.90078C29.533 9.03411 29.8664 9.20078 30.1997 9.40078V8.60078C30.0664 8.46744 29.8997 8.33411 29.6997 8.20078C29.4997 8.06744 29.2331 7.96745 28.8998 7.90078C28.5664 7.76745 28.1664 7.70078 27.6997 7.70078C26.833 7.70078 26.1664 7.90078 25.6997 8.30078C25.233 8.70078 24.9998 9.23411 24.9998 9.90078C24.9998 10.3674 25.0998 10.7674 25.2998 11.1008C25.4998 11.4341 25.7997 11.6674 26.1997 11.8008C26.5997 12.0008 26.9998 12.1008 27.3998 12.1008C27.7998 12.1008 28.1997 12.0341 28.5997 11.9008C28.9997 11.7674 29.2998 11.5341 29.4998 11.2008C29.7664 10.9341 29.8998 10.5674 29.8998 10.1008L29.6997 9.20078C29.6997 9.53411 29.5998 9.83411 29.3998 10.1008C29.2664 10.3674 29.0665 10.5674 28.7998 10.7008C28.5331 10.8341 28.2331 10.9008 27.8998 10.9008C27.6331 10.9008 27.3997 10.8674 27.1997 10.8008C27.0664 10.6674 26.9331 10.5341 26.7998 10.4008C26.6665 10.2674 26.5997 10.0674 26.5997 9.80078ZM25.4998 5.70078L26.0997 6.90078C26.2331 6.76745 26.3997 6.66744 26.5997 6.60078C26.7997 6.46744 27.0331 6.36745 27.2998 6.30078C27.5665 6.23411 27.8664 6.20078 28.1997 6.20078C28.3997 6.20078 28.5998 6.23411 28.7998 6.30078C28.9998 6.30078 29.1665 6.36744 29.2998 6.50078C29.4331 6.56744 29.5331 6.66745 29.5997 6.80078C29.6664 6.93411 29.6997 7.10078 29.6997 7.30078V12.0008H31.2998V7.00078C31.2998 6.53411 31.1664 6.16745 30.8998 5.90078C30.6331 5.56745 30.2998 5.30078 29.8998 5.10078C29.4331 4.96744 28.9331 4.90078 28.3998 4.90078C27.7331 4.90078 27.1664 5.00078 26.6997 5.20078C26.1664 5.33411 25.7664 5.50078 25.4998 5.70078ZM37.5997 7.80078V12.0008H39.2998V7.60078C39.2998 6.73411 39.0997 6.06744 38.6997 5.60078C38.233 5.13411 37.6331 4.90078 36.8998 4.90078C36.4331 4.90078 35.9997 5.00078 35.5997 5.20078C35.2664 5.40077 34.9998 5.70078 34.7998 6.10078V5.10078H33.1997V12.0008H34.7998V7.80078C34.7998 7.46745 34.8664 7.16745 34.9998 6.90078C35.1331 6.70078 35.2998 6.53411 35.4998 6.40078C35.7664 6.26745 36.0331 6.20078 36.2998 6.20078C36.7665 6.20078 37.0998 6.33411 37.2998 6.60078C37.4998 6.86744 37.5997 7.26745 37.5997 7.80078ZM41.6997 9.70078L40.6997 10.6008C40.8997 10.8674 41.1664 11.1341 41.4998 11.4008C41.7664 11.6008 42.0998 11.8008 42.4998 12.0008C42.8998 12.1341 43.3331 12.2008 43.7998 12.2008C44.5331 12.2008 45.1331 12.0008 45.5997 11.6008C46.0664 11.2008 46.2998 10.6674 46.2998 10.0008C46.2998 9.60078 46.1998 9.26744 45.9998 9.00078C45.7998 8.73411 45.533 8.50078 45.1997 8.30078C44.8664 8.16745 44.4997 8.00078 44.0997 7.80078C43.8331 7.73411 43.5998 7.63411 43.3998 7.50078C43.1331 7.43411 42.9331 7.33411 42.7998 7.20078C42.6665 7.06744 42.5997 6.90077 42.5997 6.70078C42.5997 6.56744 42.6998 6.43411 42.8998 6.30078C43.0331 6.23411 43.2331 6.20078 43.4998 6.20078C43.8331 6.20078 44.1331 6.26745 44.3998 6.40078C44.7331 6.60078 45.0331 6.83411 45.2998 7.10078L46.1997 6.10078C45.9997 5.90078 45.7664 5.70078 45.4998 5.50078C45.2331 5.30078 44.8998 5.16744 44.4998 5.10078C44.2331 4.96744 43.8998 4.90078 43.4998 4.90078C43.0998 4.90078 42.6998 4.96744 42.2998 5.10078C41.9665 5.23411 41.6664 5.43411 41.3998 5.70078C41.1998 5.96744 41.0997 6.33411 41.0997 6.80078C41.0997 7.20078 41.1998 7.53411 41.3998 7.80078C41.5998 8.06745 41.8331 8.30078 42.0997 8.50078C42.4331 8.63411 42.7664 8.76745 43.0997 8.90078C43.3664 8.96745 43.6331 9.06744 43.8998 9.20078C44.0998 9.33411 44.2664 9.46744 44.3998 9.60078C44.5331 9.73411 44.5997 9.90078 44.5997 10.1008C44.5997 10.3008 44.5331 10.4674 44.3998 10.6008C44.1998 10.7341 43.9664 10.8008 43.6997 10.8008C43.433 10.8008 43.1998 10.7674 42.9998 10.7008C42.7998 10.6341 42.5665 10.5008 42.2998 10.3008C42.0998 10.1008 41.8997 9.90077 41.6997 9.70078ZM47.5997 2.30078C47.5997 2.56745 47.6998 2.80078 47.8998 3.00078C48.1664 3.20078 48.433 3.30078 48.6997 3.30078C48.9664 3.30078 49.1998 3.20078 49.3998 3.00078C49.5998 2.80078 49.6997 2.56745 49.6997 2.30078C49.6997 2.03411 49.5998 1.80078 49.3998 1.60078C49.1998 1.40078 48.9664 1.30078 48.6997 1.30078C48.433 1.30078 48.1664 1.40078 47.8998 1.60078C47.6998 1.80078 47.5997 2.03411 47.5997 2.30078ZM49.4998 5.10078H47.8998V12.0008H49.4998V5.10078ZM53.2998 15.3008L57.7998 5.10078H56.0997L53.8998 10.5008H54.6997L52.4998 5.10078H50.5997L53.3998 11.1008L51.5997 15.3008H53.2998ZM59.7998 9.80078C59.7998 9.60078 59.8331 9.43411 59.8998 9.30078C60.0331 9.10078 60.1998 8.96745 60.3998 8.90078C60.5998 8.83411 60.8664 8.80078 61.1997 8.80078C61.5997 8.80078 61.9998 8.83411 62.3998 8.90078C62.7331 9.03411 63.0331 9.20078 63.2998 9.40078V8.60078C63.2331 8.46744 63.0998 8.33411 62.8998 8.20078C62.6998 8.06744 62.3998 7.96745 61.9998 7.90078C61.6664 7.76745 61.2998 7.70078 60.8998 7.70078C60.0331 7.70078 59.3664 7.90078 58.8998 8.30078C58.4331 8.70078 58.1997 9.23411 58.1997 9.90078C58.1997 10.3674 58.2998 10.7674 58.4998 11.1008C58.6998 11.4341 58.9998 11.6674 59.3998 11.8008C59.7331 12.0008 60.1331 12.1008 60.5997 12.1008C60.9997 12.1008 61.3664 12.0341 61.6997 11.9008C62.0997 11.7674 62.433 11.5341 62.6997 11.2008C62.9664 10.9341 63.0997 10.5674 63.0997 10.1008L62.8998 9.20078C62.8998 9.53411 62.7997 9.83411 62.5997 10.1008C62.4664 10.3674 62.2664 10.5674 61.9998 10.7008C61.7331 10.8341 61.4331 10.9008 61.0997 10.9008C60.8331 10.9008 60.5998 10.8674 60.3998 10.8008C60.1998 10.6674 60.0664 10.5341 59.9998 10.4008C59.8664 10.2674 59.7998 10.0674 59.7998 9.80078ZM58.5997 5.70078L59.2998 6.90078C59.3665 6.76745 59.4997 6.66744 59.6997 6.60078C59.8997 6.46744 60.1664 6.36745 60.4998 6.30078C60.7664 6.23411 61.0664 6.20078 61.3998 6.20078C61.5998 6.20078 61.7998 6.23411 61.9998 6.30078C62.1331 6.30078 62.2664 6.36744 62.3998 6.50078C62.5331 6.56744 62.633 6.66745 62.6997 6.80078C62.833 6.93411 62.8998 7.10078 62.8998 7.30078V12.0008H64.3998V7.00078C64.3998 6.53411 64.2997 6.16745 64.0997 5.90078C63.8331 5.56745 63.4664 5.30078 62.9998 5.10078C62.5998 4.96744 62.0998 4.90078 61.4998 4.90078C60.8998 4.90078 60.3331 5.00078 59.7998 5.20078C59.3331 5.33411 58.9331 5.50078 58.5997 5.70078Z" fill="#202020"/>
</svg>
