<svg width="46" height="15" viewBox="0 0 46 15" fill="none" xmlns="http://www.w3.org/2000/svg">
<path d="M1.60022 0.299316L3.30029 7.59937L3.50024 8.99927L3.80029 7.79932L5.90027 0.299316H7.10022L9.2002 7.79932L9.50024 9.09937L9.7002 7.59937L11.4003 0.299316H12.8003L10.2002 10.9993H8.90027L6.7002 3.19922L6.50024 2.39917L6.40027 3.19922L4.10022 10.9993H2.80029L0.200195 0.299316H1.60022ZM17.8003 2.99927V4.29932C17.6003 4.23265 17.3669 4.19922 17.1002 4.19922C16.2336 4.19922 15.6336 4.59917 15.3003 5.39917V10.9993H14.0002V3.09937H15.3003V3.99927C15.767 3.26593 16.4002 2.89917 17.2002 2.89917C17.4669 2.89917 17.667 2.9326 17.8003 2.99927ZM20.5002 3.09937V10.9993H19.1002V3.09937H20.5002ZM19.1002 0.999268C19.1002 0.732601 19.167 0.532503 19.3003 0.39917C19.4336 0.265837 19.6336 0.199219 19.9003 0.199219C20.1669 0.199219 20.3669 0.265837 20.5002 0.39917C20.6336 0.532503 20.7002 0.732601 20.7002 0.999268C20.7002 1.19927 20.6336 1.36593 20.5002 1.49927C20.3669 1.6326 20.1669 1.69922 19.9003 1.69922C19.6336 1.69922 19.4336 1.6326 19.3003 1.49927C19.167 1.36593 19.1002 1.19927 19.1002 0.999268ZM23.2002 1.19922H24.6002V3.09937H26.0002V4.09937H24.6002V8.99927C24.6002 9.3326 24.6335 9.59932 24.7002 9.79932C24.8335 9.93265 25.0669 9.99927 25.4003 9.99927C25.6003 9.99927 25.8336 9.96584 26.1002 9.89917V10.9993C25.7002 11.0659 25.3336 11.0994 25.0002 11.0994C24.4002 11.0994 23.9669 10.9327 23.7002 10.5994C23.3669 10.1994 23.2002 9.66593 23.2002 8.99927V4.09937H21.8003V3.09937H23.2002V1.19922ZM29.1002 3.09937V10.9993H27.7002V3.09937H29.1002ZM27.7002 0.999268C27.7002 0.799268 27.7669 0.59917 27.9003 0.39917C28.0336 0.265837 28.2336 0.199219 28.5002 0.199219C28.7669 0.199219 28.9669 0.265837 29.1002 0.39917C29.2336 0.59917 29.3003 0.799268 29.3003 0.999268C29.3003 1.19927 29.2336 1.36593 29.1002 1.49927C28.9669 1.69927 28.7669 1.79932 28.5002 1.79932C28.2336 1.79932 28.0336 1.69927 27.9003 1.49927C27.7669 1.36593 27.7002 1.19927 27.7002 0.999268ZM31.3003 3.09937H32.6002V4.09937C33.2002 3.29937 34.0002 2.89917 35.0002 2.89917C36.6669 2.89917 37.5002 3.86598 37.5002 5.79932V10.9993H36.2002V5.79932C36.2002 5.19932 36.067 4.76593 35.8003 4.49927C35.5336 4.2326 35.1336 4.09937 34.6002 4.09937C34.1336 4.09937 33.7336 4.19917 33.4003 4.39917C33.0669 4.66584 32.8335 4.99917 32.7002 5.39917V10.9993H31.3003V3.09937ZM39.3003 6.99927C39.3003 5.79927 39.5669 4.8327 40.1002 4.09937C40.7002 3.36603 41.4669 2.99927 42.4003 2.99927C43.3336 2.99927 44.0669 3.3326 44.6002 3.99927L44.7002 3.09937H45.9003V10.8992C45.9003 11.8992 45.6002 12.6993 45.0002 13.2993C44.4002 13.8993 43.6002 14.1992 42.6002 14.1992C42.0002 14.1992 41.4336 14.066 40.9003 13.7993C40.3669 13.5326 39.9669 13.1993 39.7002 12.7993L40.4003 11.9993C40.9336 12.7326 41.6336 13.0994 42.5002 13.0994C43.1669 13.0994 43.6669 12.8993 44.0002 12.4993C44.4002 12.0993 44.6002 11.5658 44.6002 10.8992V10.2993C44.0669 10.8993 43.3336 11.1992 42.4003 11.1992C41.4669 11.1992 40.7002 10.8327 40.1002 10.0994C39.5669 9.29937 39.3003 8.26593 39.3003 6.99927ZM40.6002 7.19922C40.6002 8.06589 40.8002 8.76598 41.2002 9.29932C41.5335 9.76598 42.0335 9.99927 42.7002 9.99927C43.5669 9.99927 44.2002 9.6325 44.6002 8.89917V5.29932C44.2002 4.49932 43.5669 4.09937 42.7002 4.09937C42.0335 4.09937 41.5335 4.36584 41.2002 4.89917C40.8002 5.4325 40.6002 6.19922 40.6002 7.19922Z" fill="white"/>
</svg>
