<svg width="501" height="136" viewBox="0 0 501 136" fill="none" xmlns="http://www.w3.org/2000/svg">
<path d="M46.3004 5.49902H30.6004L24.1004 17.5991L17.7004 5.49902H2.0004L16.3004 27.7988L0.400391 50.999H16.1004L23.9004 36.999L31.5004 50.999H47.3004L31.7004 27.7988L46.3004 5.49902ZM50.2004 10.1992C50.2004 11.9326 50.8004 13.3323 52.0004 14.3989C53.2671 15.4656 54.7671 15.999 56.5004 15.999C58.2337 15.999 59.7337 15.4656 61.0004 14.3989C62.2004 13.3323 62.8004 11.9326 62.8004 10.1992C62.8004 8.46589 62.2004 7.06569 61.0004 5.99902C59.7337 4.93236 58.2337 4.39893 56.5004 4.39893C54.7671 4.39893 53.2671 4.93236 52.0004 5.99902C50.8004 7.06569 50.2004 8.46589 50.2004 10.1992ZM61.9004 21.0991H51.1004V50.999H61.9004V21.0991ZM69.6004 31.1992H81.5004L66.6004 50.999H97.5004V40.8989H86.0004L99.8004 21.0991H69.6004V31.1992ZM151.4 50.999V31.5991C151.4 29.1991 151.1 27.1657 150.5 25.499C149.967 23.8324 149.034 22.5659 147.7 21.6992C146.367 20.7659 144.467 20.2988 142 20.2988C140 20.2988 138.167 20.7325 136.5 21.5991C134.9 22.4658 133.534 23.6325 132.4 25.0991C131.8 23.4991 130.834 22.3325 129.5 21.5991C128.167 20.7325 126.3 20.2988 123.9 20.2988C121.767 20.2988 119.967 20.7988 118.5 21.7988C117.034 22.6655 115.9 23.899 115.1 25.499V21.0991H104.4V50.999H115.1V32.7988C115.1 31.6655 115.267 30.7324 115.6 29.999C115.867 29.2657 116.3 28.7323 116.9 28.3989C117.434 28.0656 118.034 27.8989 118.7 27.8989C119.9 27.8989 120.734 28.3326 121.2 29.1992C121.734 29.9992 122 31.1988 122 32.7988V50.999H133.2V32.7988C133.2 31.6655 133.367 30.7324 133.7 29.999C133.967 29.2657 134.4 28.7323 135 28.3989C135.534 28.0656 136.167 27.8989 136.9 27.8989C138.034 27.8989 138.834 28.3326 139.3 29.1992C139.834 29.9992 140.1 31.1988 140.1 32.7988V50.999H151.4ZM167.7 41.5991C167.7 40.9325 167.834 40.399 168.1 39.999C168.367 39.599 168.8 39.2991 169.4 39.0991C170 38.8325 170.8 38.6992 171.8 38.6992C173.2 38.6992 174.567 38.8988 175.9 39.2988C177.167 39.6988 178.234 40.2657 179.1 40.999V36.2988C178.567 35.6988 177.734 35.1325 176.6 34.5991C175.534 34.1325 174.234 33.7323 172.7 33.3989C171.3 33.1323 169.767 32.999 168.1 32.999C164.3 32.999 161.4 33.7989 159.4 35.3989C157.4 37.0656 156.4 39.3326 156.4 42.1992C156.4 44.1992 156.9 45.9323 157.9 47.3989C158.9 48.7989 160.2 49.8658 161.8 50.5991C163.4 51.2658 165.167 51.5991 167.1 51.5991C169.1 51.5991 170.934 51.2658 172.6 50.5991C174.267 49.8658 175.567 48.8324 176.5 47.499C177.5 46.1657 178 44.5325 178 42.5991L177 38.6992C177 40.0992 176.7 41.2325 176.1 42.0991C175.567 42.9658 174.867 43.6325 174 44.0991C173.134 44.4325 172.234 44.5991 171.3 44.5991C170.634 44.5991 170.034 44.4988 169.5 44.2988C168.967 44.0322 168.5 43.6988 168.1 43.2988C167.834 42.8322 167.7 42.2658 167.7 41.5991ZM158.6 23.499L162.2 30.8989C162.6 30.6323 163.3 30.3324 164.3 29.999C165.3 29.599 166.434 29.2323 167.7 28.8989C169.1 28.6323 170.4 28.499 171.6 28.499C172.534 28.499 173.334 28.5988 174 28.7988C174.734 28.9988 175.3 29.2658 175.7 29.5991C176.167 29.9991 176.467 30.4323 176.6 30.8989C176.867 31.4323 177 32.0326 177 32.6992V50.999H187.7V29.999C187.7 27.8657 187.034 26.0658 185.7 24.5991C184.5 23.1325 182.767 22.0322 180.5 21.2988C178.367 20.4988 175.934 20.0991 173.2 20.0991C170.4 20.0991 167.734 20.4988 165.2 21.2988C162.734 21.9655 160.534 22.699 158.6 23.499ZM212.9 21.0991H191.4V30.1992H212.9V21.0991ZM207.5 10.6992H196.8V50.999H207.5V10.6992ZM247 0.298828H236.3V50.999H247V0.298828ZM271 21.0991H257.8L245 33.3989L259.3 50.999H272.3L258.4 33.3989L271 21.0991ZM273.9 36.0991C273.9 39.2325 274.667 41.9655 276.2 44.2988C277.667 46.6322 279.734 48.4655 282.4 49.7988C285.067 51.0655 288.067 51.6992 291.4 51.6992C294.8 51.6992 297.834 51.0655 300.5 49.7988C303.1 48.4655 305.167 46.6322 306.7 44.2988C308.234 41.9655 309 39.2325 309 36.0991C309 32.8325 308.234 30.0326 306.7 27.6992C305.167 25.3659 303.1 23.5655 300.5 22.2988C297.834 21.0322 294.8 20.3989 291.4 20.3989C288.067 20.3989 285.067 21.0322 282.4 22.2988C279.734 23.5655 277.667 25.3659 276.2 27.6992C274.667 30.0326 273.9 32.8325 273.9 36.0991ZM285.4 36.0991C285.4 34.6991 285.667 33.499 286.2 32.499C286.8 31.499 287.534 30.7655 288.4 30.2988C289.334 29.7655 290.334 29.499 291.4 29.499C292.534 29.499 293.534 29.7655 294.4 30.2988C295.334 30.7655 296.067 31.499 296.6 32.499C297.2 33.499 297.5 34.6991 297.5 36.0991C297.5 37.4325 297.2 38.5991 296.6 39.5991C296.067 40.5991 295.334 41.3322 294.4 41.7988C293.534 42.3322 292.534 42.5991 291.4 42.5991C290.334 42.5991 289.334 42.3322 288.4 41.7988C287.534 41.3322 286.8 40.5991 286.2 39.5991C285.667 38.5991 285.4 37.4325 285.4 36.0991ZM327 5.49902H315.4L312.7 26.5991H319.9L327 5.49902ZM340.6 50.999V21.0991H329.7V50.999H340.6ZM349.1 32.5991L353.8 22.8989C353.267 22.1656 352.5 21.5658 351.5 21.0991C350.567 20.5658 349.534 20.2988 348.4 20.2988C346.667 20.2988 345 20.8657 343.4 21.999C341.867 23.0657 340.634 24.5323 339.7 26.3989C338.7 28.2656 338.2 30.3988 338.2 32.7988L340.6 37.1992C340.6 35.7992 340.767 34.6326 341.1 33.6992C341.567 32.6992 342.167 31.9657 342.9 31.499C343.634 31.0324 344.434 30.7988 345.3 30.7988C346.167 30.7988 346.9 30.9655 347.5 31.2988C348.1 31.6322 348.634 32.0658 349.1 32.5991ZM359.3 39.5991L355.3 47.2988C356.834 48.2988 358.434 49.1656 360.1 49.8989C361.834 50.6989 363.634 51.2992 365.5 51.6992C367.434 52.1659 369.5 52.3989 371.7 52.3989C375.434 52.3989 378.3 51.599 380.3 49.999C382.3 48.399 383.3 45.899 383.3 42.499C383.3 40.6324 382.9 39.1324 382.1 37.999C381.3 36.8657 380.267 35.9655 379 35.2988C377.734 34.5655 376.334 33.8988 374.8 33.2988C373.2 32.6988 371.9 32.2323 370.9 31.8989C369.834 31.5656 369.034 31.2323 368.5 30.8989C367.967 30.4989 367.7 29.9989 367.7 29.3989C367.7 28.9323 367.9 28.5655 368.3 28.2988C368.634 27.9655 369.234 27.7988 370.1 27.7988C371.367 27.7988 372.867 28.199 374.6 28.999C376.334 29.7324 377.867 30.6989 379.2 31.8989L382.6 24.3989C381.2 23.6656 379.834 22.9989 378.5 22.3989C377.1 21.7989 375.6 21.3324 374 20.999C372.534 20.599 370.9 20.3989 369.1 20.3989C366.834 20.3989 364.834 20.7657 363.1 21.499C361.367 22.099 360 23.0656 359 24.3989C358 25.6656 357.5 27.2325 357.5 29.0991C357.5 31.0325 357.867 32.6323 358.6 33.8989C359.467 35.0989 360.534 36.0655 361.8 36.7988C363.134 37.4655 364.5 38.0324 365.9 38.499C367.634 39.099 368.934 39.599 369.8 39.999C370.734 40.399 371.334 40.7658 371.6 41.0991C372 41.4991 372.2 41.9323 372.2 42.3989C372.2 43.0656 372 43.5656 371.6 43.8989C371.2 44.2323 370.567 44.3989 369.7 44.3989C369.234 44.3989 368.5 44.2991 367.5 44.0991C366.567 43.8325 365.434 43.3659 364.1 42.6992C362.767 42.0326 361.167 40.9991 359.3 39.5991ZM397.5 41.5991C397.5 40.9325 397.634 40.399 397.9 39.999C398.167 39.599 398.6 39.2991 399.2 39.0991C399.8 38.8325 400.6 38.6992 401.6 38.6992C403 38.6992 404.367 38.8988 405.7 39.2988C406.967 39.6988 408.034 40.2657 408.9 40.999V36.2988C408.367 35.6988 407.534 35.1325 406.4 34.5991C405.334 34.1325 404.067 33.7323 402.6 33.3989C401.134 33.1323 399.6 32.999 398 32.999C394.134 32.999 391.2 33.7989 389.2 35.3989C387.2 37.0656 386.2 39.3326 386.2 42.1992C386.2 44.1992 386.7 45.9323 387.7 47.3989C388.7 48.7989 390 49.8658 391.6 50.5991C393.267 51.2658 395.034 51.5991 396.9 51.5991C398.9 51.5991 400.734 51.2658 402.4 50.5991C404.067 49.8658 405.367 48.8324 406.3 47.499C407.3 46.1657 407.8 44.5325 407.8 42.5991L406.8 38.6992C406.8 40.0992 406.534 41.2325 406 42.0991C405.467 42.9658 404.767 43.6325 403.9 44.0991C403.034 44.4991 402.1 44.6992 401.1 44.6992C400.5 44.6992 399.9 44.5655 399.3 44.2988C398.767 44.0322 398.334 43.6988 398 43.2988C397.667 42.8322 397.5 42.2658 397.5 41.5991ZM388.5 23.499L392 30.8989C392.4 30.6989 393.1 30.399 394.1 29.999C395.1 29.599 396.267 29.2323 397.6 28.8989C398.934 28.6323 400.234 28.499 401.5 28.499C402.367 28.499 403.167 28.5988 403.9 28.7988C404.567 28.9988 405.134 29.2658 405.6 29.5991C406 29.9991 406.3 30.4323 406.5 30.8989C406.7 31.4323 406.8 32.0326 406.8 32.6992V50.999H417.5V29.999C417.5 27.8657 416.867 26.0658 415.6 24.5991C414.334 23.1325 412.6 22.0322 410.4 21.2988C408.2 20.5655 405.734 20.1992 403 20.1992C400.2 20.1992 397.534 20.5655 395 21.2988C392.534 21.9655 390.367 22.699 388.5 23.499ZM442.7 21.0991H421.2V30.1992H442.7V21.0991ZM437.3 10.6992H426.6V50.999H437.3V10.6992ZM445.9 10.1992C445.9 11.8659 446.5 13.2656 447.7 14.3989C448.967 15.4656 450.467 15.999 452.2 15.999C453.934 15.999 455.434 15.4656 456.7 14.3989C457.9 13.2656 458.5 11.8659 458.5 10.1992C458.5 8.46589 457.9 7.06569 456.7 5.99902C455.434 4.93236 453.934 4.39893 452.2 4.39893C450.467 4.39893 448.967 4.93236 447.7 5.99902C446.5 7.06569 445.9 8.46589 445.9 10.1992ZM457.6 21.0991H446.8V50.999H457.6V21.0991ZM476.1 50.999V0.298828H464.8V50.999H476.1ZM500.4 35.999C500.4 32.599 499.7 29.7323 498.3 27.3989C496.967 25.1323 495.234 23.3992 493.1 22.1992C490.967 20.9992 488.7 20.3989 486.3 20.3989C483.834 20.3989 481.634 21.0322 479.7 22.2988C477.7 23.5655 476.134 25.3659 475 27.6992C473.867 29.9659 473.3 32.7324 473.3 35.999C473.3 39.199 473.867 41.9655 475 44.2988C476.134 46.6322 477.7 48.4326 479.7 49.6992C481.634 50.9659 483.834 51.5991 486.3 51.5991C488.7 51.5991 490.967 51.0323 493.1 49.8989C495.234 48.6323 496.967 46.8658 498.3 44.5991C499.7 42.2658 500.4 39.399 500.4 35.999ZM488.6 35.999C488.6 37.3324 488.3 38.499 487.7 39.499C487.167 40.5657 486.4 41.3656 485.4 41.8989C484.467 42.4989 483.434 42.7988 482.3 42.7988C481.3 42.7988 480.3 42.5324 479.3 41.999C478.434 41.399 477.7 40.6326 477.1 39.6992C476.434 38.6992 476.1 37.4657 476.1 35.999C476.1 34.599 476.434 33.3989 477.1 32.3989C477.7 31.3989 478.434 30.6325 479.3 30.0991C480.3 29.5658 481.3 29.2988 482.3 29.2988C483.434 29.2988 484.467 29.5658 485.4 30.0991C486.4 30.6325 487.167 31.4324 487.7 32.499C488.3 33.499 488.6 34.6657 488.6 35.999ZM23.2004 102.799V120.999H35.0004V101.599C35.0004 98.0658 34.1671 95.2988 32.5004 93.2988C30.8337 91.2988 28.0671 90.2988 24.2004 90.2988C21.9337 90.2988 20.0337 90.7988 18.5004 91.7988C17.0337 92.6655 15.8671 93.899 15.0004 95.499V91.0991H3.80038V120.999H15.0004V102.799C15.0004 101.665 15.2004 100.732 15.6004 99.999C15.9337 99.2657 16.4337 98.7323 17.1004 98.3989C17.8337 98.0656 18.6337 97.8989 19.5004 97.8989C20.9671 97.8989 21.9337 98.3326 22.4004 99.1992C22.9337 99.9992 23.2004 101.199 23.2004 102.799ZM41.4004 80.1992C41.4004 81.8659 42.0004 83.2656 43.2004 84.3989C44.4671 85.4656 45.9671 85.999 47.7004 85.999C49.4337 85.999 50.9004 85.4656 52.1004 84.3989C53.3671 83.2656 54.0004 81.8659 54.0004 80.1992C54.0004 78.4659 53.3671 77.0657 52.1004 75.999C50.9004 74.9324 49.4337 74.3989 47.7004 74.3989C45.9671 74.3989 44.4671 74.9324 43.2004 75.999C42.0004 77.0657 41.4004 78.4659 41.4004 80.1992ZM53.1004 91.0991H42.3004V120.999H53.1004V91.0991ZM107.4 120.999V101.599C107.4 99.1991 107.134 97.1657 106.6 95.499C106 93.8324 105.034 92.5659 103.7 91.6992C102.367 90.7659 100.467 90.2988 98.0004 90.2988C96.0004 90.2988 94.1671 90.7325 92.5004 91.5991C90.9004 92.4658 89.5337 93.6325 88.4004 95.0991C87.8004 93.5658 86.8337 92.3991 85.5004 91.5991C84.1671 90.7325 82.3004 90.2988 79.9004 90.2988C77.7671 90.2988 75.9671 90.7988 74.5004 91.7988C73.1004 92.6655 71.9671 93.899 71.1004 95.499V91.0991H60.4004V120.999H71.1004V102.799C71.1004 101.665 71.2671 100.732 71.6004 99.999C71.8671 99.2657 72.3004 98.7323 72.9004 98.3989C73.4337 98.0656 74.0671 97.8989 74.8004 97.8989C75.9337 97.8989 76.7337 98.3326 77.2004 99.1992C77.7337 99.9992 78.0004 101.199 78.0004 102.799V120.999H89.3004V102.799C89.3004 101.665 89.4337 100.732 89.7004 99.999C90.0337 99.2657 90.4671 98.7323 91.0004 98.3989C91.6004 98.0656 92.2337 97.8989 92.9004 97.8989C94.1004 97.8989 94.9337 98.3326 95.4004 99.1992C95.9337 99.9992 96.2004 101.199 96.2004 102.799V120.999H107.4ZM123.6 111.599C123.6 110.932 123.734 110.399 124 109.999C124.267 109.599 124.7 109.299 125.3 109.099C125.9 108.832 126.7 108.699 127.7 108.699C129.1 108.699 130.467 108.899 131.8 109.299C133.067 109.699 134.134 110.266 135 110.999V106.299C134.467 105.699 133.634 105.132 132.5 104.599C131.434 104.132 130.167 103.732 128.7 103.399C127.234 103.132 125.7 102.999 124.1 102.999C120.234 102.999 117.3 103.799 115.3 105.399C113.3 107.066 112.3 109.333 112.3 112.199C112.3 114.199 112.8 115.932 113.8 117.399C114.8 118.799 116.1 119.866 117.7 120.599C119.367 121.266 121.134 121.599 123 121.599C125 121.599 126.834 121.266 128.5 120.599C130.167 119.866 131.467 118.832 132.4 117.499C133.4 116.166 133.9 114.532 133.9 112.599L132.9 108.699C132.9 110.099 132.634 111.232 132.1 112.099C131.567 112.966 130.867 113.632 130 114.099C129.134 114.499 128.2 114.699 127.2 114.699C126.6 114.699 126 114.565 125.4 114.299C124.867 114.032 124.434 113.699 124.1 113.299C123.767 112.832 123.6 112.266 123.6 111.599ZM114.6 93.499L118.1 100.899C118.5 100.699 119.2 100.399 120.2 99.999C121.2 99.599 122.367 99.2323 123.7 98.8989C125.034 98.6323 126.334 98.499 127.6 98.499C128.467 98.499 129.267 98.5988 130 98.7988C130.667 98.9988 131.234 99.2658 131.7 99.5991C132.1 99.9991 132.4 100.432 132.6 100.899C132.8 101.432 132.9 102.033 132.9 102.699V120.999H143.6V99.999C143.6 97.8657 142.967 96.0658 141.7 94.5991C140.434 93.1325 138.7 92.0322 136.5 91.2988C134.3 90.5655 131.834 90.1992 129.1 90.1992C126.3 90.1992 123.634 90.5655 121.1 91.2988C118.634 91.9655 116.467 92.699 114.6 93.499ZM188.3 91.0991H166.8V100.199H188.3V91.0991ZM182.9 80.6992H172.2V120.999H182.9V80.6992ZM190.7 105.999C190.7 109.199 191.467 111.965 193 114.299C194.467 116.632 196.534 118.433 199.2 119.699C201.867 120.966 204.867 121.599 208.2 121.599C211.6 121.599 214.634 120.966 217.3 119.699C219.9 118.433 221.967 116.632 223.5 114.299C225.034 111.965 225.8 109.199 225.8 105.999C225.8 102.799 225.034 100.033 223.5 97.6992C221.967 95.3659 219.9 93.5655 217.3 92.2988C214.634 90.9655 211.6 90.2988 208.2 90.2988C204.867 90.2988 201.867 90.9655 199.2 92.2988C196.534 93.5655 194.467 95.3659 193 97.6992C191.467 100.033 190.7 102.799 190.7 105.999ZM202.3 105.999C202.3 104.599 202.534 103.432 203 102.499C203.6 101.499 204.334 100.733 205.2 100.199C206.134 99.6659 207.134 99.3989 208.2 99.3989C209.334 99.3989 210.334 99.6659 211.2 100.199C212.134 100.733 212.867 101.499 213.4 102.499C214 103.432 214.3 104.599 214.3 105.999C214.3 107.399 214 108.599 213.4 109.599C212.867 110.532 212.134 111.265 211.2 111.799C210.334 112.265 209.334 112.499 208.2 112.499C207.134 112.499 206.134 112.265 205.2 111.799C204.334 111.265 203.6 110.532 203 109.599C202.534 108.599 202.3 107.399 202.3 105.999ZM231.3 135.299H242.6V91.0991H231.3V135.299ZM266.8 105.999C266.8 102.399 266.1 99.4325 264.7 97.0991C263.367 94.6991 261.634 92.8992 259.5 91.6992C257.367 90.4992 255.134 89.8989 252.8 89.8989C250.134 89.8989 247.834 90.5656 245.9 91.8989C244.034 93.2323 242.6 95.1325 241.6 97.5991C240.667 99.9325 240.2 102.732 240.2 105.999C240.2 109.199 240.667 112.032 241.6 114.499C242.6 116.899 244.034 118.766 245.9 120.099C247.834 121.432 250.134 122.099 252.8 122.099C255.134 122.099 257.367 121.499 259.5 120.299C261.634 119.099 263.367 117.299 264.7 114.899C266.1 112.499 266.8 109.532 266.8 105.999ZM255 105.999C255 107.332 254.7 108.466 254.1 109.399C253.567 110.332 252.8 111.032 251.8 111.499C250.867 112.032 249.834 112.299 248.7 112.299C247.7 112.299 246.7 112.066 245.7 111.599C244.834 111.132 244.1 110.432 243.5 109.499C242.9 108.632 242.6 107.466 242.6 105.999C242.6 104.599 242.9 103.432 243.5 102.499C244.1 101.566 244.834 100.899 245.7 100.499C246.7 100.032 247.7 99.7988 248.7 99.7988C249.834 99.7988 250.867 100.032 251.8 100.499C252.8 100.966 253.567 101.666 254.1 102.599C254.7 103.532 255 104.666 255 105.999ZM281.6 111.599C281.6 110.932 281.7 110.399 281.9 109.999C282.167 109.599 282.6 109.299 283.2 109.099C283.867 108.832 284.667 108.699 285.6 108.699C287.067 108.699 288.434 108.899 289.7 109.299C291.034 109.699 292.134 110.266 293 110.999V106.299C292.4 105.699 291.567 105.132 290.5 104.599C289.367 104.132 288.067 103.732 286.6 103.399C285.2 103.132 283.667 102.999 282 102.999C278.2 102.999 275.267 103.799 273.2 105.399C271.2 107.066 270.2 109.333 270.2 112.199C270.2 114.199 270.7 115.932 271.7 117.399C272.7 118.799 274 119.866 275.6 120.599C277.267 121.266 279.067 121.599 281 121.599C283 121.599 284.8 121.266 286.4 120.599C288.134 119.866 289.467 118.832 290.4 117.499C291.4 116.166 291.9 114.532 291.9 112.599L290.8 108.699C290.8 110.099 290.534 111.232 290 112.099C289.467 112.966 288.767 113.632 287.9 114.099C287.034 114.499 286.134 114.699 285.2 114.699C284.534 114.699 283.934 114.565 283.4 114.299C282.8 114.032 282.334 113.699 282 113.299C281.734 112.832 281.6 112.266 281.6 111.599ZM272.5 93.499L276.1 100.899C276.5 100.699 277.2 100.399 278.2 99.999C279.2 99.599 280.334 99.2323 281.6 98.8989C282.934 98.6323 284.234 98.499 285.5 98.499C286.434 98.499 287.234 98.5988 287.9 98.7988C288.634 98.9988 289.2 99.2658 289.6 99.5991C290.067 99.9991 290.367 100.432 290.5 100.899C290.7 101.432 290.8 102.033 290.8 102.699V120.999H301.6V99.999C301.6 97.8657 300.934 96.0658 299.6 94.5991C298.334 93.1325 296.6 92.0322 294.4 91.2988C292.267 90.5655 289.834 90.1992 287.1 90.1992C284.3 90.1992 281.634 90.5655 279.1 91.2988C276.634 91.9655 274.434 92.699 272.5 93.499ZM355.5 120.999V101.599C355.5 99.1991 355.234 97.1657 354.7 95.499C354.1 93.8324 353.134 92.5659 351.8 91.6992C350.467 90.7659 348.6 90.2988 346.2 90.2988C344.134 90.2988 342.267 90.7325 340.6 91.5991C339 92.4658 337.634 93.6325 336.5 95.0991C335.9 93.5658 334.934 92.3991 333.6 91.5991C332.267 90.7325 330.4 90.2988 328 90.2988C325.867 90.2988 324.067 90.7988 322.6 91.7988C321.2 92.6655 320.1 93.899 319.3 95.499V91.0991H308.5V120.999H319.3V102.799C319.3 101.665 319.434 100.732 319.7 99.999C320.034 99.2657 320.467 98.7323 321 98.3989C321.6 98.0656 322.234 97.8989 322.9 97.8989C324.034 97.8989 324.867 98.3326 325.4 99.1992C325.867 99.9992 326.1 101.199 326.1 102.799V120.999H337.4V102.799C337.4 101.665 337.534 100.732 337.8 99.999C338.134 99.2657 338.567 98.7323 339.1 98.3989C339.7 98.0656 340.334 97.8989 341 97.8989C342.2 97.8989 343.034 98.3326 343.5 99.1992C344.034 99.9992 344.3 101.199 344.3 102.799V120.999H355.5ZM361.8 80.1992C361.8 81.8659 362.4 83.2656 363.6 84.3989C364.867 85.4656 366.367 85.999 368.1 85.999C369.9 85.999 371.4 85.4656 372.6 84.3989C373.867 83.2656 374.5 81.8659 374.5 80.1992C374.5 78.4659 373.867 77.0657 372.6 75.999C371.4 74.9324 369.9 74.3989 368.1 74.3989C366.367 74.3989 364.867 74.9324 363.6 75.999C362.4 77.0657 361.8 78.4659 361.8 80.1992ZM373.5 91.0991H362.7V120.999H373.5V91.0991ZM381.2 101.199H393.1L378.2 120.999H409.1V110.799H397.6L411.4 91.0991H381.2V101.199ZM439.8 88.3989C439.8 89.3989 439.434 90.4324 438.7 91.499C437.9 92.6324 436.667 93.5989 435 94.3989C433.4 95.1989 431.3 95.5991 428.7 95.5991H426.5L427.8 107.299H436.9L437.1 102.499C439.434 101.966 441.667 101.166 443.8 100.099C445.934 98.8991 447.667 97.3323 449 95.3989C450.4 93.4656 451.1 91.1323 451.1 88.3989C451.1 86.0656 450.6 83.9992 449.6 82.1992C448.667 80.4659 447.367 78.9988 445.7 77.7988C444.034 76.5322 442.167 75.599 440.1 74.999C438.1 74.3324 436 73.999 433.8 73.999C431.267 73.999 428.9 74.3324 426.7 74.999C424.567 75.6657 422.534 76.6657 420.6 77.999C418.734 79.2657 416.967 80.8326 415.3 82.6992L422.6 88.999C423.934 87.1324 425.534 85.7322 427.4 84.7988C429.334 83.7988 431.267 83.2988 433.2 83.2988C434.6 83.2988 435.8 83.4989 436.8 83.8989C437.8 84.2989 438.567 84.8992 439.1 85.6992C439.567 86.4325 439.8 87.3323 439.8 88.3989ZM425.5 116.799C425.5 118.332 426.134 119.699 427.4 120.899C428.667 122.099 430.3 122.699 432.3 122.699C434.367 122.699 436.034 122.099 437.3 120.899C438.567 119.699 439.2 118.332 439.2 116.799C439.2 115.199 438.567 113.799 437.3 112.599C436.034 111.399 434.367 110.799 432.3 110.799C430.3 110.799 428.667 111.399 427.4 112.599C426.134 113.799 425.5 115.199 425.5 116.799Z" fill="white"/>
</svg>
