<svg width="120" height="20" viewBox="0 0 120 20" fill="none" xmlns="http://www.w3.org/2000/svg">
<path d="M16.8002 1.49902H11.9002L8.50018 8.09912L5.10016 1.49902H0.200195L6.40021 11.8989V18.999H10.7002V11.8989L16.8002 1.49902ZM20.8002 10.1992C20.8002 9.19922 21.0002 8.29902 21.4002 7.49902C21.8002 6.69902 22.3668 6.06579 23.1002 5.59912C23.9002 5.19912 24.8002 4.99902 25.8002 4.99902C26.8002 4.99902 27.6669 5.19912 28.4002 5.59912C29.1335 6.06579 29.7002 6.69902 30.1002 7.49902C30.5002 8.29902 30.7002 9.19922 30.7002 10.1992C30.7002 11.2659 30.5002 12.199 30.1002 12.999C29.7002 13.799 29.1002 14.3988 28.3002 14.7988C27.5668 15.2655 26.7335 15.499 25.8002 15.499C24.8002 15.499 23.9002 15.2655 23.1002 14.7988C22.3668 14.3988 21.8002 13.799 21.4002 12.999C21.0002 12.199 20.8002 11.2659 20.8002 10.1992ZM16.3002 10.1992C16.3002 11.5326 16.5335 12.799 17.0002 13.999C17.4669 15.1324 18.1335 16.0989 19.0002 16.8989C19.8002 17.7656 20.8002 18.4323 22.0002 18.8989C23.1335 19.2989 24.4002 19.499 25.8002 19.499C27.1335 19.499 28.3668 19.2989 29.5002 18.8989C30.7002 18.4323 31.7002 17.7656 32.5002 16.8989C33.3668 16.0989 34.0335 15.1324 34.5002 13.999C34.9669 12.799 35.2002 11.5326 35.2002 10.1992C35.2002 8.86589 34.9669 7.63236 34.5002 6.49902C34.0335 5.43236 33.3668 4.46579 32.5002 3.59912C31.6335 2.79912 30.6335 2.16589 29.5002 1.69922C28.3668 1.29922 27.1335 1.09912 25.8002 1.09912C24.4668 1.09912 23.2002 1.29922 22.0002 1.69922C20.8668 2.16589 19.8668 2.79912 19.0002 3.59912C18.2002 4.46579 17.5335 5.43236 17.0002 6.49902C16.5335 7.63236 16.3002 8.86589 16.3002 10.1992ZM36.7002 1.49902V5.19922H43.6002L35.5002 18.999H49.5002V15.2988H42.1002L50.4002 1.49902H36.7002ZM56.9002 1.49902H52.6002V18.999H56.9002V1.49902ZM64.9002 1.49902H60.6002V18.999H71.9002V15.2988H64.9002V1.49902ZM78.1002 1.49902H73.8002V19.0991L78.1002 18.999V1.49902ZM98.0002 1.49902H93.9002V11.3989L81.8002 0.699219V18.999H85.9002V9.19922L98.0002 19.8989V1.49902ZM110.4 9.49902V12.6992H115C114.867 13.1659 114.667 13.599 114.4 13.999C114.134 14.3324 113.834 14.6657 113.5 14.999C113.1 15.2657 112.633 15.4992 112.1 15.6992C111.633 15.8326 111.067 15.8989 110.4 15.8989C109.4 15.8989 108.5 15.6659 107.7 15.1992C106.9 14.7326 106.267 14.0988 105.8 13.2988C105.334 12.4322 105.1 11.4322 105.1 10.2988C105.1 9.09883 105.334 8.09883 105.8 7.29883C106.267 6.49883 106.9 5.89902 107.7 5.49902C108.5 5.03236 109.4 4.79883 110.4 4.79883C111.4 4.79883 112.234 5.03236 112.9 5.49902C113.634 5.96569 114.2 6.53255 114.6 7.19922L118.3 5.29883C117.767 4.43216 117.1 3.69912 116.3 3.09912C115.567 2.49912 114.7 1.99912 113.7 1.59912C112.767 1.26579 111.667 1.09912 110.4 1.09912C109 1.09912 107.733 1.33216 106.6 1.79883C105.4 2.19883 104.367 2.79912 103.5 3.59912C102.567 4.39912 101.867 5.36569 101.4 6.49902C100.934 7.63236 100.7 8.89883 100.7 10.2988C100.7 11.6322 100.934 12.8991 101.4 14.0991C101.867 15.2325 102.534 16.199 103.4 16.999C104.267 17.8657 105.267 18.4989 106.4 18.8989C107.6 19.3656 108.9 19.5991 110.3 19.5991C111.767 19.5991 113.067 19.3322 114.2 18.7988C115.334 18.2655 116.3 17.5325 117.1 16.5991C117.833 15.6658 118.4 14.5989 118.8 13.3989C119.134 12.1323 119.267 10.8324 119.2 9.49902H110.4Z" fill="white"/>
</svg>
