<svg width="290" height="61" viewBox="0 0 290 61" fill="none" xmlns="http://www.w3.org/2000/svg">
<path d="M2.10034 2.50049V6.30054H9.00037L0.900391 20.0005H14.9004V16.4004H7.50037L15.8004 2.50049H2.10034ZM16.2004 14.3005C16.2004 15.5005 16.5003 16.5337 17.1003 17.4004C17.6337 18.3337 18.4004 19.0338 19.4004 19.5005C20.4004 20.0338 21.5337 20.3005 22.8004 20.3005C24.067 20.3005 25.2004 20.0338 26.2004 19.5005C27.2004 19.0338 27.967 18.3337 28.5004 17.4004C29.1004 16.5337 29.4004 15.5005 29.4004 14.3005C29.4004 13.0339 29.1004 11.9673 28.5004 11.1006C27.967 10.1673 27.2004 9.46715 26.2004 9.00049C25.2004 8.46715 24.067 8.20044 22.8004 8.20044C21.5337 8.20044 20.4004 8.46715 19.4004 9.00049C18.4004 9.46715 17.6337 10.1673 17.1003 11.1006C16.5003 11.9673 16.2004 13.0339 16.2004 14.3005ZM20.1003 14.3005C20.1003 13.6339 20.2337 13.1004 20.5004 12.7004C20.767 12.3004 21.1004 11.9671 21.5004 11.7004C21.9004 11.4338 22.3337 11.3005 22.8004 11.3005C23.267 11.3005 23.7003 11.4338 24.1003 11.7004C24.567 11.9671 24.9003 12.3004 25.1003 12.7004C25.367 13.1004 25.5004 13.6339 25.5004 14.3005C25.5004 14.9005 25.367 15.4005 25.1003 15.8005C24.9003 16.2005 24.567 16.5339 24.1003 16.8005C23.7003 17.0005 23.267 17.1006 22.8004 17.1006C22.3337 17.1006 21.9004 17.0005 21.5004 16.8005C21.1004 16.5339 20.767 16.2005 20.5004 15.8005C20.2337 15.4005 20.1003 14.9005 20.1003 14.3005ZM31.0004 14.3005C31.0004 15.5005 31.267 16.5337 31.8004 17.4004C32.4004 18.3337 33.2004 19.0338 34.2004 19.5005C35.2004 20.0338 36.3004 20.3005 37.5004 20.3005C38.767 20.3005 39.9004 20.0338 40.9004 19.5005C41.9004 19.0338 42.667 18.3337 43.2004 17.4004C43.8004 16.5337 44.1003 15.5005 44.1003 14.3005C44.1003 13.0339 43.8004 11.9673 43.2004 11.1006C42.667 10.1673 41.9004 9.46715 40.9004 9.00049C39.9004 8.46715 38.767 8.20044 37.5004 8.20044C36.3004 8.20044 35.2004 8.46715 34.2004 9.00049C33.2004 9.46715 32.4004 10.1673 31.8004 11.1006C31.267 11.9673 31.0004 13.0339 31.0004 14.3005ZM34.8004 14.3005C34.8004 13.6339 34.9337 13.1004 35.2004 12.7004C35.467 12.3004 35.8004 11.9671 36.2004 11.7004C36.6004 11.4338 37.0337 11.3005 37.5004 11.3005C38.0337 11.3005 38.5004 11.4338 38.9004 11.7004C39.3004 11.9671 39.6004 12.3004 39.8004 12.7004C40.067 13.1004 40.2004 13.6339 40.2004 14.3005C40.2004 14.9005 40.067 15.4005 39.8004 15.8005C39.6004 16.2005 39.3004 16.5339 38.9004 16.8005C38.5004 17.0005 38.0337 17.1006 37.5004 17.1006C37.0337 17.1006 36.6004 17.0005 36.2004 16.8005C35.8004 16.5339 35.467 16.2005 35.2004 15.8005C34.9337 15.4005 34.8004 14.9005 34.8004 14.3005ZM63.9004 20.0005V12.6006C63.9004 11.6673 63.8003 10.8671 63.6003 10.2004C63.3337 9.60044 62.9337 9.13387 62.4004 8.80054C61.8671 8.40054 61.167 8.20044 60.3004 8.20044C59.5004 8.20044 58.8004 8.36711 58.2004 8.70044C57.6004 9.03377 57.067 9.50059 56.6003 10.1006C56.4003 9.50059 56.0337 9.03377 55.5004 8.70044C54.967 8.36711 54.2337 8.20044 53.3004 8.20044C52.567 8.20044 51.9004 8.40054 51.3004 8.80054C50.767 9.13387 50.3337 9.60044 50.0004 10.2004V8.50049H46.4004V20.0005H50.0004V13.0005C50.0004 12.5338 50.067 12.1339 50.2004 11.8005C50.3337 11.4672 50.5337 11.2339 50.8004 11.1006C51.067 10.9673 51.367 10.9004 51.7004 10.9004C52.2337 10.9004 52.6004 11.0671 52.8004 11.4004C53.067 11.7337 53.2004 12.2672 53.2004 13.0005V20.0005H57.0004V13.0005C57.0004 12.5338 57.067 12.1339 57.2004 11.8005C57.3337 11.4672 57.5337 11.2339 57.8004 11.1006C58.067 10.9673 58.367 10.9004 58.7004 10.9004C59.167 10.9004 59.5337 11.0671 59.8004 11.4004C60.0004 11.7337 60.1003 12.2672 60.1003 13.0005V20.0005H63.9004ZM73.7004 14.2004C73.7004 15.4671 73.967 16.5337 74.5004 17.4004C75.1004 18.3337 75.9004 19.0338 76.9004 19.5005C77.9004 19.9672 79.0337 20.2004 80.3004 20.2004C81.5004 20.2004 82.6003 19.9672 83.6003 19.5005C84.6003 18.9672 85.4004 18.2671 86.0004 17.4004C86.5337 16.5337 86.8004 15.5005 86.8004 14.3005C86.8004 13.0339 86.5337 11.9673 86.0004 11.1006C85.4004 10.1673 84.6003 9.46715 83.6003 9.00049C82.6003 8.46715 81.5004 8.20044 80.3004 8.20044C79.0337 8.20044 77.9004 8.46715 76.9004 9.00049C75.9004 9.46715 75.1004 10.1673 74.5004 11.1006C73.967 11.9673 73.7004 13.0339 73.7004 14.3005V14.2004ZM77.6003 14.2004C77.6003 13.5338 77.7004 13.0006 77.9004 12.6006C78.1671 12.2006 78.5004 11.8673 78.9004 11.6006C79.3004 11.3339 79.767 11.2004 80.3004 11.2004C80.767 11.2004 81.2003 11.3339 81.6003 11.6006C82.0003 11.8673 82.3337 12.2006 82.6003 12.6006C82.8003 13.0006 82.9004 13.5338 82.9004 14.2004C82.9004 14.8004 82.8003 15.3004 82.6003 15.7004C82.3337 16.1004 82.0003 16.4338 81.6003 16.7004C81.2003 16.9004 80.767 17.0005 80.3004 17.0005C79.767 17.0005 79.3004 16.9004 78.9004 16.7004C78.5004 16.4338 78.1671 16.1004 77.9004 15.7004C77.7004 15.3004 77.6003 14.8004 77.6003 14.2004ZM92.8004 19.9004V8.40039H89.1003V19.9004H92.8004ZM96.1003 12.3005L97.7004 9.10059C97.5004 8.76725 97.2337 8.53372 96.9004 8.40039C96.5004 8.20039 96.1004 8.10059 95.7004 8.10059C95.0337 8.10059 94.4004 8.30044 93.8004 8.70044C93.267 9.16711 92.8004 9.76715 92.4004 10.5005C92.0671 11.1672 91.9004 11.9671 91.9004 12.9004L92.8004 14.2004C92.8004 13.6671 92.867 13.2005 93.0004 12.8005C93.1337 12.4005 93.367 12.1338 93.7004 12.0005C93.967 11.7338 94.267 11.6006 94.6003 11.6006C94.9337 11.6006 95.2337 11.6672 95.5004 11.8005C95.7004 11.9339 95.9003 12.1005 96.1003 12.3005ZM98.0004 12.3005V15.6006H103.3V12.3005H98.0004ZM108.7 0.400391H104.9V19.9004H108.7V0.400391ZM111.4 4.10059C111.4 4.70059 111.634 5.20059 112.1 5.60059C112.5 5.93392 113 6.10059 113.6 6.10059C114.2 6.10059 114.734 5.93392 115.2 5.60059C115.6 5.20059 115.8 4.70059 115.8 4.10059C115.8 3.50059 115.6 3.00059 115.2 2.60059C114.734 2.26725 114.2 2.10059 113.6 2.10059C113 2.10059 112.5 2.26725 112.1 2.60059C111.634 3.00059 111.4 3.50059 111.4 4.10059ZM115.4 8.40039H111.8V19.9004H115.4V8.40039ZM138.5 0.400391H134.8V19.9004H138.5V0.400391ZM125.4 14.2004C125.4 15.4671 125.634 16.5337 126.1 17.4004C126.634 18.2671 127.334 18.9672 128.2 19.5005C129 19.9005 129.867 20.1006 130.8 20.1006C131.8 20.1006 132.667 19.8671 133.4 19.4004C134.134 18.9337 134.734 18.2339 135.2 17.3005C135.6 16.4339 135.8 15.3673 135.8 14.1006C135.8 12.9006 135.6 11.8672 135.2 11.0005C134.734 10.0672 134.134 9.36706 133.4 8.90039C132.667 8.36706 131.8 8.10059 130.8 8.10059C129.867 8.10059 129 8.33387 128.2 8.80054C127.334 9.33387 126.634 10.0337 126.1 10.9004C125.634 11.7671 125.4 12.8339 125.4 14.1006V14.2004ZM129.3 14.2004C129.3 13.6004 129.434 13.1004 129.7 12.7004C129.967 12.2338 130.3 11.9004 130.7 11.7004C131.1 11.4338 131.567 11.3005 132.1 11.3005C132.5 11.3005 132.9 11.4338 133.3 11.7004C133.767 11.9004 134.134 12.2338 134.4 12.7004C134.667 13.1004 134.8 13.6004 134.8 14.2004C134.8 14.8671 134.667 15.4005 134.4 15.8005C134.134 16.2672 133.767 16.6005 133.3 16.8005C132.9 17.0672 132.5 17.2004 132.1 17.2004C131.567 17.2004 131.1 17.0672 130.7 16.8005C130.3 16.6005 129.967 16.2672 129.7 15.8005C129.434 15.4005 129.3 14.8671 129.3 14.2004ZM144.4 16.4004C144.4 16.1337 144.467 15.9004 144.6 15.7004C144.734 15.5004 144.934 15.3338 145.2 15.2004C145.467 15.1338 145.834 15.1006 146.3 15.1006C146.834 15.1006 147.367 15.1672 147.9 15.3005C148.434 15.5005 148.9 15.7338 149.3 16.0005V14.3005C149.1 14.1005 148.8 13.9004 148.4 13.7004C148 13.5004 147.534 13.3338 147 13.2004C146.4 13.0671 145.767 13.0005 145.1 13.0005C143.634 13.0005 142.534 13.3338 141.8 14.0005C141 14.6005 140.6 15.4673 140.6 16.6006C140.6 17.4006 140.767 18.0673 141.1 18.6006C141.5 19.1339 142 19.5339 142.6 19.8005C143.267 20.0672 143.967 20.2004 144.7 20.2004C145.434 20.2004 146.1 20.1004 146.7 19.9004C147.367 19.6337 147.9 19.2338 148.3 18.7004C148.7 18.1671 148.9 17.5339 148.9 16.8005L148.5 15.3005C148.5 15.9005 148.367 16.3671 148.1 16.7004C147.9 17.0338 147.6 17.3005 147.2 17.5005C146.867 17.7005 146.467 17.8005 146 17.8005C145.734 17.8005 145.467 17.7671 145.2 17.7004C144.934 17.5671 144.734 17.4004 144.6 17.2004C144.467 16.9338 144.4 16.6671 144.4 16.4004ZM141.4 9.50049L142.7 12.0005C142.9 11.9338 143.167 11.8338 143.5 11.7004C143.9 11.5004 144.334 11.3338 144.8 11.2004C145.267 11.1338 145.767 11.1006 146.3 11.1006C146.634 11.1006 146.934 11.1338 147.2 11.2004C147.534 11.2004 147.767 11.3005 147.9 11.5005C148.1 11.6338 148.234 11.8005 148.3 12.0005C148.434 12.2005 148.5 12.4338 148.5 12.7004V20.0005H152.1V11.9004C152.1 11.1004 151.867 10.4337 151.4 9.90039C150.934 9.36706 150.3 8.93392 149.5 8.60059C148.7 8.33392 147.8 8.20044 146.8 8.20044C145.734 8.20044 144.734 8.33392 143.8 8.60059C142.867 8.86725 142.067 9.16716 141.4 9.50049ZM158.7 20.0005V8.50049H154.9V20.0005H158.7ZM162.1 12.4004L163.7 9.20044C163.5 8.86711 163.2 8.63382 162.8 8.50049C162.4 8.30049 162 8.20044 161.6 8.20044C161 8.20044 160.4 8.40054 159.8 8.80054C159.2 9.2672 158.734 9.86725 158.4 10.6006C158 11.2673 157.8 12.0672 157.8 13.0005L158.7 14.3005C158.7 13.7672 158.8 13.3004 159 12.9004C159.134 12.5004 159.334 12.2339 159.6 12.1006C159.867 11.8339 160.2 11.7004 160.6 11.7004C160.934 11.7004 161.2 11.7671 161.4 11.9004C161.667 12.0337 161.9 12.2004 162.1 12.4004ZM165.9 15.8005L164.3 18.3005C164.834 18.7005 165.4 19.0671 166 19.4004C166.6 19.7337 167.267 20.0004 168 20.2004C168.667 20.4004 169.434 20.5005 170.3 20.5005C171.634 20.5005 172.7 20.2006 173.5 19.6006C174.234 18.9339 174.6 17.9671 174.6 16.7004C174.6 16.0338 174.434 15.4672 174.1 15.0005C173.834 14.6005 173.434 14.2337 172.9 13.9004C172.434 13.6337 171.9 13.4004 171.3 13.2004C170.7 13.0004 170.2 12.8338 169.8 12.7004C169.4 12.5004 169.1 12.3338 168.9 12.2004C168.7 12.0004 168.6 11.8006 168.6 11.6006C168.6 11.3339 168.7 11.1673 168.9 11.1006C169.034 10.9006 169.3 10.8005 169.7 10.8005C170.167 10.8005 170.734 10.9672 171.4 11.3005C172 11.5672 172.534 11.9337 173 12.4004L174.4 9.90039C173.934 9.56706 173.434 9.30059 172.9 9.10059C172.434 8.83392 171.9 8.63382 171.3 8.50049C170.7 8.30049 170.067 8.20044 169.4 8.20044C168.6 8.20044 167.867 8.33392 167.2 8.60059C166.6 8.86725 166.1 9.23377 165.7 9.70044C165.3 10.1671 165.1 10.7672 165.1 11.5005C165.1 12.2338 165.267 12.8339 165.6 13.3005C165.934 13.7672 166.334 14.1337 166.8 14.4004C167.334 14.6671 167.867 14.9006 168.4 15.1006C169 15.3006 169.467 15.5004 169.8 15.7004C170.2 15.8338 170.467 16.0004 170.6 16.2004C170.734 16.3338 170.8 16.5339 170.8 16.8005C170.8 17.0672 170.734 17.2671 170.6 17.4004C170.4 17.6004 170.1 17.7004 169.7 17.7004C169.434 17.7004 169.134 17.6673 168.8 17.6006C168.4 17.4673 167.967 17.2672 167.5 17.0005C167.034 16.7338 166.5 16.3339 165.9 15.8005ZM183.5 14.2004C183.5 15.4671 183.8 16.5337 184.4 17.4004C184.934 18.2671 185.7 18.9672 186.7 19.5005C187.7 19.9672 188.834 20.2004 190.1 20.2004C191.367 20.2004 192.467 19.9672 193.4 19.5005C194.4 18.9672 195.2 18.2671 195.8 17.4004C196.4 16.5337 196.7 15.4671 196.7 14.2004C196.7 13.0004 196.4 11.9673 195.8 11.1006C195.2 10.1673 194.4 9.46715 193.4 9.00049C192.467 8.46715 191.367 8.20044 190.1 8.20044C188.834 8.20044 187.7 8.46715 186.7 9.00049C185.7 9.46715 184.934 10.1673 184.4 11.1006C183.8 11.9673 183.5 13.0004 183.5 14.2004ZM187.4 14.2004C187.4 13.6004 187.534 13.1004 187.8 12.7004C188 12.3004 188.3 11.9671 188.7 11.7004C189.1 11.4338 189.567 11.3005 190.1 11.3005C190.567 11.3005 191 11.4338 191.4 11.7004C191.8 11.9671 192.134 12.3004 192.4 12.7004C192.667 13.1004 192.8 13.6004 192.8 14.2004C192.8 14.8671 192.667 15.4005 192.4 15.8005C192.134 16.2005 191.8 16.5339 191.4 16.8005C191 17.0005 190.567 17.1006 190.1 17.1006C189.567 17.1006 189.1 17.0005 188.7 16.8005C188.3 16.5339 188 16.2005 187.8 15.8005C187.534 15.4005 187.4 14.8671 187.4 14.2004ZM203.3 2.50049H199.3L198.2 10.5005H200.7L203.3 2.50049ZM212.2 8.50049H204.5V11.6006H212.2V8.50049ZM210.1 4.50049H206.5V20.0005H210.1V4.50049ZM216.7 16.4004C216.7 16.1337 216.767 15.9004 216.9 15.7004C217.034 15.5004 217.234 15.3338 217.5 15.2004C217.767 15.1338 218.134 15.1006 218.6 15.1006C219.134 15.1006 219.667 15.1672 220.2 15.3005C220.734 15.5005 221.2 15.7338 221.6 16.0005V14.3005C221.4 14.1005 221.1 13.9004 220.7 13.7004C220.3 13.5004 219.834 13.3338 219.3 13.2004C218.7 13.0671 218.067 13.0005 217.4 13.0005C215.934 13.0005 214.834 13.3338 214.1 14.0005C213.3 14.6005 212.9 15.4673 212.9 16.6006C212.9 17.4006 213.067 18.0673 213.4 18.6006C213.8 19.1339 214.3 19.5339 214.9 19.8005C215.567 20.0672 216.267 20.2004 217 20.2004C217.734 20.2004 218.4 20.1004 219 19.9004C219.667 19.6337 220.2 19.2338 220.6 18.7004C221 18.1671 221.2 17.5339 221.2 16.8005L220.8 15.3005C220.8 15.8339 220.667 16.3004 220.4 16.7004C220.2 17.0338 219.9 17.3005 219.5 17.5005C219.167 17.7005 218.767 17.8005 218.3 17.8005C218.034 17.8005 217.767 17.7339 217.5 17.6006C217.234 17.5339 217.034 17.4004 216.9 17.2004C216.767 16.9338 216.7 16.6671 216.7 16.4004ZM213.7 9.50049L215 12.0005C215.2 11.9338 215.467 11.8006 215.8 11.6006C216.2 11.4673 216.634 11.3338 217.1 11.2004C217.567 11.1338 218.067 11.1006 218.6 11.1006C218.934 11.1006 219.234 11.1006 219.5 11.1006C219.834 11.1673 220.067 11.3005 220.2 11.5005C220.4 11.6338 220.534 11.8005 220.6 12.0005C220.734 12.2005 220.8 12.4338 220.8 12.7004V20.0005H224.4V11.9004C224.4 11.1004 224.167 10.4337 223.7 9.90039C223.234 9.36706 222.6 8.93392 221.8 8.60059C221 8.33392 220.1 8.20044 219.1 8.20044C218.034 8.20044 217.034 8.33392 216.1 8.60059C215.167 8.86725 214.367 9.16716 213.7 9.50049ZM239.7 0.500488H236V20.0005H239.7V0.500488ZM226.6 14.2004C226.6 15.5338 226.834 16.6338 227.3 17.5005C227.834 18.3672 228.534 19.0673 229.4 19.6006C230.2 20.0006 231.067 20.2004 232 20.2004C233 20.2004 233.867 19.9672 234.6 19.5005C235.334 19.0338 235.934 18.3337 236.4 17.4004C236.8 16.5337 237 15.4671 237 14.2004C237 13.0004 236.8 11.9673 236.4 11.1006C235.934 10.1673 235.334 9.46715 234.6 9.00049C233.867 8.46715 233 8.20044 232 8.20044C231.067 8.20044 230.2 8.43372 229.4 8.90039C228.534 9.36706 227.834 10.0672 227.3 11.0005C226.834 11.8672 226.6 12.9338 226.6 14.2004ZM230.5 14.2004C230.5 13.6004 230.634 13.1004 230.9 12.7004C231.167 12.2338 231.5 11.9004 231.9 11.7004C232.3 11.4338 232.767 11.3005 233.3 11.3005C233.7 11.3005 234.1 11.4006 234.5 11.6006C234.967 11.8673 235.334 12.2338 235.6 12.7004C235.867 13.1004 236 13.6004 236 14.2004C236 14.8671 235.867 15.4005 235.6 15.8005C235.334 16.2672 234.967 16.6005 234.5 16.8005C234.1 17.0672 233.7 17.2004 233.3 17.2004C232.767 17.2004 232.3 17.0672 231.9 16.8005C231.5 16.6005 231.167 16.2672 230.9 15.8005C230.634 15.3339 230.5 14.8004 230.5 14.2004ZM242.4 4.20044C242.4 4.80044 242.634 5.26725 243.1 5.60059C243.5 6.00059 244 6.20044 244.6 6.20044C245.267 6.20044 245.8 6.00059 246.2 5.60059C246.6 5.26725 246.8 4.80044 246.8 4.20044C246.8 3.60044 246.6 3.10044 246.2 2.70044C245.8 2.30044 245.267 2.10059 244.6 2.10059C244 2.10059 243.5 2.30044 243.1 2.70044C242.634 3.10044 242.4 3.60044 242.4 4.20044ZM246.5 8.50049H242.8V20.0005H246.5V8.50049ZM252.8 20.8005H249.1C249.234 21.8005 249.534 22.7005 250 23.5005C250.467 24.3005 251.134 24.9005 252 25.3005C252.934 25.7672 254.134 26.0005 255.6 26.0005C256.734 26.0005 257.8 25.7672 258.8 25.3005C259.734 24.9005 260.467 24.2339 261 23.3005C261.6 22.3672 261.9 21.1671 261.9 19.7004V8.50049H258.3V19.7004C258.3 20.4338 258.167 21.0338 257.9 21.5005C257.634 21.9672 257.3 22.3339 256.9 22.6006C256.434 22.8006 255.934 22.9004 255.4 22.9004C254.934 22.9004 254.5 22.8338 254.1 22.7004C253.7 22.5671 253.4 22.3338 253.2 22.0005C253 21.6672 252.867 21.2672 252.8 20.8005ZM248.9 14.1006C248.9 15.3673 249.167 16.4339 249.7 17.3005C250.234 18.1672 250.9 18.8339 251.7 19.3005C252.567 19.7005 253.467 19.9004 254.4 19.9004C255.334 19.9004 256.167 19.7005 256.9 19.3005C257.634 18.8339 258.234 18.1672 258.7 17.3005C259.1 16.3672 259.3 15.3006 259.3 14.1006C259.3 12.8339 259.1 11.7671 258.7 10.9004C258.234 10.0337 257.634 9.36706 256.9 8.90039C256.167 8.43372 255.334 8.20044 254.4 8.20044C253.467 8.20044 252.567 8.43372 251.7 8.90039C250.9 9.36706 250.234 10.0005 249.7 10.8005C249.167 11.6672 248.9 12.7673 248.9 14.1006ZM252.9 14.1006C252.9 13.5006 253 13.0006 253.2 12.6006C253.467 12.1339 253.8 11.8006 254.2 11.6006C254.667 11.4006 255.134 11.3005 255.6 11.3005C255.934 11.3005 256.267 11.3672 256.6 11.5005C256.867 11.5672 257.134 11.7338 257.4 12.0005C257.667 12.2005 257.867 12.5004 258 12.9004C258.2 13.2337 258.3 13.6339 258.3 14.1006C258.3 14.7006 258.167 15.2006 257.9 15.6006C257.634 16.0673 257.3 16.4006 256.9 16.6006C256.5 16.8006 256.067 16.9004 255.6 16.9004C255.134 16.9004 254.667 16.8006 254.2 16.6006C253.8 16.3339 253.467 16.0006 253.2 15.6006C253 15.2006 252.9 14.7006 252.9 14.1006ZM267.7 16.4004C267.7 16.1337 267.767 15.9004 267.9 15.7004C268.034 15.5004 268.234 15.3338 268.5 15.2004C268.767 15.1338 269.134 15.1006 269.6 15.1006C270.2 15.1006 270.767 15.1672 271.3 15.3005C271.834 15.5005 272.3 15.7338 272.7 16.0005V14.3005C272.5 14.1005 272.2 13.9004 271.8 13.7004C271.4 13.5004 270.9 13.3338 270.3 13.2004C269.767 13.0671 269.134 13.0005 268.4 13.0005C267 13.0005 265.9 13.3338 265.1 14.0005C264.3 14.6005 263.9 15.4673 263.9 16.6006C263.9 17.4006 264.1 18.0673 264.5 18.6006C264.9 19.1339 265.4 19.5339 266 19.8005C266.6 20.0672 267.267 20.2004 268 20.2004C268.734 20.2004 269.434 20.1004 270.1 19.9004C270.7 19.6337 271.2 19.2338 271.6 18.7004C272 18.1671 272.2 17.5339 272.2 16.8005L271.8 15.3005C271.8 15.8339 271.7 16.3004 271.5 16.7004C271.234 17.0338 270.934 17.3005 270.6 17.5005C270.2 17.7005 269.8 17.8005 269.4 17.8005C269.067 17.8005 268.8 17.7339 268.6 17.6006C268.334 17.5339 268.134 17.4004 268 17.2004C267.8 16.9338 267.7 16.6671 267.7 16.4004ZM264.8 9.50049L266.1 12.0005C266.234 11.9338 266.5 11.8006 266.9 11.6006C267.234 11.4673 267.634 11.3338 268.1 11.2004C268.634 11.1338 269.167 11.1006 269.7 11.1006C270.034 11.1006 270.334 11.1006 270.6 11.1006C270.867 11.1673 271.1 11.3005 271.3 11.5005C271.5 11.6338 271.634 11.8005 271.7 12.0005C271.767 12.2005 271.8 12.4338 271.8 12.7004V20.0005H275.5V11.9004C275.5 11.1004 275.267 10.4337 274.8 9.90039C274.334 9.36706 273.7 8.93392 272.9 8.60059C272.1 8.33392 271.167 8.20044 270.1 8.20044C269.034 8.20044 268.034 8.33392 267.1 8.60059C266.234 8.86725 265.467 9.16716 264.8 9.50049ZM285.8 13.0005V20.0005H289.7V12.6006C289.7 11.2006 289.367 10.1337 288.7 9.40039C288.034 8.60039 287 8.20044 285.6 8.20044C284.734 8.20044 284 8.36711 283.4 8.70044C282.867 9.10044 282.434 9.60044 282.1 10.2004V8.50049H278.3V20.0005H282.1V13.0005C282.1 12.5338 282.167 12.1339 282.3 11.8005C282.5 11.5339 282.734 11.3006 283 11.1006C283.334 10.9673 283.7 10.9004 284.1 10.9004C284.7 10.9004 285.134 11.0671 285.4 11.4004C285.667 11.8004 285.8 12.3338 285.8 13.0005ZM5.10034 51.4004C5.10034 51.1337 5.16702 50.9004 5.30035 50.7004C5.43369 50.5004 5.63372 50.3338 5.90039 50.2004C6.16706 50.1338 6.5337 50.1006 7.00037 50.1006C7.60037 50.1006 8.13368 50.1672 8.60034 50.3005C9.13368 50.5005 9.60037 50.7338 10.0004 51.0005V49.3005C9.80037 49.1005 9.50034 48.9004 9.10034 48.7004C8.70034 48.5004 8.23371 48.3338 7.70038 48.2004C7.16705 48.0671 6.53369 48.0005 5.80035 48.0005C4.40035 48.0005 3.30037 48.3338 2.50037 49.0005C1.70037 49.6005 1.30035 50.4673 1.30035 51.6006C1.30035 52.4006 1.50039 53.0673 1.90039 53.6006C2.23372 54.1339 2.73372 54.5339 3.40039 54.8005C4.00039 55.0672 4.66706 55.2004 5.40039 55.2004C6.13372 55.2004 6.8337 55.1004 7.50037 54.9004C8.10037 54.6337 8.60037 54.2338 9.00037 53.7004C9.40037 53.1671 9.60034 52.5339 9.60034 51.8005L9.20038 50.3005C9.20038 50.9005 9.10039 51.3671 8.90039 51.7004C8.63372 52.0338 8.3337 52.3005 8.00037 52.5005C7.60037 52.7005 7.20035 52.8005 6.80035 52.8005C6.46702 52.8005 6.16706 52.7671 5.90039 52.7004C5.70039 52.5671 5.50035 52.4004 5.30035 52.2004C5.16702 51.9338 5.10034 51.6671 5.10034 51.4004ZM2.20038 44.5005L3.40039 47.0005C3.60039 46.9338 3.86705 46.8338 4.20038 46.7004C4.60038 46.5004 5.0337 46.3338 5.50037 46.2004C6.0337 46.1338 6.5337 46.1006 7.00037 46.1006C7.40037 46.1006 7.7337 46.1338 8.00037 46.2004C8.26703 46.2004 8.50038 46.3005 8.70038 46.5005C8.83371 46.6338 8.96701 46.8005 9.10034 47.0005C9.16701 47.2005 9.20038 47.4338 9.20038 47.7004V55.0005H12.8004V46.9004C12.8004 46.1004 12.567 45.4337 12.1003 44.9004C11.6337 44.3671 11.0004 43.9339 10.2004 43.6006C9.40038 43.3339 8.50037 43.2004 7.50037 43.2004C6.4337 43.2004 5.4337 43.3339 4.50037 43.6006C3.56703 43.8673 2.80038 44.1672 2.20038 44.5005ZM19.8004 60.5005L27.3004 43.5005H23.4004L19.8004 52.7004H21.7004L18.0004 43.5005H13.8004L18.8004 54.1006L16.0004 60.5005H19.8004ZM36.0004 48.0005V55.0005H40.0004V47.6006C40.0004 46.2006 39.667 45.1337 39.0004 44.4004C38.3337 43.6004 37.3004 43.2004 35.9004 43.2004C35.0337 43.2004 34.3004 43.3671 33.7004 43.7004C33.167 44.1004 32.7337 44.6004 32.4004 45.2004V43.5005H28.6003V55.0005H32.4004V48.0005C32.4004 47.5338 32.467 47.1339 32.6003 46.8005C32.8003 46.5339 33.0337 46.3006 33.3004 46.1006C33.6337 45.9673 34.0004 45.9004 34.4004 45.9004C35.0004 45.9004 35.4003 46.0671 35.6003 46.4004C35.867 46.8004 36.0004 47.3338 36.0004 48.0005ZM45.9004 51.4004C45.9004 51.1337 45.967 50.9004 46.1003 50.7004C46.2337 50.5004 46.4337 50.3338 46.7004 50.2004C46.967 50.1338 47.3004 50.1006 47.7004 50.1006C48.3004 50.1006 48.8671 50.1672 49.4004 50.3005C49.9337 50.5005 50.4004 50.7338 50.8004 51.0005V49.3005C50.6004 49.1005 50.3004 48.9004 49.9004 48.7004C49.5004 48.5004 49.0004 48.3338 48.4004 48.2004C47.8671 48.0671 47.267 48.0005 46.6003 48.0005C45.1337 48.0005 44.0004 48.3338 43.2004 49.0005C42.467 49.6005 42.1003 50.4673 42.1003 51.6006C42.1003 52.4006 42.267 53.0673 42.6003 53.6006C43.0003 54.1339 43.5003 54.5339 44.1003 54.8005C44.767 55.0672 45.467 55.2004 46.2004 55.2004C46.9337 55.2004 47.6004 55.1004 48.2004 54.9004C48.867 54.6337 49.4004 54.2338 49.8004 53.7004C50.2004 53.1671 50.4004 52.5339 50.4004 51.8005L50.0004 50.3005C50.0004 50.9005 49.867 51.3671 49.6003 51.7004C49.4003 52.0338 49.1004 52.3005 48.7004 52.5005C48.367 52.7005 47.967 52.8005 47.5004 52.8005C47.2337 52.8005 46.967 52.7671 46.7004 52.7004C46.4337 52.5671 46.2337 52.4004 46.1003 52.2004C45.967 51.9338 45.9004 51.6671 45.9004 51.4004ZM42.9004 44.5005L44.2004 47.0005C44.3337 46.9338 44.6004 46.8338 45.0004 46.7004C45.3337 46.5004 45.767 46.3338 46.3004 46.2004C46.767 46.1338 47.267 46.1006 47.8004 46.1006C48.1337 46.1006 48.4337 46.1338 48.7004 46.2004C48.967 46.2004 49.2004 46.3005 49.4004 46.5005C49.6004 46.6338 49.7337 46.8005 49.8004 47.0005C49.9337 47.2005 50.0004 47.4338 50.0004 47.7004V55.0005H53.6003V46.9004C53.6003 46.1004 53.3671 45.4337 52.9004 44.9004C52.4337 44.3671 51.8004 43.9339 51.0004 43.6006C50.2004 43.3339 49.3004 43.2004 48.3004 43.2004C47.167 43.2004 46.167 43.3339 45.3004 43.6006C44.367 43.8673 43.5671 44.1672 42.9004 44.5005ZM63.9004 48.0005V55.0005H67.8004V47.6006C67.8004 46.2006 67.467 45.1337 66.8004 44.4004C66.2004 43.6004 65.167 43.2004 63.7004 43.2004C62.8337 43.2004 62.1337 43.3671 61.6003 43.7004C61.0003 44.1004 60.5337 44.6004 60.2004 45.2004V43.5005H56.4004V55.0005H60.2004V48.0005C60.2004 47.5338 60.3004 47.1339 60.5004 46.8005C60.6337 46.5339 60.867 46.3006 61.2004 46.1006C61.467 45.9673 61.8004 45.9004 62.2004 45.9004C62.8004 45.9004 63.2337 46.0671 63.5004 46.4004C63.767 46.8004 63.9004 47.3338 63.9004 48.0005ZM78.9004 50.8005L77.3004 53.3005C77.8337 53.7005 78.4004 54.0671 79.0004 54.4004C79.6004 54.7337 80.267 55.0004 81.0004 55.2004C81.667 55.4004 82.4337 55.5005 83.3004 55.5005C84.6337 55.5005 85.7004 55.2006 86.5004 54.6006C87.2337 53.9339 87.6003 52.9671 87.6003 51.7004C87.6003 51.0338 87.4337 50.4672 87.1003 50.0005C86.8337 49.6005 86.4337 49.2337 85.9004 48.9004C85.4337 48.6337 84.9004 48.4004 84.3004 48.2004C83.7004 48.0004 83.2004 47.8338 82.8004 47.7004C82.4004 47.5004 82.1004 47.3338 81.9004 47.2004C81.7004 47.0004 81.6003 46.8006 81.6003 46.6006C81.6003 46.3339 81.7004 46.1673 81.9004 46.1006C82.0337 45.9006 82.3004 45.8005 82.7004 45.8005C83.167 45.8005 83.7337 45.9672 84.4004 46.3005C85.0004 46.5672 85.5337 46.9337 86.0004 47.4004L87.4004 44.9004C86.9337 44.5671 86.4337 44.3006 85.9004 44.1006C85.4337 43.8339 84.9004 43.6338 84.3004 43.5005C83.7004 43.3005 83.0671 43.2004 82.4004 43.2004C81.6004 43.2004 80.867 43.3339 80.2004 43.6006C79.6004 43.8673 79.1004 44.2338 78.7004 44.7004C78.3004 45.1671 78.1003 45.7672 78.1003 46.5005C78.1003 47.2338 78.267 47.8339 78.6003 48.3005C78.9337 48.7672 79.3337 49.1337 79.8004 49.4004C80.3337 49.6671 80.8671 49.9006 81.4004 50.1006C82.0004 50.3006 82.467 50.5004 82.8004 50.7004C83.2004 50.8338 83.467 51.0004 83.6003 51.2004C83.7337 51.3338 83.8004 51.5339 83.8004 51.8005C83.8004 52.0672 83.7337 52.2671 83.6003 52.4004C83.4003 52.6004 83.1004 52.7004 82.7004 52.7004C82.4337 52.7004 82.1337 52.6673 81.8004 52.6006C81.4004 52.4673 80.967 52.2672 80.5004 52.0005C80.0337 51.7338 79.5004 51.3339 78.9004 50.8005ZM89.5004 39.2004C89.5004 39.8004 89.7003 40.3004 90.1003 40.7004C90.567 41.0338 91.1004 41.2004 91.7004 41.2004C92.3004 41.2004 92.8004 41.0338 93.2004 40.7004C93.667 40.3004 93.9004 39.8004 93.9004 39.2004C93.9004 38.6004 93.667 38.1004 93.2004 37.7004C92.8004 37.3671 92.3004 37.2004 91.7004 37.2004C91.1004 37.2004 90.567 37.3671 90.1003 37.7004C89.7003 38.1004 89.5004 38.6004 89.5004 39.2004ZM93.5004 43.5005H89.8004V55.0005H93.5004V43.5005ZM96.5004 46.9004H101.5L95.5004 55.0005H107V51.6006H102L107.8 43.5005H96.5004V46.9004ZM112.5 55.8005H108.8C108.934 56.8005 109.234 57.7005 109.7 58.5005C110.167 59.2338 110.834 59.8339 111.7 60.3005C112.634 60.7005 113.834 60.9004 115.3 60.9004C116.434 60.9004 117.5 60.7005 118.5 60.3005C119.434 59.9005 120.167 59.2339 120.7 58.3005C121.3 57.3672 121.6 56.1671 121.6 54.7004V43.5005H118V54.7004C118 55.4338 117.867 56.0338 117.6 56.5005C117.334 56.9672 117 57.3339 116.6 57.6006C116.134 57.8006 115.634 57.9004 115.1 57.9004C114.634 57.9004 114.2 57.8338 113.8 57.7004C113.4 57.5004 113.1 57.2672 112.9 57.0005C112.7 56.6672 112.567 56.2672 112.5 55.8005ZM108.6 49.1006C108.6 50.3673 108.867 51.4339 109.4 52.3005C109.934 53.1672 110.6 53.8339 111.4 54.3005C112.267 54.7005 113.167 54.9004 114.1 54.9004C115.034 54.9004 115.867 54.6671 116.6 54.2004C117.334 53.7338 117.934 53.0671 118.4 52.2004C118.8 51.3338 119 50.3006 119 49.1006C119 47.8339 118.8 46.7671 118.4 45.9004C117.934 45.0337 117.334 44.3671 116.6 43.9004C115.867 43.4337 115.034 43.2004 114.1 43.2004C113.167 43.2004 112.267 43.4337 111.4 43.9004C110.6 44.3004 109.934 44.9339 109.4 45.8005C108.867 46.6672 108.6 47.7673 108.6 49.1006ZM112.6 49.1006C112.6 48.5006 112.7 47.9672 112.9 47.5005C113.167 47.1005 113.5 46.8006 113.9 46.6006C114.367 46.4006 114.834 46.3005 115.3 46.3005C115.634 46.3005 115.967 46.3337 116.3 46.4004C116.567 46.5337 116.834 46.7338 117.1 47.0005C117.367 47.2005 117.567 47.4672 117.7 47.8005C117.9 48.2005 118 48.6339 118 49.1006C118 49.7006 117.867 50.2006 117.6 50.6006C117.334 51.0006 117 51.3339 116.6 51.6006C116.2 51.8006 115.767 51.9004 115.3 51.9004C114.834 51.9004 114.367 51.7672 113.9 51.5005C113.5 51.3005 113.167 51.0006 112.9 50.6006C112.7 50.1339 112.6 49.6339 112.6 49.1006ZM127.4 51.4004C127.4 51.0671 127.467 50.8338 127.6 50.7004C127.734 50.5004 127.934 50.3338 128.2 50.2004C128.467 50.1338 128.834 50.1006 129.3 50.1006C129.9 50.1006 130.467 50.1672 131 50.3005C131.534 50.4339 132 50.6672 132.4 51.0005V49.3005C132.2 49.1005 131.9 48.9004 131.5 48.7004C131.1 48.5004 130.6 48.3338 130 48.2004C129.467 48.0671 128.834 48.0005 128.1 48.0005C126.7 48.0005 125.6 48.3338 124.8 49.0005C124 49.6005 123.6 50.4673 123.6 51.6006C123.6 52.3339 123.8 53.0006 124.2 53.6006C124.6 54.1339 125.1 54.5339 125.7 54.8005C126.3 55.0672 126.967 55.2004 127.7 55.2004C128.434 55.2004 129.134 55.0672 129.8 54.8005C130.4 54.5339 130.9 54.1671 131.3 53.7004C131.7 53.1671 131.9 52.5339 131.9 51.8005L131.5 50.3005C131.5 50.8339 131.4 51.3004 131.2 51.7004C130.934 52.0338 130.634 52.3005 130.3 52.5005C129.9 52.7005 129.5 52.8005 129.1 52.8005C128.767 52.8005 128.5 52.7339 128.3 52.6006C128.034 52.4673 127.834 52.3006 127.7 52.1006C127.5 51.9006 127.4 51.6671 127.4 51.4004ZM124.5 44.5005L125.8 47.0005C125.934 46.8672 126.2 46.7339 126.6 46.6006C126.934 46.4673 127.334 46.3338 127.8 46.2004C128.334 46.0671 128.867 46.0005 129.4 46.0005C129.734 46.0005 130.034 46.0339 130.3 46.1006C130.567 46.1673 130.8 46.2671 131 46.4004C131.2 46.6004 131.334 46.8005 131.4 47.0005C131.467 47.2005 131.5 47.4338 131.5 47.7004V55.0005H135.2V46.9004C135.2 46.1004 134.967 45.4005 134.5 44.8005C134.034 44.2672 133.4 43.8673 132.6 43.6006C131.8 43.2673 130.867 43.1006 129.8 43.1006C128.734 43.1006 127.734 43.2673 126.8 43.6006C125.934 43.8673 125.167 44.1672 124.5 44.5005ZM163 55.0005V47.6006C163 46.6673 162.9 45.8671 162.7 45.2004C162.434 44.5338 162.034 44.0338 161.5 43.7004C161.034 43.3671 160.334 43.2004 159.4 43.2004C158.6 43.2004 157.9 43.3671 157.3 43.7004C156.7 44.0338 156.2 44.5006 155.8 45.1006C155.534 44.5006 155.134 44.0338 154.6 43.7004C154.067 43.3671 153.367 43.2004 152.5 43.2004C151.7 43.2004 151 43.3671 150.4 43.7004C149.867 44.0338 149.434 44.5338 149.1 45.2004V43.5005H145.5V55.0005H149.1V48.0005C149.1 47.5338 149.167 47.1339 149.3 46.8005C149.5 46.4672 149.7 46.2339 149.9 46.1006C150.167 45.9006 150.467 45.8005 150.8 45.8005C151.334 45.8005 151.7 46.0004 151.9 46.4004C152.167 46.7337 152.3 47.2672 152.3 48.0005V55.0005H156.1V48.0005C156.1 47.5338 156.167 47.1339 156.3 46.8005C156.434 46.4672 156.634 46.2339 156.9 46.1006C157.167 45.9006 157.467 45.8005 157.8 45.8005C158.334 45.8005 158.7 46.0004 158.9 46.4004C159.1 46.7337 159.2 47.2672 159.2 48.0005V55.0005H163ZM165.3 49.2004C165.3 50.4004 165.6 51.4671 166.2 52.4004C166.734 53.2671 167.5 53.9672 168.5 54.5005C169.5 54.9672 170.634 55.2004 171.9 55.2004C173.167 55.2004 174.267 54.9672 175.2 54.5005C176.2 53.9672 177 53.2671 177.6 52.4004C178.2 51.4671 178.5 50.4004 178.5 49.2004C178.5 48.0004 178.2 46.9338 177.6 46.0005C177 45.1338 176.2 44.4337 175.2 43.9004C174.267 43.4337 173.167 43.2004 171.9 43.2004C170.634 43.2004 169.5 43.4337 168.5 43.9004C167.5 44.4337 166.734 45.1338 166.2 46.0005C165.6 46.9338 165.3 48.0004 165.3 49.2004ZM169.2 49.2004C169.2 48.6004 169.334 48.1004 169.6 47.7004C169.8 47.2338 170.1 46.9004 170.5 46.7004C170.9 46.4338 171.367 46.3005 171.9 46.3005C172.367 46.3005 172.8 46.4338 173.2 46.7004C173.6 46.9004 173.934 47.2338 174.2 47.7004C174.467 48.1004 174.6 48.6004 174.6 49.2004C174.6 49.8004 174.467 50.3339 174.2 50.8005C173.934 51.2005 173.6 51.5004 173.2 51.7004C172.8 51.9671 172.367 52.1006 171.9 52.1006C171.367 52.1006 170.9 51.9671 170.5 51.7004C170.1 51.5004 169.8 51.2005 169.6 50.8005C169.334 50.3339 169.2 49.8004 169.2 49.2004ZM181.3 50.8005L179.8 53.3005C180.267 53.7005 180.8 54.0671 181.4 54.4004C182 54.7337 182.667 55.0004 183.4 55.2004C184.134 55.3338 184.9 55.4004 185.7 55.4004C187.1 55.4004 188.167 55.1005 188.9 54.5005C189.634 53.9005 190 52.9671 190 51.7004C190 50.9671 189.867 50.4005 189.6 50.0005C189.267 49.5338 188.834 49.1671 188.3 48.9004C187.834 48.6337 187.3 48.4004 186.7 48.2004C186.1 47.9338 185.6 47.7339 185.2 47.6006C184.867 47.4673 184.567 47.3338 184.3 47.2004C184.1 47.0004 184 46.7672 184 46.5005C184 46.3005 184.1 46.1338 184.3 46.0005C184.5 45.8672 184.767 45.8005 185.1 45.8005C185.634 45.8005 186.2 45.9672 186.8 46.3005C187.4 46.5672 187.934 46.9337 188.4 47.4004L189.8 44.9004C189.334 44.5671 188.834 44.2672 188.3 44.0005C187.834 43.8005 187.3 43.6004 186.7 43.4004C186.167 43.2671 185.567 43.2004 184.9 43.2004C184.034 43.2004 183.267 43.3339 182.6 43.6006C182 43.8673 181.5 44.2338 181.1 44.7004C180.767 45.1671 180.6 45.7672 180.6 46.5005C180.6 47.2338 180.734 47.8339 181 48.3005C181.334 48.7672 181.734 49.1337 182.2 49.4004C182.734 49.6671 183.267 49.9006 183.8 50.1006C184.4 50.3006 184.9 50.4673 185.3 50.6006C185.634 50.8006 185.867 50.9673 186 51.1006C186.2 51.3006 186.3 51.5339 186.3 51.8005C186.3 52.0672 186.2 52.2671 186 52.4004C185.8 52.6004 185.5 52.7004 185.1 52.7004C184.834 52.7004 184.534 52.6338 184.2 52.5005C183.8 52.3672 183.367 52.1671 182.9 51.9004C182.434 51.6337 181.9 51.2672 181.3 50.8005ZM203.6 50.5005V43.5005H199.6V50.9004C199.6 52.2337 199.934 53.3006 200.6 54.1006C201.267 54.8339 202.3 55.2004 203.7 55.2004C204.567 55.2004 205.3 55.0338 205.9 54.7004C206.434 54.3671 206.867 53.8671 207.2 53.2004V55.0005H211V43.5005H207.2V50.5005C207.2 50.9005 207.134 51.2673 207 51.6006C206.8 51.9339 206.567 52.1672 206.3 52.3005C206.034 52.5005 205.667 52.6006 205.2 52.6006C204.6 52.6006 204.167 52.4005 203.9 52.0005C203.7 51.6672 203.6 51.1672 203.6 50.5005ZM214.6 50.8005L213 53.3005C213.534 53.7005 214.1 54.0671 214.7 54.4004C215.3 54.7337 215.967 55.0004 216.7 55.2004C217.367 55.3338 218.134 55.4004 219 55.4004C220.334 55.4004 221.4 55.1005 222.2 54.5005C222.934 53.9005 223.3 52.9671 223.3 51.7004C223.3 50.9671 223.134 50.4005 222.8 50.0005C222.534 49.5338 222.134 49.1671 221.6 48.9004C221.134 48.6337 220.6 48.4004 220 48.2004C219.4 47.9338 218.9 47.7339 218.5 47.6006C218.1 47.4673 217.8 47.3338 217.6 47.2004C217.4 47.0004 217.3 46.7672 217.3 46.5005C217.3 46.3005 217.4 46.1338 217.6 46.0005C217.734 45.8672 218 45.8005 218.4 45.8005C218.867 45.8005 219.434 45.9672 220.1 46.3005C220.7 46.5672 221.234 46.9337 221.7 47.4004L223.1 44.9004C222.634 44.5671 222.134 44.2672 221.6 44.0005C221.134 43.8005 220.6 43.6004 220 43.4004C219.4 43.2671 218.767 43.2004 218.1 43.2004C217.3 43.2004 216.567 43.3339 215.9 43.6006C215.3 43.8673 214.8 44.2338 214.4 44.7004C214 45.1671 213.8 45.7672 213.8 46.5005C213.8 47.2338 213.967 47.8339 214.3 48.3005C214.634 48.7672 215.034 49.1337 215.5 49.4004C216.034 49.6671 216.567 49.9006 217.1 50.1006C217.7 50.3006 218.167 50.4673 218.5 50.6006C218.9 50.8006 219.167 50.9673 219.3 51.1006C219.434 51.3006 219.5 51.5339 219.5 51.8005C219.5 52.0672 219.434 52.2671 219.3 52.4004C219.1 52.6004 218.8 52.7004 218.4 52.7004C218.134 52.7004 217.834 52.6338 217.5 52.5005C217.1 52.3672 216.667 52.1671 216.2 51.9004C215.734 51.6337 215.2 51.2672 214.6 50.8005ZM231.7 43.5005H224V46.6006H231.7V43.5005ZM229.7 39.5005H226.1V55.0005H229.7V39.5005ZM232.7 49.2004C232.7 50.4004 232.967 51.4671 233.5 52.4004C234.1 53.2671 234.9 53.9672 235.9 54.5005C236.9 54.9672 238 55.2004 239.2 55.2004C240.467 55.2004 241.6 54.9672 242.6 54.5005C243.6 53.9672 244.367 53.2671 244.9 52.4004C245.5 51.4671 245.8 50.4004 245.8 49.2004C245.8 48.0004 245.5 46.9673 244.9 46.1006C244.367 45.1673 243.6 44.4672 242.6 44.0005C241.6 43.4672 240.467 43.2004 239.2 43.2004C238 43.2004 236.9 43.4672 235.9 44.0005C234.9 44.4672 234.1 45.1673 233.5 46.1006C232.967 46.9673 232.7 48.0004 232.7 49.2004ZM236.5 49.2004C236.5 48.6004 236.634 48.1004 236.9 47.7004C237.167 47.2338 237.5 46.9004 237.9 46.7004C238.3 46.4338 238.734 46.3005 239.2 46.3005C239.734 46.3005 240.2 46.4338 240.6 46.7004C241 46.9004 241.3 47.2338 241.5 47.7004C241.767 48.1004 241.9 48.6004 241.9 49.2004C241.9 49.8004 241.767 50.3339 241.5 50.8005C241.3 51.2005 241 51.5339 240.6 51.8005C240.2 52.0005 239.734 52.1006 239.2 52.1006C238.734 52.1006 238.3 52.0005 237.9 51.8005C237.5 51.5339 237.167 51.2005 236.9 50.8005C236.634 50.3339 236.5 49.8004 236.5 49.2004ZM247.6 46.9004H252.6L246.6 55.0005H258.1V51.6006H253.1L258.9 43.5005H247.6V46.9004Z" fill="#202020"/>
</svg>
