<svg width="92" height="13" viewBox="0 0 92 13" fill="none" xmlns="http://www.w3.org/2000/svg">
<path d="M7.59961 2.39917L1.69965 10.8992H7.79962V11.9993H0.0996094V10.8992L5.89966 2.49927H0.199646V1.29932H7.59961V2.39917ZM8.89966 8.09937V7.99927C8.89966 7.26593 9.06633 6.56584 9.39966 5.89917C9.66632 5.29917 10.0663 4.8326 10.5996 4.49927C11.1996 4.16593 11.833 3.99927 12.4996 3.99927C13.5663 3.99927 14.4329 4.36603 15.0996 5.09937C15.7663 5.8327 16.0996 6.8327 16.0996 8.09937V8.19922C16.0996 8.93255 15.9663 9.63265 15.6996 10.2993C15.3663 10.8993 14.933 11.3659 14.3997 11.6992C13.8663 12.0326 13.233 12.1992 12.4996 12.1992C11.433 12.1992 10.5663 11.8327 9.89966 11.0994C9.23299 10.366 8.89966 9.36603 8.89966 8.09937ZM10.2996 8.19922C10.2996 9.06589 10.4997 9.76598 10.8997 10.2993C11.2997 10.8327 11.833 11.0994 12.4996 11.0994C13.233 11.0994 13.7996 10.8327 14.1996 10.2993C14.5996 9.76598 14.7996 8.99927 14.7996 7.99927C14.7996 7.1326 14.5996 6.4325 14.1996 5.89917C13.733 5.36584 13.1663 5.09937 12.4996 5.09937C11.833 5.09937 11.2997 5.36584 10.8997 5.89917C10.4997 6.4325 10.2996 7.19922 10.2996 8.19922ZM17.4996 8.09937V7.99927C17.4996 7.26593 17.633 6.56584 17.8997 5.89917C18.233 5.29917 18.6663 4.8326 19.1996 4.49927C19.733 4.16593 20.3663 3.99927 21.0996 3.99927C22.1663 3.99927 23.033 4.36603 23.6996 5.09937C24.3663 5.8327 24.6996 6.8327 24.6996 8.09937V8.19922C24.6996 8.93255 24.533 9.63265 24.1996 10.2993C23.933 10.8993 23.533 11.3659 22.9996 11.6992C22.4663 12.0326 21.8329 12.1992 21.0996 12.1992C20.0329 12.1992 19.1663 11.8327 18.4996 11.0994C17.833 10.366 17.4996 9.36603 17.4996 8.09937ZM18.7996 8.19922C18.7996 9.06589 18.9997 9.76598 19.3997 10.2993C19.8663 10.8327 20.4329 11.0994 21.0996 11.0994C21.7663 11.0994 22.2996 10.8327 22.6996 10.2993C23.0996 9.76598 23.2996 8.99927 23.2996 7.99927C23.2996 7.1326 23.0996 6.4325 22.6996 5.89917C22.2996 5.36584 21.7663 5.09937 21.0996 5.09937C20.4329 5.09937 19.8996 5.36584 19.4996 5.89917C19.033 6.4325 18.7996 7.19922 18.7996 8.19922ZM26.3997 4.09937H27.6996V4.99927C28.2996 4.3326 29.0996 3.99927 30.0996 3.99927C31.1663 3.99927 31.8996 4.43265 32.2996 5.29932C32.5663 4.89932 32.8996 4.56598 33.2996 4.29932C33.7663 4.09932 34.2663 3.99927 34.7996 3.99927C36.533 3.99927 37.433 4.93265 37.4996 6.79932V12.0994H36.0996V6.79932C36.0996 6.26598 35.9663 5.86603 35.6996 5.59937C35.4996 5.26603 35.0663 5.09937 34.3997 5.09937C33.933 5.09937 33.533 5.26603 33.1996 5.59937C32.8663 5.86603 32.6663 6.26598 32.5996 6.79932V12.0994H31.2996V6.89917C31.2996 5.69917 30.7329 5.09937 29.5996 5.09937C28.6663 5.09937 28.033 5.49932 27.6996 6.29932V12.0994H26.3997V4.09937ZM42.8997 8.09937V7.99927C42.8997 6.7326 43.1996 5.7326 43.7996 4.99927C44.333 4.26593 45.0663 3.89917 45.9996 3.89917C46.933 3.89917 47.6996 4.2325 48.2996 4.89917V0.699219H49.5996V11.9993H48.3997L48.2996 11.0994C47.7663 11.766 46.9996 12.0994 45.9996 12.0994C45.133 12.0994 44.3996 11.7326 43.7996 10.9993C43.1996 10.2659 42.8997 9.29937 42.8997 8.09937ZM44.2996 8.09937C44.2996 9.0327 44.4663 9.73255 44.7996 10.1992C45.1996 10.7326 45.733 10.9993 46.3997 10.9993C47.2663 10.9993 47.8996 10.5993 48.2996 9.79932V6.19922C47.833 5.46589 47.1997 5.09937 46.3997 5.09937C45.733 5.09937 45.1996 5.33265 44.7996 5.79932C44.4663 6.33265 44.2996 7.09937 44.2996 8.09937ZM57.9996 11.9993H56.5996C56.5329 11.8659 56.4663 11.5992 56.3997 11.1992C55.7997 11.7992 55.0663 12.0994 54.1996 12.0994C53.3996 12.0994 52.733 11.8993 52.1996 11.4993C51.733 11.0326 51.4996 10.466 51.4996 9.79932C51.4996 8.99932 51.7997 8.36584 52.3997 7.89917C53.0663 7.4325 53.9663 7.19922 55.0996 7.19922H56.3997V6.59937C56.3997 6.1327 56.2663 5.7325 55.9996 5.39917C55.6663 5.1325 55.233 4.99927 54.6996 4.99927C54.233 4.99927 53.833 5.1325 53.4996 5.39917C53.1663 5.59917 52.9996 5.89932 52.9996 6.29932H51.5996C51.5996 5.89932 51.7663 5.49937 52.0996 5.09937C52.3663 4.76603 52.733 4.46589 53.1996 4.19922C53.6663 3.99922 54.1996 3.89917 54.7996 3.89917C55.733 3.89917 56.433 4.1327 56.8997 4.59937C57.433 5.06603 57.6996 5.69927 57.6996 6.49927V10.0994C57.6996 10.8327 57.7996 11.4325 57.9996 11.8992V11.9993ZM54.3997 10.8992C54.7997 10.8992 55.1996 10.7994 55.5996 10.5994C55.9329 10.3994 56.1997 10.1326 56.3997 9.79932V8.09937H55.2996C53.633 8.09937 52.7996 8.59937 52.7996 9.59937C52.7996 9.99936 52.9663 10.3327 53.2996 10.5994C53.5663 10.7994 53.933 10.8992 54.3997 10.8992ZM63.6996 3.99927V5.29932C63.4996 5.23265 63.2663 5.19922 62.9996 5.19922C62.133 5.19922 61.533 5.56598 61.1996 6.29932V11.9993H59.8997V4.09937H61.1996V4.99927C61.6663 4.26593 62.2996 3.89917 63.0996 3.89917C63.3663 3.89917 63.5663 3.9326 63.6996 3.99927ZM69.5996 9.89917C69.5996 9.49917 69.4329 9.19927 69.0996 8.99927C68.8329 8.79927 68.3663 8.6326 67.6996 8.49927C67.033 8.36593 66.4996 8.19927 66.0996 7.99927C65.6996 7.79927 65.3996 7.53255 65.1996 7.19922C64.9996 6.93255 64.8997 6.59922 64.8997 6.19922C64.8997 5.59922 65.1663 5.06603 65.6996 4.59937C66.233 4.1327 66.933 3.89917 67.7996 3.89917C68.733 3.89917 69.4663 4.1327 69.9996 4.59937C70.533 5.06603 70.7996 5.66584 70.7996 6.39917H69.4996C69.4996 5.99917 69.333 5.66584 68.9996 5.39917C68.6663 5.1325 68.2663 4.99927 67.7996 4.99927C67.333 4.99927 66.9663 5.09932 66.6996 5.29932C66.3663 5.56598 66.1996 5.86589 66.1996 6.19922C66.1996 6.53255 66.3329 6.76584 66.5996 6.89917C66.8663 7.09917 67.333 7.26584 67.9996 7.39917C68.6663 7.5325 69.233 7.69917 69.6996 7.89917C70.0996 8.16584 70.3996 8.43255 70.5996 8.69922C70.7996 8.96589 70.8997 9.33265 70.8997 9.79932C70.8997 10.466 70.6329 11.0326 70.0996 11.4993C69.4996 11.8993 68.7663 12.0994 67.8997 12.0994C67.233 12.0994 66.6663 11.9993 66.1996 11.7993C65.6663 11.5326 65.2663 11.1993 64.9996 10.7993C64.733 10.3993 64.5996 9.96593 64.5996 9.49927H65.9996C65.9996 9.96593 66.1663 10.3327 66.4996 10.5994C66.833 10.866 67.2997 10.9993 67.8997 10.9993C68.3663 10.9993 68.7663 10.8992 69.0996 10.6992C69.4329 10.4992 69.5996 10.2325 69.5996 9.89917ZM74.0996 0.699219V11.9993H72.7996V0.699219H74.0996ZM82.5996 11.9993H81.1996C81.0663 11.7993 80.9996 11.4994 80.9996 11.0994C80.333 11.766 79.5663 12.0994 78.6996 12.0994C77.8996 12.0994 77.2663 11.8993 76.7996 11.4993C76.2663 11.0326 75.9996 10.466 75.9996 9.79932C75.9996 8.93265 76.333 8.29917 76.9996 7.89917C77.5996 7.4325 78.4663 7.19922 79.5996 7.19922H80.8997V6.49927C80.8997 6.0326 80.7663 5.66584 80.4996 5.39917C80.233 5.1325 79.833 4.99927 79.2996 4.99927C78.7663 4.99927 78.333 5.1325 77.9996 5.39917C77.733 5.59917 77.5996 5.86589 77.5996 6.19922H76.1996C76.1996 5.86589 76.3329 5.49937 76.5996 5.09937C76.8663 4.69937 77.2663 4.39922 77.7996 4.19922C78.2663 3.99922 78.7663 3.89917 79.2996 3.89917C80.233 3.89917 80.9663 4.1327 81.4996 4.59937C82.033 5.06603 82.2996 5.69927 82.2996 6.49927V10.0994C82.2996 10.8327 82.3996 11.4325 82.5996 11.8992V11.9993ZM78.8997 10.8992C79.2997 10.8992 79.6996 10.7994 80.0996 10.5994C80.4996 10.3994 80.7663 10.0992 80.8997 9.69922V8.09937H79.8997C78.233 8.09937 77.3997 8.59937 77.3997 9.59937C77.3997 9.99936 77.533 10.3327 77.7996 10.5994C78.0663 10.7994 78.433 10.8992 78.8997 10.8992ZM88.2996 3.99927V5.19922C88.033 5.19922 87.7996 5.19922 87.5996 5.19922C86.7329 5.19922 86.133 5.56598 85.7996 6.29932V11.9993H84.3997V3.99927H85.6996L85.7996 4.89917C86.1996 4.2325 86.833 3.89917 87.6996 3.89917C87.8996 3.89917 88.0996 3.9326 88.2996 3.99927ZM90.9996 3.99927V11.9993H89.5996V3.99927H90.9996ZM89.4996 1.89917C89.4996 1.69917 89.5663 1.5325 89.6996 1.39917C89.8996 1.19917 90.0996 1.09937 90.2996 1.09937C90.5663 1.09937 90.7663 1.19917 90.8997 1.39917C91.0997 1.5325 91.1996 1.69917 91.1996 1.89917C91.1996 2.16584 91.0997 2.36593 90.8997 2.49927C90.7663 2.6326 90.5663 2.69922 90.2996 2.69922C90.0996 2.69922 89.8996 2.6326 89.6996 2.49927C89.5663 2.36593 89.4996 2.16584 89.4996 1.89917Z" fill="#777777"/>
</svg>
